<svg width="1024" height="1024" xmlns="http://www.w3.org/2000/svg">

 <g>
  <title>background</title>
  <rect fill="none" id="canvas_background" height="1026" width="1026" y="-1" x="-1"/>
 </g>
 <g>
  <title>Layer 1</title>
  <path stroke="null" id="svg_1" fill="#0066EB" d="m985.958898,950.994303l-922.976305,0l0,-906.860863a31.484856,37.828417 0 0 0 -31.484856,-37.843892a31.497736,37.843892 0 0 0 -31.497736,37.828417l0,944.704755a31.484856,37.828417 0 0 0 31.484856,37.828417l954.461161,0a31.484856,37.828417 0 1 0 0,-75.672299l0.01288,0.015465z"/>
  <path stroke="null" id="svg_2" fill="#00D929" d="m205.808377,821.723549a85.769111,85.769111 0 0 0 52.361999,-124.979015l135.174955,-180.365577a85.837538,85.837538 0 0 0 80.609551,-8.73156l86.946089,64.323409a85.769111,85.769111 0 1 0 158.755654,-19.502313l170.676007,-273.128146a85.700676,85.700676 0 1 0 -56.56354,-35.802134l-166.830295,266.873723a85.317479,85.317479 0 0 0 -65.596191,8.211493l-91.366615,-67.649064a85.728054,85.728054 0 1 0 -167.336664,8.143067a86.91872,86.91872 0 0 0 3.010884,9.155823l-140.580869,187.728561a85.714365,85.714365 0 1 0 0.752723,165.721734l-0.013689,0zm693.611652,-645.054309a18.776958,18.776958 0 1 1 -13.275258,23.019566a18.790647,18.790647 0 0 1 13.275258,-23.019566zm-270.514158,405.196423c0.191607,-0.246345 0.410575,-0.47901 0.588493,-0.739034l0.342148,-0.49269a18.393761,18.393761 0 0 1 9.333733,-5.830169a18.804336,18.804336 0 1 1 -10.264375,7.048204l0,0.013689zm-208.353105,-163.080377a18.790647,18.790647 0 0 1 21.254095,27.371666l-0.123172,0.205287a18.722221,18.722221 0 0 1 -23.7586,7.800927a18.776958,18.776958 0 0 1 2.655046,-35.336822l-0.027369,-0.041057zm-241.897079,302.00525a18.790647,18.790647 0 1 1 -13.275258,23.019575a18.790647,18.790647 0 0 1 13.275258,-23.019575z"/>
 </g>
</svg>