<svg xmlns="http://www.w3.org/2000/svg" viewBox="0 0 1024 1024" version="1.1"><path d="M227.2 704l3.104-13.76c8.416-0.768 15.04-3.2 19.84-7.36 4.768-4.096 8.128-9.824 10.112-17.12 1.952-7.328 2.944-16.96 2.944-28.992 0-7.296-0.288-15.264-0.864-23.904l-1.952-36.256H136.64l-15.488 27.52a230.176 230.176 0 0 0-16 33.344c-3.392 9.28-5.088 17.504-5.088 24.64 0 15.744 9.472 25.12 28.416 28.096L125.376 704H10.336l3.104-13.76c5.824-0.768 11.296-3.072 16.448-6.912 5.152-3.84 10.656-9.664 16.448-17.44 5.824-7.776 13.984-20.672 24.48-38.656l180.288-311.648h42.464l20.256 313.6c0.96 14.816 2.624 26.4 5.056 34.752 2.432 8.32 5.76 14.528 9.984 18.56 4.224 4.032 10.368 6.592 18.432 7.712l-3.104 13.792H227.2z m-77.92-151.872h109.984l-4.8-90.56c-0.544-12.384-1.024-27.84-1.408-46.4-0.352-18.56-0.544-32-0.544-40.224h-3.104l-100.128 177.184z m502.944-222.176l-16.896 76.192h-26.976c-1.504-23.04-6.528-39.68-15.04-49.92-8.544-10.208-22.272-15.328-41.216-15.328-15.744 0-30.56 4.64-44.448 13.92-13.856 9.28-26.976 22.72-39.36 40.224a288.064 288.064 0 0 0-32.352 61.6 427.04 427.04 0 0 0-21.12 72 342.144 342.144 0 0 0-7.296 66.24c0 30.56 5.024 53.024 15.04 67.36 10.048 14.336 25.76 21.504 47.136 21.504 14.08 0 26.336-2.112 36.832-6.336 10.496-4.192 20.352-11.328 29.536-21.376 9.184-10.016 18.272-24.032 27.264-42.048h27.008l-17.152 79.904a397.984 397.984 0 0 1-110.24 14.624c-23.264 0-43.04-4.832-59.36-14.496a90.496 90.496 0 0 1-36.832-41.92c-8.256-18.24-12.384-40.256-12.384-65.92 0-13.504 0.96-26.656 2.816-39.392 2.24-15.744 5.824-32.896 10.688-51.456 6.176-23.072 13.984-44.064 23.36-63.04a273.536 273.536 0 0 1 34.56-53.12c12.224-14.272 25.44-26.176 39.68-35.744 13.12-8.8 27.264-15.648 42.464-20.512a157.344 157.344 0 0 1 48.384-7.328c17.056 0 32.864 1.056 47.36 3.104 14.56 2.048 30.72 5.824 48.544 11.264z m43.328 378.304c-25.856 0-45.888-7.264-60.16-21.76-14.24-14.496-21.344-35.328-21.344-62.496 0-10.016 1.248-21.76 3.744-35.264a212.8 212.8 0 0 1 13.504-46.496c7.488-16.832 17.12-31.36 28.864-43.616a120.32 120.32 0 0 1 40.512-28c15.232-6.4 31.616-9.6 49.12-9.6 19.168 0 34.88 3.648 47.136 10.976 12.224 7.36 21.12 17.28 26.624 29.888 5.472 12.576 8.224 27.104 8.224 43.616 0 14.816-2.08 30.656-6.24 47.488-5.984 24.672-14.72 45.6-26.24 62.752a114.88 114.88 0 0 1-43.264 39.136c-17.312 8.896-37.504 13.376-60.48 13.376z m-37.76-73.504c0 18.336 3.776 31.872 11.36 40.64 7.584 8.736 19.04 13.12 34.4 13.12 16.32 0 30.816-7.36 43.488-22.016 12.672-14.656 22.656-35.2 29.984-61.632 7.36-26.4 11.008-49.6 11.008-69.6 0-18.016-3.52-31.552-10.496-40.64-7.008-9.088-17.92-13.632-32.736-13.632-17.344 0-32.48 7.264-45.376 21.76-12.928 14.496-23.104 35.232-30.496 62.24-7.424 27.008-11.136 50.24-11.136 69.76z m339.456 23.264c-13.664 16.48-27.168 28.928-40.512 37.344-13.312 8.416-27.488 12.64-42.496 12.64-17.664 0-30.816-4.48-39.488-13.504-8.64-8.992-12.992-22.08-12.992-39.232 0-10.528 1.504-22.272 4.48-35.264l31.04-129.76h-37.28l2.752-12.736c9.824-1.184 17.6-3.296 23.36-6.4a44.8 44.8 0 0 0 14.528-12.224c3.904-5.088 7.52-11.712 10.88-19.872 3.328-8.16 7.488-20.096 12.48-35.744h34.496l-13.76 61.76H1024l-5.504 25.216h-79.488l-24 97.024c-6.688 26.976-10.016 47.168-10.016 60.48 0 10.176 2.24 17.888 6.624 23.136 4.416 5.248 10.88 7.872 19.392 7.872 7.68 0 15.68-2.976 24.128-8.864 8.416-5.92 17.6-14.88 27.616-26.88l14.496 14.976z" fill="#5D6D7E" p-id="39441"></path></svg>