<svg xmlns="http://www.w3.org/2000/svg" viewBox="0 0 1024 1024" version="1.1"><path d="M672 96v281.984l257.44 402.24A96 96 0 0 1 848.576 928H175.424a96 96 0 0 1-80.864-147.744L352 377.984V96h320z" fill="#FFFFFF" p-id="38636"></path><path d="M672 96v281.984l257.44 402.24A96 96 0 0 1 848.576 928H175.424a96 96 0 0 1-80.864-147.744L352 377.984V96h320z m-32 32h-256.032v259.36L121.536 797.504a64 64 0 0 0 49.152 98.336l4.768 0.16h673.152a64 64 0 0 0 56.576-93.952l-2.656-4.544L640 387.36V128z" fill="#5D6D7E" p-id="38637"></path><path d="M288 672a96 96 0 1 1 0 192 96 96 0 0 1 0-192z m0 32a64 64 0 1 0 0 128 64 64 0 0 0 0-128z m128-224a96 96 0 1 1 0 192 96 96 0 0 1 0-192z m0 32a64 64 0 1 0 0 128 64 64 0 0 0 0-128z" fill="#A0ABB7" p-id="38638"></path><path d="M564.672 660.672a16 16 0 0 1 22.656 0l67.872 67.904 67.872-67.904a16 16 0 0 1 24.48 20.416l-1.856 2.24-67.872 67.872 67.872 67.872 1.856 2.24a16 16 0 0 1-24.48 20.384l-67.872-67.872-67.872 67.872a16 16 0 0 1-24.48-20.416l1.824-2.208 67.904-67.872-67.904-67.872-1.824-2.24a16 16 0 0 1 1.824-20.416z" fill="#27A2DF" p-id="38639"></path></svg>