<svg xmlns="http://www.w3.org/2000/svg" viewBox="0 0 1024 1024" version="1.1"><path d="M327.488 329.92l-16.864 76.224h-27.008c-1.504-23.04-6.528-39.68-15.04-49.92-8.544-10.208-22.272-15.328-41.216-15.328-15.744 0-30.56 4.64-44.448 13.92-13.856 9.28-26.976 22.72-39.36 40.224a288.064 288.064 0 0 0-32.32 61.6 427.04 427.04 0 0 0-21.12 72 342.144 342.144 0 0 0-7.328 66.24c0 30.56 5.024 53.024 15.04 67.36 10.048 14.336 25.76 21.504 47.136 21.504 14.08 0 26.336-2.112 36.832-6.336 10.496-4.192 20.352-11.328 29.536-21.376 9.184-10.016 18.272-24.032 27.296-42.048H265.6l-17.152 79.904a397.984 397.984 0 0 1-110.24 14.624c-23.264 0-43.04-4.832-59.36-14.496a90.496 90.496 0 0 1-36.832-41.92c-8.256-18.24-12.384-40.256-12.384-65.92 0-13.504 0.96-26.656 2.816-39.392 2.24-15.744 5.824-32.896 10.688-51.456 6.208-23.072 13.984-44.064 23.36-63.04a273.536 273.536 0 0 1 34.56-53.12c12.224-14.272 25.44-26.176 39.68-35.744 13.12-8.8 27.264-15.648 42.464-20.512a157.344 157.344 0 0 1 48.384-7.328c17.056 0 32.864 1.056 47.36 3.104 14.56 2.048 30.72 5.824 48.544 11.264z m48 378.336c-25.792 0-45.856-7.264-60.096-21.76-14.24-14.496-21.376-35.328-21.376-62.496 0-10.016 1.28-21.76 3.744-35.264a212.8 212.8 0 0 1 13.504-46.496c7.488-16.832 17.12-31.36 28.864-43.616a120.32 120.32 0 0 1 40.512-28c15.264-6.4 31.616-9.6 49.12-9.6 19.2 0 34.88 3.648 47.136 10.976 12.256 7.36 21.12 17.28 26.624 29.888 5.504 12.576 8.256 27.104 8.256 43.616 0 14.816-2.08 30.656-6.272 47.488-5.984 24.672-14.72 45.6-26.24 62.752a114.88 114.88 0 0 1-43.264 39.136c-17.312 8.896-37.472 13.376-60.48 13.376z m-37.728-73.504c0 18.336 3.808 31.872 11.392 40.64 7.584 8.736 19.04 13.12 34.368 13.12 16.32 0 30.816-7.36 43.52-22.016 12.64-14.656 22.656-35.2 29.984-61.632 7.328-26.4 10.976-49.6 10.976-69.6 0-18.016-3.488-31.552-10.496-40.64-6.976-9.088-17.92-13.632-32.736-13.632-17.344 0-32.448 7.264-45.376 21.76-12.928 14.496-23.072 35.232-30.496 62.24-7.424 27.008-11.136 50.24-11.136 69.76z m360-111.488c-1.824-15.04-6.112-25.888-12.864-32.64-6.752-6.72-17.216-10.112-31.36-10.112a50.24 50.24 0 0 0-21.28 4.352 35.072 35.072 0 0 0-14.976 12.768 34.944 34.944 0 0 0-5.504 19.616c0 6.176 1.248 11.808 3.744 16.864 2.496 5.12 6.72 10.4 12.608 15.904 5.92 5.472 14.208 11.84 24.896 18.976 16.16 10.848 27.52 21.344 33.984 31.52a64 64 0 0 1 9.76 35.232c0 15.68-3.744 28.96-11.264 39.872a67.296 67.296 0 0 1-30.72 24.384c-13.024 5.344-27.68 8-44.032 8-14.656 0-28.352-1.088-41.12-3.264a370.624 370.624 0 0 1-37.12-8.224l11.744-54.016h19.52c1.152 15.36 5.536 26.784 13.12 34.368 7.584 7.584 18.624 11.392 33.12 11.392 14.848 0 26.432-3.712 34.752-11.136 8.32-7.424 12.48-17.216 12.48-29.376 0-7.168-1.248-13.568-3.744-19.232a52.16 52.16 0 0 0-11.744-16.256 172.992 172.992 0 0 0-22.72-17.76 191.616 191.616 0 0 1-25.536-20.256 72.128 72.128 0 0 1-15.104-20.864 58.08 58.08 0 0 1-5.376-25.12c0-13.824 3.424-25.824 10.24-36 6.848-10.176 16.544-17.92 29.12-23.264 12.576-5.312 27.296-8 44.16-8 27.456 0 51.712 3.584 72.736 10.752l-11.52 51.52h-20z m271.008-46.016l23.008-16.512 16 4-38.272 169.76c-2.336 10.016-3.904 17.728-4.736 23.136-0.832 5.44-1.28 9.856-1.28 13.376 0 6.816 1.92 11.776 5.76 14.88 3.84 3.072 11.2 5.024 22.016 5.856l-2.24 12.256h-71.52l15.776-62.72-3.264-1.024c-16 23.328-31.168 40.416-45.504 51.232-14.336 10.848-29.504 16.256-45.504 16.256-18.336 0-32.544-6.912-42.624-20.736-10.08-13.856-15.104-33.28-15.104-58.24 0-16 1.824-32.064 5.472-48.128 3.68-16.096 9.216-31.36 16.64-45.76 7.424-14.4 16.32-27.136 26.624-38.144a119.68 119.68 0 0 1 35.872-26.24 101.44 101.44 0 0 1 44.384-9.76c10.336 0 20.16 1.216 29.504 3.648 9.312 2.4 18.976 6.72 28.992 12.864z m-22.016 74.496c1.504-6.816 2.528-12.736 3.008-17.76a163.84 163.84 0 0 0 0.768-16.224c0-13.024-2.752-22.464-8.256-28.384-5.504-5.92-14.688-8.864-27.52-8.864-6.976 0-13.664 1.12-20 3.36-6.304 2.24-12.736 6.016-19.232 11.264a98.784 98.784 0 0 0-18.624 20.608 153.376 153.376 0 0 0-16.128 31.008 215.68 215.68 0 0 0-11.264 39.136 215.68 215.68 0 0 0-4 40.64c0 17.28 2.4 30.272 7.136 38.848 4.736 8.576 12.704 12.864 23.872 12.864 5.184 0 10.56-1.152 16.128-3.52 5.568-2.304 11.808-6.592 18.624-12.832 6.848-6.272 14.592-15.456 23.264-27.648a177.92 177.92 0 0 0 18.624-33.12c4.576-10.912 8.352-23.776 11.36-38.624l2.24-10.752z" fill="#5D6D7E" p-id="40440"></path></svg>