<svg xmlns="http://www.w3.org/2000/svg" viewBox="0 0 1024 1024" version="1.1"><path d="M299.936 329.92l-16.864 76.224h-27.008c-1.504-23.04-6.528-39.68-15.04-49.92-8.544-10.208-22.272-15.328-41.216-15.328-15.744 0-30.56 4.64-44.448 13.92-13.856 9.28-26.976 22.72-39.36 40.224a288.064 288.064 0 0 0-32.32 61.6 427.04 427.04 0 0 0-21.12 72 342.144 342.144 0 0 0-7.296 66.24c0 30.56 4.992 53.024 15.04 67.36 10.016 14.336 25.728 21.504 47.104 21.504 14.08 0 26.336-2.112 36.832-6.336 10.496-4.192 20.352-11.328 29.536-21.376 9.184-10.016 18.272-24.032 27.296-42.048h26.976l-17.152 79.904a397.984 397.984 0 0 1-110.24 14.624c-23.264 0-43.04-4.832-59.328-14.496a90.496 90.496 0 0 1-36.864-41.92c-8.256-18.24-12.384-40.256-12.384-65.92 0-13.504 0.96-26.656 2.816-39.392 2.24-15.744 5.824-32.896 10.688-51.456 6.208-23.072 13.984-44.064 23.36-63.04a273.536 273.536 0 0 1 34.56-53.12c12.224-14.272 25.44-26.176 39.68-35.744 13.12-8.8 27.296-15.648 42.464-20.512a157.344 157.344 0 0 1 48.384-7.328c17.056 0 32.864 1.056 47.36 3.104 14.56 2.048 30.72 5.824 48.544 11.264z m43.808 378.336c-25.824 0-45.888-7.264-60.16-21.76-14.208-14.496-21.344-35.328-21.344-62.496 0-10.016 1.248-21.76 3.744-35.264a212.8 212.8 0 0 1 13.504-46.496c7.488-16.832 17.12-31.36 28.864-43.616a120.32 120.32 0 0 1 40.512-28c15.264-6.4 31.616-9.6 49.12-9.6 19.2 0 34.88 3.648 47.136 10.976 12.256 7.36 21.12 17.28 26.624 29.888 5.504 12.576 8.256 27.104 8.256 43.616 0 14.816-2.08 30.656-6.272 47.488-5.984 24.672-14.72 45.6-26.24 62.752a114.88 114.88 0 0 1-43.264 39.136c-17.312 8.896-37.472 13.376-60.48 13.376z m-37.76-73.504c0 18.336 3.808 31.872 11.392 40.64 7.584 8.736 19.04 13.12 34.368 13.12 16.32 0 30.816-7.36 43.52-22.016 12.64-14.656 22.656-35.2 29.984-61.632 7.328-26.4 10.976-49.6 10.976-69.6 0-18.016-3.488-31.552-10.496-40.64-6.976-9.088-17.92-13.632-32.736-13.632-17.344 0-32.448 7.264-45.376 21.76-12.928 14.496-23.072 35.232-30.496 62.24-7.424 27.008-11.136 50.24-11.136 69.76z m332.096 23.264c-13.664 16.48-27.168 28.928-40.48 37.344-13.344 8.416-27.52 12.64-42.496 12.64-17.664 0-30.848-4.48-39.52-13.504-8.64-8.992-12.992-22.08-12.992-39.232 0-10.528 1.504-22.272 4.48-35.264l31.04-129.76H500.8l2.752-12.736c9.856-1.184 17.632-3.296 23.36-6.4a44.8 44.8 0 0 0 14.528-12.224c3.904-5.088 7.552-11.712 10.88-19.872 3.328-8.16 7.488-20.096 12.48-35.744h34.496l-13.76 61.76h79.264l-5.504 25.216H579.84l-24 97.024c-6.656 26.976-9.984 47.168-9.984 60.48 0 10.176 2.208 17.888 6.624 23.136 4.416 5.248 10.88 7.872 19.36 7.872 7.68 0 15.712-2.976 24.128-8.864 8.416-5.92 17.6-14.88 27.616-26.88l14.496 14.976z m293.664-35.84c-2.432 11.04-4.032 19.808-4.8 26.272a153.92 153.92 0 0 0-1.088 17.6c0 8.416 2.112 14.4 6.304 17.856 4.224 3.456 11.296 5.568 21.248 6.304l-3.104 13.792h-112.48l3.072-13.76c7.136-1.152 12.48-2.976 16.032-5.504a30.4 30.4 0 0 0 9.024-10.56c2.432-4.48 4.672-9.984 6.72-16.448 2.08-6.464 5.184-18.976 9.28-37.536l23.072-104.32h-151.04l-23.328 106.272c-1.504 6.944-2.656 12.608-3.52 17.024a130.016 130.016 0 0 0-2.4 26.88c0 8.032 1.888 13.856 5.632 17.408 3.744 3.584 11.072 5.824 21.952 6.752l-3.104 13.792h-112.512l3.104-13.76c7.136-1.152 12.48-2.976 16.032-5.504a30.4 30.4 0 0 0 8.992-10.56c2.464-4.48 4.704-9.984 6.752-16.448 2.08-6.464 5.152-18.976 9.28-37.536l47.808-216.576c1.696-7.68 3.168-15.872 4.384-24.608 1.216-8.704 1.824-15.616 1.824-20.672 0-8.8-2.24-14.944-6.752-18.4-4.48-3.488-11.456-5.504-20.8-6.08l3.072-13.76h112.512l-3.104 13.76c-7.136 1.504-12.224 3.2-15.328 5.088a27.776 27.776 0 0 0-8.448 8.416c-2.528 3.776-5.056 9.6-7.584 17.6-2.528 7.968-5.76 20.96-9.696 38.944l-19.136 86.08h151.04l19.136-86.368c1.664-7.68 3.136-15.872 4.352-24.608 1.216-8.704 1.824-15.616 1.824-20.672 0-8.8-2.24-14.944-6.72-18.4-4.544-3.488-11.456-5.504-20.832-6.08l3.072-13.76H1024l-3.104 13.76c-6.368 1.504-10.88 2.912-13.504 4.224a26.016 26.016 0 0 0-7.168 5.344 36.16 36.16 0 0 0-6.176 9.728 125.12 125.12 0 0 0-6.336 18.56c-2.24 8.16-4.864 18.88-7.872 32.192l-48.096 218.24z" fill="#5D6D7E" p-id="39303"></path></svg>