<svg xmlns="http://www.w3.org/2000/svg" viewBox="0 0 1024 1024" version="1.1"><path d="M191.146667 60.245333h516.266666a42.666667 42.666667 0 0 1 30.293334 12.629334l135.509333 136.362666a42.666667 42.666667 0 0 1 12.373333 30.08V917.333333a42.666667 42.666667 0 0 1-42.666666 42.666667H191.146667a42.666667 42.666667 0 0 1-42.666667-42.666667V102.912a42.666667 42.666667 0 0 1 42.666667-42.666667z" fill="#FFFFFF" p-id="45174"></path><path d="M685.781333 85.333333H170.666667v853.333334h682.666666V255.829333h-103.552a64 64 0 0 1-64-64V85.333333z m42.666667 10.666667v95.829333a21.333333 21.333333 0 0 0 21.333333 21.333334H844.8L728.448 96zM170.666667 42.666667h547.157333a42.666667 42.666667 0 0 1 30.250667 12.586666l135.509333 136.405334a42.666667 42.666667 0 0 1 12.416 30.08V938.666667a42.666667 42.666667 0 0 1-42.666667 42.666666H170.666667a42.666667 42.666667 0 0 1-42.666667-42.666666V85.333333a42.666667 42.666667 0 0 1 42.666667-42.666666z" fill="#5D6D7E" p-id="45175"></path><path d="M682.666667 426.666667h-42.666667V384H384v170.666667h42.666667v42.666666H384a42.666667 42.666667 0 0 1-42.666667-42.666666V384a42.666667 42.666667 0 0 1 42.666667-42.666667h256a42.666667 42.666667 0 0 1 42.666667 42.666667v42.666667z" fill="#2FAF9A" p-id="45176"></path><path d="M469.333333 426.666667h256a42.666667 42.666667 0 0 1 42.666667 42.666666v106.666667h-341.333333V469.333333a42.666667 42.666667 0 0 1 42.666666-42.666666z" fill="#EF633F" p-id="45177"></path><path d="M128 469.333333v85.333334H42.666667l85.333333-85.333334z m768 0l85.333333 85.333334h-85.333333v-85.333334z" fill="#1582B8" p-id="45178"></path><path d="M597.333333 341.333333h-42.666666V298.666667H298.666667v170.666666h42.666666v42.666667H298.666667a42.666667 42.666667 0 0 1-42.666667-42.666667V298.666667a42.666667 42.666667 0 0 1 42.666667-42.666667h256a42.666667 42.666667 0 0 1 42.666666 42.666667v42.666666zM42.666667 554.666667h938.666666v341.333333H42.666667v-341.333333z m276.053333 66.56v198.570666h75.434667c14.805333 0 26.624-1.408 35.456-4.224 11.818667-3.797333 21.205333-9.045333 28.16-15.829333 9.216-8.96 16.298667-20.650667 21.290666-35.072 4.053333-11.818667 6.058667-25.898667 6.058667-42.24 0-18.602667-2.133333-34.261333-6.485333-46.933333a86.741333 86.741333 0 0 0-18.944-32.170667 66.389333 66.389333 0 0 0-29.952-18.261333c-8.661333-2.56-21.248-3.84-37.76-3.84H318.72z m40.106667 33.621333h17.962666c16.341333 0 27.306667 0.64 32.938667 1.877333 7.466667 1.621333 13.653333 4.736 18.517333 9.386667 4.906667 4.565333 8.661333 10.965333 11.392 19.2 2.688 8.234667 4.053333 20.010667 4.053334 35.328 0 15.36-1.365333 27.477333-4.053334 36.394667-2.730667 8.874667-6.229333 15.274667-10.496 19.157333a36.992 36.992 0 0 1-16.213333 8.234667 109.226667 109.226667 0 0 1-24.192 1.92h-29.952v-131.498667z m159.744 164.949333h37.248V663.466667l39.253333 156.288h38.613333l39.424-156.288v156.288h37.205334V621.226667H650.24l-35.584 135.424-36.053333-135.424h-59.989334v198.528z" fill="#3B97D3" p-id="45179"></path></svg>