<svg xmlns="http://www.w3.org/2000/svg" viewBox="0 0 1024 1024" version="1.1"><path d="M457.376 751.168c-20.032 21.92-39.264 39.264-57.696 52a193.696 193.696 0 0 1-55.232 27.2c-18.432 5.44-38.72 8.128-60.96 8.128-21.376 0-39.808-3.456-55.232-10.368a105.856 105.856 0 0 1-38.4-28.416 116.8 116.8 0 0 1-22.528-43.072A192.384 192.384 0 0 1 160 702.4c0-28.96 5.216-60.064 15.648-93.216a272.448 272.448 0 0 1 47.328-89.376 221.216 221.216 0 0 1 75.968-61.344 211.104 211.104 0 0 1 94.24-21.76c32.768 0 57.344 6.656 73.728 19.936 16.384 13.248 24.576 33.984 24.576 62.144 0 46.048-21.6 80.576-64.8 103.584-43.2 23.04-107.296 34.56-192.32 34.56a269.376 269.376 0 0 0-4.896 52.8c0 28.416 5.536 49.088 16.64 61.952 11.104 12.864 29.248 19.296 54.464 19.296 24.896 0 47.52-5.44 67.84-16.256 20.288-10.848 41.568-27.52 63.776-49.984l25.184 26.432z m-216.128-128.8a533.216 533.216 0 0 0 65.6-4.256 275.68 275.68 0 0 0 48.544-10.56c13.568-4.48 24.8-9.824 33.728-16.064 8.96-6.208 16.064-13.056 21.344-20.48 5.28-7.456 8.928-15.328 10.944-23.584 2.048-8.256 3.072-16.864 3.072-25.792 0-16.512-3.872-29.44-11.584-38.816-7.712-9.344-19.168-14.016-34.336-14.016-18.944 0-37.568 6.848-55.872 20.544-18.24 13.664-34.368 32.064-48.32 55.232a317.568 317.568 0 0 0-33.12 77.792zM838.272 236.256a2547.68 2547.68 0 0 1-101.504 102.24l23.264 54.752c6.176 14.656 11.072 25.472 14.72 32.384 3.68 6.912 7.04 11.904 10.016 15.008a31.744 31.744 0 0 0 9.024 6.72c2.976 1.44 7.744 2.56 14.24 3.392l-2.752 12.256H743.04l-34.752-100.48c-4 3.488-9.28 8.32-15.872 14.592a291.2 291.2 0 0 0-19.136 20c-6.176 7.104-10.496 12.8-12.992 17.12a43.584 43.584 0 0 0-4.896 11.264c-0.736 3.168-1.12 6.4-1.12 9.76 0 4.32 1.216 7.744 3.648 10.24 2.4 2.496 6.528 4.256 12.352 5.248l-2.752 12.256h-71.232l-4.768-12.256a2206.08 2206.08 0 0 1 107.776-108.256l-23.776-55.744a461.44 461.44 0 0 0-11.744-25.888 72.192 72.192 0 0 0-8.64-13.76 29.12 29.12 0 0 0-9.472-7.488 43.52 43.52 0 0 0-15.36-3.36L632.992 224h62.272l33.248 94.24c8.16-7.488 15.904-15.232 23.232-23.232 7.36-8 12.48-14.336 15.52-19.008 2.976-4.672 5.056-8.832 6.24-12.48 1.152-3.68 1.76-7.52 1.76-11.52 0-9.152-5.344-14.4-16-15.744L762.016 224h71.264l4.992 12.256z" fill="#5D6D7E" p-id="39207"></path></svg>