<svg xmlns="http://www.w3.org/2000/svg" viewBox="0 0 1024 1024" version="1.1"><path d="M288 736H128v-288h160V251.552c0-79.52 143.264-144 320-144s320 64.48 320 144v520.192c-4.512 77.792-146.048 140.256-320 140.256s-315.488-62.464-319.904-140.256L288 736z" fill="#FFFFFF" p-id="43146"></path><path d="M320 448h-31.968L288 240C288 160.48 431.264 96 608 96s320 64.48 320 144v547.744C923.488 865.536 781.952 928 608 928s-315.488-62.464-319.904-140.256V736H320v48.96l0.064 0.96C323.168 840.512 449.472 896 608 896s284.832-55.488 287.936-110.08l0.064-0.96V302.848C844.16 350.88 734.656 384 608 384s-236.16-33.12-288-81.152V448z m288-96c161.056 0 288-57.12 288-112S769.056 128 608 128c-161.056 0-288 57.12-288 112s126.944 112 288 112z m288 272v62.848c-33.216 30.784-90.112 55.424-160 69.184v-32.736c95.456-19.872 160-60.16 160-99.296z m0-192v62.848c-33.216 30.784-90.112 55.424-160 69.184v-32.736c95.456-19.872 160-60.16 160-99.296z" fill="#5A6978" p-id="43147"></path><path d="M527.616 736l-43.648-35.296a16 16 0 0 1 20.096-24.864l97.12 78.464-96.896 81.184a16 16 0 0 1-20.544-24.512L535.008 768H128a32 32 0 0 1-32-32v-288a32 32 0 0 1 32-32h544a32 32 0 0 1 32 32v288a32 32 0 0 1-32 32h-32v-32h32v-288H128v288h399.616z" fill="#3B97D3" p-id="43148"></path><path d="M250.88 613.056v-27.04h69.792v63.904c-6.784 6.56-16.608 12.32-29.472 17.312-12.864 4.992-25.92 7.488-39.104 7.488-16.768 0-31.392-3.52-43.84-10.56a67.104 67.104 0 0 1-28.16-30.176 97.568 97.568 0 0 1-9.376-42.688c0-16.704 3.52-31.552 10.496-44.544a70.72 70.72 0 0 1 30.72-29.856c10.304-5.312 23.104-8 38.4-8 19.904 0 35.456 4.192 46.656 12.544 11.2 8.352 18.4 19.904 21.6 34.624l-32.16 6.016a33.952 33.952 0 0 0-12.736-18.656c-6.24-4.544-14.016-6.816-23.36-6.816-14.144 0-25.376 4.48-33.728 13.44-8.352 8.96-12.544 22.272-12.544 39.936 0 19.008 4.256 33.28 12.704 42.816 8.448 9.504 19.52 14.272 33.248 14.272 6.784 0 13.568-1.344 20.384-4 6.816-2.656 12.672-5.888 17.568-9.696v-20.32H250.88z m99.52-101.408h59.2c13.344 0 23.52 1.024 30.496 3.072 9.408 2.784 17.472 7.68 24.192 14.752 6.72 7.072 11.808 15.744 15.296 25.984 3.52 10.24 5.248 22.88 5.248 37.888 0 13.216-1.6 24.576-4.896 34.144a70.72 70.72 0 0 1-17.184 28.32c-5.632 5.472-13.184 9.728-22.752 12.8-7.136 2.24-16.704 3.392-28.672 3.392h-60.896v-160.32z m32.384 27.136v106.208h24.192c9.024 0 15.552-0.512 19.584-1.536 5.248-1.312 9.6-3.52 13.056-6.688 3.456-3.136 6.304-8.288 8.48-15.456 2.176-7.2 3.264-16.96 3.264-29.376 0-12.384-1.088-21.92-3.264-28.544a36.704 36.704 0 0 0-9.184-15.52 30.816 30.816 0 0 0-14.976-7.552c-4.544-1.024-13.408-1.536-26.592-1.536h-14.56z m129.6-27.136h64.128c12.672 0 22.144 0.544 28.384 1.6 6.208 1.056 11.808 3.264 16.736 6.624 4.896 3.328 9.024 7.808 12.288 13.376 3.296 5.6 4.928 11.84 4.928 18.752 0 7.52-2.016 14.4-6.08 20.672a37.632 37.632 0 0 1-16.448 14.112c9.76 2.88 17.28 7.68 22.528 14.56 5.248 6.848 7.872 14.912 7.872 24.16 0 7.296-1.696 14.4-5.088 21.28a42.88 42.88 0 0 1-13.888 16.512c-5.856 4.128-13.12 6.656-21.728 7.616-5.376 0.576-18.4 0.96-39.04 1.088h-54.56v-160.32z m32.384 26.688v37.088h21.248c12.608 0 20.448-0.192 23.488-0.544 5.568-0.64 9.92-2.56 13.088-5.76 3.168-3.168 4.736-7.36 4.736-12.512a17.6 17.6 0 0 0-4.096-12.096c-2.72-3.072-6.784-4.96-12.16-5.632-3.232-0.352-12.48-0.544-27.712-0.544h-18.56z m0 63.776v42.88h29.984c11.68 0 19.072-0.32 22.208-0.992a20.064 20.064 0 0 0 11.744-6.4 19.68 19.68 0 0 0 4.544-13.6 20.928 20.928 0 0 0-3.52-12.256 19.776 19.776 0 0 0-10.08-7.36c-4.416-1.504-13.984-2.272-28.736-2.272h-26.144z" fill="#5A6978" p-id="43149"></path></svg>