<svg xmlns="http://www.w3.org/2000/svg" viewBox="0 0 1024 1024" version="1.1"><path d="M512 169.813333a384 384 0 1 1 0 768 384 384 0 0 1 0-768z m0 42.666667a341.333333 341.333333 0 1 0 0 682.666667 341.333333 341.333333 0 0 0 0-682.666667z" fill="#5D6D7E" p-id="39769"></path><path d="M512 298.666667l256 426.666666H256z" fill="#D8D8D8" p-id="39770"></path><path d="M512 298.666667l256 426.666666h-256z" fill="#525E70" p-id="39771"></path><path d="M512 345.045333a128 128 0 1 0 0-256 128 128 0 0 0 0 256z" fill="#E3725D" p-id="39772"></path><path d="M214.954667 853.461333a128 128 0 1 0 0-256 128 128 0 0 0 0 256z" fill="#A3CA55" p-id="39773"></path><path d="M811.776 853.461333a128 128 0 1 0 0-256 128 128 0 0 0 0 256z" fill="#65C1C2" p-id="39774"></path></svg>