<svg xmlns="http://www.w3.org/2000/svg" viewBox="0 0 1024 1024" version="1.1"><path d="M112 624h640v288h-640z" fill="#FFFFFF" p-id="20842"></path><path d="M96 608h672v320H96V608z m64 284.736h35.904v-35.904H160v35.904z m183.744-178.464v-17.6c0-14.56-5.408-27.456-16.192-38.72a63.04 63.04 0 0 0-19.2-13.024A59.552 59.552 0 0 0 283.936 640c-10.56 0-19.648 1.824-27.264 5.44a53.248 53.248 0 0 0-18.848 14.624c-5.152 6.08-9.024 13.376-11.616 21.824-2.56 8.448-3.872 17.376-3.872 26.752 0 15.712 2.624 28.8 7.936 39.264 5.28 10.432 15.648 18.816 31.136 25.152l25.696 10.56c4.48 1.888 8.032 3.648 10.72 5.28a19.776 19.776 0 0 1 6.528 6.336 27.84 27.84 0 0 1 2.816 10.208 201.12 201.12 0 0 1 0.192 31.488 27.808 27.808 0 0 1-3.36 11.808 18.944 18.944 0 0 1-7.936 7.552 31.488 31.488 0 0 1-14.24 2.656c-9.152 0-15.68-2.624-19.52-7.904a29.312 29.312 0 0 1-5.824-17.792v-11.264H220.544v13.376c0 8.448 1.6 16.256 4.768 23.424 3.168 7.136 7.424 13.44 12.832 18.816 5.408 5.408 11.84 9.6 19.36 12.672 7.52 3.04 15.616 4.576 24.288 4.576 11.52 0 21.248-1.888 29.216-5.632 8-3.744 14.432-8.928 19.36-15.488 4.704-6.336 8.096-14.016 10.208-23.04 2.112-9.056 3.168-18.848 3.168-29.408 0-9.152-0.48-17.28-1.408-24.448a66.624 66.624 0 0 0-5.28-19.2 46.4 46.4 0 0 0-11.616-14.24 68.064 68.064 0 0 0-19.36-10.752l-27.456-10.912a56.576 56.576 0 0 1-11.072-5.632 19.584 19.584 0 0 1-6.176-6.688 23.36 23.36 0 0 1-2.624-8.8 119.04 119.04 0 0 1-0.544-12.32c0-4.224 0.352-8.256 1.056-12.16a29.76 29.76 0 0 1 3.872-10.368 23.616 23.616 0 0 1 7.392-7.04 22.592 22.592 0 0 1 11.968-2.816c9.152 0 15.68 2.976 19.52 8.96 3.904 6.016 5.824 13.12 5.824 21.312v8.096h35.904z m64.416 33.44v31.68c5.856 0 10.624 0.224 14.272 0.704a15.68 15.68 0 0 1 8.608 3.52c3.744 3.04 5.632 9.504 5.632 19.36v35.904a21.44 21.44 0 0 1-4.736 14.624 16.16 16.16 0 0 1-12.864 5.44 16.16 16.16 0 0 1-12.832-5.44 20.416 20.416 0 0 1-4.768-13.92v-18.656h-35.904v20.416c0 9.856 1.696 18.176 5.12 24.992 3.392 6.816 7.68 12.32 12.832 16.544 5.152 4.224 10.912 7.264 17.248 9.152 6.336 1.888 12.32 2.816 17.952 2.816 11.264 0 20.352-2.176 27.296-6.496a56.864 56.864 0 0 0 21.632-24.48c1.184-2.56 2.112-5.76 2.816-9.504 0.704-3.52 1.216-8 1.6-13.376a559.04 559.04 0 0 0 0.16-42.4 54.56 54.56 0 0 0-2.464-14.976 28.992 28.992 0 0 0-6.496-10.56 68.16 68.16 0 0 0-12.864-9.856c5.152-3.04 9.216-5.856 12.16-8.448a26.752 26.752 0 0 0 6.848-9.504c1.408-3.52 2.272-8 2.656-13.376 0.32-5.408 0.512-12.448 0.512-21.12 0-15.264-1.056-26.752-3.168-34.496a41.12 41.12 0 0 0-4.384-10.208 56.32 56.32 0 0 0-20.768-20.256c-6.464-3.84-14.624-5.792-24.48-5.792-7.52 0-14.56 1.408-21.12 4.224a57.728 57.728 0 0 0-17.248 11.264 52.16 52.16 0 0 0-15.84 37.664v20.768h35.904v-20.416a20.8 20.8 0 0 1 4.064-11.616c2.688-4 7.2-5.984 13.536-5.984 5.408 0 9.664 1.632 12.864 4.928a17.504 17.504 0 0 1 4.736 12.672v32.384c0 9.376-2.048 15.36-6.144 17.952-4.128 2.56-11.584 3.872-22.368 3.872z m93.28 145.024h35.904v-152.416h0.704l35.2 107.712h17.952l35.552-107.712h0.704v152.416h35.904v-250.624h-34.848l-45.76 132.704h-0.704l-46.112-132.704H501.44v250.624z" fill="#5D6D7E" p-id="20843"></path><path d="M893.12 484.896l-35.776 33.344-21.824-23.424 70.208-65.472 65.472 70.208-23.392 21.824-20.288-21.76a160.032 160.032 0 0 1-220.576 160.32l25.76-24.864c42.496 12.16 90.144 1.92 124.224-31.008a127.904 127.904 0 0 0 36.16-119.168z m-283.616 49.088a160.032 160.032 0 0 1 219.552-169.92l-25.76 24.864a127.936 127.936 0 0 0-124.224 31.008 127.936 127.936 0 0 0-35.424 122.56l32.8-30.592 21.824 23.424-70.208 65.472-65.472-70.208 23.392-21.824 23.52 25.216z" fill="#C49F74" p-id="20844"></path><path d="M256 256a32 32 0 1 1 0-64 32 32 0 0 1 0 64z m-32 224a32 32 0 1 1 0-64 32 32 0 0 1 0 64z m96-64a32 32 0 1 1 0-64 32 32 0 0 1 0 64z m96 64a32 32 0 1 1 0-64 32 32 0 0 1 0 64z m128-224a32 32 0 1 1 0-64 32 32 0 0 1 0 64z m96 64a32 32 0 1 1 0-64 32 32 0 0 1 0 64z" fill="#3B97D3" p-id="20845"></path><path d="M368 160a48 48 0 1 1 0-96 48 48 0 0 1 0 96z m-224 224a48 48 0 1 1 0-96 48 48 0 0 1 0 96z m288-64a48 48 0 1 1 0-96 48 48 0 0 1 0 96z m96 160a48 48 0 1 1 0-96 48 48 0 0 1 0 96z" fill="#30AD98" p-id="20846"></path></svg>