<svg xmlns="http://www.w3.org/2000/svg" viewBox="0 0 1024 1024" version="1.1"><path d="M288 736H128v-288h160V251.552c0-79.52 143.264-144 320-144s320 64.48 320 144v520.192c-4.512 77.792-146.048 140.256-320 140.256s-315.488-62.464-319.904-140.256L288 736z" fill="#FFFFFF" p-id="43788"></path><path d="M320 448h-31.968L288 240C288 160.48 431.264 96 608 96s320 64.48 320 144v547.744C923.488 865.536 781.952 928 608 928s-315.488-62.464-319.904-140.256V736H320v48.96l0.064 0.96C323.168 840.512 449.472 896 608 896s284.832-55.488 287.936-110.08l0.064-0.96V302.848C844.16 350.88 734.656 384 608 384s-236.16-33.12-288-81.152V448z m288-96c161.056 0 288-57.12 288-112S769.056 128 608 128c-161.056 0-288 57.12-288 112s126.944 112 288 112z m288 272v62.848c-33.216 30.784-90.112 55.424-160 69.184v-32.736c95.456-19.872 160-60.16 160-99.296z m0-192v62.848c-33.216 30.784-90.112 55.424-160 69.184v-32.736c95.456-19.872 160-60.16 160-99.296z" fill="#5A6978" p-id="43789"></path><path d="M527.616 736l-43.648-35.296a16 16 0 0 1 20.096-24.864l97.12 78.464-96.896 81.184a16 16 0 0 1-20.544-24.512L535.008 768H128a32 32 0 0 1-32-32v-288a32 32 0 0 1 32-32h544a32 32 0 0 1 32 32v288a32 32 0 0 1-32 32h-32v-32h32v-288H128v288h399.616z" fill="#3B97D3" p-id="43790"></path><path d="M162.528 672v-160.32h48.448l29.088 109.344 28.768-109.376h48.544V672h-30.08v-126.208L255.52 672H224.32l-31.712-126.208V672h-30.08z m186.88-160.32h59.2c13.344 0 23.52 0.992 30.528 3.04 9.408 2.784 17.44 7.68 24.16 14.752 6.72 7.072 11.84 15.744 15.328 25.984 3.488 10.24 5.248 22.88 5.248 37.888 0 13.216-1.664 24.576-4.928 34.144a70.72 70.72 0 0 1-17.184 28.32c-5.6 5.472-13.184 9.728-22.72 12.8-7.168 2.24-16.736 3.392-28.672 3.392H349.44v-160.32z m32.416 27.104v106.208h24.16c9.056 0 15.584-0.512 19.584-1.536 5.248-1.312 9.6-3.52 13.056-6.688 3.488-3.136 6.304-8.288 8.48-15.456 2.208-7.2 3.296-16.96 3.296-29.376 0-12.384-1.088-21.92-3.296-28.544a36.704 36.704 0 0 0-9.184-15.52 30.816 30.816 0 0 0-14.976-7.552c-4.512-1.024-13.376-1.536-26.56-1.536h-14.56z m129.6-27.136h64.096c12.672 0 22.144 0.544 28.384 1.6 6.24 1.056 11.808 3.264 16.736 6.624 4.928 3.328 9.024 7.808 12.288 13.376 3.296 5.6 4.928 11.84 4.928 18.752 0 7.52-2.016 14.4-6.08 20.672a37.632 37.632 0 0 1-16.448 14.112c9.76 2.88 17.28 7.68 22.528 14.56 5.248 6.848 7.872 14.912 7.872 24.16 0 7.296-1.696 14.4-5.088 21.28a42.88 42.88 0 0 1-13.888 16.512c-5.856 4.128-13.12 6.656-21.696 7.616-5.408 0.576-18.432 0.96-39.04 1.088h-54.592v-160.32z m32.384 26.688v37.088h21.216c12.608 0 20.448-0.192 23.52-0.544 5.536-0.64 9.888-2.56 13.056-5.76 3.2-3.168 4.768-7.36 4.768-12.512a17.6 17.6 0 0 0-4.096-12.096c-2.752-3.072-6.816-4.96-12.224-5.632-3.2-0.352-12.416-0.544-27.648-0.544h-18.592z m0 63.776v42.88h29.952c11.68 0 19.072-0.32 22.208-0.992a20.064 20.064 0 0 0 11.744-6.4 19.68 19.68 0 0 0 4.544-13.6 20.928 20.928 0 0 0-3.52-12.256 19.776 19.776 0 0 0-10.08-7.36c-4.416-1.504-13.984-2.272-28.704-2.272h-26.144z" fill="#5A6978" p-id="43791"></path></svg>