<svg xmlns="http://www.w3.org/2000/svg" viewBox="0 0 1024 1024" version="1.1"><path d="M112 112m32 0l320 0q32 0 32 32l0 736q0 32-32 32l-320 0q-32 0-32-32l0-736q0-32 32-32Z" fill="#FBF4E4" p-id="36714"></path><path d="M576 672a208 208 0 1 0 0-416 208 208 0 0 0 0 416z" fill="#FFFFFF" p-id="36715"></path><path d="M320 299.456h160L491.584 256H640v416H320z" fill="#DDEEDB" p-id="36716"></path><path d="M320 704h160v192H320v-192zM128 320h160v160H128V320z" fill="#A5D0E8" p-id="36717"></path><path d="M512 662.752V896a32 32 0 0 1-32 32H128a32 32 0 0 1-32-32V128a32 32 0 0 1 32-32h352a32 32 0 0 1 32 32v142.528l-32 17.088V128H128v768h352v-248.864l13.6 9.376 18.4 6.24zM320 480h320V272.512L672 288v368.512L640 672v-160H320V288h159.296L448 304.736l-1.856 15.264H320v160zM288 288v224H128v-32h160v-160H128V288h160z m32-160v544h160v32h-160v192H288v-192H128v-32h160V128h32z" fill="#5D6D7E" p-id="36718"></path><path d="M695.456 654.048a224 224 0 1 1 26.048-19.2l18.144 18.112a32 32 0 0 1 32.704 7.968l131.584 133.504a32 32 0 0 1-45.568 44.928l-131.616-133.504a32 32 0 0 1-8.512-29.056l-22.784-22.752zM576 656.512a192 192 0 1 0 0-384 192 192 0 0 0 0 384z" fill="#5D6D7E" p-id="36719"></path><path d="M576 688.512a224 224 0 1 1 145.504-53.696l-26.048 19.2A222.944 222.944 0 0 1 576 688.544z m0-32a192 192 0 1 0 0-384 192 192 0 0 0 0 384z" fill="#808FA1" p-id="36720"></path></svg>