<svg xmlns="http://www.w3.org/2000/svg" viewBox="0 0 1024 1024" version="1.1"><path d="M112 624h640v288h-640z" fill="#FFFFFF" p-id="20792"></path><path d="M96 608h672v320H96V608z m78.784 288h35.904v-35.904H174.784V896z m67.584 0h107.008v-35.904H278.272v-214.72H242.368V896z m131.296 0h35.904v-250.624h-35.904V896z m186.912-178.464v-17.6c0-14.56-5.408-27.456-16.192-38.72a63.04 63.04 0 0 0-19.2-13.024 59.552 59.552 0 0 0-24.448-4.928c-10.56 0-19.648 1.824-27.264 5.44a53.248 53.248 0 0 0-18.848 14.624c-5.152 6.08-9.024 13.376-11.616 21.824-2.56 8.448-3.872 17.376-3.872 26.752 0 15.712 2.624 28.8 7.936 39.264 5.28 10.432 15.648 18.816 31.136 25.152l25.696 10.56c4.48 1.888 8.032 3.648 10.752 5.28a19.776 19.776 0 0 1 6.496 6.336 27.84 27.84 0 0 1 2.816 10.208 201.12 201.12 0 0 1 0.16 31.52 27.808 27.808 0 0 1-3.328 11.776 18.944 18.944 0 0 1-7.936 7.552 31.488 31.488 0 0 1-14.24 2.656c-9.152 0-15.68-2.624-19.52-7.904a29.312 29.312 0 0 1-5.824-17.792v-11.264h-35.904v13.376c0 8.448 1.6 16.256 4.736 23.424 3.2 7.136 7.456 13.44 12.864 18.816 5.408 5.408 11.84 9.6 19.36 12.672 7.52 3.04 15.616 4.576 24.288 4.576 11.52 0 21.248-1.888 29.216-5.632 8-3.744 14.432-8.928 19.36-15.488 4.704-6.336 8.096-14.016 10.208-23.04 2.112-9.056 3.168-18.848 3.168-29.408 0-9.152-0.48-17.28-1.408-24.448a66.624 66.624 0 0 0-5.28-19.2 46.4 46.4 0 0 0-11.616-14.24 68.064 68.064 0 0 0-19.36-10.752l-27.456-10.912a56.576 56.576 0 0 1-11.104-5.632 19.584 19.584 0 0 1-6.144-6.688 23.36 23.36 0 0 1-2.656-8.8 119.04 119.04 0 0 1-0.512-12.32c0-4.224 0.352-8.256 1.056-12.16a29.76 29.76 0 0 1 3.872-10.368 23.616 23.616 0 0 1 7.392-7.04 22.592 22.592 0 0 1 11.968-2.816c9.152 0 15.68 2.976 19.52 8.96 3.904 6.016 5.824 13.12 5.824 21.312v8.096h35.904zM610.912 896h35.904v-216.832h41.536v-33.792h-118.976v33.792h41.536V896z" fill="#5D6D7E" p-id="20793"></path><path d="M224 256a32 32 0 1 1 0-64 32 32 0 0 1 0 64z m-32 224a32 32 0 1 1 0-64 32 32 0 0 1 0 64z m96-64a32 32 0 1 1 0-64 32 32 0 0 1 0 64z m96 64a32 32 0 1 1 0-64 32 32 0 0 1 0 64z m128-224a32 32 0 1 1 0-64 32 32 0 0 1 0 64z m96 64a32 32 0 1 1 0-64 32 32 0 0 1 0 64z" fill="#3B97D3" p-id="20794"></path><path d="M336 160a48 48 0 1 1 0-96 48 48 0 0 1 0 96z m-224 224a48 48 0 1 1 0-96 48 48 0 0 1 0 96z m288-64a48 48 0 1 1 0-96 48 48 0 0 1 0 96z m160 160a48 48 0 1 1 0-96 48 48 0 0 1 0 96z" fill="#30AD98" p-id="20795"></path><path d="M800 579.104v-121.664C762.112 408.416 733.856 384 720 384a16 16 0 0 1 0-32c28.416 0 62.912 30.176 108.736 90.304l3.264 4.288v131.52l50.432-45.952a16 16 0 1 1 21.568 23.68l-87.776 79.968-91.2-79.776a16 16 0 1 1 21.024-24.064L800 579.104z" fill="#C49F74" p-id="20796"></path></svg>