<svg xmlns="http://www.w3.org/2000/svg" viewBox="0 0 1024 1024" version="1.1"><path d="M878.08 597.333333h42.666667v298.666667h-42.666667v21.333333a42.666667 42.666667 0 0 1-42.666667 42.666667H183.253333a42.666667 42.666667 0 0 1-42.666666-42.666667V896h-42.666667v-298.666667h42.666667V106.837333a42.666667 42.666667 0 0 1 42.666666-42.666666h516.608a42.666667 42.666667 0 0 1 30.293334 12.586666l135.509333 136.405334a42.666667 42.666667 0 0 1 12.373333 30.08V597.333333z" fill="#FFFFFF" p-id="45327"></path><path d="M170.666667 554.666667H128V85.333333a42.666667 42.666667 0 0 1 42.666667-42.666666h547.157333a42.666667 42.666667 0 0 1 30.250667 12.586666l135.509333 136.405334a42.666667 42.666667 0 0 1 12.416 30.08V554.666667h-42.666667V255.829333h-103.552a64 64 0 0 1-64-64V85.333333H170.666667v469.333334z m0 341.333333v42.666667h682.666666v-42.666667h42.666667v42.666667a42.666667 42.666667 0 0 1-42.666667 42.666666H170.666667a42.666667 42.666667 0 0 1-42.666667-42.666666v-42.666667h42.666667zM728.448 96v95.829333a21.333333 21.333333 0 0 0 21.333333 21.333334H844.8L728.448 96z" fill="#5D6D7E" p-id="45328"></path><path d="M682.666667 426.666667h-42.666667V384H384v170.666667h42.666667v42.666666H384a42.666667 42.666667 0 0 1-42.666667-42.666666V384a42.666667 42.666667 0 0 1 42.666667-42.666667h256a42.666667 42.666667 0 0 1 42.666667 42.666667v42.666667z" fill="#2FAF9A" p-id="45329"></path><path d="M469.333333 426.666667h256a42.666667 42.666667 0 0 1 42.666667 42.666666v128h-341.333333v-128a42.666667 42.666667 0 0 1 42.666666-42.666666z" fill="#EF633F" p-id="45330"></path><path d="M128 469.333333v85.333334H42.666667l85.333333-85.333334z m768 0l85.333333 85.333334h-85.333333v-85.333334z" fill="#1582B8" p-id="45331"></path><path d="M597.333333 341.333333h-42.666666V298.666667H298.666667v170.666666h42.666666v42.666667H298.666667a42.666667 42.666667 0 0 1-42.666667-42.666667V298.666667a42.666667 42.666667 0 0 1 42.666667-42.666667h256a42.666667 42.666667 0 0 1 42.666666 42.666667v42.666666zM42.666667 554.666667h938.666666v341.333333H42.666667v-341.333333z m85.333333 268.501333h40.106667v-74.88h26.112c18.133333 0 32-0.938667 41.557333-2.858667 7.04-1.536 13.994667-4.693333 20.821333-9.386666 6.826667-4.736 12.416-11.264 16.853334-19.584 4.394667-8.32 6.613333-18.56 6.613333-30.72 0-15.786667-3.84-28.714667-11.52-38.698667a52.053333 52.053333 0 0 0-28.586667-19.413333c-7.381333-2.005333-23.253333-2.986667-47.616-2.986667H128v198.528z m40.106667-164.949333h19.328c14.464 0 24.064 0.426667 28.842666 1.365333a27.733333 27.733333 0 0 1 16.128 8.789333c4.266667 4.693333 6.4 10.666667 6.4 17.92a26.666667 26.666667 0 0 1-4.565333 15.402667 26.325333 26.325333 0 0 1-12.544 9.770667c-5.333333 2.048-15.872 3.114667-31.658667 3.114666h-21.973333v-56.32z m237.226666 91.946666h45.909334v25.173334c-6.058667 4.693333-13.312 8.704-21.76 11.989333a69.034667 69.034667 0 0 1-25.216 4.949333c-16.981333 0-30.72-5.888-41.173334-17.664-10.496-11.776-15.701333-29.44-15.701333-52.992 0-21.845333 5.12-38.357333 15.488-49.450666 10.325333-11.093333 24.277333-16.64 41.813333-16.64 11.52 0 21.162667 2.816 28.885334 8.448 7.68 5.632 12.970667 13.354667 15.786666 23.082666l39.808-7.424a70.016 70.016 0 0 0-26.752-42.88c-13.866667-10.325333-33.109333-15.488-57.770666-15.488-18.944 0-34.816 3.285333-47.530667 9.856-16.682667 8.576-29.397333 20.906667-38.058667 36.992a114.261333 114.261333 0 0 0-12.970666 55.125334c0 19.029333 3.84 36.693333 11.648 52.906666 7.765333 16.170667 19.328 28.586667 34.773333 37.333334 15.445333 8.704 33.536 13.056 54.314667 13.056 16.341333 0 32.469333-3.072 48.426666-9.258667 15.914667-6.186667 28.074667-13.354667 36.48-21.461333v-79.104H405.333333v33.450666z m113.194667 8.405334c2.645333 22.186667 10.666667 39.125333 24.106667 50.730666 13.482667 11.605333 32.725333 17.365333 57.813333 17.365334 17.28 0 31.658667-2.389333 43.221333-7.253334a58.453333 58.453333 0 0 0 36.266667-54.101333c0-12.501333-2.602667-23.04-7.893333-31.573333a55.765333 55.765333 0 0 0-21.930667-20.181334c-9.386667-4.949333-23.765333-9.685333-43.264-14.293333-19.498667-4.608-31.786667-9.045333-36.864-13.269333a15.232 15.232 0 0 1-5.973333-12.074667c0-5.12 2.133333-9.216 6.4-12.288 6.570667-4.821333 15.701333-7.210667 27.349333-7.210667 11.264 0 19.754667 2.261333 25.386667 6.698667 5.632 4.48 9.344 11.818667 11.050666 22.016l40.106667-1.749333c-0.682667-18.218667-7.253333-32.853333-19.882667-43.733334-12.586667-10.922667-31.317333-16.384-56.234666-16.384-15.274667 0-28.288 2.304-39.082667 6.912a53.845333 53.845333 0 0 0-24.746667 20.096 51.029333 51.029333 0 0 0-8.618666 28.373334c0 15.701333 6.058667 29.013333 18.261333 39.936 8.661333 7.765333 23.722667 14.336 45.226667 19.626666 16.682667 4.181333 27.392 7.04 32.085333 8.661334 6.869333 2.474667 11.690667 5.333333 14.421333 8.618666 2.773333 3.285333 4.138667 7.253333 4.138667 11.946667 0 7.338667-3.285333 13.738667-9.813333 19.2-6.528 5.461333-16.256 8.192-29.184 8.192-12.202667 0-21.888-3.072-29.013334-9.216-7.210667-6.144-11.946667-15.744-14.336-28.842667l-38.997333 3.84z m354.944 39.424c7.936-9.301333 13.738667-18.944 17.322667-28.842667 4.778667-13.013333 7.168-28.074667 7.168-45.226667 0-32.426667-8.618667-57.6-25.856-75.648-17.237333-18.005333-40.533333-27.008-69.973334-27.008-29.738667 0-53.248 8.96-70.570666 27.008-17.365333 18.005333-26.026667 43.221333-26.026667 75.648 0 32.469333 8.661333 57.728 25.941333 75.690667 17.28 17.92 41.216 26.922667 71.68 26.922667a106.666667 106.666667 0 0 0 43.221334-8.533334c16.512 11.093333 25.429333 16.981333 26.666666 17.621334 5.802667 3.157333 11.690667 5.632 17.749334 7.466666l14.762666-28.330666a130.986667 130.986667 0 0 1-32.085333-16.768z m-32.213333-22.613334a136.149333 136.149333 0 0 0-37.802667-20.309333l-11.221333 22.869333c8.362667 2.986667 16.64 7.125333 24.746666 12.458667-5.12 1.877333-10.581333 2.858667-16.384 2.858667-15.530667 0-28.373333-5.76-38.528-17.28s-15.232-28.885333-15.232-52.053334c0-22.869333 5.12-39.978667 15.232-51.328 10.154667-11.392 23.424-17.066667 39.765334-17.066666s29.568 5.674667 39.68 16.981333c10.112 11.349333 15.146667 28.458667 15.146666 51.413333 0 11.093333-1.28 20.906667-3.84 29.482667-2.56 8.576-6.4 15.914667-11.562666 21.973333z" fill="#3B97D3" p-id="45332"></path></svg>