<svg xmlns="http://www.w3.org/2000/svg" viewBox="0 0 1024 1024" version="1.1"><path d="M493.952 581.152V400a16 16 0 0 1 32 0v181.952l53.76-48.96a16 16 0 0 1 21.536 23.68L509.76 640l-88.736-83.52a16 16 0 1 1 21.952-23.328l50.976 48zM288.928 86.304c25.6 0 46.08 5.76 60.8 17.6 15.36 12.16 24 30.4 26.24 54.4h-25.92c-2.88-16.64-9.28-28.8-19.2-36.8-10.24-8.32-24.64-12.16-43.2-12.16-16.96 0-30.08 2.56-39.68 8.32-10.88 6.4-16.32 16-16.32 29.12 0 11.52 6.4 20.8 19.52 27.84 5.76 3.2 19.84 8 41.92 14.4 30.08 8.96 49.92 16.32 59.52 22.08 18.88 11.52 28.48 27.52 28.48 48.32 0 19.84-8 35.84-24 47.36-16 11.2-37.44 16.96-64.64 16.96-26.88 0-48-5.76-63.36-17.28-17.92-13.76-27.84-34.56-29.76-62.72h25.92c2.24 19.84 9.28 34.56 20.8 43.84 10.56 8.32 25.92 12.8 46.4 12.8 18.56 0 33.92-3.52 45.44-10.56 11.52-7.04 17.28-16.64 17.28-28.8 0-14.4-7.68-25.6-22.72-33.6-6.4-3.84-22.72-9.28-48.32-16.64-27.52-8.32-45.12-14.72-52.48-18.56-17.6-10.24-26.24-24.96-26.24-44.16 0-19.84 8.32-35.52 25.28-46.4 15.04-10.24 34.56-15.36 58.24-15.36z m141.056 5.216h81.92c36.16 0 63.36 10.24 81.92 31.36 16.96 19.2 25.6 47.04 25.6 82.88 0 35.2-9.28 63.04-27.52 82.88-19.2 20.8-46.72 31.36-82.56 31.36h-79.36V91.52z m26.24 22.72v183.04h48.64c29.76 0 52.16-8 67.2-23.68 14.08-15.36 21.44-38.08 21.44-67.84 0-30.72-6.72-53.44-19.84-68.16-14.08-15.68-35.84-23.36-65.92-23.36h-51.52z m203.584-22.72h102.08c21.12 0 38.08 5.12 50.56 15.36 12.16 10.24 18.24 24.32 18.24 42.24 0 12.8-3.52 24-10.24 33.28-7.04 8.32-16.32 14.4-27.84 18.24 15.04 2.56 26.56 8.96 34.88 18.56 8.32 9.6 12.8 21.76 12.8 37.12 0 22.4-8 39.04-23.68 49.92-13.44 8.96-32 13.76-55.36 13.76h-101.44V91.52z m26.24 22.08v77.76h69.44c16 0 28.16-3.52 36.48-9.92 8.32-6.72 12.8-16.64 12.8-29.76 0-12.8-4.16-22.4-12.48-28.8-8.32-6.4-20.48-9.28-36.48-9.28h-69.76z m0 99.52v84.8h72.96c16 0 28.48-3.2 38.08-8.96 11.2-7.04 16.96-18.24 16.96-32.96 0-14.72-5.12-25.6-14.72-32.64-9.28-7.04-22.72-10.24-40.32-10.24h-72.96z" fill="#30AD98" p-id="37749"></path><path d="M349.184 698.944h30.304v132.352c0 23.008-2.592 41.28-7.808 54.816-5.216 13.568-14.592 24.576-28.192 33.056-13.6 8.48-31.424 12.736-53.504 12.736-21.472 0-39.04-3.68-52.672-11.104a63.328 63.328 0 0 1-29.216-32.096c-5.824-14.016-8.768-33.152-8.768-57.408v-132.352h30.336v132.16c0 19.904 1.856 34.56 5.536 44 3.712 9.44 10.048 16.704 19.072 21.792 8.992 5.12 20.032 7.68 33.056 7.68 22.272 0 38.176-5.056 47.648-15.168 9.472-10.112 14.208-29.536 14.208-58.272v-132.192zM429.984 928v-229.056h78.88c17.824 0 31.424 1.088 40.8 3.264 13.12 3.04 24.32 8.512 33.6 16.416 12.064 10.208 21.12 23.264 27.104 39.136 5.984 15.904 8.96 34.048 8.96 54.464a160 160 0 0 1-6.08 46.24c-4.064 13.44-9.28 24.576-15.616 33.376a83.008 83.008 0 0 1-20.864 20.768c-7.552 5.056-16.64 8.896-27.36 11.488a156.064 156.064 0 0 1-36.8 3.904h-82.624z m30.304-27.04h48.896c15.104 0 26.944-1.408 35.52-4.224a50.88 50.88 0 0 0 20.576-11.84c7.2-7.2 12.8-16.864 16.8-28.992 4-12.16 6.016-26.88 6.016-44.16 0-23.968-3.936-42.368-11.808-55.232-7.84-12.864-17.408-21.472-28.672-25.856-8.128-3.136-21.184-4.672-39.2-4.672h-48.128v174.976z m199.52 27.04v-229.056h85.952c17.504 0 31.52 2.304 42.112 6.944 10.56 4.64 18.848 11.776 24.832 21.408 5.984 9.632 8.96 19.712 8.96 30.24 0 9.792-2.624 19.008-7.936 27.648-5.312 8.64-13.344 15.616-24.064 20.928 13.856 4.064 24.512 11.008 31.936 20.8 7.456 9.792 11.2 21.344 11.2 34.688 0 10.72-2.272 20.704-6.816 29.92a57.92 57.92 0 0 1-16.8 21.312 70.08 70.08 0 0 1-25.088 11.328c-10.048 2.56-22.368 3.84-36.928 3.84h-87.36z m30.304-132.8h49.536c13.44 0 23.072-0.896 28.928-2.656 7.68-2.304 13.504-6.08 17.408-11.424 3.904-5.312 5.856-11.968 5.856-20 0-7.584-1.824-14.304-5.44-20.064a27.68 27.68 0 0 0-15.68-11.872c-6.72-2.144-18.368-3.2-34.816-3.2h-45.76v69.216z m0 105.76h57.056c9.792 0 16.64-0.352 20.608-1.088 6.976-1.248 12.8-3.328 17.504-6.24 4.704-2.912 8.544-7.168 11.552-12.736 3.04-5.568 4.544-12 4.544-19.296a38.08 38.08 0 0 0-6.56-22.272 34.624 34.624 0 0 0-18.208-13.28c-7.744-2.56-18.944-3.84-33.504-3.84h-52.992v78.752z" fill="#27A2DF" p-id="37750"></path></svg>