<svg xmlns="http://www.w3.org/2000/svg" viewBox="0 0 1024 1024" version="1.1"><path d="M288 736H128v-288h160V251.552c0-79.52 143.264-144 320-144s320 64.48 320 144v520.192c-4.512 77.792-146.048 140.256-320 140.256s-315.488-62.464-319.904-140.256L288 736z" fill="#FFFFFF" p-id="43048"></path><path d="M320 448h-31.968L288 240C288 160.48 431.264 96 608 96s320 64.48 320 144v547.744C923.488 865.536 781.952 928 608 928s-315.488-62.464-319.904-140.256V736H320v48.96l0.064 0.96C323.168 840.512 449.472 896 608 896s284.832-55.488 287.936-110.08l0.064-0.96V302.848C844.16 350.88 734.656 384 608 384s-236.16-33.12-288-81.152V448z m288-96c161.056 0 288-57.12 288-112S769.056 128 608 128c-161.056 0-288 57.12-288 112s126.944 112 288 112z m288 272v62.848c-33.216 30.784-90.112 55.424-160 69.184v-32.736c95.456-19.872 160-60.16 160-99.296z m0-192v62.848c-33.216 30.784-90.112 55.424-160 69.184v-32.736c95.456-19.872 160-60.16 160-99.296z" fill="#5A6978" p-id="43049"></path><path d="M527.616 736l-43.648-35.296a16 16 0 0 1 20.096-24.864l97.12 78.464-96.896 81.184a16 16 0 0 1-20.544-24.512L535.008 768H128a32 32 0 0 1-32-32v-288a32 32 0 0 1 32-32h544a32 32 0 0 1 32 32v288a32 32 0 0 1-32 32h-32v-32h32v-288H128v288h399.616z" fill="#3B97D3" p-id="43050"></path><path d="M168.096 619.84l31.488-3.072c1.92 10.56 5.76 18.336 11.52 23.296 5.824 4.96 13.632 7.424 23.488 7.424 10.432 0 18.272-2.208 23.584-6.592 5.28-4.416 7.904-9.6 7.904-15.488a14.592 14.592 0 0 0-3.328-9.696c-2.24-2.656-6.08-4.96-11.648-6.944a398.432 398.432 0 0 0-25.92-6.976c-17.344-4.32-29.536-9.6-36.512-15.872a41.728 41.728 0 0 1-14.784-32.256c0-8.16 2.304-15.808 6.944-22.912 4.64-7.104 11.296-12.544 20.032-16.256 8.704-3.712 19.2-5.568 31.552-5.568 20.128 0 35.264 4.416 45.44 13.216 10.176 8.832 15.52 20.608 16 35.328l-32.352 1.44c-1.376-8.256-4.352-14.176-8.928-17.792-4.544-3.584-11.392-5.408-20.48-5.408-9.44 0-16.8 1.92-22.112 5.792a11.68 11.68 0 0 0-5.12 9.952c0 3.808 1.6 7.04 4.8 9.76 4.064 3.424 13.984 6.976 29.76 10.72 15.744 3.712 27.392 7.552 34.912 11.52 7.552 3.968 13.44 9.408 17.728 16.32 4.256 6.88 6.4 15.36 6.4 25.536a47.232 47.232 0 0 1-29.312 43.68c-9.344 3.904-20.96 5.856-34.88 5.856-20.288 0-35.84-4.704-46.72-14.08-10.88-9.344-17.344-23.008-19.456-40.96zM325.824 672v-160.32h32.352v63.072h63.456V511.68h32.352V672h-32.352v-70.08h-63.456V672h-32.352z m161.632 0v-160.32h51.968c19.68 0 32.512 0.768 38.496 2.368 9.184 2.432 16.896 7.68 23.072 15.68 6.208 8.096 9.28 18.496 9.28 31.264 0 9.824-1.76 18.112-5.344 24.832-3.552 6.72-8.096 11.968-13.6 15.808s-11.104 6.336-16.8 7.584c-7.712 1.536-18.912 2.304-33.6 2.304h-21.088V672h-32.384z m32.384-133.216v45.504h17.728c12.768 0 21.28-0.832 25.6-2.528a21.248 21.248 0 0 0 10.112-7.872 21.568 21.568 0 0 0 3.648-12.48 20.704 20.704 0 0 0-5.12-14.4 22.4 22.4 0 0 0-13.024-7.136c-3.84-0.736-11.648-1.088-23.296-1.088h-15.648z" fill="#5A6978" p-id="43051"></path></svg>