<svg xmlns="http://www.w3.org/2000/svg" viewBox="0 0 1024 1024" version="1.1"><path d="M77.056 616.544c0 22.688 5.248 39.584 15.744 50.752 10.528 11.168 26.912 16.736 49.216 16.736 17.28 0 32.064-3.2 44.48-9.568 12.352-6.4 21.728-15.424 28.096-27.136 6.4-11.712 9.568-25.632 9.568-41.76a71.36 71.36 0 0 0-6.08-30.24 85.44 85.44 0 0 0-18.24-25.024c-8.16-8-19.936-17.12-35.296-27.424a241.056 241.056 0 0 1-34.592-27.712 110.208 110.208 0 0 1-21.952-30.496 85.472 85.472 0 0 1-8.16-37.696c0-22.144 5.344-41.632 16.032-58.496 10.688-16.896 25.792-29.92 45.28-39.104 19.52-9.184 42.016-13.76 67.52-13.76 17.248 0 33.216 1.152 47.936 3.52 14.72 2.304 30.976 6.304 48.8 11.936l-15.744 72.256h-27.008c-0.736-15.936-3.2-28.448-7.328-37.536-4.096-9.088-10.016-15.616-17.696-19.52-7.68-3.968-17.92-5.92-30.656-5.92-15.584 0-29.248 3.2-41.056 9.568-11.84 6.368-20.8 15.04-27.008 26.016-6.208 10.944-9.28 23.2-9.28 36.704 0 9.728 1.696 18.464 5.056 26.144 3.36 7.68 8.768 15.232 16.16 22.624 7.424 7.424 18.24 16 32.48 25.76 18.4 12.736 32.416 24.128 42.048 34.176 9.664 10.016 16.8 20.64 21.376 31.904 4.608 11.264 6.912 24.288 6.912 39.104 0 22.688-5.504 42.88-16.448 60.608a108.864 108.864 0 0 1-46.4 41.056c-20 9.664-42.72 14.496-68.224 14.496a419.2 419.2 0 0 1-55.552-3.936 405.44 405.44 0 0 1-53.856-10.688l16.864-77.344h27.008z m340.608-249.536l-11.52 48.48H361.92l11.488-48.48h44.256z m-61.76 274.496c-1.824 8.512-3.008 14.72-3.52 18.624a80.256 80.256 0 0 0-0.736 9.856c0 5.024 0.832 8.96 2.496 11.776a15.904 15.904 0 0 0 7.776 6.496c3.488 1.504 9.248 2.656 17.248 3.52l-2.24 12.224H299.36l37.76-168.512c2.176-9.664 3.68-17.376 4.48-23.104 0.864-5.76 1.28-10.56 1.28-14.4a24.32 24.32 0 0 0-2.144-11.232 13.216 13.216 0 0 0-7.104-6.016c-3.328-1.312-9.088-2.144-17.28-2.496l2.784-13.248 60.992-2.24h14.72l-38.976 178.752zM620.16 704h-78.752l31.744-127.008c2.016-8.16 3.968-17.152 5.888-26.976 1.92-9.856 2.88-18.688 2.88-26.528 0-11.84-2.048-20.32-6.144-25.504-4.064-5.152-10.464-7.744-19.104-7.744-7.04 0-14.56 2.72-22.656 8.128-8.064 5.44-16.512 13.504-25.344 24.256-8.864 10.752-16.32 21.664-22.4 32.736-6.08 11.104-10.784 24.544-14.112 40.384L449.408 704h-43.264l38.016-170.752c0.832-3.84 1.952-9.504 3.36-16.992 1.44-7.52 2.144-13.76 2.144-18.752a22.88 22.88 0 0 0-2.144-10.88 12.864 12.864 0 0 0-7.232-5.76c-3.424-1.248-9.216-2.112-17.376-2.624l3.008-13.248 56.736-2.24h14.24l-16.736 64.992 3.008 0.992c16.32-22.976 32.064-40 47.232-51.104s30.336-16.64 45.504-16.64c16.16 0 28.416 4.48 36.768 13.376 8.32 8.928 12.48 22.144 12.48 39.648 0 5.984-0.544 12.512-1.6 19.616a225.6 225.6 0 0 1-3.648 18.88l-20.992 88.96c-2.848 12.032-4.256 21.536-4.256 28.544 0 4.992 0.832 8.896 2.496 11.744a15.904 15.904 0 0 0 7.744 6.496c3.52 1.504 9.28 2.656 17.28 3.52L620.16 704z m310.72-226.752l23.04-16.512 16 4-38.272 169.76c-2.336 10.016-3.904 17.728-4.736 23.136-0.832 5.44-1.28 9.856-1.28 13.376 0 6.816 1.92 11.776 5.76 14.88 3.84 3.072 11.2 5.024 22.016 5.856l-2.24 12.256h-71.52l15.744-62.72-3.232-1.024c-16 23.328-31.168 40.416-45.504 51.232-14.336 10.848-29.504 16.256-45.504 16.256-18.336 0-32.544-6.912-42.624-20.736-10.08-13.856-15.136-33.28-15.136-58.24 0-16 1.856-32.064 5.504-48.128 3.68-16.096 9.216-31.36 16.64-45.76 7.424-14.4 16.288-27.136 26.624-38.144a119.68 119.68 0 0 1 35.872-26.24 101.44 101.44 0 0 1 44.384-9.76c10.336 0 20.16 1.216 29.504 3.648 9.312 2.4 18.976 6.72 28.992 12.864z m-21.984 74.496c1.504-6.816 2.496-12.736 3.008-17.76a163.84 163.84 0 0 0 0.768-16.224c0-13.024-2.752-22.464-8.256-28.384-5.504-5.92-14.688-8.864-27.52-8.864-6.976 0-13.664 1.12-20 3.36-6.336 2.24-12.736 6.016-19.232 11.264a98.784 98.784 0 0 0-18.624 20.608 153.376 153.376 0 0 0-16.128 31.008 215.68 215.68 0 0 0-11.264 39.136 215.68 215.68 0 0 0-4 40.64c0 17.28 2.368 30.272 7.136 38.848 4.736 8.576 12.704 12.864 23.872 12.864 5.152 0 10.56-1.152 16.128-3.52 5.568-2.304 11.776-6.592 18.624-12.832 6.816-6.272 14.592-15.456 23.264-27.648a177.92 177.92 0 0 0 18.624-33.12c4.576-10.912 8.352-23.776 11.36-38.624l2.24-10.752z" fill="#5D6D7E" p-id="40778"></path></svg>