<svg xmlns="http://www.w3.org/2000/svg" viewBox="0 0 1024 1024" version="1.1"><path d="M382.592 367.008l-11.52 48.48h-44.224l11.488-48.48h44.256z m-61.76 274.496c-1.824 8.512-3.008 14.72-3.52 18.624a80.256 80.256 0 0 0-0.736 9.856c0 5.024 0.832 8.96 2.496 11.776a15.904 15.904 0 0 0 7.776 6.496c3.488 1.504 9.248 2.656 17.248 3.52l-2.24 12.224H264.32l37.76-168.512c2.176-9.664 3.68-17.376 4.48-23.104 0.864-5.76 1.28-10.56 1.28-14.4a24.32 24.32 0 0 0-2.144-11.232 13.216 13.216 0 0 0-7.104-6.016c-3.328-1.312-9.088-2.144-17.28-2.496l2.784-13.248 60.992-2.24h14.72l-38.976 178.752zM606.464 704H527.68l31.744-127.008c2.016-8.16 3.968-17.152 5.888-26.976 1.92-9.856 2.88-18.688 2.88-26.528 0-11.84-2.048-20.32-6.144-25.504-4.064-5.152-10.464-7.744-19.104-7.744-7.04 0-14.56 2.72-22.656 8.128-8.064 5.44-16.512 13.504-25.344 24.256-8.864 10.752-16.32 21.664-22.4 32.736-6.08 11.104-10.784 24.544-14.112 40.384L435.712 704h-43.264l38.016-170.752c0.832-3.84 1.952-9.504 3.36-16.992 1.44-7.52 2.144-13.76 2.144-18.752a22.88 22.88 0 0 0-2.144-10.88 12.864 12.864 0 0 0-7.232-5.76c-3.424-1.248-9.216-2.112-17.376-2.624l3.008-13.248 56.736-2.24h14.24l-16.736 64.992 3.008 0.992c16.32-22.976 32.064-40 47.232-51.104s30.336-16.64 45.504-16.64c16.16 0 28.416 4.48 36.768 13.376 8.32 8.928 12.48 22.144 12.48 39.648 0 5.984-0.544 12.512-1.6 19.616a225.6 225.6 0 0 1-3.648 18.88l-20.992 88.96c-2.848 12.032-4.256 21.536-4.256 28.544 0 4.992 0.832 8.896 2.496 11.744a15.904 15.904 0 0 0 7.744 6.496c3.52 1.504 9.28 2.656 17.28 3.52l-2.016 12.224z m325.28-81.856c-2.432 11.072-4.032 19.84-4.8 26.304a153.92 153.92 0 0 0-1.088 17.6c0 8.416 2.112 14.4 6.304 17.856 4.224 3.456 11.296 5.568 21.248 6.304l-3.104 13.792h-112.48l3.072-13.76c7.136-1.152 12.48-2.976 16.032-5.504a30.4 30.4 0 0 0 9.024-10.56c2.432-4.48 4.672-9.984 6.72-16.448 2.08-6.464 5.184-18.976 9.28-37.536l23.072-104.32h-151.04l-23.328 106.272c-1.504 6.944-2.656 12.608-3.52 17.024a130.016 130.016 0 0 0-2.4 26.88c0 8.032 1.888 13.856 5.632 17.408 3.744 3.584 11.072 5.824 21.952 6.752l-3.104 13.792h-112.512l3.104-13.76c7.136-1.152 12.48-2.976 16.032-5.504a30.4 30.4 0 0 0 8.992-10.56c2.464-4.48 4.704-9.984 6.752-16.448 2.08-6.464 5.152-18.976 9.28-37.536l47.808-216.576c1.696-7.68 3.168-15.872 4.384-24.608 1.216-8.704 1.824-15.616 1.824-20.672 0-8.8-2.24-14.944-6.752-18.4-4.48-3.488-11.456-5.504-20.8-6.08l3.072-13.76h112.512l-3.104 13.76c-7.136 1.504-12.224 3.2-15.328 5.088a27.776 27.776 0 0 0-8.448 8.416c-2.528 3.776-5.056 9.6-7.584 17.6-2.528 7.968-5.76 20.96-9.696 38.944l-19.136 86.08h151.04l19.136-86.368c1.664-7.68 3.136-15.872 4.352-24.608 1.216-8.704 1.824-15.616 1.824-20.672 0-8.8-2.24-14.944-6.72-18.4-4.544-3.488-11.456-5.504-20.832-6.08l3.072-13.76H1024l-3.104 13.76c-6.368 1.504-10.88 2.912-13.504 4.224a26.016 26.016 0 0 0-7.168 5.344 36.16 36.16 0 0 0-6.176 9.728 125.12 125.12 0 0 0-6.336 18.56c-2.24 8.16-4.864 18.88-7.872 32.192l-48.096 218.24z m-887.872-5.6c0 22.688 5.248 39.584 15.744 50.752 10.496 11.168 26.912 16.736 49.216 16.736 17.28 0 32.064-3.2 44.448-9.568 12.384-6.4 21.76-15.424 28.128-27.136 6.4-11.712 9.568-25.632 9.568-41.76a71.36 71.36 0 0 0-6.08-30.24 85.44 85.44 0 0 0-18.24-25.024c-8.16-8-19.936-17.12-35.328-27.424a241.056 241.056 0 0 1-34.56-27.712 110.208 110.208 0 0 1-21.952-30.496 85.472 85.472 0 0 1-8.16-37.696c0-22.144 5.344-41.632 16.032-58.496 10.688-16.896 25.792-29.92 45.28-39.104 19.52-9.184 42.016-13.76 67.52-13.76 17.216 0 33.216 1.152 47.936 3.52 14.72 2.304 30.976 6.304 48.8 11.936l-15.744 72.256h-27.008c-0.768-15.936-3.2-28.448-7.328-37.536-4.128-9.088-10.016-15.616-17.696-19.52-7.68-3.968-17.92-5.92-30.656-5.92-15.584 0-29.248 3.2-41.088 9.568-11.808 6.368-20.8 15.04-26.976 26.016-6.208 10.944-9.28 23.2-9.28 36.704 0 9.728 1.664 18.464 5.056 26.144 3.36 7.68 8.768 15.232 16.16 22.624 7.424 7.424 18.24 16 32.48 25.76 18.4 12.736 32.416 24.128 42.048 34.176 9.664 10.016 16.8 20.64 21.376 31.904 4.608 11.264 6.912 24.288 6.912 39.104 0 22.688-5.504 42.88-16.48 60.608a108.864 108.864 0 0 1-46.4 41.056c-19.968 9.664-42.688 14.496-68.192 14.496a419.2 419.2 0 0 1-55.552-3.936A405.44 405.44 0 0 1 0 693.888l16.864-77.344h27.008z" fill="#5D6D7E" p-id="39395"></path></svg>