<svg xmlns="http://www.w3.org/2000/svg" viewBox="0 0 1024 1024" version="1.1"><path d="M105.728 661.888l84.16 64.384 178.816-469.28h495.68a16 16 0 1 1 0 32H390.72L204.544 777.76l-118.272-90.432a16 16 0 1 1 19.456-25.44z m711.232-257.984a4140 4140 0 0 1-164.928 166.144l37.76 88.96c10.048 23.872 18.016 41.408 24 52.64 5.952 11.232 11.36 19.36 16.224 24.352 4.896 5.024 9.76 8.672 14.656 10.976 4.864 2.304 12.576 4.16 23.136 5.504l-4.48 19.904h-101.12l-56.48-163.328c-6.496 5.696-15.104 13.6-25.792 23.776-10.72 10.144-21.056 20.992-31.104 32.512-10.016 11.52-17.056 20.8-21.12 27.84-4.064 7.04-6.72 13.12-7.904 18.24-1.216 5.152-1.824 10.432-1.824 15.872 0 7.04 1.92 12.576 5.888 16.64 3.904 4.064 10.624 6.912 20.096 8.544l-4.48 19.904h-115.776L416 752.48a3584.96 3584.96 0 0 1 175.104-175.904l-38.592-90.592a749.824 749.824 0 0 0-19.104-42.048 117.344 117.344 0 0 0-14.016-22.368 47.36 47.36 0 0 0-15.424-12.16c-5.824-2.88-14.176-4.704-24.992-5.504l4.48-19.904h101.12l54.048 153.152c13.28-12.16 25.856-24.768 37.76-37.76 11.936-13.024 20.32-23.296 25.216-30.88a88.32 88.32 0 0 0 10.144-20.32c1.92-5.952 2.88-12.192 2.88-18.688 0-14.912-8.704-23.424-26.016-25.6l4.48-19.904h115.744l8.128 19.904z" fill="#5D6D7E" p-id="39115"></path></svg>