<svg xmlns="http://www.w3.org/2000/svg" viewBox="0 0 1024 1024" version="1.1"><path d="M157.952 704h-118.4l3.104-13.76c7.296-0.96 12.736-2.4 16.32-4.384a28.032 28.032 0 0 0 9.408-8.864c2.72-3.936 5.472-10.08 8.288-18.4 2.816-8.352 6.08-21.152 9.856-38.4l60.16-275.36H110.976c-11.616 0-20.896 1.696-27.84 5.088-6.944 3.36-13.856 9.632-20.8 18.816-6.944 9.216-15.36 24.576-25.312 46.144H10.016l21.12-94.784h293.6l-21.952 99.008H275.84c0-18.208-0.48-31.84-1.408-40.96-0.96-9.056-2.72-16-5.344-20.8a21.888 21.888 0 0 0-9.728-9.824c-3.84-1.792-10.624-2.688-20.384-2.688h-41.6l-61.056 277.312a248 248 0 0 0-3.52 17.44c-0.64 4.32-1.216 8.864-1.664 13.664-0.48 4.768-0.704 9.024-0.704 12.8 0 5.792 0.928 10.336 2.816 13.632a16.384 16.384 0 0 0 8.416 7.168c3.744 1.504 10.24 2.624 19.424 3.36L157.952 704z m272.256-226.752l23.04-16.512 16 4-38.272 169.76c-2.336 10.016-3.936 17.728-4.768 23.136-0.832 5.44-1.248 9.856-1.248 13.376 0 6.816 1.92 11.776 5.76 14.88 3.84 3.072 11.168 5.024 21.984 5.856l-2.24 12.256h-71.488l15.744-62.72-3.264-1.024c-16 23.328-31.168 40.416-45.472 51.232-14.336 10.848-29.504 16.256-45.504 16.256-18.336 0-32.544-6.912-42.624-20.736-10.08-13.856-15.136-33.28-15.136-58.24 0-16 1.824-32.064 5.504-48.128 3.648-16.096 9.216-31.36 16.64-45.76 7.392-14.4 16.256-27.136 26.592-38.144a119.68 119.68 0 0 1 35.872-26.24 101.44 101.44 0 0 1 44.384-9.76c10.336 0 20.16 1.216 29.504 3.648 9.344 2.4 19.008 6.72 28.992 12.864z m-21.984 74.496c1.504-6.816 2.496-12.736 3.008-17.76a163.84 163.84 0 0 0 0.736-16.224c0-13.024-2.752-22.464-8.256-28.384-5.504-5.92-14.656-8.864-27.52-8.864-6.976 0-13.632 1.12-19.968 3.36-6.336 2.24-12.768 6.016-19.264 11.264a98.784 98.784 0 0 0-18.624 20.608 153.376 153.376 0 0 0-16.128 31.008 215.68 215.68 0 0 0-11.232 39.136 215.68 215.68 0 0 0-4 40.64c0 17.28 2.368 30.272 7.104 38.848 4.768 8.576 12.736 12.864 23.904 12.864 5.152 0 10.528-1.152 16.096-3.52 5.6-2.304 11.808-6.592 18.624-12.832 6.848-6.272 14.592-15.456 23.264-27.648a177.92 177.92 0 0 0 18.624-33.12c4.576-10.912 8.384-23.776 11.392-38.624l2.24-10.752zM706.016 704h-78.72l31.744-127.008c1.984-8.16 3.936-17.152 5.856-26.976 1.92-9.856 2.88-18.688 2.88-26.528 0-11.84-2.048-20.32-6.112-25.504-4.096-5.152-10.464-7.744-19.136-7.744-7.008 0-14.528 2.72-22.624 8.128-8.096 5.44-16.544 13.504-25.376 24.256s-16.288 21.664-22.4 32.736c-6.08 11.104-10.752 24.544-14.08 40.384L535.264 704h-43.264l37.984-170.752c0.864-3.84 1.984-9.504 3.392-16.992 1.408-7.52 2.112-13.76 2.112-18.752a22.88 22.88 0 0 0-2.112-10.88 12.864 12.864 0 0 0-7.264-5.76c-3.392-1.248-9.184-2.112-17.376-2.624l3.008-13.248 56.768-2.24h14.24l-16.768 64.992 3.008 0.992c16.32-22.976 32.096-40 47.264-51.104 15.168-11.104 30.336-16.64 45.504-16.64 16.16 0 28.416 4.48 36.736 13.376 8.32 8.928 12.48 22.144 12.48 39.648 0 5.984-0.512 12.512-1.6 19.616a225.6 225.6 0 0 1-3.616 18.88l-21.024 88.96c-2.816 12.032-4.224 21.536-4.224 28.544 0 4.992 0.832 8.896 2.496 11.744a15.904 15.904 0 0 0 7.744 6.496c3.52 1.504 9.248 2.656 17.248 3.52l-2.016 12.224z m265.984-226.752l23.008-16.512 16 4-38.272 169.76c-2.304 10.016-3.904 17.728-4.736 23.136-0.832 5.44-1.28 9.856-1.28 13.376 0 6.816 1.92 11.776 5.76 14.88 3.84 3.072 11.2 5.024 22.016 5.856l-2.24 12.256h-71.52l15.776-62.72-3.264-1.024c-16 23.328-31.168 40.416-45.504 51.232-14.336 10.848-29.504 16.256-45.504 16.256-18.336 0-32.544-6.912-42.624-20.736-10.08-13.856-15.104-33.28-15.104-58.24 0-16 1.824-32.064 5.504-48.128 3.648-16.096 9.184-31.36 16.608-45.76 7.424-14.4 16.32-27.136 26.624-38.144a119.68 119.68 0 0 1 35.872-26.24 101.44 101.44 0 0 1 44.384-9.76c10.336 0 20.16 1.216 29.504 3.648 9.312 2.4 18.976 6.72 28.992 12.864z m-22.016 74.496c1.504-6.816 2.528-12.736 3.008-17.76a163.84 163.84 0 0 0 0.768-16.224c0-13.024-2.752-22.464-8.256-28.384-5.504-5.92-14.656-8.864-27.52-8.864-6.976 0-13.664 1.12-20 3.36-6.304 2.24-12.736 6.016-19.232 11.264a98.784 98.784 0 0 0-18.624 20.608 153.376 153.376 0 0 0-16.128 31.008 215.68 215.68 0 0 0-11.264 39.136 215.68 215.68 0 0 0-4 40.64c0 17.28 2.4 30.272 7.136 38.848 4.768 8.576 12.704 12.864 23.872 12.864 5.184 0 10.56-1.152 16.128-3.52 5.6-2.304 11.808-6.592 18.624-12.832 6.848-6.272 14.592-15.456 23.264-27.648a177.92 177.92 0 0 0 18.624-33.12c4.576-10.912 8.352-23.776 11.36-38.624l2.24-10.752z" fill="#5D6D7E" p-id="43340"></path></svg>