<svg xmlns="http://www.w3.org/2000/svg" viewBox="0 0 1024 1024" version="1.1"><path d="M91.84 917.376h847.104L512 122.912l-172.576 311.84-67.424-34.24L107.52 496v199.36l82.4 39.936z" fill="#FFFFFF" p-id="33894"></path><path d="M512 160l160 741.312h256z" fill="#30AD98" p-id="33895"></path><path d="M354.624 455.328l-27.456-16.064L512 96l448 832H64l102.272-189.92 29.44 13.952L118.592 896h786.816L512 161.504l-157.376 293.824z" fill="#5D6D7E" p-id="33896"></path><path d="M288 753.824l132.16-76.288v-155.072L288 598.752v155.072z m-32 0V598.72l-132.16-76.288v155.072L256 753.824zM272 384l180.16 104v208L272 800l-180.16-104v-208L272 384z m0 36.96L142.016 496 272 571.04l129.984-75.04L272 420.96z" fill="#27A2DF" p-id="33897"></path></svg>