<svg xmlns="http://www.w3.org/2000/svg" viewBox="0 0 1024 1024" version="1.1"><path d="M96 96h832v832H96z" fill="#FFFFFF" p-id="34183"></path><path d="M519.328 329.536L282.144 704h325.44l-88.256-374.464z m42.048 38.976L640.416 704h133.44l-212.48-335.488zM528 256L832 736H224l304-480z" fill="#30AD98" p-id="34184"></path><path d="M128 128h96V96H96v96h32V128z m352 0h-128 128V96h-128v32h128z m256 0h-128 128V96h-128v32h128z m160 0v64h32V96h-96v32h64z m0 320v-128 128h32v-128h-32v128z m0 256v-128 128h32v-128h-32v128z m-288 192h128-128v32h128v-32h-128z m-256 0h128-128v32h128v-32h-128z m-128 0H128v-96H96v128h128v-32zM128 576v128-128H96v128h32v-128z m0-256H96v128h32v-128 128-128z" fill="#5D6D7E" p-id="34185"></path><path d="M904.96 704l71.136-70.624 22.528 22.72L928 726.176V896h32v32h-32v32h-32v-32h-192v-192h-32v-32h32v-32h32v32h168.96z m-32.256 32H736v135.712L872.704 736z m23.296 21.952L756.96 896H896v-138.048z" fill="#27A2DF" p-id="34186"></path></svg>