<svg xmlns="http://www.w3.org/2000/svg" viewBox="0 0 1024 1024" version="1.1"><path d="M96 96h280.8l110.72 97.792L896 192v704H96z" fill="#FFFFFF" p-id="40009"></path><path d="M384 96l96 96h416l-0.032 256h-32v-64h-736L128 864l703.968-0.032L832 864h63.968L896 896H96V96h288z m-13.248 32H128l-0.032 224h736L864 224H466.752l-96-96z" fill="#5D6D7E" p-id="40010"></path><path d="M352 512h576v288H352z" fill="#708294" p-id="40011"></path><path d="M500.768 736v-133.216h47.456v-27.136H420.8v27.136h47.584V736h32.384z m115.52 2.624c12.736 0 23.36-2.944 31.872-8.8 8.48-5.888 14.72-14.4 18.624-25.664l-30.624-5.12c-1.664 5.824-4.16 10.048-7.424 12.672a18.816 18.816 0 0 1-12.16 3.936 23.264 23.264 0 0 1-17.696-7.584c-4.736-5.088-7.232-12.16-7.456-21.28h77.024c0.416-23.552-4.352-41.024-14.336-52.448s-23.616-17.12-40.896-17.12c-15.392 0-28.128 5.44-38.176 16.352-10.08 10.88-15.104 25.984-15.104 45.216 0 16.128 3.84 29.472 11.488 40.032 9.696 13.216 24.64 19.808 44.832 19.808z m21.632-70.656H592c-0.096-8.384 2.048-15.04 6.432-19.904a21.344 21.344 0 0 1 16.64-7.36 21.12 21.12 0 0 1 15.968 6.976c4.352 4.64 6.656 11.392 6.88 20.288z m76.8 68.032l23.84-36 23.616 36h37.76l-43.008-61.12 39.36-55.04h-36.096l-21.632 31.936-20.576-31.936h-37.504l40.128 56.32L678.72 736h35.968z m134.848 2.624c9.024 0 17.12-1.536 24.288-4.608l-2.624-23.84a39.744 39.744 0 0 1-12.384 2.976 8.672 8.672 0 0 1-5.184-1.536 6.752 6.752 0 0 1-2.72-3.904c-0.416-1.568-0.64-7.072-0.64-16.544v-46.816h21.024v-24.512h-20.992v-41.024l-30.848 17.92v23.104h-14.112v24.512h14.08v50.624c0 10.88 0.352 18.08 1.024 21.664a28.48 28.48 0 0 0 4.32 11.968 21.856 21.856 0 0 0 9.792 7.232c4.448 1.856 9.44 2.784 14.976 2.784z" fill="#FFFFFF" p-id="40012"></path></svg>