<svg xmlns="http://www.w3.org/2000/svg" viewBox="0 0 1024 1024" version="1.1"><path d="M886.08 253.44v520.256c0 79.552-162.016 144-374.08 144s-374.624-64.448-374.624-144V253.44H137.6a55.168 55.168 0 0 1-0.224-5.12c0-79.52 162.56-144 374.624-144 212.064 0 374.08 64.48 374.08 144 0 1.728-0.096 3.424-0.256 5.12h0.224z" fill="#FFFFFF" p-id="37605"></path><path d="M864 297.632C804.704 348.48 669.44 384 512 384S219.296 348.48 160 297.632v489.792l1.024 3.52C176.832 844.576 329.024 896 512 896s335.168-51.424 350.976-105.056l1.024-3.52V297.632zM896 240v550.944l-2.336 9.056c-21.216 72-184 128-381.664 128S151.552 872 130.336 800L128 790.944V240C128 160.48 299.936 96 512 96s384 64.48 384 144zM512 352c195.456 0 352-58.72 352-112S707.456 128 512 128 160 186.72 160 240 316.544 352 512 352z" fill="#5D6D7E" p-id="37606"></path><path d="M128 448h768v-32l32 32v288H96v-288l32-32v32z m85.664 224h37.728l34.624-53.856L320.576 672h37.888L305.28 591.872l48.448-75.648H317.248l-30.592 50.048-31.232-50.048h-36.8L266.88 590.72 213.664 672z m160.736-155.776v83.104c0 17.408 1.056 30.592 3.104 39.52 1.408 6.016 4.352 11.776 8.8 17.28 4.48 5.472 10.56 9.92 18.24 13.376 7.68 3.424 18.944 5.152 33.824 5.152 12.32 0 22.336-1.6 29.984-4.736 7.648-3.136 13.76-7.36 18.304-12.704 4.576-5.312 7.712-11.84 9.408-19.52 1.696-7.744 2.56-20.96 2.56-39.648v-81.824h-31.456v86.176c0 12.32-0.448 21.12-1.376 26.464a21.632 21.632 0 0 1-8.192 13.44c-4.512 3.648-11.264 5.472-20.16 5.472-8.8 0-15.712-1.92-20.8-5.792a25.216 25.216 0 0 1-9.6-15.36c-0.8-3.968-1.184-12.64-1.184-26.016v-84.384H374.4z m229.824 98.496h36.032v19.776a67.904 67.904 0 0 1-17.056 9.408c-6.624 2.56-13.216 3.872-19.84 3.872-13.28 0-24.064-4.608-32.288-13.856-8.192-9.28-12.32-23.104-12.32-41.6 0-17.152 4.064-30.08 12.16-38.784 8.128-8.704 19.04-13.088 32.8-13.088 9.056 0 16.64 2.24 22.688 6.656 6.048 4.416 10.176 10.464 12.352 18.112l31.264-5.856c-3.136-14.304-10.112-25.504-20.992-33.6-10.88-8.128-25.984-12.16-45.312-12.16-14.88 0-27.328 2.56-37.312 7.744-13.12 6.72-23.04 16.384-29.856 28.992a89.664 89.664 0 0 0-10.176 43.264c0 14.944 3.04 28.768 9.12 41.472 6.08 12.736 15.2 22.496 27.296 29.344 12.128 6.816 26.336 10.24 42.624 10.24 12.8 0 25.472-2.432 37.984-7.264 12.48-4.864 22.048-10.464 28.64-16.864V588.48h-67.808v26.24z m96.576-98.496v83.104c0 17.408 1.056 30.592 3.104 39.52 1.408 6.016 4.352 11.776 8.8 17.28 4.48 5.472 10.56 9.92 18.24 13.376 7.68 3.424 18.944 5.152 33.824 5.152 12.32 0 22.336-1.6 29.984-4.736 7.648-3.136 13.76-7.36 18.304-12.704 4.576-5.312 7.712-11.84 9.408-19.52 1.696-7.744 2.56-20.96 2.56-39.648v-81.824h-31.456v86.176c0 12.32-0.448 21.12-1.376 26.464a21.632 21.632 0 0 1-8.192 13.44c-4.512 3.648-11.264 5.472-20.16 5.472-8.8 0-15.712-1.92-20.8-5.792a25.216 25.216 0 0 1-9.6-15.36c-0.8-3.968-1.184-12.64-1.184-26.016v-84.384H700.8z" fill="#708294" p-id="37607"></path></svg>