<svg xmlns="http://www.w3.org/2000/svg" viewBox="0 0 1024 1024" version="1.1"><path d="M130.304 367.232C151.808 214.72 321.664 96 528 96 748.928 96 928 232.096 928 400v259.2l-101.6 158.912L662.144 896l-191.456 25.216-149.696-39.584v-56.48l-88 82.976L128 832l-63.808-112v-259.872L128 448v-48l2.304-32.768z" fill="#FFFFFF" p-id="50922"></path><path d="M320 888.832l1.792-225.92L503.68 384H160v64H128v-64l6.592-39.488C169.472 199.744 335.36 96 528 96 747.2 96 928 229.664 928 400c0 5.376-0.192 10.72-0.544 16H928v256h-0.64c-12.064 145.92-188.256 256-399.36 256-75.84 0-147.168-14.208-208-39.168z m208 7.168c203.232 0 368-107.456 368-240 0-5.376-0.256-10.72-0.8-16H896v-120.064C834.688 629.056 692.096 704 528 704c-58.144 0-114.592-9.376-166.368-27.296L352 673.376v193.44c52.288 18.624 112.256 29.184 176 29.184z m0-224c203.232 0 368-121.792 368-272S731.232 128 528 128C346.912 128 196.384 224.672 165.696 352l400.832 1.472-194.432 292.992c47.36 16.384 100.16 25.536 155.904 25.536z" fill="#C49F74" p-id="50923"></path><path d="M96 707.424v1.088c0 72.416 50.88 136.16 128 173.12V693.12l-13.024-6.208c-49.792-23.68-89.472-57.28-114.976-96.832v117.376zM64 704v-224h0.032l0.224-23.136 502.272-103.36L255.776 672H256v181.76l64-62.912v44.864l-87.008 85.504-20.16-9.44C121.824 869.088 64 793.504 64 708.512V704z m406.72-298.144L96 482.976v1.536c0 72.64 51.2 136.576 128.736 173.472l245.952-252.128z" fill="#27A2DF" p-id="50924"></path></svg>