<svg xmlns="http://www.w3.org/2000/svg" viewBox="0 0 1024 1024" version="1.1"><path d="M274.976 400l-216.96 256h640.704l216.96-256H275.008z" fill="#FFFFFF" p-id="30921"></path><path d="M581.536 512l85.536-96h-181.12l-85.568 96h181.152z m-28.512 32h-181.12l-85.568 96h181.12l85.568-96z m-352-32h156.512l85.536-96H282.4l-81.376 96z m-27.104 32l-81.376 96h150.912l85.568-96H173.92z m625.888-32l81.344-96h-171.2l-85.568 96h175.424z m-27.136 32h-176.8l-85.536 96h180.992l81.344-96z m-298.24-160h221.184l1.248-1.408 1.568 1.408h251.808l-244.096 288H23.488l244.096-288h204.032l1.248-1.408 1.568 1.408z" fill="#8190A2" p-id="30922"></path><path d="M765.76 105.472L169.472 834.24l24.768 20.288L790.528 125.76z" fill="#5D6D7E" p-id="30923"></path></svg>