<svg xmlns="http://www.w3.org/2000/svg" viewBox="0 0 1024 1024" version="1.1"><path d="M112.768 105.12h806.4v628.16l-248.192 186.336-569.76-186.336z" fill="#FFFFFF" p-id="49583"></path><path d="M641.632 884.16L128 142.208V704h70.336v32h-1.152l444.48 148.16zM160 128l512 256 169.44-190.592-14.88-19.36L886.4 128H160z m736 72l-208 676 186.176-139.648H832.96v-31.872H896V200z m-208 504.48h19.296l146.816-477.216-166.112 186.88v290.336z m-32 0v-292.704L193.408 180.48l382.72 552.8v-28.8H656z m32 31.872v30.848l9.472-30.848H688z m-32 0h-77.76l77.76 112.32v-112.32z m69.088-484.256l19.52 25.344-101.44 78.08-19.52-25.376 101.44-78.08z m-202.912 156.064l19.52 25.376-101.44 78.048-19.52-25.376 101.44-78.048z m-202.912 156.096l19.52 25.376-101.44 78.048-19.52-25.376 101.44-78.048z m0.832 140.224h126.976v31.872h-126.976v-31.872zM96 96h832v640l-256 192-576-192V96z" fill="#5D6D7E" opacity=".7" p-id="49584"></path><path d="M163.744 128l509.152 255.008L896 130.272V128H163.744zM896 196.608L685.184 881.28 896 720.576V196.608zM132.288 148.032L128 145.92v567.36l513.408 169.408L132.288 148.032zM96 96h832v640.416L676.736 928 96 736.416V96z m757.088 131.232l-165.952 188v351.04L853.088 227.2zM191.936 177.92l463.2 668.352V409.888L191.936 177.92z" fill="#5D6D7E" p-id="49585"></path></svg>