<svg xmlns="http://www.w3.org/2000/svg" viewBox="0 0 1024 1024" version="1.1"><path d="M128 96h768a32 32 0 0 1 32 32v703.872l-28.096 56.32a32 32 0 0 1-11.264 12.544L846.528 928H128a32 32 0 0 1-32-32V128a32 32 0 0 1 32-32z" fill="#FFFFFF" p-id="35838"></path><path d="M521.216 896c7.04 11.232 14.848 21.952 23.392 32H128a32 32 0 0 1-32-32V128a32 32 0 0 1 32-32h768a32 32 0 0 1 32 32v416.608a272.896 272.896 0 0 0-32-23.392V128H128v768h393.216z m230.784 64a208 208 0 1 1 0-416 208 208 0 0 1 0 416z m0-32a176 176 0 1 0 0-352 176 176 0 0 0 0 352z" fill="#5D6D7E" p-id="35839"></path><path d="M752.256 620.288c7.456 0 14.208 2.688 20.288 8.064 6.08 5.408 9.12 12.384 9.12 20.992 0 8.128-2.88 15.008-8.704 20.608a28.704 28.704 0 0 1-20.704 8.416 28.096 28.096 0 0 1-20.896-8.672 28.352 28.352 0 0 1-8.48-20.544c0-8 2.88-14.848 8.768-20.448a28.8 28.8 0 0 1 20.608-8.416z m-27.52 79.904h54.496V864H724.8v-163.808z" fill="#30AD98" p-id="35840"></path><path d="M664 272.448l81.312 199.552 26.208 14.016-85.344-205.792-22.208-7.776z m-16.16-39.584l62.4 21.888 125.12 301.728-174.368-93.28c-88.48 101.056-132.864 176.32-133.664 223.072 0.16 1.824 0.352 3.648 0.576 5.44l-31.808 3.68c-11.2-97.28 22.24-193.92 99.456-289.44l7.936-9.824 94.72 45.12-65.984-161.92-231.744 139.04 161.472-26.912-39.04 36.256c-65.184 60.512-106.56 112.224-124.16 154.432-17.12 41.152-17.12 102.016 0.864 182.368l-31.232 6.976c-19.296-86.176-19.296-153.28 0.832-201.632 8.64-20.8 22.016-43.008 40-66.816l-121.376 24.704-37.12-51.968-11.2 1.856 408.256-244.96 0.064 0.192z m-107.328 334.88c22.592-35.968 53.632-76.48 93.12-121.824l-20.992-9.984c-34.176 44.096-58.176 88-72.128 131.808z m-254.656-97.824l15.936 22.304 140.192-28.48a819.2 819.2 0 0 1 22.176-23.552l-178.304 29.728z" fill="#808FA1" p-id="35841"></path></svg>