<svg xmlns="http://www.w3.org/2000/svg" viewBox="0 0 1024 1024" version="1.1"><path d="M270.520277 360.064a304 432 30 1 0 526.543446 304 304 432 30 1 0-526.543446-304Z" fill="#FFFFFF" p-id="30389"></path><path d="M309.792 900.032c153.056 88.384 377.408-13.696 501.12-227.968 123.712-214.272 99.936-459.616-53.12-547.968-153.056-88.384-377.408 13.696-501.12 227.968-123.712 214.272-99.936 459.616 53.12 547.968z m16-27.712c-135.36-78.144-157.216-303.68-41.408-504.256 115.808-200.576 322.048-294.4 457.408-216.256 135.36 78.144 157.216 303.68 41.408 504.256-115.808 200.576-322.048 294.4-457.408 216.256z" fill="#5D6D7E" p-id="30390"></path><path d="M512 480v-96h32v96h96v32h-96v96h-32v-96h-96v-32h96z" fill="#5D6D7E" p-id="30391"></path></svg>