<svg xmlns="http://www.w3.org/2000/svg" viewBox="0 0 1024 1024" version="1.1"><path d="M713.6 116.48l-88.544 56.64v215.68l-171.68-48.416-85.376 56.16v90.24l-170.304-50.144L112 495.456v187.808L269.088 764.8l98.912-61.056v78.528l153.024 63.936 104.032-58.592v46.208l167.84 72.128 119.104-59.008V176.256L713.6 116.48z" fill="#FFFFFF" p-id="50774"></path><path d="M354.048 578.848v-58.784L288 559.392v58.752l66.048-39.296z m0 37.216L288 655.392v78.944l66.048-40.8v-77.44zM128 582.464l128 48.384v-61.76L128 520.64v61.76z m0 34.208v56.864l128 66.464v-74.944l-128-48.384z m207.52-122.816l-135.04-39.712-56.128 38.496 118.144 44.672 73.024-43.456zM96 487.04l98.88-67.904 191.168 56.256v236L269.76 783.2 96 692.96V487.04z" fill="#C49F74" p-id="50775"></path><path d="M609.408 541.44v-123.584L543.04 453.76v123.616l66.368-35.936z m0 36.416L543.04 613.76v201.664l66.368-37.408v-200.192zM384 551.936l127.04 36.8v-126.72L384 425.216v126.72z m0 33.28v186.4l127.04 53.12v-202.72L384 585.216z m201.664-190.912l-129.6-36.544-58.048 38.208 120.256 34.848 67.392-36.48z m-233.664-6.4l98.688-64.896 190.72 53.76V796.8L522.08 864 352 792.96V387.904z" fill="#30AD98" p-id="50776"></path><path d="M800 254.72v158.496l1.664 0.512L896 362.752V207.104L805.024 256.32 800 254.688z m-32-9.92l-126.944-39.392v158.496L768 403.264V244.8z m32 639.776l96-47.552V399.104l-90.976 49.184-5.024-1.6v437.888z m-32-6.72V436.8l-126.944-39.392v425.888L768 877.824z m-116.416-702.72l150.08 46.592 73.664-39.808-159.328-48-64.416 41.248z m-42.528-10.752l102.08-65.344L928 164.384v692.48l-134.656 66.688-184.288-79.168V164.384z" fill="#27A2DF" p-id="50777"></path></svg>