<svg xmlns="http://www.w3.org/2000/svg" viewBox="0 0 1024 1024" version="1.1"><path d="M312.352 720l-183.296 96h614.592l183.296-96H312.352z" fill="#FFFFFF" p-id="30677"></path><path d="M448.8 752h149.088l33.856-16h-149.056l-33.888 16z m-67.744 32l-33.888 16h149.088l33.888-16h-149.088z m450.304-32l30.56-16h-155.232l-33.888 16h158.56z m-61.12 32h-165.184l-33.888 16h168.544l30.56-16z m-484.48-32h88.128l33.856-16H316.288l-30.56 16z m-56.832 29.76L194.08 800h78.176l33.888-16H228.928v-2.24zM700.928 704H992l-244.416 128H64l244.416-128h167.072l1.152-0.544 0.256 0.544h222.592l1.152-0.544 0.256 0.544z" fill="#8190A2" p-id="30678"></path><path d="M631.168 213.568L107.2 595.648 52.48 816h686.784l169.056-283.904-277.152-318.528z" fill="#FFFFFF" fill-opacity=".8" p-id="30679"></path><path d="M633.6 192L928 530.336 748.352 832H32l61.12-245.824L633.6 192zM121.376 605.152L72.928 800h657.248l158.464-266.144-259.904-298.688L121.376 605.12z" fill="#5D6D7E" p-id="30680"></path></svg>