<svg xmlns="http://www.w3.org/2000/svg" viewBox="0 0 1024 1024" version="1.1"><path d="M896 650.784A176 176 0 1 1 576.704 736H160a32 32 0 0 1-32-32V128a32 32 0 0 1 32-32h704a32 32 0 0 1 32 32v522.784z" fill="#FFFFFF" p-id="14075"></path><path d="M320 832v32H288v-32H192v-32h96v-32h32v32h262.624a176.128 176.128 0 0 1-5.92-64H160a32 32 0 0 1-32-32V128a32 32 0 0 1 32-32h704a32 32 0 0 1 32 32v522.784c20.16 28.64 32 63.552 32 101.216 0 59.52-29.536 112.16-74.784 144H928v32H576v-32h74.784a176.8 176.8 0 0 1-55.584-64H320z m544-215.776V128H160v576h422.624A176.064 176.064 0 0 1 864 616.224zM752 896a144 144 0 1 0 0-288 144 144 0 0 0 0 288z" fill="#5D6D7E" p-id="14076"></path><path d="M653.76 429.024l-180.48 128.896a16 16 0 0 1-25.28-13.024V287.104a16 16 0 0 1 25.28-13.024l180.48 128.896a16 16 0 0 1 0 26.048z" fill="#27A2DF" p-id="14077"></path><path d="M752 736v-128h-32v160h128.992v-32z" fill="#30AD98" p-id="14078"></path></svg>