<svg xmlns="http://www.w3.org/2000/svg" viewBox="0 0 1024 1024" version="1.1"><path d="M592 592m-32 0l-416 0q-32 0-32-32l0-416q0-32 32-32l416 0q32 0 32 32l0 416q0 32-32 32Z" fill="#FFFFFF" p-id="32221"></path><path d="M576 608l-448 0a32 32 0 0 1-32-32l0-448a32 32 0 0 1 32-32L576 96a32 32 0 0 1 32 32L608 576a32 32 0 0 1-32 32z m0-32l0-448-448 0L128 576 576 576z" fill="#5D6D7E" p-id="32222"></path><path d="M928 928m-32 0l-448 0q-32 0-32-32l0-448q0-32 32-32l448 0q32 0 32 32l0 448q0 32-32 32Z" fill="#27A2DF" p-id="32223"></path></svg>