<svg xmlns="http://www.w3.org/2000/svg" viewBox="0 0 1024 1024" version="1.1"><path d="M128 128h768v768H128z" fill="#FFFFFF" p-id="37014"></path><path d="M128 96h768a32 32 0 0 1 32 32v768a32 32 0 0 1-32 32H128a32 32 0 0 1-32-32V128a32 32 0 0 1 32-32z m0 32v768h768V128H128z" fill="#5D6D7E" p-id="37015"></path><path d="M208 304m32 0l256 0q32 0 32 32l0 64q0 32-32 32l-256 0q-32 0-32-32l0-64q0-32 32-32Z" fill="#27A2DF" fill-opacity=".5" p-id="37016"></path><path d="M224 288h288a32 32 0 0 1 32 32v96a32 32 0 0 1-32 32H224a32 32 0 0 1-32-32V320a32 32 0 0 1 32-32z m0 32v96h288V320H224z m480 160l-128-192h256l-128 192z" fill="#27A2DF" p-id="37017"></path><path d="M224 640h576a32 32 0 0 1 32 32v96a32 32 0 0 1-32 32H224a32 32 0 0 1-32-32v-96a32 32 0 0 1 32-32z m0 32v96h576v-96H224z" fill="#ACB4C0" p-id="37018"></path></svg>