<svg xmlns="http://www.w3.org/2000/svg" viewBox="0 0 1024 1024" version="1.1"><path d="M96 96m32 0l448 0q32 0 32 32l0 448q0 32-32 32l-448 0q-32 0-32-32l0-448q0-32 32-32Z" fill="#27A2DF" p-id="31936"></path><path d="M896 416a32 32 0 0 1 32 32v448a32 32 0 0 1-32 32H448a32 32 0 0 1-32-32v-256h192a32 32 0 0 0 31.776-28.256L640 608v-192h256z" fill="#FFFFFF" p-id="31937"></path><path d="M896 416a32 32 0 0 1 32 32v448a32 32 0 0 1-32 32H448a32 32 0 0 1-32-32v-256h192a32 32 0 0 0 31.776-28.256L640 608v-192h256z m-224.064 193.856l-0.352 5.568a64 64 0 0 1-58.496 56.384L608 672h-160v224h448V448h-224l-0.064 161.856z" fill="#5D6D7E" p-id="31938"></path></svg>