<svg xmlns="http://www.w3.org/2000/svg" viewBox="0 0 1024 1024" version="1.1"><path d="M512 736a224 224 0 1 1 0-448 224 224 0 0 1 0 448z m0-64a160 160 0 1 0 0-320 160 160 0 0 0 0 320z m0-576a32 32 0 0 1 32 32v96a32 32 0 0 1-64 0V128a32 32 0 0 1 32-32z m0 672a32 32 0 0 1 32 32v96a32 32 0 0 1-64 0v-96a32 32 0 0 1 32-32z m416-256a32 32 0 0 1-32 32h-96a32 32 0 0 1 0-64h96a32 32 0 0 1 32 32zM256 512a32 32 0 0 1-32 32H128a32 32 0 0 1 0-64h96a32 32 0 0 1 32 32z m550.144-294.144a32 32 0 0 1 0 45.248l-67.84 67.872a32 32 0 0 1-45.28-45.248l67.872-67.872a32 32 0 0 1 45.248 0zM330.976 693.024a32 32 0 0 1 0 45.248l-67.872 67.872a32 32 0 0 1-45.248-45.248l67.84-67.872a32 32 0 0 1 45.28 0z m475.2 113.12a32 32 0 0 1-45.28 0l-67.872-67.84a32 32 0 0 1 45.248-45.28l67.872 67.872a32 32 0 0 1 0 45.248z m-475.2-475.168a32 32 0 0 1-45.248 0L217.856 263.104a32 32 0 0 1 45.248-45.248l67.872 67.84a32 32 0 0 1 0 45.28z" fill="#ACB4C0" p-id="27919"></path></svg>