<svg xmlns="http://www.w3.org/2000/svg" viewBox="0 0 1024 1024" version="1.1"><path d="M96 96m32 0l768 0q32 0 32 32l0 768q0 32-32 32l-768 0q-32 0-32-32l0-768q0-32 32-32Z" fill="#FFFFFF" p-id="49881"></path><path d="M896 563.968V128H128v768h384v32H128a32 32 0 0 1-32-32V128a32 32 0 0 1 32-32h768a32 32 0 0 1 32 32v453.984l-32-18.016z m0 271.968l32-41.984V896a32 32 0 0 1-32 32h-32v-32h32v-60.064z" fill="#5D6D7E" p-id="49882"></path><path d="M480 768v32H224V480h384v64h-32v-32H256v256h224z" fill="#C49F74" p-id="49883"></path><path d="M352 480H320V352h384v128h-32V384H352v96z" fill="#B7BFC8" p-id="49884"></path><path d="M448 352h-32V224h384v160h-32V256H448v96z" fill="#30AD98" p-id="49885"></path><path d="M832 772V960h-288v-188h-7.104l-30.24 28L416 688l151.104-112c40.32 37.344 80.608 56 120.896 56 40.32 0 80.608-18.656 120.896-56L960 660 869.344 800l-30.24-28H832zM800 928v-188h51.648l11.52 10.656 51.36-79.328-101.664-56.512c-40.32 32.416-82.048 49.184-124.864 49.184-41.92 0-82.784-16.064-122.304-47.136l-103.808 76.96 48.128 59.456 14.336-13.28H576V928h224z" fill="#27A2DF" p-id="49886"></path></svg>