<svg xmlns="http://www.w3.org/2000/svg" viewBox="0 0 1024 1024" version="1.1"><path d="M261.376 928c-6.208-113.952 6.208-207.296 37.28-280 31.072-72.704 102.208-159.36 213.344-260L192 440 725.344 128 832 544l-160-156c-115.296 115.392-168.64 219.392-160 312 8.64 92.608 77.952 168.608 208 228" fill="#FFFFFF" p-id="35692"></path><path d="M274.24 410.432l440.864-257.92 87.232 340.224-130.496-127.232-11.168 11.2c-118.336 118.4-173.76 226.56-164.608 324.8 9.28 99.168 82.56 179.52 217.28 241.056l13.312-29.12c-125.312-57.248-190.72-128.896-198.72-214.912-7.84-84.032 39.744-180.16 144.32-287.968l189.408 184.704-126.08-491.776L109.76 469.568l352.672-57.28c-90.688 86.88-150.176 163.2-178.464 229.44-32.16 75.2-44.896 170.88-38.56 287.136l31.936-1.728c-6.08-111.68 6.048-202.656 36.032-272.864 29.984-70.144 99.776-155.2 209.376-254.4l40.128-36.352-288.64 46.912z" fill="#5D6D7E" p-id="35693"></path></svg>