<svg xmlns="http://www.w3.org/2000/svg" viewBox="0 0 1024 1024" version="1.1"><path d="M678.656 96.224c11.584 0 22.72 4.16 31.392 11.68l3.552 3.392 169.376 179.936a48 48 0 0 1 12.8 27.68l0.256 5.216v556.064a48 48 0 0 1-43.392 47.776l-4.608 0.224H176a48 48 0 0 1-47.776-43.392L128 880.192v-96.8a16 16 0 0 1 31.744-2.88l0.256 2.88v96.8a16 16 0 0 0 13.12 15.744l2.88 0.256h672.032a16 16 0 0 0 15.744-13.12l0.256-2.88V324.128a16 16 0 0 0-2.496-8.576l-1.856-2.4-169.376-179.904a16 16 0 0 0-9.024-4.8l-2.624-0.224H176a16 16 0 0 0-15.744 13.12L160 144.224v63.04a16 16 0 0 1-31.744 2.88L128 207.264v-63.04a48 48 0 0 1 43.392-47.808l4.608-0.192h502.656z" fill="#5D6D7E" p-id="51608"></path><path d="M496 576a112 112 0 1 1 0 224 112 112 0 0 1 0-224z m0 32a80 80 0 1 0 0 160 80 80 0 0 0 0-160zM199.36 240.512a112 112 0 0 1 98.048 75.168 16 16 0 0 1-30.24 10.464 80 80 0 1 0-120.448 92.384 16 16 0 0 1-17.92 26.496A112 112 0 0 1 199.36 240.512zM592 256a80 80 0 1 1 0 160 80 80 0 0 1 0-160z m0 32a48 48 0 1 0 0 96 48 48 0 0 0 0-96z" fill="#95A1AF" p-id="51609"></path><path d="M536.512 372.256l21.28 23.872-71.616 63.808-21.28-23.872z" fill="#5D6D7E" p-id="51610"></path><path d="M256 480a32 32 0 1 1 0 64 32 32 0 0 1 0-64z" fill="#27A2DF" p-id="51611"></path><path d="M336 352a176 176 0 0 1 176 176 16 16 0 1 1-32 0 144 144 0 1 0-144 144 16 16 0 0 1 0 32 176 176 0 1 1 0-352z" fill="#27A2DF" p-id="51612"></path></svg>