<svg xmlns="http://www.w3.org/2000/svg" viewBox="0 0 1024 1024" version="1.1"><path d="M96 96h640l192 211.488V928H96z" fill="#FFFFFF" p-id="43292"></path><path d="M736.416 96L928 291.008V480h-32V304.128L723.008 128H320v224h416v32H288V128H128v768h96.672l0.032-352H384v32H256.672v320H416v32H96V96h640.416z" fill="#5D6D7E" p-id="43293"></path><path d="M736 480v32h192a32 32 0 0 1 32 32v352a32 32 0 0 1-32 32h-192v32l-288-66.56V539.104L736 480z m160 352v32h-64v-32h64z m-235.104-197.28l-39.68 0.704-34.08 56.096L554.976 640h-37.824l49.632 76.672L512 800.352h38.816l35.68-55.456 38.72 59.968 39.872 0.48-58.816-87.456 54.624-83.2zM896 768v32h-64v-32h64z m0-64v32h-64v-32h64z m0-64v32h-64v-32h64z m-160 0h64v32h-64v32h64v32h-64v32h64v32h-64v32h64v32h-64v32h192V544h-192v32h64v32h-64v32z m160-64v32h-64v-32h64z" fill="#1E7144" p-id="43294"></path></svg>