<svg xmlns="http://www.w3.org/2000/svg" viewBox="0 0 1024 1024" version="1.1"><path d="M96 96h640l192 192v640H96z" fill="#FFFFFF" p-id="14908"></path><path d="M288 128H128v768h96V544h576v352h96V301.248l-160-160V384H288V128zM96 96h640l192 192v640H96V96z m160 480v320h512V576H256z m64-448v224h384V128H320z" fill="#5D6D7E" p-id="14909"></path><path d="M224 864h576v64H224z" fill="#30AD98" p-id="14910"></path><path d="M320 640h384v32H320v-32z m0 96h384v32H320v-32z" fill="#ACB4C0" p-id="14911"></path><path d="M544 160h96v160h-96z" fill="#3B97D3" p-id="14912"></path></svg>