<svg xmlns="http://www.w3.org/2000/svg" viewBox="0 0 1024 1024" version="1.1"><path d="M169.6 233.6h682.56a32 32 0 0 1 32 32v494.016a32 32 0 0 1-32 32H169.6a32 32 0 0 1-32-32V265.6a32 32 0 0 1 32-32z" fill="#FFFFFF" p-id="36615"></path><path d="M521.376 800h-18.752l-139.296 139.328-22.656-22.656L457.376 800H160a32 32 0 0 1-32-32V256a32 32 0 0 1 32-32h704a32 32 0 0 1 32 32v512a32 32 0 0 1-32 32h-297.376l116.704 116.672-22.656 22.656L521.376 800zM864 768V256H160v512h704zM576 160h352v32H96V160h352V128h128v32z" fill="#5D6D7E" p-id="36616"></path><path d="M256 352h160a32 32 0 0 1 32 32v256a32 32 0 0 1-32 32H256a32 32 0 0 1-32-32v-256a32 32 0 0 1 32-32z m0 32v256h160v-256H256z" fill="#C49F74" p-id="36617"></path><path d="M800 640v32h-288v-32h288z m0-64v32h-288v-32h288z m0-64v32h-288v-32h288z m0-160v32h-288v-32h288z" fill="#ACB4C0" p-id="36618"></path></svg>