<svg xmlns="http://www.w3.org/2000/svg" viewBox="0 0 1024 1024" version="1.1"><path d="M512 736l-192 192v-192H128a32 32 0 0 1-32-32V128a32 32 0 0 1 32-32h768a32 32 0 0 1 32 32v576a32 32 0 0 1-32 32H512z" fill="#FFFFFF" p-id="15792"></path><path d="M512 736l-192 192v-192H128a32 32 0 0 1-32-32V128a32 32 0 0 1 32-32h768a32 32 0 0 1 32 32v576a32 32 0 0 1-32 32H512z m-160 114.752L498.752 704H896V128H128v576h224v146.752z" fill="#5D6D7E" p-id="15793"></path><path d="M224 384h576v32H224v-32z m0 96h576v32H224v-32z m0 96h320v32H224v-32z" fill="#808FA1" p-id="15794"></path><path d="M224 224h576v192H224z" fill="#C49F74" p-id="15795"></path></svg>