<svg xmlns="http://www.w3.org/2000/svg" viewBox="0 0 1024 1024" version="1.1"><path d="M863.424 439.36l74.752 74.72a32 32 0 0 1 0 45.28L600.8 896.704h-120v-120L818.176 439.36a32 32 0 0 1 45.248 0z" fill="#C49F74" fill-opacity=".1" p-id="52289"></path><path d="M863.424 439.36l74.752 74.72a32 32 0 0 1 0 45.28L633.504 864H912a16 16 0 0 1 2.88 31.744L912 896h-310.496l-0.704 0.704h-120v-120L818.176 439.36a32 32 0 0 1 45.248 0z m-95.392 95.328l-255.232 255.264v74.752h74.752l255.264-255.264-74.784-74.752z m72.768-72.704L790.72 512l74.752 74.784 50.112-50.112-74.752-74.72zM704 224a32 32 0 0 1 32 32v96a32 32 0 0 1-32 32H288a32 32 0 0 1-32-32V256a32 32 0 0 1 32-32h416z m0 32H288v96h416V256z" fill="#C49F74" p-id="52290"></path><path d="M848 96.512a48 48 0 0 1 47.776 43.36l0.224 4.64v192.032a16 16 0 0 1-31.744 2.88l-0.256-2.88V144.512a16 16 0 0 0-13.12-15.744l-2.88-0.256H144.288a16 16 0 0 0-15.744 13.12l-0.256 2.88v639.68a16 16 0 0 0 13.12 15.744l2.88 0.256h223.776a16 16 0 0 1 2.88 31.744l-2.88 0.256H144.288a48 48 0 0 1-47.776-43.392l-0.224-4.608V144.512a48 48 0 0 1 43.36-47.776l4.64-0.224H848z" fill="#5D6D7E" p-id="52291"></path><path d="M497.792 608a16 16 0 0 1 2.88 31.744l-2.88 0.256H270.208a16 16 0 0 1-2.88-31.744l2.88-0.256h227.584z m95.552-128a16 16 0 0 1 2.88 31.744l-2.88 0.256H270.656a16 16 0 0 1-2.88-31.744l2.88-0.256h322.688z" fill="#AEB6BE" p-id="52292"></path></svg>