<svg xmlns="http://www.w3.org/2000/svg" viewBox="0 0 1024 1024" version="1.1"><path d="M296.544 357.6a32 32 0 0 1 32-32h91.552l-0.16-62.496a32 32 0 0 1 32-32h39.584v-32a32 32 0 0 1 32-32h76.864a32 32 0 0 1 32 32v32h30.816a32 32 0 0 1 32 32l0.064 94.496h81.248a32 32 0 0 1 24.736 11.712l116.736 136.64v375.168a32 32 0 0 1-32 32H136.992a32 32 0 0 1-32-32V508.736l118.72-139.424a32 32 0 0 1 24.768-11.712h48.064z" fill="#FFFFFF" p-id="37701"></path><path d="M704 384v128h188.8l-106.016-128H704z m0-32h82.656a32 32 0 0 1 24.736 11.712L928 505.92V896a32 32 0 0 1-32 32H128a32 32 0 0 1-32-32V508.736l118.72-144.992A32 32 0 0 1 239.456 352H288a32 32 0 0 1 32-32h96V256a32 32 0 0 1 32-32h32V192a32 32 0 0 1 32-32h32V113.184a16 16 0 1 1 32 0V160h32a32 32 0 0 1 32 32v32h32a32 32 0 0 1 32 32v96zM288 384H239.104l-104 128H288v-128z m32 128h96v-160h-96v160z m128 0h224V256h-224v256z m448 32H128v352h768V544zM608 224V192h-96v32h96z m-79.104 572.896l45.76-45.216a16 16 0 0 1 22.496 22.752l-83.968 82.976-88.032-82.688a16 16 0 1 1 21.888-23.328l49.856 46.816V624a16 16 0 1 1 32 0v172.896z" fill="#5A6978" p-id="37702"></path><path d="M480 288h160v32h-160V288z m0 64h160v32h-160v-32z m0 64h160v32h-160v-32z m-128-32h32v32h-32v-32z m0 64h32v32h-32v-32z" fill="#BC9A72" p-id="37703"></path></svg>