<svg xmlns="http://www.w3.org/2000/svg" viewBox="0 0 1024 1024" version="1.1"><path d="M96 96h832v832H96z" fill="#FFFFFF" p-id="33408"></path><path d="M512 352V224h32v128h64v64h64v352H288v-192h96v-160h64v-64h64z m64 64v-32h-96v32h96z m64 32h-224v288h224v-288z m-256 288v-128h-64v128h64z" fill="#808FA1" p-id="33409"></path><path d="M448 480h160v64h-160v-64z m0 96h160v64h-160v-64z m0 96h160v64h-160v-64z" fill="#ACB4C0" p-id="33410"></path><path d="M224 736h512v32H224v-32zM128 128v64H96V96h128v32H128z m352 0h-128V96h128v32h-128 128z m256 0h-128V96h128v32h-128 128z m160 0h-64V96h96v96h-32V128z m0 320v-128h32v128h-32v-128 128z m0 256v-128h32v128h-32v-128 128z m-288 192h128v32h-128v-32h128-128z m-256 0h128v32h-128v-32h128-128z m-128 0v32H96v-128h32v96h96zM128 576v128H96v-128h32v128-128z m0-256v128-128 128H96v-128h32z" fill="#5D6D7E" p-id="33411"></path><path d="M904.96 704l71.136-70.624 22.528 22.72L928 726.176V896h32v32h-32v32h-32v-32h-192v-192h-32v-32h32v-32h32v32h168.96z m-32.256 32H736v135.712L872.704 736z m23.296 21.952L756.96 896H896v-138.048z" fill="#27A2DF" p-id="33412"></path></svg>