<svg xmlns="http://www.w3.org/2000/svg" viewBox="0 0 1024 1024" version="1.1"><path d="M160 448v-96h224v96h32v480H128V448h32zM576 128h288v768h-288V128z" fill="#FFFFFF" p-id="45971"></path><path d="M356.8 800.16V768H287.936v-66.976h69.184v-28.8H287.936v-64h69.184v-31.904H287.936V480c-21.216-1.12-31.744-1.12-31.616 0v96.32H192v31.936h64v64H192v28.8h64V768H192v32.16h64V899.2h31.936v-99.04h68.864z" fill="#5C6C7C" p-id="45972"></path><path d="M96.384 416.48H160V320.32h96.32V237.76a16.32 16.32 0 0 1 32 0v82.56h95.968v96.16H448V896h32v32H64v-32h32.384V416.48zM160 896v-282.464c0-92.8 57.92-134.4 115.2-134.4s109.088 41.6 109.088 134.4V896H416V448.48H128.384V896H160z m192.32-479.52v-64.384H192v64.384h160.32z m0 479.52v-292.704c-4.8-50.56-24-84.48-64-90.88h-27.52c-40 6.4-65.6 40.32-68.8 90.88V896h160.32z" fill="#27A2DF" p-id="45973"></path><path d="M544.16 96v832H896V96H544.16zM864 896h-287.84v-127.584H864V896z m0-159.584h-287.84v-128.16H864v128.16z m0-160.16h-287.84v-127.776H864v127.776z m0-159.776h-287.84V287.68H864v128.8z m0-160.8h-287.84V128H864v127.68z" fill="#5C6C7C" p-id="45974"></path></svg>