<svg xmlns="http://www.w3.org/2000/svg" viewBox="0 0 1024 1024" version="1.1"><path d="M303.07297 452.949333a31.030303 31.030303 0 0 1 31.030303-31.030303h119.808l-0.155152-122.662788a31.030303 31.030303 0 0 1 31.030303-31.030303h38.384485v-31.030303a31.030303 31.030303 0 0 1 31.030303-31.030303h83.037091c17.128727 0 29.913212 13.901576 29.913212 31.030303v11.481212h30.968243a31.030303 31.030303 0 0 1 31.030303 31.030304L729.212121 452.949333h39.284364a31.030303 31.030303 0 0 1 23.986424 11.357091l113.198546 132.499394v287.495758a31.030303 31.030303 0 0 1-31.030303 31.030303H148.355879a31.030303 31.030303 0 0 1-31.030303-31.030303v-284.765091l115.122424-135.19903a31.030303 31.030303 0 0 1 24.017455-11.388122h46.607515z" fill="#FFFFFF" p-id="44426"></path><path d="M729.212121 465.702788v124.183273h152.048485l-102.803394-124.183273H729.212121z m0-31.030303h49.12097a31.030303 31.030303 0 0 1 23.986424 11.357091L915.393939 583.990303v316.198788a31.030303 31.030303 0 0 1-31.030303 31.030303H139.636364a31.030303 31.030303 0 0 1-31.030303-31.030303V586.72097l115.122424-140.691394a31.030303 31.030303 0 0 1 23.986424-11.357091H294.787879a31.030303 31.030303 0 0 1 31.030303-31.030303h124.121212V279.707152a31.030303 31.030303 0 0 1 31.030303-31.030304h31.030303v-31.030303a31.030303 31.030303 0 0 1 31.030303-31.030303h31.030303V139.636364a15.515152 15.515152 0 1 1 31.030303 0v46.979878h31.030303a31.030303 31.030303 0 0 1 31.030303 31.030303v31.030303h31.030303a31.030303 31.030303 0 0 1 31.030303 31.030304v154.965333z m-434.424242 31.030303H247.373576l-100.848485 124.183273H294.787879v-124.183273z m155.151515 124.183273v-155.213576h-124.121212v155.213576h124.121212z m248.242424 0V279.707152h-217.212121v310.178909h217.212121z m186.181818 31.030303H139.636364v279.272727h744.727272v-279.272727zM636.121212 248.676848v-31.030303h-93.090909v31.030303h93.090909z m-108.60606 564.534304l32.892121-32.892122a15.515152 15.515152 0 0 1 21.969454 21.938425L512 872.634182l-70.376727-70.376727a15.515152 15.515152 0 1 1 21.938424-21.969455l32.923151 32.923152v-75.71394a15.515152 15.515152 0 1 1 31.030304 0v75.71394z m0-132.592485a15.515152 15.515152 0 1 1-31.030304 0v-16.508122a15.515152 15.515152 0 1 1 31.030304 0v16.508122z" fill="#5A6978" p-id="44427"></path><path d="M512 341.736727h93.090909v31.030303h-93.090909v-31.030303z m0 93.090909h93.090909v31.030303h-93.090909v-31.030303z m0 62.060606h106.496v31.030303H512v-31.030303z m-155.151515-31.030303h62.060606v31.030303h-62.060606v-31.030303z m0 62.060606h62.060606v31.030303h-62.060606v-31.030303zM676.584727 406.49697a15.515152 15.515152 0 1 1-31.030303 0c0-128.589576 73.665939-192.077576 213.98497-186.895515L794.810182 154.841212a15.515152 15.515152 0 1 1 21.938424-21.938424L915.393939 231.610182l-98.645333 98.614303a15.515152 15.515152 0 0 1-21.938424-21.938424l57.840485-57.840485c-119.559758-2.978909-176.065939 47.879758-176.06594 156.082424z" fill="#BC9A72" p-id="44428"></path></svg>