<svg xmlns="http://www.w3.org/2000/svg" viewBox="0 0 1024 1024" version="1.1"><path d="M237.344 202.624h549.088a32 32 0 0 1 32 32V788.48a32 32 0 0 1-32 32H237.344a32 32 0 0 1-32-32V234.624a32 32 0 0 1 32-32z" fill="#FFFFFF" p-id="36225"></path><path d="M224 192h576a32 32 0 0 1 32 32v576a32 32 0 0 1-32 32H224a32 32 0 0 1-32-32V224a32 32 0 0 1 32-32z m0 32v576h576V224H224z m397.76 301.024l-180.48 128.896a16 16 0 0 1-25.28-13.024v-257.792a16 16 0 0 1 25.28-13.024l180.48 128.896a16 16 0 0 1 0 26.048z" fill="#27A2DF" p-id="36226"></path><path d="M320 96v32H128v224H96V128a32 32 0 0 1 32-32h192z m384 0h192a32 32 0 0 1 32 32v224h-32V128h-192V96z m224 640v160a32 32 0 0 1-32 32h-192v-32h192v-160h32z m-608 192H128a32 32 0 0 1-32-32v-160h32v160h192v32z" fill="#5D6D7E" p-id="36227"></path></svg>