<svg xmlns="http://www.w3.org/2000/svg" viewBox="0 0 1024 1024" version="1.1"><path d="M112 112m48 0l704 0q48 0 48 48l0 704q0 48-48 48l-704 0q-48 0-48-48l0-704q0-48 48-48Z" fill="#FFFFFF" p-id="21530"></path><path d="M128 96h768a32 32 0 0 1 32 32v768a32 32 0 0 1-32 32H128a32 32 0 0 1-32-32V128a32 32 0 0 1 32-32z m0 32v768h768V128H128z" fill="#5D6D7E" p-id="21531"></path><path d="M480 288h-32V96h128v192h-32V128h-64v160z m0 480v128h64v-128h32v160h-128v-160h32z" fill="#808FA1" p-id="21532"></path><path d="M320 576v32a128 128 0 1 1 0-256h192a128 128 0 1 1 0 256h-32v-32h32a96 96 0 0 0 0-192H320a96 96 0 0 0 0 192z" fill="#30AD98" p-id="21533"></path><path d="M704 480v-32a128 128 0 1 1 0 256h-192a128 128 0 1 1 0-256h32v32h-32a96 96 0 0 0 0 192h192a96 96 0 0 0 0-192z" fill="#27A2DF" p-id="21534"></path></svg>