<svg xmlns="http://www.w3.org/2000/svg" viewBox="0 0 1024 1024" version="1.1"><path d="M863.776 245.12H864v538.72h-6.272C825.024 865.856 668.352 928 480 928S134.976 865.856 102.272 783.84H96V245.12h0.224A55.168 55.168 0 0 1 96 240C96 160.48 267.936 96 480 96s384 64.48 384 144c0 1.728-0.096 3.424-0.224 5.12z" fill="#FFFFFF" p-id="13289"></path><path d="M864 608h-32v-118.656C757.76 543.232 626.56 576 480 576s-277.76-32.768-352-86.656V608c0 35.52 49.6 71.68 128 96.48v33.504c-55.68-16.704-100.192-39.456-128-65.92v104.8l4.448 9.12c14.816 30.4 60 58.4 123.552 78.528v34.4C175.168 875.84 115.84 840.704 96 800V245.696l0.32 0.096C96.096 243.84 96 241.92 96 240 96 160.48 267.936 96 480 96s384 64.48 384 144c0 2.112-0.128 4.224-0.352 6.336L864 246.208V608z m-31.968-160H832V297.632C772.704 348.48 637.44 384 480 384S187.296 348.48 128 297.632V448h-0.032c59.232 56.512 194.56 96 352.032 96 157.44 0 292.8-39.488 352.032-96zM480 352c195.456 0 352-58.72 352-112S675.456 128 480 128 128 186.72 128 240 284.544 352 480 352z" fill="#5D6D7E" p-id="13290"></path><path d="M320 640h576a32 32 0 0 1 32 32v224a32 32 0 0 1-32 32H320a32 32 0 0 1-32-32v-224a32 32 0 0 1 32-32z m152 224h69.888c11.648 0 21.504-1.024 29.536-3.072 8.064-2.048 14.72-5.056 20.064-9.056 5.344-4 9.824-9.696 13.44-17.056 3.648-7.36 5.44-15.36 5.44-23.936 0-10.656-2.976-19.936-8.96-27.744-5.92-7.84-14.464-13.376-25.536-16.64 8.576-4.256 15.008-9.824 19.264-16.736 4.224-6.912 6.368-14.304 6.368-22.144a45.12 45.12 0 0 0-7.2-24.192c-4.8-7.68-11.424-13.408-19.84-17.12-8.48-3.712-19.712-5.568-33.728-5.568H472V864z m24.256-106.24v-55.36h36.608c13.184 0 22.464 0.832 27.872 2.56 5.44 1.696 9.6 4.864 12.512 9.472a29.44 29.44 0 0 1 4.384 16.064c0 6.4-1.568 11.744-4.704 16a25.696 25.696 0 0 1-13.92 9.12c-4.672 1.44-12.384 2.144-23.136 2.144h-39.616z m0 84.608v-63.008h42.368c11.68 0 20.608 1.024 26.816 3.072a27.68 27.68 0 0 1 14.56 10.624c3.52 5.056 5.248 10.976 5.248 17.824a31.872 31.872 0 0 1-3.616 15.424 26.56 26.56 0 0 1-9.28 10.208 39.552 39.552 0 0 1-13.984 4.992c-3.168 0.576-8.64 0.864-16.48 0.864h-45.632zM695.36 864h24.256v-77.632l73.12-105.6h-28.224l-35.52 53.856c-7.84 12-14.496 22.784-20 32.384-5.76-10.336-11.936-20.672-18.624-31.008l-36.128-55.264h-29.504l70.624 105.632V864z" fill="#27A2DF" p-id="13291"></path></svg>