<svg xmlns="http://www.w3.org/2000/svg" viewBox="0 0 1024 1024" version="1.1"><path d="M96 96m32 0l704 0q32 0 32 32l0 704q0 32-32 32l-704 0q-32 0-32-32l0-704q0-32 32-32Z" fill="#FFFFFF" p-id="12318"></path><path d="M304 336.896L234.784 384l21.632-81.056L192 245.568l85.792-2.976L304 160l26.208 82.56L416 245.6 351.584 302.944 373.216 384 304 336.896zM96 512V128a32 32 0 0 1 32-32h384v129.6a80 80 0 0 1 0 156.8V512H349.28a48 48 0 1 0-90.56 0H96z m208-96a80 80 0 0 1 78.4 64H480V356.256l25.632-5.216a48 48 0 0 0 0-94.08L480 251.744V128H128v352h97.6a80 80 0 0 1 78.4-64z" fill="#808FA1" p-id="12319"></path><path d="M864 736h-32V128H128v704h320v32H128a32 32 0 0 1-32-32V128a32 32 0 0 1 32-32h704a32 32 0 0 1 32 32v608z m-64 128h-192v-32h192v32z" fill="#5D6D7E" p-id="12320"></path><path d="M743.808 745.984c75.648 19.008 132.224 72.704 168.704 159.936a16 16 0 1 1-29.504 12.352c-41.6-99.52-109.312-148.096-205.344-148.096-95.36 0-155.072 47.68-182.24 146.176a16 16 0 0 1-30.848-8.512c23.36-84.736 70.272-138.336 139.328-159.424a128 128 0 1 1 139.904-2.432zM672 736a96 96 0 1 0 0-192 96 96 0 0 0 0 192z" fill="#27A2DF" p-id="12321"></path></svg>