<svg xmlns="http://www.w3.org/2000/svg" viewBox="0 0 1024 1024" version="1.1"><path d="M864 512h32a32 32 0 0 1 32 32v352a32 32 0 0 1-32 32H544a32 32 0 0 1-32-32v-32H128a32 32 0 0 1-32-32V128a32 32 0 0 1 32-32h704a32 32 0 0 1 32 32v384z" fill="#FFFFFF" p-id="12704"></path><path d="M304 336.896L234.784 384l21.632-81.056L192 245.568l85.792-2.976L304 160l26.208 82.56L416 245.6l-64.416 57.376 21.632 81.056L304 336.896zM96 512V128a32 32 0 0 1 32-32h384v129.6a80 80 0 0 1 0 156.8V512h-162.72a48 48 0 1 0-90.56 0H96z m208-96a80 80 0 0 1 78.4 64H480v-123.744l25.632-5.216a48 48 0 0 0 0-94.08L480 251.744V128H128v352h97.6a80 80 0 0 1 78.4-64z" fill="#808FA1" p-id="12705"></path><path d="M864 480h-32V128H128v704h352v32H128a32 32 0 0 1-32-32V128a32 32 0 0 1 32-32h704a32 32 0 0 1 32 32v352z" fill="#5D6D7E" p-id="12706"></path><path d="M544 512h352a32 32 0 0 1 32 32v352a32 32 0 0 1-32 32H544a32 32 0 0 1-32-32V544a32 32 0 0 1 32-32z m0 32v352h352V544H544z m323.84 245.696l-78.144 78.176-74.048-74.048-74.048 74.048-78.176-78.176 74.048-74.048-74.048-74.048 78.176-78.176 74.048 74.048 74.048-74.048 78.176 78.176-74.048 74.048 74.048 74.048z m-119.296-74.048l74.08-74.048-32.928-32.928-74.048 74.048-74.048-74.048-32.928 32.928 74.048 74.048-74.048 74.048 32.928 32.928 74.048-74.08 74.048 74.08 32.928-32.928-74.08-74.048z" fill="#EF633F" p-id="12707"></path></svg>