<svg xmlns="http://www.w3.org/2000/svg" viewBox="0 0 1024 1024" version="1.1"><path d="M112 112m32 0l736 0q32 0 32 32l0 736q0 32-32 32l-736 0q-32 0-32-32l0-736q0-32 32-32Z" fill="#FFFFFF" p-id="18949"></path><path d="M96 800l160-160v288H96z" fill="#27A2DF" p-id="18950"></path><path d="M768 608l160 160v160h-160z" fill="#30AD98" p-id="18951"></path><path d="M626.752 480H672l256 256v96h-32v-82.752L626.752 480z m-23.392 0l-213.024 315.072-144.736-125.088L128 781.76V832H96v-64l148.576-141.184L384 747.296l192-283.968V480h27.36z" fill="#708294" p-id="18952"></path><path d="M624 672a240 240 0 1 1 0-480 240 240 0 0 1 0 480z m0-32a208 208 0 1 0 0-416 208 208 0 0 0 0 416zM576 352h96a32 32 0 0 1 32 32v96a32 32 0 0 1-32 32h-96a32 32 0 0 1-32-32V384a32 32 0 0 1 32-32z m0 32v96h96V384h-96z" fill="#C49F74" p-id="18953"></path><path d="M128 96h768a32 32 0 0 1 32 32v768a32 32 0 0 1-32 32H128a32 32 0 0 1-32-32V128a32 32 0 0 1 32-32z m0 32v768h768V128H128z" fill="#5D6D7E" p-id="18954"></path></svg>