<svg xmlns="http://www.w3.org/2000/svg" viewBox="0 0 1024 1024" version="1.1"><path d="M112 112m32 0l736 0q32 0 32 32l0 736q0 32-32 32l-736 0q-32 0-32-32l0-736q0-32 32-32Z" fill="#FFFFFF" p-id="43637"></path><path d="M484.16 127.968l-4.288 6.496a16 16 0 0 0 2.208 20.384l2.88 2.208 3.296 1.984c22.336 13.44 29.536 42.432 16.096 64.736l-2.336 3.52-2.656 3.328-22.176 25.248a48 48 0 0 1-30.944 16.032l-5.12 0.288H402.624a16 16 0 0 0-12.288 5.76l-1.6 2.336-145.408 255.872a16 16 0 0 0 0.32 16.32l1.728 2.336 21.376 23.552a16 16 0 0 0 17.152 4.352l2.528-1.152 9.824-5.504a48 48 0 0 1 55.968 6.528l3.328 3.392 15.68 17.6a48 48 0 0 1 12.128 29.536v4.672l-2.048 43.872a16 16 0 0 0 0.416 4.48l0.64 2.144 10.72 27.136a48 48 0 0 1-1.216 38.016l-2.336 4.352-15.36 25.568a16 16 0 0 0-1.952 11.616l0.928 2.912 9.568 22.4a8.352 8.352 0 0 0 13.28 2.912l0.96-0.96 113.12-141.44 1.12-1.6 0.896-1.664 44.416-96.064a16 16 0 0 0 1.408-8.256l-0.512-2.816-18.656-66.24a44.352 44.352 0 0 1 38.624-56.192l4.064-0.192h19.744c14.848 0 28.8 6.88 37.824 18.432l2.816 4.032 37.184 59.232c5.44 8.64 7.936 18.688 7.232 28.768l-0.608 5.024-11.008 63.04a16 16 0 0 0 2.496 11.744l1.984 2.368 12.16 12.128a7.136 7.136 0 0 0 10.08 0l0.864-1.056 0.64-1.152 18.144-41.76a48 48 0 0 1 70.048-21.184l3.168 2.24 101.76 77.952v41.024l-121.216-93.568a16 16 0 0 0-23.04 3.776l-1.376 2.56-18.144 41.728a39.136 39.136 0 0 1-60.288 14.976l-3.2-2.88-12.16-12.096a48 48 0 0 1-14.08-37.12l0.64-5.152 11.008-63.072a16 16 0 0 0-0.864-8.64l-1.344-2.624-37.184-59.2a16 16 0 0 0-10.816-7.296l-2.72-0.224h-19.744a12.352 12.352 0 0 0-12.32 13.248l0.416 2.464 18.656 66.24a48 48 0 0 1-0.8 28.64l-1.824 4.512-44.416 96.064a48 48 0 0 1-3.808 6.72l-2.272 3.136-113.152 141.408a40.352 40.352 0 0 1-66.816-5.632l-1.824-3.712-9.568-22.4a48 48 0 0 1 0.64-39.104l2.4-4.512 15.36-25.568a16 16 0 0 0 2.048-11.264l-0.832-2.88-10.72-27.104a48 48 0 0 1-3.232-14.816l-0.032-5.056 2.048-43.84a16 16 0 0 0-2.208-8.928l-1.824-2.496-15.68-17.6a16 16 0 0 0-17.248-4.48l-2.528 1.152-9.856 5.536a48 48 0 0 1-55.68-6.304l-3.328-3.36-21.376-23.552a48 48 0 0 1-8.288-51.712l2.144-4.224 145.376-255.872a48 48 0 0 1 37.056-24.064l4.672-0.224h38.496a16 16 0 0 0 10.048-3.52l1.952-1.92 22.208-25.28a15.168 15.168 0 0 0-1.376-21.408l-2.208-1.6-5.12-3.168A48 48 0 0 1 447.68 128h36.448z" fill="#D8D8D8" p-id="43638"></path><path d="M384 128v224h256V128h32v224h224v32h-224v256h224v32h-224v224h-32v-224H384v224H352v-224H128v-32h224V384H128V352h224V128h32z m256 256H384v256h256V384z" fill="#D8D8D8" p-id="43639"></path><path d="M128 96h768a32 32 0 0 1 32 32v768a32 32 0 0 1-32 32H128a32 32 0 0 1-32-32V128a32 32 0 0 1 32-32z m0 32v768h768V128H128z" fill="#5D6D7E" p-id="43640"></path><path d="M576 768v32h-128v-32h128z m-288 0v32H192v-32h96z m544 0v32h-96v-32h96z m-256-272.224v32h-128v-32h128z m-288 0v32H192v-32h96z m544 0v32h-96v-32h96zM576 224v32h-128V224h128zM288 224v32H192V224h96z m544 0v32h-96V224h96z" fill="#C49F74" p-id="43641"></path></svg>