<svg xmlns="http://www.w3.org/2000/svg" viewBox="0 0 1024 1024" version="1.1"><path d="M112 304m32 0l736 0q32 0 32 32l0 544q0 32-32 32l-736 0q-32 0-32-32l0-544q0-32 32-32Z" fill="#FFFFFF" p-id="42850"></path><path d="M128 288h768a32 32 0 0 1 32 32v576a32 32 0 0 1-32 32H128a32 32 0 0 1-32-32V320a32 32 0 0 1 32-32z m0 32v576h768V320H128z" fill="#5D6D7E" p-id="42851"></path><path d="M304 576a80 80 0 1 1 0-160 80 80 0 0 1 0 160z m0-32a48 48 0 1 0 0-96 48 48 0 0 0 0 96zM768 224V96h32v128h128v32h-128v128h-32V256h-128V224h128z" fill="#C49F74" p-id="42852"></path><path d="M178.08 805.28c73.856-115.296 141.28-130.048 213.696-50.144 34.048 37.536 62.368 51.84 88.736 42.176 21.024-7.68 34.816-27.2 51.968-64.896 3.36-7.424 18.848-43.392 23.36-53.312 21.024-45.952 40.544-73.76 66.592-89.376 46.656-28 76.928-19.648 113.664 27.488 14.432 18.496 29.536 42.56 49.824 78.56 8.064 14.304 47.84 86.944 60.096 108.704a16 16 0 0 0 27.872-15.68c-12.128-21.568-51.904-94.208-60.096-108.736-20.992-37.28-36.8-62.464-52.448-82.528-46.08-59.072-93.76-72.224-155.36-35.264-33.024 19.84-55.744 52.16-79.232 103.52-4.736 10.336-20.224 46.368-23.424 53.376-13.568 29.888-23.872 44.48-33.824 48.096-10.72 3.936-27.776-4.704-54.016-33.6-88.16-97.28-180.096-77.184-264.352 54.336a16 16 0 0 0 26.944 17.28z" fill="#30AD98" p-id="42853"></path><path d="M160 224h448v32H160z" fill="#808FA1" p-id="42854"></path><path d="M224 160h512v32H224z" fill="#A9B4C0" p-id="42855"></path></svg>