<svg xmlns="http://www.w3.org/2000/svg" viewBox="0 0 1024 1024" version="1.1"><path d="M512 96c185.568 0 336 143.776 336 321.12C848 683.296 512 928 512 928 288 736.384 176 566.08 176 417.12 176 239.776 326.432 96 512 96z" fill="#FFFFFF" p-id="43687"></path><path d="M512 928C288 736.384 176 566.08 176 417.12 176 239.776 326.432 96 512 96s336 143.776 336 321.12c0 84.416-33.824 166.72-80 239.68v-63.712c31.04-59.84 48-118.944 48-176C816 257.792 680.224 128 512 128s-304 129.76-304 289.12c0 131.904 98.816 287.456 299.2 464.32l5.952 5.216 14.88-12.128 15.584-13.184a1226.272 1226.272 0 0 0 66.24-61.312h44.672C579.84 878.592 512 928 512 928z" fill="#5D6D7E" p-id="43688"></path><path d="M512 288a128 128 0 1 1 0 256 128 128 0 0 1 0-256z m0 32a96 96 0 1 0 0 192 96 96 0 0 0 0-192z" fill="#7A8A9B" p-id="43689"></path><path d="M720 576a16 16 0 0 1 15.744 13.12l0.256 2.88V736h144a16 16 0 0 1 2.88 31.744L880 768H736v144a16 16 0 0 1-31.744 2.88L704 912V768h-144a16 16 0 0 1-2.88-31.744L560 736H704v-144a16 16 0 0 1 16-16z" fill="#C49F74" p-id="43690"></path><path d="M418.4 896l35.712 32h-85.568a16 16 0 0 1-2.88-31.744l2.88-0.256h49.856z m238.144 0a16 16 0 0 1 2.88 31.744l-2.88 0.256H572.16l37.12-32h47.232z" fill="#7A8A9B" p-id="43691"></path></svg>