<svg xmlns="http://www.w3.org/2000/svg" viewBox="0 0 1024 1024" version="1.1"><path d="M96 704h608v224H96v-224zM96 96h608v224H96V96z m320 288h544v256H416v-256z" fill="#FFFFFF" p-id="28807"></path><path d="M96 704h608v224H96v-224z m32 32v160h544v-160H128zM96 96h608v224H96V96z m32 32v160h544V128H128z m256 0h32v160h-32V128z m0 608h32v160h-32v-160z" fill="#5D6D7E" p-id="28808"></path><path d="M416 384h544v256H416v-256z m32 32v192h480v-192H448z" fill="#30AD98" p-id="28809"></path><path d="M64 480h320v64H64z" fill="#C49F74" p-id="28810"></path></svg>