<svg xmlns="http://www.w3.org/2000/svg" viewBox="0 0 1024 1024" version="1.1"><path d="M193.504 655.776l100.352-8.768c4.768 40.256 15.808 73.28 33.184 99.072 17.376 25.792 44.32 46.624 80.896 62.56 36.544 15.904 77.696 23.872 123.392 23.872 40.576 0 76.416-6.048 107.488-18.112 31.072-12.064 54.208-28.64 69.376-49.664a115.264 115.264 0 0 0 22.752-68.896c0-25.248-7.296-47.264-21.92-66.112-14.624-18.88-38.784-34.688-72.416-47.488-21.568-8.416-69.28-21.472-143.136-39.232-73.856-17.76-125.568-34.496-155.2-50.24-38.4-20.096-66.976-45.056-85.824-74.88-18.816-29.824-28.224-63.2-28.224-100.16 0-40.64 11.52-78.592 34.56-113.888 23.04-35.296 56.64-62.08 100.896-80.384C403.904 105.152 453.088 96 507.2 96c59.584 0 112.128 9.6 157.664 28.8 45.504 19.2 80.512 47.488 105.024 84.8 24.48 37.312 37.664 79.584 39.488 126.784l-102.016 7.68c-5.472-50.88-24.032-89.28-55.68-115.264-31.616-25.952-78.304-38.944-140.096-38.944-64.352 0-111.232 11.776-140.672 35.392-29.44 23.584-44.16 52.032-44.16 85.344 0 28.896 10.432 52.672 31.264 71.36 20.48 18.624 73.952 37.76 160.416 57.344 86.464 19.552 145.792 36.672 177.952 51.296 46.816 21.6 81.376 48.96 103.68 82.048 22.272 33.12 33.44 71.264 33.44 114.432 0 42.816-12.256 83.136-36.736 121.024-24.512 37.856-59.712 67.296-105.6 88.32-45.856 21.056-97.504 31.584-154.88 31.584-72.8 0-133.76-10.624-182.912-31.84-49.184-21.216-87.744-53.12-115.744-95.744-27.968-42.624-42.656-90.848-44.16-144.64z" fill="#5D6D7E" p-id="26007"></path><path d="M161.504 480h704v64h-704z" fill="#5D6D7E" p-id="26008"></path></svg>