<svg xmlns="http://www.w3.org/2000/svg" viewBox="0 0 1024 1024" version="1.1"><path d="M112 112m32 0l736 0q32 0 32 32l0 736q0 32-32 32l-736 0q-32 0-32-32l0-736q0-32 32-32Z" fill="#FFFFFF" p-id="50224"></path><path d="M613.92 396.8l-27.744-32.32-272.832 272.832 30.944 29.152 269.632-269.632z m22.72-22.656l54.72-54.784-107.36-113.696-49.92 48.864 102.528 119.616z m-125.44-97.184l-284.576 278.592 63.424 59.776 275.232-275.232-54.08-63.136z m-307.456 300.992l-11.744 11.52V704h114.752l14.88-14.88-117.888-111.168zM584.896 160L736 320 320 736H160v-160L584.896 160z" fill="#C49F74" p-id="50225"></path><path d="M288 918.624L918.624 288 896 265.376 265.376 896z" fill="#30AD98" p-id="50226"></path><path d="M128 96h768a32 32 0 0 1 32 32v768a32 32 0 0 1-32 32H128a32 32 0 0 1-32-32V128a32 32 0 0 1 32-32z m0 32v768h768V128H128z" fill="#5D6D7E" p-id="50227"></path><path d="M800 800h128v128h-128v-128z m32 32v64h64v-64h-64z m-272 63.68l-32 0.64a221.376 221.376 0 0 1 9.28-68.32l30.656 9.152a189.376 189.376 0 0 0-7.936 58.528z m33.728-113.824l-26.976-17.248c11.456-17.92 25.44-35.424 41.92-52.48l23.04 22.208c-15.04 15.584-27.712 31.424-37.984 47.52z m83.616-87.776l-18.88-25.792c17.92-13.152 37.056-24.64 57.408-34.4l13.856 28.832c-18.56 8.96-36.032 19.392-52.384 31.36z m110.944-53.44l-8.736-30.752a467.392 467.392 0 0 1 64.896-13.408l4.288 31.712c-21.12 2.88-41.28 7.04-60.48 12.48z" fill="#27A2DF" p-id="50228"></path></svg>