<svg xmlns="http://www.w3.org/2000/svg" viewBox="0 0 1024 1024" version="1.1"><path d="M96 96m32 0l768 0q32 0 32 32l0 768q0 32-32 32l-768 0q-32 0-32-32l0-768q0-32 32-32Z" fill="#FFFFFF" p-id="35498"></path><path d="M419.136 896v32H128a32 32 0 0 1-32-32V128a32 32 0 0 1 32-32h768a32 32 0 0 1 32 32v346.368l-32-34.144V128H128v768h291.136z m341.088 0H896v-138.72l32-32.672V896a32 32 0 0 1-32 32h-167.104l31.328-32z" fill="#5D6D7E" p-id="35499"></path><path d="M352 320h96a32 32 0 0 1 32 32v96a32 32 0 0 1-32 32H352a32 32 0 0 1-32-32V352a32 32 0 0 1 32-32z m0 32v96h96V352H352z" fill="#5D6D7E" p-id="35500"></path><path d="M384 128h32v192H384V128z m0 352h32v192H384v-192z m96-96h192v32h-192V384zM128 384h192v32H128V384z" fill="#30AD98" p-id="35501"></path><path d="M769.536 588.384L512 845.92V928h114.304l14.848-15.552-87.776-87.776 22.624-22.656 35.68 35.68 204.576-204.576-46.72-44.736z m22.624-22.624l94.112 90.112 46.784-48.96-91.008-91.04-49.888 49.888z m72 113.248l-24.8-23.744-205.056 205.056 28.96 28.992 200.928-210.304z m-22.112-208.384l135.744 135.776L640 960h-160v-127.36l362.048-362.016z" fill="#C49F74" p-id="35502"></path></svg>