<svg xmlns="http://www.w3.org/2000/svg" viewBox="0 0 1024 1024" version="1.1"><path d="M112 112m32 0l736 0q32 0 32 32l0 736q0 32-32 32l-736 0q-32 0-32-32l0-736q0-32 32-32Z" fill="#FFFFFF" p-id="33846"></path><path d="M128 96h768a32 32 0 0 1 32 32v768a32 32 0 0 1-32 32H128a32 32 0 0 1-32-32V128a32 32 0 0 1 32-32z m0 32v768h768V128H128z" fill="#5D6D7E" p-id="33847"></path><path d="M640 576v160h-32v-192h288v32h-256z m-32-224h-64V320h64V128h32v288h-32V352zM384 320h64v32H384v64H352V128h32v192z m-256 224h256v32H128v-32z m224 128h32v224H352v-224z" fill="#27A2DF" p-id="33848"></path></svg>