<svg xmlns="http://www.w3.org/2000/svg" viewBox="0 0 1024 1024" version="1.1"><path d="M256 928a160 160 0 1 1 0-320 160 160 0 0 1 0 320z m512 0a160 160 0 1 1 0-320 160 160 0 0 1 0 320z" fill="#FFFFFF" p-id="15157"></path><path d="M494.784 465.024l-175.52 180.96-22.976-22.272 177.152-182.656L182.144 113.856l23.904-21.28 488.544 548.736-23.904 21.28-175.904-197.568z m81.12-74.4l-22.528-22.72 278.72-276.16 22.528 22.72-278.72 276.16z" fill="#27A2DF" p-id="15158"></path><path d="M256 928a160 160 0 1 1 0-320 160 160 0 0 1 0 320z m0-32a128 128 0 1 0 0-256 128 128 0 0 0 0 256z m512 32a160 160 0 1 1 0-320 160 160 0 0 1 0 320z m0-32a128 128 0 1 0 0-256 128 128 0 0 0 0 256z" fill="#5D6D7E" p-id="15159"></path></svg>