<svg xmlns="http://www.w3.org/2000/svg" viewBox="0 0 1024 1024" version="1.1"><path d="M128 128h768v768H128z" fill="#FFFFFF" p-id="37265"></path><path d="M128 96h768a32 32 0 0 1 32 32v768a32 32 0 0 1-32 32H128a32 32 0 0 1-32-32V128a32 32 0 0 1 32-32z m0 32v768h768V128H128z" fill="#5D6D7E" p-id="37266"></path><path d="M256 384H128V352h128v32z m288 0V352h352v32H544z m-32 288H128v-32h384v32z m288 0v-32h96v32h-96zM288 288a32 32 0 0 1 32-32h160a32 32 0 0 1 32 32v160a32 32 0 0 1-32 32H320a32 32 0 0 1-32-32V288z m32 0v160h160V288H320z" fill="#ACB4C0" p-id="37267"></path><path d="MNaN NaNmNaN NaNlNaN NaNqNaN NaN NaN NaNlNaN NaNqNaN NaN NaN NaNlNaN NaNqNaN NaN NaN NaNlNaN NaNqNaN NaN NaN NaNZ" fill="#27A2DF" fill-opacity=".5" p-id="37268"></path><path d="M544 576v160a32 32 0 0 0 32 32h160a32 32 0 0 0 32-32v-160a32 32 0 0 0-32-32h-160a32 32 0 0 0-32 32z m32 0h160v160h-160v-160z" fill="#27A2DF" p-id="37269"></path></svg>