<svg xmlns="http://www.w3.org/2000/svg" viewBox="0 0 1024 1024" version="1.1"><path d="M512 512m-416 0a416 416 0 1 0 832 0 416 416 0 1 0-832 0Z" fill="#FFFFFF" p-id="30049"></path><path d="M512 944c238.592 0 432-193.408 432-432S750.592 80 512 80 80 273.408 80 512 273.408 944 512 944z m0-32C291.072 912 112 732.928 112 512S291.072 112 512 112 912 291.072 912 512 732.928 912 512 912z" fill="#5D6D7E" p-id="30050"></path><path d="M608 512l-288 192V320l288 192z m-96 93.12L640 512l-128-93.12V352l256 160-256 160v-66.88z" fill="#27A2DF" p-id="30051"></path></svg>