<svg xmlns="http://www.w3.org/2000/svg" viewBox="0 0 1024 1024" version="1.1"><path d="M112 112m32 0l736 0q32 0 32 32l0 736q0 32-32 32l-736 0q-32 0-32-32l0-736q0-32 32-32Z" fill="#FFFFFF" p-id="20048"></path><path d="M405.696 573.856l287.84 287.84 222.72-222.72-22.656-22.624-200.064 200.096-287.84-287.84-103.072 103.04-180.8-185.856-22.976 22.304 203.456 209.152z" fill="#808FA1" p-id="20049"></path><path d="M704 512h-64l-64-160v160h-64V192h64l96 240L768 192h64v320h-64V352l-64 160z" fill="#27A2DF" p-id="20050"></path><path d="M128 96h768a32 32 0 0 1 32 32v768a32 32 0 0 1-32 32H128a32 32 0 0 1-32-32V128a32 32 0 0 1 32-32z m0 32v768h768V128H128z" fill="#5D6D7E" p-id="20051"></path></svg>