<svg xmlns="http://www.w3.org/2000/svg" viewBox="0 0 1024 1024" version="1.1"><path d="M352 768h32v96h-32v-96z m96 0h32v96h-32v-96z m96 32h32v128h-32v-128z m96-32h32v96h-32v-96z m96 0h32v96h-32v-96z m96 32h32v128h-32v-128zM453.984 351.744c29.6 0 54.24 7.744 73.248 23.232 18.304 14.784 29.216 35.2 33.088 60.544h-40.16c-4.224-16.544-11.936-28.512-23.584-36.256-11.264-7.744-25.696-11.264-43.296-11.264-26.4 0-46.08 8.8-59.488 27.104-12.32 16.192-18.304 38.72-18.304 67.584 0 29.568 5.984 52.448 17.952 68.288 13.024 16.896 33.44 25.696 60.896 25.696 17.952 0 32.736-4.576 44-13.024 11.968-9.504 20.416-23.936 25.344-42.944h40.128c-5.632 29.568-18.656 52.448-39.424 68.992-19.36 15.488-42.56 23.232-69.696 23.232-41.888 0-73.216-13.376-93.632-39.424-17.92-22.528-26.752-52.8-26.752-90.816 0-37.312 9.152-67.936 27.84-91.168 21.12-26.752 51.712-39.776 91.84-39.776z m148.576 4.928h48.224l85.504 197.12h1.408l85.184-197.12h48.256V608h-41.184v-173.184h-1.408L754.624 608H719.04l-73.92-173.184h-1.44V608H602.56v-251.328z" fill="#C49F74" p-id="27485"></path><path d="M224 736V96h64v640h640v64H288v128H224v-128H96v-64h128z" fill="#5D6D7E" p-id="27486"></path></svg>