<svg xmlns="http://www.w3.org/2000/svg" viewBox="0 0 1024 1024" version="1.1"><path d="M112 112m48 0l704 0q48 0 48 48l0 704q0 48-48 48l-704 0q-48 0-48-48l0-704q0-48 48-48Z" fill="#FFFFFF" p-id="24873"></path><path d="M96 896c249.504-85.344 388.16-218.656 416-400C539.84 314.656 667.84 192 896 128l-32-32H128L96 128v768z" fill="#C49F74" fill-opacity=".2" p-id="24874"></path><path d="M514.88 479.168l3.52 11.008c32.064 101.504 92.032 161.696 180.896 182.56 100.16 23.488 171.008 91.936 211.744 203.648l5.472 15.04-30.08 10.944-5.44-15.04c-37.216-101.984-99.904-162.56-188.992-183.456-87.712-20.576-151.04-75.616-189.184-163.84C462.496 691.52 337.536 806.4 128 884.608v-34.24c212.256-81.728 328.16-201.344 352.384-359.2 25.824-168.512 132.256-289.92 315.392-363.136H896c-221.056 62.016-348.096 179.072-381.12 351.168z" fill="#C49F74" p-id="24875"></path><path d="M128 96h768a32 32 0 0 1 32 32v768a32 32 0 0 1-32 32H128a32 32 0 0 1-32-32V128a32 32 0 0 1 32-32z m0 32v768h768V128H128z" fill="#5D6D7E" p-id="24876"></path></svg>