<svg xmlns="http://www.w3.org/2000/svg" viewBox="0 0 1024 1024" version="1.1"><path d="M96 96m32 0l768 0q32 0 32 32l0 768q0 32-32 32l-768 0q-32 0-32-32l0-768q0-32 32-32Z" fill="#FFFFFF" p-id="20989"></path><path d="M608 608h288a32 32 0 0 1 32 32v256a32 32 0 0 1-32 32h-288a32 32 0 0 1-32-32v-256a32 32 0 0 1 32-32z m0 32v256h288v-256h-288z m32-64h-32V320h-192v288h128v32H352v96h192v32H256v-32h64v-128h64V288h64V256h128v32h64v288z m-224-192h192v32h-192V384z m0 96h192v32h-192v-32z" fill="#808FA1" p-id="20990"></path><path d="M736 736h96v96h-96v-96z m32 32v32h32v-32h-32z m-256 128v32H128a32 32 0 0 1-32-32V128a32 32 0 0 1 32-32h768a32 32 0 0 1 32 32v416h-32V128H128v768h384z" fill="#5D6D7E" p-id="20991"></path><path d="M736 704v-96h96v96h-96z m128 32h64v96h-64v-96z m-32 128v64h-96v-64h96z m-128-32h-128v-96h128v96z" fill="#30AD98" p-id="20992"></path></svg>