<svg xmlns="http://www.w3.org/2000/svg" viewBox="0 0 1024 1024" version="1.1"><path d="M512 512m-416 0a416 416 0 1 0 832 0 416 416 0 1 0-832 0Z" fill="#FFFFFF" p-id="41979"></path><path d="M512 96c229.76 0 416 186.24 416 416s-186.24 416-416 416S96 741.76 96 512 282.24 96 512 96z m0 32C299.936 128 128 299.936 128 512s171.936 384 384 384 384-171.936 384-384S724.064 128 512 128z" fill="#5D6D7E" p-id="41980"></path><path d="M512 96c229.76 0 416 186.24 416 416s-186.24 416-416 416z" fill="#5D6D7E" p-id="41981"></path><path d="M512 512m-192 0a192 192 0 1 0 384 0 192 192 0 1 0-384 0Z" fill="#5D6D7E" p-id="41982"></path><path d="M512 320a192 192 0 1 1 0 384z" fill="#FFFFFF" p-id="41983"></path></svg>