<svg xmlns="http://www.w3.org/2000/svg" viewBox="0 0 1024 1024" version="1.1"><path d="M128 320h736v576H128z" fill="#FFFFFF" p-id="35935"></path><path d="M352 320v32H128v544h704V544h32v352a32 32 0 0 1-32 32H128a32 32 0 0 1-32-32V352a32 32 0 0 1 32-32h224z" fill="#5D6D7E" p-id="35936"></path><path d="M858.912 272C606.72 257.312 435.2 381.76 341.312 648.256a16 16 0 0 1-30.176-10.624c97.856-277.76 280.352-411.36 544.48-397.856l-128.32-128.32a16 16 0 1 1 22.624-22.624l168.704 168.704-168.704 168.736a16 16 0 0 1-22.624-22.624L858.88 272z" fill="#27A2DF" p-id="35937"></path></svg>