<svg xmlns="http://www.w3.org/2000/svg" viewBox="0 0 1024 1024" version="1.1"><path d="M96 160m32 0l704 0q32 0 32 32l0 704q0 32-32 32l-704 0q-32 0-32-32l0-704q0-32 32-32Z" fill="#FFFFFF" p-id="42125"></path><path d="M608 176a16 16 0 0 1-16 16H128v704h704v-464a16 16 0 1 1 32 0v464a32 32 0 0 1-32 32H128a32 32 0 0 1-32-32v-704a32 32 0 0 1 32-32h464a16 16 0 0 1 16 16z" fill="#5D6D7E" p-id="42126"></path><path d="M912.224 96.16A16 16 0 0 1 928 109.28l0.256 2.88v224.32a16 16 0 0 1-31.744 2.88l-0.256-2.88V151.392L555.808 522.816a16 16 0 0 1-25.344-19.328l1.728-2.304L874.144 128.16 687.424 128.16a16 16 0 0 1-15.744-13.12L671.424 112.16a16 16 0 0 1 13.12-15.744l2.88-0.256h224.8z" fill="#27A2DF" p-id="42127"></path><path d="M496 384a16 16 0 0 1 2.88 31.744l-2.88 0.256h-256a16 16 0 0 1-2.88-31.744l2.88-0.256h256z" fill="#AEB6C0" p-id="42128"></path><path d="M720 672.064a16 16 0 0 1 2.88 31.744l-2.88 0.256h-480a16 16 0 0 1-2.88-31.744l2.88-0.256h480z" fill="#C49F74" p-id="42129"></path><path d="M624 768.064a16 16 0 0 1 2.88 31.744l-2.88 0.256h-384a16 16 0 0 1-2.88-31.744l2.88-0.256h384z" fill="#D8D8D8" p-id="42130"></path></svg>