<svg xmlns="http://www.w3.org/2000/svg" viewBox="0 0 1024 1024" version="1.1"><path d="M928 576H96V96h832v480z m0 96v256H96v-256h832z" fill="#FFFFFF" p-id="28461"></path><path d="M928 96v256H96V96h832z m-32 32H128v192h768V128z" fill="#5D6D7E" p-id="28462"></path><path d="M928 320v256H96v-256h832z m-32 32H128v192h768v-192z" fill="#5D6D7E" p-id="28463"></path><path d="M905.376 704H736v169.376L905.376 704z m22.624 22.624L758.624 896H928v-169.376zM704 672h256v256h-256v-256z" fill="#27A2DF" p-id="28464"></path><path d="M672 928h-64v-32h64v32z m-192 0v-32h64v32h-64z m-128 0v-32h64v32h-64z m-128 0v-32h64v32H224z m-128 0v-32h64v32H96z m0-64v-64h32v64H96z m0-128v-64h64v32H128v32H96z m192-64v32H224v-32h64z m128 0v32h-64v-32h64z m128 0v32h-64v-32h64z m128 0v32h-64v-32h64z" fill="#ACB4C0" p-id="28465"></path></svg>