<svg xmlns="http://www.w3.org/2000/svg" viewBox="0 0 1024 1024" version="1.1"><path d="M96 96h832v832H128a32 32 0 0 1-32-32V96z" fill="#FFFFFF" p-id="28412"></path><path d="M928 499.968l-32-28.032V288H128v608h256v32H128a32 32 0 0 1-32-32V96h832v403.968zM128 128v128h768V128H128z m448 64h160v32h-160V192z m192 0h64v32h-64V192z" fill="#5D6D7E" p-id="28413"></path><path d="M192 384v128h160v-128H192z m0-32h672v32H384v448H160V352h32z m0 192v128h160v-128H192z m0 160v96h160v-96H192z" fill="#ACB4C0" p-id="28414"></path><path d="M544 896v-192h288v192h64v-306.752L786.752 480H608v128h192v32h-224v-160h-96v416h64z m-96-448h352l128 128v352H448V448z m128 288v160h224v-160h-224z" fill="#C49F74" p-id="28415"></path></svg>