<svg xmlns="http://www.w3.org/2000/svg" viewBox="0 0 1024 1024" version="1.1"><path d="M112 112m32 0l736 0q32 0 32 32l0 736q0 32-32 32l-736 0q-32 0-32-32l0-736q0-32 32-32Z" fill="#FFFFFF" p-id="46568"></path><path d="M460.8 425.6l25.6 19.2-163.2 217.6-25.6-19.2 163.2-217.6z m146.24 97.824l-53.216-79.872 26.624-17.728 53.248 79.872-26.624 17.728z m71.04 106.528l-53.28-79.872 26.624-17.76 53.28 79.872-26.624 17.76z" fill="#808FA1" p-id="46569"></path><path d="M192 640h256a32 32 0 0 1 32 32v128a32 32 0 0 1-32 32H192a32 32 0 0 1-32-32v-128a32 32 0 0 1 32-32z m0 32v128h256v-128H192z" fill="#30AD98" p-id="46570"></path><path d="M576 640h256a32 32 0 0 1 32 32v128a32 32 0 0 1-32 32h-256a32 32 0 0 1-32-32v-128a32 32 0 0 1 32-32z m0 32v128h256v-128h-256z" fill="#27A2DF" p-id="46571"></path><path d="M128 96h768a32 32 0 0 1 32 32v768a32 32 0 0 1-32 32H128a32 32 0 0 1-32-32V128a32 32 0 0 1 32-32z m0 32v768h768V128H128z m384 320c-123.712 0-224-57.28-224-128s100.288-128 224-128 224 57.28 224 128-100.288 128-224 128z m0-32c108.384 0 192-47.776 192-96s-83.616-96-192-96-192 47.776-192 96 83.616 96 192 96z m0-32a64 64 0 1 1 0-128 64 64 0 0 1 0 128z m0-32a32 32 0 1 0 0-64 32 32 0 0 0 0 64z" fill="#5D6D7E" p-id="46572"></path></svg>