<svg xmlns="http://www.w3.org/2000/svg" viewBox="0 0 1024 1024" version="1.1"><path d="M672.16 236.16H771.2l143.776 160.608v478.592a32 32 0 0 1-32 32H352a32 32 0 0 1-32-32V800H148.16a32 32 0 0 1-32-32V140.16a32 32 0 0 1 32-32H547.2l124.96 128z" fill="#FFFFFF" p-id="36964"></path><path d="M672.16 224h-44.736l-93.728-96H128v640h224v32H128a32 32 0 0 1-32-32V128a32 32 0 0 1 32-32h419.2l124.96 128z" fill="#7E8C9E" p-id="36965"></path><path d="M320 704h32v192h544V397.632L757.696 256H352v128h-32V256a32 32 0 0 1 32-32h419.2l156.8 160.608V896a32 32 0 0 1-32 32H352a32 32 0 0 1-32-32v-192z" fill="#5B6B7A" p-id="36966"></path><path d="M256 416h544v256H256v-256z m352 32.576V448h-32v192h32v-122.432l64 122.304V640h0.064l0.48 0.928 1.792-0.928H704v-192h-32v122.88l-64-122.304zM448 480h32v-32h-96v32h32v160h32v-160z m-160 96v64h64v-64H288z m224-128v192h32v-192h-32z" fill="#2F98CF" p-id="36967"></path><path d="M512 704h288v32h-288v-32z m96 64h192v32h-192v-32z" fill="#B6BDC9" p-id="36968"></path></svg>