<svg xmlns="http://www.w3.org/2000/svg" viewBox="0 0 1024 1024" version="1.1"><path d="M128 96h768a32 32 0 0 1 32 32v768a32 32 0 0 1-32 32H128a32 32 0 0 1-32-32V128a32 32 0 0 1 32-32z" fill="#FFFFFF" p-id="15937"></path><path d="M128 128v768h768V128H128z m0-32h768a32 32 0 0 1 32 32v768a32 32 0 0 1-32 32H128a32 32 0 0 1-32-32V128a32 32 0 0 1 32-32z m0 192h768v32H128V288z" fill="#5D6D7E" p-id="15938"></path><path d="M224 384h96v96H224v-96z m320 0h96v96h-96v-96zM224 544h96v96H224v-96z m320 0h96v96h-96v-96zM224 704h96v96H224v-96z m320 0h96v96h-96v-96z" fill="#C49F74" p-id="15939"></path><path d="M352 416h128v32h-128v-32z m0 160h128v32h-128v-32z m0 160h128v32h-128v-32z m320-320h128v32h-128v-32z m0 160h128v32h-128v-32z m0 160h128v32h-128v-32z" fill="#979797" p-id="15940"></path></svg>