<svg xmlns="http://www.w3.org/2000/svg" viewBox="0 0 1024 1024" version="1.1"><path d="M112 272m32 0l736 0q32 0 32 32l0 544q0 32-32 32l-736 0q-32 0-32-32l0-544q0-32 32-32Z" fill="#FFFFFF" p-id="41546"></path><path d="M128 256h768a32 32 0 0 1 32 32v576a32 32 0 0 1-32 32H128a32 32 0 0 1-32-32V288a32 32 0 0 1 32-32z m0 32v576h768V288H128z" fill="#5D6D7E" p-id="41547"></path><path d="M160 192h704v32H160z" fill="#808FA1" p-id="41548"></path><path d="M224 128h576v32H224z" fill="#A9B4C0" p-id="41549"></path><path d="M669.76 573.024l-180.48 128.896a16 16 0 0 1-25.28-13.024V431.104a16 16 0 0 1 25.28-13.024l180.48 128.896a16 16 0 0 1 0 26.048z" fill="#27A2DF" p-id="41550"></path><path d="M800 736v96h-32v-96h32z m-64 32v32H96v-32h640z m192 0v32h-96v-32h96z" fill="#808FA1" p-id="41551"></path></svg>