<svg xmlns="http://www.w3.org/2000/svg" viewBox="0 0 1024 1024" version="1.1"><path d="M188.448 448L96 384l416-275.584L928 384l-92.448 64L928 512l-92.448 64L928 640l-416 269.44L96 640l92.448-64L96 512z" fill="#FFFFFF" p-id="23435"></path><path d="M195.2 482.24L152.224 512 512 761.088 871.776 512l-42.976-29.76 27.936-19.552L928 512l-416 288-416-288 71.264-49.312z" fill="#808FA1" p-id="23436"></path><path d="M172.224 626.144L152.224 640 512 889.088 871.776 640l-20-13.856 27.968-19.552L928 640l-416 288-416-288 48.256-33.408 27.968 19.552z" fill="#ACB4C0" p-id="23437"></path><path d="M512 96l416 288-416 288-416-288 416-288z m0 38.912L152.224 384 512 633.088 871.776 384 512 134.912z" fill="#5D6D7E" p-id="23438"></path></svg>