<svg xmlns="http://www.w3.org/2000/svg" viewBox="0 0 1024 1024" version="1.1"><path d="M139.584 142.976H896a32 32 0 0 1 32 32V800a32 32 0 0 1-32 32H139.584a32 32 0 0 1-32-32V174.976a32 32 0 0 1 32-32z" fill="#FFFFFF" p-id="52638"></path><path d="M752 896a16 16 0 0 1 2.88 31.744L752 928h-480a16 16 0 0 1-2.88-31.744L272 896h480z" fill="#5D6D7E" p-id="52639"></path><path d="M400 432m-80 0a80 80 0 1 0 160 0 80 80 0 1 0-160 0Z" fill="#27A2DF" p-id="52640"></path><path d="M790.624 455.04l128 128a32 32 0 0 1 9.376 22.624V800a32 32 0 0 1-32 32H544a32 32 0 0 1-32-32v-98.336a32 32 0 0 1 9.376-22.624l224-224a32 32 0 0 1 45.248 0zM896 605.664l-128-128-224 224V800h352v-194.336z" fill="#CC9E6D" p-id="52641"></path><path d="M699.968 333.408a16 16 0 0 1 24.48 20.384l-1.856 2.24L315.328 763.328a16 16 0 0 1-24.48-20.416l1.824-2.24L699.968 333.44z" fill="#30AD98" p-id="52642"></path><path d="M896 128.128a32 32 0 0 1 31.776 28.256l0.224 3.744v335.36a16 16 0 0 1-31.744 2.88l-0.256-2.88V160.128H128.064v640.256h304a16 16 0 0 1 2.88 31.744l-2.88 0.256h-304a32 32 0 0 1-31.776-28.288l-0.224-3.712V160.128A32 32 0 0 1 124.32 128.352l3.744-0.224H896z" fill="#5D6D7E" p-id="52643"></path></svg>