<svg xmlns="http://www.w3.org/2000/svg" viewBox="0 0 1024 1024" version="1.1"><path d="M433.792 768c-20.896 73.888-81.216 120.704-161.792 120.704-87.84 0-154.656-57.056-167.872-141.184C102.752 744 96 716.48 96 712.416V174.72C96 157.12 125.28 128 142.976 128h736.16C896.8 128 928 157.088 928 174.752V720c0 17.664-31.2 48-48.864 48H433.792z" fill="#FFFFFF" p-id="36467"></path><path d="M672 864v-32h32v32h128v32h-128v32h-32v-32h-224v-32h224z m-192.608-128H896V160H128v409.92a208.96 208.96 0 0 0-32 39.168V160a32 32 0 0 1 32-32h768a32 32 0 0 1 32 32v576a32 32 0 0 1-32 32H474.432a207.68 207.68 0 0 0 4.96-32z m-71.616 96a176 176 0 1 1 0-224l1.824 2.24c24 30.08 38.4 68.256 38.4 109.76 0 41.504-14.4 79.68-38.4 109.76l-1.824 2.24z m-207.04-32a347.264 347.264 0 0 1-8.416-64H128.864c2.624 23.488 10.88 45.312 23.36 64h48.512z m19.648 54.464A184.32 184.32 0 0 1 210.272 832h-28.8c11.616 9.408 24.736 17.024 38.912 22.464zM415.136 736H351.68c-0.96 22.88-3.84 44.48-8.416 64h48.48c12.512-18.688 20.8-40.512 23.36-64z m-81.408 96a184.32 184.32 0 0 1-10.112 22.464c14.176-5.44 27.296-13.056 38.912-22.464h-28.8z m-23.36-32c4.736-18.56 8.192-40.288 9.28-64H224.32c1.088 23.712 4.544 45.44 9.28 64h76.704z m-65.92 32c8.8 20.16 19.008 32 27.552 32s18.752-11.84 27.584-32H244.416z m-115.584-128H192.32c0.96-22.88 3.84-44.48 8.416-64H152.256a143.168 143.168 0 0 0-23.36 64z m81.408-96a184.32 184.32 0 0 1 10.112-22.464c-14.176 5.44-27.296 13.056-38.912 22.464h28.8z m132.992 32c4.544 19.52 7.488 41.12 8.416 64h63.456a143.168 143.168 0 0 0-23.36-64h-48.512z m-19.648-54.464c3.648 6.816 7.04 14.336 10.112 22.464h28.8a143.84 143.84 0 0 0-38.912-22.464zM224.352 704H319.68a317.952 317.952 0 0 0-9.28-64H233.632a317.952 317.952 0 0 0-9.28 64z m20.064-96h55.168c-8.832-20.16-19.04-32-27.584-32s-18.752 11.84-27.584 32z" fill="#5D6D7E" p-id="36468"></path><path d="M653.76 461.024l-180.48 128.896a16 16 0 0 1-25.28-13.024V319.104a16 16 0 0 1 25.28-13.024l180.48 128.896a16 16 0 0 1 0 26.048z" fill="#27A2DF" p-id="36469"></path></svg>