<svg xmlns="http://www.w3.org/2000/svg" viewBox="0 0 1024 1024" version="1.1"><path d="M128 174.784v614.56a32 32 0 0 0 23.2 30.784l255.04 73.088a32 32 0 0 0 19.36-0.576l235.104-82.08a32 32 0 0 1 22.4 0.512l169.024 67.424A32 32 0 0 0 896 848.768V259.776a32 32 0 0 0-17.696-28.608L685.44 134.688a32 32 0 0 0-27.136-0.672l-230.176 100.672a32 32 0 0 1-24.416 0.512L171.584 144.96A32 32 0 0 0 128 174.784z" fill="#FFFFFF" p-id="52741"></path><path d="M416 624a16 16 0 0 1 15.744 13.12l0.256 2.88v251.456a16 16 0 0 1-31.744 2.88l-0.256-2.88V640a16 16 0 0 1 16-16z m0-395.52a16 16 0 0 1 15.744 13.12l0.256 2.88v112.64a16 16 0 0 1-31.744 2.88l-0.256-2.88V244.48a16 16 0 0 1 16-16z" fill="#BFC7D0" p-id="52742"></path><path d="M645.44 104.704l-230.144 100.672-232.096-90.24A64 64 0 0 0 96 174.784v614.56a64 64 0 0 0 46.4 61.536l255.04 73.088a64 64 0 0 0 38.72-1.12l235.104-82.08 169.024 67.456A64 64 0 0 0 928 848.768V259.776a64 64 0 0 0-35.392-57.248l-192.896-96.448a64 64 0 0 0-54.272-1.376z m12.8 29.312a32 32 0 0 1 23.456-0.896l3.712 1.6 192.896 96.448a32 32 0 0 1 17.44 24.64l0.256 3.968v588.992a32 32 0 0 1-40.32 30.912l-3.52-1.184-169.056-67.424a32 32 0 0 0-17.952-1.696l-4.448 1.184-235.104 82.08a32 32 0 0 1-15.52 1.408l-3.84-0.832-255.04-73.088a32 32 0 0 1-22.976-26.912L128 789.376V174.752a32 32 0 0 1 40.032-30.976l3.552 1.152 232.096 90.24a32 32 0 0 0 20.48 0.96l3.936-1.472 230.176-100.672z" fill="#5D6D7E" p-id="52743"></path><path d="M503.04 626.272a16 16 0 0 1 21.76-6.336c17.696 9.76 34.272 12.032 50.88 6.656a16 16 0 1 1 9.824 30.464c-25.472 8.224-51.072 4.704-76.16-9.056a16 16 0 0 1-6.304-21.728z m153.184-83.296a16 16 0 1 1 27.744 15.936c-12.672 22.048-25.472 40.352-38.432 55.136a16 16 0 1 1-24.032-21.12c11.488-13.088 23.04-29.664 34.72-49.92z m-236.16-14.688a16 16 0 0 1 22.208 4.288c13.024 19.264 25.376 35.552 37.536 49.184a16 16 0 0 1-23.904 21.28 499.936 499.936 0 0 1-40.16-52.512 16 16 0 0 1 4.288-22.24z m-234.88-41.952a16 16 0 0 1 24.96 20.064c-11.872 14.72-24.16 31.584-36.832 50.592a16 16 0 1 1-26.624-17.76c13.184-19.776 26.016-37.408 38.496-52.896z m504-10.336a16 16 0 1 1 29.408 12.64l-4.64 10.592a16 16 0 0 1-29.248-13.024z m-343.2-51.648a16 16 0 0 1 22.592-0.992c10.464 9.568 20.16 21.984 29.12 37.28l10.976 18.56a16 16 0 1 1-27.52 16.384l-11.04-18.752c-7.456-12.672-15.168-22.592-23.136-29.856a16 16 0 0 1-0.992-22.624zM795.392 308.8a16 16 0 0 1 1.696 20.416l-1.856 2.24-68.384 67.36 68.384 67.52a16 16 0 0 1-20.256 24.64l-2.24-1.856-68.672-67.84-68.832 67.84a16 16 0 0 1-24.32-20.576l1.856-2.208 68.48-67.552-63.04-62.272a16 16 0 0 1 20.288-24.608l2.24 1.856 63.36 62.56 68.672-67.68a16 16 0 0 1 22.624 0.16z m-501.76 93.408a16 16 0 0 1 7.104 31.2c-14.432 3.296-30.72 12.608-48.608 28.224a16 16 0 1 1-21.024-24.128c21.568-18.816 42.336-30.688 62.496-35.296z" fill="#30AD98" p-id="52744"></path></svg>