<svg xmlns="http://www.w3.org/2000/svg" viewBox="0 0 1024 1024" version="1.1"><path d="M512 77.344l403.328 196.096v84.064l-212.288 106.656 198.912 275.712L512 928 121.472 752l242.24-265.344-254.016-129.152V272z" fill="#FFFFFF" p-id="21237"></path><path d="M550.016 517.824l159.2-76.864 221.6 311.328L512 954.432 93.952 751.168l356.704-393.664 99.36 160.32z m332.736 222.112l-183.968-258.4-160.8 77.632-92.16-148.672-299.52 330.56L512 918.88l370.72-178.944z" fill="#5D6D7E" p-id="21238"></path><path d="M699.072 481.472l184.512 258.72-78.4 37.28-106.112-296z m-252.64-70.656l256.64 416-189.6 91.616-67.04-507.616z" fill="#30AD98" p-id="21239"></path><path d="M115.392 262.304l0.352-0.704 0.512 0.256L512 64l416 208v96l-200.704 100.352-17.44-27.04L896 348.224V309.408l-334.4 161.568-106.944-155.84-96.16 104.32L128 303.584v44.64l227.968 113.984-22.624 24.448L96 368v-96l19.392-9.696z m762.368 20.352L512 99.776 151.936 279.808l199.36 100.224 107.04-116.096 114.112 166.272 305.312-147.52z" fill="#27A2DF" p-id="21240"></path></svg>