<svg xmlns="http://www.w3.org/2000/svg" viewBox="0 0 1024 1024" version="1.1"><path d="M464 800H199.776L96 928h468.288L464 800z m0-32C649.568 768 800 617.568 800 432S649.568 96 464 96 128 246.432 128 432 278.432 768 464 768z" fill="#FFFFFF" p-id="16772"></path><path d="M464 800H199.776L96 928h468.288L464 800z m34.56 96H163.136l51.904-64h233.376l50.144 64z" fill="#808FA1" p-id="16773"></path><path d="M464 736a304 304 0 1 1 0-608 304 304 0 0 1 0 608z m0 32C649.568 768 800 617.568 800 432S649.568 96 464 96 128 246.432 128 432 278.432 768 464 768z m235.776-94.08a48 48 0 0 0 0 67.904l158.4 158.4a48 48 0 0 0 67.872-67.904l-158.4-158.4a48 48 0 0 0-67.84 0z" fill="#5D6D7E" p-id="16774"></path><path d="M470.72 705.28a176 176 0 1 0-270.816-1.728h-0.128L335.84 896l134.848-190.72z m-134.72-25.28a88 88 0 1 1 0-176 88 88 0 0 1 0 176z" fill="#30AD98" p-id="16775"></path><path d="M358.432 198.72c-2.88 12.608-4.832 25.6-5.76 38.88a224 224 0 0 1 323.968 265.12c12.704-3.552 25.056-8.064 36.928-13.44A256 256 0 0 0 358.4 198.72z" fill="#808FA1" p-id="16776"></path></svg>