<svg xmlns="http://www.w3.org/2000/svg" viewBox="0 0 1024 1024" version="1.1"><path d="M112 112m32 0l736 0q32 0 32 32l0 736q0 32-32 32l-736 0q-32 0-32-32l0-736q0-32 32-32Z" fill="#FFFFFF" p-id="13041"></path><path d="M128 96h768a32 32 0 0 1 32 32v768a32 32 0 0 1-32 32H128a32 32 0 0 1-32-32V128a32 32 0 0 1 32-32z m0 32v768h768V128H128z" fill="#5D6D7E" p-id="13042"></path><path d="M320 320h384v384H320z" fill="#D5D9DF" p-id="13043"></path><path d="M815.712 230.912l-214.592 214.592a16 16 0 0 1-22.624-22.624L793.376 208H640.32a16 16 0 0 1 0-32h207.392v207.936a16 16 0 0 1-32 0V230.912zM208 793.376l215.04-215.04a16 16 0 1 1 22.656 22.624l-215.104 215.104h153.472a16 16 0 1 1 0 32H176v-208a16 16 0 0 1 32 0v153.312z" fill="#27A2DF" p-id="13044"></path></svg>