<svg xmlns="http://www.w3.org/2000/svg" viewBox="0 0 1024 1024" version="1.1"><path d="M506.656 512l-32-32h-76.704a32 32 0 0 1-32-32V135.296a32 32 0 0 1 32-32h489.6a32 32 0 0 1 32 32V448a32 32 0 0 1-32 32h-99.328l-32 32h5.728l173.248 407.296H79.264L261.344 512h245.312z" fill="#FFFFFF" p-id="23386"></path><path d="M528 512l105.248 100.064L732.864 512h29.088l73.088 181.696-112.288 101.344L247.872 512H528z" fill="#ACB4C0" p-id="23387"></path><path d="M364.192 544l356.736 212.64 80.096-77.024L741.12 544h-32.704l25.536-32h28.032l183.872 416H588.896l-0.192 0.16-0.16-0.16H64l183.872-416H528l32 32H364.16z m-62.496 0h-32.96L113.088 896H196.16l248.192-266.976L301.696 544z m170.72 101.76L239.808 896H576l121.024-116.352-224.608-133.888z m149.76 250.24h274.496l-81.856-185.216L622.176 896z" fill="#5D6D7E" p-id="23388"></path><path d="M788.224 480l-156.8 156.8-156.768-156.8H384a32 32 0 0 1-32-32V128a32 32 0 0 1 32-32h512a32 32 0 0 1 32 32v320a32 32 0 0 1-32 32h-107.776z m-156.8 111.52L775.008 448H896V128H384v320h103.936l143.52 143.52z m8.384-414.368c9.12 0 17.024 2.912 23.264 8.736a30.72 30.72 0 0 1 9.184 22.464 30.4 30.4 0 0 1-9.6 22.88 32.064 32.064 0 0 1-22.848 8.736c-9.184 0-16.64-2.912-22.88-8.736a30.72 30.72 0 0 1-9.184-22.88c0-9.152 2.912-16.64 9.184-22.464 6.24-5.824 13.696-8.736 22.88-8.736z m-23.712 87.776h47.424V480h-47.424V264.928z" fill="#27A2DF" p-id="23389"></path></svg>