<svg xmlns="http://www.w3.org/2000/svg" viewBox="0 0 1024 1024" version="1.1"><path d="M282.56 128H896v719.072L845.248 896l-73.312 32H192a96 96 0 0 1-96-96V160a96 96 0 0 1 186.56-32z" fill="#FFFFFF" p-id="13239"></path><path d="M787.104 640h-44.16c-47.264-44.768-110.656-73.632-196.704-83.104-128.512-14.144-215.072-64.128-258.24-148.736V259.84c0.672 158.816 86.304 245.952 261.76 265.28 106.944 11.776 183.232 52.224 237.344 114.912z m-387.104 20.416a48 48 0 1 1 0-96 48 48 0 0 1 0 96z" fill="#D5D9DF" p-id="13240"></path><path d="M576 896v32H192a96 96 0 0 1-96-96V160a96 96 0 0 1 186.56-32H896v480h-32V160H288v672H256a64 64 0 1 0-64 64h384zM128 760.448A95.648 95.648 0 0 1 192 736c24.576 0 47.04 9.248 64 24.448V148.928l-3.648-10.24A64.032 64.032 0 0 0 128 160v600.448z" fill="#5D6D7E" p-id="13241"></path><path d="M544 490.304v96h-32v-256h256v160h-224z m0-32h192v-96h-192v96z" fill="#ACB4C0" p-id="13242"></path><path d="M657.408 640H784a144 144 0 1 1 0 288H640v-32h144a112 112 0 0 0 0-224h-136l52.48 52.704a16 16 0 1 1-22.72 22.592l-86.592-87.008 86.72-85.376a16 16 0 1 1 22.464 22.816L657.408 640z" fill="#30AD98" p-id="13243"></path></svg>