<svg xmlns="http://www.w3.org/2000/svg" viewBox="0 0 1024 1024" version="1.1"><path d="M64 96m48 0l736 0q48 0 48 48l0 736q0 48-48 48l-736 0q-48 0-48-48l0-736q0-48 48-48Z" fill="#FFFFFF" p-id="23631"></path><path d="M128 768h118.688c-14.912 30.784-32.192 64.896-54.688 96-8.352 11.52-29.696 11.52-64 0v-96z m0-96V160h320c85.344 64 128 117.344 128 160 0 27.616-82.592 30.496-128 144-26.688 66.752-42.368 185.888-136.224 208H128z m416 0h-74.624c19.52-20 44.384-41.344 74.624-64v64z m-4.288 96c-4.96 23.424-14.176 55.424-27.712 96-64-21.344-96-53.344-96-96h123.712zM832 672h-96v-224l96-96v320z m0 96h-96v96h96v-96z m-96 0h96v96h-96v-96z" fill="#ACB4C0" p-id="23632"></path><path d="M96 772.544V896h544v32H96a32 32 0 0 1-32-32v-123.456h32zM96 672H64V128a32 32 0 0 1 32-32h768a32 32 0 0 1 32 32v544h-32V128H96v544z" fill="#5D6D7E" p-id="23633"></path><path d="M864 758.56L725.76 896H864v-137.44z m-160 113.984L841.28 736H704v136.544zM896 704v192h32v32h-32v32h-32v-32h-192v-192H64v-32h608V96h32v608h192z" fill="#27A2DF" p-id="23634"></path></svg>