<svg xmlns="http://www.w3.org/2000/svg" viewBox="0 0 1024 1024" version="1.1"><path d="M496 544a16 16 0 1 1 32 0v248.32a16 16 0 1 1-32 0V544zM128 928a16 16 0 1 1 0-32h736a16 16 0 1 1 0 32H128z" fill="#5D6D7E" p-id="30823"></path><path d="M656 208V160A48 48 0 0 0 608 112h-192A48 48 0 0 0 368 160v48h64.96l-36.928 160H320A48 48 0 0 0 272 416v112h480V416a48 48 0 0 0-48-48h-76.032l-36.928-160h64.96z" fill="#FFFFFF" p-id="30824"></path><path d="M611.136 224l29.536 128H704a64 64 0 0 1 64 64v128H256v-128a64 64 0 0 1 64-64h63.328l29.536-128H352V160a64 64 0 0 1 64-64h192a64 64 0 0 1 64 64v64h-60.864z m36.928 160l0.352 1.6h-272.832l0.352-1.6H320a32 32 0 0 0-32 32v96h448v-96a32 32 0 0 0-32-32h-55.936z m-40.224-32l-29.184-126.4h-133.312L416.16 352h191.68zM640 160a32 32 0 0 0-32-32h-192a32 32 0 0 0-32 32v32h256V160z" fill="#27A2DF" p-id="30825"></path><path d="M160 832a16 16 0 1 1 0-32h128a16 16 0 1 1 0 32H160z m544 0a16 16 0 1 1 0-32h128a16 16 0 1 1 0 32h-128z" fill="#8190A2" p-id="30826"></path><path d="M128 736a16 16 0 1 1 0-32h233.344a16 16 0 1 1 0 32H128z m512 0a16 16 0 1 1 0-32h233.344a16 16 0 1 1 0 32H640z" fill="#ACB4C0" p-id="30827"></path></svg>