<svg xmlns="http://www.w3.org/2000/svg" viewBox="0 0 1024 1024" version="1.1"><path d="M512 112L928 320v384l-416 208L96 704V320z" fill="#C49F74" p-id="21186"></path><path d="M512 112l416 192v320L512 832 96 624v-320z" fill="#D3BB9E" p-id="21187"></path><path d="M512 112l416 192v192L512 704 96 496v-192z" fill="#FFDE9C" p-id="21188"></path><path d="M512 112l416 192v64L512 576 96 368v-64z" fill="#30AD98" p-id="21189"></path><path d="M512 118.816L928 304 512 512 96 304z" fill="#32BAA2" p-id="21190"></path><path d="M512 96l416 208v416L512 928 96 720v-416L512 96z m0 35.776l-384 192v376.448l384 192 384-192V323.776l-384-192z" fill="#5D6D7E" p-id="21191"></path></svg>