<svg xmlns="http://www.w3.org/2000/svg" viewBox="0 0 1024 1024" version="1.1"><path d="M112 112m32 0l736 0q32 0 32 32l0 736q0 32-32 32l-736 0q-32 0-32-32l0-736q0-32 32-32Z" fill="#FFFFFF" p-id="44130"></path><path d="M128 96h768a32 32 0 0 1 32 32v768a32 32 0 0 1-32 32H128a32 32 0 0 1-32-32V128a32 32 0 0 1 32-32z m0 32v768h768V128H128z" fill="#5A6978" p-id="44131"></path><path d="M749.248 896h-90.496l-150.56-150.56L357.6 896H267.104l195.84-195.84L128 365.28V274.752l153.696 153.696L582.176 128h90.496L326.976 473.696z" fill="#BC9A72" p-id="44132"></path><path d="M896 304.48v254.08l-144.48 144.512L480 431.52 751.52 160z" fill="#FDE9D1" p-id="44133"></path><path d="M480 431.52v116.448l271.52 271.52v-116.416z" fill="#BC9A72" p-id="44134"></path><path d="M896 675.008l-144.48 144.48v-116.416L896 558.592z" fill="#E1BF97" p-id="44135"></path></svg>