<svg xmlns="http://www.w3.org/2000/svg" viewBox="0 0 1024 1024" version="1.1"><path d="M538.752 913.6a32 32 0 0 1-53.568-0.128l-349.44-171.52 13.856 65.728a16 16 0 0 1-31.328 6.592l-20.576-97.696a16.064 16.064 0 0 1-0.064-0.32l-2.88-13.696 13.408-4.576L196.512 667.84a16 16 0 0 1 10.336 30.304l-51.808 17.664 330.496 162.208a31.968 31.968 0 0 1 52.96 0.064l338.56-165.12-53.12-26.656a16 16 0 0 1 14.336-28.608l81.92 41.088a16.064 16.064 0 0 1 0.288 0.128l11.52 5.76-3.392 12.576-0.032 0.16-26.528 97.76a16 16 0 0 1-30.88-8.384l17.28-63.808-349.696 170.592zM496 135.552l-41.28 42.688a16 16 0 0 1-22.976-22.24l79.776-82.56 86.4 82.08a16 16 0 1 1-22.08 23.2L528.032 133.28V320a16 16 0 1 1-32 0V135.584z" fill="#5D6D7E" p-id="12656"></path><path d="M512 576m-160 0a160 160 0 1 0 320 0 160 160 0 1 0-320 0Z" fill="#FFFFFF" p-id="12657"></path><path d="M365.056 667.584a192 192 0 1 1 295.424-1.888h0.096l-148.416 209.92-147.104-208zM512.032 640a96 96 0 1 0 0-192 96 96 0 0 0 0 192z" fill="#30AD98" p-id="12658"></path></svg>