<svg xmlns="http://www.w3.org/2000/svg" viewBox="0 0 1024 1024" version="1.1"><path d="M896 96a32 32 0 0 1 32 32v768a32 32 0 0 1-32 32H128a32 32 0 0 1-32-32V128a32 32 0 0 1 32-32h768z m0 32H128v768h768V128z" fill="#63707E" p-id="52387"></path><path d="M752 752h160v160h-160v-160z m-352-320h-160v-160h160v160z m0 0h320v320h-160v-160h-160v-160z" fill="#C49F74" fill-opacity=".2" p-id="52388"></path><path d="M416 256v160h320v320h192v192h-192v-160h-192v-160h-160v-160H224V256h192z m480 512h-128v128h128v-128z m-192-160h-128v128h128v-128z m0-160h-128v128h128v-128z m-160 0h-128v128h128v-128z m-160-160H256v128h128V288z" fill="#C49F74" p-id="52389"></path></svg>