<svg xmlns="http://www.w3.org/2000/svg" viewBox="0 0 1024 1024" version="1.1"><path d="M279.072 453.184c19.456-11.008 40.48-27.552 63.072-49.632A2434.016 2434.016 0 0 0 480 256c-75.776 174.144-142.72 271.328-200.928 291.52V608L128 496.064l151.072-111.968v69.12z" fill="#30AD98" p-id="35159"></path><path d="M702.56 811.264c-20.608-48-84.128-114.368-190.56-199.04L577.664 576a548.384 548.384 0 0 1 109.376 91.936c26.208 28.704 52.512 63.68 78.944 105.024L832 733.024 814.816 928l-188.64-70.528 76.384-46.208z" fill="#27A2DF" p-id="35160"></path><path d="M624.256 464.96a15.968 15.968 0 0 1 2.976-12.48c56.512-75.104 109.92-102.08 158.464-73.6 40.64 23.808 91.616 64.256 153.184 121.376a16 16 0 0 1-21.76 23.488c-60.032-55.68-109.312-94.816-147.616-117.248-30.4-17.856-68.736 1.472-116.736 65.216a15.936 15.936 0 0 1-10.624 6.24c65.696 49.984 153.728 140.96 266.08 273.696a16 16 0 0 1-24.448 20.672c-168.672-199.264-282.688-302.848-334.656-308.064-38.656-3.872-68.928 34.784-110.72 128.288-3.36 7.456-15.04 33.984-14.624 32.992-5.76 13.12-10.144 22.72-14.4 31.712a493.76 493.76 0 0 1-13.312 26.208c-97.28 176.64-208.032 176.64-313.792 0.512a16 16 0 1 1 27.456-16.48c93.216 155.264 173.12 155.264 258.304 0.544 3.904-7.136 8-15.168 12.416-24.512 4.16-8.704 8.384-18.08 14.08-30.944l14.624-33.12c47.872-107.04 83.872-152.992 143.168-147.04 19.264 1.92 43.2 12.736 71.936 32.544zM83.136 240a16 16 0 1 1 25.728-19.04c69.504 93.952 124.416 106.56 175.36 45.248L304 242.24c8.192-9.856 14.56-17.472 20.864-24.928 122.432-144 216.608-185.664 324.544-83.04 133.12 126.56 186.88 160.864 246.56 160.864a16 16 0 1 1 0 32c-70.784 0-129.696-37.6-268.608-169.664-89.472-85.088-166.08-51.2-278.112 80.576-6.208 7.296-12.48 14.816-20.608 24.64-0.32 0.32-15.552 18.816-19.84 24-66.56 80.032-145.28 61.984-225.696-46.72z" fill="#5D6D7E" p-id="35161"></path></svg>