<svg xmlns="http://www.w3.org/2000/svg" viewBox="0 0 1024 1024" version="1.1"><path d="M96 96m48 0l736 0q48 0 48 48l0 736q0 48-48 48l-736 0q-48 0-48-48l0-736q0-48 48-48Z" fill="#FFFFFF" p-id="29468"></path><path d="M128 96h768a32 32 0 0 1 32 32v768a32 32 0 0 1-32 32H128a32 32 0 0 1-32-32V128a32 32 0 0 1 32-32z m0 32v768h768V128H128z" fill="#5D6D7E" p-id="29469"></path><path d="M160 201.376L201.376 160h45.248L160 246.624V201.376zM777.376 864L864 777.376v45.248L822.624 864h-45.248zM160 521.376L521.376 160h45.248L160 566.624v-45.248z m0-160L361.376 160h45.248L160 406.624V361.376z m0 333.248v-13.248L681.376 160h45.248L176 710.624l-16-16z m0 146.752L841.376 160H864v22.624L182.624 864H160v-22.624zM297.376 864L864 297.376v45.248L342.624 864H297.376z m160 0L864 457.376v45.248L502.624 864h-45.248z m160 0L864 617.376v45.248L662.624 864h-45.248z" fill="#27A2DF" p-id="29470"></path></svg>