<svg xmlns="http://www.w3.org/2000/svg" viewBox="0 0 1024 1024" version="1.1"><path d="M128 96m32 0l704 0q32 0 32 32l0 608q0 32-32 32l-704 0q-32 0-32-32l0-608q0-32 32-32Z" fill="#FFFFFF" p-id="16086"></path><path d="M896 638.048l-32-18.24V128H160v608h416.48L608 768H160a32 32 0 0 1-32-32V128a32 32 0 0 1 32-32h704a32 32 0 0 1 32 32v510.048zM860.608 768h-187.36l30.208-32h137.408l19.744 32zM288 896h640v32H288v-32z" fill="#5D6D7E" p-id="16087"></path><path d="M224 224h64v64H224V224z m0 160h64v64H224V384z m0 160h64v64H224v-64zM736 224h64v64h-64V224z m0 160h64v64h-64V384z" fill="#808FA1" p-id="16088"></path><path d="M621.76 429.024l-180.48 128.896a16 16 0 0 1-25.28-13.024V287.104a16 16 0 0 1 25.28-13.024l180.48 128.896a16 16 0 0 1 0 26.048zM582.624 640l68.704 68.672a16 16 0 0 1-22.656 22.656L521.376 624l107.296-107.328a16 16 0 0 1 22.656 22.656L582.624 608H752c97.216 0 176 71.648 176 160s-78.784 160-176 160h-192v-32h192c79.52 0 144-57.28 144-128s-64.48-128-144-128h-169.376z" fill="#27A2DF" p-id="16089"></path></svg>