<svg xmlns="http://www.w3.org/2000/svg" viewBox="0 0 1024 1024" version="1.1"><path d="M672 96l11.712 15.616c41.824 56.928 181.152 257.696 180.288 404.8C864 619.968 778.048 704 672 704s-192-84-192-187.616C479.52 342.432 672 96 672 96z" fill="#FFFFFF" p-id="42223"></path><path d="M672.256 69.696l24.352 32.448c103.168 140.384 184.096 293.76 183.36 414.24 0 98.304-71.072 180.224-165.6 199.36 2.272-11.2 3.84-22.56 4.768-33.984 74.336-20.064 128.864-86.56 128.864-165.44 0.64-111.104-78.208-260.512-177.056-395.104l1.024 1.472-5.632 7.776-11.2 15.84a1411.808 1411.808 0 0 0-77.664 124.32c-6.4-10.464-12.96-20.672-19.456-30.688l4.128-7.296a1443.456 1443.456 0 0 1 88.768-135.296l2.272-3.04 19.072-24.64z" fill="#5D6D7E" p-id="42224"></path><path d="M400 147.744l11.232 15.04c47.584 64.864 229.888 306.176 228.768 496.256C640 789.92 532.544 896 400 896 267.456 896 160 789.92 160 659.04c-0.64-219.776 240-511.296 240-511.296z" fill="#FFFFFF" p-id="42225"></path><path d="M436.384 142.976l-35.136-47.04-29.152 35.424-7.616 9.6a1646.08 1646.08 0 0 0-111.936 163.2c-43.072 71.904-77.152 142.368-98.816 209.152-16.896 52.064-25.856 100.8-25.728 145.792C128 807.68 249.856 928 400 928c150.112 0 272-120.32 272-268.96 0.256-44.224-8.48-92.192-25.056-143.36-21.568-66.624-55.744-136.768-99.52-209.376a1760.416 1760.416 0 0 0-64.64-99.072l-8.704-12.352-37.696-51.904z m-36.384 4.768l31.2 42.272C496.416 279.68 640.992 489.696 640 659.04 640 789.92 532.544 896 400 896 267.456 896 160 789.92 160 659.04c-0.64-219.776 240-511.296 240-511.296z" fill="#5D6D7E" p-id="42226"></path><path d="M503.072 512.864a16 16 0 0 1 21.664 6.528c68.32 127.2 46.88 232.192-63.84 308.736a16 16 0 0 1-18.208-26.336c96.928-66.976 114.688-153.984 53.856-267.264a16 16 0 0 1 6.528-21.664z" fill="#5D6D7E" p-id="42227"></path></svg>