<svg xmlns="http://www.w3.org/2000/svg" viewBox="0 0 1024 1024" version="1.1"><path d="M881.472 744.48l67.648 44.64h-179.328l-19.648 22.496L672 949.12l-4.8-79.68L512 960 140.48 736V335.712l371.52-224 384 224V736z" fill="#FFFFFF" p-id="27436"></path><path d="M448 549.344v37.024L191.52 736H160v19.616L128 736l320-186.656z" fill="#808FA1" p-id="27437"></path><path d="M864 339.328l-336 202.88V913.6l96-56v37.024L512 960 128 736V320l384-224 384 224v375.808l-32-22.688V339.328zM512 133.056L190.368 320.64l318.976 195.392 323.968-195.584L512 133.056zM160 339.616v378.016l336 196V545.44L160 339.616z" fill="#5D6D7E" p-id="27438"></path><path d="M650.56 592l298.56 197.12-180.704 11.968L672 949.12l-21.44-357.12z m47.584 258.368l52.192-80.16 101.856-6.72-165.856-109.536 11.808 196.416z" fill="#27A2DF" p-id="27439"></path></svg>