<svg xmlns="http://www.w3.org/2000/svg" viewBox="0 0 1024 1024" version="1.1"><path d="M256 256h192a32 32 0 0 1 32 32v384a32 32 0 0 1-32 32H256a32 32 0 0 1-32-32V288a32 32 0 0 1 32-32z m320-160h192a32 32 0 0 1 32 32v544a32 32 0 0 1-32 32h-192a32 32 0 0 1-32-32V128a32 32 0 0 1 32-32z m0 32v544h192V128h-192z" fill="#808FA1" p-id="46175"></path><path d="M560 112m32 0l160 0q32 0 32 32l0 512q0 32-32 32l-160 0q-32 0-32-32l0-512q0-32 32-32Z" fill="#FFFFFF" p-id="46176"></path><path d="M184.64 832h698.24l-50.944-45.344 21.28-23.904 101.856 90.656-101.856 91.04-21.312-23.872L895.2 864H168.672l65.12 57.984-21.28 23.904-101.856-90.688 17.344-15.488V832h8.64l75.84-67.808 21.344 23.872z" fill="#5D6D7E" p-id="46177"></path></svg>