<svg xmlns="http://www.w3.org/2000/svg" viewBox="0 0 1024 1024" version="1.1"><path d="M96 96m48 0l736 0q48 0 48 48l0 736q0 48-48 48l-736 0q-48 0-48-48l0-736q0-48 48-48Z" fill="#FFFFFF" p-id="28363"></path><path d="M128 128v768h768V128H128z m0-32h768a32 32 0 0 1 32 32v768a32 32 0 0 1-32 32H128a32 32 0 0 1-32-32V128a32 32 0 0 1 32-32z" fill="#5D6D7E" p-id="28364"></path><path d="M352 672h320v-160H352v160z m0 32v192H320v-192H128v-32h192v-160H128v-32h192V320H128V288h192V128h32v160h320V128h32v160h192v32h-192v160h192v32h-192v160h192v32h-192v192h-32v-192H352z m0-224h320V320H352v160z" fill="#ACB4C0" p-id="28365"></path><path d="M96 672h832v256H96v-256z m32 32v192h768v-192H128z" fill="#30AD98" p-id="28366"></path></svg>