<svg xmlns="http://www.w3.org/2000/svg" viewBox="0 0 1024 1024" version="1.1"><path d="M96 96m32 0l768 0q32 0 32 32l0 768q0 32-32 32l-768 0q-32 0-32-32l0-768q0-32 32-32Z" fill="#FFFFFF" p-id="19202"></path><path d="M656 352A48 48 0 0 1 704 400v32a48 48 0 0 1-48 48h-25.28a222.72 222.72 0 0 1-17.632 42.56l17.888 17.92a48 48 0 0 1 0 67.84l-22.656 22.656a48 48 0 0 1-67.84 0l-17.92-17.92a222.72 222.72 0 0 1-42.56 17.664v25.28a48 48 0 0 1-48 48h-32A48 48 0 0 1 352 656v-25.28a222.72 222.72 0 0 1-42.56-17.632l-17.92 17.888a48 48 0 0 1-67.84 0l-22.656-22.656a48 48 0 0 1 0-67.84l17.92-17.92A222.72 222.72 0 0 1 201.28 480H176A48 48 0 0 1 128 432v-32A48 48 0 0 1 176 352h25.28a222.72 222.72 0 0 1 17.632-42.56l-17.888-17.92a48 48 0 0 1 0-67.84l22.656-22.656a48 48 0 0 1 67.84 0l17.92 17.92A222.72 222.72 0 0 1 352 201.28V176A48 48 0 0 1 400 128h32A48 48 0 0 1 480 176v25.28a222.72 222.72 0 0 1 42.56 17.632l17.92-17.888a48 48 0 0 1 67.84 0l22.656 22.656a48 48 0 0 1 0 67.84l-17.92 17.92c7.36 13.504 13.248 27.776 17.664 42.56h25.28z m-53.12 19.68a190.784 190.784 0 0 0-23.424-56.448l-6.656-10.784 35.52-35.52a16 16 0 0 0 0-22.624l-22.624-22.624a16 16 0 0 0-22.624 0l-35.52 35.52-10.784-6.656a190.784 190.784 0 0 0-56.448-23.392L448 226.24V176a16 16 0 0 0-16-16h-32a16 16 0 0 0-16 16v50.24l-12.32 2.88a190.784 190.784 0 0 0-56.448 23.424l-10.784 6.656-35.52-35.52a16 16 0 0 0-22.624 0l-22.624 22.624a16 16 0 0 0 0 22.624l35.52 35.52-6.656 10.784a190.784 190.784 0 0 0-23.392 56.448L226.24 384H176a16 16 0 0 0-16 16v32a16 16 0 0 0 16 16h50.24l2.88 12.32c4.736 20 12.672 39.04 23.424 56.448l6.656 10.784-35.52 35.52a16 16 0 0 0 0 22.624l22.624 22.624a16 16 0 0 0 22.624 0l35.52-35.52 10.784 6.656a190.784 190.784 0 0 0 56.448 23.392L384 605.76v50.24a16 16 0 0 0 16 16h32a16 16 0 0 0 16-16v-50.24l12.32-2.88a190.784 190.784 0 0 0 56.448-23.424l10.784-6.656 35.52 35.52a16 16 0 0 0 22.624 0l22.624-22.624a16 16 0 0 0 0-22.624l-35.52-35.52 6.656-10.784a190.784 190.784 0 0 0 23.392-56.448L605.76 448h50.24a16 16 0 0 0 16-16v-32a16 16 0 0 0-16-16H605.76l-2.88-12.32zM416 544a128 128 0 1 1 0-256 128 128 0 0 1 0 256z m0-32a96 96 0 1 0 0-192 96 96 0 0 0 0 192z" fill="#27A2DF" p-id="19203"></path><path d="M541.376 928l16.64-16.64a143.168 143.168 0 0 1-5.824-14.08H480v-96h72.192c1.696-4.8 3.648-9.536 5.856-14.08l-51.072-51.072 67.872-67.904 51.072 51.072c4.576-2.208 9.28-4.16 14.08-5.824v-72.224h96v72.224c4.8 1.696 9.504 3.616 14.08 5.824l51.072-51.072 67.84 67.904-51.04 51.04c2.208 4.576 4.16 9.28 5.856 14.08H896v96h-72.192c-1.696 4.8-3.648 9.504-5.856 14.08l16.672 16.672h-45.248l-11.2-11.2 6.336-10.656c5.312-8.992 9.344-18.72 11.968-28.864l3.072-12.032H864v-32h-64.448l-3.072-12a111.232 111.232 0 0 0-11.968-28.864l-6.336-10.688 45.6-45.568-22.624-22.624-45.6 45.568-10.656-6.304a111.232 111.232 0 0 0-28.896-11.968L704 737.696v-64.448h-32v64.448l-12 3.104a111.232 111.232 0 0 0-28.896 11.968l-10.656 6.304-45.6-45.568-22.624 22.624 45.6 45.568-6.336 10.688a111.232 111.232 0 0 0-11.968 28.864l-3.072 12H512v32h64.448l3.072 12.032c2.624 10.144 6.656 19.84 11.968 28.864l6.336 10.688-11.2 11.168h-45.248z m132.416 0a80 80 0 1 1 28.416 0h-28.416z m14.208-30.72a48 48 0 1 0 0-96 48 48 0 0 0 0 96z" fill="#8799AC" p-id="19204"></path><path d="M128 96h768a32 32 0 0 1 32 32v768a32 32 0 0 1-32 32H128a32 32 0 0 1-32-32V128a32 32 0 0 1 32-32z m0 32v768h768V128H128z" fill="#5D6D7E" p-id="19205"></path></svg>