<svg xmlns="http://www.w3.org/2000/svg" viewBox="0 0 1024 1024" version="1.1"><path d="M512 735.744a224 224 0 1 0 0-448 224 224 0 0 0 0 448z" fill="#FFFFFF" p-id="40584"></path><path d="M512 97.312a16 16 0 0 1 15.744 13.12l0.256 2.88v797.44a16 16 0 0 1-31.744 2.88l-0.256-2.88V113.344a16 16 0 0 1 16-16z" fill="#5D6D7E" p-id="40585"></path><path d="M736.096 713.472l2.24 1.856 67.84 67.84a16 16 0 0 1-20.384 24.512l-2.24-1.856-67.872-67.872a16 16 0 0 1 20.416-24.48zM512 287.744a224 224 0 1 1 0 448 224 224 0 0 1 0-448z m0 32a192 192 0 1 0 0 384 192 192 0 0 0 0-384z m400 176a16 16 0 0 1 2.88 31.744l-2.88 0.256h-96a16 16 0 0 1-2.88-31.744l2.88-0.256h96z m-105.824-278.08a16 16 0 0 1 1.856 20.416l-1.856 2.24-67.84 67.84a16 16 0 0 1-24.512-20.384l1.856-2.24 67.872-67.84a16 16 0 0 1 22.624 0z" fill="#5D6D7E" p-id="40586"></path></svg>