<svg xmlns="http://www.w3.org/2000/svg" viewBox="0 0 1024 1024" version="1.1"><path d="M112 112m32 0l736 0q32 0 32 32l0 736q0 32-32 32l-736 0q-32 0-32-32l0-736q0-32 32-32Z" fill="#FFFFFF" p-id="48941"></path><path d="M128 96h768a32 32 0 0 1 32 32v768a32 32 0 0 1-32 32H128a32 32 0 0 1-32-32V128a32 32 0 0 1 32-32z m0 32v768h768V128H128z" fill="#5D6D7E" p-id="48942"></path><path d="M576 230.4V197.792c109.12 20.064 200.64 90.432 249.6 186.208h-36.416A320.416 320.416 0 0 0 576 230.4z m-96-4.8A320.064 320.064 0 0 0 234.816 384H198.368A352.16 352.16 0 0 1 480 193.44v32.128z" fill="#808FA1" p-id="48943"></path><path d="M480 160h96v96h-96V160zM160 352h96v96H160V352z m608 0h96v96h-96V352z" fill="#30AD98" p-id="48944"></path><path d="M512 690.016V403.328l-155.84 239.776L437.12 832h181.76l80.96-188.896L544 403.328v286.688a64 64 0 1 1-32 0zM531.424 384l-3.424-5.28-3.424 5.28h6.848zM402.272 832L320 640l208-320L736 640l-82.272 192H736v32H320v-32h82.272z m125.728-48a32 32 0 1 0 0-64 32 32 0 0 0 0 64z" fill="#C49F74" p-id="48945"></path></svg>