<svg xmlns="http://www.w3.org/2000/svg" viewBox="0 0 1024 1024" version="1.1"><path d="M128 112a16 16 0 0 0-16 16v352a16 16 0 0 0 16 16h352a16 16 0 0 0 16-16V128a16 16 0 0 0-16-16H128z m416 416a16 16 0 0 0-16 16v352a16 16 0 0 0 16 16h352a16 16 0 0 0 16-16V544a16 16 0 0 0-16-16H544z" fill="#FFFFFF" p-id="45875"></path><path d="M128 96h352a32 32 0 0 1 32 32v352a32 32 0 0 1-32 32H128a32 32 0 0 1-32-32V128a32 32 0 0 1 32-32z m0 32v352h352V128H128z m416 384h352a32 32 0 0 1 32 32v352a32 32 0 0 1-32 32H544a32 32 0 0 1-32-32V544a32 32 0 0 1 32-32z m0 32v352h352V544H544z" fill="#5D6D7E" p-id="45876"></path><path d="M256 256m32 0l448 0q32 0 32 32l0 448q0 32-32 32l-448 0q-32 0-32-32l0-448q0-32 32-32Z" fill="#27A2DF" p-id="45877"></path></svg>