<svg xmlns="http://www.w3.org/2000/svg" viewBox="0 0 1024 1024" version="1.1"><path d="M820 653.664h64.96a32 32 0 0 1 32 32v199.84a32 32 0 0 1-32 32H140.416a32 32 0 0 1-32-32v-199.84a32 32 0 0 1 32-32h62.464V128h617.152v525.664z" fill="#FFFFFF" p-id="42659"></path><path d="M296 640L416 736h192l120-96H896a32 32 0 0 1 32 32v224a32 32 0 0 1-32 32H128a32 32 0 0 1-32-32v-224a32 32 0 0 1 32-32h168z m-11.2 32H128v224h768v-224h-156.8l-120 96h-214.4L284.8 672z" fill="#5D6D7E" p-id="42660"></path><path d="M800 640V128H224v512H192V128a32 32 0 0 1 32-32h576a32 32 0 0 1 32 32v512h-32z" fill="#808FA1" p-id="42661"></path><path d="M498.624 576.352V216.608a16 16 0 1 1 32 0v358.528l68.256-73.568a16 16 0 0 1 23.456 21.76l-107.872 116.256-110.08-116.128a16 16 0 1 1 23.232-22.016l71.008 74.912z" fill="#27A2DF" p-id="42662"></path></svg>