<svg xmlns="http://www.w3.org/2000/svg" viewBox="0 0 1024 1024" version="1.1"><path d="M256 256V96h512v160h160v576h-160v96H256v-96H96V256z" fill="#FFFFFF" p-id="22515"></path><path d="M256 256v32H128v512h128v32H96V256h160z m512 0h160v576h-160v-32h128V288h-128V256z" fill="#808FA1" p-id="22516"></path><path d="M256 96h512v832H256V96z m32 32v768h448V128H288z" fill="#5D6D7E" p-id="22517"></path><path d="M528 660.928l114.464-132.768a16 16 0 1 1 24.224 20.896l-154.24 178.944-160.704-173.12a16 16 0 1 1 23.456-21.76l120.8 130.112V272.192a16 16 0 1 1 32 0v388.736z" fill="#27A2DF" p-id="22518"></path></svg>