<svg xmlns="http://www.w3.org/2000/svg" viewBox="0 0 1024 1024" version="1.1"><path d="M96 96h573.024L864 293.088V928H96z" fill="#FFFFFF" p-id="14758"></path><path d="M864 736h-32V320h-192V128H128v768h576v32H96V96h575.2L672 95.168 864.32 288 864 288.32V736z m0 160v32h-32v-32h32zM672 140.48V288h147.072L672 140.48z" fill="#5D6D7E" p-id="14759"></path><path d="M214.528 381.792a96 96 0 1 1 147.712-0.96h0.064l-74.24 104.96-73.536-104zM288 368a48 48 0 1 0 0-96 48 48 0 0 0 0 96z" fill="#30AD98" p-id="14760"></path><path d="M192 544v-32h228.288v32H192z m0 160v-32h477.12v32H192z m0 64v-32h288v32H192z" fill="#808FA1" p-id="14761"></path><path d="M192 608h477.12v-32H192z" fill="#C49F74" p-id="14762"></path><path d="M768 853.44V501.952a16 16 0 0 1 32 0v351.424l83.968-95.936a16 16 0 1 1 24.064 21.056L784 920.32l-124.032-141.76a16 16 0 1 1 24.064-21.056L768 853.408z" fill="#27A2DF" p-id="14763"></path></svg>