<svg xmlns="http://www.w3.org/2000/svg" viewBox="0 0 1024 1024" version="1.1"><path d="M96 96m48 0l736 0q48 0 48 48l0 736q0 48-48 48l-736 0q-48 0-48-48l0-736q0-48 48-48Z" fill="#FFFFFF" p-id="24019"></path><path d="M256 256h96v504H256z" fill="#27A2DF" p-id="24020"></path><path d="M384 512h96v240H384z" fill="#ACB4C0" p-id="24021"></path><path d="M512 352h96v408h-96z" fill="#30AD98" p-id="24022"></path><path d="M640 416h96v336h-96V416zM224 800h576v32H224v-32z" fill="#808FA1" p-id="24023"></path><path d="M732.48 96l-30.912 32H128v768h768V279.68l32 32.32V896a32 32 0 0 1-32 32H128a32 32 0 0 1-32-32V128a32 32 0 0 1 32-32h604.48z m133.312 0H896a32 32 0 0 1 32 32v35.392l-32-34.656V128h-0.64l-29.568-32z" fill="#5D6D7E" p-id="24024"></path><path d="M784.064 145.856l-98.56 106.88a16 16 0 1 1-23.552-21.664L800 81.408l139.776 149.6a16 16 0 0 1-23.392 21.824l-100.32-107.36v378.496a16 16 0 0 1-32 0V145.856z" fill="#27A2DF" p-id="24025"></path></svg>