<svg xmlns="http://www.w3.org/2000/svg" viewBox="0 0 1024 1024" version="1.1"><path d="M64 96m32 0l768 0q32 0 32 32l0 768q0 32-32 32l-768 0q-32 0-32-32l0-768q0-32 32-32Z" fill="#FFFFFF" p-id="16822"></path><path d="M128 864V160h320c85.344 64 128 117.344 128 160 0 27.616-82.592 30.496-128 144-26.688 66.752-42.368 185.888-136.224 208-37.76 8.896-61.024 110.816-119.776 192-8.352 11.52-29.696 11.52-64 0zM532.8 171.424a16 16 0 1 1 22.4-22.848 539.2 539.2 0 0 1 44.512 48.672 16 16 0 0 1-25.024 19.936 507.84 507.84 0 0 0-41.888-45.76z m73.28 96.736a16 16 0 1 1 29.76-11.808c1.248 3.104 2.336 6.176 3.296 9.248 5.504 17.504 7.488 39.264 5.888 61.44a16 16 0 0 1-31.904-2.272c1.28-18.4-0.32-36.224-4.48-49.536a105.888 105.888 0 0 0-2.56-7.04z m-8.8 112a16 16 0 0 1 26.208 18.368c-9.6 13.696-22.272 22.08-38.08 22.88-6.08 0-13.568 3.36-22.688 10.656a16 16 0 0 1-19.968-25.024c14.272-11.36 28.128-17.6 41.824-17.6 4.096-0.224 8.32-3.008 12.704-9.28z m-100.416 80.192a16 16 0 1 1 26.944 17.248c-11.744 18.336-20.768 37.568-25.056 53.536a16 16 0 0 1-30.912-8.32c5.216-19.392 15.616-41.536 29.024-62.464z m-44.256 122.528a16 16 0 0 1 28.48 14.592c-8.896 17.312-21.472 36.672-36.288 56.096a16 16 0 1 1-25.472-19.36c13.76-18.048 25.344-35.84 33.28-51.328zM378.464 681.28a16 16 0 1 1 22.624 22.624c-16.256 16.256-30.56 27.712-42.112 32.832a25.92 25.92 0 0 0-8.544 6.784 16 16 0 0 1-23.488-21.696c6.4-6.912 12.608-11.712 19.456-14.496 6.592-2.944 18.4-12.384 32.064-26.048z m-88.832 98.656a16 16 0 0 1 28.416 14.688 885.056 885.056 0 0 0-26.592 56.928 16 16 0 0 1-29.44-12.608 915.84 915.84 0 0 1 27.616-59.008z" fill="#30AD98" p-id="16823"></path><path d="M552.16 896c8 11.52 17.088 22.208 27.072 32H96a32 32 0 0 1-32-32V128a32 32 0 0 1 32-32h768a32 32 0 0 1 32 32v483.232a225.184 225.184 0 0 0-32-27.072V128H96v768h456.16z" fill="#5D6D7E" p-id="16824"></path><path d="M640 640h-32v-32h96v96h-32v-46.88a128 128 0 1 0 160 26.208V640a160 160 0 1 1-192 0z" fill="#27A2DF" p-id="16825"></path></svg>