<svg xmlns="http://www.w3.org/2000/svg" viewBox="0 0 1024 1024" version="1.1"><path d="M527.68 299.296c10.656-0.064 26.752 2.496 48.32 7.68V224h352v352H576v-192.256c-21.568-20.672-37.664-37.44-48.32-50.272v487.52l-140.512 86.24L112 820.992V208l147.392-93.6L527.648 208v91.296z" fill="#FFFFFF" p-id="20294"></path><path d="M512 330.656L480 288h32V232.352l-112 64.864v583.872l112-67.2v-483.2zM544 288h32V224h352v352H576v-160l-32-42.656V832l-160 96-288-96V192l160-96 288 96v96z m-53.568-80.128L259.84 131.008 147.648 198.336l234.4 72.32 108.384-62.784zM128 225.728V808.96l240 80V299.84L128 225.728zM608 256v64h-64l64 85.344V544h288V256h-288z m32 128h224v32h-224v-32z m0-64h224v32h-224v-32z m0 128h160v32h-160v-32z" fill="#5D6D7E" p-id="20295"></path><path d="M640 320h224v32h-224v-32z m0 64h224v32h-224v-32z m0 64h160v32h-160v-32z" fill="#B7BFC8" p-id="20296"></path><path d="M480 288h96V225.728h352V576H576v-160l-96-128z m128 117.344V544h288V257.728h-288V320h-64l64 85.344zM640 320h160v32h-160v-32z" fill="#27A2DF" p-id="20297"></path></svg>