<svg xmlns="http://www.w3.org/2000/svg" viewBox="0 0 1024 1024" version="1.1"><path d="M512 512m-400 0a400 400 0 1 0 800 0 400 400 0 1 0-800 0Z" fill="#FFFFFF" p-id="28905"></path><path d="M512 928c229.76 0 416-186.24 416-416S741.76 96 512 96 96 282.24 96 512s186.24 416 416 416z m0-32C299.936 896 128 724.064 128 512S299.936 128 512 128s384 171.936 384 384-171.936 384-384 384z" fill="#5D6D7E" p-id="28906"></path><path d="M496 224h32a16 16 0 0 1 16 16v32a16 16 0 0 1-16 16h-32a16 16 0 0 1-16-16v-32a16 16 0 0 1 16-16z m0 128h32a16 16 0 0 1 16 16v416a16 16 0 0 1-16 16h-32a16 16 0 0 1-16-16v-416a16 16 0 0 1 16-16z" fill="#30AD98" p-id="28907"></path></svg>