<svg xmlns="http://www.w3.org/2000/svg" viewBox="0 0 1024 1024" version="1.1"><path d="M112 176m32 0l736 0q32 0 32 32l0 672q0 32-32 32l-736 0q-32 0-32-32l0-672q0-32 32-32Z" fill="#FFFFFF" p-id="14660"></path><path d="M224 160V96h32v64h512V96h32v64h96a32 32 0 0 1 32 32v704a32 32 0 0 1-32 32H128a32 32 0 0 1-32-32V192a32 32 0 0 1 32-32h96z m0 32H128v704h768V192h-96v32h-32V192H256v32H224V192zM128 288h768v32H128V288z" fill="#5D6D7E" p-id="14661"></path><path d="M384 448h416v32H384v-32z m0 160h416v32H384v-32z m0 160h416v32H384v-32z" fill="#808FA1" p-id="14662"></path><path d="M224 704h96v96H224v-96z m32 32v32h32v-32H256z m-32-192h96v96H224v-96z m32 32v32h32v-32H256zM224 384h96v96H224V384z m32 32v32h32v-32H256z" fill="#C49F74" p-id="14663"></path></svg>