<svg xmlns="http://www.w3.org/2000/svg" viewBox="0 0 1024 1024" version="1.1"><path d="M112 112m32 0l736 0q32 0 32 32l0 736q0 32-32 32l-736 0q-32 0-32-32l0-736q0-32 32-32Z" fill="#FFFFFF" p-id="50324"></path><path d="M128 96h768a32 32 0 0 1 32 32v768a32 32 0 0 1-32 32H128a32 32 0 0 1-32-32V128a32 32 0 0 1 32-32z m0 32v768h768V128H128z" fill="#5D6D7E" p-id="50325"></path><path d="M128 544h64v32H128v-32z m0 128h128v32H128v-32z m704-32h64v32h-64v-32z m-64 128h128v32h-128v-32z" fill="#ACB4C0" p-id="50326"></path><path d="M464 912V864A80 80 0 0 0 384 784h-16v-248 248H352A80 80 0 0 0 272 864v48h192z m-96-376v-8h64v-256h-128v256h64v8z m224-282.688a160.128 160.128 0 0 0 20.352 300.672l11.648 3.296V912h64V557.28l11.648-3.296a160.064 160.064 0 0 0 20.352-300.672V336a64 64 0 1 1-128 0V253.312z" fill="#F0F0F0" fill-opacity=".5" p-id="50327"></path><path d="M480 928H256v-64a96 96 0 0 1 96-96v-224H288V256h160v288H384v224a96 96 0 0 1 96 96v64z m-32-32v-32a64 64 0 0 0-64-64H352a64 64 0 0 0-64 64v32h160zM320 288v224h96V288H320z" fill="#C49F74" p-id="50328"></path><path d="M608 230.624V336a48 48 0 0 0 96 0V230.624a176.064 176.064 0 0 1 0 338.752V928h-96V569.376a176.064 176.064 0 0 1 0-338.752zM512 400a144.064 144.064 0 0 0 104.704 138.56l23.296 6.624V896h32V545.184l23.296-6.592A144.064 144.064 0 0 0 736 280.224V336a80 80 0 1 1-160 0V280.224A144.096 144.096 0 0 0 512 400z" fill="#27A2DF" p-id="50329"></path></svg>