<svg xmlns="http://www.w3.org/2000/svg" viewBox="0 0 1024 1024" version="1.1"><path d="M128 96h768a32 32 0 0 1 32 32v96a32 32 0 0 1-32 32H128a32 32 0 0 1-32-32V128a32 32 0 0 1 32-32z m0 320h640a32 32 0 0 1 32 32v96a32 32 0 0 1-32 32H128a32 32 0 0 1-32-32v-96a32 32 0 0 1 32-32z m0 352h480a32 32 0 0 1 32 32v96a32 32 0 0 1-32 32H128a32 32 0 0 1-32-32v-96a32 32 0 0 1 32-32z" fill="#FFFFFF" p-id="16135"></path><path d="M128 96h768a32 32 0 0 1 32 32v96a32 32 0 0 1-32 32H128a32 32 0 0 1-32-32V128a32 32 0 0 1 32-32z m0 32v96h768V128H128z m0 288h640a32 32 0 0 1 32 32v96a32 32 0 0 1-32 32H128a32 32 0 0 1-32-32v-96a32 32 0 0 1 32-32z m0 32v96h640v-96H128z m0 320h480a32 32 0 0 1 32 32v96a32 32 0 0 1-32 32H128a32 32 0 0 1-32-32v-96a32 32 0 0 1 32-32z m0 32v96h480v-96H128z" fill="#5D6D7E" p-id="16136"></path><path d="M192 160h640v32H192V160zM160 480h576v32H160v-32z m0 352h416v32H160v-32z" fill="#C49F74" p-id="16137"></path></svg>