<svg xmlns="http://www.w3.org/2000/svg" viewBox="0 0 1024 1024" version="1.1"><path d="M128 96h768a32 32 0 0 1 32 32v729.184l-28.544 34.624a32 32 0 0 1-8.096 7.008L843.296 928H128a32 32 0 0 1-32-32V128a32 32 0 0 1 32-32z" fill="#FFFFFF" p-id="31164"></path><path d="M640 896v32H128a32 32 0 0 1-32-32V128a32 32 0 0 1 32-32h768a32 32 0 0 1 32 32v512h-32V128H128v768h512z" fill="#5D6D7E" p-id="31165"></path><path d="M501.12 800c2.368 10.944 5.536 21.632 9.44 32H224a32 32 0 0 1-32-32V256a32 32 0 0 1 32-32h576a32 32 0 0 1 32 32v267.936a268 268 0 0 0-32-7.712V416H416v384h85.12zM384 800V416H224v-32h576V256H224v544h160z" fill="#808FA1" p-id="31166"></path><path d="M752 960a208 208 0 1 1 0-416 208 208 0 0 1 0 416z m0-32a176 176 0 1 0 0-352 176 176 0 0 0 0 352z m0.256-307.712c7.456 0 14.208 2.688 20.288 8.064 6.08 5.408 9.12 12.384 9.12 20.992 0 8.128-2.88 15.008-8.704 20.608a28.704 28.704 0 0 1-20.704 8.416 28.096 28.096 0 0 1-20.896-8.672 28.352 28.352 0 0 1-8.48-20.544c0-8 2.88-14.848 8.768-20.448a28.8 28.8 0 0 1 20.608-8.416z m-27.52 79.904h54.496V864H724.8v-163.808z" fill="#30AD98" p-id="31167"></path></svg>