<svg xmlns="http://www.w3.org/2000/svg" viewBox="0 0 1024 1024" version="1.1"><path d="M112 112m32 0l736 0q32 0 32 32l0 736q0 32-32 32l-736 0q-32 0-32-32l0-736q0-32 32-32Z" fill="#FFFFFF" p-id="18798"></path><path d="M108.96 639.52c182.08 69.728 291.168 161.376 328.8 274.24l30.336-10.112c-41.12-123.424-157.536-221.184-347.712-294.016l-11.424 29.888z" fill="#C49F74" p-id="18799"></path><path d="M800 520.48V416h32v131.648a373.312 373.312 0 0 0 82.656 45.504l-11.968 29.696A408 408 0 0 1 816.608 576H672v-32h106.304c-44.064-42.752-74.624-96.384-91.488-160.704-27.264-104.032-98.56-189.76-214.88-257.472l16.128-27.648C611.328 169.92 688.224 262.4 717.76 375.2c15.264 58.24 42.592 106.56 82.24 145.28z" fill="#30AD98" p-id="18800"></path><path d="M516.48 480H608a32 32 0 0 1 32 32v96c0 7.04-2.24 13.536-6.08 18.816 115.904 106.88 209.28 170.144 279.104 189.76l-8.672 30.816c-78.08-21.952-178.816-91.104-303.264-207.392H512a32 32 0 0 1-32-32v-96c0-7.136 2.336-13.76 6.304-19.072C438.784 430.144 311.488 330.304 105.92 195.648l17.504-26.752C337.984 309.408 468.48 412.32 516.48 480zM512 512v96h96v-96h-96z" fill="#27A2DF" p-id="18801"></path><path d="M224 768h64v64H224v-64z m0-352h64v64H224v-64z m64 160h64v64H288v-64z m128 32h64v64h-64v-64z m128 128h64v64h-64v-64z m128 96h64v64h-64v-64zM512 256h64v64h-64V256z m256 32h64v64h-64V288z" fill="#808FA1" p-id="18802"></path><path d="M128 96h768a32 32 0 0 1 32 32v768a32 32 0 0 1-32 32H128a32 32 0 0 1-32-32V128a32 32 0 0 1 32-32z m0 32v768h768V128H128z" fill="#5D6D7E" p-id="18803"></path></svg>