<svg xmlns="http://www.w3.org/2000/svg" viewBox="0 0 1024 1024" version="1.1"><path d="M896 707.68l14.208-3.296c9.824-2.272 17.792 5.792 17.792 18.048v155.136c0 12.256-7.968 20.32-17.792 18.048l-110.208-25.6V896a32 32 0 0 1-32 32H448a32 32 0 0 1-32-32v-64H128a32 32 0 0 1-32-32V256a32 32 0 0 1 32-32h736a32 32 0 0 1 32 32v451.68z" fill="#FFFFFF" p-id="14858"></path><path d="M896 707.68l14.208-3.296c9.824-2.272 17.792 5.792 17.792 18.048v155.136c0 12.256-7.968 20.32-17.792 18.048l-110.208-25.6V896a32 32 0 0 1-32 32H448a32 32 0 0 1-32-32v-64H128a32 32 0 0 1-32-32V256a32 32 0 0 1 32-32h736a32 32 0 0 1 32 32v451.68z m-32 7.424V256H128v544h288v-96a32 32 0 0 1 32-32h320a32 32 0 0 1 32 32v25.984l64-14.88z m-64 47.712v74.368l96 22.272v-118.912l-96 22.272zM768 704H448v192h320v-192z" fill="#5D6D7E" p-id="14859"></path><path d="M160 160h672v32H160z" fill="#808FA1" p-id="14860"></path><path d="M224 96h544v32H224z" fill="#ACB4C0" p-id="14861"></path><path d="M512 624a112 112 0 1 1 0-224 112 112 0 0 1 0 224z m0-32a80 80 0 1 0 0-160 80 80 0 0 0 0 160z m208 32a64 64 0 1 1 0-128 64 64 0 0 1 0 128z m0-32a32 32 0 1 0 0-64 32 32 0 0 0 0 64z" fill="#27A2DF" p-id="14862"></path></svg>