<svg xmlns="http://www.w3.org/2000/svg" viewBox="0 0 1024 1024" version="1.1"><path d="M112 112m32 0l736 0q32 0 32 32l0 736q0 32-32 32l-736 0q-32 0-32-32l0-736q0-32 32-32Z" fill="#FFFFFF" p-id="38586"></path><path d="M896 96a32 32 0 0 1 32 32v768a32 32 0 0 1-32 32H128a32 32 0 0 1-32-32V128a32 32 0 0 1 32-32h768z m0 32H128v768h768V128z" fill="#5D6D7E" p-id="38587"></path><path d="M608 768v32H240a16 16 0 0 1-2.88-31.744L240 768H608z m208 0a16 16 0 0 1 2.88 31.744L816 800H768v-32h48z" fill="#A7B3C2" p-id="38588"></path><path d="M736 704v160h-96v-160h96z m-32 32h-32v96h32v-96z" fill="#5D6D7E" p-id="38589"></path><path d="M512 192a256 256 0 1 1-227.744 373.024c-0.224-1.6-0.512-3.264-0.512-4.96a16 16 0 0 1 30.56-6.72v0.064a224 224 0 1 0-26.24-110.592l58.368-53.664a16 16 0 0 1 23.648 21.408l-1.952 2.144-96.992 89.28L184.96 412.032a16 16 0 0 1 20.928-24.032l2.176 1.92 48.064 50.144A256 256 0 0 1 512 192z" fill="#30AD98" p-id="38590"></path></svg>