<svg xmlns="http://www.w3.org/2000/svg" viewBox="0 0 1024 1024" version="1.1"><path d="M176 160h672A48 48 0 0 1 896 208V832a96 96 0 0 1-96 96H176A48 48 0 0 1 128 880v-672A48 48 0 0 1 176 160z" fill="#FFFFFF" p-id="21733"></path><path d="M627.392 896v32H160a32 32 0 0 1-32-32V192a32 32 0 0 1 32-32h704a32 32 0 0 1 32 32v532.288l-32-19.36V192H160v704h467.392z" fill="#5D6D7E" p-id="21734"></path><path d="M394.144 96h235.712L704 224.128H320L394.144 96zM512 416h256v32h-256v-32z m-186.464-1.888l98.784-114.976 48.544 41.728-141.984 165.248-96.576-89.056 43.392-47.04 47.84 44.096z" fill="#808FA1" p-id="21735"></path><path d="M416 576h96v32h-96v-32z m0 160h96v32h-96v-32z m-128-192h64v64H288v-64z m0 160h64v64H288v-64z" fill="#B7BFC8" p-id="21736"></path><path d="M647.808 672H800a128 128 0 1 1 0 256h-192v-32h192a96 96 0 0 0 0-192h-155.2l54.336 52.48a16 16 0 1 1-22.272 23.04l-91.968-88.96 91.648-93.76a16 16 0 1 1 22.912 22.4L647.808 672z" fill="#27A2DF" p-id="21737"></path></svg>