<svg xmlns="http://www.w3.org/2000/svg" viewBox="0 0 1024 1024" version="1.1"><path d="M454.464 224H928v576a32 32 0 0 1-32 32H128a32 32 0 0 1-32-32V192a64 64 0 0 1 64-64h198.592l95.872 96z" fill="#FFFFFF" p-id="13337"></path><path d="M378.4 147.84c0.384 0.32 0.736 0.64 1.088 1.024l2.08 2.144L454.464 224H928v576a32 32 0 0 1-32 32H128a32 32 0 0 1-32-32V192a64 64 0 0 1 64-64h198.592l19.808 19.84zM896 320V256H483.168l61.92 64H896z m0 32H531.52l-172.768-178.56-13.44-13.44H160a32 32 0 0 0-32 32v608h768V352z" fill="#5D6D7E" p-id="13338"></path></svg>