<svg xmlns="http://www.w3.org/2000/svg" viewBox="0 0 1024 1024" version="1.1"><path d="M848 112h-512v512h-64V608a16 16 0 0 0-16-16H128a16 16 0 0 0-16 16v288a16 16 0 0 0 16 16h128a16 16 0 0 0 16-16v-16H896a16 16 0 0 0 16-16v-224a16 16 0 0 0-16-16h-48v-512z" fill="#FFFFFF" p-id="31066"></path><path d="M864 608h32a32 32 0 0 1 32 32v224a32 32 0 0 1-32 32H288a32 32 0 0 1-32 32H128a32 32 0 0 1-32-32v-288a32 32 0 0 1 32-32h128a32 32 0 0 1 32 32h32V96h544v512z m32 32H288v224h608v-224z m-64-32V128H352v480h480zM256 608H128v288h128v-288z" fill="#5D6D7E" p-id="31067"></path><path d="M736 672h96v96h-96z" fill="#30AD98" p-id="31068"></path><path d="M657.248 470.912a144 144 0 1 1 24.32-20.928l81.824 82.752a16 16 0 0 1-22.784 22.528l-83.36-84.352zM576 464a112 112 0 1 0 0-224 112 112 0 0 0 0 224z" fill="#27A2DF" p-id="31069"></path></svg>