<svg xmlns="http://www.w3.org/2000/svg" viewBox="0 0 1024 1024" version="1.1"><path d="M96 800V224a128 128 0 0 1 128-128v64h576V96a128 128 0 0 1 128 128v624a80 80 0 0 1-80 80h-672A80 80 0 0 1 96 848V800z" fill="#FFFFFF" p-id="14514"></path><path d="M189.536 245.76l32-0.16c0.896 161.248 87.328 249.696 264.224 269.152 110.528 12.16 192.096 53.632 252.256 116.608 26.016 27.2 43.296 52.288 64.256 88.512 10.24 17.664 11.456 19.712 13.984 22.944-1.152-1.44-8.864-4.288-14.848 2.688l24.256 20.864c-11.424 13.28-25.152 8.256-34.624-3.84-3.936-5.024-4.832-6.528-16.448-26.624-19.808-34.24-35.84-57.44-59.712-82.432-55.04-57.632-129.696-95.552-232.64-106.88-192.512-21.216-291.712-122.752-292.704-300.8zM336 650.144a48 48 0 1 1 0-96 48 48 0 0 1 0 96z" fill="#D5D9DF" p-id="14515"></path><path d="M800 160V96a128 128 0 0 1 128 128v636.48a176 176 0 0 0-0.864-0.576A80 80 0 0 1 848 928h-672a80 80 0 0 1-79.136-68.096L96 860.448V224a128 128 0 0 1 128-128v64h576z m32-26.56V800a208 208 0 0 1 64 10.048V224a96.032 96.032 0 0 0-64-90.56zM800 192H224v642.88a177.024 177.024 0 0 0-96 9.12v4A48 48 0 0 0 176 896h672a48 48 0 0 0 48-48v-4a175.552 175.552 0 0 0-96-9.088V192zM192 133.44A96.032 96.032 0 0 0 128 224v586.048A208 208 0 0 1 192 800V133.44z" fill="#5D6D7E" p-id="14516"></path><path d="M480 480v96h-32v-256h256v160h-224z m0-32h192v-96h-192v96z" fill="#EF633F" p-id="14517"></path></svg>