<svg xmlns="http://www.w3.org/2000/svg" viewBox="0 0 1024 1024" version="1.1"><path d="M224 192h543.84L800 160V96a128 128 0 0 1 128 128v636.48a176 176 0 0 0-0.864-0.576A80 80 0 0 1 848 928h-672a80 80 0 0 1-79.136-68.096L96 860.448V224c0-35.36 28.64-90.56 64-90.56 16.032-9.248 26.72-13.856 32-13.856 8.96 0 19.616 13.44 32 40.416v32zM128 844v-15.072l-31.136 30.976c9.76-6.304 20.16-11.616 31.136-15.904z" fill="#FFFFFF" p-id="12753"></path><path d="M313.856 448h43.264c-7.04 7.296-13.92 14.912-20.672 22.784 5.952 3.456 12.128 6.688 18.56 9.76l-11.904 29.664c-101.056-47.36-152.864-136-153.6-264.416l32-0.192c0.512 85.984 25.312 151.264 75.2 196.448L288 448h15.552c6.144 5.12 12.608 9.92 19.456 14.464l-12.48-10.56 3.328-3.904z m56.48-56.448l82.176-56.352a456.192 456.192 0 0 0-82.176 56.32z m105.44-67.872c102.624-47.04 222.88-53.44 360.096-19.2l-7.744 31.04c-132.032-32.96-246.112-26.56-342.976 19.104l-9.376-30.944z m-36 184.064c14.592 2.912 29.92 5.248 45.984 7.04 110.528 12.16 192.096 53.6 252.256 116.576 26.016 27.2 43.296 52.288 64.256 88.512 10.24 17.664 11.456 19.712 13.984 22.944-1.152-1.44-8.864-4.288-14.848 2.688l24.256 20.864c-11.424 13.28-25.152 8.256-34.624-3.84-3.936-5.024-4.832-6.528-16.448-26.624-19.808-34.24-35.84-57.44-59.712-82.432-55.04-57.632-129.696-95.552-232.64-106.88-20.48-2.272-39.968-5.44-58.368-9.536l15.904-29.312z" fill="#D5D9DF" p-id="12754"></path><path d="M192 598.304v-32.288c7.776-0.8 16-0.832 24.672-0.096 42.24 3.552 85.12-27.68 128.128-96.352H212.416l268.48-197.504 90.656 280.288-109.568-59.616c-34.304 108.48-80.832 164.704-141.984 164.704-44.96 0-78.88 50.976-98.72 158.944L192 811.008v-11.904c22.88-113.984 64.64-173.664 128-173.664 45.76 0 85.728-51.936 116.96-160.576l5.536-19.136 73.92 40.224-52.32-161.824-154.176 113.44h90.176l-13.312 23.808c-53.12 95.04-110.4 141.696-172.8 136.416a94.08 94.08 0 0 0-21.984 0.512z" fill="#EF633F" p-id="12755"></path><path d="M562.016 800H288v-32h274.016a64 64 0 0 1 123.968 0H736v32h-50.016a64 64 0 0 1-123.968 0z m61.984 16a32 32 0 1 0 0-64 32 32 0 0 0 0 64zM800 160V96a128 128 0 0 1 128 128v636.48a176 176 0 0 0-0.864-0.576A80 80 0 0 1 848 928h-672a80 80 0 0 1-79.136-68.096L96 860.448V224a128 128 0 0 1 128-128v64h576z m32-26.56V800a208 208 0 0 1 64 10.048V224a96.032 96.032 0 0 0-64-90.56zM800 192H224v642.88a177.024 177.024 0 0 0-96 9.12v4A48 48 0 0 0 176 896h672a48 48 0 0 0 48-48v-4a175.552 175.552 0 0 0-96-9.088V192zM192 133.44A96.032 96.032 0 0 0 128 224v586.048A208 208 0 0 1 192 800V133.44z" fill="#5D6D7E" p-id="12756"></path></svg>