<svg xmlns="http://www.w3.org/2000/svg" viewBox="0 0 1024 1024" version="1.1"><path d="M128 608h96l32.256 32H384l51.872 51.392 152.48 5.6 17.952 23.008-23.616 32-18.784 27.2 18.784 14.24h203.744l32.224 29.12-26.816 39.84-336.896 47.328-198.72-94.08-18.688 6.88L224 832H128v-224z m528 19.712c-150.208 0-258.304-109.504-258.304-259.712 0-150.208 108.096-258.24 258.304-258.24 150.208 0 257.28 108.768 257.28 258.976 0 150.24-107.072 258.976-257.28 258.976z" fill="#FFFFFF" p-id="44574"></path><path d="M598.176 600.96c-16.96-24.864-30.976-60.32-40.512-102.656a271.68 271.68 0 0 0-70.4 40.352 239.648 239.648 0 0 0 110.912 62.336z m-132.16-86.304a303.552 303.552 0 0 1 85.536-48.224 617.504 617.504 0 0 1-7.36-82.432h-127.68c3.232 49.024 21.184 94.08 49.504 130.656zM416.512 352h127.68c0.704-28.928 3.232-56.64 7.36-82.432a303.552 303.552 0 0 1-85.536-48.224A238.816 238.816 0 0 0 416.512 352z m70.72-154.656a271.68 271.68 0 0 0 70.432 40.32c9.536-42.304 23.552-77.76 40.512-102.656a239.648 239.648 0 0 0-110.912 62.336z m226.592-62.336c16.96 24.896 30.976 60.352 40.512 102.688a271.68 271.68 0 0 0 70.4-40.352 239.648 239.648 0 0 0-110.912-62.336z m132.16 86.336a303.552 303.552 0 0 1-85.536 48.224c4.128 25.824 6.656 53.504 7.36 82.432h127.68a238.816 238.816 0 0 0-49.504-130.656zM895.488 384h-127.68c-0.704 28.928-3.232 56.64-7.36 82.432 31.232 11.424 60.064 27.84 85.536 48.224A238.816 238.816 0 0 0 895.488 384z m-70.72 154.656a271.68 271.68 0 0 0-70.432-40.32c-9.536 42.304-23.552 77.76-40.512 102.656a239.648 239.648 0 0 0 110.912-62.336zM656 640a272 272 0 1 1 0-544 272 272 0 0 1 0 544z m-73.44-183.072A304.672 304.672 0 0 1 656 448c25.312 0 49.92 3.104 73.44 8.928 3.456-22.72 5.696-47.232 6.368-72.928h-159.616c0.672 25.696 2.912 50.208 6.4 72.928z m5.76 31.552C603.936 560.352 631.584 608 656 608c24.448 0 52.096-47.648 67.648-119.52A272.512 272.512 0 0 0 656 480c-23.36 0-46.016 2.944-67.648 8.48z m-5.76-209.408c-3.456 22.72-5.696 47.232-6.368 72.928h159.616a589.472 589.472 0 0 0-6.4-72.928A304.672 304.672 0 0 1 656 288c-25.312 0-49.92-3.104-73.44-8.928z m5.76-31.552A272.512 272.512 0 0 0 656 256c23.36 0 46.016-2.944 67.648-8.48C708.096 175.648 680.448 128 656 128c-24.448 0-52.096 47.648-67.648 119.52z" fill="#3B97D3" p-id="44575"></path><path d="M367.36 639.904H256.224v153.376l200.96 100.288c136.736-17.856 246.08-34.112 328-48.736 28.544-5.12 23.648-44.448-11.52-44.448h-207.36a16 16 0 1 1 0-32h207.36c73.216 0 85.12 95.808 17.12 107.936-83.456 14.912-194.88 31.456-334.272 49.6l-4.832 0.64L256 828.928V832a32 32 0 0 1-32 32H128a32 32 0 0 1-32-32v-224a32 32 0 0 1 32-32h96a32 32 0 0 1 32 31.904h111.328a80 80 0 0 1 78.496 64.512h126.08c31.168 0 52.704 20.96 52.704 47.744s-21.536 47.744-52.704 47.744h-140.288a16 16 0 0 1 0-32h140.288c13.664 0 20.704-6.848 20.704-15.744 0-8.96-7.04-15.744-20.704-15.744H416.96l-1.792-20.704a48 48 0 0 0-47.84-43.84zM128 608v224h96v-224H128z" fill="#5A6978" p-id="44576"></path></svg>