<svg xmlns="http://www.w3.org/2000/svg" viewBox="0 0 1024 1024" version="1.1"><path d="M96 96m32 0l768 0q32 0 32 32l0 768q0 32-32 32l-768 0q-32 0-32-32l0-768q0-32 32-32Z" fill="#FFFFFF" p-id="48738"></path><path d="M672 448v160h-224v160h-32v-160H320l36.32-32H416v-64h32v64h192v-96l32-32z m-256-96V192h32v160h192l-32 32H256V352h160z m416 32V352h96v32h-96z" fill="#D5D9DF" p-id="48739"></path><path d="M672 361.376V256h128v128h-105.376L528 550.624l-96-96-176 176V768h320.608a210.912 210.912 0 0 0 0 32H256v96h352.704c7.36 11.488 15.808 22.208 25.216 32H128a32 32 0 0 1-32-32V128a32 32 0 0 1 32-32h768a32 32 0 0 1 32 32v505.92a208.896 208.896 0 0 0-32-25.216V224H256v361.376l176-176 96 96 144-144zM896 192V128H256v64h640zM224 128H128v64h96V128zM128 224v544h96V224H128z m0 576v96h96v-96H128zM704 288v64h64V288h-64z" fill="#5D6D7E" p-id="48740"></path><path d="M784 960a176 176 0 1 1 0-352 176 176 0 0 1 0 352z m96-176l-144-96v192l144-96zM672 256h128v128h-128V256z m32 32v64h64V288h-64z" fill="#27A2DF" p-id="48741"></path><path d="M224 768V224H128V192h96V128h32v64h640v32H256v544h320v32H256v96H224v-96H128v-32z" fill="#808FA1" p-id="48742"></path></svg>