<svg xmlns="http://www.w3.org/2000/svg" viewBox="0 0 1024 1024" version="1.1"><path d="M640 240.992l96-42.752V768l-256 92.928-192 66.528v-97.28l-96 33.28v-97.28l-96 33.28V269.76l448-199.552v105.632l96-42.752V240.96z" fill="#FFFFFF" p-id="20195"></path><path d="M480 828.928v32l-192 66.528v-544l448-199.552v288l-32 11.104v-256l-384 177.344v480z" fill="#5D6D7E" p-id="20196"></path><path d="M256 810.56v32l-64 22.144v-544l448-199.552v64l-32 11.104v-32L224 341.632v480z" fill="#808FA1" p-id="20197"></path><path d="M160 747.808v32l-64 22.176v-544l448-199.552v64l-32 11.072v-32L128 278.88v480z" fill="#B7BFC8" p-id="20198"></path><path d="M544 832h96v96h-96v-96z m0-128h96v96h-96v-96z m0-128h96v96h-96v-96z m128 256h96v96h-96v-96z m0-128h96v96h-96v-96z m128 128h96v96h-96v-96z" fill="#27A2DF" p-id="20199"></path><path d="M864 544h96v96h-96v-96z m3.872 128l67.904 67.872-67.904 67.904L800 739.84 867.872 672z m-128-128l67.904 67.872-67.904 67.904L672 611.84 739.872 544z" fill="#30AD98" p-id="20200"></path></svg>