<svg xmlns="http://www.w3.org/2000/svg" viewBox="0 0 1024 1024" version="1.1"><path d="M288 224V144A48 48 0 0 1 336 96h544A48 48 0 0 1 928 144v608a48 48 0 0 1-48 48H736v80a48 48 0 0 1-48 48h-544A48 48 0 0 1 96 880v-608A48 48 0 0 1 144 224H288z" fill="#FFFFFF" p-id="42320"></path><path d="M736 768h160V128H320v96h96v32H128v640h576v-224h32v96zM288 224V128a32 32 0 0 1 32-32h576a32 32 0 0 1 32 32v640a32 32 0 0 1-32 32h-160v96a32 32 0 0 1-32 32H128a32 32 0 0 1-32-32V256a32 32 0 0 1 32-32h160z" fill="#5D6D7E" p-id="42321"></path><path d="M528.672 294.72a64 64 0 1 1 3.392 31.776c-176.384 26.72-267.424 136.192-276.16 331.52a64 64 0 1 1-32 0C233.056 445.76 335.68 323.616 528.64 294.72z m34.24-4.096a31.872 31.872 0 0 0 2.944 31.84A31.968 31.968 0 0 0 624 304a32 32 0 0 0-61.088-13.376zM255.104 691.776a31.872 31.872 0 0 0-31.648 0.832 32 32 0 1 0 31.68-0.832z" fill="#5D6D7E" p-id="42322"></path><path d="M357.824 421.824l305.472 101.824-140.704 61.152-62.944 142.496-101.824-305.472z m105.984 216.8l34.56-78.176 75.552-32.864-165.504-55.168 55.392 166.208z" fill="#C49F74" p-id="42323"></path><path d="M723.616 336a32 32 0 1 1 0-64 32 32 0 0 1 0 64z m96 0a32 32 0 1 1 0-64 32 32 0 0 1 0 64z" fill="#ACB4C0" p-id="42324"></path><path d="M592 368a64 64 0 1 1 0-128 64 64 0 0 1 0 128z m0-32a32 32 0 1 0 0-64 32 32 0 0 0 0 64z m-352 448a64 64 0 1 1 0-128 64 64 0 0 1 0 128z m0-32a32 32 0 1 0 0-64 32 32 0 0 0 0 64z" fill="#27A2DF" p-id="42325"></path></svg>