<svg xmlns="http://www.w3.org/2000/svg" viewBox="0 0 1024 1024" version="1.1"><path d="M149.856 416h-31.936L272 128h634.08l-95.296 174.752A382.4 382.4 0 0 1 896 544c0 212.064-171.936 384-384 384S128 756.064 128 544c0-44.896 7.68-87.968 21.856-128z" fill="#FFFFFF" p-id="18010"></path><path d="M512 192v32h-32v-30.56c-4.384 0.384-8.736 0.864-13.056 1.408l-4.064-31.744a387.712 387.712 0 0 1 96.64-0.192l-3.936 31.744A355.52 355.52 0 0 0 512 192zM859.072 379.52l-28.896 13.728A352.32 352.32 0 0 0 782.72 319.04l24.64-20.448a384.32 384.32 0 0 1 51.68 80.896z m-207.328-193.28c30.144 11.808 58.432 27.296 84.32 45.92l-18.688 25.952a351.168 351.168 0 0 0-77.28-42.048l11.648-29.824z m-282.368 1.152l11.904 29.696c-27.36 10.944-53.184 25.28-76.96 42.688l-18.88-25.824a383.296 383.296 0 0 1 83.936-46.56zM214.752 300.896l24.736 20.256a352.192 352.192 0 0 0-46.816 74.528l-29.024-13.504c13.632-29.28 30.848-56.576 51.104-81.28zM512 256v96h-32V256h32z m0 128v32h-32V384h32z" fill="#CDD3DA" p-id="18011"></path><path d="M140.096 448H64L256 96h704l-192 352H173.248c-8.64 30.528-13.248 62.72-13.248 96 0 194.4 157.6 352 352 352 33.28 0 65.472-4.608 96-13.248v33.152c-30.688 7.904-62.848 12.096-96 12.096-212.064 0-384-171.936-384-384 0-33.152 4.192-65.312 12.096-96z m608.896-32l157.12-288H274.976l-157.12 288h631.104z" fill="#5D6D7E" p-id="18012"></path><path d="M867.776 596.8h-97.76l-86.4 91.008-23.232-22.016 95.904-100.992h111.488L815.616 512l22.752-22.496 90.24 91.264L838.368 672l-22.72-22.496 52.128-52.736zM544 756.8h58.336l5.536-4.48 20.096 24.928-14.304 11.52H544v-32z" fill="#3B97D3" p-id="18013"></path><path d="M867.776 820.8L815.616 768l22.752-22.496 90.24 91.264L838.368 928l-22.72-22.496 52.128-52.736h-122.88l-144-160H544v-32h71.136l144 160z" fill="#30AD98" p-id="18014"></path></svg>