<svg xmlns="http://www.w3.org/2000/svg" viewBox="0 0 1024 1024" version="1.1"><path d="M96 96m32 0l768 0q32 0 32 32l0 768q0 32-32 32l-768 0q-32 0-32-32l0-768q0-32 32-32Z" fill="#FFFFFF" p-id="50873"></path><path d="M412.8 801.12l158.72-127.424 203.104 123.456a16 16 0 0 0 16.64-27.328l-222.304-135.136-163.296 131.168-163.712-46.208-130.976 97.28a16 16 0 0 0 19.072 25.696l118.336-87.904 164.448 46.4z" fill="#30AD98" p-id="50874"></path><path d="M667.2 621.824l150.944-142.976a16 16 0 1 0-21.984-23.232l-116.064 109.888-123.712-326.912-138.112 394.496H268.32L133.76 578.816a16 16 0 0 0-11.968 29.696L259.2 663.936l6.016 1.152h175.776l116.576-332.992 109.632 289.728z" fill="#27A2DF" p-id="50875"></path><path d="M128 96h768a32 32 0 0 1 32 32v768a32 32 0 0 1-32 32H128a32 32 0 0 1-32-32V128a32 32 0 0 1 32-32z m0 32v768h768V128H128z" fill="#5D6D7E" p-id="50876"></path></svg>