<svg xmlns="http://www.w3.org/2000/svg" viewBox="0 0 1024 1024" version="1.1"><path d="M640 448h256v448H448v-256H128V128h512v320z" fill="#FFFFFF" p-id="42901"></path><path d="M640 416h-32V160H160v448h256v32H128V128h512v288z m-192 32h448v448H448V448z m32 32v384h384V480H480z" fill="#5D6D7E" p-id="42902"></path><path d="M112 112v64h64v-64h-64z m0 480v64h64v-64h-64z m320 256v64h64v-64h-64z m416 0v64h64v-64h-64z m0-416v64h64v-64h-64z m-416 0v64h64v-64h-64z m160-320v64h64v-64h-64z" fill="#FFFFFF" p-id="42903"></path><path d="M96 96h96v96H96V96z m32 32v32h32V128H128zM96 576h96v96H96v-96z m32 32v32h32v-32H128z m288 224h96v96h-96v-96z m32 32v32h32v-32h-32z m384-32h96v96h-96v-96z m32 32v32h32v-32h-32z m-32-448h96v96h-96v-96z m32 32v32h32v-32h-32z m-448-32h96v96h-96v-96z m32 32v32h32v-32h-32z m128-352h96v96h-96V96z m32 32v32h32V128h-32z" fill="#27A2DF" p-id="42904"></path></svg>