<svg xmlns="http://www.w3.org/2000/svg" viewBox="0 0 1024 1024" version="1.1"><path d="M96 96m64 0l704 0q64 0 64 64l0 704q0 64-64 64l-704 0q-64 0-64-64l0-704q0-64 64-64Z" fill="#FFFFFF" p-id="47958"></path><path d="M128 96h768a32 32 0 0 1 32 32v768a32 32 0 0 1-32 32H128a32 32 0 0 1-32-32V128a32 32 0 0 1 32-32z m0 32v768h768V128H128z" fill="#5D6D7E" p-id="47959"></path><path d="M768 654.624V640h-30.624l150.624-150.624 8 8v29.248l-128 128z m0 82.752l128 128V896h-14.624l-128-128H768v-30.624zM654.624 768l-128 128h-45.248L640 737.376V768h14.624zM640 655.296l-160-157.376 22.624-22.624L670.08 640H640v15.296zM256 718.496V736h27.808L128 890.72v-45.088l128-127.136zM367.264 608L576 400.704V416h30.016L384 636.48V608h-16.736z m322.24-320l161.088-160H896l-192 190.688V288h-14.528z m-90.88 0H576v22.624L393.376 128h45.248l160 160z m-336 320H256v38.624l-128-128v-45.248L262.624 608z" fill="#808FA1" p-id="47960"></path><path d="M256 608h128v128H256v-128z m32 32v64h64v-64H288z m288-352h128v128h-128V288z m32 32v64h64V320h-64z m32 320h128v128h-128v-128z m32 32v64h64v-64h-64z" fill="#27A2DF" p-id="47961"></path></svg>