<svg xmlns="http://www.w3.org/2000/svg" viewBox="0 0 1024 1024" version="1.1"><path d="M128 128h768v768H128z" fill="#FFFFFF" p-id="51755"></path><path d="M288 128v128h448V128h32v128h128v32h-128v448h128v32h-128v128h-32v-128H288v128H256v-128H128v-32h128V288H128V256h128V128h32z m303.84 704a16 16 0 0 1 2.88 31.744l-2.88 0.256H436.16a16 16 0 0 1-2.88-31.744l2.88-0.256h155.68zM736 288H288v448h448V288z m-144.16-128a16 16 0 0 1 2.88 31.744l-2.88 0.256H436.16a16 16 0 0 1-2.88-31.744L436.16 160h155.68z" fill="#C6CCD3" p-id="51756"></path><path d="M896 96a32 32 0 0 1 32 32v768a32 32 0 0 1-32 32H128a32 32 0 0 1-32-32V128a32 32 0 0 1 32-32h768z m0 32H128v768h768V128z" fill="#5D6D7E" p-id="51757"></path><path d="M768 256v512H256V256h512z m-32 32H288v448h448V288z m-351.52 128.448c33.6 0 61.12 25.984 63.52 58.944l0.192 4.736h-32a31.68 31.68 0 0 0-28.032-31.488l-4.32-0.192a31.84 31.84 0 0 0-3.712 63.456l3.712 0.224c34.016 0 61.728 26.144 64.16 59.328l0.192 4.8a64.128 64.128 0 0 1-128.032 4.832L319.968 576h32v0.32a32.096 32.096 0 0 0 64 3.744l0.224-3.744c0-16.544-12.416-30.112-28.352-32l-3.744-0.192a63.84 63.84 0 1 1-5.024-127.52l5.408-0.16zM704 416v32.096h-32V640h-31.84v-191.904h-32.096V416H704z m-176 0a48 48 0 0 1 48 48v128a48 48 0 0 1-96 0v-128a48 48 0 0 1 48-48z m0 32a16 16 0 0 0-15.744 13.12L512 464v128a16 16 0 0 0 31.744 2.88L544 592v-128a16 16 0 0 0-16-16z" fill="#27A2DF" p-id="51758"></path></svg>