<svg xmlns="http://www.w3.org/2000/svg" viewBox="0 0 1024 1024" version="1.1"><path d="M112 112m32 0l736 0q32 0 32 32l0 736q0 32-32 32l-736 0q-32 0-32-32l0-736q0-32 32-32Z" fill="#FFFFFF" p-id="46971"></path><path d="M384 128h32v192H384V128z m0 352h32v192H384v-192z m96-96h192v32h-192V384zM128 384h192v32H128V384z" fill="#30AD98" p-id="46972"></path><path d="M548.352 887.776l26.56-26.56A206.784 206.784 0 0 1 549.6 800H512a32 32 0 0 1-32-32v-32a32 32 0 0 1 32-32h37.568c5.184-21.952 13.856-42.56 25.376-61.184l-26.592-26.56a32 32 0 0 1 0-45.28l22.624-22.624a32 32 0 0 1 45.248 0l26.56 26.56A206.784 206.784 0 0 1 704 549.6V512a32 32 0 0 1 32-32h32a32 32 0 0 1 32 32v37.568c21.952 5.184 42.56 13.856 61.184 25.376l26.56-26.592A32 32 0 0 1 928 544.256V896a32 32 0 0 1-32 32H544.256a32 32 0 0 1 4.096-40.224zM896 896v-310.624l-30.08 30.08-21.568-13.312a174.784 174.784 0 0 0-51.712-21.44l-24.64-5.824V512h-32v62.88l-24.64 5.824a174.784 174.784 0 0 0-51.712 21.44l-21.568 13.312-44.48-44.48-22.624 22.624 44.48 44.48-13.312 21.568a174.784 174.784 0 0 0-21.44 51.712l-5.824 24.64H512v32h62.88l5.824 24.64c4.32 18.336 11.584 35.776 21.44 51.712l13.312 21.568-30.08 30.08H896z m-144-64a80 80 0 1 1 0-160 80 80 0 0 1 0 160z m0-32a48 48 0 1 0 0-96 48 48 0 0 0 0 96z" fill="#27A2DF" p-id="46973"></path><path d="M352 320h96a32 32 0 0 1 32 32v96a32 32 0 0 1-32 32H352a32 32 0 0 1-32-32V352a32 32 0 0 1 32-32z m0 32v96h96V352H352zM128 96h768a32 32 0 0 1 32 32v768a32 32 0 0 1-32 32H128a32 32 0 0 1-32-32V128a32 32 0 0 1 32-32z m0 32v768h768V128H128z" fill="#5D6D7E" p-id="46974"></path></svg>