<svg xmlns="http://www.w3.org/2000/svg" viewBox="0 0 1024 1024" version="1.1"><path d="M128 96h705.952L928 216.032V896a32 32 0 0 1-32 32H128a32 32 0 0 1-32-32V128a32 32 0 0 1 32-32z" fill="#FFFFFF" p-id="20097"></path><path d="M896 256h32v640a32 32 0 0 1-32 32H128a32 32 0 0 1-32-32V128a32 32 0 0 1 32-32h627.232l-29.76 32H128v768h768V256z" fill="#5D6D7E" p-id="20098"></path><path d="M512 768h-64l-128-298.656V768H256V320h64l160 373.344L640 320h64v448h-64v-298.656L512 768z" fill="#808FA1" p-id="20099"></path><path d="M800.064 150.528l-68.8 67.264a16 16 0 1 1-22.4-22.88l108.48-106.016 106.112 107.296a16 16 0 1 1-22.752 22.496l-68.64-69.408V493.44a16 16 0 1 1-32 0V150.528z" fill="#27A2DF" p-id="20100"></path></svg>