<svg xmlns="http://www.w3.org/2000/svg" viewBox="0 0 1024 1024" version="1.1"><path d="M112 112m32 0l736 0q32 0 32 32l0 736q0 32-32 32l-736 0q-32 0-32-32l0-736q0-32 32-32Z" fill="#FFFFFF" p-id="48493"></path><path d="M128 96h768a32 32 0 0 1 32 32v768a32 32 0 0 1-32 32H128a32 32 0 0 1-32-32V128a32 32 0 0 1 32-32z m0 32v768h768V128H128z" fill="#5D6D7E" p-id="48494"></path><path d="M768 320v256h-64V320h-256V256h320v64z m-352 288h448v64H352V160h64v448z m288 96h64v64h-64v-64zM256 256h64v64H256V256z" fill="#27A2DF" p-id="48495"></path><path d="M128 256h64v32H128V256z m0 128h64v32H128V384z m0 128h64v32H128v-32z m0 128h64v32H128v-32z m0 128h64v32H128v-32z m96 64h32v64H224v-64z m128 0h32v64H352v-64z m128 0h32v64h-32v-64z m128 0h32v64h-32v-64z m128 0h32v64h-32v-64z" fill="#C49F74" p-id="48496"></path></svg>