<svg xmlns="http://www.w3.org/2000/svg" viewBox="0 0 1024 1024" version="1.1"><path d="M512 512m-400 0a400 400 0 1 0 800 0 400 400 0 1 0-800 0Z" fill="#FFFFFF" p-id="23097"></path><path d="M512 928c229.76 0 416-186.24 416-416S741.76 96 512 96 96 282.24 96 512s186.24 416 416 416z m0-32C299.936 896 128 724.064 128 512S299.936 128 512 128s384 171.936 384 384-171.936 384-384 384z" fill="#808FA1" p-id="23098"></path><path d="M512 736a224 224 0 1 0 0-448 224 224 0 0 0 0 448z m0-32a192 192 0 1 1 0-384 192 192 0 0 1 0 384z" fill="#5D6D7E" p-id="23099"></path><path d="M528 496.48H832v32h-304V832h-32v-303.52H192v-32h304V192h32v304.48z" fill="#30AD98" p-id="23100"></path></svg>