<svg xmlns="http://www.w3.org/2000/svg" viewBox="0 0 1024 1024" version="1.1"><path d="M112 112m32 0l736 0q32 0 32 32l0 736q0 32-32 32l-736 0q-32 0-32-32l0-736q0-32 32-32Z" fill="#FFFFFF" p-id="17860"></path><path d="M608 96h288a32 32 0 0 1 32 32v768a32 32 0 0 1-32 32h-288v-32h288V128h-288V96z" fill="#8B9CAE" p-id="17861"></path><path d="M640 97.664l0.96-0.96L832 287.68l-0.32 0.32H832v640H128a32 32 0 0 1-32-32V128a32 32 0 0 1 32-32h512v1.664z m0 43.296V288h147.04L640 140.96zM608 128H128v768h672V320h-192V128z" fill="#5D6D7E" p-id="17862"></path><path d="M448 800v-64h32v64h224v32H224v-32h224z m16-320C349.12 480 256 444.16 256 400S349.12 320 464 320 672 355.84 672 400 578.88 480 464 480z m207.808 80H672V640h-0.544c0.352 2.144 0.544 4.288 0.544 6.464C672 695.904 578.88 736 464 736S256 695.904 256 646.464c0-2.176 0.192-4.32 0.544-6.464H256v-80h0.192c4.896 47.584 96.064 85.536 207.808 85.536s202.912-37.952 207.808-85.536zM256 427.904v1.12c0 49.152 93.12 88.96 208 88.96s208-39.808 208-88.96v-1.12V512h-0.64c0.416 2.304 0.64 4.64 0.64 7.008C672 568.16 578.88 608 464 608S256 568.16 256 519.008c0-2.368 0.224-4.704 0.64-7.008H256v-84.096z" fill="#3B97D3" p-id="17863"></path></svg>