<svg xmlns="http://www.w3.org/2000/svg" viewBox="0 0 1024 1024" version="1.1"><path d="M736 625.92c0 70.72-107.456 128-240 128-132.544 0-240-57.28-240-128v-224.864c0-70.72 107.456-128 240-128 132.544 0 240 57.28 240 128v224.864z" fill="#FFFFFF" p-id="20892"></path><path d="M284.224 444.288V512c0 46.432 92.928 96 211.776 96 118.848 0 211.776-49.568 211.776-96v-67.712C667.36 484.608 587.68 512 496 512s-171.36-27.424-211.776-67.712zM256 384c0-70.72 107.456-128 240-128 132.544 0 240 57.28 240 128v256c0 70.72-107.456 128-240 128-132.544 0-240-57.28-240-128v-256z m240 96c118.848 0 211.776-49.568 211.776-96S614.848 288 496 288c-118.848 0-211.776 49.568-211.776 96s92.928 96 211.776 96z m211.776 92.288C667.36 612.608 587.68 640 496 640s-171.36-27.424-211.776-67.712V640c0 46.432 92.928 96 211.776 96 118.848 0 211.776-49.568 211.776-96v-67.712z" fill="#5D6D7E" p-id="20893"></path><path d="M351.776 159.936c-150.176 62.752-255.712 211.072-255.712 384 0 173.056 105.664 321.44 256 384.128V893.12c-132.192-60.672-224-194.208-224-349.184 0-154.976 91.808-288.512 224-349.184v61.184h32v-128h-128v32h95.712z" fill="#27A2DF" p-id="20894"></path><path d="M672.32 896.064c150.208-62.752 255.744-211.072 255.744-384 0-173.056-105.664-321.44-256-384.128V162.88c132.16 60.672 224 194.208 224 349.184 0 154.976-91.84 288.512-224 349.184v-61.184h-32v128h128v-32H672.32z" fill="#30AD98" p-id="20895"></path></svg>