<svg xmlns="http://www.w3.org/2000/svg" viewBox="0 0 1024 1024" version="1.1"><path d="M614.848 918.88A973.184 973.184 0 0 1 480 928c-212.064 0-384-64.48-384-144V245.12h0.224A55.168 55.168 0 0 1 96 240C96 160.48 267.936 96 480 96s384 64.48 384 144c0 1.728-0.096 3.424-0.224 5.12H864v302.656c20.224 12.672 32 27.84 32 44.224V896h-38.4c-35.008 19.424-90.784 32-153.6 32a421.12 421.12 0 0 1-89.152-9.12z" fill="#FFFFFF" p-id="17512"></path><path d="M815.04 462.208c6.24-4.576 11.904-9.344 16.992-14.208H832V297.632C772.704 348.48 637.44 384 480 384S187.296 348.48 128 297.632V448h-0.032C183.168 500.64 304.384 538.528 448 543.456v32c-133.504-4.384-251.232-36.16-320-86.112V608c0 59.552 139.2 120.864 320 127.424v32c-143.584-4.896-264.768-42.752-320-95.36v104.8l4.448 9.12c27.264 56 157.344 103.68 315.552 109.44v32.032C275.84 921.568 129.536 868.8 96 800V244.48l0.192 0.096A55.136 55.136 0 0 1 96 240C96 160.48 267.936 96 480 96s384 64.48 384 144c0 1.536-0.064 3.04-0.192 4.576L864 244.48v235.072c-15.04-6.784-31.424-12.608-48.96-17.376zM480 352c195.456 0 352-58.72 352-112S675.456 128 480 128 128 186.72 128 240 284.544 352 480 352z" fill="#5D6D7E" p-id="17513"></path><path d="M928 576v288c-15.52 54.272-111.168 96-224 96s-206.208-35.968-221.76-90.24L480 864v-288 16c0-61.856 100.288-112 224-112s224 50.144 224 112V576z m-32 201.728C856.8 810.24 785.472 832 704 832s-152.8-21.76-192-54.272v73.856l1.024 3.616C523.712 892.544 604.864 928 704 928c99.168 0 180.288-35.456 190.976-72.8l1.024-3.616v-73.856z m0-54.144v-66.4C848.736 686.72 779.712 704 704.096 704h-0.192c-75.616 0-144.64-17.28-191.904-46.816v66.4l1.024 3.616C523.712 764.544 604.864 800 704 800c99.168 0 180.288-35.456 190.976-72.8l1.024-3.616zM704 672c108.32 0 192-41.856 192-80S812.32 512 704 512s-192 41.856-192 80 83.68 80 192 80z" fill="#3B97D3" p-id="17514"></path></svg>