<svg xmlns="http://www.w3.org/2000/svg" viewBox="0 0 1024 1024" version="1.1"><path d="M480 96c212.064 0 384 64.48 384 144 0 1.728-0.096 3.424-0.256 5.12H864l0.032 356.16c16.64 16.64 27.52 36.064 30.88 56.992H896V848c0 61.856-85.952 112-192 112-55.296 0-105.12-13.632-140.16-35.456-26.944 2.24-55.04 3.456-83.84 3.456-208.32 0-377.856-71.648-383.84-140.256L96 784v-544C96 160.48 267.936 96 480 96z" fill="#FFFFFF" p-id="52590"></path><path d="M480 96c212.064 0 384 64.48 384 144 0 1.536-0.064 3.072-0.192 4.608L864 244.48l0.032 274.112A282.88 282.88 0 0 0 832 503.552v-14.208a267.968 267.968 0 0 1-13.536 9.216c-14.08-4.864-28.8-8.832-44.128-11.84 21.44-10.624 39.616-22.432 53.888-35.2L832 448l0.064-150.4C772.8 348.48 637.504 384 480 384c-157.44 0-292.768-35.52-352-86.4V448c59.232 56.512 194.56 96 352 96 9.088 0 18.08-0.128 26.976-0.384-11.968 9.92-22.4 20.736-31.04 32.32L480 576c-146.56 0-277.76-32.768-352-86.656L127.968 608H128v0.672l0.16 2.816c5.312 58.464 142.624 117.504 319.84 123.936v32c-143.616-4.896-264.8-42.784-320-95.392v104.832l4.448 9.12c27.84 57.088 162.592 105.6 325.088 109.76 4.576 11.2 10.752 22.016 18.368 32.256H480c-185.76 0-348.416-54.976-384-128V240C96 160.48 267.936 96 480 96z m0 32C284.544 128 128 186.72 128 240S284.544 352 480 352s352-58.72 352-112S675.456 128 480 128z" fill="#5D6D7E" p-id="52591"></path><path d="M512 652.384l0.128 0.064 0.064-1.44C516.672 591.488 600.832 544 704 544c103.168 0 187.328 47.456 191.808 107.008L896 656v194.336l-0.096 0.032-0.096 2.688C891.328 912.576 807.168 960 704 960c-106.048 0-192-50.112-192-111.936v-195.68z m32 193.536h0.064l-0.064 2.304 0.192 3.424c4.16 37.12 72.384 76.384 159.808 76.384 87.36 0 155.456-39.168 159.776-76.256l0.224-3.584v-30.848C829.664 845.44 770.816 864 704 864s-125.6-18.528-160-46.656v28.576z m0-88.48c0 35.52 69.76 74.56 160 74.56 89.856 0 159.36-38.656 160-74.08v-40.064l-1.344 1.248C828.096 748.608 769.92 768 704 768s-124.064-19.392-158.656-48.896L544 717.888v39.552zM704 576c-90.24 0-160 41.856-160 80s69.76 80 160 80 160-41.856 160-80-69.76-80-160-80z" fill="#27A2DF" p-id="52592"></path></svg>