<svg xmlns="http://www.w3.org/2000/svg" viewBox="0 0 1024 1024" version="1.1"><path d="M130.336 224C151.552 152 314.336 96 512 96s360.448 56 381.664 128H896v564.8l-2.336 11.2c-21.216 72-184 128-381.664 128S151.552 850.56 130.336 778.56L128 759.36V224h2.336z" fill="#FFFFFF" p-id="12124"></path><path d="M896 452l-42.624 5.312c3.808-3.04 7.36-6.144 10.656-9.312H864V297.632C804.704 348.48 669.44 384 512 384S219.296 348.48 160 297.632V448h-0.032c59.232 56.512 194.56 96 352.032 96 35.2 0 69.28-1.984 101.664-5.664l-35.392 35.392c-21.632 1.504-43.776 2.272-66.272 2.272-146.56 0-277.76-32.768-352-86.656V608c0 59.552 139.2 120.864 320 127.424v32c-143.584-4.896-264.768-42.752-320-95.36v104.8l4.448 9.12C193.568 845.696 339.584 896 512 896c19.808 0 39.264-0.64 58.24-1.92L576 896l63.264 23.008A882.848 882.848 0 0 1 512 928c-185.76 0-340.736-54.976-376.32-128L128 784.448V243.52l0.128 0.064A55.136 55.136 0 0 1 128 240C128 160.48 299.936 96 512 96s384 64.48 384 144v212zM512 352c195.456 0 352-58.72 352-112S707.456 128 512 128 160 186.72 160 240 316.544 352 512 352z" fill="#5D6D7E" p-id="12125"></path><path d="M859.136 854.784H680.96l-144-160.096H480v-32h71.232l144 160.096h164.288l-55.36-59.936a16 16 0 1 1 23.488-21.696l90.336 97.728-90.432 96.224a16 16 0 0 1-23.328-21.92l54.912-58.4z" fill="#30AD98" p-id="12126"></path><path d="M636 710.912l-21.536-24.64 65.664-87.488h179.392l-55.36-59.936a16 16 0 1 1 23.488-21.696l90.336 97.728-90.432 96.224a16 16 0 0 1-23.328-21.92l54.912-58.4h-163.008l-60.128 80.128z m-58.88 78.496l-24.992 33.376H480v-32h56.128l19.456-25.984 21.568 24.64z" fill="#3B97D3" p-id="12127"></path></svg>