<svg xmlns="http://www.w3.org/2000/svg" viewBox="0 0 1024 1024" version="1.1"><path d="M416 416m32 0l448 0q32 0 32 32l0 448q0 32-32 32l-448 0q-32 0-32-32l0-448q0-32 32-32Z" fill="#DDEEDB" p-id="12173"></path><path d="M640 384H384v256H128a32 32 0 0 1-32-32V128a32 32 0 0 1 32-32h480a32 32 0 0 1 32 32v256z" fill="#FFFFFF" p-id="12174"></path><path d="M448 416h448a32 32 0 0 1 32 32v448a32 32 0 0 1-32 32H448a32 32 0 0 1-32-32V448a32 32 0 0 1 32-32z m0 32v448h448V448H448z m160-96V128H128v224h224V128h32v224h224z m-256 256V384H128v224h224z m288-224H384v256H128a32 32 0 0 1-32-32V128a32 32 0 0 1 32-32h480a32 32 0 0 1 32 32v256z" fill="#5D6D7E" p-id="12175"></path><path d="M128 128h224v224H128z" fill="#A5D0E8" opacity=".5" p-id="12176"></path></svg>