<svg xmlns="http://www.w3.org/2000/svg" viewBox="0 0 1024 1024" version="1.1"><path d="M144 112m32 0l672 0q32 0 32 32l0 736q0 32-32 32l-672 0q-32 0-32-32l0-736q0-32 32-32Z" fill="#FFFFFF" p-id="31460"></path><path d="M160 96h704a32 32 0 0 1 32 32v768a32 32 0 0 1-32 32H160a32 32 0 0 1-32-32V128a32 32 0 0 1 32-32z m0 32v768h704V128H160z" fill="#5D6D7E" p-id="31461"></path><path d="M224 192h576v640H224V192z m32 32v576h512V224H256z m320 480h-128v96H416v-96H256v-32h160v-128H256v-32h160V384H256V352h160V224h32v128h128V224h32v128h160v32h-160v128h160v32h-160v128h160v32h-160v96h-32v-96z m0-32v-128h-128v128h128z m0-160V384h-128v128h128z" fill="#C49F74" p-id="31462"></path></svg>