<svg xmlns="http://www.w3.org/2000/svg" viewBox="0 0 1024 1024" version="1.1"><path d="M896 576l32 32v352H512v-32c-212.064 0-384-64.48-384-144V245.12h0.224A55.168 55.168 0 0 1 128 240C128 160.48 299.936 96 512 96s384 64.48 384 144c0 1.728-0.096 3.424-0.224 5.12H896V576z" fill="#FFFFFF" p-id="17909"></path><path d="M896 507.552l-47.232-46.624c5.536-4.192 10.656-8.512 15.264-12.928H864V297.632C804.704 348.48 669.44 384 512 384S219.296 348.48 160 297.632V448h-0.032c55.2 52.64 176.416 90.528 320.032 95.456v32c-133.504-4.384-251.232-36.16-320-86.112V608c0 59.552 139.2 120.864 320 127.424v32c-143.584-4.896-264.768-42.752-320-95.36v104.8l4.448 9.12c27.264 56 157.344 103.68 315.552 109.44v32.032C307.84 921.568 161.536 868.8 128 800V244.48l0.192 0.096A55.136 55.136 0 0 1 128 240C128 160.48 299.936 96 512 96s384 64.48 384 144c0 1.536-0.064 3.04-0.192 4.576L896 244.48v263.04zM512 352c195.456 0 352-58.72 352-112S707.456 128 512 128 160 186.72 160 240 316.544 352 512 352z m0 128h288l128 128v352H512V480z m32 32v416h352v-306.752L786.752 512H544z" fill="#5D6D7E" p-id="17910"></path><path d="M704 736h160v128h-160z" fill="#EF633F" p-id="17911"></path><path d="M800 704h-128v96h-32v-128h160z" fill="#2FAF9A" p-id="17912"></path><path d="M736 640h-128v96h-32v-128h160z" fill="#3B97D3" p-id="17913"></path></svg>