<svg xmlns="http://www.w3.org/2000/svg" viewBox="0 0 1024 1024" version="1.1"><path d="M112 112m32 0l736 0q32 0 32 32l0 736q0 32-32 32l-736 0q-32 0-32-32l0-736q0-32 32-32Z" fill="#FFFFFF" p-id="45581"></path><path d="M896 96a32 32 0 0 1 32 32v768a32 32 0 0 1-32 32H128a32 32 0 0 1-32-32V128a32 32 0 0 1 32-32h768z m0 32H128v768h768V128z" fill="#5D6D7E" p-id="45582"></path><path d="M800 192h32v640h-32z" fill="#808FA1" p-id="45583"></path><path d="M601.376 647.68H336.544L300.16 726.304c-5.44 11.328-8.192 20.256-8.192 26.784 0 12.48 3.264 21.12 22.528 25.92V800H160v-20.992c11.52-2.24 30.432-6.24 36.48-11.904 6.016-5.664 12.928-16.704 20.672-33.152L411.456 309.888c6.912-14.176 10.368-3.744 10.368-12.224 0-13.056-2.4-14.24-19.072-19.904V256h154.496v21.76c-16.96 4.8-21.376 5.024-21.376 16.928 0 8.192 2.72-4.192 8.192 6.272l202.048 425.344c9.504 18.976 17.824 31.936 25.024 38.88 7.168 6.944 16.8 11.552 28.864 13.824V800h-176.544v-20.992c18.944-3.104 32.736-11.904 32.736-26.368 0-5.92-2.88-14.72-8.608-26.336l-46.208-78.624zM576 576l-97.76-224L384 576h192z" fill="#27A2DF" p-id="45584"></path></svg>