<svg xmlns="http://www.w3.org/2000/svg" viewBox="0 0 1024 1024" version="1.1"><path d="M146.56 158.24c32.704-3.52 53.152-8.256 61.44-14.24 9.76-7.04 12.608-23.04 8.576-48H880A48 48 0 0 1 928 144v736a48 48 0 0 1-48 48h-736A48 48 0 0 1 96 880V352c21.344-22.88 32-40.832 32-53.856 0-12.992-10.656-33.92-32-62.72l24.544-57.856a32 32 0 0 1 26.048-19.328z" fill="#FFFFFF" p-id="29806"></path><path d="M256 896V416h32v480h608V128H388.32a240.192 240.192 0 0 0-20.288-32H896a32 32 0 0 1 32 32v768a32 32 0 0 1-32 32H128a32 32 0 0 1-32-32V420.32c10.24 5.44 20.928 10.112 32 14.016V896h128z" fill="#5D6D7E" p-id="29807"></path><path d="M192 350.88a111.424 111.424 0 0 1-51.072-21.184l-46.08 46.08-22.624-22.624 46.08-46.08A111.424 111.424 0 0 1 97.12 256H32V224h65.12a111.424 111.424 0 0 1 21.184-51.072l-46.08-46.08 22.624-22.624 46.08 46.08A111.424 111.424 0 0 1 192 129.12V64h32v65.12a111.424 111.424 0 0 1 51.072 21.184l46.08-46.08 22.624 22.624-46.08 46.08c10.976 14.656 18.464 32.096 21.184 51.072H384v32H318.88a111.424 111.424 0 0 1-21.184 51.072l46.08 46.08-22.624 22.624-46.08-46.08A111.424 111.424 0 0 1 224 350.88V416H192V350.88zM208 320a80 80 0 1 0 0-160 80 80 0 0 0 0 160zM320 412.16c56-30.304 109.312-19.392 160 32.8 50.688 52.16 104 41.28 160-32.8v234.304c-50.56 37.504-103.104 37.504-157.6 0-54.496-37.536-108.64-37.536-162.4 0V412.16z m32 182.24c49.312-16.416 99.84-7.84 148.544 25.696 38.656 26.592 72.64 29.536 107.456 9.248v-141.248c-50.688 33.792-103.36 28.16-150.944-20.832-35.68-36.736-68.96-47.456-105.056-34.528v161.664z" fill="#EF633F" p-id="29808"></path><path d="M798.816 804.608h-374.72v32h406.72v-220.096h-102.88v32h70.88z" fill="#808FA1" p-id="29809"></path><path d="M416 768m32 0l32 0q32 0 32 32l0 32q0 32-32 32l-32 0q-32 0-32-32l0-32q0-32 32-32Z" fill="#27A2DF" p-id="29810"></path><path d="M672 576m32 0l32 0q32 0 32 32l0 32q0 32-32 32l-32 0q-32 0-32-32l0-32q0-32 32-32Z" fill="#30AD98" p-id="29811"></path></svg>