<svg xmlns="http://www.w3.org/2000/svg" viewBox="0 0 1024 1024" version="1.1"><path d="M142.464 107.008h194.24a32 32 0 0 1 32 32v199.488a32 32 0 0 1-32 32h-194.24a32 32 0 0 1-32-32V139.008a32 32 0 0 1 32-32zM752 370.496c-79.52 0-128.864-50.976-128.864-130.496 0-79.52 49.344-132.992 128.864-132.992 79.52 0 131.424 53.44 131.424 132.992 0 79.52-51.904 130.496-131.424 130.496z m-512 324.32l144 220.576H96l144-220.576z m507.648-100.352L896 757.024l-148.352 158.368-162.528-158.4 162.528-162.528z" fill="#FFFFFF" p-id="22855"></path><path d="M128 96h224a32 32 0 0 1 32 32v224a32 32 0 0 1-32 32H128a32 32 0 0 1-32-32V128a32 32 0 0 1 32-32z m0 32v224h224V128H128z" fill="#ACB4C0" p-id="22856"></path><path d="M752 384a144 144 0 1 0 0-288 144 144 0 0 0 0 288z m0-32a112 112 0 1 1 0-224 112 112 0 0 1 0 224z" fill="#27A2DF" p-id="22857"></path><path d="M240 672l176 256H64l176-256z m0 56.48L124.832 896h230.336L240 728.48z" fill="#30AD98" p-id="22858"></path><path d="M747.648 576l181.024 181.024-181.024 181.024-181.024-181.024L747.648 576z m-135.776 181.024l135.776 135.744 135.776-135.744-135.776-135.776-135.776 135.776z" fill="#CAAB86" p-id="22859"></path><path d="M448 224h96v32h-96V224z m-224 224h32v160H224v-160z m224 320h96v32h-96v-32z" fill="#5D6D7E" p-id="22860"></path></svg>