<svg xmlns="http://www.w3.org/2000/svg" viewBox="0 0 1024 1024" version="1.1"><path d="M96 96m32 0l768 0q32 0 32 32l0 768q0 32-32 32l-768 0q-32 0-32-32l0-768q0-32 32-32Z" fill="#FFFFFF" p-id="46618"></path><path d="M512 896h32v32H160v-32h32v-128h32v128h64v-192h32v192h64v-256h32v256h64v-160h32z" fill="#808FA1" p-id="46619"></path><path d="M640 448l186.272 103.488A208 208 0 1 1 640 224.608V448z m-160-16a176 176 0 0 0 296.416 128.384L608 466.816V262.624a176.128 176.128 0 0 0-128 169.376zM384 640h32v256H384v-256z" fill="#27A2DF" p-id="46620"></path><path d="M672 224a192 192 0 0 1 166.88 287.04L672 416V224z m32 173.408l120.096 68.384A160.064 160.064 0 0 0 704 259.2v138.208zM288 704h32v192H288v-192z" fill="#D8D8D8" p-id="46621"></path><path d="M256 382.88a111.424 111.424 0 0 1-51.072-21.184l-46.08 46.08-22.624-22.624 46.08-46.08A111.424 111.424 0 0 1 161.12 288H96V256h65.12a111.424 111.424 0 0 1 21.184-51.072l-46.08-46.08 22.624-22.624 46.08 46.08A111.424 111.424 0 0 1 256 161.12V96h32v65.12a111.424 111.424 0 0 1 51.072 21.184l46.08-46.08 22.624 22.624-46.08 46.08c10.976 14.656 18.464 32.096 21.184 51.072H448v32H382.88a111.424 111.424 0 0 1-21.184 51.072l46.08 46.08-22.624 22.624-46.08-46.08A111.424 111.424 0 0 1 288 382.88V448H256V382.88zM272 352a80 80 0 1 0 0-160 80 80 0 0 0 0 160z" fill="#EF633F" p-id="46622"></path><path d="M480 736h32v160h-32z" fill="#C49F74" p-id="46623"></path><path d="M96 161.088V128a32 32 0 0 1 32-32h33.088A209.088 209.088 0 0 0 96 161.088zM382.912 96H896a32 32 0 0 1 32 32v768a32 32 0 0 1-32 32H128a32 32 0 0 1-32-32V382.912c9.056 14.336 19.84 27.52 32 39.168V896h768V128H422.08a208.96 208.96 0 0 0-39.168-32z" fill="#5D6D7E" p-id="46624"></path></svg>