<svg xmlns="http://www.w3.org/2000/svg" viewBox="0 0 1024 1024" version="1.1"><path d="M736 80a525.76 525.76 0 0 0-340.256 124.224l-4.48 3.776H128a16 16 0 0 0-16 16v512a16 16 0 0 0 16 16h768a16 16 0 0 0 16-16V224a16 16 0 0 0-16-16h-160v-128z" fill="#FFFFFF" p-id="21630"></path><path d="M208.224 624H496a256 256 0 0 1 240-255.52V80C444.384 80 208 316.384 208 608c0 5.344 0.064 10.688 0.224 16z" fill="#E3684E" p-id="21631"></path><path d="M289.12 640C288.384 629.44 288 618.752 288 608c0-247.424 200.576-448 448-448 5.344 0 10.688 0.096 16 0.288V384a240 240 0 0 0-239.488 256h-223.36z" fill="#FFCC64" p-id="21632"></path><path d="M353.312 640A389.12 389.12 0 0 1 352 608c0-212.064 171.936-384 384-384 5.344 0 10.688 0.096 16 0.32V384a240 240 0 0 0-239.488 256h-159.2z" fill="#FFE1A3" p-id="21633"></path><path d="M417.6 640a323.84 323.84 0 0 1-1.6-32c0-176.736 143.264-320 320-320 5.376 0 10.688 0.128 16 0.384V384a240 240 0 0 0-239.488 256H417.6z" fill="#FFF9ED" p-id="21634"></path><path d="M384 193.216a541.856 541.856 0 0 1 368-128.96V192H896a32 32 0 0 1 32 32v512a32 32 0 0 1-32 32H528.832l-0.928 128h161.728a16 16 0 1 1 0 32H336a16 16 0 1 1 0-32h159.904l0.896-128H128a32 32 0 0 1-32-32V224a32 32 0 0 1 32-32h256v1.216zM350.656 224H128v512h768V224h-144v160a240 240 0 0 0-239.488 256H192.96a542.272 542.272 0 0 1 157.76-416z m129.792 384a272.064 272.064 0 0 1 239.552-254.144v-257.6C444.64 104.704 224 330.56 224 608h256.448z" fill="#5D6D7E" p-id="21635"></path></svg>