<svg xmlns="http://www.w3.org/2000/svg" viewBox="0 0 1024 1024" version="1.1"><path d="M272 928a80 80 0 1 1 0-160 80 80 0 0 1 0 160z m480 0a80 80 0 1 1 0-160 80 80 0 0 1 0 160z m-384-288a48 48 0 1 1 0-96 48 48 0 0 1 0 96z m288 0a48 48 0 1 1 0-96 48 48 0 0 1 0 96z m-512 64a48 48 0 1 1 0-96 48 48 0 0 1 0 96z m736 0a48 48 0 1 1 0-96 48 48 0 0 1 0 96zM224 512a32 32 0 1 1 0-64 32 32 0 0 1 0 64z m576 0a32 32 0 1 1 0-64 32 32 0 0 1 0 64z m-384-64a32 32 0 1 1 0-64 32 32 0 0 1 0 64z m192 0a32 32 0 1 1 0-64 32 32 0 0 1 0 64z m-160-128a32 32 0 1 1 0-64 32 32 0 0 1 0 64z m-160 64a32 32 0 1 1 0-64 32 32 0 0 1 0 64z m64-128a32 32 0 1 1 0-64 32 32 0 0 1 0 64z m320 0a32 32 0 1 1 0-64 32 32 0 0 1 0 64z m-48-96a16 16 0 1 1 0-32 16 16 0 0 1 0 32z m-224 0a16 16 0 1 1 0-32 16 16 0 0 1 0 32z m160 32a16 16 0 1 1 0-32 16 16 0 0 1 0 32z m-96 0a16 16 0 1 1 0-32 16 16 0 0 1 0 32z m112 128a32 32 0 1 1 0-64 32 32 0 0 1 0 64z m160 64a32 32 0 1 1 0-64 32 32 0 0 1 0 64z" fill="#5D6D7E" opacity=".3" p-id="34576"></path><path d="M272 896a80 80 0 1 1 0-160 80 80 0 0 1 0 160z m480 0a80 80 0 1 1 0-160 80 80 0 0 1 0 160z" fill="#30AD98" p-id="34577"></path><path d="M144 672a48 48 0 1 1 0-96 48 48 0 0 1 0 96z m736 0a48 48 0 1 1 0-96 48 48 0 0 1 0 96z" fill="#5CBCAC" p-id="34578"></path><path d="M368 608a48 48 0 1 1 0-96 48 48 0 0 1 0 96z m288 0a48 48 0 1 1 0-96 48 48 0 0 1 0 96zM224 480a32 32 0 1 1 0-64 32 32 0 0 1 0 64z m576 0a32 32 0 1 1 0-64 32 32 0 0 1 0 64z" fill="#6CC1B3" p-id="34579"></path><path d="M416 416a32 32 0 1 1 0-64 32 32 0 0 1 0 64z m192 0a32 32 0 1 1 0-64 32 32 0 0 1 0 64zM288 352a32 32 0 1 1 0-64 32 32 0 0 1 0 64z m448 0a32 32 0 1 1 0-64 32 32 0 0 1 0 64z" fill="#83C9BD" p-id="34580"></path><path d="M448 288a32 32 0 1 1 0-64 32 32 0 0 1 0 64z m-96-64a32 32 0 1 1 0-64 32 32 0 0 1 0 64z m320 0a32 32 0 1 1 0-64 32 32 0 0 1 0 64z m-96 64a32 32 0 1 1 0-64 32 32 0 0 1 0 64z" fill="#B2E9E0" p-id="34581"></path><path d="M624 128a16 16 0 1 1 0-32 16 16 0 0 1 0 32z m-224 0a16 16 0 1 1 0-32 16 16 0 0 1 0 32z m160 32a16 16 0 1 1 0-32 16 16 0 0 1 0 32z m-96 0a16 16 0 1 1 0-32 16 16 0 0 1 0 32z" fill="#E6FCF9" p-id="34582"></path></svg>