<svg xmlns="http://www.w3.org/2000/svg" viewBox="0 0 1024 1024" version="1.1"><path d="M512 512m-416 0a416 416 0 1 0 832 0 416 416 0 1 0-832 0Z" fill="#FFFFFF" p-id="42029"></path><path d="M512 96c229.76 0 416 186.24 416 416s-186.24 416-416 416S96 741.76 96 512 282.24 96 512 96z m0 32C299.936 128 128 299.936 128 512s171.936 384 384 384 384-171.936 384-384S724.064 128 512 128z" fill="#5D6D7E" p-id="42030"></path><path d="M512 223.04a16 16 0 0 1 15.744 13.12l0.256 2.88v266.464l155.456 159.584a16 16 0 0 1 1.6 20.448l-1.92 2.176a16 16 0 0 1-20.416 1.6l-2.176-1.92-164.544-168.896V239.04a16 16 0 0 1 16-16z" fill="#27A2DF" p-id="42031"></path></svg>