<svg xmlns="http://www.w3.org/2000/svg" viewBox="0 0 1024 1024" version="1.1"><path d="M866.592 729.6C904.352 747.2 928 772.224 928 800c0 53.024-85.952 96-192 96a373.76 373.76 0 0 1-54.592-3.936A414.528 414.528 0 0 1 512 928C282.24 928 96 741.76 96 512S282.24 96 512 96s416 186.24 416 416a414.08 414.08 0 0 1-61.408 217.6z" fill="#FFFFFF" p-id="15350"></path><path d="M573.28 923.52c-20 2.944-40.48 4.48-61.28 4.48-229.76 0-416-186.24-416-416S282.24 96 512 96s416 186.24 416 416c0 57.696-11.744 112.64-32.96 162.592a296.288 296.288 0 0 0-29.44-12.608c19.584-46.08 30.4-96.768 30.4-149.984 0-212.064-171.936-384-384-384S128 299.936 128 512s171.936 384 384 384c6.24 0 12.48-0.16 18.656-0.448 12.352 10.368 26.688 19.744 42.624 27.968z" fill="#5D6D7E" p-id="15351"></path><path d="M492.416 749.12A112.544 112.544 0 0 0 480 800c0 9.728 1.28 19.264 3.808 28.512l-94.944-88.32 43.584-46.88 59.968 55.776zM432.448 362.24l-43.584-46.848 123.392-114.848 112.704 115.968-45.888 44.608-69.056-71.04-77.568 72.16z m-75.04 75.072l-72.192 77.568 71.04 69.024-44.576 45.92-116-112.704 114.88-123.424 46.848 43.616z m313.088 0l46.848-43.616 114.848 123.424-116 112.704-44.576-45.92 71.04-69.024-72.16-77.568z" fill="#ACB4C0" p-id="15352"></path><path d="M918.4 793.856a281.44 281.44 0 0 0-42.976-38.624C832 723.264 783.424 704 736 704c-47.264 0-95.68 19.456-139.328 51.808-16.96 12.544-32 26.304-43.168 38.816-1.664 1.888-3.2 3.68-4.576 5.376 1.376 1.696 2.88 3.52 4.576 5.376 11.136 12.512 26.24 26.272 43.168 38.816C640.32 876.512 688.736 896 736 896c47.424 0 96-19.264 139.424-51.232 16.96-12.48 32-26.176 43.008-38.624 1.92-2.176 3.648-4.224 5.152-6.144a154.688 154.688 0 0 0-5.152-6.144zM736 928c-123.712 0-224-112.256-224-128s100.288-128 224-128 224 110.592 224 128-100.288 128-224 128z m-59.392-151.872l30.624 9.856a32 32 0 1 0 26.432-17.92l-14.048-29.952A64.096 64.096 0 0 1 800 800a64 64 0 1 1-123.392-23.872z" fill="#C49F74" p-id="15353"></path></svg>