<svg xmlns="http://www.w3.org/2000/svg" viewBox="0 0 1024 1024" version="1.1"><path d="M726.4 176c-158.272-9.216-273.216-3.84-345.536 16.608-93.44 26.368-143.264 107.84-122.944 190.176 21.376 86.56 111.36 145.216 243.232 145.216 225.152 0 330.336 166.912 192.48 284.032-43.712 37.12-163.04 49.76-355.072 35.072l-2.432 31.904c200.512 15.36 325.6 2.112 378.24-42.592C878.816 696.704 752.32 496 501.12 496c-235.712 0-290.528-222.08-111.616-272.608 68.128-19.2 180-24.48 334.976-15.424l1.856-31.936z" fill="#5D6D7E" p-id="16920"></path><path d="M784 288a80 80 0 1 1 0-160 80 80 0 0 1 0 160z m-512 640a80 80 0 1 1 0-160 80 80 0 0 1 0 160z" fill="#FFFFFF" p-id="16921"></path><path d="M784 304a96 96 0 1 0 0-192 96 96 0 0 0 0 192z m0-32a64 64 0 1 1 0-128 64 64 0 0 1 0 128z" fill="#EF633F" p-id="16922"></path><path d="M272 944a96 96 0 1 0 0-192 96 96 0 0 0 0 192z m0-32a64 64 0 1 1 0-128 64 64 0 0 1 0 128z" fill="#30AD98" p-id="16923"></path></svg>