<svg xmlns="http://www.w3.org/2000/svg" viewBox="0 0 1024 1024" version="1.1"><path d="M96 96h832v737.856L896 896l-80.32 32H96z" fill="#FFFFFF" p-id="28064"></path><path d="M616.224 896l0.192 0.384L728.96 896v32H96V96h832v488.16a223.776 223.776 0 0 0-32-18.592V128H128v768h488.224zM704 565.568c-11.2 5.312-21.92 11.52-32 18.56V128h32v437.568z" fill="#ACB4C0" p-id="28065"></path><path d="M288 96h224v832H288V96z m32 32v768h160V128h-160z" fill="#5D6D7E" p-id="28066"></path><path d="M676.032 736H736v32h-128v-128h32v96h3.2a160.064 160.064 0 0 1 316.8 32 160 160 0 0 1-160 160v-32a128 128 0 1 0-123.968-160z" fill="#27A2DF" p-id="28067"></path></svg>