<svg xmlns="http://www.w3.org/2000/svg" viewBox="0 0 1024 1024" version="1.1"><path d="M96 912h734.944l73.728-192.96h-87.488L929.728 544h-329.6l113.12-202.24H296.896l-182.72 254.816 188.192 10.016L240.096 704l-66.944 15.04z" fill="#FFFFFF" p-id="22126"></path><path d="M490.72 521.376c-45.056 23.424-74.112 47.296-74.112 47.296-61.568 26.976-27.2-25.984-76.032-36.864C291.744 520.96 256 476.672 256 476.672c37.6-68.256 135.264-64.352 135.264-64.352 37.12-28.064 110.72-29.984 182.144-27.52 71.392 2.272 10.4 37.44 8.512 64.32-2.08 26.784-46.112 48.864-91.232 72.256zM328.736 704c68.608-44.384 148.576-40.576 148.576-40.576 27.968-24.832 115.584-4.8 162.688-12.448 55.232-8.96 72.192-40.128 135.424-40.672 129.728-1.152 59.2 47.648 27.04 93.696H328.736z" fill="#30AD98" p-id="22127"></path><path d="M218.784 480l-63.04 94.592h196.64L407.36 480H218.784z m21.312-32h185.856l55.776-96H304.032l-63.936 96z m273.632-96l-55.776 96h171.84l63.936-96h-180z m94.72 128H439.36l-54.976 94.592h161.056L608.48 480zM286.912 320h466.56l-190.88 286.592H96L286.912 320z" fill="#808FA1" p-id="22128"></path><path d="M842.336 704h-38.08l20.64-32h-170.336l-20.384 32h-32l20.384-32h-160l-20.384 32h-32l20.384-32H298.208l-20.64 32h-38.08l41.28-64H642.88l40.736-64H638.4l21.856-32h285.184l-103.136 160z m-126.72-128l-40.704 64h170.624l41.248-64h-171.136zM145.536 704h784.192l-81.536 224H64l81.536-224z m27.616 35.168v150.08l19.264-0.256v-113.088l46.144 113.088h18.368l44.864-113.28v113.28l19.456 0.224-0.224-150.08h-24.96L248 858.624 198.08 739.2h-24.928z m225.088-0.448a57.152 57.152 0 0 0-29.856 9.504c-9.824 6.208-17.664 15.52-23.52 27.904a88.96 88.96 0 0 0-8.32 37.856c0 13.248 2.784 25.728 8.32 37.376 5.568 11.68 13.12 20.8 22.656 27.36a53.28 53.28 0 0 0 61.44 0.096 68.16 68.16 0 0 0 22.656-27.456c5.536-11.648 8.384-24.192 8.544-37.6 0-13.12-2.88-25.856-8.64-38.176-5.76-12.32-13.568-21.568-23.424-27.68a56 56 0 0 0-29.856-9.184z m0 19.904c6.56 0 13.248 2.24 20.032 6.784 6.784 4.512 12.064 11.328 15.84 20.48 3.808 9.088 5.76 18.464 5.92 28.096 0 10.048-1.856 19.296-5.568 27.776a49.632 49.632 0 0 1-15.424 20.128c-6.56 4.96-13.504 7.36-20.8 7.2a34.24 34.24 0 0 1-20.8-7.328 47.776 47.776 0 0 1-15.296-20.224 63.68 63.68 0 0 1-5.568-27.232c0.064-9.856 2.016-19.296 5.792-28.32 3.808-9.056 9.088-15.84 15.872-20.352 6.784-4.512 13.44-6.848 20-7.008z m96.704 17.28l69.568 112.448h19.008v-148.768h-20.128v108.736l-68.48-108.48-19.872-0.256v148.768h19.904v-112.448z m218.304 6.784l-1.536-7.008a48.864 48.864 0 0 0-12.896-22.72 45.472 45.472 0 0 0-14.016-8.992 59.424 59.424 0 0 0-21.856-4.384 60.256 60.256 0 0 0-22.08 3.296 51.04 51.04 0 0 0-15.68 8.864c-4.16 3.552-8.32 8.256-12.544 14.08a58.848 58.848 0 0 0-9.312 21.664 123.264 123.264 0 0 0-3.2 25.376c-0.128 7.456 0.16 14.24 0.896 20.352s2.24 12.256 4.48 18.368a52.32 52.32 0 0 0 29.536 30.08c7.52 3.136 14.976 5.024 22.4 5.696 7.456 0.64 15.2 0.96 23.232 0.96h30.4v-75.648l-45.088-0.224v20.8h24.96v35.2h-19.264c-4.064 0-7.904-0.096-11.488-0.224a54.464 54.464 0 0 1-12.576-2.304 36.736 36.736 0 0 1-23.936-22.848 66.304 66.304 0 0 1-4.064-18.176 130.496 130.496 0 0 1-0.224-13.76c0.16-5.856 0.864-11.392 2.08-16.64 1.28-5.248 3.36-10.464 6.368-15.648 2.976-5.152 6.336-9.344 10.048-12.576a28.512 28.512 0 0 1 11.712-6.336 51.2 51.2 0 0 1 12.48-1.536c7.552 0.32 13.472 1.856 17.696 4.704a22.304 22.304 0 0 1 8.544 9.408c1.44 3.424 2.752 6.72 3.936 9.952l20.992 0.224z m75.904-43.968a57.152 57.152 0 0 0-29.856 9.504c-9.856 6.208-17.696 15.52-23.52 27.904a88.96 88.96 0 0 0-8.32 37.856c0 13.248 2.784 25.728 8.32 37.376 5.536 11.68 13.12 20.8 22.656 27.36a53.28 53.28 0 0 0 61.44 0.096 68.16 68.16 0 0 0 22.656-27.456c5.536-11.648 8.384-24.192 8.544-37.6 0-13.12-2.88-25.856-8.64-38.176-5.76-12.32-13.568-21.568-23.424-27.68a56 56 0 0 0-29.856-9.184z m0 19.904c6.56 0 13.248 2.24 20.032 6.784 6.784 4.512 12.064 11.328 15.84 20.48 3.808 9.088 5.76 18.464 5.92 28.096 0 10.048-1.856 19.296-5.6 27.776a49.632 49.632 0 0 1-15.392 20.128c-6.592 4.96-13.504 7.36-20.8 7.2a34.24 34.24 0 0 1-20.8-7.328 47.776 47.776 0 0 1-15.296-20.224 63.68 63.68 0 0 1-5.568-27.232c0.064-9.856 2.016-19.296 5.792-28.32 3.808-9.056 9.088-15.84 15.872-20.352 6.784-4.512 13.44-6.848 20-7.008z" fill="#5D6D7E" p-id="22129"></path><path d="M801.184 152.16l-70.24 70.08a16 16 0 1 1-22.592-22.656l110.592-110.4 107.232 110.56a16 16 0 1 1-22.944 22.304l-70.08-72.224v315.904a16 16 0 1 1-32 0v-313.6z" fill="#27A2DF" p-id="22130"></path></svg>