<svg xmlns="http://www.w3.org/2000/svg" viewBox="0 0 1024 1024" version="1.1"><path d="M142.656 138.944h741.632a32 32 0 0 1 32 32V722.88a32 32 0 0 1-32 32H142.656a32 32 0 0 1-32-32V170.944a32 32 0 0 1 32-32z" fill="#FFFFFF" p-id="36032"></path><path d="M672 864v-32h32v32h128v32h-128v32h-32v-32H192v-32h480zM128 128h768a32 32 0 0 1 32 32v576a32 32 0 0 1-32 32H128a32 32 0 0 1-32-32V160a32 32 0 0 1 32-32z m0 32v576h768V160H128z" fill="#5D6D7E" p-id="36033"></path><path d="M653.76 461.024l-180.48 128.896a16 16 0 0 1-25.28-13.024V319.104a16 16 0 0 1 25.28-13.024l180.48 128.896a16 16 0 0 1 0 26.048z" fill="#27A2DF" p-id="36034"></path></svg>