<svg xmlns="http://www.w3.org/2000/svg" viewBox="0 0 1024 1024" version="1.1"><path d="M511.68 120.672l175.68 88v199.264l-175.68 76.704L352 407.936V208.704l159.68-88zM263.68 536.384l175.68 88v199.264l-175.68 76.672-159.68-76.672v-199.264l159.68-88z m480 0l175.68 88v199.264l-175.68 76.672-159.68-76.672v-199.264l159.68-88z" fill="#FFFFFF" p-id="20246"></path><path d="M432 736h160v32h-160v-32z m-21.92-298.88l21.952 23.296-101.056 95.232-21.952-23.296 101.056-95.2z m192.288-0.544l112 95.232-20.736 24.384-112-95.232 20.736-24.384z" fill="#27A2DF" p-id="20247"></path><path d="M416 636.256l-128 76.8v169.76l128-69.824v-176.736z m8.224-41.216L448 608v224l-176 96L96 832v-224l23.776-12.96 0.448-0.768 0.448 0.256L272 512l151.328 82.56 0.448-0.288 0.448 0.768z m-32.704 18.592L272 548.48l-119.52 65.184 119.52 71.68 119.52-71.68zM128 636.256v176.736l128 69.824v-169.76l-128-76.8z m768 0l-128 76.8v169.76l128-69.824v-176.736z m8.224-41.216L928 608v224l-176 96-176-96v-224l23.776-12.96 0.448-0.768 0.448 0.256L752 512l151.328 82.56 0.448-0.288 0.448 0.768z m-32.704 18.592L752 548.48l-119.52 65.184 119.52 71.68 119.52-71.68zM608 636.256v176.736l128 69.824v-169.76l-128-76.8zM672 232.64l-142.464 79.872-1.28 155.584L672 396.224V232.64z m-14.912-28.32L512 131.776l-143.552 71.776 143.616 82.048 145.024-81.28zM352 231.008v165.216l144.224 72.128 1.28-154.208L352 231.04zM320 192l192-96 192 96v224l-192 96-192-96V192z" fill="#5D6D7E" p-id="20248"></path></svg>