<svg xmlns="http://www.w3.org/2000/svg" viewBox="0 0 1024 1024" version="1.1"><path d="M96 96m32 0l768 0q32 0 32 32l0 768q0 32-32 32l-768 0q-32 0-32-32l0-768q0-32 32-32Z" fill="#FFFFFF" p-id="19750"></path><path d="M638.784 736l-179.392 181.6-22.784-22.464L608 721.6V736h30.784zM608 691.808L99.552 189.6l22.496-22.784 307.84 304.064L576 328V352h21.184l-144.544 141.376L633.504 672H608v19.808zM616.864 288L802.56 106.336l22.4 22.88L640 310.08V288h-23.136zM672 710.048l198.624 196.16-22.496 22.784L652.736 736H672v-25.952z m-25.664-328.16l22.528-22.72 110.4 109.472-22.528 22.72-110.4-109.472zM436.928 171.52l22.144-23.104 128 122.816-22.144 23.072-128-122.784z" fill="#D5D9DF" p-id="19751"></path><path d="M544 256h128v128h-128V256z m32 32v64h64V288h-64z m0 352h128v128h-128v-128z m32 32v64h64v-64h-64z" fill="#30AD98" p-id="19752"></path><path d="M128 96h768a32 32 0 0 1 32 32v768a32 32 0 0 1-32 32H128a32 32 0 0 1-32-32V128a32 32 0 0 1 32-32z m0 32v768h768V128H128z" fill="#5D6D7E" p-id="19753"></path></svg>