<svg xmlns="http://www.w3.org/2000/svg" viewBox="0 0 1024 1024" version="1.1"><path d="M96 96m32 0l768 0q32 0 32 32l0 768q0 32-32 32l-768 0q-32 0-32-32l0-768q0-32 32-32Z" fill="#FFFFFF" p-id="19999"></path><path d="M801.536 896l34.432 32H128a32 32 0 0 1-32-32V128a32 32 0 0 1 32-32h768a32 32 0 0 1 32 32v696.896l-32-30.56V128H128v768h673.536z m-17.6-146.08a32 32 0 0 1 30.912 8.288L928 871.328a32 32 0 1 1-45.248 45.28l-113.152-113.152a32 32 0 0 1-8.288-30.912l-39.68-39.68 22.592-22.656 39.712 39.712z" fill="#5D6D7E" p-id="20000"></path><path d="M512 832c176.736 0 320-143.264 320-320S688.736 192 512 192 192 335.264 192 512s143.264 320 320 320z m0-32a288 288 0 1 1 0-576 288 288 0 0 1 0 576z" fill="#6F8193" p-id="20001"></path><path d="M672 352v288h-64v-144L544 640h-64l-64-144V640H352V352h64l96 216L608 352h64z" fill="#27A2DF" p-id="20002"></path></svg>