<svg xmlns="http://www.w3.org/2000/svg" viewBox="0 0 1024 1024" version="1.1"><path d="M112 112m32 0l736 0q32 0 32 32l0 736q0 32-32 32l-736 0q-32 0-32-32l0-736q0-32 32-32Z" fill="#FFFFFF" p-id="50624"></path><path d="M256 416h160v416H256z" fill="#C49F74" p-id="50625"></path><path d="M448 224h160v608h-160z" fill="#30AD98" p-id="50626"></path><path d="M640 544h160v288h-160z" fill="#27A2DF" p-id="50627"></path><path d="M160 800h704v32H160z" fill="#808FA1" p-id="50628"></path><path d="M128 96h768a32 32 0 0 1 32 32v768a32 32 0 0 1-32 32H128a32 32 0 0 1-32-32V128a32 32 0 0 1 32-32z m0 32v768h768V128H128z" fill="#5D6D7E" p-id="50629"></path></svg>