<svg xmlns="http://www.w3.org/2000/svg" viewBox="0 0 1024 1024" version="1.1"><path d="M96 96m32 0l768 0q32 0 32 32l0 768q0 32-32 32l-768 0q-32 0-32-32l0-768q0-32 32-32Z" fill="#FFFFFF" p-id="19053"></path><path d="M128 96h352v384H128z" fill="#F0F0F0" opacity=".5" p-id="19054"></path><path d="M480 512H128v-32h768v32H512v384h-32V512z" fill="#ACB4C0" p-id="19055"></path><path d="M512 512h384v384H512V512z m32-352h320v32H544V160z m0 64h320v32H544V224z m0 64h320v32H544V288z" fill="#ACB4C0" opacity=".5" p-id="19056"></path><path d="M384 96v32H128v768h768V480h32v416a32 32 0 0 1-32 32H128a32 32 0 0 1-32-32V128a32 32 0 0 1 32-32h256z" fill="#5D6D7E" p-id="19057"></path><path d="M733.664 416L608 544v-128h-128a32 32 0 0 1-32-32V96a32 32 0 0 1 32-32h448a32 32 0 0 1 32 32v288a32 32 0 0 1-32 32h-194.336zM640 465.728L720.256 384H928V96H480v288h160v81.728z" fill="#27A2DF" p-id="19058"></path><path d="M544 160h160v32h-160z" fill="#30AD98" p-id="19059"></path></svg>