<svg xmlns="http://www.w3.org/2000/svg" viewBox="0 0 1024 1024" version="1.1"><path d="M128 128h768v768H128z" fill="#FFFFFF" p-id="50126"></path><path d="M160 864V160h320c85.344 64 128 117.344 128 160 0 27.616-82.592 30.496-128 144-26.688 66.752-42.368 185.888-136.224 208-37.76 8.896-61.024 110.816-119.776 192-8.352 11.52-29.696 11.52-64 0z m416-256v128c0 21.344-10.656 64-32 128-64-21.344-96-53.344-96-96s42.656-96 128-160z m288-256v512h-128c-74.656-85.344-85.344-160-32-224 53.344-64 53.344-106.656 0-128l160-160z" fill="#B7BFC8" p-id="50127"></path><path d="M128 128v768h768V128H128z m0-32h768a32 32 0 0 1 32 32v768a32 32 0 0 1-32 32H128a32 32 0 0 1-32-32V128a32 32 0 0 1 32-32z" fill="#5D6D7E" p-id="50128"></path><path d="M736 512V288H288v224h224V288h32v224h192z m0 32h-192v192h192v-192z m-224 192v-192H288v192h224zM256 256h512v512H256V256z" fill="#30AD98" p-id="50129"></path></svg>