<svg xmlns="http://www.w3.org/2000/svg" viewBox="0 0 1024 1024" version="1.1"><path d="M112 112m32 0l736 0q32 0 32 32l0 736q0 32-32 32l-736 0q-32 0-32-32l0-736q0-32 32-32Z" fill="#FFFFFF" p-id="48054"></path><path d="M704 736a32 32 0 0 0 32-32h160v32h-160v160h-32v-160z m-160 0v160h-32v-160h32z m-224 0v160H288v-160H128v-32h160a32 32 0 0 0 32 32z m-32-192H128v-32h160v32z m0-224H128V288h160V128h32v160a32 32 0 0 0-32 32z m224-32V128h32v160h-32z m192 0V128h32v160h160v32h-160a32 32 0 0 0-32-32z m32 224h160v32h-160v-32z" fill="#ACB4C0" opacity=".5" p-id="48055"></path><path d="M320 288h384a32 32 0 0 1 32 32v384a32 32 0 0 1-32 32H320a32 32 0 0 1-32-32V320a32 32 0 0 1 32-32z m0 32v384h384V320H320z m128 96h128a32 32 0 0 1 32 32v128a32 32 0 0 1-32 32h-128a32 32 0 0 1-32-32v-128a32 32 0 0 1 32-32z m0 32v128h128v-128h-128z" fill="#30AD98" p-id="48056"></path><path d="M128 96h768a32 32 0 0 1 32 32v768a32 32 0 0 1-32 32H128a32 32 0 0 1-32-32V128a32 32 0 0 1 32-32z m0 32v768h768V128H128z" fill="#5D6D7E" p-id="48057"></path></svg>