<svg xmlns="http://www.w3.org/2000/svg" viewBox="0 0 1024 1024" version="1.1"><path d="M112 112m32 0l736 0q32 0 32 32l0 736q0 32-32 32l-736 0q-32 0-32-32l0-736q0-32 32-32Z" fill="#FFFFFF" p-id="49138"></path><path d="M128 96h768a32 32 0 0 1 32 32v768a32 32 0 0 1-32 32H128a32 32 0 0 1-32-32V128a32 32 0 0 1 32-32z m0 32v768h768V128H128z m480 64h160v32h-160V192z m192 0h64v32h-64V192zM128 256h768v32H128V256z" fill="#5D6D7E" p-id="49139"></path><path d="M400.48 514.368l229.248-137.536 44.736 179.008-66.624-66.624-11.296 11.616c-72.128 74.048-106.176 142.08-100.48 204.608 5.728 62.848 41.28 110.272 104.96 140.96l13.92-28.8c-53.952-26.016-82.368-63.904-87.04-115.04-4.384-48.48 21.952-104.48 80.384-167.648l125.248 125.248L650.24 327.168 239.52 573.632l224.64-37.44c-47.424 48.448-79.04 91.552-94.944 129.664-20.128 48.32-20.128 115.456-0.832 201.632l31.232-6.976c-17.984-80.32-17.984-141.216-0.832-182.368 17.6-42.208 58.944-93.92 124.096-154.432l39.04-36.256-161.44 26.88z" fill="#808FA1" p-id="49140"></path></svg>