<svg xmlns="http://www.w3.org/2000/svg" viewBox="0 0 1024 1024" version="1.1"><path d="M96 96m48 0l736 0q48 0 48 48l0 736q0 48-48 48l-736 0q-48 0-48-48l0-736q0-48 48-48Z" fill="#FFFFFF" p-id="24221"></path><path d="M864 896h32v-32h32v32a32 32 0 0 1-32 32h-32v-32z m-192 0v32H128a32 32 0 0 1-32-32V128a32 32 0 0 1 32-32h768a32 32 0 0 1 32 32v480h-32V128H128v768h544zM608 161.152h32v62.784l-32 0.096V161.152zM640 352h-32V290.016h32V352z m0 127.968h-32v-63.52h32v63.52z m0 126.72h-32V544h32v62.72z" fill="#5D6D7E" p-id="24222"></path><path d="M416 384v352H352V384H192V320h384v64h-160z" fill="#808FA1" p-id="24223"></path><path d="M783.776 718.496h113.536v-64l96 80-96 80v-64h-113.536V864h65.728l-80 96-80-96h62.272v-113.504H640v65.728l-96-80 96-80v62.272h111.776v-111.808h-64l80-96 80 96h-64v111.808z" fill="#27A2DF" p-id="24224"></path></svg>