<svg xmlns="http://www.w3.org/2000/svg" viewBox="0 0 1024 1024" version="1.1"><path d="M144 144a32 32 0 0 0-32 32v704a32 32 0 0 0 32 32h736a32 32 0 0 0 32-32v-704a32 32 0 0 0-32-32h-736z" fill="#FFFFFF" p-id="21481"></path><path d="M128 128h768a32 32 0 0 1 32 32v736a32 32 0 0 1-32 32H128a32 32 0 0 1-32-32V160a32 32 0 0 1 32-32z m0 32v736h768V160H128z" fill="#5D6D7E" p-id="21482"></path><path d="M768 224v32h-160V224h160z m32 0h64v32h-64V224z" fill="#B7BEC8" p-id="21483"></path><path d="M608 288h320v32H96V96h512z" fill="#27A2DF" p-id="21484"></path></svg>