<svg xmlns="http://www.w3.org/2000/svg" viewBox="0 0 1024 1024" version="1.1"><path d="M176 112m32 0l608 0q32 0 32 32l0 736q0 32-32 32l-608 0q-32 0-32-32l0-736q0-32 32-32Z" fill="#FFFFFF" p-id="43537"></path><path d="M192 96h640a32 32 0 0 1 32 32v768a32 32 0 0 1-32 32H192a32 32 0 0 1-32-32V128a32 32 0 0 1 32-32z m0 32v768h640V128H192z" fill="#5D6D7E" p-id="43538"></path><path d="M576 416.224h128.864v163.84a32 32 0 0 1-9.152 26.336l-183.264 183.264a32 32 0 0 1-45.28 0l-135.744-135.744a32 32 0 0 1 0-45.28L448 492.064v45.248l-93.952 93.952 135.744 135.776 183.296-183.264V448H576v-31.776z m-27.744 156.608a48 48 0 1 1 67.872-67.872 48 48 0 0 1-67.872 67.84z m22.624-22.624a16 16 0 1 0 22.624-22.624 16 16 0 0 0-22.624 22.624zM96 208a16 16 0 0 1 32 0v608.768a16 16 0 0 1-32 0V208z m800 0a16 16 0 1 1 32 0v608.768a16 16 0 0 1-32 0V208z" fill="#808FA1" p-id="43539"></path><path d="M528 256.608v192.064a16 16 0 0 1-32 0V259.616l-66.944 72.8a16 16 0 0 1-23.552-21.664L514.72 192l102.24 119.136a16 16 0 0 1-24.288 20.864L528 256.608z" fill="#30AD98" p-id="43540"></path></svg>