<svg xmlns="http://www.w3.org/2000/svg" viewBox="0 0 1024 1024" version="1.1"><path d="M64 512a448 288 0 1 0 896 0 448 288 0 1 0-896 0Z" fill="#FFFFFF" p-id="30629"></path><path d="M459.904 239.616l16.832 27.2c-24.448 15.168-47.296 45.632-64.224 87.104l-29.632-12.064C401.984 295.04 428.8 258.912 459.904 239.616zM352 512c0-15.52 0.672-30.72 1.984-45.568l31.872 2.816a486.304 486.304 0 0 0 4.192 118.944l-31.584 5.12A505.92 505.92 0 0 1 352 512z m74.432 187.36c21.376 38.784 47.744 62.144 73.76 67.424l-6.4 31.36c-37.12-7.552-70.4-38.016-95.392-83.36l28.032-15.424z m506.88-263.328l-23.488 21.696c-15.008-16.256-38.592-32.16-69.44-46.464l13.44-29.024c34.08 15.776 61.216 33.952 79.52 53.792z m-172.32-86.368l-8.128 30.944c-28.16-7.392-58.56-13.504-90.56-18.144l4.576-31.68c33.408 4.864 64.96 11.2 94.112 18.88z m-187.68-28.032l-1.696 31.968a1110.368 1110.368 0 0 0-93.856-1.088l-0.96-32c11.616-0.32 76.48 0.032 96.512 1.12z m-192.32 6.016l3.808 31.776c-32 3.84-62.624 9.12-91.264 15.68l-7.168-31.2a907.744 907.744 0 0 1 94.624-16.256zM194.24 371.904l11.776 29.76c-31.456 12.448-57.184 26.56-76 41.504l-19.904-25.056c21.6-17.152 50.112-32.768 84.16-46.208z" fill="#8190A2" p-id="30630"></path><path d="M657.984 630.016c143.072-20.16 248.096-68.032 266.976-118.016H928c0-121.792-144.096-228.48-337.92-251.424C638.976 309.856 672 403.968 672 512a489.28 489.28 0 0 1-14.016 118.016z m-9.984 33.728c-14.272 41.408-34.24 75.84-57.92 99.68 161.12-19.072 287.872-96 326.08-191.36-52.992 43.36-149.92 76.896-268.16 91.68z m-35.456 3.808C580.224 670.4 546.56 672 512 672c-178.112 0-331.936-40.832-404.16-99.968C152.064 682.368 314.72 768 512 768c38.688 0 76.224-39.008 100.544-100.48z m11.2-33.344C634.016 598.112 640 556.576 640 512c0-143.744-62.368-256-128-256C280.064 256 96 374.336 96 512h3.04c24.864 65.824 199.136 128 412.96 128a1069.76 1069.76 0 0 0 111.776-5.76zM512 800C264.576 800 64 671.04 64 512s200.576-288 448-288 448 128.96 448 288-200.576 288-448 288z" fill="#5D6D7E" p-id="30631"></path></svg>