<svg xmlns="http://www.w3.org/2000/svg" viewBox="0 0 1024 1024" version="1.1"><path d="M224 704v-64h224v64h64v224H160v-224h64z m320-320h320v544H544V384z" fill="#FFFFFF" p-id="21385"></path><path d="M352 640h96v64h64v192h32V384h320v512h64v32H96v-32h64v-192h64v-64h96v-128h32v128zM320 256V160h32v96h32v32H288V256h32z m-128 64V256h64v34.144H224V352H192v64H160v-96h32z m320 0v96h-32l2.4-64H448V288h-32 32-32V256h64l1.6 64H512zM256 704h160v-32H256v32z m224 32H192v160h288v-160z m96-320v480h256V416h-256z m32-288h-64V96h64v32z m128 0h-64V96h64v32h-64 64z m64 0V96h64v32h-64z m32 96V160h32v64h-32V160v64z m0 128V288h32v64h-32V288v64z m-256 0h-32V288h32v64-64 64z m0-128V160v64h-32V160h32v64z m-288 128v-32h96v32H288z m192 192v-64h32v64h-32v-64 64z m0 128v-64h32v64h-32v-64 64z m-288-64v64H160v-64h32v64-64z m0-128v64H160v-64h32v64-64z m416 128h64v96h-64v-96z m128 0h64v96h-64v-96z m-128 160h64v96h-64v-96z m128 0h64v96h-64v-96z m-128-320h64v96h-64v-96z m128 0h64v96h-64v-96zM224 800h224v32H224v-32z" fill="#5D6D7E" p-id="21386"></path><path d="M320 256V160h32v96h32v32H288V256h32z m-128 64V256h64v34.144H224V352H192v64H160v-96h32z m320 0v96h-32l2.4-64H448V288h-32 32-32V256h64l1.6 64H512z m96-192h-64V96h64v32z m128 0h-64V96h64v32h-64 64z m64 0V96h64v32h-64z m32 96V160h32v64h-32V160v64z m0 128V288h32v64h-32V288v64z m-256 0h-32V288h32v64-64 64z m0-128V160v64h-32V160h32v64z m-288 128v-32h96v32H288z m192 192v-64h32v64h-32v-64 64z m0 128v-64h32v64h-32v-64 64z m-288-64v64H160v-64h32v64-64z m0-128v64H160v-64h32v64-64z" fill="#27A2DF" p-id="21387"></path></svg>