<svg xmlns="http://www.w3.org/2000/svg" viewBox="0 0 1024 1024" version="1.1"><path d="M512 112l384 224V704l-304.544 177.632L512 912l-384-224v-352z" fill="#FFFFFF" p-id="20693"></path><path d="M576 659.04v37.568L512 736l-224-137.856v-146.752L160 363.84v321.792l352 205.312 72.768-42.432c2.944 10.56 6.56 20.8 10.88 30.72L512 928 128 704V320l384-224 384 224v251.68a238.208 238.208 0 0 0-32-8.864v-200l-128 78.144v139.328h-32v-136.576l-192-118.144-192 118.144v136.576l192 118.144 64-39.36z m277.056-327.04L512 133.056 170.496 332.256l127.68 87.328L512 288l205.76 126.624 135.296-82.624z" fill="#5D6D7E" p-id="20694"></path><path d="M896 896h64v32h-128v-128h32v78.88A127.936 127.936 0 0 0 928 768c0-47.36-25.728-88.736-64-110.88v-35.808A160.032 160.032 0 0 1 896 896z" fill="#30AD98" p-id="20695"></path><path d="M704 672h-64v-32h128v128h-32v-78.88A127.936 127.936 0 0 0 672 800c0 47.36 25.728 88.736 64 110.88v35.808A160.032 160.032 0 0 1 704 672z" fill="#27A2DF" p-id="20696"></path></svg>