<svg xmlns="http://www.w3.org/2000/svg" viewBox="0 0 1024 1024" version="1.1"><path d="M512 79.808l384 217.92v367.296l-384 249.376-383.712-249.376V297.728L512 79.808z" fill="#FFFFFF" p-id="34281"></path><path d="M631.008 145.792l-15.936 27.744-111.04-63.68 9.504-30.048 117.44 65.984z m166.56 95.488l-15.904 27.776-111.04-63.68 15.904-27.744 111.04 63.68zM896 394.784h-32v-73.92l23.968-27.744 8.032 4.608v97.056z m0 192h-32v-128h32v128z m-101.92 144.48l-17.44-26.816 101.92-66.24 17.44 26.816-101.92 66.24zM625.824 841.6l-17.44-26.848 107.328-69.76 17.44 26.816-107.328 69.76z m-339.584-73.28l17.408-26.816 107.424 69.6-17.408 26.848-107.424-69.6z m-140.544-130.112l96.96 62.848-17.408 26.848-96.96-62.848 17.408-26.88z m-17.408-185.376h32v128h-32v-128z m32-131.936v67.936h-32V297.728l8-4.608 24 27.744z m182.624-146.304l15.936 27.776-111.04 63.68-15.904-27.744 111.04-63.68z m169.856-94.72l7.2 30.048-105.6 60.576-15.936-27.744 114.336-62.912z" fill="#808FA1" p-id="34282"></path><path d="M528.768 721.696l207.84-116.672v-194.4l-207.84 109.76v201.312z m-32 0v-200.512l-207.84-110.4v194.24l207.84 116.672zM300.224 380.544l211.808 112.512 213.152-112.576-212.416-120.864-212.544 120.928z m212.544-157.376L768.64 368v256l-255.84 143.168L256.96 624v-256l255.84-144.832z" fill="#5D6D7E" p-id="34283"></path><path d="M464.192 832h97.408v96h-97.408v-96zM96 256h96.544v96H96V256z m736 0h96v96h-96V256z" fill="#30AD98" p-id="34284"></path></svg>