<svg xmlns="http://www.w3.org/2000/svg" viewBox="0 0 1024 1024" version="1.1"><path d="M448 544a32 32 0 0 1 32 32v256a32 32 0 0 1-32 32H128a32 32 0 0 1-32-32v-256a32 32 0 0 1 32-32h320z m448 0a32 32 0 0 1 32 32v256a32 32 0 0 1-32 32H576a32 32 0 0 1-32-32v-256a32 32 0 0 1 32-32h320z m0-384a32 32 0 0 1 32 32v256a32 32 0 0 1-32 32H576a32 32 0 0 1-32-32V192a32 32 0 0 1 32-32h320zM448 160a32 32 0 0 1 32 32v256a32 32 0 0 1-32 32H128a32 32 0 0 1-32-32V192a32 32 0 0 1 32-32h320z" fill="#FFFFFF" p-id="41155"></path><path d="M896 160a32 32 0 0 1 32 32v256a32 32 0 0 1-32 32H576a32 32 0 0 1-32-32V192a32 32 0 0 1 32-32h320z m0 32H576v256h320V192z" fill="#27A2DF" p-id="41156"></path><path d="M448 544a32 32 0 0 1 32 32v256a32 32 0 0 1-32 32H128a32 32 0 0 1-32-32v-256a32 32 0 0 1 32-32h320z m448 0a32 32 0 0 1 32 32v256a32 32 0 0 1-32 32H576a32 32 0 0 1-32-32v-256a32 32 0 0 1 32-32h320z m-448 32H128v256h320v-256z m448 0H576v256h320v-256zM448 160a32 32 0 0 1 32 32v256a32 32 0 0 1-32 32H128a32 32 0 0 1-32-32V192a32 32 0 0 1 32-32h320z m0 32H128v256h320V192z" fill="#5D6D7E" p-id="41157"></path></svg>