<svg xmlns="http://www.w3.org/2000/svg" viewBox="0 0 1024 1024" version="1.1"><path d="M96 96m48 0l736 0q48 0 48 48l0 736q0 48-48 48l-736 0q-48 0-48-48l0-736q0-48 48-48Z" fill="#FFFFFF" p-id="24318"></path><path d="M459.008 529.6l3.52 7.68c27.616 59.968 55.328 93.024 80.96 100.16 34.56 9.6 90.752 49.248 171.072 119.616l12.032 10.56-21.12 24.064-12.032-10.56c-76.576-67.136-130.24-105.024-158.496-112.864-32-8.896-61.024-39.488-88.416-91.104-0.864 4.48-1.632 9.056-2.336 13.632C420.896 742.56 304.832 823.264 96 894.72V256h642.784l26.784 26.784c-164.096 46.016-266.304 128.32-306.56 246.848z m-46.464 56.32c20.8-135.52 103.04-235.168 243.424-297.92H128v561.28c184.64-68.992 266.208-143.744 284.544-263.36z" fill="#C49F74" p-id="24319"></path><path d="M128 256h768V128H128v128z m768 32H128v608h576v-192h192V288z m0 448l-160 160h160v-160zM608 192h160v32h-160V192z m192 0h64v32h-64V192z m-64 544v114.752L850.752 736H736zM128 96h768a32 32 0 0 1 32 32v768a32 32 0 0 1-32 32H128a32 32 0 0 1-32-32V128a32 32 0 0 1 32-32z" fill="#5D6D7E" p-id="24320"></path></svg>