<svg xmlns="http://www.w3.org/2000/svg" viewBox="0 0 1024 1024" version="1.1"><path d="M112 816h800v96h-800z" fill="#FFFFFF" p-id="33263"></path><path d="M96 864h160v64H96v-64z m160-64h160v64H256v-64z m352 0h160v64h-160v-64z m160 64h160v64h-160v-64z m-352 0h192v64h-192v-64z" fill="#5D6D7E" p-id="33264"></path><path d="M152.832 619.008V209.056c0-3.68-1.472-7.36-5.152-8.832l-33.152-18.4c-2.208-1.472-3.68-2.944-3.68-5.152s2.944-4.416 7.36-5.888c29.44-9.568 58.144-30.912 69.184-45.632 2.24-2.944 3.68-5.152 6.624-5.152h8.832c2.24 0 3.68 2.208 3.68 3.68 0 17.664-2.208 44.896-2.208 80.224v415.104c0 8.832 1.472 15.456 6.624 20.608l22.08 21.344c2.24 2.208 5.152 4.416 5.152 6.624 0 2.208-0.736 4.416-4.416 4.416h-110.4c-2.944 0-4.416-2.208-4.416-4.416s2.944-4.416 5.152-6.624l22.08-21.344c5.152-5.152 6.624-11.776 6.624-20.608z m131.744-21.344c19.84 0 27.2 19.136 27.2 37.536 0 17.664-7.36 36.8-27.2 36.8-19.136 0-26.496-19.136-26.496-36.8 0-18.4 7.36-37.536 26.496-37.536z m0-278.208c19.84 0 27.2 19.136 27.2 36.8 0 18.4-7.36 37.536-27.2 37.536-19.136 0-26.496-19.136-26.496-37.536 0-17.664 7.36-36.8 26.496-36.8z m105.952-129.536l-7.36 140.576h1.472c10.304-8.832 22.816-18.4 41.248-18.4 47.104 0 80.224 68.448 80.224 161.184 0 120.704-24.32 198.72-89.824 198.72-51.52 0-75.072-75.072-75.072-139.84 0-5.888 1.472-9.568 4.416-9.568 5.152 0 8.096 2.208 8.096 8.832 0 30.912 26.528 103.776 54.496 103.776 29.44 0 43.424-36.064 43.424-158.976 0-83.168-8.864-127.328-37.568-127.328-18.368 0-38.976 27.968-55.168 50.784-3.68 5.152-8.096 11.776-13.984 11.776-5.152 0-6.624-2.944-6.624-8.832l13.984-271.584c0-5.888 2.912-9.568 6.624-9.568 5.888 0 13.984 2.208 19.84 5.152 16.96 7.36 33.12 11.776 51.52 11.776a141.44 141.44 0 0 0 52.992-10.304c11.04-4.416 16.96-8.096 22.08-8.096 5.184 0 0 19.872-16.16 40.48-14.016 16.928-35.36 28.704-57.44 28.704-13.248 0-27.968-1.472-35.328-4.416-3.648-1.472-5.888 1.472-5.888 5.152z m250.976-69.92c73.6 0 92 127.328 92 246.56 0 178.112-18.4 305.44-92 305.44-74.304 0-92.736-127.328-92.736-305.44 0-119.232 18.4-246.56 92.736-246.56z m0 515.2c27.232 0 37.568-51.52 37.568-270.848 0-156.032-10.336-207.552-37.568-207.552-27.936 0-38.272 51.52-38.272 207.552 0 219.328 10.336 270.848 38.304 270.848z m225.952-515.2c73.6 0 92 127.328 92 246.56 0 178.112-18.4 305.44-92 305.44-74.336 0-92.736-127.328-92.736-305.44 0-119.232 18.4-246.56 92.736-246.56z m0 515.2c27.232 0 37.568-51.52 37.568-270.848 0-156.032-10.336-207.552-37.568-207.552-27.936 0-38.24 51.52-38.24 207.552 0 219.328 10.304 270.848 38.24 270.848z" fill="#27A2DF" p-id="33265"></path></svg>