<svg xmlns="http://www.w3.org/2000/svg" viewBox="0 0 1024 1024" version="1.1"><path d="M358.016 240l4.512-3.968L352 240h6.016z m456.448 0H832V224l-11.328-11.328-6.304 6.336 0.096 20.992z m1.504 426.016l0.032 6.048 3.968-10.592-4 4.544zM600.736 912l-4.8 5.44 12.064-5.44h-7.264zM112 912H96l16 16v-16z m0-456.736V448l-5.44 12.032 5.44-4.8z" fill="#FFFFFF" p-id="21433"></path><path d="M832 224v32l-1.504 1.28L832 672l-224 256H96V448l256-224h480zM144.608 448H576l219.424-192H364.032l-219.424 192z m654.016-162.784L608 452v427.392l191.968-219.36-1.344-374.816zM576 896V480H128v416h448z" fill="#5D6D7E" p-id="21434"></path><path d="M416 150.624l-52.672 52.704a16 16 0 1 1-22.656-22.656L432 89.376l91.328 91.296a16 16 0 0 1-22.656 22.656L448 150.624V352h96v32h-128V150.624zM905.376 544l-52.704-52.672a16 16 0 0 1 22.656-22.656l91.296 91.328-91.296 91.328a16 16 0 0 1-22.656-22.656L905.376 576H715.84l-74.112 86.56-24.32-20.8L704 540.64V480h32v59.2l5.6 4.8h163.776zM310.624 800H368a16 16 0 1 1 0 32H256v-112a16 16 0 1 1 32 0v57.376L393.376 672l-84.704-84.672 22.656-22.656L406.624 640H480v32h-41.376l-128 128z" fill="#27A2DF" p-id="21435"></path></svg>