<svg xmlns="http://www.w3.org/2000/svg" viewBox="0 0 1024 1024" version="1.1"><path d="M832 96a32 32 0 0 1 32 32v468.928c0 9.92 13.728 14.56 13.728 23.808 0 8.48-13.728 21.632-13.728 29.568V704h58.112v64H864l13.728 88.16c0 17.664-28.064 39.84-45.728 39.84H192a32 32 0 0 1-32-32V128a32 32 0 0 1 32-32h640z" fill="#FFFFFF" p-id="44031"></path><path d="M832 96a32 32 0 0 1 32 32v465.92a32.064 32.064 0 0 0-32-0.224V128H192v736h401.92c1.344 2.304 3.008 4.48 4.992 6.432l2.656 2.656a32 32 0 0 0 45.248 0l9.088-9.088 8.224 0.064c9.056 5.088 18.72 9.28 28.832 12.352l9.184 2.496V896H192a32 32 0 0 1-32-32V128a32 32 0 0 1 32-32h640z m-15.936 768l9.12 9.088a32 32 0 0 0 34.4 7.136A32 32 0 0 1 832 896h-62.112v-17.088a145.952 145.952 0 0 0 43.2-17.92l-5.248 3.008h8.224z" fill="#5D6D7E" p-id="44032"></path><path d="M321.888 455.872c11.36 6.816 21.184 15.904 28.832 26.688l3.648 5.536 11.744 19.2a59.072 59.072 0 0 0 96.192 6.496l3.008-4.032 16.992-24.928a71.84 71.84 0 0 1 120.48 2.752 16 16 0 1 1-27.2 16.832 39.84 39.84 0 0 0-64.192-4.992l-2.656 3.456-16.96 24.928a91.072 91.072 0 0 1-149.824 0.992l-3.136-4.8-11.744-19.2a63.712 63.712 0 0 0-106.176-3.904l-2.88 4.384-3.104 5.248a103.296 103.296 0 0 1-169.28 11.456 16 16 0 0 1 24.96-19.968 71.296 71.296 0 0 0 113.344-2.624l3.52-5.312 3.136-5.248a95.712 95.712 0 0 1 131.296-32.96z m0-96c11.36 6.816 21.184 15.904 28.832 26.688l3.648 5.536 3.168 5.12a62.144 62.144 0 0 0 103.68 3.584l3.744-5.92a90.016 90.016 0 0 1 153.344-5.312l3.68 6.08a80 80 0 0 0 123.936 20.16l4.48-4.384 5.92-6.336a16 16 0 0 1 25.152 19.552l-1.792 2.272-5.92 6.368a112 112 0 0 1-179.744-22.112 58.016 58.016 0 0 0-98.56-4.768l-3.008 4.896a94.144 94.144 0 0 1-158.976 7.616l-3.264-4.992-3.136-5.12a63.712 63.712 0 0 0-106.176-3.904l-2.88 4.384-3.104 5.248a103.296 103.296 0 0 1-169.28 11.456 16 16 0 0 1 24.96-19.968 71.296 71.296 0 0 0 113.344-2.624l3.52-5.312 3.136-5.248a95.712 95.712 0 0 1 131.296-32.96z m0-96c11.36 6.816 21.184 15.904 28.832 26.688l3.648 5.536 3.168 5.12a62.144 62.144 0 0 0 103.68 3.584l3.744-5.92a90.016 90.016 0 0 1 153.344-5.312l3.68 6.08a80 80 0 0 0 123.936 20.16l4.48-4.384 5.92-6.336a16 16 0 0 1 25.152 19.552l-1.792 2.272-5.92 6.368a112 112 0 0 1-179.744-22.112 58.016 58.016 0 0 0-98.56-4.768l-3.008 4.896a94.144 94.144 0 0 1-158.976 7.616l-3.264-4.992-3.136-5.12a63.712 63.712 0 0 0-106.176-3.904l-2.88 4.384-3.104 5.248a103.296 103.296 0 0 1-169.28 11.456 16 16 0 1 1 24.96-19.968 71.296 71.296 0 0 0 113.344-2.624l3.52-5.312 3.136-5.248a95.712 95.712 0 0 1 131.296-32.96z" fill="#30AD98" p-id="44033"></path><path d="M737.888 528a48 48 0 0 1 47.776 43.392l0.224 4.64v4.96l4.352 1.44 8.096 3.104 7.904 3.52 4.032 2.08 3.584-3.52a48 48 0 0 1 60.352-6.176l3.904 2.88 3.648 3.264 2.656 2.656a48 48 0 0 1 3.296 64.224l-3.296 3.648-3.584 3.552 2.08 4.096 3.52 7.904 3.136 8.096 1.376 4.352H896a48 48 0 0 1 47.136 38.88l0.64 4.48 0.224 4.64v3.776a48 48 0 0 1-43.392 47.776l-4.64 0.224-5.024-0.032-1.376 4.384-3.104 8.096-3.52 7.904-2.112 4.064 3.584 3.552a48 48 0 0 1 6.144 60.352l-2.88 3.904-3.264 3.648-2.656 2.656a48 48 0 0 1-64.224 3.296l-3.648-3.296-3.616-3.584-4.032 2.08-7.904 3.52-8.096 3.136-4.384 1.408V896a48 48 0 0 1-38.848 47.136l-4.48 0.64-4.64 0.224h-3.776a48 48 0 0 1-47.776-43.392l-0.224-4.64v-4.992l-4.352-1.408-8.096-3.104-7.904-3.52-4.096-2.112-3.52 3.584a48 48 0 0 1-60.352 6.144l-3.904-2.88-3.648-3.264-2.656-2.656a48 48 0 0 1-3.296-64.224l3.296-3.648 3.52-3.616-2.016-4.032-3.52-7.904-3.136-8.096-1.44-4.384H576a48 48 0 0 1-47.136-38.848l-0.64-4.48-0.224-4.64v-3.776a48 48 0 0 1 43.392-47.776l4.64-0.224h4.96l1.44-4.352 3.104-8.096 3.52-7.904 2.048-4.064-3.52-3.552a48 48 0 0 1-6.144-60.352l2.88-3.904 3.264-3.648 2.656-2.656a48 48 0 0 1 64.224-3.296l3.648 3.296 3.552 3.552 4.096-2.048 7.904-3.52 8.096-3.136 4.32-1.44 0.032-4.992a48 48 0 0 1 38.88-47.136l4.48-0.64 4.64-0.224h3.776z m0 32h-3.776a16 16 0 0 0-15.744 13.12l-0.256 2.88 0.032 29.76-12.32 2.912c-10.912 2.56-21.408 6.528-31.232 11.776l-7.232 4.16-10.784 6.656-21.056-21.056a16 16 0 0 0-20.416-1.856l-2.24 1.856-2.656 2.688a16 16 0 0 0-1.824 20.416l1.856 2.208 21.024 21.056-6.656 10.784a130.08 130.08 0 0 0-13.76 30.368l-2.176 8.096-2.912 12.32H576a16 16 0 0 0-15.744 13.12l-0.256 2.88v3.744a16 16 0 0 0 13.12 15.744l2.88 0.256 29.76-0.032 2.912 12.32c2.56 10.912 6.528 21.408 11.776 31.232l4.16 7.232 6.656 10.784-21.056 21.056a16 16 0 0 0-1.856 20.416l1.856 2.24 2.688 2.656a16 16 0 0 0 20.416 1.824l2.208-1.856 21.056-21.024 10.784 6.656c9.472 5.856 19.68 10.496 30.368 13.76l8.096 2.176 12.32 2.912V896a16 16 0 0 0 13.12 15.744l2.88 0.256h3.744a16 16 0 0 0 15.744-13.12l0.256-2.88-0.032-29.76 12.32-2.912c10.912-2.56 21.408-6.528 31.232-11.776l7.232-4.16 10.784-6.656 21.056 21.056a16 16 0 0 0 20.416 1.856l2.24-1.856 2.656-2.688a16 16 0 0 0 1.824-20.416l-1.856-2.208-21.024-21.056 6.656-10.784c5.856-9.472 10.496-19.68 13.76-30.368l2.176-8.096 2.912-12.32H896a16 16 0 0 0 15.744-13.12l0.256-2.88v-3.744a16 16 0 0 0-13.12-15.744l-2.88-0.256-29.76 0.032-2.912-12.32a129.824 129.824 0 0 0-11.776-31.232l-4.16-7.232-6.656-10.784 21.056-21.056a16 16 0 0 0 1.856-20.416l-1.856-2.24-2.688-2.656a16 16 0 0 0-20.416-1.824l-2.208 1.856-21.056 21.024-10.784-6.656a130.08 130.08 0 0 0-30.368-13.76l-8.096-2.176-12.32-2.912V576a16 16 0 0 0-13.12-15.744l-2.88-0.256z m-1.888 96a80 80 0 1 1 0 160 80 80 0 0 1 0-160z m0 32a48 48 0 1 0 0 96 48 48 0 0 0 0-96z" fill="#3B97D3" p-id="44034"></path></svg>