<svg xmlns="http://www.w3.org/2000/svg" viewBox="0 0 1024 1024" version="1.1"><path d="M96 96m48 0l736 0q48 0 48 48l0 736q0 48-48 48l-736 0q-48 0-48-48l0-736q0-48 48-48Z" fill="#FFFFFF" p-id="37653"></path><path d="M320 96h128v32H320V96h128-128z m256 0h128v32h-128V96h128-128z m320 0a32 32 0 0 1 32 32v95.904h-32V128h-63.84V96H896z m32 384.16v-128 128h-32v-128h32v128z m0 256.32v-128 128h-32v-128h32v128zM864.16 896H896v-31.84h32V896a32 32 0 0 1-32 32h-31.84v-32z m-255.84 32h128-128v-32h128v32h-128z m-256.096 0v-32h128v32h-128 128-128zM224 896v32H128a32 32 0 0 1-30.4-21.952v-41.92H128V896h96z m-128-288h32v128H96v-128z m0-256h32v128H96V352z m32-256h64.8v32H128v96H96V128a32 32 0 0 1 32-32z" fill="#5D6D7E" p-id="37654"></path><path d="M415.744 656.096a16 16 0 1 1-32 0v-133.888l-34.72 14.24 50.72-119.36 50.72 119.36-34.72-14.24v133.888zM640 387.776v132.416l34.72-14.208-50.72 119.36-50.72-119.36 34.72 14.208V387.776a16 16 0 1 1 32 0z m6.624 296.576l77.12 77.12 14.464-34.624 48.544 120.256-120.256-48.544 34.624-14.464-77.12-77.12a16 16 0 0 1 22.624-22.624z m118.976-512a16 16 0 0 1 22.624 22.624l-77.12 77.12 34.624 14.464-120.256 48.544 48.544-120.256 14.496 34.592 77.12-77.12zM377.056 377.6l-77.12-77.12-14.464 34.624-48.544-120.256L357.184 263.36l-34.592 14.496 77.12 77.12a16 16 0 1 1-22.656 22.624z m-117.44 489.664a16 16 0 0 1-22.624-22.624l77.12-77.12-34.624-14.464 120.256-48.544-48.544 120.256-14.464-34.624-77.12 77.12z" fill="#2F98CF" p-id="37655"></path></svg>