<svg xmlns="http://www.w3.org/2000/svg" viewBox="0 0 1024 1024" version="1.1"><path d="M480 736a254.848 254.848 0 0 1-124.032-32H160a32 32 0 0 1-32-32V128a32 32 0 0 1 32-32h704a32 32 0 0 1 32 32v544a32 32 0 0 1-32 32h-259.968c-36.736 20.384-79.04 32-124.032 32z" fill="#FFFFFF" p-id="47118"></path><path d="M688 704l16.096 16.096a32 32 0 0 1 35.776 6.528l135.776 135.776a32 32 0 1 1-45.248 45.248l-135.776-135.776a31.936 31.936 0 0 1-9.28-25.28l-38.72-38.72a16 16 0 0 1-2.88-3.872H128a32 32 0 0 1-32-32V128a32 32 0 0 1 32-32h768a32 32 0 0 1 32 32v544a32 32 0 0 1-32 32h-208zM128 128v544h768V128H128z" fill="#5D6D7E" p-id="47119"></path><path d="M576 384V256h-224v128h-32v192h288v-192h-32z m0 192h-224v96h-32v-96H128v-32h192v-128H128v-32h192V256H128V224h192V128h32v96h224V128h32v96h288v32h-288v128h288v32h-288v128h288v32h-288v96h-32v-96z" fill="#CDD1D7" opacity=".5" p-id="47120"></path><path d="M320 384h288v192h-288v-192z m32 32v128h224v-128h-224z" fill="#30AD98" p-id="47121"></path><path d="M480 768a288 288 0 1 0 0-576 288 288 0 0 0 0 576z m0-32a256 256 0 1 1 0-512 256 256 0 0 1 0 512z" fill="#808FA1" p-id="47122"></path></svg>