<svg xmlns="http://www.w3.org/2000/svg" viewBox="0 0 1024 1024" version="1.1"><path d="M112 112m32 0l736 0q32 0 32 32l0 736q0 32-32 32l-736 0q-32 0-32-32l0-736q0-32 32-32Z" fill="#FFFFFF" p-id="13629"></path><path d="M128 96h768a32 32 0 0 1 32 32v768a32 32 0 0 1-32 32H128a32 32 0 0 1-32-32V128a32 32 0 0 1 32-32z m0 32v768h768V128H128z" fill="#5D6D7E" p-id="13630"></path><path d="M416 160h224v32h-224V160z m0 672h224v32h-224v-32zM160 416h32v224H160v-224z m672 0h32v224h-32v-224z" fill="#CDD1D7" p-id="13631"></path><path d="M768 800H256v128H224v-128H96v-32h128V256H96V224h128V96h32v128h512V96h32v128h128v32h-128v512h128v32h-128v128h-32v-128z m0-32V256H256v512h512z" fill="#808FA1" p-id="13632"></path></svg>