<svg xmlns="http://www.w3.org/2000/svg" viewBox="0 0 1024 1024" version="1.1"><path d="M354.304 854.464l0.512 0.544a175.904 175.904 0 0 0 129.696 56.992H736a176 176 0 0 0 175.168-193.216l0.064-3.744c0.512-3.616 0.768-7.328 0.768-11.04v-288a80 80 0 0 0-106.656-75.456l-21.344 7.552V224a80 80 0 0 0-133.568-59.424l-24.224 21.856-2.432-32.544A80 80 0 0 0 464 160v28.096l-21.344-7.552A80 80 0 0 0 336 256v360.64l-90.208-89.504a78.72 78.72 0 0 0-110.912 0l-0.448 0.448a77.216 77.216 0 0 0 0.448 109.216l219.424 217.664z" fill="#FFFFFF" p-id="35401"></path><path d="M448 199.392l-10.656-3.744A64 64 0 0 0 352 256v399.04l-117.472-116.544a62.72 62.72 0 0 0-88.384 0l-0.32 0.352c-23.84 24-23.68 62.784 0.32 86.592l219.424 217.664 1.056 1.056A159.904 159.904 0 0 0 484.48 896H736a160 160 0 0 0 159.232-175.68l-0.32-3.744 0.48-3.712c0.416-2.912 0.608-5.856 0.608-8.864v-288a64 64 0 0 0-85.344-60.352L800 359.36V592a16 16 0 1 1-32 0V224a64 64 0 0 0-106.848-47.552L640 195.552V528a16 16 0 1 1-32 0v-352c0-1.92 0.32-3.808 0.96-5.504l-1.152-15.392A64 64 0 0 0 480 160v368a16 16 0 1 1-32 0V199.392zM123.616 648.16a93.216 93.216 0 0 1 0-132.384 94.72 94.72 0 0 1 133.44 0L320 578.24V256a96 96 0 0 1 128-90.56V160a96 96 0 0 1 191.712-7.296A96 96 0 0 1 800 224v101.44A96 96 0 0 1 928 416v288c0 4.48-0.32 8.896-0.896 13.248A192 192 0 0 1 736 928h-251.488a191.904 191.904 0 0 1-141.472-62.176l-219.424-217.664z" fill="#5D6D7E" p-id="35402"></path></svg>