<svg xmlns="http://www.w3.org/2000/svg" viewBox="0 0 1024 1024" version="1.1"><path d="M731.415273 277.069576m-65.825213-65.825213a93.090909 93.090909 0 1 0 131.650426 131.650426 93.090909 93.090909 0 1 0-131.650426-131.650426Z" fill="#5D6D7E" p-id="41299"></path><path d="M822.30303 496.484848m0-93.090909a93.090909 93.090909 0 1 0 0 186.181819 93.090909 93.090909 0 1 0 0-186.181819Z" fill="#748394" p-id="41300"></path><path d="M731.415273 715.900121m65.825213-65.825213a93.090909 93.090909 0 1 0-131.650426 131.650426 93.090909 93.090909 0 1 0 131.650426-131.650426Z" fill="#909EAD" p-id="41301"></path><path d="M512 806.787879m-93.090909 0a93.090909 93.090909 0 1 0 186.181818 0 93.090909 93.090909 0 1 0-186.181818 0Z" fill="#AEBBC8" p-id="41302"></path><path d="M292.584727 715.900121m-65.825213-65.825213a93.090909 93.090909 0 1 0 131.650426 131.650426 93.090909 93.090909 0 1 0-131.650426-131.650426Z" fill="#C7D1DC" p-id="41303"></path><path d="M201.69697 496.484848m0-93.090909a93.090909 93.090909 0 1 0 0 186.181819 93.090909 93.090909 0 1 0 0-186.181819Z" fill="#E0E6EC" p-id="41304"></path><path d="M292.584727 277.069576m65.825213-65.825213a93.090909 93.090909 0 1 0-131.650426 131.650426 93.090909 93.090909 0 1 0 131.650426-131.650426Z" fill="#F3F6F9" p-id="41305"></path><path d="M512 186.181818m-93.090909 0a93.090909 93.090909 0 1 0 186.181818 0 93.090909 93.090909 0 1 0-186.181818 0Z" fill="#F6F6F6" p-id="41306"></path></svg>