<svg xmlns="http://www.w3.org/2000/svg" viewBox="0 0 1024 1024" version="1.1"><path d="M112 112m32 0l736 0q32 0 32 32l0 736q0 32-32 32l-736 0q-32 0-32-32l0-736q0-32 32-32Z" fill="#FFFFFF" p-id="47812"></path><path d="M128 96h768a32 32 0 0 1 32 32v768a32 32 0 0 1-32 32H128a32 32 0 0 1-32-32V128a32 32 0 0 1 32-32z m0 32v768h768V128H128z" fill="#5D6D7E" p-id="47813"></path><path d="M208 256a48 48 0 1 1 0-96 48 48 0 0 1 0 96z m0 512a48 48 0 1 1 0-96 48 48 0 0 1 0 96z m256-384a48 48 0 1 1 0-96 48 48 0 0 1 0 96z m128-128a48 48 0 1 1 0-96 48 48 0 0 1 0 96z m-384 640a48 48 0 1 1 0-96 48 48 0 0 1 0 96z m128-256a48 48 0 1 1 0-96 48 48 0 0 1 0 96z m-128-256a48 48 0 1 1 0-96 48 48 0 0 1 0 96z m128 0a48 48 0 1 1 0-96 48 48 0 0 1 0 96z m512 512a48 48 0 1 1 0-96 48 48 0 0 1 0 96z m-640-384a48 48 0 1 1 0-96 48 48 0 0 1 0 96z m256-256a48 48 0 1 1 0-96 48 48 0 0 1 0 96z m0 512a48 48 0 1 1 0-96 48 48 0 0 1 0 96z m256-128a48 48 0 1 1 0-96 48 48 0 0 1 0 96z m0-160a48 48 0 1 1 0-96 48 48 0 0 1 0 96z m-384-224a48 48 0 1 1 0-96 48 48 0 0 1 0 96z" fill="#27A2DF" p-id="47814"></path></svg>