<svg xmlns="http://www.w3.org/2000/svg" viewBox="0 0 1024 1024" version="1.1"><path d="M112 112m48 0l704 0q48 0 48 48l0 704q0 48-48 48l-704 0q-48 0-48-48l0-704q0-48 48-48Z" fill="#FFFFFF" p-id="25121"></path><path d="M400.96 517.152C411.2 371.84 504.96 232.64 680.832 99.552l19.296 25.504c-175.616 132.896-264.384 269.536-268 409.984 160.224 97.216 310.112 231.2 424.768 364.96l-24.32 20.832c-114.4-133.504-264.832-267.456-424.8-363.104-56.352-33.696-157.44-76.032-302.72-126.624l10.56-30.208c129.344 45.056 224.32 83.712 285.344 116.256z" fill="#ACB4C0" p-id="25122"></path><path d="M768 701.28a48 48 0 1 1 32 0v47.072h-32v-47.072z m-96-384a48 48 0 1 1 32 0v47.072h-32V317.28z m-128 160a48 48 0 1 1 32 0v47.072h-32v-47.072z m-160 256a48 48 0 1 1 32 0v47.072H384v-47.072z m-128-128a48 48 0 1 1 32 0v47.072H256v-47.072z m32-320a48 48 0 1 1 32 0v47.072H288V285.28z" fill="#C49F74" p-id="25123"></path><path d="M128 96h768a32 32 0 0 1 32 32v768a32 32 0 0 1-32 32H128a32 32 0 0 1-32-32V128a32 32 0 0 1 32-32z m0 32v768h768V128H128z" fill="#5D6D7E" p-id="25124"></path></svg>