<svg xmlns="http://www.w3.org/2000/svg" viewBox="0 0 1024 1024" version="1.1"><path d="M112 112m32 0l736 0q32 0 32 32l0 736q0 32-32 32l-736 0q-32 0-32-32l0-736q0-32 32-32Z" fill="#FFFFFF" p-id="50724"></path><path d="M125.248 912.768L934.4 288.224l-19.52-25.312L105.664 887.424z" fill="#808FA1" p-id="50725"></path><path d="M240 608a48 48 0 1 1 0 96 48 48 0 0 1 0-96z m160-128a48 48 0 1 1 0 96 48 48 0 0 1 0-96z m160-64a48 48 0 1 1 0 96 48 48 0 0 1 0-96z m-224-64a48 48 0 1 1 0 96 48 48 0 0 1 0-96z m352-96a48 48 0 1 1 0 96 48 48 0 0 1 0-96z m-192-96a48 48 0 1 1 0 96 48 48 0 0 1 0-96z" fill="#C49F74" p-id="50726"></path><path d="M432 736a48 48 0 1 1 0 96 48 48 0 0 1 0-96z m192-32a48 48 0 1 1 0 96 48 48 0 0 1 0-96z m96-160a48 48 0 1 1 0 96 48 48 0 0 1 0-96z m96-160a48 48 0 1 1 0 96 48 48 0 0 1 0-96z" fill="#30AD98" p-id="50727"></path><path d="M128 96h768a32 32 0 0 1 32 32v768a32 32 0 0 1-32 32H128a32 32 0 0 1-32-32V128a32 32 0 0 1 32-32z m0 32v768h768V128H128z" fill="#5D6D7E" p-id="50728"></path></svg>