<svg xmlns="http://www.w3.org/2000/svg" viewBox="0 0 1024 1024" version="1.1"><path d="M112 112m32 0l736 0q32 0 32 32l0 736q0 32-32 32l-736 0q-32 0-32-32l0-736q0-32 32-32Z" fill="#FFFFFF" p-id="50274"></path><path d="M128 96h768a32 32 0 0 1 32 32v768a32 32 0 0 1-32 32H128a32 32 0 0 1-32-32V128a32 32 0 0 1 32-32z m0 32v768h768V128H128z" fill="#5D6D7E" p-id="50275"></path><path d="M336 640a176 176 0 1 0 0-352 176 176 0 0 0 0 352z m0-32a144 144 0 1 1 0-288 144 144 0 0 1 0 288z" fill="#C49F74" p-id="50276"></path><path d="M619.648 480l181.024 181.024-181.024 181.024-181.024-181.024L619.648 480z m-135.776 181.024l135.776 135.744 135.776-135.744-135.776-135.776-135.776 135.776z" fill="#27A2DF" p-id="50277"></path><path d="M640 160l192 288H448l192-288z m0 57.696L507.808 416h264.384L640 217.696z" fill="#30AD98" p-id="50278"></path></svg>