<svg xmlns="http://www.w3.org/2000/svg" viewBox="0 0 1024 1024" version="1.1"><path d="M96 96m48 0l736 0q48 0 48 48l0 736q0 48-48 48l-736 0q-48 0-48-48l0-736q0-48 48-48Z" fill="#FFFFFF" p-id="24617"></path><path d="M128 741.952V128h596.512C790.4 237.856 853.152 364.32 896 484.992V896H414.592c-29.728-25.792-69.248-59.68-170.688-102.464A2688.224 2688.224 0 0 1 128 741.952z" fill="#EF633F" fill-opacity=".1" p-id="24618"></path><path d="M128 646.848V128h494.176c176 253.376 381.952 737.088 79.136 737.088-323.712 0-179.712-39.36-394.976-130.336C242.912 707.936 181.12 679.872 128 646.848z" fill="#EF633F" fill-opacity=".1" p-id="24619"></path><path d="M128 550.88V223.52A408.96 408.96 0 0 1 215.808 128h312.64c6.912 7.104 13.632 14.88 20.16 23.296 141.856 183.36 343.808 617.792 90.112 617.792s-140.832-30.944-309.536-102.432C252.16 634.016 178.144 598.976 128 550.88z" fill="#EF633F" fill-opacity=".2" p-id="24620"></path><path d="M364.544 594.112C241.312 541.28 116.672 490.08 174.656 337.6 232.64 185.088 385.088 89.376 488.736 224.96c103.616 135.52 300.736 479.296 115.424 479.296-185.344 0-116.352-57.28-239.616-110.08z" fill="#EF633F" fill-opacity=".6" p-id="24621"></path><path d="M385.12 536.96c-77.792-34.208-156.48-67.328-119.872-166.048 36.608-98.688 132.8-160.64 198.24-72.896 65.408 87.68 189.824 310.208 72.832 310.208-116.96 0-73.408-37.056-151.2-71.264z" fill="#EF633F" p-id="24622"></path><path d="M128 96h768a32 32 0 0 1 32 32v768a32 32 0 0 1-32 32H128a32 32 0 0 1-32-32V128a32 32 0 0 1 32-32z m0 32v768h768V128H128z" fill="#5D6D7E" p-id="24623"></path></svg>