<svg xmlns="http://www.w3.org/2000/svg" viewBox="0 0 1024 1024" version="1.1"><path d="M592.192 129.76a31.904 31.904 0 0 0-44.384-8.864L428.8 200.384a64 64 0 0 1-59.2 6.24L236.544 153.6A32 32 0 0 0 193.92 192l38.816 137.76a64 64 0 0 1-12.384 58.24l-91.488 110.08a32 32 0 0 0 23.36 52.448l143.008 5.664a64 64 0 0 1 51.584 29.76l76.416 121.056a32 32 0 0 0 57.088-6.016l49.568-134.272a64 64 0 0 1 44.256-39.84l138.72-35.296a32 32 0 0 0 11.936-56.128l-112.384-88.64a64 64 0 0 1-24.224-54.4l9.312-142.848a32 32 0 0 0-5.312-19.84z" fill="#FFFFFF" p-id="41645"></path><path d="M603.52 578.848l2.208 1.824 320 320a16 16 0 0 1-20.416 24.48l-2.24-1.824-320-320a16 16 0 0 1 20.448-24.48z m7.168-456.608a48 48 0 0 1 8 29.76l-9.344 142.848a48 48 0 0 0 18.176 40.832l112.384 88.64a48 48 0 0 1-17.92 84.192l-138.72 35.296a48 48 0 0 0-33.184 29.888l-49.6 134.272a48 48 0 0 1-85.6 8.96l-76.416-120.992a48 48 0 0 0-38.688-22.336l-143.04-5.664a48 48 0 0 1-35.008-78.656l91.52-110.08a48 48 0 0 0 9.28-43.68L183.68 197.728a48 48 0 0 1 64-57.6l132.928 53.024a48 48 0 0 0 44.416-4.672l119.04-79.488a48 48 0 0 1 66.56 13.248z m-46.272 11.968l-2.56 1.376-119.04 79.488a80 80 0 0 1-68.736 9.696l-5.28-1.92L235.84 169.856a16 16 0 0 0-21.856 16.384l0.512 2.816 38.816 137.792a80 80 0 0 1-11.776 68.032l-3.712 4.8-91.488 110.08a16 16 0 0 0 8.832 25.824l2.88 0.384 143.008 5.664a80 80 0 0 1 61.056 32.224l3.424 4.992 76.384 121.024a16 16 0 0 0 27.328-0.384l1.216-2.624 49.6-134.272a80 80 0 0 1 49.536-48.096l5.76-1.728 138.752-35.264a16 16 0 0 0 8.064-26.08l-2.112-1.984-112.384-88.64a80 80 0 0 1-30.432-62.4l0.16-5.632 9.312-142.816a16 16 0 0 0-1.376-7.648l-1.28-2.272a16 16 0 0 0-19.648-5.824z" fill="#5D6D7E" p-id="41646"></path></svg>