<svg xmlns="http://www.w3.org/2000/svg" viewBox="0 0 1024 1024" version="1.1"><path d="M512 160c194.4 0 352 157.6 352 352 0 89.472-33.376 171.136-88.32 233.216l47.904 42.432A414.976 414.976 0 0 1 512 928C282.24 928 96 741.76 96 512S282.24 96 512 96v64z" fill="#FFFFFF" p-id="50526"></path><path d="M512 144c203.232 0 368 164.768 368 368 0 91.328-33.28 174.88-88.352 239.232l-23.968-21.216A334.688 334.688 0 0 0 848 512c0-185.568-150.432-336-336-336z" fill="#30AD98" p-id="50527"></path><path d="M528 504.8l318.176 281.44-10.624 12A430.912 430.912 0 0 1 512 944C273.408 944 80 750.592 80 512S273.408 80 512 80h16v424.8zM112 512c0 220.928 179.072 400 400 400 110.656 0 213.952-45.152 288.768-123.2L496 519.2V112.32c-213.504 8.384-384 184.128-384 399.68z" fill="#C49F74" p-id="50528"></path><path d="M817.28 229.376a414.432 414.432 0 0 1 110.4 265.6H523.936z" fill="#27A2DF" p-id="50529"></path></svg>