<svg xmlns="http://www.w3.org/2000/svg" viewBox="0 0 1024 1024" version="1.1"><path d="M512 512m-416 0a416 416 0 1 0 832 0 416 416 0 1 0-832 0Z" fill="#FFFFFF" p-id="50823"></path><path d="M512 928C282.24 928 96 741.76 96 512S282.24 96 512 96s416 186.24 416 416-186.24 416-416 416z m0-32c212.064 0 384-171.936 384-384S724.064 128 512 128 128 299.936 128 512s171.936 384 384 384z m0-128a256 256 0 1 1 0-512 256 256 0 0 1 0 512z m0-32a224 224 0 1 0 0-448 224 224 0 0 0 0 448z" fill="#ACB4C0" p-id="50824"></path><path d="M289.12 489.6a224 224 0 0 0 239.168 245.856v192.224c-5.44 0.224-10.848 0.32-16.288 0.32-229.76 0-416-186.24-416-416 0-7.52 0.192-15.008 0.608-22.4h192.512z m-160.992 32c4.928 202.4 166.528 365.952 368.128 374.08v-128.16A256 256 0 0 1 256.16 521.6H128.128z" fill="#27A2DF" p-id="50825"></path><path d="M96 512C96 352.384 185.888 213.76 317.76 144l107.008 161.6a224.064 224.064 0 0 0-136.576 215.872H96.096A424.064 424.064 0 0 1 96 512z m160.96-22.528a256 256 0 0 1 121.44-195.904L307.712 186.784a383.776 383.776 0 0 0-179.072 302.688h128.32z" fill="#30AD98" p-id="50826"></path><path d="M512 96c123.008 0 233.568 53.408 309.728 138.272l-136.128 136.128A223.552 223.552 0 0 0 512 288c-42.336 0-81.92 11.744-115.68 32.128l-105.6-160.48A414.08 414.08 0 0 1 512 96zM407.168 278.4A255.232 255.232 0 0 1 512 256c65.824 0 127.584 25.024 174.272 68.48l90.56-90.56A382.624 382.624 0 0 0 512 128c-62.144 0-122.048 14.752-175.808 42.496L407.168 278.4z" fill="#C49F74" p-id="50827"></path></svg>