<svg xmlns="http://www.w3.org/2000/svg" viewBox="0 0 1024 1024" version="1.1"><path d="M112 112m32 0l736 0q32 0 32 32l0 736q0 32-32 32l-736 0q-32 0-32-32l0-736q0-32 32-32Z" fill="#FFFFFF" p-id="44919"></path><path d="M216.928 128H807.04A350.368 350.368 0 0 1 864 320c0 194.4-157.6 352-352 352S160 514.4 160 320c0-70.848 20.928-136.768 56.928-192z" fill="#27A2DF" fill-opacity=".1" p-id="44920"></path><path d="M342.656 128h338.688A256 256 0 1 1 342.688 128z" fill="#27A2DF" fill-opacity=".3" p-id="44921"></path><path d="M512 320m-128 0a128 128 0 1 0 256 0 128 128 0 1 0-256 0Z" fill="#27A2DF" p-id="44922"></path><path d="M539.68 896A240 240 0 0 1 896 592V896H539.68z" fill="#30AD98" fill-opacity=".1" p-id="44923"></path><path d="M752 784m-144 0a144 144 0 1 0 288 0 144 144 0 1 0-288 0Z" fill="#30AD98" fill-opacity=".3" p-id="44924"></path><path d="M752 784m-80 0a80 80 0 1 0 160 0 80 80 0 1 0-160 0Z" fill="#30AD98" p-id="44925"></path><path d="M224 800m-128 0a128 128 0 1 0 256 0 128 128 0 1 0-256 0Z" fill="#ACB4C0" fill-opacity=".2" p-id="44926"></path><path d="M224 800m-64 0a64 64 0 1 0 128 0 64 64 0 1 0-128 0Z" fill="#ACB4C0" p-id="44927"></path><path d="M128 96h768a32 32 0 0 1 32 32v768a32 32 0 0 1-32 32H128a32 32 0 0 1-32-32V128a32 32 0 0 1 32-32z m0 32v768h768V128H128z" fill="#5D6D7E" p-id="44928"></path></svg>