<svg xmlns="http://www.w3.org/2000/svg" viewBox="0 0 1024 1024" version="1.1"><path d="M896 352h32v576H192a96 96 0 0 1-96-96V160a96 96 0 0 1 186.56-32H896v224z" fill="#FFFFFF" p-id="13678"></path><path d="M352 443.392v43.072c-64.096-51.072-96.416-128.16-96-230.528l32 0.128c-0.32 80.384 20.8 142.688 64 187.328z" fill="#D5D9DF" p-id="13679"></path><path d="M352 896v32H192a96 96 0 0 1-96-96V160a96 96 0 0 1 186.56-32H896v256h-32V160H288v672H256a64 64 0 1 0-64 64h160z m-224-135.552A95.648 95.648 0 0 1 192 736c24.576 0 47.04 9.248 64 24.448V148.928l-3.648-10.24A64.032 64.032 0 0 0 128 160v600.448z" fill="#5D6D7E" p-id="13680"></path><path d="M352 352h576v576H352V352z m32 32v512h512V384H384z" fill="#808FA1" p-id="13681"></path><path d="M590.4 748.352a128 128 0 1 1-14.4-251.36v32.32A96 96 0 1 0 613.088 704h2.432l-25.088 44.352z" fill="#4EB9A7" p-id="13682"></path><path d="M757.824 704l-17.472-32H800v-192h-192v192h25.664l-18.144 32H576v-256h256v256h-74.176z" fill="#C49F74" p-id="13683"></path><path d="M688 543.36l171.36 304.64h-342.72l171.36-304.64z m0 65.28l-116.64 207.36h233.28L688 608.64z" fill="#27A2DF" p-id="13684"></path></svg>