<svg xmlns="http://www.w3.org/2000/svg" viewBox="0 0 1024 1024" version="1.1"><path d="M308.192 800c-106.048 0-198.848-85.952-198.848-192 0-97.792 68.096-167.68 162.656-179.648 27.872-111.168 120.16-189.6 240-189.6s212.128 78.4 240 189.6c94.56 11.968 163.104 81.856 163.104 179.648 0 106.048-105.056 192-211.104 192H288h20.192z" fill="#FFFFFF" p-id="44622"></path><path d="M96 608a192.032 192.032 0 0 1 167.68-190.464 256.096 256.096 0 0 1 496.64 0A192.032 192.032 0 0 1 736 800H288a192 192 0 0 1-192-192z m640 160a160 160 0 0 0 20.32-318.72l-21.728-2.752-5.312-21.216a224.096 224.096 0 0 0-434.56 0l-5.312 21.216-21.728 2.752A160.032 160.032 0 0 0 288 768h448z" fill="#5D6D7E" p-id="44623"></path><path d="M448 896v-103.584l-45.12-45.12 22.656-22.624L480 779.2V896h-32z m128-224h32v192.096h-32V672z m-128 256h32v32h-32v-32z m128-32h32v32h-32v-32z m-112-480a48 48 0 1 1 0-96 48 48 0 0 1 0 96z m-224 224a48 48 0 1 1 0-96 48 48 0 0 1 0 96z m288-64a48 48 0 1 1 0-96 48 48 0 0 1 0 96z m160 160a48 48 0 1 1 0-96 48 48 0 0 1 0 96z" fill="#30AD98" p-id="44624"></path><path d="M352 480a32 32 0 1 1 0-64 32 32 0 0 1 0 64z m-32 224a32 32 0 1 1 0-64 32 32 0 0 1 0 64z m96-64a32 32 0 1 1 0-64 32 32 0 0 1 0 64z m96 64a32 32 0 1 1 0-64 32 32 0 0 1 0 64z m128-192a32 32 0 1 1 0-64 32 32 0 0 1 0 64z m96 64a32 32 0 1 1 0-64 32 32 0 0 1 0 64zM624 156.864l-65.76 65.76a16 16 0 0 1-22.624-22.656L640 95.616l107.328 107.296a16 16 0 0 1-22.656 22.624L656 156.864V400a16 16 0 1 1-32 0V156.864z" fill="#3B97D3" p-id="44625"></path></svg>