<svg xmlns="http://www.w3.org/2000/svg" viewBox="0 0 1024 1024" version="1.1"><path d="M160 192h704a64 64 0 0 1 64 64v512H96v-512a64 64 0 0 1 64-64z" fill="#FFFFFF" p-id="44474"></path><path d="M738.816 240h12.224l91.168 118.272V404.864l-43.2 63.68v68.416l-5.952 29.76-23.392 73.28-36.8 70.56-77.312 41.664-16.96-41.664 24.032-63.488-7.072-52.224-66.4-28.128-45.152-29.76-13.664-56.96 42.304-45.568 5.792-47.072 33.76-29.088 26.432-56.96L695.04 273.664l43.744-33.632z m-338.56-20.192c15.04 34.08 2.752 74.048-36.768 119.872s-97.44 87.264-173.76 124.32l13.664 80.32 79.04 20.736 50.112 61.984 30.944 24.288-30.944 58.752-37.856 57.92H128V219.808h272.256z" fill="#BC9A72" opacity=".3" p-id="44475"></path><path d="M416.384 224c16.32 54.784 1.984 101.856-42.24 138.144-31.36 25.76-98.816 64.768-100.608 66.464-1.344 1.28-1.344 1.344-1.344 0.704 0 23.584-13.984 31.456-48.096 40.256-5.248 1.344-7.872 1.984-10.4 2.688-4.384 1.152-7.968 2.24-11.2 3.296-11.776 3.968-0.16 55.936 21.12 55.936 50.624 0 84.192 21.12 105.728 69.632 3.072 6.912 5.824 10.08 8.448 11.424 1.6 0.8 3.264 1.12 8.384 1.536 23.552 1.92 33.824 14.272 33.824 48.16 0 31.52-12.704 44.992-43.36 60.416l-0.288 0.16c-20.8 10.464-25.44 15.36-25.44 31.04a16 16 0 1 1-32 0c0-31.072 12.544-44.288 43.072-59.616l0.288-0.16c20.96-10.56 25.728-15.616 25.728-31.84 0-17.888 1.76-15.776-4.416-16.288-9.12-0.736-13.76-1.6-20.256-4.864-9.696-4.928-17.344-13.76-23.232-27.008-16.32-36.768-38.336-50.592-76.48-50.592-56.096 0-78.944-102.24-31.328-118.272 3.968-1.312 8.16-2.56 13.12-3.872l10.688-2.784c19.136-4.928 24.096-7.68 24.096-9.248 0-9.184 4.096-16.96 11.2-23.808 5.248-4.992 74.176-44.864 102.464-68.096 35.264-28.928 45.184-63.968 30.56-108.416a15.936 15.936 0 0 1-0.768-6.24l32.736 1.248z m319.616-32c77.92 103.008 128 168.768 128 197.28 0 42.784-45.376 50.016-52.32 87.968-6.912 37.92 18.656 63.168 0 91.104s-20.928 19.616-34.848 90.688c-13.92 71.04-86.944 100.416-119.456 108.416-32.48 8-36.608-75.456-23.904-92.32 12.704-16.864 36.224-87.2-46.912-92.864-83.136-5.664-84.096-123.616-63.136-133.568 20.992-9.952 57.92-16.864 33.888-59.424-24-42.56 39.232-8.8 44.896-55.584 5.696-46.816 22.304-49.76 76.224-72.832 35.936-15.36 47.68-38.336 57.568-68.864z m96 197.28c0-15.68-39.04-64.992-93.12-139.616-15.072 16.736-23.744 30.304-47.872 40.64l-22.752 9.632a277.28 277.28 0 0 0-16 7.264c-13.92 7.04-15.776 9.856-18.272 30.336-3.36 27.68-18.72 44.16-41.12 52.256 14.816 39.328-4.48 66.016-42.464 82.208a792 792 0 0 1-5.504 2.272 51.488 51.488 0 0 0-0.384 2.624c-1.152 9.344-0.384 21.184 2.464 32.288 6.4 25.248 20.192 39.68 41.76 41.152 51.488 3.52 83.2 29.632 88.896 69.632 3.776 26.368-5.248 56.64-18.592 74.4 0.32-0.384-1.248 16.928 1.056 31.2 0.416 2.784 0.96 5.28 1.536 7.456 41.152-13.248 76.16-41.216 83.808-80.128 6.08-31.168 10.144-48.096 14.624-60.48 3.2-8.8 6.72-15.68 11.488-22.784 1.536-2.272 10.464-14.464 13.536-19.072a8.16 8.16 0 0 0 1.376-3.008c0.576-2.944 0.096-6.656-3.104-20.64-5.152-22.496-6.592-36.608-3.168-55.424 4.256-23.168 13.568-35.84 34.976-56.48l0.352-0.32c13.856-13.376 16.48-17.472 16.48-25.408z" fill="#BC9A72" p-id="44476"></path><path d="M128 768H96v-544a32 32 0 0 1 32-32h441.024L505.216 128.192a16 16 0 1 1 22.624-22.656L631.04 208.704l-103.168 103.136a16 16 0 0 1-22.624-22.624l65.216-65.216H128v544z m768 0v-544h-173.184l13.184-32h160a32 32 0 0 1 32 32v544h-32z" fill="#5A6978" p-id="44477"></path><path d="M96 896m16 0l800 0q16 0 16 16l0 0q0 16-16 16l-800 0q-16 0-16-16l0 0q0-16 16-16Z" fill="#D1BA9F" p-id="44478"></path><path d="M96 832m16 0l800 0q16 0 16 16l0 0q0 16-16 16l-800 0q-16 0-16-16l0 0q0-16 16-16Z" fill="#BC9A72" p-id="44479"></path></svg>