<svg xmlns="http://www.w3.org/2000/svg" viewBox="0 0 1024 1024" version="1.1"><path d="M157.344 900.224v32h523.104l3.616-0.416c167.616-39.04 253.536-133.12 253.536-279.52 0-146.784-86.432-235.936-254.464-264.512l-320.832-0.224L176 160.64h695.328v-32H108.288l238.912 290.88H680.448c150.816 25.92 225.152 102.592 225.152 232.768 0 130.048-74.272 211.84-227.008 247.936H157.344z" fill="#5D6D7E" p-id="29710"></path><path d="M864 96h32a32 32 0 0 1 32 32v32a32 32 0 0 1-32 32h-32a32 32 0 0 1-32-32V128a32 32 0 0 1 32-32zM128 96h32a32 32 0 0 1 32 32v32a32 32 0 0 1-32 32H128a32 32 0 0 1-32-32V128a32 32 0 0 1 32-32z m192 256h32a32 32 0 0 1 32 32v32a32 32 0 0 1-32 32h-32a32 32 0 0 1-32-32v-32a32 32 0 0 1 32-32zM128 864h32a32 32 0 0 1 32 32v32a32 32 0 0 1-32 32H128a32 32 0 0 1-32-32v-32a32 32 0 0 1 32-32z" fill="#30AD98" p-id="29711"></path></svg>