<svg xmlns="http://www.w3.org/2000/svg" viewBox="0 0 1024 1024" version="1.1"><path d="M416 384h480a32 32 0 0 1 32 32v480a32 32 0 0 1-32 32H416a32 32 0 0 1-32-32V416a32 32 0 0 1 32-32z m192-32h-256v288H96a32 32 0 0 1-32-32V128a32 32 0 0 1 32-32h480a32 32 0 0 1 32 32v224z" fill="#FFFFFF" p-id="19447"></path><path d="M800 416h96v96h-96v-96z m-384 128h96v96h-96v-96z m128-128h96v96h-96v-96z m0 128h96v96h-96v-96z m0 128h96v96h-96v-96z m128-256h96v96h-96v-96z m0 128h96v96h-96v-96z m0 128h96v96h-96v-96z m-128 128h96v96h-96v-96z m-128-384h96v96h-96v-96z m-64-64v222.176c-70.496-17.184-47.872-152.064-104-208.192-40-40-80-120-120-240V96h464c-60.96 109.792-95.648 189.792-104 240-0.896 5.44-1.824 10.784-2.784 16H352z m186.272-224H162.432c37.152 108.864 73.856 181.024 108.192 215.36 24.768 24.768 36.576 54.72 49.12 108.16l0.256 1.024V320h138.496c9.888-46.112 36.48-109.76 79.776-192z" fill="#30AD98" p-id="19448"></path><path d="M471.776 336l0.448-2.624C480.32 284.672 511.232 211.2 564.96 112H144v11.392c39.008 116.48 77.76 193.76 115.328 231.296 21.952 21.984 32.96 49.888 44.864 100.48l3.488 15.072c9.44 40.96 17.184 64.064 28.32 76.608V336h135.776z" fill="#DEEADD" p-id="19449"></path><path d="M240 739.936v114.624C265.28 887.264 291.904 911.744 320 928v19.616a10.816 10.816 0 0 1-16.832 8.96 381.888 381.888 0 0 1-91.904-86.88l-3.264-4.288v-125.44l-45.952 41.696a17.376 17.376 0 0 1-22.496 0.736 12.576 12.576 0 0 1-0.64-19.168L224 685.824l83.456 71.424a15.456 15.456 0 0 1 0.96 22.56 17.152 17.152 0 0 1-23.744 0.672L240 739.936z m576-459.2V169.472C790.72 136.736 764.096 112.256 736 96v-19.328a10.752 10.752 0 0 1 16.64-8.96 374.912 374.912 0 0 1 92.096 86.592l3.264 4.288v122.176l45.184-41.024a17.184 17.184 0 0 1 23.264 0.16 14.592 14.592 0 0 1-0.16 21.472L832 338.176l-84.288-76.8a14.592 14.592 0 0 1-0.16-21.44 17.184 17.184 0 0 1 23.264-0.192L816 280.768z" fill="#27A2DF" p-id="19450"></path><path d="M416 384h480a32 32 0 0 1 32 32v480a32 32 0 0 1-32 32H416a32 32 0 0 1-32-32V416a32 32 0 0 1 32-32z m0 32v480h480V416H416z m192-64h-256v288H96a32 32 0 0 1-32-32V128a32 32 0 0 1 32-32h480a32 32 0 0 1 32 32v224z m-32-32V128H96v480h224v-288h256z" fill="#5D6D7E" p-id="19451"></path></svg>