<svg xmlns="http://www.w3.org/2000/svg" viewBox="0 0 1024 1024" version="1.1"><path d="M322.24 539.84l42.112-81.664 81.28 42.752-14.976-87.36 87.904-11.2-64.64-65.28 65.76-64.096-87.68-12.736 16.512-87.04-82.048 41.28-40.64-82.336-39.232 79.456-77.696-42.592 13.952 90.784-90.88 13.184 63.424 61.856-64.512 60.736 90.656 14.816-15.52 90.528 78.4-41.248 37.856 80.128z" fill="#FFFFFF" p-id="26863"></path><path d="M454.144 455.776L869.12 875.808a32 32 0 0 1-45.536 44.992L406.08 498.176l-34.88-18.336L321.6 576 277.088 481.6l-92.352 48.576 18.304-106.592-106.72-17.408 75.968-71.52-74.72-72.832 107.008-15.552-16.416-106.88 91.488 50.176L325.824 96l47.84 96.96 96.576-48.64-19.424 102.528 103.264 14.976-77.44 75.52 76.096 76.8-103.488 13.184 4.896 28.448z m-226.88 15.904l64.512-33.92 31.104 65.92 34.624-67.2 66.88 35.2-12.32-71.872 72.32-9.216-53.184-53.664 54.08-52.736-72.128-10.496 13.6-71.616-67.52 33.984-33.408-67.744-32.256 65.344-63.936-35.04 11.488 74.688-74.784 10.88 52.192 50.88-53.088 49.952 74.56 12.16-12.736 74.496z" fill="#5D6D7E" p-id="26864"></path><path d="M802.624 118.24L624 268.608v112.736h288V240.896l-109.376-122.656z" fill="#27A2DF" p-id="26865"></path></svg>