<svg xmlns="http://www.w3.org/2000/svg" viewBox="0 0 1024 1024" version="1.1"><path d="M162.88 590.368a192 192 0 0 1 331.424-191.008A224 224 0 0 1 800 608a160 160 0 0 1 0 320H256v-2.656a192.064 192.064 0 0 1-93.12-334.976z" fill="#FFFFFF" p-id="23922"></path><path d="M516.8 412.416l-28.8 14.976a176 176 0 1 0-301.056 167.84l-22.208 23.168a208 208 0 1 1 352.032-205.984z" fill="#C49F74" p-id="23923"></path><path d="M96 736a192 192 0 0 1 261.824-178.912A224 224 0 0 1 800 608a160 160 0 0 1 0 320H256v-2.656A192.064 192.064 0 0 1 96 736z m704 160a128 128 0 1 0 0-256h-32v-32a192 192 0 0 0-379.008-43.68l-8.384 36.032-34.432-13.44a160 160 0 0 0-84.864 306.88l13.184 2.208H800z" fill="#27A2DF" p-id="23924"></path><path d="M580.736 448V142.016h-120.736V89.92h290.496v52.096h-121.248V448z" fill="#30AD98" p-id="23925"></path><path d="M771.552 544V301.568h-90.56V269.12h217.888v32.448h-90.944V544z" fill="#5D6D7E" p-id="23926"></path></svg>