<svg xmlns="http://www.w3.org/2000/svg" viewBox="0 0 1024 1024" version="1.1"><path d="M160 96h704a32 32 0 0 1 32 32v768a32 32 0 0 1-32 32H160a32 32 0 0 1-32-32V128a32 32 0 0 1 32-32z" fill="#FFFFFF" p-id="16673"></path><path d="M160 736h704V128H160v608zM160 96h704a32 32 0 0 1 32 32v768a32 32 0 0 1-32 32H160a32 32 0 0 1-32-32V128a32 32 0 0 1 32-32z m352 560a208 208 0 1 1 0-416 208 208 0 0 1 0 416z m0-32a176 176 0 1 0 0-352 176 176 0 0 0 0 352zM160 768v128h704v-128H160z" fill="#5D6D7E" p-id="16674"></path><path d="M512 528a80 80 0 1 0 0-160 80 80 0 0 0 0 160z m0-32a48 48 0 1 1 0-96 48 48 0 0 1 0 96z" fill="#808FA1" p-id="16675"></path><path d="M596.672 555.328l98.432 98.4a16 16 0 1 0 22.624-22.624l-98.4-98.432a16 16 0 0 0-22.656 22.656z" fill="#27A2DF" p-id="16676"></path><path d="M256 224a32 32 0 1 1 0-64 32 32 0 0 1 0 64z m512 0a32 32 0 1 1 0-64 32 32 0 0 1 0 64z m-288.256 592a16 16 0 0 1 0 32H257.44a16 16 0 1 1 0-32h222.304z" fill="#D8D8D8" p-id="16677"></path><path d="M768 880a48 48 0 1 1 0-96 48 48 0 0 1 0 96z m0-32a16 16 0 1 0 0-32 16 16 0 0 0 0 32z m-128 32a48 48 0 1 1 0-96 48 48 0 0 1 0 96z m0-32a16 16 0 1 0 0-32 16 16 0 0 0 0 32z" fill="#C49F74" p-id="16678"></path></svg>