<svg xmlns="http://www.w3.org/2000/svg" viewBox="0 0 1024 1024" version="1.1"><path d="M112 144m32 0l736 0q32 0 32 32l0 544q0 32-32 32l-736 0q-32 0-32-32l0-544q0-32 32-32Z" fill="#FFFFFF" p-id="41597"></path><path d="M720 864a16 16 0 0 1 2.88 31.744L720 896h-416a16 16 0 0 1-2.88-31.744L304 864h416zM896 128a32 32 0 0 1 32 32v576a32 32 0 0 1-32 32H128a32 32 0 0 1-32-32V160a32 32 0 0 1 32-32h768z m0 32H128v576h768V160z" fill="#5D6D7E" p-id="41598"></path><path d="M618.4 208.032h12.512l14.304 0.288c30.432 0.832 71.776 3.392 124.064 7.616a16 16 0 0 1 14.56 18.112c-21.504 158.752-69.248 270.336-144.192 334.208-76.48 65.184-171.456 73.024-282.272 24.416a16 16 0 0 1 12.832-29.312c100.256 43.968 182.208 37.216 248.672-19.456 63.424-54.08 106.624-148.736 128.832-284.48l1.984-12.96-41.824-2.976-22.464-1.376a1123.744 1123.744 0 0 0-60.8-2.112l-5.792 0.032c-107.904 1.376-189.92 20.992-246.176 58.304C301.76 345.28 283.84 412.448 319.296 504.32c54.816-83.68 145.376-134.88 271.072-152.64a16 16 0 1 1 4.48 31.68c-205.28 29.024-306.24 150.144-306.24 368.16a16 16 0 1 1-32 0c0-83.36 14.304-154.144 42.752-212.16-53.216-116.416-34.944-207.68 55.584-267.712 62.08-41.152 149.952-62.176 263.456-63.616z" fill="#30AD98" p-id="41599"></path></svg>