<svg xmlns="http://www.w3.org/2000/svg" viewBox="0 0 1024 1024" version="1.1"><path d="M352 128h296.384L704 187.392V416H352V128zM128 768h160v160H128v-160z m320 0h160v160h-160v-160z m320 0h160v160h-160v-160z" fill="#FFFFFF" p-id="17315"></path><path d="M831.968 767.936v-127.904H800v-32.064h-224.032v32.064H544v127.904h-32.032v-127.904H480v-32.064H255.968v32.064H223.936v127.904h-31.968v-127.904H160v-96.064h95.968V576H480v-32.032h31.968V448H544v95.968h31.968V576H800v-32.032h95.968v96.064H864v127.904z" fill="#5D6D7E" p-id="17316"></path><path d="M639.936 142.688V192h50.496l-50.496-49.312z m0-44.576L640 98.016l96.864 94.624-0.896 0.928V448H320V95.968h319.936v2.144zM703.968 416V224h-96.032V127.968H352v288.064h351.968z m48 527.936V752h191.968v191.968h-191.968z m159.968-32V784h-127.968v127.968h127.968z m-479.968 32V752h191.968v191.968h-191.968z m159.968-32V784h-127.968v127.968h127.968z m-479.968 32V752h191.968v191.968H111.968z m159.968-32V784H143.968v127.968h127.968z" fill="#3B97D3" p-id="17317"></path><path d="M416.16 224.416V192.288h127.616v32.128h-127.616z m223.808 127.616h-0.16v0.32h-223.648v-0.32H416V319.968h223.968v32.064z m0-64h-0.16v0.32h-223.648v-0.32H416V255.968h223.968v32.064z" fill="#ACB4C0" p-id="17318"></path></svg>