<svg xmlns="http://www.w3.org/2000/svg" viewBox="0 0 1024 1024" version="1.1"><path d="M112 112m32 0l736 0q32 0 32 32l0 736q0 32-32 32l-736 0q-32 0-32-32l0-736q0-32 32-32Z" fill="#FFFFFF" p-id="45531"></path><path d="M128 96h768a32 32 0 0 1 32 32v768a32 32 0 0 1-32 32H128a32 32 0 0 1-32-32V128a32 32 0 0 1 32-32z m0 32v768h768V128H128z" fill="#5D6D7E" p-id="45532"></path><path d="M192 560.64l0.064-0.128 139.104 90.336L658.656 307.872l167.168 214.176-25.216 19.68-144.384-184.96-320.256 335.36L192 598.656V832h672v32H160V160h32z" fill="#808FA1" p-id="45533"></path><path d="M384 608v96H288v-96h96z m480-128v96h-96v-96h96z" fill="#30AD98" p-id="45534"></path><path d="M608 288h96v96h-96z" fill="#27A2DF" p-id="45535"></path></svg>