<svg xmlns="http://www.w3.org/2000/svg" viewBox="0 0 1024 1024" version="1.1"><path d="M96 96m32 0l768 0q32 0 32 32l0 768q0 32-32 32l-768 0q-32 0-32-32l0-768q0-32 32-32Z" fill="#FFFFFF" p-id="19900"></path><path d="M605.408 643.04l-0.704 0.672-40-39.808 1.376-1.376-25.728-26.528H544v-32h-32v29.312L170.56 918.624l-22.72-22.496 354.88-358.944L320 348.864V302.912l205.216 211.52L736 301.216V320h26.432l-214.944 217.408L647.04 640H672l-17.344 7.872 0.16 0.128H672v8h-9.44l0.608 0.64 8.832 7.488h-1.472l1.472 1.44v-17.568h-16v1.248l0.64 0.64 15.36 6.112v8.128h-16.544H672V640l256 0.256v32L678.496 672l12.8 12.736-19.296 25.952 20.704 20.608 22.592-22.656-24-23.904 24 23.904-22.592 22.656L672 710.72V928h-32v-249.152l-35.296-35.136 0.704-0.672zM278.624 352L128 502.624 105.376 480 256 329.376V352h22.624z m-17.696-64L105.376 127.68l22.976-22.304L305.536 288H260.928zM736 278.4l-162.08-163.648 22.72-22.528L758.848 256H736v22.4z m44.704-22.4l115.168-116.48 22.752 22.496L800 282.016V256h-19.296z" fill="#E4E7EB" p-id="19901"></path><path d="M256 256h64a32 32 0 0 1 32 32v64a32 32 0 0 1-32 32H256a32 32 0 0 1-32-32V288a32 32 0 0 1 32-32z m0 32v64h64V288H256z m480-64h64a32 32 0 0 1 32 32v64a32 32 0 0 1-32 32h-64a32 32 0 0 1-32-32V256a32 32 0 0 1 32-32z m0 32v64h64V256h-64z" fill="#ACB4C0" p-id="19902"></path><path d="M672.672 711.04l-32.128-32.128 22.624-22.624 30.912 30.912a32 32 0 0 1 32.544 7.808l113.152 113.12a32 32 0 0 1-45.28 45.248l-113.12-113.12a32 32 0 0 1-8.704-29.216zM128 96h768a32 32 0 0 1 32 32v768a32 32 0 0 1-32 32H128a32 32 0 0 1-32-32V128a32 32 0 0 1 32-32z m0 32v768h768V128H128z" fill="#5D6D7E" p-id="19903"></path><path d="M512 736a224 224 0 1 0 0-448 224 224 0 0 0 0 448z m0-32a192 192 0 1 1 0-384 192 192 0 0 1 0 384z" fill="#708294" p-id="19904"></path><path d="M480 480h96a32 32 0 0 1 32 32v96a32 32 0 0 1-32 32h-96a32 32 0 0 1-32-32v-96a32 32 0 0 1 32-32z m32 64v32h32v-32h-32z" fill="#27A2DF" p-id="19905"></path></svg>