<svg xmlns="http://www.w3.org/2000/svg" viewBox="0 0 1024 1024" version="1.1"><path d="M112 112m32 0l736 0q32 0 32 32l0 736q0 32-32 32l-736 0q-32 0-32-32l0-736q0-32 32-32Z" fill="#FFFFFF" p-id="49235"></path><path d="M128 96h768a32 32 0 0 1 32 32v768a32 32 0 0 1-32 32H128a32 32 0 0 1-32-32V128a32 32 0 0 1 32-32z m0 32v768h768V128H128z m480 64h160v32h-160V192z m192 0h64v32h-64V192z" fill="#9CA3AE" p-id="49236"></path><path d="M256 256h640a32 32 0 0 1 32 32v608a32 32 0 0 1-32 32H256a32 32 0 0 1-32-32V288a32 32 0 0 1 32-32z m0 32v608h640V288H256z m352 64h160v32h-160V352z m192 0h64v32h-64V352z" fill="#808FA1" p-id="49237"></path><path d="M416 416h480a32 32 0 0 1 32 32v448a32 32 0 0 1-32 32H416a32 32 0 0 1-32-32V448a32 32 0 0 1 32-32z m0 32v448h480V448H416z m192 32h160v32h-160v-32z m192 0h64v32h-64v-32z" fill="#5D6D7E" p-id="49238"></path></svg>