<svg xmlns="http://www.w3.org/2000/svg" viewBox="0 0 1024 1024" version="1.1"><path d="M96 928c0-229.76 186.24-416 416-416s416 186.24 416 416H96z m592-416a48 48 0 1 1 0-96 48 48 0 0 1 0 96z m-480 0a48 48 0 1 1 0-96 48 48 0 0 1 0 96zM448 92.16c56-30.304 109.312-19.392 160 32.8 50.688 52.16 104 41.28 160-32.8v234.304c-50.56 37.504-103.104 37.504-157.6 0-54.496-37.536-108.64-37.536-162.4 0V92.16z" fill="#FFFFFF" p-id="30097"></path><path d="M169.664 691.552c7.68-11.072 15.84-21.76 24.512-32h71.68l113.76-67.552h185.12l-139.84 224H278.176L193.696 928H153.6l108.64-144h144.896l99.872-160h-118.624l-113.76 67.552h-104.96zM498.56 928l100.16-176.128 290.336 0.128c2.4 5.184 4.736 10.432 6.944 15.712v16.288l-278.72-0.096L535.36 928h-36.8z" fill="#ACB4C0" p-id="30098"></path><path d="M416 506.72c30.88-7.04 63.04-10.72 96-10.72 56.48 0 110.496 10.88 160 30.624V480h32v60.928c138.336 68.736 234.784 209.472 239.808 373.664l0.48 16.48H79.712l0.48-16.48A430.144 430.144 0 0 1 192 637.76V480h32v126.016a431.68 431.68 0 0 1 160-90.72V96h32v410.72z m0 32.896V608h-32v-59.072a400.448 400.448 0 0 0-160 101.472V672h-19.36a397.984 397.984 0 0 0-91.616 227.072h797.952A399.872 399.872 0 0 0 704 577.024V768h-32v-206.72a398.656 398.656 0 0 0-160-33.28c-33.088 0-65.248 4.032-96 11.616z" fill="#5D6D7E" p-id="30099"></path><path d="M688 512a48 48 0 1 1 0-96 48 48 0 0 1 0 96z m0-32a16 16 0 1 0 0-32 16 16 0 0 0 0 32z m-480 32a48 48 0 1 1 0-96 48 48 0 0 1 0 96z m0-32a16 16 0 1 0 0-32 16 16 0 0 0 0 32z" fill="#27A2DF" p-id="30100"></path><path d="M448 92.16c56-30.304 109.312-19.392 160 32.8 50.688 52.16 104 41.28 160-32.8v234.304c-50.56 37.504-103.104 37.504-157.6 0-54.496-37.536-108.64-37.536-162.4 0V92.16z m32 182.24c49.312-16.416 99.84-7.84 148.544 25.696 38.656 26.592 72.64 29.536 107.456 9.248V168.096c-50.688 33.792-103.36 28.16-150.944-20.832C549.376 110.528 516.096 99.808 480 112.736v161.664z" fill="#EF633F" p-id="30101"></path></svg>