<svg xmlns="http://www.w3.org/2000/svg" viewBox="0 0 1024 1024" version="1.1"><path d="M108.8 896H896V173.856l-384 0.064-55.104-69.696H224l-96 12.16v43.68l-19.2 81.984z" fill="#FFFFFF" p-id="52486"></path><path d="M128 928a32 32 0 0 1-32-32V128a32 32 0 0 1 32-32h324.8a32 32 0 0 1 25.376 12.544L517.536 160H896a32 32 0 0 1 32 32v704a32 32 0 0 1-32 32H128zM452.8 128H128l-0.032 288H128v480h768V288H575.2L452.8 128zM896 256V192H542.048l48.96 64H896z" fill="#5D6D7E" p-id="52487"></path><path d="M432 384a144 144 0 0 1 115.264 230.336l-89.824-140.064a32 32 0 0 0-53.952 0.096l-88 138.24A144 144 0 0 1 432 384z" fill="#3B97D3" opacity=".147" p-id="52488"></path><path d="M608 448h96a64 64 0 0 1 64 64v128a64 64 0 0 1-64 64h-96v-256z" fill="#30AD98" opacity=".147" p-id="52489"></path><path d="M430.4 528.768L294.4 745.92h269.28z" fill="#BC9A72" opacity=".147" p-id="52490"></path><path d="M444.032 502.336l147.488 241.312a16 16 0 0 1-13.664 24.352H282.912a16 16 0 0 1-13.632-24.32l147.456-241.344a16 16 0 0 1 27.296 0zM311.456 736h237.888l-118.944-194.624L311.456 736z" fill="#BC9A72" p-id="52491"></path><path d="M432 384a144 144 0 0 1 116.128 229.184l-19.808-28a112 112 0 1 0-193.92-2.176c-7.168 10.624-13.632 20.288-19.328 29.024A144 144 0 0 1 432 384z" fill="#27A2DF" p-id="52492"></path><path d="M608 448v32h128v192h-128v32h128a32 32 0 0 0 32-32v-192a32 32 0 0 0-32-32h-128z" fill="#30AD98" p-id="52493"></path></svg>