<svg xmlns="http://www.w3.org/2000/svg" viewBox="0 0 1024 1024" version="1.1"><path d="M445.824 318.752c28.096-27.072 55.104-79.168 80.064-156.032 41.984-129.28 152.064-110.72 248.864 70.624 27.008 50.592 81.28 109.76 129.12 136.704a16 16 0 1 1-15.744 27.904c-53.44-30.144-111.872-93.856-141.6-149.536-85.44-160.064-158.816-172.416-190.208-75.84-27.328 84.224-57.6 141.664-91.904 172.608 9.504 14.272 19.296 30.016 29.408 47.328a16 16 0 0 1-27.648 16.128c-61.248-104.896-105.792-143.744-136.128-135.584-23.68 6.336-42.848 35.84-74.176 106.432l-3.936 8.96c-33.888 76.576-84.832 123.456-152.32 139.136a16 16 0 0 1-7.232-31.168c57.024-13.248 100.256-53.056 130.272-120.96l3.968-8.96c36.032-81.184 57.568-114.272 95.136-124.352 37.568-10.08 77.536 14.208 124.064 76.608z m-364.16 368.64a16 16 0 1 1 28.672-14.176c67.36 136.384 129.792 145.856 205.248 33.504a1707.84 1707.84 0 0 0 32.48-50.432c-3.872 6.24 111.232-188.48 138.976-225.536 49.888-66.624 94.656-84.288 135.584-36.16 13.536 15.904 29.6 36.448 54.72 69.6l32.384 42.912c13.376 17.728 24 31.68 34.4 45.184 13.024 16.96 25.024 32.192 36.48 46.4 70.144 87.136 121.536 135.04 147.392 135.04a16 16 0 1 1 0 32c-40.64 0-94.176-49.92-172.32-146.944-11.616-14.4-23.744-29.856-36.896-46.976-10.496-13.6-21.152-27.616-34.592-45.44l-32.352-42.88c-24.768-32.64-40.544-52.864-53.6-68.16-23.072-27.168-46.176-18.048-85.6 34.592-26.496 35.424-140.32 227.936-137.408 223.264a1739.488 1739.488 0 0 1-33.088 51.36c-90.048 134.112-182.88 120.032-260.48-37.184z m598.816-13.76l-5.312-10.496c-16.672-32.896-31.328-42.56-46.08-38.016-24.224 7.456-53.12 46.08-91.2 116.704-6.496 12-31.904 60.544-37.92 71.648-38.208 70.176-97.472 113.824-176.736 130.208a16 16 0 0 1-6.464-31.36c70.08-14.464 121.408-52.288 155.072-114.144 5.888-10.816 31.264-59.296 37.856-71.552 42.72-79.168 74.048-121.024 109.984-132.096 32.48-10.016 61.12 8.928 84.032 54.144l5.312 10.464C803.968 846.4 854.4 912 928 912a16 16 0 1 1 0 32c-92.096 0-145.92-69.984-247.52-270.4z m37.28-282.208c31.552-29.12 205.92 44.8 221.248 99.616 8.544 30.496 6.4 60.8-8.16 80.256-18.08 24.192-50.144 27.264-89.856 8.64-73.792-34.624-156.64-157.632-123.2-188.48z m26.688 34.24c4.224 12.064 12.352 27.488 23.04 43.328 24.48 36.416 56.96 67.84 87.104 81.952 27.36 12.832 43.04 11.36 50.624 1.184 7.68-10.24 9.088-30.624 2.976-52.48-9.408-33.632-156.48-96-168.704-84.704 1.952-1.824 2.112 2.56 4.96 10.688z" fill="#5D6D7E" p-id="35066"></path></svg>