<svg xmlns="http://www.w3.org/2000/svg" viewBox="0 0 1024 1024" version="1.1"><path d="M112 112m32 0l736 0q32 0 32 32l0 736q0 32-32 32l-736 0q-32 0-32-32l0-736q0-32 32-32Z" fill="#FFFFFF" p-id="49780"></path><path d="M400.96 517.152C411.2 371.84 504.96 232.64 680.832 99.552l19.296 25.504c-175.616 132.896-264.384 269.536-268 409.984 160.224 97.216 310.112 231.2 424.768 364.96l-24.32 20.832c-114.4-133.504-264.832-267.456-424.8-363.104-56.352-33.696-157.44-76.032-302.72-126.624l10.56-30.208c129.344 45.056 224.32 83.712 285.344 116.256zM688 576a80 80 0 1 1 0-160 80 80 0 0 1 0 160z" fill="#ACB4C0" p-id="49781"></path><path d="M288 768m-96 0a96 96 0 1 0 192 0 96 96 0 1 0-192 0Z" fill="#30AD98" p-id="49782"></path><path d="M320 288m-64 0a64 64 0 1 0 128 0 64 64 0 1 0-128 0Z" fill="#C49F74" p-id="49783"></path><path d="M784 272m-48 0a48 48 0 1 0 96 0 48 48 0 1 0-96 0Z" fill="#27A2DF" p-id="49784"></path><path d="M128 96h768a32 32 0 0 1 32 32v768a32 32 0 0 1-32 32H128a32 32 0 0 1-32-32V128a32 32 0 0 1 32-32z m0 32v768h768V128H128z" fill="#5D6D7E" p-id="49785"></path></svg>