<svg xmlns="http://www.w3.org/2000/svg" viewBox="0 0 1024 1024" version="1.1"><path d="M748.608 768v32h-80v-32h80zM480 278.848v40.96a256.32 256.32 0 0 0-87.04 201.984A256.352 256.352 0 0 0 480 705.536v40.96a288.544 288.544 0 0 1-118.752-217.824H271.68a16 16 0 0 1-2.88-31.712l2.88-0.288h89.28A289.28 289.28 0 0 1 480 278.848z m268.608-52.256v32h-80v-32h80z" fill="#7A8A9B" p-id="43837"></path><path d="M896 704a32 32 0 0 1 32 32v160a32 32 0 0 1-32 32h-128a32 32 0 0 1-32-32v-160a32 32 0 0 1 32-32z m-256-64a32 32 0 0 1 32 32v160a32 32 0 0 1-32 32h-128a32 32 0 0 1-32-32v-160a32 32 0 0 1 32-32zM256 384a32 32 0 0 1 32 32v192a32 32 0 0 1-32 32H128a32 32 0 0 1-32-32v-192a32 32 0 0 1 32-32h128z m384-224a32 32 0 0 1 32 32v160a32 32 0 0 1-32 32h-128a32 32 0 0 1-32-32V192a32 32 0 0 1 32-32h128z m256-64a32 32 0 0 1 32 32v160a32 32 0 0 1-32 32h-128a32 32 0 0 1-32-32V128a32 32 0 0 1 32-32h128z" fill="#FFFFFF" p-id="43838"></path><path d="M896 704a32 32 0 0 1 32 32v160a32 32 0 0 1-32 32h-128a32 32 0 0 1-32-32v-160a32 32 0 0 1 32-32z m0 32h-128v160h128v-160z m-256-96a32 32 0 0 1 32 32v160a32 32 0 0 1-32 32h-128a32 32 0 0 1-32-32v-160a32 32 0 0 1 32-32z m0 32h-128v160h128v-160z m0-512a32 32 0 0 1 32 32v160a32 32 0 0 1-32 32h-128a32 32 0 0 1-32-32V192a32 32 0 0 1 32-32h128z m0 32h-128v160h128V192z m256-96a32 32 0 0 1 32 32v160a32 32 0 0 1-32 32h-128a32 32 0 0 1-32-32V128a32 32 0 0 1 32-32h128z m0 32h-128v160h128V128z" fill="#3B97D3" p-id="43839"></path><path d="M256 384a32 32 0 0 1 32 32v192a32 32 0 0 1-32 32H128a32 32 0 0 1-32-32v-192a32 32 0 0 1 32-32h128z m0 32H128v192h128v-192z" fill="#5D6D7E" p-id="43840"></path></svg>