<svg xmlns="http://www.w3.org/2000/svg" viewBox="0 0 1024 1024" version="1.1"><path d="M816 368l0 288-128 0 0-288z" fill="#FFFFFF" p-id="32031"></path><path d="M416 96m0 32l0 768q0 32-32 32l-256 0q-32 0-32-32l0-768q0-32 32-32l256 0q32 0 32 32Z" fill="#808FA1" p-id="32032"></path><path d="M736 896l0-192L768 704l0 192L928 896l0 32-352 0 0-32L736 896zM768 128l0 192-32 0L736 128l-160 0L576 96 928 96l0 32-160 0z m64 224l0 320-160 0L672 352 832 352z m-128 32l0 256L800 640 800 384l-96 0z" fill="#5D6D7E" p-id="32033"></path></svg>