<svg xmlns="http://www.w3.org/2000/svg" viewBox="0 0 1024 1024" version="1.1"><path d="M864 928H480v-0.544a842.848 842.848 0 0 1-99.52-9.184c-10.72-1.664-18.4-8.8-28.608-10.88-128-25.6-216.448-75.456-216.448-139.392V256h2.336a56.352 56.352 0 0 1-2.336-16c0-79.52 164.48-135.424 376.576-135.424 212.064 0 374.72 55.904 374.72 135.424 0 5.408-0.768 10.752-2.304 16h2.336L896 544v224c0 22.784-11.424 44.448-32 64.032V928z" fill="#FFFFFF" p-id="22224"></path><path d="M864 575.488V297.6C804.704 348.48 669.44 384 512 384S219.296 348.48 160 297.632V448c55.168 52.64 176.384 90.528 320 95.456v32c-133.504-4.384-251.232-36.16-320-86.112V608c0 48.48 92.224 98.08 224 118.4v32.48c-100.384-14.784-181.632-46.464-224-86.848v104.832l4.448 9.12c21.504 44.128 138.88 86.88 251.552 104.224v32.448C293.44 911.36 162.656 855.36 135.68 800L128 784v-544C128 160.48 299.936 96 512 96s384 64.48 384 144v335.488h-32zM512 352c195.456 0 352-58.72 352-112S707.456 128 512 128 160 186.72 160 240 316.544 352 512 352z m-32 352v224h384v-224a32 32 0 0 1 32 32v192a32 32 0 0 1-32 32H480a32 32 0 0 1-32-32v-192a32 32 0 0 1 32-32z m288-64v-96h-192v96a32 32 0 0 1-32-32v-64a32 32 0 0 1 32-32h192a32 32 0 0 1 32 32v64a32 32 0 0 1-32 32z" fill="#5D6D7E" p-id="22225"></path><path d="M736 736v64a32 32 0 0 1-32 32h-64a32 32 0 0 1-32-32v-64h-192v-96a32 32 0 0 1 32-32h448a32 32 0 0 1 32 32v96h-192z m-288-32h192v96h64v-96h192v-64H448v64z m192-32h64v64h-64v-64z" fill="#C49F74" p-id="22226"></path></svg>