<svg xmlns="http://www.w3.org/2000/svg" viewBox="0 0 1024 1024" version="1.1"><path d="M864 822.464V928H480v-0.608c-173.888-6.56-314.88-66.24-345.728-143.552H128V245.12h0.224A55.168 55.168 0 0 1 128 240C128 160.48 299.936 96 512 96s384 64.48 384 144c0 1.728-0.096 3.424-0.224 5.12H896v538.72h-6.272c-5.376 13.44-14.08 26.4-25.728 38.624z" fill="#FFFFFF" p-id="49334"></path><path d="M896 544h-32V297.632C804.704 348.48 669.44 384 512 384S219.296 348.48 160 297.632V448h-0.032c55.2 52.64 176.416 90.528 320.032 95.456v32c-133.504-4.384-251.232-36.16-320-86.112V608c0 48.48 92.224 98.08 224 118.4v32.48c-100.384-14.784-181.632-46.464-224-86.848v104.832l4.448 9.12c21.504 44.128 106.88 83.104 219.552 100.48v32.416C258.304 900.384 162.656 855.392 135.68 800L128 784.8V246.688l0.416 0.128A55.232 55.232 0 0 1 128 240C128 160.48 299.936 96 512 96s384 64.48 384 144l-0.032 2.272H896V544z m-384-192c195.456 0 352-58.72 352-112S707.456 128 512 128 160 186.72 160 240 316.544 352 512 352z m-32 352v224h384v-224a32 32 0 0 1 32 32v192a32 32 0 0 1-32 32H480a32 32 0 0 1-32-32v-192a32 32 0 0 1 32-32z m288-64v-96h-192v96a32 32 0 0 1-32-32v-64a32 32 0 0 1 32-32h192a32 32 0 0 1 32 32v64a32 32 0 0 1-32 32z" fill="#5D6D7E" p-id="49335"></path><path d="M736 736v64a32 32 0 0 1-32 32h-64a32 32 0 0 1-32-32v-64h-192v-96a32 32 0 0 1 32-32h448a32 32 0 0 1 32 32v96h-192z m-96 0v64h64v-64h-64z m0-64v32h64v-32h-64z" fill="#C49F74" p-id="49336"></path></svg>