<svg xmlns="http://www.w3.org/2000/svg" viewBox="0 0 1024 1024" version="1.1"><path d="M160 288H128V96h32v32h32a128 128 0 0 1 128 128v352H192V288c0-32 0-32-32-32v32z m512 608h64v32h-64v-32z m96 0h64v32h-64v-32z m96 0h64v32h-64v-32z m0-64h32v32h-192v-32h32v-288h128v288zM416 416h128v272a176 176 0 0 1-352 0v-48.512h131.712v50.368a46.144 46.144 0 0 0 92.288 0V416z m320-32v-32c0-32 0-32-32-32h-128c-32 0-32 0-32 32v32h-128v-64a128 128 0 0 1 128-128h192a128 128 0 0 1 128 128v64h-128z m-32 32h192v96h-192v-96z" fill="#FFFFFF" p-id="44378"></path><path d="M160 288H128V96h32v32h32a128 128 0 0 1 128 128v352H192V288c0-32 0-32-32-32v32z m512 608h64v32h-64v-32z m96 0h64v32h-64v-32z m96 0h64v32h-64v-32z m0-64h32v32h-192v-32h32v-288h128v288zM416 416h128v272a176 176 0 0 1-352 0v-48.512h131.712v50.368a46.144 46.144 0 0 0 92.288 0V416z m32 273.856a78.144 78.144 0 0 1-156.288 0v-18.368H224v16.512a144 144 0 1 0 288 0V448h-64v241.856zM736 384v-32c0-32 0-32-32-32h-128c-32 0-32 0-32 32v32h-128v-64a128 128 0 0 1 128-128h192a128 128 0 0 1 128 128v64h-128z m96-32v-32a96 96 0 0 0-96-96h-192a96 96 0 0 0-96 96v32h64c0-49.664 14.336-64 64-64h128c49.664 0 64 14.336 64 64h64z m-128 64h192v96h-192v-96z m32 32v32h128v-32h-128z m32 128v256h64v-256h-64zM288 256a96 96 0 0 0-96-96H160v64h32a32 32 0 0 1 32 32v320h64V256z" fill="#BC9A72" p-id="44379"></path><path d="M128 96h32v192H128V96z m576 320h192v96h-192v-96z m32 32v32h128v-32h-128z m-32 384h192v32h-192v-32z m-32 64h64v32h-64v-32z m96 0h64v32h-64v-32z m96 0h64v32h-64v-32z" fill="#5A6978" p-id="44380"></path></svg>