<svg xmlns="http://www.w3.org/2000/svg" viewBox="0 0 1024 1024" version="1.1"><path d="M576 352h320a32 32 0 0 1 32 32v416a32 32 0 0 1-32 32H352a32 32 0 0 1-32-32V448H128a32 32 0 0 1-32-32V128a32 32 0 0 1 32-32h416a32 32 0 0 1 32 32v224z" fill="#FFFFFF" p-id="14809"></path><path d="M576 352h-32V128H128v288h192v32H128a32 32 0 0 1-32-32V128a32 32 0 0 1 32-32h416a32 32 0 0 1 32 32v224z m-256 160v-64h32v96H192v-32h128z" fill="#808FA1" p-id="14810"></path><path d="M640 832v64h128v32h-288v-32h128v-64h-256a32 32 0 0 1-32-32V384a32 32 0 0 1 32-32h544a32 32 0 0 1 32 32v416a32 32 0 0 1-32 32h-256z m-288-448v416h544V384H352z" fill="#5D6D7E" p-id="14811"></path><path d="M640.864 161.024v-32h64v32h-64z m128 0v-32h31.744v64.224h-32V145.024h16v16h-15.744z m-0.256 96.224h32v64h-32v-64zM304.64 688.064v32h-64v-32h64z m-128 0v32H112.864v-32.224h32v16.224l-16-16h47.744z m-31.744-64.224h-32v-64h32v64z" fill="#27A2DF" p-id="14812"></path></svg>