<svg xmlns="http://www.w3.org/2000/svg" viewBox="0 0 1024 1024" version="1.1"><path d="M576 448h352v345.12L795.136 928H352v-224H96V128h351.904L576 266.592V448z" fill="#FFFFFF" p-id="31508"></path><path d="M448 128.96l0.352-0.352L574.08 256H576v1.952l0.544 0.544-0.544 0.544V416h-32V288h-128V160H128v512h192v32H96V128h352v0.96z m0 44.832V256h81.12L448 173.792zM927.04 800l0.352 0.352L800 926.08V928h-1.952l-0.544 0.544-0.544-0.544H352V448h576v352h-0.96z m-44.832 0H800v81.12L882.208 800zM896 768v-288H384v416h384v-128h128z" fill="#5D6D7E" p-id="31509"></path><path d="M784 315.808V201.44C746.112 152.416 717.856 128 704 128V96c28.416 0 62.912 30.176 108.736 90.304l3.264 4.288V315.84l52.576-47.744 21.92 19.936L800 370.176 709.504 288l21.92-19.936L784 315.84z" fill="#27A2DF" p-id="31510"></path></svg>