<svg xmlns="http://www.w3.org/2000/svg" viewBox="0 0 1024 1024" version="1.1"><path d="M96 96m48 0l736 0q48 0 48 48l0 512q0 48-48 48l-736 0q-48 0-48-48l0-512q0-48 48-48Z" fill="#FFFFFF" p-id="34477"></path><path d="M320 544h160v128H320z" fill="#C49F74" p-id="34478"></path><path d="M544 320h192v352h-160v-160h-32V320zM128 128h160v160H128V128z m640 0h128v160h-128V128z" fill="#CFD7E0" p-id="34479"></path><path d="M544 128h192v160h-192z" fill="#27A2DF" fill-opacity=".5" p-id="34480"></path><path d="M128 544h160v128H128v-128z m192-224h192v192H320V320z m448 224h128v128h-128v-128z" fill="#30AD98" fill-opacity=".5" p-id="34481"></path><path d="M544 872.288l114.336-99.072a16 16 0 1 1 20.96 24.192l-151.328 131.104-150.56-131.136a16 16 0 0 1 21.024-24.128L512 872.128V544h32v328.288z" fill="#27A2DF" p-id="34482"></path><path d="M736 672v-128h-160v-32h-96v32H320v128h160v32H128a32 32 0 0 1-32-32V128a32 32 0 0 1 32-32h768a32 32 0 0 1 32 32v544a32 32 0 0 1-32 32H576v-32h160z m32 0h128v-128h-128v128z m128-160V320h-128v192h128z m0-224V128h-128v160h128z m-160-160h-192v160h192V128z m-224 0H320v160h192V128zM288 128H128v160h160V128zM128 320v192h160V320H128z m0 224v128h160v-128H128z m608-224h-192v192h192V320z m-224 192V320H320v192h192z" fill="#5D6D7E" p-id="34483"></path></svg>