<svg xmlns="http://www.w3.org/2000/svg" viewBox="0 0 1024 1024" version="1.1"><path d="M821.056 500.256L928 928H98.496L264.128 224h295.808A208.064 208.064 0 0 1 960 304a208.096 208.096 0 0 1-138.944 196.256z" fill="#FFFFFF" p-id="34379"></path><path d="M836.64 511.456L928 928H96L250.4 224h292.32A224.096 224.096 0 0 1 976 304c0 93.76-57.6 174.08-139.36 207.456zM533.152 256H276.16L135.776 896h752.448L806.08 521.44A224 224 0 0 1 533.12 256z m218.848 240a192 192 0 1 0 0-384 192 192 0 0 0 0 384z" fill="#5D6D7E" p-id="34380"></path><path d="M98.496 909.312l170.656-291.36 354.336 291.36z" fill="#30AD98" fill-opacity=".5" p-id="34381"></path><path d="M70.592 925.312l194.24-331.648 403.296 331.648H70.592z m55.808-32H578.88l-305.376-251.104-147.072 251.104z" fill="#30AD98" p-id="34382"></path><path d="M503.808 417.984h-141.984l-42.848 84.48a16 16 0 0 1-28.544-14.464l51.744-102.016h158.528l-61.312-64.192a16 16 0 0 1 23.136-22.08l102.24 107.04-103.2 91.36a16 16 0 1 1-21.216-23.968l63.456-56.16zM752 416a80 80 0 0 1-80-80C672 291.84 752 192 752 192S832 291.84 832 336a80 80 0 0 1-80 80z" fill="#27A2DF" p-id="34383"></path></svg>