<svg xmlns="http://www.w3.org/2000/svg" viewBox="0 0 1024 1024" version="1.1"><path d="M112 112m32 0l736 0q32 0 32 32l0 736q0 32-32 32l-736 0q-32 0-32-32l0-736q0-32 32-32Z" fill="#FFFFFF" p-id="18499"></path><path d="M709.312 96h26.528l32.192 31.488L410.464 493.024l152.768 146.144 333.984-316.416L928 355.264v26.496l-318.432 301.696 233.376 223.232-20.384 21.312h-49.92L365.696 538.784l-237.184 242.464L96 749.472v-26.528L709.312 96zM256 384h64v64H256V384zM160 288h64v64H160V288z" fill="#CDD1D7" p-id="18500"></path><path d="M590.912 701.248l205.792-196.16-44.16-46.336-205.76 196.16z" fill="#27A2DF" p-id="18501"></path><path d="M128 96h768a32 32 0 0 1 32 32v768a32 32 0 0 1-32 32H128a32 32 0 0 1-32-32V128a32 32 0 0 1 32-32z m0 32v768h768V128H128z" fill="#5D6D7E" p-id="18502"></path></svg>