<svg xmlns="http://www.w3.org/2000/svg" viewBox="0 0 1024 1024" version="1.1"><path d="M880 784V416a16 16 0 0 0-16-16H416a16 16 0 0 0-16 16v448a16 16 0 0 0 16 16h368v-96h96z" fill="#FFFFFF" p-id="32414"></path><path d="M384 640H160a32 32 0 0 1-32-32V224h96V128h384a32 32 0 0 1 32 32v224h224a32 32 0 0 1 32 32v384h-96v96H416a32 32 0 0 1-32-32v-224z m32 0v224h352v-96h96V416h-224v192a32 32 0 0 1-32 32h-192z" fill="#5D6D7E" p-id="32415"></path><path d="M96 96h96v96H96V96z m736 0h96v96h-96V96zM96 832h96v96H96v-96z m736 0h96v96h-96v-96z" fill="#27A2DF" p-id="32416"></path></svg>