<svg xmlns="http://www.w3.org/2000/svg" viewBox="0 0 1024 1024" version="1.1"><path d="M624 96C738.88 96 832 189.984 832 305.952c0 14.048-3.04 29.568-8.416 46.048H896a32 32 0 0 1 32 32v512a32 32 0 0 1-32 32H128a32 32 0 0 1-32-32V384a32 32 0 0 1 32-32h296.416C419.04 335.52 416 320 416 305.92 416 189.984 509.12 96 624 96z" fill="#FFFFFF" p-id="43437"></path><path d="M912 560v32h-131.2a48 48 0 0 0-30.336 10.816l-3.52 3.168-28.928 28.8a80 80 0 0 1-50.112 23.04l-6.336 0.224h-59.552l-44.64-38.848a35.616 35.616 0 0 0-44.992-1.44l-3.552 3.104a30.656 30.656 0 0 0-2.496 40.48l2.56 2.88 0.448 0.448a53.984 53.984 0 0 1-5.696 81.408l-4.064 2.752-27.2 16.768-16.8-27.2 27.2-16.8a21.984 21.984 0 0 0 7.136-30.24l-1.472-2.112-2.144-2.368a62.656 62.656 0 0 1-3.776-84.608l4.384-4.736a67.616 67.616 0 0 1 86.944-6.08l4.512 3.616 35.616 30.976h47.584a48 48 0 0 0 30.368-10.784l3.52-3.2 28.928-28.8a80 80 0 0 1 50.112-23.04l6.304-0.224h131.2z" fill="#D8D8D8" p-id="43438"></path><path d="M896 352a32 32 0 0 1 32 32v512a32 32 0 0 1-32 32H128a32 32 0 0 1-32-32V384a32 32 0 0 1 32-32h305.056l17.056 32H128v512h768V384h-102.176l13.952-32H896z" fill="#5D6D7E" p-id="43439"></path><path d="M624 96C738.88 96 832 189.984 832 305.952 832 480 624 640 624 640l-13.92-15.04C563.488 573.664 416 452.064 416 305.92 416 189.984 509.12 96 624 96z m0 32C526.88 128 448 207.616 448 305.952c0 65.952 34.272 132.512 96.16 203.776l9.824 10.944c11.328 12.32 26.496 28.16 40.576 42.656l32 32.768 8.416-7.488c23.36-21.248 46.784-45.12 68.544-70.976C764.16 445.664 800 373.024 800 305.952 800 207.616 721.12 128 624 128z" fill="#27A2DF" p-id="43440"></path><path d="M256 864v-0.384l-96-58.752 96-68.416V736h544a64 64 0 1 1 0 128H256z m480-96H288v64h448v-64z m64 0h-32v64h32a32 32 0 0 0 31.776-28.256L832 800a32 32 0 0 0-28.256-31.776L800 768z m-544 7.712l-38.016 27.104L256 826.08v-50.368z" fill="#C49F74" p-id="43441"></path><path d="M624 224a80 80 0 1 1 0 160 80 80 0 0 1 0-160z m0 32a48 48 0 1 0 0 96 48 48 0 0 0 0-96z" fill="#5D6D7E" p-id="43442"></path></svg>