<svg xmlns="http://www.w3.org/2000/svg" viewBox="0 0 1024 1024" version="1.1"><path d="M474.656 483.68l131.776 395.296 56.416-201.376 208.384-61.728-396.576-132.16z" fill="#FFFFFF" p-id="26673"></path><path d="M449.344 458.4l475.2 158.4-248.672 73.6-68.128 243.168-158.4-475.2z m155.744 366.016l44.736-159.68 168.096-49.76-317.952-105.984 105.12 315.424z" fill="#27A2DF" p-id="26674"></path><path d="M704 216.512l17.856-4.352 7.456 31.136C349.632 334.048 162.4 508.448 162.4 767.168h-32c0-264.736 183.104-446.016 544.736-543.168H192V192h512v24.512z m85.536 8.32v-32c62.432 0 91.2-30.144 91.2-96.448h32c0 83.648-42.752 128.448-123.2 128.448z" fill="#5D6D7E" p-id="26675"></path><path d="M128 160h32a32 32 0 0 1 32 32v32a32 32 0 0 1-32 32H128a32 32 0 0 1-32-32V192a32 32 0 0 1 32-32z m0 608h32a32 32 0 0 1 32 32v32a32 32 0 0 1-32 32H128a32 32 0 0 1-32-32v-32a32 32 0 0 1 32-32zM736 160h32a32 32 0 0 1 32 32v32a32 32 0 0 1-32 32h-32a32 32 0 0 1-32-32V192a32 32 0 0 1 32-32z" fill="#30AD98" p-id="26676"></path></svg>