<svg xmlns="http://www.w3.org/2000/svg" viewBox="0 0 1024 1024" version="1.1"><path d="M151.424 896l65.12 57.984-21.28 23.904-101.856-90.688 101.856-91.008 21.312 23.872L167.392 864h698.24l-50.944-45.344 21.28-23.904 101.856 90.656-101.824 91.04-21.344-23.872L877.952 896H151.424z" fill="#5D6D7E" p-id="32840"></path><path d="M768 128v608a32 32 0 0 1-32 32h-160a32 32 0 0 1-32-32V128a32 32 0 0 1 32-32h160a32 32 0 0 1 32 32z m-320 192v416a32 32 0 0 1-32 32H256a32 32 0 0 1-32-32V320a32 32 0 0 1 32-32h160a32 32 0 0 1 32 32z" fill="#808FA1" p-id="32841"></path></svg>