<svg xmlns="http://www.w3.org/2000/svg" viewBox="0 0 1024 1024" version="1.1"><path d="M736 380.8L860.8 256l90.496 90.496L736 561.792V912a48 48 0 0 1-48 48h-544A48 48 0 0 1 96 912v-736A48 48 0 0 1 144 128h480L736 242.24v138.56z" fill="#FFFFFF" p-id="46122"></path><path d="M736 328.544l-32 27.296V255.296L610.56 160H128v768h576v-290.976l32-25.504V928a32 32 0 0 1-32 32H128a32 32 0 0 1-32-32V160a32 32 0 0 1 32-32h496L736 242.24v86.304z" fill="#5D6D7E" p-id="46123"></path><path d="M832 864h32v32H256v-32h64v-160h32v160h64v-256h32v256h64V480h32v384h64v-160h32v160h64v-192h32v192h64v-96h32v96z" fill="#808FA1" p-id="46124"></path><path d="M416 608h32v256h-32z" fill="#30AD98" p-id="46125"></path><path d="M512 480h32v384h-32z" fill="#27A2DF" p-id="46126"></path><path d="M704 635.52l32-27.52v256h-32z" fill="#DADDE1" p-id="46127"></path><path d="M608 704h32v160h-32z" fill="#C49F74" p-id="46128"></path><path d="M877.6 374.976l28.448-28.48-45.28-45.248-28.448 28.48 45.28 45.248z m-22.624 22.624l-45.28-45.28-188.448 188.48v45.248h45.248l188.48-188.48zM860.768 256l90.528 90.496-271.52 271.552h-90.528v-90.528L860.8 256z" fill="#C49F74" p-id="46129"></path></svg>