<svg xmlns="http://www.w3.org/2000/svg" viewBox="0 0 1024 1024" version="1.1"><path d="M96 96m48 0l736 0q48 0 48 48l0 736q0 48-48 48l-736 0q-48 0-48-48l0-736q0-48 48-48Z" fill="#FFFFFF" p-id="24567"></path><path d="M192 768h352v32H192v-32zM192 192h96v544H192V192z m256 96h96v448h-96V288z" fill="#808FA1" p-id="24568"></path><path d="M320 480h96v256H320z" fill="#ACB4C0" p-id="24569"></path><path d="M783.776 718.496h113.536v-64l96 80-96 80v-64h-113.536V864h65.728l-80 96-80-96h62.272v-113.504H640v65.728l-96-80 96-80v62.272h111.776v-111.808h-64l80-96 80 96h-64v111.808z" fill="#27A2DF" p-id="24570"></path><path d="M864 896h32v-32h32v32a32 32 0 0 1-32 32h-32v-32z m-192 0v32H128a32 32 0 0 1-32-32V128a32 32 0 0 1 32-32h768a32 32 0 0 1 32 32v480h-32V128H128v768h544zM608 161.152h32v62.784l-32 0.096V161.152zM640 352h-32V290.016h32V352z m0 127.968h-32v-63.52h32v63.52z m0 126.72h-32V544h32v62.72z" fill="#5D6D7E" p-id="24571"></path></svg>