<svg xmlns="http://www.w3.org/2000/svg" viewBox="0 0 1024 1024" version="1.1"><path d="M112 112m32 0l736 0q32 0 32 32l0 736q0 32-32 32l-736 0q-32 0-32-32l0-736q0-32 32-32Z" fill="#FFFFFF" p-id="17263"></path><path d="M128 96h768a32 32 0 0 1 32 32v768a32 32 0 0 1-32 32H128a32 32 0 0 1-32-32V128a32 32 0 0 1 32-32z m0 32v768h768V128H128z" fill="#ACB4C0" p-id="17264"></path><path d="M224 384h128v544H224z" fill="#3B97D3" p-id="17265"></path><path d="M384 576h128v352H384z" fill="#2FB49E" p-id="17266"></path><path d="M544 192h128v736h-128z" fill="#DF8C3B" p-id="17267"></path><path d="M704 384h128v544h-128z" fill="#EF633F" p-id="17268"></path><path d="M128 96H96v832h832v-32H128z" fill="#5D6D7E" p-id="17269"></path></svg>