<svg xmlns="http://www.w3.org/2000/svg" viewBox="0 0 1024 1024" version="1.1"><path d="M112 112m32 0l736 0q32 0 32 32l0 736q0 32-32 32l-736 0q-32 0-32-32l0-736q0-32 32-32Z" fill="#FFFFFF" p-id="47712"></path><path d="M160 192h128v672H160z" fill="#27A2DF" p-id="47713"></path><path d="M352 544h128v320H352z" fill="#ACB4C0" p-id="47714"></path><path d="M544 320h128v544h-128z" fill="#30AD98" p-id="47715"></path><path d="M736 416h128v448h-128z" fill="#808FA1" p-id="47716"></path><path d="M128 96h768a32 32 0 0 1 32 32v768a32 32 0 0 1-32 32H128a32 32 0 0 1-32-32V128a32 32 0 0 1 32-32z m0 32v768h768V128H128z" fill="#5D6D7E" p-id="47717"></path></svg>