<svg xmlns="http://www.w3.org/2000/svg" viewBox="0 0 1024 1024" version="1.1"><path d="M464 754.752c185.568 0 328.224-137.184 328.224-322.752S649.6 110.144 464 110.144C278.432 110.144 140.288 246.4 140.288 432c0 185.568 138.144 322.752 323.712 322.752z" fill="#FFFFFF" p-id="23243"></path><path d="M711.712 659.008a48 48 0 0 1 53.312 9.984l158.4 158.4a48 48 0 0 1-67.904 67.872l-158.4-158.4a48 48 0 0 1-9.696-53.888A334.72 334.72 0 0 1 464 768C278.432 768 128 617.568 128 432S278.432 96 464 96 800 246.432 800 432c0 87.52-33.472 167.2-88.288 227.008zM464 736a304 304 0 1 0 0-608 304 304 0 0 0 0 608z" fill="#5D6D7E" p-id="23244"></path><path d="M288 416h352v32H288z" fill="#27A2DF" p-id="23245"></path></svg>