<svg xmlns="http://www.w3.org/2000/svg" viewBox="0 0 1024 1024" version="1.1"><path d="M462.016 757.056c185.536 0 314.688-153.856 314.688-325.056S647.552 109.824 462.016 109.824c-69.312 0-133.696 7.136-187.2 43.072a335.68 335.68 0 0 0-148.8 279.104c0 20.16 1.76 39.904 5.152 59.072 27.936 157.408 165.44 265.984 330.848 265.984z" fill="#FFFFFF" p-id="23680"></path><path d="M577.44 160h61.408a334.496 334.496 0 0 0-197.312-64c-185.568 0-336 150.432-336 336S255.968 768 441.536 768c169.28 0 309.312-125.184 332.608-288H741.76c-23.008 145.088-148.672 256-300.224 256a304 304 0 0 1 0-608c48.864 0 95.04 11.52 135.904 32z m99.872 513.92a48 48 0 0 0 0 67.904l158.4 158.4a48 48 0 0 0 67.872-67.904l-158.4-158.4a48 48 0 0 0-67.84 0z" fill="#5D6D7E" p-id="23681"></path><path d="M752 208V96h32v112H896v32h-112V352h-32V240H640v-32h112z m-112 192h256v32h-256v-32z" fill="#27A2DF" p-id="23682"></path><path d="M466.496 226.848a208 208 0 0 0-228.32 280.736l-22.72 27.968a240 240 0 0 1 273.792-336.672l-22.752 27.968z" fill="#808FA1" p-id="23683"></path></svg>