<svg xmlns="http://www.w3.org/2000/svg" viewBox="0 0 1024 1024" version="1.1"><path d="M512 768.032L288 768a32 32 0 0 1-32-32v-224h224a32 32 0 0 0 31.776-28.256L512 480V256h224a32 32 0 0 1 32 32v224h-224a32 32 0 0 0-31.776 28.256L512 544v224.032zM768 608v128a32 32 0 0 1-32 32h-128v-160h160zM416 256v160H256V288a32 32 0 0 1 32-32h128z" fill="#27A2DF" p-id="31888"></path><path d="M896 544a32 32 0 0 1 32 32v320a32 32 0 0 1-32 32H576a32 32 0 0 1-32-32V576a32 32 0 0 1 32-32h320zM448 96a32 32 0 0 1 32 32v320a32 32 0 0 1-32 32H128a32 32 0 0 1-32-32V128a32 32 0 0 1 32-32h320z" fill="#FFFFFF" p-id="31889"></path><path d="M896 544a32 32 0 0 1 32 32v320a32 32 0 0 1-32 32H576a32 32 0 0 1-32-32V576a32 32 0 0 1 32-32h320z m0 32H576v320h320V576zM448 96a32 32 0 0 1 32 32v320a32 32 0 0 1-32 32H128a32 32 0 0 1-32-32V128a32 32 0 0 1 32-32h320z m0 32H128v320h320V128z" fill="#5D6D7E" p-id="31890"></path></svg>