<svg xmlns="http://www.w3.org/2000/svg" viewBox="0 0 1024 1024" version="1.1"><path d="M896 96a32 32 0 0 1 32 32v768a32 32 0 0 1-32 32H128a32 32 0 0 1-32-32V128a32 32 0 0 1 32-32h768z m0 32H128v768h768V128z" fill="#95A1AF" p-id="51272"></path><path d="M384 640v288H128a32 32 0 0 1-32-32v-256h288z m-32 32H128v224h224v-224zM896 96a32 32 0 0 1 32 32v256h-288V96h256z m0 32h-224v224h224V128z" fill="#63707E" p-id="51273"></path><path d="M672 352v320H352V352h320z m-32 32h-256v256h256v-256z" fill="#C49F74" p-id="51274"></path><path d="M352 352h320v320H352z" fill="#C49F74" fill-opacity=".2" p-id="51275"></path></svg>