<svg xmlns="http://www.w3.org/2000/svg" viewBox="0 0 1024 1024" version="1.1"><path d="M112 112m32 0l736 0q32 0 32 32l0 736q0 32-32 32l-736 0q-32 0-32-32l0-736q0-32 32-32Z" fill="#FFFFFF" p-id="48888"></path><path d="M576 592l-56 96.992h-112L352 592l56-96.992h112z" fill="#C49F74" opacity=".8" p-id="48889"></path><path d="M576 336l-56 96.992h-112L352 336l56-96.992h112z" fill="#39A9E0" p-id="48890"></path><path d="M832 496l-56 96.992h-112L608 496l56-96.992h112z" fill="#30AD98" p-id="48891"></path><path d="M529.824 928H398.176L352 848l56-96.992h112L576 848 529.824 928z" fill="#808FA1" opacity=".4" p-id="48892"></path><path d="M832 752l-56 96.992h-112L608 752l56-96.992h112z" fill="#808FA1" opacity=".5" p-id="48893"></path><path d="M352 240L296 336.992h-112L128 240l56-96.992h112L352 240z m0 256l-56 96.992h-112L128 496l56-96.992h112L352 496z m0 256l-56 96.992h-112L128 752l56-96.992h112L352 752z" fill="#ACB4C0" opacity=".5" p-id="48894"></path><path d="M128 96h768a32 32 0 0 1 32 32v768a32 32 0 0 1-32 32H128a32 32 0 0 1-32-32V128a32 32 0 0 1 32-32z m0 32v768h768V128H128z" fill="#5D6D7E" p-id="48895"></path></svg>