<svg xmlns="http://www.w3.org/2000/svg" viewBox="0 0 1024 1024" version="1.1"><path d="M320 128h192v192h-192V128z m-192 192h192v192H128v-192z m384 0h192v192h-192v-192z m-192 192h192v192h-192v-192z m-192 192h192v192H128v-192z m384 0h192v192h-192v-192z m192-576h192v192h-192V128z m0 384h192v192h-192v-192z" fill="#CCCCCC" p-id="25403"></path><path d="M128 128h192v192H128V128z m384 0h192v192h-192V128z m-192 192h192v192h-192v-192z m384 0h192v192h-192v-192zM128 512h192v192H128v-192z m384 0h192v192h-192v-192z m-192 192h192v192h-192v-192z m384 0h192v192h-192v-192z" fill="#FFFFFF" p-id="25404"></path><path d="M128 96h768a32 32 0 0 1 32 32v768a32 32 0 0 1-32 32H128a32 32 0 0 1-32-32V128a32 32 0 0 1 32-32z m0 32v768h768V128H128z" fill="#5D6D7E" p-id="25405"></path><path d="M503.904 310.88l-95.872 241.76h191.36l-95.488-241.76zM696.48 800l-65.408-166.56h-254.72L310.08 800H224l238.464-601.28h91.424L788.672 800h-92.192z" fill="#5D6D7E" p-id="25406"></path></svg>