<svg xmlns="http://www.w3.org/2000/svg" viewBox="0 0 1024 1024" version="1.1"><path d="M112 112m32 0l736 0q32 0 32 32l0 736q0 32-32 32l-736 0q-32 0-32-32l0-736q0-32 32-32Z" fill="#FFFFFF" p-id="36664"></path><path d="M896 96a32 32 0 0 1 32 32v768a32 32 0 0 1-32 32H128a32 32 0 0 1-32-32V128a32 32 0 0 1 32-32h768z m0 32H128v768h768V128z" fill="#5D6D7E" p-id="36665"></path><path d="M512 480h-32V208a16 16 0 1 1 32 0V480z m0 192v48a16 16 0 1 1-32 0V672h32zM320 224H288v-16a16 16 0 0 1 32 0V224z m0 224v272a16 16 0 1 1-32 0V448h32z m416-192h-32V208a16 16 0 1 1 32 0V256z m0 224v48a16 16 0 1 1-32 0V480h32zM256 256h96a32 32 0 0 1 32 32v96a32 32 0 0 1-32 32H256a32 32 0 0 1-32-32V288a32 32 0 0 1 32-32z m0 32v96h96V288H256z m416 0h96a32 32 0 0 1 32 32v96a32 32 0 0 1-32 32h-96a32 32 0 0 1-32-32V320a32 32 0 0 1 32-32z m0 32v96h96V320h-96z" fill="#ACB4C0" p-id="36666"></path><path d="M432 496m32 0l64 0q32 0 32 32l0 64q0 32-32 32l-64 0q-32 0-32-32l0-64q0-32 32-32Z" fill="#93D0EF" p-id="36667"></path><path d="M448 480h96a32 32 0 0 1 32 32v96a32 32 0 0 1-32 32h-96a32 32 0 0 1-32-32v-96a32 32 0 0 1 32-32z m0 32v96h96v-96h-96zM812.256 778.624A208.416 208.416 0 0 1 948.896 928h-33.088a176.064 176.064 0 0 0-338.752 0H544a208.416 208.416 0 0 1 136.64-149.376 112 112 0 1 1 131.648 0zM746.432 768a80 80 0 1 0 0-160 80 80 0 0 0 0 160z" fill="#27A2DF" p-id="36668"></path></svg>