<svg xmlns="http://www.w3.org/2000/svg" viewBox="0 0 1024 1024" version="1.1"><path d="M128 96h768a32 32 0 0 1 32 32v715.904l-27.872 45.376a32 32 0 0 1-10.88 10.752l-47.04 27.968H128a32 32 0 0 1-32-32V128a32 32 0 0 1 32-32z" fill="#FFFFFF" p-id="22029"></path><path d="M624.992 896c14.848 13.12 31.744 23.968 50.144 32H128a32 32 0 0 1-32-32V128a32 32 0 0 1 32-32h768a32 32 0 0 1 32 32v547.136a192.128 192.128 0 0 0-32-50.144V128H128v768h496.992z m254.016 0H896v-16.992c13.12-14.848 23.968-31.744 32-50.144V896a32 32 0 0 1-32 32h-67.136a192.128 192.128 0 0 0 50.144-32z" fill="#5D6D7E" p-id="22030"></path><path d="M307.776 266.88l-92.928 100.16 91.84 81.472-21.248 23.936-116.288-103.168 115.2-124.16 23.424 21.76z m113.312-43.072l30.72 8.928-72.896 251.104-30.72-8.96 72.896-251.072z m48.544 229.696l97.248-82.912-98.464-103.552 23.168-22.08 121.76 128.064-122.976 104.832-20.736-24.352z m211.584 459.68A219.648 219.648 0 0 1 657.6 864h-41.376a176.544 176.544 0 0 0 64.96 49.184z m141.568 0A176.544 176.544 0 0 0 887.744 864H846.4c-6.4 18.624-14.4 35.232-23.616 49.184zM812.384 864h-120.768c15.616 39.424 38.368 64 60.384 64s44.8-24.576 60.384-64z m-172.064-96h-63.616c2.08 22.88 8.512 44.48 18.496 64h53.376a360.32 360.32 0 0 1-8.256-64z m32.032 0c1.024 23.04 4.256 44.608 9.088 64h141.12c4.8-19.392 8.064-40.96 9.088-64H672.32z m191.328 0a360.32 360.32 0 0 1-8.256 64H908.8c9.984-19.52 16.416-41.12 18.496-64H863.68z m-215.104-96H595.2a174.88 174.88 0 0 0-18.496 64h63.616a360.32 360.32 0 0 1 8.256-64z m32.864 0c-4.8 19.392-8.064 40.96-9.088 64h159.296a325.664 325.664 0 0 0-9.088-64h-141.12z m173.984 0c4.48 19.936 7.328 41.472 8.256 64h63.616a174.88 174.88 0 0 0-18.496-64h-53.376z m-174.208-81.184A176.544 176.544 0 0 0 616.256 640h41.344c6.4-18.624 14.4-35.232 23.616-49.184z m141.568 0c9.216 13.952 17.184 30.56 23.616 49.184h41.376a176.544 176.544 0 0 0-64.96-49.184zM812.384 640c-15.616-39.424-38.368-64-60.384-64s-44.8 24.576-60.384 64h120.768z m114.912 224a207.84 207.84 0 0 1-175.296 96 207.84 207.84 0 0 1-175.296-96H576v-1.088a207.04 207.04 0 0 1-32-110.912 207.04 207.04 0 0 1 32-110.912V640h0.704a207.84 207.84 0 0 1 175.296-96 207.84 207.84 0 0 1 175.296 96H928v1.088a207.04 207.04 0 0 1 32 110.912 207.04 207.04 0 0 1-32 110.912V864h-0.704z" fill="#27A2DF" p-id="22031"></path><path d="M192 608h288v32H192v-32z m0 128h288v32H192v-32z" fill="#B7BFC8" p-id="22032"></path></svg>