<svg xmlns="http://www.w3.org/2000/svg" viewBox="0 0 1024 1024" version="1.1"><path d="M96 320m32 0l768 0q32 0 32 32l0 544q0 32-32 32l-768 0q-32 0-32-32l0-544q0-32 32-32Z" fill="#808FA1" p-id="51070"></path><path d="M128 96m32 0l704 0q32 0 32 32l0 736q0 32-32 32l-704 0q-32 0-32-32l0-736q0-32 32-32Z" fill="#FFFFFF" p-id="51071"></path><path d="M864 96a32 32 0 0 1 32 32v736a32 32 0 0 1-32 32H160a32 32 0 0 1-32-32V128a32 32 0 0 1 32-32h704z m0 32H160v736h704V128z m-32 128v32H192V256h640zM224 192.256v32H192v-32h32z m64 0v32H256v-32h32z m64 0v32H320v-32h32z" fill="#5D6D7E" p-id="51072"></path><path d="M352 736H224v96H192v-96a32 32 0 0 1 32-32h128a32 32 0 0 1 32 32v96H352v-96z m224 0h-128v96h-32v-96a32 32 0 0 1 32-32h128a32 32 0 0 1 32 32v96h-32v-96z m224 0h-128v96h-32v-96a32 32 0 0 1 32-32h128a32 32 0 0 1 32 32v96h-32v-96zM352 512a32 32 0 0 1 32 32v96a32 32 0 0 1-32 32H224a32 32 0 0 1-32-32v-96a32 32 0 0 1 32-32h128z m224 0a32 32 0 0 1 32 32v96a32 32 0 0 1-32 32h-128a32 32 0 0 1-32-32v-96a32 32 0 0 1 32-32h128z m224 0a32 32 0 0 1 32 32v96a32 32 0 0 1-32 32h-128a32 32 0 0 1-32-32v-96a32 32 0 0 1 32-32h128zM352 544H224v96h128v-96z m224 0h-128v96h128v-96z m224 0h-128v96h128v-96zM352 320a32 32 0 0 1 32 32v96a32 32 0 0 1-32 32H224a32 32 0 0 1-32-32V352a32 32 0 0 1 32-32h128z m224 0a32 32 0 0 1 32 32v96a32 32 0 0 1-32 32h-128a32 32 0 0 1-32-32V352a32 32 0 0 1 32-32h128z m224 0a32 32 0 0 1 32 32v96a32 32 0 0 1-32 32h-128a32 32 0 0 1-32-32V352a32 32 0 0 1 32-32h128zM352 352H224v96h128V352z m224 0h-128v96h128V352z m224 0h-128v96h128V352z" fill="#ACB4C0" opacity=".399" p-id="51073"></path><path d="M352 512a32 32 0 0 1 32 32v96a32 32 0 0 1-32 32H224a32 32 0 0 1-32-32v-96a32 32 0 0 1 32-32h128z m224 0a32 32 0 0 1 32 32v96a32 32 0 0 1-32 32h-128a32 32 0 0 1-32-32v-96a32 32 0 0 1 32-32h128z m-224 32H224v96h128v-96z m224 0h-128v96h128v-96zM352 320a32 32 0 0 1 32 32v96a32 32 0 0 1-32 32H224a32 32 0 0 1-32-32V352a32 32 0 0 1 32-32h128z m224 0a32 32 0 0 1 32 32v96a32 32 0 0 1-32 32h-128a32 32 0 0 1-32-32V352a32 32 0 0 1 32-32h128zM352 352H224v96h128V352z m224 0h-128v96h128V352z" fill="#30AD98" p-id="51074"></path></svg>