<svg xmlns="http://www.w3.org/2000/svg" viewBox="0 0 1024 1024" version="1.1"><path d="M193.12 832H96V256h384V192h97.12a112 112 0 0 1 221.76 0H928v576H512v64h-97.12a112 112 0 0 1-221.76 0z" fill="#FFFFFF" p-id="12222"></path><path d="M96 832V256h384V192h97.12a112 112 0 0 1 221.76 0H928v576H512v64h-97.12a112 112 0 0 1-221.76 0H96z m32-32h92.896l3.904 27.456a80 80 0 0 0 158.4 0l3.904-27.456H480v-64h416V224h-124.896l-3.904-27.456a80 80 0 0 0-158.4 0L604.896 224H512v64H128v512z" fill="#5D6D7E" p-id="12223"></path><path d="M480 576h32a64 64 0 1 0 0-128h-32V288h32v128a96 96 0 0 1 0 192v128h-32v-160z" fill="#30AD98" opacity=".5" p-id="12224"></path></svg>