<svg xmlns="http://www.w3.org/2000/svg" viewBox="0 0 1024 1024" version="1.1"><path d="M237.248 238.784L357.12 118.08h327.04v229.216L542.432 480H224V256l13.248-17.248z m224 352l119.84-120.736h327.04v229.216L766.432 832H448v-224l13.248-17.248z" fill="#FFFFFF" p-id="46720"></path><path d="M624.288 896H152.96l198.08-188.48a16 16 0 1 0-22.08-23.04L128 874.56V500.8a16 16 0 0 0-16-16 16.32 16.32 0 0 0-16 16V928h528.288a16 16 0 1 0 0-32z" fill="#5C6C7C" p-id="46721"></path><path d="M768 703.68v115.264l128-128.192v-178.688L768.224 640 768 639.776v32.096a16.192 16.192 0 0 1 1.696-0.096h64a16 16 0 1 1 0 32h-64c-0.576 0-1.152 0-1.696-0.096zM608 480v54.4a16 16 0 1 1-32 0v-41.28L461.248 608H576v-9.6a16 16 0 1 1 32 0v9.6h146.944l127.84-128H608z m0 160v22.4a16 16 0 1 1-32 0V640h-128v169.408l15.168-15.136a16 16 0 1 1 22.592 22.688l-15.104 15.04H736v-192h-128z m33.696 63.776a16 16 0 0 1 0-32h64a16 16 0 1 1 0 32h-64z m-87.904 0.128a16 16 0 0 1 22.592 22.656l-45.312 45.184a16 16 0 1 1-22.592-22.656l45.312-45.184zM576 448.128V448h352v256l-159.776 160-0.224-0.224V864H416v-256h0.096l159.744-160 0.16 0.128z" fill="#30AD98" p-id="46722"></path><path d="M544 351.68v115.264l128-128.16V160.064l-127.776 127.968L544 287.808v32.064a16.192 16.192 0 0 1 1.696-0.064h64a16 16 0 1 1 0 32h-64c-0.576 0-1.152-0.032-1.696-0.096zM384 128v54.4a16 16 0 0 1-32 0V141.12L237.248 256H352v-9.6a16 16 0 1 1 32 0V256h146.944l127.84-128H384z m0 160v22.4a16 16 0 0 1-32 0V288H224v169.44l15.168-15.136a16 16 0 1 1 22.592 22.656l-15.104 15.04H512V288h-128z m33.696 63.808a16 16 0 0 1 0-32h64a16 16 0 1 1 0 32h-64z m-87.904 0.128a16 16 0 0 1 22.592 22.656l-45.312 45.184a16 16 0 1 1-22.592-22.656l45.312-45.184zM352 96.16V96h352v256l-159.776 160-0.224-0.224v0.224H192V256h0.096L351.84 96l0.16 0.16z" fill="#27A2DF" p-id="46723"></path></svg>