<svg xmlns="http://www.w3.org/2000/svg" viewBox="0 0 1024 1024" version="1.1"><path d="M800 112a16 16 0 0 1-16 16h-544a16 16 0 1 1 0-32h544a16 16 0 0 1 16 16z m0 800a16 16 0 0 1-16 16h-544a16 16 0 1 1 0-32h544a16 16 0 0 1 16 16z" fill="#B7BEC8" p-id="37985"></path><path d="M848 192h-672a16 16 0 1 1 0-32h672a16 16 0 0 1 0 32z m16 656a16 16 0 0 1-16 16h-672a16 16 0 1 1 0-32h672a16 16 0 0 1 16 16z" fill="#808FA1" p-id="37986"></path><path d="M928 256v512a32 32 0 0 1-32 32H128a32 32 0 0 1-32-32V256a32 32 0 0 1 32-32h768a32 32 0 0 1 32 32z" fill="#FFFFFF" p-id="37987"></path><path d="M896 224a32 32 0 0 1 32 32v512a32 32 0 0 1-32 32H128a32 32 0 0 1-32-32V256a32 32 0 0 1 32-32h768z m0 32H128v512h768V256z" fill="#5D6D7E" p-id="37988"></path><path d="M224 256h224v160H224V256z m0 256h224v256H224v-256z m352-256h224v512h-224V256z" fill="#27A2DF" fill-opacity=".2" p-id="37989"></path></svg>