<svg xmlns="http://www.w3.org/2000/svg" viewBox="0 0 1024 1024" version="1.1"><path d="M112 144m32 0l704 0q32 0 32 32l0 480q0 32-32 32l-704 0q-32 0-32-32l0-480q0-32 32-32Z" fill="#FFFFFF" p-id="40199"></path><path d="M560 768a16 16 0 0 1 2.88 31.744L560 800h-288a16 16 0 0 1-2.88-31.744L272 768h288zM864 128a32 32 0 0 1 32 32v512a32 32 0 0 1-32 32H128a32 32 0 0 1-32-32V160a32 32 0 0 1 32-32h736z m0 32H128v512h736V160z" fill="#5D6D7E" p-id="40200"></path><path d="M621.76 429.024l-180.48 128.896a16 16 0 0 1-25.28-13.024V287.104a16 16 0 0 1 25.28-13.024l180.48 128.896a16 16 0 0 1 0 26.048z" fill="#27A2DF" p-id="40201"></path><path d="M736 544c88.352 0 160 35.84 160 80v192.544C895.392 860.48 824 896 736 896c-88.352 0-160-35.84-160-80l0.032 0.544H576V624l0.224-4.128C580.48 577.632 650.4 544 736 544z" fill="#FFFFFF" p-id="40202"></path><path d="M736 704c92.832 0 160-41.856 160-80S828.832 544 736 544s-160 41.856-160 80 67.168 80 160 80z m0 32c-106.048 0-192-50.144-192-112s85.952-112 192-112 192 50.144 192 112-85.952 112-192 112z m173.696 32.32c11.744 14.464 18.304 30.656 18.304 47.744C928 877.888 842.048 928 736 928s-192-50.112-192-111.936c0-17.216 6.656-33.504 18.56-48.064l11.712 45.888c0.032 0.736 1.728 1.44 1.728 2.176C576 854.208 643.168 896 736 896c92.704 0 159.776-41.696 160-79.808l13.696-47.936zM736 832c-66.784 0-125.6-18.56-160-46.656v53.472l-32-25.312v-185.504l32 21.792v93.76c17.184 30.336 80.96 58.624 160 58.624s142.816-28.288 160-58.624V651.52l32-22.592v184.768l-32 26.624v-54.976C861.6 813.472 802.784 832 736 832z" fill="#27A2DF" p-id="40203"></path></svg>