<svg xmlns="http://www.w3.org/2000/svg" viewBox="0 0 1024 1024" version="1.1"><path d="M112 144m32 0l736 0q32 0 32 32l0 576q0 32-32 32l-736 0q-32 0-32-32l0-576q0-32 32-32Z" fill="#FFFFFF" p-id="12270"></path><path d="M528 800v96h256a16 16 0 1 1 0 32h-544a16 16 0 1 1 0-32h256v-96H128a32 32 0 0 1-32-32V160a32 32 0 0 1 32-32h768a32 32 0 0 1 32 32v608a32 32 0 0 1-32 32H528zM128 160v608h768V160H128z m0 448h768v32H128v-32z" fill="#5D6D7E" p-id="12271"></path><path d="M512 704m-32 0a32 32 0 1 0 64 0 32 32 0 1 0-64 0Z" fill="#C49F74" p-id="12272"></path></svg>