<svg xmlns="http://www.w3.org/2000/svg" viewBox="0 0 1024 1024" version="1.1"><path d="M755.648 800v80a32 32 0 0 1-32 32H145.728a32 32 0 0 1-32-32v-576a32 32 0 0 1 32-32H224V256h32v16h12.384V141.504a32 32 0 0 1 32-32h583.264a32 32 0 0 1 32 32V720a32 32 0 0 1-32 32h-128v16H768v32h-12.352z" fill="#FFFFFF" p-id="44820"></path><path d="M323.872 768l32.032-32H416v-60.064l32-32V736h128v-128h-92.032l32.032-32H576v-59.968l32-32V576h128v-128h-91.904l32-32H736v-59.84l32-32V416h128v32h-128v128h128v32h-128v128h-32v-128h-128v128h128v32H323.872zM256 694.368V288h32v128h128V288H288V256h128V128h32v128h128V128h32v128h91.584L667.2 288H608v58.496l-32 31.648V288h-128v128h89.696l-32.384 32H448v56.64l-32 31.616V448H288v128h87.776l-32.384 32H288v54.72L256 694.4zM736 220.032V128h32v60.384l-32 31.648zM836.192 256H896v32h-91.84l32.032-32zM288 832v64H256v-105.44L288 832z m-49.44-64H128v-32h85.856l24.704 32zM608 768v128h-32v-128h32z m-160 0v128h-32v-128h32z m-192-160H128v-32h128v32z m0-160H128v-32h128v32z" fill="#D5D9DF" p-id="44821"></path><path d="M753.472 248.928L265.376 735.968l22.592 22.656 488.128-487.04z" fill="#30AD98" p-id="44822"></path><path d="M288 256v32H128v608h608v-160h32v160a32 32 0 0 1-32 32H128a32 32 0 0 1-32-32V288a32 32 0 0 1 32-32h160z" fill="#808FA1" p-id="44823"></path><path d="M288 96h608a32 32 0 0 1 32 32v608a32 32 0 0 1-32 32H288a32 32 0 0 1-32-32V128a32 32 0 0 1 32-32z m0 32v608h608V128H288z" fill="#5D6D7E" p-id="44824"></path></svg>