<svg xmlns="http://www.w3.org/2000/svg" viewBox="0 0 1024 1024" version="1.1"><path d="M453.824 809.536a312.64 312.64 0 0 1-115.456-43.104l-52.256 52.352a32 32 0 0 1-45.216 0.096l-35.328-35.136a32 32 0 0 1-0.128-45.248l50.368-50.624a294.656 294.656 0 0 1-48.192-118.72H137.76a32 32 0 0 1-32-32v-46.752a32 32 0 0 1 32-32h69.248a301.568 301.568 0 0 1 48.224-122.656L203.328 284.384a32 32 0 0 1 0.416-45.856L241.024 202.88a32 32 0 0 1 44.864 0.608l51.616 52.128a309.504 309.504 0 0 1 116.32-44.704V137.12a32 32 0 0 1 32-32H537.6a32 32 0 0 1 32 32v73.696a302.016 302.016 0 0 1 116.096 45.12l51.84-52.096a32 32 0 0 1 44.8-0.544l36.8 35.2a32 32 0 0 1 0.48 45.728l-52.8 52.928a305.024 305.024 0 0 1 46.08 121.248h73.408a32 32 0 0 1 32 32v46.72a32 32 0 0 1-32 32h-74.016a297.6 297.6 0 0 1-46.816 118.592l48.384 48.864a32 32 0 0 1 1.088 43.872l-29.568 32.96a32 32 0 0 1-46.336 1.376l-51.2-50.688a304.32 304.32 0 0 1-118.24 45.536v75.584a32 32 0 0 1-32 32h-51.776a32 32 0 0 1-32-32v-75.68zM512 683.68c88.352 0 172.128-83.328 172.128-171.68S600.352 341.248 512 341.248c-88.352 0-171.52 82.4-171.52 170.752s83.168 171.68 171.52 171.68z" fill="#FFFFFF" p-id="23339"></path><path d="M335.52 778.976L285.76 828.8a32 32 0 0 1-45.248 0L195.2 783.52a32 32 0 0 1 0-45.248l49.792-49.792A318.208 318.208 0 0 1 198.4 576H128a32 32 0 0 1-32-32v-64a32 32 0 0 1 32-32h70.4a318.208 318.208 0 0 1 46.624-112.48L195.2 285.76a32 32 0 0 1 0-45.248L240.48 195.2a32 32 0 0 1 45.248 0l49.792 49.792A318.208 318.208 0 0 1 448 198.4V128a32 32 0 0 1 32-32h64a32 32 0 0 1 32 32v70.4a318.208 318.208 0 0 1 112.48 46.624L738.24 195.2a32 32 0 0 1 45.248 0L828.8 240.48a32 32 0 0 1 0 45.248l-49.792 49.792A318.208 318.208 0 0 1 825.6 448H896a32 32 0 0 1 32 32v64a32 32 0 0 1-32 32h-70.4a318.208 318.208 0 0 1-46.624 112.48L828.8 738.24a32 32 0 0 1 0 45.248L783.52 828.8a32 32 0 0 1-45.248 0l-49.792-49.792A318.208 318.208 0 0 1 576 825.6V896a32 32 0 0 1-32 32h-64a32 32 0 0 1-32-32v-70.4a318.208 318.208 0 0 1-112.48-46.624zM480 896h64v-96.544l25.632-5.216a286.176 286.176 0 0 0 101.184-41.92l21.792-14.464 68.288 68.288 45.248-45.248-68.288-68.288 14.432-21.792A286.176 286.176 0 0 0 794.24 569.6l5.216-25.632H896v-64h-96.544l-5.216-25.632a286.176 286.176 0 0 0-41.92-101.184l-14.464-21.792 68.288-68.288-45.248-45.248-68.288 68.288-21.792-14.432A286.176 286.176 0 0 0 569.6 229.76L544 224.544V128h-64v96.544l-25.632 5.216a286.176 286.176 0 0 0-101.184 41.92l-21.792 14.464-68.288-68.288-45.248 45.248 68.288 68.288-14.432 21.792A286.176 286.176 0 0 0 229.76 454.4L224.544 480H128v64h96.544l5.216 25.632a286.176 286.176 0 0 0 41.92 101.184l14.464 21.792-68.288 68.288 45.248 45.248 68.288-68.288 21.792 14.432A286.176 286.176 0 0 0 454.4 794.24l25.632 5.216V896z m32-192a192 192 0 1 1 0-384 192 192 0 0 1 0 384z m0-32a160 160 0 1 0 0-320 160 160 0 0 0 0 320z" fill="#5D6D7E" p-id="23340"></path></svg>