<svg xmlns="http://www.w3.org/2000/svg" viewBox="0 0 1024 1024" version="1.1"><path d="M96 96m32 0l736 0q32 0 32 32l0 736q0 32-32 32l-736 0q-32 0-32-32l0-736q0-32 32-32Z" fill="#FFFFFF" p-id="16577"></path><path d="M896 416h-32V128H128v736h288v32H128a32 32 0 0 1-32-32V128a32 32 0 0 1 32-32h736a32 32 0 0 1 32 32v288z" fill="#5D6D7E" p-id="16578"></path><path d="M576 384H384v192H352V384H128V352h224V128h32v224h192v32zM384 736v128H352v-128h32z m-64-96H128v-32h192v32z m288-320V128h32v192h-32z m128 32h128v32h-128V352z" fill="#ACB4C0" p-id="16579"></path><path d="M896 608a32 32 0 0 1 32 32v32a32 32 0 0 1-32 32h-37.568a206.784 206.784 0 0 1-25.376 61.184l26.592 26.56a32 32 0 0 1 0 45.28l-22.624 22.624a32 32 0 0 1-45.248 0l-26.56-26.56c-18.688 11.52-39.264 20.16-61.216 25.344V896a32 32 0 0 1-32 32h-32a32 32 0 0 1-32-32v-37.568a206.784 206.784 0 0 1-61.184-25.376l-26.56 26.592a32 32 0 0 1-45.28 0l-22.624-22.624a32 32 0 0 1 0-45.248l26.56-26.56A206.784 206.784 0 0 1 453.6 704H416a32 32 0 0 1-32-32v-32a32 32 0 0 1 32-32h37.568c5.184-21.952 13.856-42.56 25.376-61.184l-26.592-26.56a32 32 0 0 1 0-45.28l22.624-22.624a32 32 0 0 1 45.248 0l26.56 26.56A206.784 206.784 0 0 1 608 453.6V416a32 32 0 0 1 32-32h32a32 32 0 0 1 32 32v37.568c21.952 5.184 42.56 13.856 61.184 25.376l26.56-26.592a32 32 0 0 1 45.28 0l22.624 22.624a32 32 0 0 1 0 45.248l-26.56 26.56c11.52 18.688 20.16 39.264 25.344 61.216H896z m-68.704 7.36a174.784 174.784 0 0 0-21.44-51.712l-13.312-21.568 44.48-44.48-22.624-22.624-44.48 44.48-21.568-13.312a174.784 174.784 0 0 0-51.712-21.44l-24.64-5.824V416h-32v62.88l-24.64 5.824a174.784 174.784 0 0 0-51.712 21.44l-21.568 13.312-44.48-44.48-22.624 22.624 44.48 44.48-13.312 21.568a174.784 174.784 0 0 0-21.44 51.712l-5.824 24.64H416v32h62.88l5.824 24.64c4.32 18.336 11.584 35.776 21.44 51.712l13.312 21.568-44.48 44.48 22.624 22.624 44.48-44.48 21.568 13.312a174.784 174.784 0 0 0 51.712 21.44l24.64 5.824V896h32v-62.88l24.64-5.824a174.784 174.784 0 0 0 51.712-21.44l21.568-13.312 44.48 44.48 22.624-22.624-44.48-44.48 13.312-21.568a174.784 174.784 0 0 0 21.44-51.712l5.824-24.64H896v-32H833.12l-5.824-24.64zM656 752a96 96 0 1 1 0-192 96 96 0 0 1 0 192z m0-32a64 64 0 1 0 0-128 64 64 0 0 0 0 128z" fill="#27A2DF" p-id="16580"></path></svg>