<svg xmlns="http://www.w3.org/2000/svg" viewBox="0 0 1024 1024" version="1.1"><path d="M544 112l16.032 99.776c48.128 7.616 92.48 26.56 130.304 53.984l59.264-59.2 67.84 45.216-59.2 81.92a302.336 302.336 0 0 1 53.984 130.304H896l16 80-99.776 16.032a302.336 302.336 0 0 1-53.984 130.304l59.2 59.264-45.216 67.84-81.92-59.2a302.336 302.336 0 0 1-130.24 53.984L560 896l-80 16-16-99.776a302.336 302.336 0 0 1-130.336-53.984l-59.264 59.2-67.84-45.216 59.2-81.92A302.336 302.336 0 0 1 211.776 560H128L112 480l99.776-16.032a302.336 302.336 0 0 1 54.016-130.336l-59.264-59.2 45.248-67.904 81.92 59.232A302.336 302.336 0 0 1 464 211.776V128l80-16z m-32 256a143.552 143.552 0 0 0-101.824 42.176A143.552 143.552 0 0 0 368 512c0 39.776 16.128 75.776 42.176 101.824A143.552 143.552 0 0 0 512 656a143.552 143.552 0 0 0 101.824-42.176A143.552 143.552 0 0 0 656 512a143.552 143.552 0 0 0-42.176-101.824A143.552 143.552 0 0 0 512 368z" fill="#FFFFFF" p-id="42566"></path><path d="M335.52 778.976L285.76 828.8a32 32 0 0 1-45.248 0L195.2 783.52a32 32 0 0 1 0-45.248l49.792-49.792A318.208 318.208 0 0 1 198.4 576H128a32 32 0 0 1-32-32v-64a32 32 0 0 1 32-32h70.4a318.208 318.208 0 0 1 46.624-112.48L195.2 285.76a32 32 0 0 1 0-45.248L240.48 195.2a32 32 0 0 1 45.248 0l49.792 49.792A318.208 318.208 0 0 1 448 198.4V128a32 32 0 0 1 32-32h64a32 32 0 0 1 32 32v70.4a318.208 318.208 0 0 1 112.48 46.624L738.24 195.2a32 32 0 0 1 45.248 0L828.8 240.48a32 32 0 0 1 0 45.248l-49.792 49.792A318.208 318.208 0 0 1 825.6 448H896a32 32 0 0 1 32 32v64a32 32 0 0 1-32 32h-70.4a318.208 318.208 0 0 1-46.624 112.48L828.8 738.24a32 32 0 0 1 0 45.248L783.52 828.8a32 32 0 0 1-45.248 0l-49.792-49.792A318.208 318.208 0 0 1 576 825.6V896a32 32 0 0 1-32 32h-64a32 32 0 0 1-32-32v-70.4a318.208 318.208 0 0 1-112.48-46.624zM480 896h64v-96.544l25.632-5.216a286.176 286.176 0 0 0 101.184-41.92l21.792-14.464 68.288 68.288 45.248-45.248-68.288-68.288 14.432-21.792A286.176 286.176 0 0 0 794.24 569.6l5.216-25.632H896v-64h-96.544l-5.216-25.632a286.176 286.176 0 0 0-41.92-101.184l-14.464-21.792 68.288-68.288-45.248-45.248-68.288 68.288-21.792-14.432A286.176 286.176 0 0 0 569.6 229.76L544 224.544V128h-64v96.544l-25.632 5.216a286.176 286.176 0 0 0-101.184 41.92l-21.792 14.464-68.288-68.288-45.248 45.248 68.288 68.288-14.432 21.792A286.176 286.176 0 0 0 229.76 454.4L224.544 480H128v64h96.544l5.216 25.632a286.176 286.176 0 0 0 41.92 101.184l14.464 21.792-68.288 68.288 45.248 45.248 68.288-68.288 21.792 14.432A286.176 286.176 0 0 0 454.4 794.24l25.632 5.216V896z m32-224a160 160 0 1 1 0-320 160 160 0 0 1 0 320z m0-32a128 128 0 1 0 0-256 128 128 0 0 0 0 256z" fill="#5D6D7E" p-id="42567"></path></svg>