<svg xmlns="http://www.w3.org/2000/svg" viewBox="0 0 1024 1024" version="1.1"><path d="M224 96h544a32 32 0 0 1 32 32v145.92L896 384v512a32 32 0 0 1-32 32H192a96 96 0 0 1-96-96V224a128 128 0 0 1 128-128z" fill="#FFFFFF" p-id="43586"></path><path d="M768 96a32 32 0 0 1 32 32l-0.032 63.968h-32L768 128H224a96 96 0 0 0-95.84 90.368L128 224v537.376a95.008 95.008 0 0 1 63.36-24.064L288 737.28v32H191.36a63.36 63.36 0 0 0-4.736 126.56L191.36 896H288v32H191.36A95.36 95.36 0 0 1 96 832.64l0.128-4.288L96 828.48V224a128 128 0 0 1 128-128h544zM288 832H208a16 16 0 0 1-2.88-31.744L208 800H288v32z" fill="#ACB4C0" p-id="43587"></path><path d="M768 225.184l0.32-0.32 160.544 157.6-1.504 1.536H928v512a32 32 0 0 1-32 32H352a32 32 0 0 1-32-32V256a32 32 0 0 1 32-32h416v1.184z m0 44.224V384h116.736L768 269.44zM736 256H352v640h544V416h-160V256z" fill="#5D6D7E" p-id="43588"></path><path d="M470.976 832v-28.8h-28.8v28.8h28.8z m92.192 3.36c18.4 0 32.32-7.392 41.792-22.208V832h23.456v-206.144h-25.152v73.952a49.792 49.792 0 0 0-41.216-20.544c-12.288 0-23.36 3.264-33.312 9.728-9.92 6.464-17.408 15.776-22.368 27.904-4.96 12.16-7.456 25.664-7.456 40.576 0 15.264 2.752 28.8 8.224 40.576 5.504 11.744 13.216 20.928 23.2 27.488a58.56 58.56 0 0 0 32.832 9.824z m2.4-20.8c-10.976 0-20.48-4.736-28.544-14.208-8.064-9.472-12.096-23.744-12.096-42.88 0-19.776 3.776-34.24 11.328-43.456 7.552-9.184 16.96-13.76 28.16-13.76 11.552 0 21.248 4.768 29.12 14.336 7.904 9.536 11.84 24.544 11.84 44.992 0 18.56-3.872 32.352-11.616 41.408-7.744 9.056-17.12 13.568-28.16 13.568z m155.904 20.8c16.32 0 30.08-4.832 41.28-14.528 11.2-9.728 18.144-23.136 20.864-40.32l-24.896-3.2c-1.76 12.64-5.984 22.016-12.64 28.096-6.656 6.08-14.944 9.152-24.896 9.152-12.384 0-22.4-4.544-30.08-13.632-7.68-9.088-11.52-23.68-11.52-43.744 0-19.776 3.968-34.24 11.936-43.392 7.968-9.12 18.336-13.696 31.072-13.696 8.448 0 15.648 2.528 21.6 7.584 5.952 5.056 10.08 12.608 12.416 22.656l24.64-3.808c-2.912-15.104-9.536-26.752-19.84-34.944-10.304-8.192-23.584-12.288-39.808-12.288-12.832 0-24.704 3.008-35.648 9.056a55.872 55.872 0 0 0-24.384 27.2c-5.344 12.096-8 26.24-8 42.336 0 24.96 6.176 44.096 18.624 57.44 12.416 13.376 28.832 20.032 49.28 20.032z m116.672-1.376c5.6 0 12-0.768 19.104-2.24l-3.648-22.4c-4.608 0.672-8.32 0.992-11.104 0.992a16.832 16.832 0 0 1-8.64-1.824 10.56 10.56 0 0 1-4.384-4.928c-0.864-2.048-1.312-6.72-1.312-13.92v-87.328h25.44v-19.68h-25.44v-52.16l-25.184 15.168v36.992h-18.56v19.68h18.56v85.92c0 15.2 1.024 25.152 3.104 29.888a24.416 24.416 0 0 0 10.688 11.456c5.056 2.912 12.16 4.384 21.376 4.384z" fill="#C49F74" p-id="43589"></path><path d="M624 416a16 16 0 0 1 2.88 31.744L624 448h-192a16 16 0 0 1-2.88-31.744L432 416h192z" fill="#D8D8D8" p-id="43590"></path><path d="M688 512a16 16 0 0 1 2.88 31.744L688 544h-256a16 16 0 0 1-2.88-31.744L432 512h256z" fill="#AEB6C0" p-id="43591"></path></svg>