<svg xmlns="http://www.w3.org/2000/svg" viewBox="0 0 1024 1024" version="1.1"><path d="M576 96a32 32 0 0 1 32 32v288h288a32 32 0 0 1 32 32v448a32 32 0 0 1-32 32H352a32 32 0 0 1-32-32v-224H224a128 128 0 0 1-128-128V224a128 128 0 0 1 128-128h352z" fill="#FFFFFF" p-id="41831"></path><path d="M576 96a32 32 0 0 1 32 32v288h-32V128H192a64 64 0 0 0-63.84 59.2L128 192v336c13.376-10.048 29.984-16 48-16H320v32H176a48 48 0 0 0-47.456 40.64 64.064 64.064 0 0 0 58.688 55.2L192 640h128v32H176a80 80 0 0 1-79.648-87.648A96.064 96.064 0 0 1 96 576V192a96 96 0 0 1 96-96h384z m-256 512H208a16 16 0 0 1-2.88-31.744L208 576H320v32z" fill="#ACB4C0" p-id="41832"></path><path d="M208 192a16 16 0 0 1 15.744 13.12L224 208v224a16 16 0 0 1-31.744 2.88L192 432v-224a16 16 0 0 1 16-16z" fill="#D8D8D8" p-id="41833"></path><path d="M896 896V448H352v224h-32v-224a32 32 0 0 1 32-32h544a32 32 0 0 1 32 32v448a32 32 0 0 1-32 32H352a32 32 0 0 1-32-32h576z" fill="#5D6D7E" p-id="41834"></path><path d="M512 448v128h224v-128h32v128h128v32h-128v160h128v32h-128v96h-32v-96h-224v96h-32v-96h-64v-32h64v-160h-128v-32h128v-128h32z m224 320v-160h-224v160h224z" fill="#ACB4C0" p-id="41835"></path><path d="M768 576v224h-288v-224h288z m-32 32h-224v160h224v-160z" fill="#30AD98" p-id="41836"></path><path d="M112.576 672a16 16 0 0 1 15.744 13.12l0.256 2.88-0.032 96h167.648l-35.264-35.584a16 16 0 0 1-1.856-20.416l1.856-2.24a16 16 0 0 1 20.384-1.824l2.24 1.856 62.4 62.88a16 16 0 0 1 1.888 20.416l-1.856 2.24L283.52 875.2a16 16 0 0 1-24.48-20.416l1.856-2.208 35.52-36.576H112.576a16 16 0 0 1-15.744-13.12L96.576 800v-112a16 16 0 0 1 16-16z" fill="#27A2DF" p-id="41837"></path></svg>