<svg xmlns="http://www.w3.org/2000/svg" viewBox="0 0 1024 1024" version="1.1"><path d="M800 480h128v448H352v-64H160V288.96L357.76 96H800z" fill="#FFFFFF" p-id="29419"></path><path d="M160 864V288h0.992L357.76 96H800v320h-32V154.72l-160 156.032V416h-32V320H192v512h96v32H160zM749.568 128H370.784L206.816 288h378.688l164.064-160zM352 480h576v448H352V480z m32 32v384h512V512H384z" fill="#5D6D7E" p-id="29420"></path><path d="M496 624m-48 0a48 48 0 1 0 96 0 48 48 0 1 0-96 0Z" fill="#C49F74" p-id="29421"></path><path d="M714.848 854.4l-127.776-127.776L459.328 854.4l-22.656-22.624 150.4-150.4 150.4 150.4-22.624 22.624z m123.36-81.728l-107.072-109.888-79.808 79.808-22.656-22.624 102.752-102.72 129.696 133.088-22.912 22.336z" fill="#30AD98" p-id="29422"></path></svg>