<svg xmlns="http://www.w3.org/2000/svg" viewBox="0 0 1024 1024" version="1.1"><path d="M96 96m32 0l768 0q32 0 32 32l0 768q0 32-32 32l-768 0q-32 0-32-32l0-768q0-32 32-32Z" fill="#FFFFFF" p-id="19251"></path><path d="M832 928A160 160 0 1 0 640 928h-162.016A288 288 0 0 1 928 585.344V896a32 32 0 0 1-32 32h-64z" fill="#30AD98" p-id="19252"></path><path d="M192 928a160 160 0 0 0-96-288v-64a224 224 0 0 1 183.84 352H192z" fill="#ACB4C0" p-id="19253"></path><path d="M96 432.128A272 272 0 1 0 511.296 96h166.432A398.144 398.144 0 0 1 736 304C736 524.928 556.928 704 336 704c-90.048 0-173.12-29.76-240-80v-191.872z" fill="#27A2DF" p-id="19254"></path><path d="M336 304m-144 0a144 144 0 1 0 288 0 144 144 0 1 0-288 0Z" fill="#67C2EF" p-id="19255"></path><path d="M128 96h768a32 32 0 0 1 32 32v768a32 32 0 0 1-32 32H128a32 32 0 0 1-32-32V128a32 32 0 0 1 32-32z m0 32v768h768V128H128z" fill="#5D6D7E" p-id="19256"></path></svg>