<svg xmlns="http://www.w3.org/2000/svg" viewBox="0 0 1024 1024" version="1.1"><path d="M193.728 749.984l554.56-544.736L896 345.92 335.84 913.92z" fill="#FFFFFF" p-id="48593"></path><path d="M112 646.624l-22.624-22.624L639.328 74.048l22.624 22.624L112 646.624z" fill="#5D6D7E" p-id="48594"></path><path d="M431.872 838.496l-90.88 90.848L160 748.32 748.32 160l181.024 181.024-90.88 90.848 0.16 0.128-22.624 22.624-0.128-0.128-105.376 105.376 0.128 0.128-22.624 22.624-0.128-0.128-105.376 105.376 0.128 0.128-22.624 22.624-0.128-0.128-105.376 105.376 0.128 0.128-22.624 22.624-0.128-0.128z m-22.624-22.624l-67.744-67.744 22.624-22.624 67.744 67.744 105.376-105.376-67.744-67.744 22.624-22.624 67.744 67.744 105.376-105.376-67.744-67.744 22.624-22.624 67.744 67.744 105.376-105.376-67.744-67.744 22.624-22.624 67.744 67.744 68.192-68.224-135.744-135.776-543.04 543.04 135.744 135.776 68.224-68.192z" fill="#C49F74" p-id="48595"></path></svg>