<svg xmlns="http://www.w3.org/2000/svg" viewBox="0 0 1024 1024" version="1.1"><path d="M96 96m64 0l704 0q64 0 64 64l0 704q0 64-64 64l-704 0q-64 0-64-64l0-704q0-64 64-64Z" fill="#FFFFFF" p-id="49088"></path><path d="M680.256 640H672v36.992l-103.168-103.2L448 694.624V672h-22.624l120.832-120.832-66.432-66.432L128.384 821.536l-22.144-23.072 235.68-225.92L249.376 480H288v-6.624L365.024 550.4l115.2-110.432 88.608 88.576 96.544-96.544-80-80H608v-22.624l32 32L897.664 103.68l22.624 22.624L662.624 384l47.008 47.008-0.992 0.992 0.96 0.992-118.144 118.176L680.256 640z m66.752 0l150.656-150.624 22.624 22.624L768 664.288V640h-20.992zM768 727.744l150.72 150.72-22.624 22.624L731.008 736H768v-8.256zM696.288 736l-188.672 188.672-22.624-22.624L672 715.008V736h24.288zM374.624 768l-156.672 156.672-22.624-22.624L352 745.376V768h22.624zM192 422.624L109.76 340.384l22.592-22.656L198.624 384H192v38.624z m288-176L359.712 126.336l22.624-22.624L502.656 224H480v22.624z" fill="#D5D9DF" p-id="49089"></path><path d="M247.488 480H192V384h96v90.976L364.576 550.4l115.68-110.4 88.032 88.064 96.096-95.168L584.576 352H480V224h128v106.176l101.6 102.944-118.656 117.536L680.256 640H768v96h-96v-59.008l-103.808-103.808L448 692.224V768H352v-96h70.912l122.656-121.44-65.824-65.824-115.52 110.208L247.488 480zM512 256v64h64V256h-64zM384 704v32h32v-32H384z m-160-288v32h32v-32H224z m480 256v32h32v-32h-32zM128 96h768a32 32 0 0 1 32 32v768a32 32 0 0 1-32 32H128a32 32 0 0 1-32-32V128a32 32 0 0 1 32-32z m0 32v768h768V128H128z" fill="#5D6D7E" p-id="49090"></path><path d="M480 224h128v128h-128V224z m32 32v64h64V256h-64z" fill="#27A2DF" p-id="49091"></path><path d="M192 384h96v96H192V384z m32 32v32h32v-32H224z m128 256h96v96H352v-96z m32 32v32h32v-32H384z m288-64h96v96h-96v-96z m32 32v32h32v-32h-32z" fill="#C49F74" p-id="49092"></path></svg>