<svg xmlns="http://www.w3.org/2000/svg" viewBox="0 0 1024 1024" version="1.1"><path d="M224.48 207.456V107.456h-32V275.52h162.912v-32H237.056A382.848 382.848 0 0 1 511.616 128c212.096 0 384 171.936 384 384s-171.904 384-384 384c-190.272 0-348.224-138.4-378.688-320H96c30.976 199.36 204.32 352 413.536 352C740.64 928 928 741.76 928 512S740.64 96 509.536 96a418.336 418.336 0 0 0-285.056 111.456z" fill="#5D6D7E" p-id="27149"></path><path d="M480 320v224h224v32h-256v-256h32z" fill="#30AD98" p-id="27150"></path></svg>