<svg xmlns="http://www.w3.org/2000/svg" viewBox="0 0 1024 1024" version="1.1"><path d="M684.544 325.12c104 14.208 166.08 63.04 166.08 113.28v366.688c-1.248 61.376-102.016 111.008-242.624 111.008s-243.84-49.6-245.056-111.04v-113.92c-125.536-6.848-221.984-53.472-223.104-110.144V219.2c0-61.856 102.784-112 244.16-112 141.376 0 256 50.144 256 112v101.696c15.296 0.832 30.176 2.24 44.544 4.224z" fill="#FFFFFF" p-id="44525"></path><path d="M534.048 539.264c16.256-2.688 29.12-14.08 36.448-28.384 12.192 0.736 24.736 1.12 37.504 1.12 123.712 0 224-35.84 224-80 0-38.912-77.76-71.328-180.8-78.528a227.424 227.424 0 0 1 33.056-28.416C788.416 339.264 864 381.76 864 432v384.992C862.752 878.4 748.608 928 608 928s-254.752-49.6-256-111.008V432c0-53.472 85.664-98.176 200.192-109.344-7.872 10.848-15.296 22.272-22.272 34.336-85.216 11.328-145.92 40.64-145.92 75.008 0 27.232 38.08 51.296 96.288 65.728 1.44 15.072 8.608 28.992 23.424 36.576-50.816-9.92-92.864-26.88-119.712-48.032v74.72C385.792 597.76 483.52 640 608 640s222.208-42.272 224-79.008v-74.72C788.32 520.704 704.384 544 608 544c-25.728 0-50.56-1.664-73.952-4.736z m104.8-218.464a272.224 272.224 0 0 0-28.672 31.2 640.224 640.224 0 0 0-40.256 1.152c7.84-11.744 16.224-22.72 25.12-33.024a594.304 594.304 0 0 1 43.808 0.672zM832 614.24C788.32 648.736 704.384 672 608 672s-180.32-23.296-224-57.728v74.72C385.792 725.76 483.52 768 608 768s222.208-42.272 224-79.008v-74.72z m0 128C788.32 776.736 704.384 800 608 800s-180.32-23.296-224-57.728v74.08C384.736 853.344 483.04 896 608 896s223.264-42.656 224-79.008v-74.72z" fill="#5A6978" p-id="44526"></path><path d="M640 239.168c-11.168 7.168-21.824 15.04-32 23.52v-0.416C564.32 296.704 480.384 320 384 320s-180.32-23.296-224-57.728V592.32c0.672 33.792 82.656 72.256 192 78.72v32.064c-125.536-6.848-222.848-53.44-224-110.144V208C128 146.144 242.624 96 384 96s256 50.144 256 112v31.168z m0 38.976v41.6a260.928 260.928 0 0 0-1.152 1.056A588.16 588.16 0 0 0 608 320v-13.824a290.24 290.24 0 0 1 32-28.032zM384 288c123.712 0 224-35.84 224-80S507.712 128 384 128 160 163.84 160 208 260.288 288 384 288z" fill="#808FA1" p-id="44527"></path><path d="M865.984 246.496c-169.952-3.936-275.968 76.544-321.76 244.096a16 16 0 0 1-30.848-8.448c49.504-181.28 168.032-271.36 351.872-267.648L796.896 145.6a16 16 0 0 1 22.72-22.528l107.264 108.032-107.36 106.56a16 16 0 0 1-22.56-22.688l69.024-68.48z" fill="#3B97D3" p-id="44528"></path></svg>