<svg xmlns="http://www.w3.org/2000/svg" viewBox="0 0 1024 1024" version="1.1"><path d="M595.008 544l-96-291.328L402.976 544h192.032zM421.76 109.888h156.544l300.608 805.952h-154.976l-84.8-237.056h-280.256L268.736 915.84H109.152l312.576-805.952z" fill="#FFFFFF" p-id="25682"></path><path d="M619.296 576h-241.856l123.424-352 118.432 352z m-45.024-32l-74.176-220.992L422.336 544h151.936zM406.464 96h190.304L896 928h-191.52l-83.84-249.216H375.04L287.424 928H96l310.464-832z m22.208 32L142.08 896h122.816l87.488-249.216h290.624L727.488 896h123.008L574.272 128h-145.6z" fill="#5D6D7E" p-id="25683"></path></svg>