<svg xmlns="http://www.w3.org/2000/svg" viewBox="0 0 1024 1024" version="1.1"><path d="M768 416h30.88L928 546.816V928H256v-64H128a32 32 0 0 1-32-32V128a32 32 0 0 1 32-32h608a32 32 0 0 1 32 32v52.256l86.72 105.12L768 399.488V416z" fill="#FFFFFF" p-id="31411"></path><path d="M800 417.12l127.84 126.784-0.096 0.096H928v384H256V416h544v1.12z m0 45.088V544h82.464L800 462.208zM192 832v32H128a32 32 0 0 1-32-32V128a32 32 0 0 1 32-32h608a32 32 0 0 1 32 32v32h-32V128H128v704h64z m576-384H288v448h608V576h-128v-128z" fill="#5D6D7E" p-id="31412"></path><path d="M352 512h320v32H352v-32z m0 96h320v32H352v-32z m45.024 244.736c0-3.936 1.344-7.264 4.032-9.952a13.664 13.664 0 0 1 10.08-4.064c4.064 0 7.456 1.376 10.176 4.128a13.568 13.568 0 0 1 4.032 9.888 13.824 13.824 0 0 1-14.336 13.888 13.376 13.376 0 0 1-10.016-4.096 13.536 13.536 0 0 1-3.968-9.792z m84.64-52.064V864h-21.856v-169.408h48.128c18.304 0 32.48 4.384 42.56 13.216 10.112 8.832 15.168 21.44 15.168 37.856 0 16.64-5.888 30.08-17.696 40.416-11.84 10.304-26.592 15.168-44.32 14.592h-21.984z m0-86.848v67.584h20.256c13.344 0 23.456-3.008 30.4-9.024 6.912-6.016 10.368-14.624 10.368-25.856 0-21.792-12.896-32.704-38.72-32.704h-22.304z m115.2 150.176v-169.408h48.32c25.664 0 47.04 7.456 64.032 22.4 17.024 14.944 25.536 35.008 25.536 60.16 0 26.24-8.512 47.296-25.536 63.104-17.024 15.84-38.944 23.744-65.792 23.744h-46.592z m21.856-149.952v130.592h24.608c21.504 0 38.304-5.856 50.368-17.6 12.064-11.744 18.112-28.192 18.112-49.344 0-21.12-6.208-37.024-18.592-47.68-12.416-10.656-28.704-15.968-48.896-15.968h-25.6z m236.032 0h-65.408v56.64h60.608v19.264h-60.608V864h-21.888v-169.408h87.296v19.456z" fill="#808FA1" p-id="31413"></path><path d="M823.968 269.216L753.28 197.312l22.816-22.432 111.552 113.504-111.872 107.488-22.176-23.072 74.496-71.584H576v-32h247.968z" fill="#27A2DF" p-id="31414"></path></svg>