<svg xmlns="http://www.w3.org/2000/svg" viewBox="0 0 1024 1024" version="1.1"><path d="M800 448h96v448H288v-32H160a32 32 0 0 1-32-32V128a32 32 0 0 1 32-32h608a32 32 0 0 1 32 32v67.936l78.816 89.44L800 383.904V448z" fill="#FFFFFF" p-id="31213"></path><path d="M224 832v32H160a32 32 0 0 1-32-32V128a32 32 0 0 1 32-32h608a32 32 0 0 1 32 32v32h-32V128H160v704h64z m32-416h672v512H256V416z m32 32v448h608V448H288z" fill="#5D6D7E" p-id="31214"></path><path d="M573.888 753.504l137.344-137.376 187.616 187.616-22.624 22.656-164.992-164.992-114.72 114.72 60.8 60.8-22.592 22.656-153.792-153.792-153.792 153.792-22.624-22.624 176.416-176.416 92.96 92.96z" fill="#30AD98" p-id="31215"></path><path d="M576 576m-64 0a64 64 0 1 0 128 0 64 64 0 1 0-128 0Z" fill="#C49F74" p-id="31216"></path><path d="M855.968 269.216L785.28 197.312l22.816-22.432 111.552 113.504-111.872 107.488-22.176-23.072 74.496-71.584H608v-32z" fill="#27A2DF" p-id="31217"></path></svg>