<svg xmlns="http://www.w3.org/2000/svg" viewBox="0 0 1024 1024" version="1.1"><path d="M144 112m32 0l704 0q32 0 32 32l0 736q0 32-32 32l-704 0q-32 0-32-32l0-736q0-32 32-32Z" fill="#FFFFFF" p-id="46370"></path><path d="M160 96h736a32 32 0 0 1 32 32v768a32 32 0 0 1-32 32H160a32 32 0 0 1-32-32V128a32 32 0 0 1 32-32z m0 32v768h736V128H160z" fill="#5D6D7E" p-id="46371"></path><path d="M224 192h608v192H224V192z m32 32v128h544V224H256z m416 224h160v160h-160v-160z m32 32v96h96v-96h-96z" fill="#27A2DF" p-id="46372"></path><path d="M224 448h160v160H224v-160z m224 0h160v160h-160v-160z m-224 224h160v160H224v-160z m224 0h160v160h-160v-160z" fill="#ACB4C0" opacity=".5" p-id="46373"></path><path d="M672 672h160v160h-160v-160z m32 32v96h96v-96h-96z" fill="#30AD98" p-id="46374"></path></svg>