<svg xmlns="http://www.w3.org/2000/svg" viewBox="0 0 1024 1024" version="1.1"><path d="M160 128h704a32 32 0 0 1 32 32v704a32 32 0 0 1-32 32H160a32 32 0 0 1-32-32V160a32 32 0 0 1 32-32z" fill="#FFFFFF" p-id="51902"></path><path d="M864 544a64 64 0 0 1 64 64v256a64 64 0 0 1-64 64h-256a64 64 0 0 1-64-64v-256a64 64 0 0 1 64-64h256z m0-416a32 32 0 0 1 32 32v352h-32v-192h-256a32 32 0 0 1-32-32V160H160v704h352v32H160a32 32 0 0 1-32-32V160a32 32 0 0 1 32-32h704z m0 448h-256a32 32 0 0 0-31.776 28.256L576 608v256a32 32 0 0 0 28.256 31.776L608 896h256a32 32 0 0 0 31.776-28.256L896 864v-256a32 32 0 0 0-28.256-31.776L864 576z m0-416h-256v128h256V160z" fill="#5D6D7E" p-id="51903"></path><path d="M834.688 644.672a16 16 0 0 1 24.48 20.416l-1.856 2.24-141.984 141.984a16 16 0 0 1-20.256 1.984l-2.24-1.824-79.2-76.896a16 16 0 0 1 20.064-24.8l2.24 1.824 67.872 65.92 130.88-130.848z" fill="#C49F74" p-id="51904"></path></svg>