<svg xmlns="http://www.w3.org/2000/svg" viewBox="0 0 1024 1024" version="1.1"><path d="M864 608v288H384v-288h480z m-64-224v96H352v-96h448z m-96-224v96H256V160h448z" fill="#FFFFFF" p-id="52048"></path><path d="M704 128a32 32 0 0 1 32 32v96a32 32 0 0 1-32 32H256a32 32 0 0 1-32-32V160a32 32 0 0 1 32-32h448z m0 32H256v96h448V160z m-80 32a16 16 0 0 1 2.88 31.744L624 224h-288a16 16 0 0 1-2.88-31.744L336 192h288z" fill="#A8BACC" p-id="52049"></path><path d="M800 352a32 32 0 0 1 32 32v96a32 32 0 0 1-32 32H352a32 32 0 0 1-32-32v-96a32 32 0 0 1 32-32h448z m0 32H352v96h448v-96z m-80 32a16 16 0 0 1 2.88 31.744L720 448h-288a16 16 0 0 1-2.88-31.744L432 416h288z" fill="#8B9CAE" p-id="52050"></path><path d="M864 576a32 32 0 0 1 32 32v288a32 32 0 0 1-32 32H384a32 32 0 0 1-32-32v-288a32 32 0 0 1 32-32h480z m0 32H384v288h480v-288zM249.6 416a16 16 0 0 1 0 32 117.6 117.6 0 0 0-117.44 111.36l-0.16 6.24V624a112 112 0 0 0 105.856 111.84l6.144 0.16h18.56l-27.392-57.088a16 16 0 0 1 5.024-19.84l2.464-1.504a16 16 0 0 1 19.872 5.024l1.504 2.496L313.44 768h-69.44a144 144 0 0 1-143.84-137.216l-0.16-6.784v-58.4A149.6 149.6 0 0 1 249.6 416z" fill="#5D6D7E" p-id="52051"></path><path d="M738.688 676.672a16 16 0 0 1 24.48 20.416l-1.856 2.24-141.984 141.984a16 16 0 0 1-20.256 1.984l-2.24-1.824-79.2-76.896a16 16 0 0 1 20.064-24.8l2.24 1.824 67.872 65.92 130.88-130.848z" fill="#C49F74" p-id="52052"></path></svg>