<svg xmlns="http://www.w3.org/2000/svg" viewBox="0 0 1024 1024" version="1.1"><path d="M96 96m32 0l736 0q32 0 32 32l0 736q0 32-32 32l-736 0q-32 0-32-32l0-736q0-32 32-32Z" fill="#FFFFFF" p-id="16430"></path><path d="M896 704h-32V128H128v736h576v32H128a32 32 0 0 1-32-32V128a32 32 0 0 1 32-32h736a32 32 0 0 1 32 32v576z m0 160a32 32 0 0 1-32 32v-32h32z" fill="#5D6D7E" p-id="16431"></path><path d="M716.064 576H704v34.656c-7.04-8.192-13.952-15.872-21.12-23.264-51.392-53.216-106.88-85.504-172.32-91.456-123.712-11.264-225.824-100.352-306.24-264.896l28.736-14.08c75.968 155.456 169.44 237.024 280.384 247.104 74.176 6.72 136.192 42.816 192.448 101.12 3.456 3.52 6.848 7.136 10.176 10.816zM336 576a48 48 0 1 1 0-96 48 48 0 0 1 0 96z" fill="#D5D9DF" p-id="16432"></path><path d="M800 576h-32V224H224v448h480v32H192V192h608v384z" fill="#808FA1" p-id="16433"></path><path d="M512 416v96h-32V256h256v160h-224z m0-32h192V288h-192v96z" fill="#EF633F" p-id="16434"></path><path d="M768 768v-128h32v128h128v32h-128v128h-32v-128h-128v-32h128z" fill="#C49F74" p-id="16435"></path></svg>