<svg xmlns="http://www.w3.org/2000/svg" viewBox="0 0 1024 1024" version="1.1"><path d="M522.08 736l-263.36 170.432 82.304-293.216L96 405.536l326.4-10.752L522.08 96l99.648 298.784 326.4 10.784-245.024 207.68 82.304 293.184L522.048 736z m-310.336-80H160a16 16 0 0 1 0-32h108.384v103.36a16 16 0 1 1-32 0v-50.624l-97.344 92.64a16 16 0 0 1-22.08-23.2L211.744 656z m604.256 23.936v47.424a16 16 0 1 1-32 0V624h108.384a16 16 0 1 1 0 32h-55.136l94.784 90.176a16 16 0 0 1-22.08 23.2L816 679.936z m-66.752-389.12h47.136a16 16 0 1 1 0 32H688v-103.36a16 16 0 1 1 32 0v55.936a15.968 15.968 0 0 1 3.776-4.832l104.32-90.624a16 16 0 0 1 20.96 24.128l-99.84 86.752z m-415.136-24.32v-47.04a16 16 0 0 1 32 0v103.36H257.728a16 16 0 1 1 0-32h55.616l-99.84-86.72a16 16 0 1 1 20.992-24.16l99.616 86.56z" fill="#EF633F" p-id="16626"></path><path d="M528 629.984L419.2 704l34.016-127.36L352 486.464l134.816-4.704L528 352l41.184 129.76 134.816 4.704-101.216 90.176L636.768 704z" fill="#FFFFFF" p-id="16627"></path></svg>