<svg xmlns="http://www.w3.org/2000/svg" viewBox="0 0 1024 1024" version="1.1"><path d="M490.08 757.568L226.72 928l82.304-293.216L64 427.104l326.4-10.752 99.68-298.784 99.648 298.784 326.4 10.784-245.024 207.648L753.408 928z" fill="#EF633F" p-id="16232"></path><path d="M474.08 642.016l-71.36-76.896a16 16 0 1 0-23.488 21.76l110.784 119.36 111.68-119.296a16 16 0 0 0-23.392-21.888l-72.224 77.216v-241.408a16 16 0 0 0-32 0v241.152z" fill="#FFFFFF" p-id="16233"></path><path d="M320 288H288v32h32V288zM224 288H192v32h32V288z m544 0h-32v32h32V288z m-96 0h-32v32h32V288z" fill="#EF6542" p-id="16234"></path><path d="M320 256H288v32h32V256zM224 256H192v32h32V256z m544 0h-32v32h32V256z m-96 0h-32v32h32V256z" fill="#F17859" p-id="16235"></path><path d="M320 224H288v32h32V224zM224 224H192v32h32V224z m544 0h-32v32h32V224z m-96 0h-32v32h32V224z" fill="#F59E88" p-id="16236"></path><path d="M320 192H288v32h32V192zM224 192H192v32h32V192z m544 0h-32v32h32V192z m-96 0h-32v32h32V192z" fill="#F7B7A7" p-id="16237"></path><path d="M320 160H288v32h32V160zM224 160H192v32h32V160z m544 0h-32v32h32V160z m-96 0h-32v32h32V160z" fill="#FBD1C7" p-id="16238"></path></svg>