<svg xmlns="http://www.w3.org/2000/svg" viewBox="0 0 1024 1024" version="1.1"><path d="M816 288a80 80 0 1 1 0-160 80 80 0 0 1 0 160z m-640 640a80 80 0 1 1 0-160 80 80 0 0 1 0 160z m291.072-460.928l441.248 147.072-230.912 68.384-63.264 225.792-147.072-441.248z" fill="#FFFFFF" p-id="15644"></path><path d="M494.368 548.928l10.464 31.424c-142.656 7.296-233.984 69.216-276.352 187.232a96 96 0 1 1-29.376-12.8c46.24-126.592 145.376-195.712 295.264-205.856z m152.928-21.76c80.224-33.344 132.256-107.52 156.384-223.936a96 96 0 1 1 32.736-1.408c-22.72 116.096-71.36 196.384-145.824 239.744l-43.296-14.4zM816 272a64 64 0 1 0 0-128 64 64 0 0 0 0 128z m-640 640a64 64 0 1 0 0-128 64 64 0 0 0 0 128z" fill="#5D6D7E" p-id="15645"></path><path d="M467.072 467.072l441.248 147.072-230.912 68.384-63.264 225.792-147.072-441.248z m50.592 50.592l93.824 281.504 39.872-142.304 150.336-44.512-284.032-94.688z" fill="#27A2DF" p-id="15646"></path></svg>