<svg xmlns="http://www.w3.org/2000/svg" viewBox="0 0 1024 1024" version="1.1"><path d="M272 528v32h-32v256h-96v64h768v-64h-32v-320h-64v320h-96v-480h-160v160h-96v320h-96v-256h-32v-32h-32V480v48h-32z" fill="#FFFFFF" p-id="34824"></path><path d="M288 512v-64h32v64h32v32h32v256h64V480h96v-160h192v480h64V480h96v320h32v96H128v-96h96v-256h32v-32h32z m16-48L288 480h32l-16-16zM832 832h-128V352h-128v160h-96v320h-128v-256h-32v-32H288v32H256v288h640v-32h-32V512h-32v320z" fill="#B8BFC8" p-id="34825"></path><path d="M169.568 815.328L715.744 297.376l22.016 23.232-549.696 521.28a64 64 0 1 1-18.496-26.56zM576 896h288v32h-288v-32z" fill="#5D6D7E" p-id="34826"></path><path d="M768 672h160l-128 128v96h-32v-224zM704 96h160l-128 128v96h-32V96z" fill="#EF633F" p-id="34827"></path></svg>