<svg xmlns="http://www.w3.org/2000/svg" viewBox="0 0 1024 1024" version="1.1"><path d="M214.496 344H192v-96h85.376C399.616 103.04 592.32 61.376 784 172.032c219.456 126.72 87.136 302.816-119.072 374.816-91.488 31.904-64.48 163.2-84 245.12-24.512 102.72-99.456 164.416-220.32 94.624-207.68-119.872-243.616-348.896-146.112-542.656z" fill="#FFFFFF" p-id="35594"></path><path d="M267.104 248c124.736-146.656 327.68-193.92 519.616-83.136 219.456 126.72 86.976 323.168-119.232 395.136-91.488 31.936-55.424 150.08-74.944 232-24.512 102.72-112.512 176.544-233.376 106.752-206.944-119.456-251.552-358.56-156.032-552.96-4.736 9.696-9.152 19.488-13.216 29.344 12.384-3.84 25.504-7.296 39.264-9.792-89.6 187.52-35.36 400.992 145.984 505.696 90.016 52 162.976 10.976 186.24-86.496 3.616-15.136 5.28-32.48 6.208-59.552 0.16-4.032 0.256-7.552 0.448-14.528 3.2-110.144 17.824-155.872 88.864-180.672 96.288-33.6 173.12-95.328 200.352-159.36 27.616-64.896 2.56-126.4-86.56-177.856-149.312-86.208-310.4-70.816-427.712 25.152-15.008-0.896-30.4-1.344-46.016-1.568-10.4 10.016-20.384 20.608-29.888 31.808z" fill="#5D6D7E" p-id="35595"></path><path d="M640 760h288v32h-288z" fill="#C49F74" p-id="35596"></path><path d="M192 376v96H160v-256h256v160H192z m0-32h192v-96H192v96z" fill="#EF633F" p-id="35597"></path></svg>