<svg xmlns="http://www.w3.org/2000/svg" viewBox="0 0 1024 1024" version="1.1"><path d="M204.064 344H192v-96h75.104c124.736-146.656 327.68-193.92 519.616-83.136 219.456 126.72 86.976 323.168-119.232 395.136-91.488 31.936-55.424 150.08-74.944 232-24.512 102.72-112.512 176.544-233.376 106.752-207.616-119.84-251.84-360.064-155.104-554.784z" fill="#FFFFFF" p-id="16381"></path><path d="M297.184 216c125.76-120.992 312.352-153.408 489.536-51.136 219.456 126.72 86.976 323.168-119.232 395.136-91.488 31.936-55.424 150.08-74.944 232-24.512 102.72-112.512 176.544-233.376 106.752-196.384-113.344-246.56-334.4-169.6-522.784H224.32c-82.624 184.96-27.072 392.352 150.88 495.072 90.016 52 162.976 10.976 186.24-86.496 3.616-15.136 5.28-32.48 6.208-59.552 0.16-4.032 0.256-7.552 0.448-14.528 3.2-110.144 17.824-155.872 88.864-180.672 96.288-33.6 173.12-95.328 200.352-159.36 27.616-64.896 2.56-126.4-86.56-177.856-148.416-85.664-308.448-70.976-425.536 23.392h-48z" fill="#5D6D7E" p-id="16382"></path><path d="M768 760v-128h32v128h128v32h-128v128h-32v-128h-128v-32h128z" fill="#C49F74" p-id="16383"></path><path d="M192 376v96H160v-256h256v160H192z m0-32h192v-96H192v96z" fill="#EF633F" p-id="16384"></path></svg>