<svg xmlns="http://www.w3.org/2000/svg" viewBox="0 0 1024 1024" version="1.1"><path d="M112 112m32 0l736 0q32 0 32 32l0 736q0 32-32 32l-736 0q-32 0-32-32l0-736q0-32 32-32Z" fill="#FFFFFF" p-id="19497"></path><path d="M489.28 544H416v-32h105.28l55.872-55.904 22.624 22.624L544 534.528V640h-32v-73.44l-160 160.064L329.376 704z" fill="#ACB4C0" p-id="19498"></path><path d="M850.464 352l-89.216 154.56H582.72L493.536 352l89.216-154.56h178.496L850.464 352z m-107.712-122.56H601.28L530.464 352l70.784 122.56h141.504L813.536 352 742.72 229.44z" fill="#30AD98" p-id="19499"></path><path d="M256 672h64a32 32 0 0 1 32 32v64a32 32 0 0 1-32 32H256a32 32 0 0 1-32-32v-64a32 32 0 0 1 32-32z m0 32v64h64v-64H256z" fill="#3B97D3" p-id="19500"></path><path d="M320 320h64v64H320V320z m320 288h64v64h-64v-64z m128 96h64v64h-64v-64z" fill="#708294" p-id="19501"></path><path d="M128 96h768a32 32 0 0 1 32 32v768a32 32 0 0 1-32 32H128a32 32 0 0 1-32-32V128a32 32 0 0 1 32-32z m0 32v768h768V128H128z" fill="#5D6D7E" p-id="19502"></path></svg>