<svg xmlns="http://www.w3.org/2000/svg" viewBox="0 0 1024 1024" version="1.1"><path d="M448 160a32 32 0 0 1 32 32v640a32 32 0 0 1-32 32H128a32 32 0 0 1-32-32V192a32 32 0 0 1 32-32h320z m448 0a32 32 0 0 1 32 32v640a32 32 0 0 1-32 32H576a32 32 0 0 1-32-32V192a32 32 0 0 1 32-32h320z" fill="#FFFFFF" p-id="40150"></path><path d="M736.416 384a16 16 0 0 1 15.744 13.12l0.256 2.88V480h80a16 16 0 0 1 2.88 31.744l-2.88 0.256h-80v80a16 16 0 0 1-31.744 2.88l-0.256-2.88V512h-80a16 16 0 0 1-2.88-31.744l2.88-0.256h80v-80a16 16 0 0 1 16-16z" fill="#27A2DF" p-id="40151"></path><path d="M448 160a32 32 0 0 1 32 32v640a32 32 0 0 1-32 32H128a32 32 0 0 1-32-32V192a32 32 0 0 1 32-32h320z m448 0a32 32 0 0 1 32 32v640a32 32 0 0 1-32 32H576a32 32 0 0 1-32-32V192a32 32 0 0 1 32-32h320zM448 192H128v640h320V192z m448 0H576v640h320V192z" fill="#5D6D7E" p-id="40152"></path><path d="M198.72 736a32 32 0 1 1 0 64 32 32 0 0 1 0-64z m182.656 0a32 32 0 1 1 0 64 32 32 0 0 1 0-64zM198.688 229.12a32 32 0 1 1 0 64 32 32 0 0 1 0-64z m182.688 0a32 32 0 1 1 0 64 32 32 0 0 1 0-64z" fill="#27A2DF" p-id="40153"></path></svg>