<svg xmlns="http://www.w3.org/2000/svg" viewBox="0 0 1024 1024" version="1.1"><path d="M960 719.584V896a64 64 0 0 1-64 64h-288a64 64 0 0 1-55.424-32c-205.76-3.488-314.784-5.984-327.072-7.52L192 928v-7.52a123.008 123.008 0 0 1-14.848-6.208C149.76 900.544 122.656 873.12 96 832V160c32-42.656 64-96 96-96s64 38.08 96 80.768h626.912v503.808c19.136 11.04 45.088 47.328 45.088 71.04z" fill="#FFFFFF" p-id="31263"></path><path d="M576 896v32H192a96 96 0 0 1-96-96V160a96 96 0 0 1 186.56-32H928v544h-32V160H288v664.64l-0.32-0.224c0.224 2.528 0.32 5.024 0.32 7.584H256a64 64 0 1 0-64 64h384zM252.352 138.656A64.032 64.032 0 0 0 128 160v600.448A95.648 95.648 0 0 1 192 736c24.576 0 47.04 9.248 64 24.448V148.928l-3.648-10.24z" fill="#5D6D7E" p-id="31264"></path><path d="M640 640v-32h1.12a112 112 0 0 1 221.76 0H864v32h32a64 64 0 0 1 64 64v192a64 64 0 0 1-64 64h-288a64 64 0 0 1-64-64v-192a64 64 0 0 1 64-64h32z m32 32h-64a32 32 0 0 0-32 32v192a32 32 0 0 0 32 32h288a32 32 0 0 0 32-32v-192a32 32 0 0 0-32-32h-64v-53.792l-0.8-5.664a80 80 0 0 0-158.4 0l-0.8 5.664V672z" fill="#27A2DF" p-id="31265"></path><path d="M736 797.28a48 48 0 1 1 32 0V848a16 16 0 1 1-32 0v-50.72z" fill="#808FA1" p-id="31266"></path></svg>