<svg xmlns="http://www.w3.org/2000/svg" viewBox="0 0 1024 1024" version="1.1"><path d="M522.08 736l-263.36 170.432 82.304-293.216L96 405.536l326.4-10.752L522.08 96l99.648 298.784 326.4 10.784-245.024 207.68 82.304 293.184L522.048 736z m0 37.76l30.016 154.208h-58.816l28.8-154.24z m-177.6-450.688L225.92 220l46.336-36.224 72.256 139.296z m328.32 0l72.224-139.296 46.368 36.224-118.624 103.04z m-390.08 309.824l-111.744 110.112-32.896-48.768 144.64-61.344z m511.456 0l144.64 61.344-32.864 48.768-111.776-110.112z" fill="#C49F74" p-id="12510"></path><path d="M528 602.176L448.896 656l24.704-92.608-73.6-65.6 98.048-3.424 29.952-94.368 29.952 94.4 98.048 3.392-73.6 65.6 24.704 92.608z" fill="#FBD09D" p-id="12511"></path><path d="M528 583.616L468.672 624l18.56-69.44-55.232-49.216 73.536-2.56 22.464-70.784 22.464 70.784 73.536 2.56-55.2 49.184 18.56 69.472z" fill="#FFF6ED" p-id="12512"></path><path d="M528 565.088l-39.552 26.912 12.352-46.304-36.8-32.8 49.024-1.696 14.976-47.2 14.976 47.2 49.024 1.696-36.8 32.8 12.352 46.304z" fill="#FFFFFF" p-id="12513"></path></svg>