<svg xmlns="http://www.w3.org/2000/svg" viewBox="0 0 1024 1024" version="1.1"><path d="M96 96m32 0l768 0q32 0 32 32l0 768q0 32-32 32l-768 0q-32 0-32-32l0-768q0-32 32-32Z" fill="#FFFFFF" p-id="50675"></path><path d="M336 304h-224l16 608 784-16v-112h-192v-160h-192v-160h-192v-160z" fill="#C49F74" fill-opacity=".2" p-id="50676"></path><path d="M736 768h192v128a32 32 0 0 1-32 32H128a32 32 0 0 1-32-32V288h256v160h192v160h192v160z m160 32h-192v-160h-192v-160H320V320H128v576h768v-96z" fill="#C49F74" p-id="50677"></path><path d="M128 96h768a32 32 0 0 1 32 32v768a32 32 0 0 1-32 32H128a32 32 0 0 1-32-32V128a32 32 0 0 1 32-32z m0 32v768h768V128H128z" fill="#5D6D7E" p-id="50678"></path></svg>