<svg xmlns="http://www.w3.org/2000/svg" viewBox="0 0 1024 1024" version="1.1"><path d="M144 96h736A48 48 0 0 1 928 144v736a48 48 0 0 1-48 48h-736A48 48 0 0 1 96 880v-736A48 48 0 0 1 144 96z" fill="#FFFFFF" p-id="28213"></path><path d="M320 896v32H128a32 32 0 0 1-32-32V128a32 32 0 0 1 32-32h768a32 32 0 0 1 32 32v768a32 32 0 0 1-32 32h-192v-32h192V128H128v768h192z" fill="#5D6D7E" p-id="28214"></path><path d="M128 288h768v32H128V288z m0 192h768v32H128v-32z m0 192h768v32H128v-32z" fill="#ACB4C0" p-id="28215"></path><path d="M672 416v-64h32v64h-32v-64 64z m0 128v-64h32v64h-32v-64 64z m0 128v-64h32v64h-32v-64 64z m0 128v-64h32v64h-32v-64 64z m0 128v-64h32v64h-32v-64 64z m-128-32h64v32h-64v-32h64-64z m-128 0h64v32h-64v-32h64-64z m-64 32h-32v-64h32v64-64 64z m0-128h-32v-64h32v64-64 64z m0-128h-32v-64h32v64-64 64z m0-128h-32v-64h32v64-64 64z m0-128v-64 64h-32v-64h32v64zM320 96h384v224H320V96z m32 32v160h320V128H352z" fill="#3B97D3" p-id="28216"></path></svg>