<svg xmlns="http://www.w3.org/2000/svg" viewBox="0 0 1024 1024" version="1.1"><path d="M928 576H96V96h832v480z m0 96v256H96v-256h832z" fill="#FFFFFF" p-id="28856"></path><path d="M928 96v480H96V96h832z m-32 256H128v192h768v-192z m0-32V128H128v192h768z" fill="#5D6D7E" p-id="28857"></path><path d="M704 800h256v32h-256z" fill="#30AD98" p-id="28858"></path><path d="M928 736h-32v-32h-32v-32h64v64z m0 160v32h-64v-32h64z m-192 32v-32h64v32h-64z m-128 0v-32h64v32h-64z m-128 0v-32h64v32h-64z m-128 0v-32h64v32h-64z m-128 0v-32h64v32H224z m-128 0v-32h64v32H96z m0-64v-64h32v64H96z m0-128v-64h64v32H128v32H96z m192-64v32H224v-32h64z m128 0v32h-64v-32h64z m128 0v32h-64v-32h64z m128 0v32h-64v-32h64z m128 0v32h-64v-32h64z" fill="#ACB4C0" p-id="28859"></path></svg>