<svg xmlns="http://www.w3.org/2000/svg" viewBox="0 0 1024 1024" version="1.1"><path d="M96 928h832V544h-256V288h-96V226.048h-192V288H288v128H96z" fill="#FFFFFF" p-id="30292"></path><path d="M496 192H544a32 32 0 0 1 32 32v64h96v256h256v384H96V416h192V288h96V224a32 32 0 0 1 32-32h48V80h32V192zM416 288h128V224h-128v64z m224 32H320v576h320V320zM288 448H128v448h160V448z m384 128v320h224V576h-224z" fill="#5D6D7E" p-id="30293"></path><path d="M384 416h64v96h-64v-96z m128 0h64v96h-64v-96z m-128 160h64v96h-64v-96z m128 0h64v96h-64v-96z m-128 160h64v96h-64v-96z m128 0h64v96h-64v-96z" fill="#27A2DF" p-id="30294"></path><path d="M736 640h96v64h-96v-64z m0 128h96v64h-96v-64zM192 640h64v64H192v-64z m0-128h64v64H192v-64z m0 256h64v64H192v-64z" fill="#ACB4C0" p-id="30295"></path></svg>