<svg xmlns="http://www.w3.org/2000/svg" viewBox="0 0 1024 1024" version="1.1"><path d="M144 112m32 0l672 0q32 0 32 32l0 736q0 32-32 32l-672 0q-32 0-32-32l0-736q0-32 32-32Z" fill="#FFFFFF" p-id="31363"></path><path d="M160 96h704a32 32 0 0 1 32 32v768a32 32 0 0 1-32 32H160a32 32 0 0 1-32-32V128a32 32 0 0 1 32-32z m0 32v768h704V128H160z" fill="#5D6D7E" p-id="31364"></path><path d="M736 224V128h32v96h96v32h-96v512h96v32h-96v96h-32v-96H288v96H256v-96H160v-32h96V256H160V224h96V128h32v96h448z m0 32H288v512h448V256z" fill="#C49F74" p-id="31365"></path></svg>