<svg xmlns="http://www.w3.org/2000/svg" viewBox="0 0 1024 1024" version="1.1"><path d="M160 96h704a32 32 0 0 1 32 32v768a32 32 0 0 1-32 32H160a32 32 0 0 1-32-32V128a32 32 0 0 1 32-32z" fill="#FFFFFF" p-id="47069"></path><path d="M544 896v32H128a32 32 0 0 1-32-32V128a32 32 0 0 1 32-32h736a32 32 0 0 1 32 32v448h-32V128H128v768h416z m160 0h160v-160h32v160a32 32 0 0 1-32 32h-160v-32z" fill="#5D6D7E" p-id="47070"></path><path d="M800 448.256a32 32 0 0 0-40.224 4.096l-26.56 26.56A206.784 206.784 0 0 0 672 453.6V416a32 32 0 0 0-32-32h-32a32 32 0 0 0-32 32v37.568a206.784 206.784 0 0 0-61.184 25.376l-26.56-26.592a32 32 0 0 0-45.28 0l-22.624 22.624a32 32 0 0 0 0 45.248l26.56 26.56A206.784 206.784 0 0 0 421.6 608H384a32 32 0 0 0-32 32v32a32 32 0 0 0 32 32h37.568c5.184 21.952 13.856 42.56 25.376 61.184l-26.592 26.56A32 32 0 0 0 416.256 832H192V192h608v256.256z" fill="#CDD1D7" opacity=".75" p-id="47071"></path><path d="M864 608a32 32 0 0 1 32 32v32a32 32 0 0 1-32 32h-37.568a206.784 206.784 0 0 1-25.376 61.184l26.592 26.56a32 32 0 0 1 0 45.28l-22.624 22.624a32 32 0 0 1-45.248 0l-26.56-26.56c-18.688 11.52-39.264 20.16-61.216 25.344V896a32 32 0 0 1-32 32h-32a32 32 0 0 1-32-32v-37.568a206.784 206.784 0 0 1-61.184-25.376l-26.56 26.592a32 32 0 0 1-45.28 0l-22.624-22.624a32 32 0 0 1 0-45.248l26.56-26.56A206.784 206.784 0 0 1 421.6 704H384a32 32 0 0 1-32-32v-32a32 32 0 0 1 32-32h37.568c5.184-21.952 13.856-42.56 25.376-61.184l-26.592-26.56a32 32 0 0 1 0-45.28l22.624-22.624a32 32 0 0 1 45.248 0l26.56 26.56A206.784 206.784 0 0 1 576 453.6V416a32 32 0 0 1 32-32h32a32 32 0 0 1 32 32v37.568c21.952 5.184 42.56 13.856 61.184 25.376l26.56-26.592a32 32 0 0 1 45.28 0l22.624 22.624a32 32 0 0 1 0 45.248l-26.56 26.56c11.52 18.688 20.16 39.264 25.344 61.216H864z m-68.704 7.36a174.784 174.784 0 0 0-21.44-51.712l-13.312-21.568 44.48-44.48-22.624-22.624-44.48 44.48-21.568-13.312a174.784 174.784 0 0 0-51.712-21.44l-24.64-5.824V416h-32v62.88l-24.64 5.824a174.784 174.784 0 0 0-51.712 21.44l-21.568 13.312-44.48-44.48-22.624 22.624 44.48 44.48-13.312 21.568a174.784 174.784 0 0 0-21.44 51.712l-5.824 24.64H384v32h62.88l5.824 24.64c4.32 18.336 11.584 35.776 21.44 51.712l13.312 21.568-44.48 44.48 22.624 22.624 44.48-44.48 21.568 13.312a174.784 174.784 0 0 0 51.712 21.44l24.64 5.824V896h32v-62.88l24.64-5.824a174.784 174.784 0 0 0 51.712-21.44l21.568-13.312 44.48 44.48 22.624-22.624-44.48-44.48 13.312-21.568a174.784 174.784 0 0 0 21.44-51.712l5.824-24.64H864v-32H801.12l-5.824-24.64zM624 736a80 80 0 1 1 0-160 80 80 0 0 1 0 160z m0-32a48 48 0 1 0 0-96 48 48 0 0 0 0 96z" fill="#27A2DF" p-id="47072"></path></svg>