<svg xmlns="http://www.w3.org/2000/svg" viewBox="0 0 1024 1024" version="1.1"><path d="M96 96m32 0l768 0q32 0 32 32l0 768q0 32-32 32l-768 0q-32 0-32-32l0-768q0-32 32-32Z" fill="#FFFFFF" p-id="16724"></path><path d="M128 736v160h768V128H128v192h128V128h32v384h64v32H288v352H256v-160H128z m0-32h128v-160H128v160z m0-192h128V352H128v160zM128 96h768a32 32 0 0 1 32 32v768a32 32 0 0 1-32 32H128a32 32 0 0 1-32-32V128a32 32 0 0 1 32-32z m640 224h128v32h-128v160h128v32h-128v160h128v32h-128v160h-32V544h-64v-32h64V128h32v192z" fill="#5D6D7E" p-id="16725"></path><path d="M621.76 525.024l-180.48 128.896a16 16 0 0 1-25.28-13.024V383.104a16 16 0 0 1 25.28-13.024l180.48 128.896a16 16 0 0 1 0 26.048z" fill="#27A2DF" p-id="16726"></path></svg>