<svg xmlns="http://www.w3.org/2000/svg" viewBox="0 0 1024 1024" version="1.1"><path d="M112 112m32 0l736 0q32 0 32 32l0 736q0 32-32 32l-736 0q-32 0-32-32l0-736q0-32 32-32Z" fill="#FFFFFF" p-id="49631"></path><path d="M192 768h640a32 32 0 0 1 32 32v96a32 32 0 0 1-32 32H192a32 32 0 0 1-32-32v-96a32 32 0 0 1 32-32z m0 32v96h640v-96H192z" fill="#808FA1" p-id="49632"></path><path d="M768 480h32v288h-32v-288z m-128 0h32v288h-32v-288z m16.96-254.88l-100.096 194.752V768h-32V412.128l130.176-253.248 161.248 273.12H640v-32h120.224L656.96 225.12z" fill="#C49F74" p-id="49633"></path><path d="M384 640h32v128H384v-128z m80-160c0-36.48-43.2-124.608-128.96-259.808C250.176 336.32 208 423.488 208 480c0 57.696 22.72 94.368 69.312 113.152l10.016 4.064V768h-32v-149.568C202.752 593.248 176 546.208 176 480c0-68.48 49.248-167.008 147.2-297.6l13.824-18.4 12.448 19.36C447.36 335.744 496 432.896 496 480c0 48.96-24.96 86.368-72.832 110.304l-14.336-28.608c37.44-18.72 55.168-45.312 55.168-81.696z" fill="#27A2DF" p-id="49634"></path><path d="M128 96h768a32 32 0 0 1 32 32v768a32 32 0 0 1-32 32H128a32 32 0 0 1-32-32V128a32 32 0 0 1 32-32z m0 32v768h768V128H128z" fill="#5D6D7E" p-id="49635"></path></svg>