<svg xmlns="http://www.w3.org/2000/svg" viewBox="0 0 1024 1024" version="1.1"><path d="M237.472 112m32 0l448 0q32 0 32 32l0 128q0 32-32 32l-448 0q-32 0-32-32l0-128q0-32 32-32Z" fill="#FFFFFF" p-id="15986"></path><path d="M413.472 672v-176H112v-288h109.472V128a32 32 0 0 1 32-32h480a32 32 0 0 1 32 32v160a32 32 0 0 1-32 32h-480a32 32 0 0 1-32-32V240H144v224h301.472V672h18.528a16 16 0 0 1 16 16v224a16 16 0 0 1-16 16h-64a16 16 0 0 1-16-16v-224a16 16 0 0 1 16-16h13.472z m-160-544v160h480V128h-480z" fill="#5D6D7E" p-id="15987"></path><path d="M512 736m32 0l128 0q32 0 32 32l0 128q0 32-32 32l-128 0q-32 0-32-32l0-128q0-32 32-32Z" fill="#27A2DF" p-id="15988"></path><path d="M512 512m32 0l128 0q32 0 32 32l0 128q0 32-32 32l-128 0q-32 0-32-32l0-128q0-32 32-32Z" fill="#30AD98" p-id="15989"></path><path d="M736 736m32 0l128 0q32 0 32 32l0 128q0 32-32 32l-128 0q-32 0-32-32l0-128q0-32 32-32Z" fill="#C49F74" p-id="15990"></path><path d="M736 512m32 0l128 0q32 0 32 32l0 128q0 32-32 32l-128 0q-32 0-32-32l0-128q0-32 32-32Z" fill="#808FA1" p-id="15991"></path></svg>