<svg xmlns="http://www.w3.org/2000/svg" viewBox="0 0 1024 1024" version="1.1"><path d="M527.515152 496.484848m144.563458 376.600686a403.393939 403.393939 0 1 0-289.126917-753.201372 403.393939 403.393939 0 1 0 289.126917 753.201372Z" fill="#5D6D7E" p-id="42176"></path><path d="M418.598788 731.787636c-31.526788-82.075152-2.07903-158.999273 88.281212-230.803394 89.987879-69.352727 118.132364-148.014545 84.371394-235.985454-29.851152-77.730909-89.770667-118.535758-179.696485-122.352485C598.946909 81.051152 803.684848 176.841697 875.147636 363.054545c73.69697 191.984485-22.186667 407.365818-214.202181 481.062788-25.444848 9.774545-51.293091 16.539152-77.172364 20.542061-81.392485-13.715394-136.440242-57.995636-165.205333-132.871758z" fill="#FFFFFF" p-id="42177"></path></svg>