<svg xmlns="http://www.w3.org/2000/svg" viewBox="0 0 1024 1024" version="1.1"><path d="M212.544 223.232A414.784 414.784 0 0 1 512 96c229.76 0 416 186.24 416 416s-186.24 416-416 416C293.024 928 113.568 758.784 97.216 544H129.28C145.6 741.12 310.72 896 512 896c212.064 0 384-171.936 384-384S724.064 128 512 128C406.208 128 310.4 170.784 240.96 240h113.76v32H180.544V96h32v127.232z" fill="#27A2DF" p-id="13730"></path><path d="M512 512m-224 0a224 224 0 1 0 448 0 224 224 0 1 0-448 0Z" fill="#FFFFFF" p-id="13731"></path><path d="M512 752a240 240 0 1 0 0-480 240 240 0 0 0 0 480z m0-32a208 208 0 1 1 0-416 208 208 0 0 1 0 416z" fill="#5D6D7E" p-id="13732"></path><path d="M480 480h64v192h-64v-192z m32-32a32 32 0 1 1 0-64 32 32 0 0 1 0 64z" fill="#30AD98" p-id="13733"></path></svg>