<?xml version="1.0" standalone="no"?><!DOCTYPE svg PUBLIC "-//W3C//DTD SVG 1.1//EN" "http://www.w3.org/Graphics/SVG/1.1/DTD/svg11.dtd"><svg class="icon" width="200px" height="200.00px" viewBox="0 0 1024 1024" version="1.1" xmlns="http://www.w3.org/2000/svg"><path d="M615.451307 105.43104H204.30848a51.38432 51.38432 0 0 0-51.391147 51.391147v719.496533a51.38432 51.38432 0 0 0 51.391147 51.38432h616.707413a51.391147 51.391147 0 0 0 51.391147-51.377493V362.400427l-256.955733-256.969387z" fill="#3AAD73" /><path d="M615.451307 105.43104v205.571413a51.38432 51.38432 0 0 0 51.38432 51.38432h205.571413l-256.955733-256.955733z" fill="#434854" /><path d="M666.842453 362.400427l205.571414 205.564586V362.400427H666.842453z" fill="#256D50" /><path d="M486.966613 490.878293h231.266987v102.78912H486.966613V490.878293z m-179.869013 0h154.17344v102.78912H307.0976V490.878293z m179.869013 128.498347h231.266987v77.079893H486.966613V619.37664z m-179.869013 0h154.17344v77.079893H307.0976V619.37664z m179.869013 102.76864h231.266987v77.093547H486.966613v-77.093547z m-179.869013 0h154.17344v77.093547H307.0976v-77.093547z" fill="#FFFFFF" /></svg>