<?xml version="1.0" standalone="no"?><!DOCTYPE svg PUBLIC "-//W3C//DTD SVG 1.1//EN" "http://www.w3.org/Graphics/SVG/1.1/DTD/svg11.dtd"><svg class="icon" width="200px" height="200.00px" viewBox="0 0 1024 1024" version="1.1" xmlns="http://www.w3.org/2000/svg"><path d="M378.38848 653.400747H284.48768c-13.12768 0-23.456427-10.32192-23.456427-23.47008s10.328747-23.463253 23.456427-23.463254h93.88032c13.14816 0 23.476907 10.315093 23.476907 23.463254s-10.32192 23.47008-23.456427 23.47008z m0-140.82048H284.48768a23.231147 23.231147 0 0 1-23.456427-23.005867v-0.457387a23.22432 23.22432 0 0 1 23.456427-23.463253h93.88032a23.22432 23.22432 0 0 1 23.476907 22.985387v0.47104a23.231147 23.231147 0 0 1-23.456427 23.47008z m328.56064 140.82048h-93.866667a23.237973 23.237973 0 0 1-23.463253-23.47008 23.2448 23.2448 0 0 1 23.463253-23.463254h93.866667a23.237973 23.237973 0 0 1 23.47008 23.463254 23.251627 23.251627 0 0 1-23.47008 23.47008z m0-140.82048h-93.866667a23.217493 23.217493 0 0 1-23.463253-23.463254 23.217493 23.217493 0 0 1 23.456427-23.463253h93.866666a23.231147 23.231147 0 0 1 23.47008 22.99904v0.457387a23.210667 23.210667 0 0 1-23.463253 23.47008z" fill="#F9F9F9" /><path d="M509.801813 747.47904V184.019627H181.466453v91.58656c-0.013653 0.79872-0.22528 1.522347-0.22528 2.286933v469.4016h-23.483733c-0.36864 0-0.682667 0.18432-1.037653 0.2048h-22.4256v46.73536h397.694293v-46.73536h-22.186667v-0.02048z" fill="#3BAFDA" /><path d="M801.880747 747.47904c-0.36864-0.013653-0.67584-0.2048-1.030827-0.2048h-23.47008v-422.434133h-234.7008v422.66624H517.9392v46.73536h306.367147v-46.73536h-22.4256v-0.027307z" fill="#259EBA" /><path d="M261.031253 324.83328h140.813654v46.94016H261.031253v-46.94016z m0 140.82048h140.813654v46.946987H261.031253v-46.946987z m0 140.82048h140.813654v46.94016H261.031253v-46.94016z" fill="#FCD036" /><path d="M589.59872 606.47424h140.813653v46.94016H589.59872v-46.94016z m0-140.82048h140.813653v46.946987H589.59872v-46.946987z" fill="#FF8C00" /><path d="M758.224213 526.260907c-74.192213 0-134.36928 60.163413-134.36928 134.355626 0 74.185387 60.17024 134.36928 134.36928 134.36928 74.185387 0 134.362453-60.177067 134.362454-134.36928 0-74.19904-60.17024-134.355627-134.362454-134.355626z" fill="#DDC14B" /><path d="M792.521387 605.88032h-1.80224c0.662187 0.682667 1.18784 1.47456 1.80224 2.198187v-2.198187z m-68.594347 0v2.198187c0.628053-0.723627 1.14688-1.522347 1.815893-2.198187h-1.815893z m34.297173 77.871787a45.458773 45.458773 0 0 1-34.297173-15.762774v75.066027l34.297173-34.28352 34.290347 34.28352V667.99616a45.4656 45.4656 0 0 1-34.290347 15.755947z" fill="#B63434" /><path d="M758.224213 683.752107a45.44512 45.44512 0 0 0 34.290347-15.762774v-59.910826c-0.628053-0.723627-1.140053-1.522347-1.80224-2.198187h-64.98304c-0.669013 0.682667-1.18784 1.488213-1.815893 2.198187v59.910826a45.50656 45.50656 0 0 0 34.310826 15.762774z" fill="#A52020" /><path d="M758.224213 592.30208c23.661227 0 42.898773 18.056533 45.253974 41.08288 0.157013-1.542827 0.464213-3.044693 0.464213-4.635307a45.725013 45.725013 0 1 0-91.4432 0c0 1.583787 0.300373 3.09248 0.464213 4.635307 2.3552-23.033173 21.599573-41.08288 45.2608-41.08288z" fill="#D3711A" /><path d="M758.224213 674.46784c23.661227 0 42.898773-18.036053 45.253974-41.089707-2.3552-23.026347-21.592747-41.08288-45.253974-41.08288-23.668053 0-42.9056 18.056533-45.2608 41.08288 2.3552 23.04 21.599573 41.089707 45.2608 41.089707z" fill="#D3711A" /><path d="M758.224213 592.30208c23.804587 0 43.15136 18.281813 45.30176 41.526613a5.666133 5.666133 0 0 0 5.256534-5.61152 5.686613 5.686613 0 0 0-5.454507-5.67296l-0.06144-0.600746a5.638827 5.638827 0 0 0-2.874027-10.888534c-0.088747-0.211627-0.218453-0.416427-0.320853-0.641706a5.638827 5.638827 0 0 0-5.864107-9.611947l-0.375466-0.443733a5.686613 5.686613 0 0 0-0.22528-7.755094 5.686613 5.686613 0 0 0-7.84384-0.16384c-0.16384-0.116053-0.320853-0.24576-0.47104-0.36864a5.69344 5.69344 0 0 0-2.245974-7.379626 5.666133 5.666133 0 0 0-7.509333 1.76128c-0.211627-0.095573-0.443733-0.129707-0.662187-0.2048a5.67296 5.67296 0 0 0-4.068693-6.485334 5.720747 5.720747 0 0 0-6.90176 3.822934l-0.57344-0.054614a5.666133 5.666133 0 0 0-5.632-5.34528 5.686613 5.686613 0 0 0-5.666133 5.44768l-0.59392 0.06144a5.686613 5.686613 0 0 0-6.81984-3.659093 5.666133 5.666133 0 0 0-4.061867 6.53312c-0.22528 0.088747-0.43008 0.218453-0.65536 0.300373a5.666133 5.666133 0 0 0-7.420587-1.652053 5.679787 5.679787 0 0 0-2.177706 7.543467l-0.457387 0.382293a5.679787 5.679787 0 0 0-7.748267 0.22528 5.679787 5.679787 0 0 0-0.157013 7.830187c-0.14336 0.170667-0.273067 0.3072-0.402773 0.47104a5.700267 5.700267 0 0 0-7.379627 2.239146 5.707093 5.707093 0 0 0 1.768107 7.53664c-0.068267 0.211627-0.109227 0.43008-0.191147 0.65536a5.67296 5.67296 0 0 0-6.478507 4.07552 5.69344 5.69344 0 0 0 3.816107 6.888107l-0.068267 0.57344a5.69344 5.69344 0 0 0-5.331626 5.645653c0 2.955947 2.27328 5.297493 5.154133 5.584214 1.6384-23.743147 21.21728-42.564267 45.397333-42.564267z m-45.513386 43.47904a5.61152 5.61152 0 0 0-3.188054 6.560427c0.518827 1.8432 1.9456 3.283627 3.795627 3.80928a43.813547 43.813547 0 0 1-0.8192-8.116907c0-0.771413 0.177493-1.47456 0.211627-2.2528z m1.98656 18.691413c0.402773 0.682667 0.948907 1.276587 1.590613 1.72032a43.035307 43.035307 0 0 1-2.013867-6.18496 5.515947 5.515947 0 0 0 0.423254 4.46464z m87.579306-0.914773a5.434027 5.434027 0 0 0 0.26624-4.8128 45.8752 45.8752 0 0 1-2.054826 6.621867 5.5296 5.5296 0 0 0 1.788586-1.809067z m1.324374-19.019093c0.095573 1.181013 0.34816 2.300587 0.34816 3.488426 0 2.4576-0.34816 4.826453-0.709974 7.181654a5.57056 5.57056 0 0 0 3.979947-3.904854 5.71392 5.71392 0 0 0-3.618133-6.765226z" fill="#D3711A" /><path d="M803.601067 634.538667c-0.088747-0.02048-0.14336-0.1024-0.22528-0.116054l0.068266-0.57344 0.088747-0.027306c-2.143573-23.2448-21.476693-41.526613-45.30176-41.526614-24.173227 0-43.752107 18.82112-45.40416 42.550614 0.1024 0.013653 0.177493 0.075093 0.293547 0.075093l0.06144 0.600747c-0.170667 0.068267-0.28672 0.191147-0.457387 0.252586-0.034133 0.75776-0.218453 1.481387-0.218453 2.245974 0 2.792107 0.334507 5.481813 0.812373 8.116906a5.5296 5.5296 0 0 0 2.72384 0.238934c0.109227 0.232107 0.238933 0.43008 0.32768 0.641706a5.925547 5.925547 0 0 0-2.095787 2.9696c0.580267 2.123093 1.153707 4.225707 2.020694 6.18496a5.679787 5.679787 0 0 0 5.952853 0.464214l0.375467 0.457386a5.679787 5.679787 0 0 0 0.22528 7.755094 5.666133 5.666133 0 0 0 7.830186 0.16384c0.170667 0.129707 0.314027 0.279893 0.477867 0.4096a5.666133 5.666133 0 0 0 2.239147 7.359146 5.67296 5.67296 0 0 0 7.51616-1.774933c0.211627 0.095573 0.443733 0.14336 0.662186 0.211627a5.65248 5.65248 0 0 0 10.963627 2.669226l0.566613 0.054614c0.2048 2.983253 2.614613 5.352107 5.638827 5.352106a5.679787 5.679787 0 0 0 5.666133-5.454506l0.59392-0.06144a5.686613 5.686613 0 0 0 6.813014 3.659093 5.666133 5.666133 0 0 0 4.068693-6.526293c0.22528-0.088747 0.423253-0.211627 0.648533-0.320854a5.65248 5.65248 0 0 0 7.420587 1.665707 5.67296 5.67296 0 0 0 2.184533-7.53664l0.45056-0.382293a5.666133 5.666133 0 0 0 7.748267-0.232107 5.666133 5.666133 0 0 0 0.157013-7.82336c0.14336-0.16384 0.273067-0.3072 0.4096-0.477867a5.65248 5.65248 0 0 0 5.584214-0.436906c0.853333-2.143573 1.536-4.36224 2.054826-6.608214a5.543253 5.543253 0 0 0-2.041173-2.70336c0.095573-0.211627 0.12288-0.443733 0.2048-0.662186a5.802667 5.802667 0 0 0 2.512213-0.177494c0.382293-2.3552 0.7168-4.717227 0.7168-7.181653 0.013653-1.194667-0.238933-2.31424-0.334506-3.495253z" fill="#D3711A" /><path d="M780.75904 598.473387a37.526187 37.526187 0 0 0-22.555307-7.604907 37.56032 37.56032 0 0 0-22.541653 7.604907 45.417813 45.417813 0 0 1 22.541653-6.171307c8.246613 0 15.878827 2.348373 22.555307 6.171307z" fill="#FCD036" /><path d="M720.356693 628.749653a37.853867 37.853867 0 0 0 37.853867 37.853867 37.853867 37.853867 0 0 0 37.86752-37.853867 37.710507 37.710507 0 0 0-15.325867-30.276266 45.417813 45.417813 0 0 0-22.541653-6.171307c-8.239787 0-15.878827 2.3552-22.555307 6.171307a37.6832 37.6832 0 0 0-15.29856 30.276266z" fill="#FCD036" /></svg>