<?xml version="1.0" standalone="no"?><!DOCTYPE svg PUBLIC "-//W3C//DTD SVG 1.1//EN" "http://www.w3.org/Graphics/SVG/1.1/DTD/svg11.dtd"><svg class="icon" width="200px" height="200.00px" viewBox="0 0 1024 1024" version="1.1" xmlns="http://www.w3.org/2000/svg"><path d="M512 512m-385.7322666666667 0a385.7322666666667 385.7322666666667 0 1 0 771.4645333333334 0 385.7322666666667 385.7322666666667 0 1 0-771.4645333333334 0Z" fill="#088C8C" /><path d="M641.2288 304.81919999999997h-252.75733333333335L262.10133333333334 523.6991999999999l126.37013333333333 218.88h252.7488l126.37013333333333-218.88-126.3616-218.88z m-12.177066666666667 416.6997333333333H400.63146666666665L286.42133333333334 523.6991999999999l114.21013333333333-197.81973333333332h228.4288l114.21013333333333 197.81973333333332-114.21866666666666 197.81973333333332z" fill="#353535" /><path d="M399.00160000000005 415.8805333333333l-38.69013333333333 67.0208 38.69013333333333 67.01226666666666h77.3888l38.69013333333333-67.01226666666666-38.69013333333333-67.0208zM476.3904 549.9136l-38.69866666666667 67.0208 38.69866666666667 67.0208h77.3888l38.69013333333333-67.0208-38.69013333333333-67.0208zM631.1594666666666 415.8805333333333h-77.38026666666666l-38.69866666666667 67.0208 38.69866666666667 67.01226666666666h77.38026666666666l38.69866666666667-67.01226666666666z" fill="#353535" /><path d="M641.2288 297.7024h-252.75733333333335L262.10133333333334 516.5824l126.37013333333333 218.88h252.7488l126.37013333333333-218.88-126.3616-218.88z m-12.177066666666667 416.6997333333333H400.63146666666665L286.42133333333334 516.5824l114.21013333333333-197.81973333333332h228.4288l114.21013333333333 197.81973333333332-114.21866666666666 197.81973333333332z" fill="#FFFFFF" /><path d="M399.00160000000005 408.76373333333333l-38.69013333333333 67.0208 38.69013333333333 67.01226666666666h77.3888l38.69013333333333-67.01226666666666-38.69013333333333-67.0208zM476.3904 542.7968l-38.69866666666667 67.0208 38.69866666666667 67.0208h77.3888l38.69013333333333-67.0208-38.69013333333333-67.0208zM631.1594666666666 408.76373333333333h-77.38026666666666l-38.69866666666667 67.0208 38.69866666666667 67.01226666666666h77.38026666666666l38.69866666666667-67.01226666666666z" fill="#FFFFFF" /></svg>