<?xml version="1.0" standalone="no"?><!DOCTYPE svg PUBLIC "-//W3C//DTD SVG 1.1//EN" "http://www.w3.org/Graphics/SVG/1.1/DTD/svg11.dtd"><svg class="icon" width="200px" height="200.00px" viewBox="0 0 1024 1024" version="1.1" xmlns="http://www.w3.org/2000/svg"><path d="M835.03104 240.011947H517.154133v-45.410987a45.410987 45.410987 0 0 0-45.410986-45.410987H199.284053a45.410987 45.410987 0 0 0-45.410986 45.410987v181.643947a45.410987 45.410987 0 0 1 45.410986-45.410987h635.74016a45.40416 45.40416 0 0 1 45.397334 45.410987V285.422933v-0.006826a45.38368 45.38368 0 0 0-45.390507-45.40416z" fill="#434854" /><path d="M517.154133 716.813653c0-112.851627 91.497813-204.342613 204.342614-204.342613h0.12288c64.027307 0 121.146027 29.51168 158.522026 75.6736l0.3072-211.90656a45.417813 45.417813 0 0 0-45.40416-45.410987H199.284053a45.410987 45.410987 0 0 0-45.410986 45.410987v454.10304a45.410987 45.410987 0 0 0 45.40416 45.410987h393.91232c-46.537387-37.6832-76.04224-94.808747-76.04224-158.829227l0.006826-0.109227z" fill="#D3BE66" /><path d="M721.496747 557.882027c-87.749973 0-158.931627 71.174827-158.931627 158.931626s71.18848 158.94528 158.931627 158.94528c87.7568 0 158.94528-71.18848 158.94528-158.94528 0-87.749973-71.18848-158.931627-158.94528-158.931626z" fill="#3AAD73" /><path d="M805.348693 699.92448l-66.962773-66.962773c-4.28032-4.293973-10.19904-6.94272-16.738987-6.94272s-12.458667 2.655573-16.738986 6.94272l-66.962774 66.962773a23.688533 23.688533 0 1 0 33.491627 33.491627l27.368107-27.395414v79.40096a22.698667 22.698667 0 1 0 45.410986 0c0-0.170667 0-0.34816-0.013653-0.525653V705.7408l27.68896 27.66848a23.702187 23.702187 0 0 0 33.450667-33.512107l0.006826 0.027307z" fill="#FFFFFF" /><path d="M835.03104 308.128427H199.284053a45.410987 45.410987 0 0 0-45.410986 45.410986v22.71232a45.410987 45.410987 0 0 1 45.410986-45.410986h635.74016a45.410987 45.410987 0 0 1 45.40416 45.410986v-22.71232-0.006826a45.397333 45.397333 0 0 0-45.397333-45.40416z" fill="#1C1C1C" /><path d="M244.69504 285.422933h544.918187v45.410987H244.69504V285.422933z" fill="#EAEAEA" /></svg>