<?xml version="1.0" standalone="no"?><!DOCTYPE svg PUBLIC "-//W3C//DTD SVG 1.1//EN" "http://www.w3.org/Graphics/SVG/1.1/DTD/svg11.dtd"><svg class="icon" width="200px" height="200.00px" viewBox="0 0 1024 1024" version="1.1" xmlns="http://www.w3.org/2000/svg"><path d="M872.35072 862.24384H151.64928a34.77504 34.77504 0 0 1-34.80576-34.7392V259.13856a34.77504 34.77504 0 0 1 34.7392-34.80064h720.768a34.77504 34.77504 0 0 1 34.80576 34.7392v568.36096c0.00512 19.16416-15.64672 34.80576-34.80576 34.80576z" fill="#53B04E" /><path d="M512 373.92384H116.84352V196.56192a34.78016 34.78016 0 0 1 34.7392-34.80576h270.50496a34.67776 34.67776 0 0 1 33.31072 24.78592L512 373.92384z" fill="#53B04E" /><path d="M817.59744 819.00032H206.40256a34.7648 34.7648 0 0 1-34.80064-34.7392V312.22272a34.76992 34.76992 0 0 1 34.7392-34.80064h611.34336a34.77504 34.77504 0 0 1 34.80576 34.7392v472.03328c0 19.16416-15.64672 34.80576-34.8928 34.80576z" fill="#FFFFFF" /><path d="M872.35072 862.24384H151.64928a34.77504 34.77504 0 0 1-34.80576-34.7392V377.61536a34.78016 34.78016 0 0 1 34.7392-34.80576h720.768a34.77504 34.77504 0 0 1 34.80576 34.7392v449.88928c0.00512 19.16416-15.64672 34.80576-34.80576 34.80576z" fill="#6ABC70" /><path d="M679.22944 862.24384h192.98304c19.15904 0 34.81088-15.64672 34.80576-34.80576v-192.98304l-227.7888 227.7888z" fill="#E2C51A" /><path d="M649.01632 609.42848h-102.72256a34.24256 34.24256 0 0 1-34.24256-34.24256V472.45312a34.24256 34.24256 0 0 1 34.24256-34.24256h102.72256a34.24256 34.24256 0 0 1 34.24256 34.24256v102.7328a34.23744 34.23744 0 0 1-34.23232 34.24256h-0.01024z m0-123.27424a13.69088 13.69088 0 0 0-13.68576-13.696h-75.3408a13.696 13.696 0 0 0-13.70112 13.69088v75.3408a13.69088 13.69088 0 0 0 13.68576 13.70112h75.34592a13.69088 13.69088 0 0 0 13.696-13.696V486.15424z m-136.97024 260.2496a34.24256 34.24256 0 0 1-34.24256 34.24256H375.07072a34.24256 34.24256 0 0 1-34.24256-34.24256v-102.72768a34.24256 34.24256 0 0 1 34.24256-34.24256H477.7984a34.24256 34.24256 0 0 1 34.24256 34.24256v102.72768z m-34.24768-89.02144a13.70112 13.70112 0 0 0-13.69088-13.70624H388.7616a13.69088 13.69088 0 0 0-13.69088 13.70624v75.33056a13.69088 13.69088 0 0 0 13.69088 13.696h75.3408a13.68064 13.68064 0 0 0 13.69088-13.68576v-0.01024l0.00512-75.33056z m-51.36384-82.19136c-28.36992 0-51.36896-22.99904-51.36896-51.36896 0-28.36992 22.99904-51.36384 51.36896-51.36384s51.36896 22.99904 51.36896 51.36384c-0.00512 28.36992-23.00416 51.36896-51.36896 51.36896z m172.42112 68.48512c27.70432 0 50.16064 22.46656 50.16064 50.16064v2.4064c0 27.70432-22.45632 50.16064-50.16064 50.16064h-2.4064c-27.6992 0-50.16064-22.45632-50.16064-50.16064 0-29.03552 23.53664-52.56704 52.56704-52.56704z" fill="#54955A" /><path d="M806.8352 806.7584h26.59328v36.03456h26.58304v-36.03456h26.59328l-39.88992-39.87456-39.87968 39.87456zM806.8352 749.83936h79.77472v12.69248h-79.77472v-12.69248z" fill="#FFFFFF" /></svg>