<?xml version="1.0" standalone="no"?><!DOCTYPE svg PUBLIC "-//W3C//DTD SVG 1.1//EN" "http://www.w3.org/Graphics/SVG/1.1/DTD/svg11.dtd"><svg class="icon" width="200px" height="200.00px" viewBox="0 0 1024 1024" version="1.1" xmlns="http://www.w3.org/2000/svg"><path d="M266.2 792.128c-19.336 0-37.552-7.192-51.288-20.248-13.904-13.216-21.56-30.84-21.56-49.632s7.664-36.4 21.56-49.608l27.16-25.848L427.696 485.92l0.104 0.088 59.824-53.944 4.52-4.88c15.064-14.568 22.792-22.352 26.728-26.472-17.352-38.56-25.936-81.128 34.168-135.976 26.152-24.872 61.76-39.232 97.512-39.232 12.992 0 25.712 1.856 37.8 5.52l19.808 6L622.024 318.4a5.712 5.712 0 0 0-1.864 4.208c0 1.104 0.328 2.736 1.896 4.224l31.688 30.152c2.776 2.632 7.864 2.632 10.656-0.016L750.744 276.24l7.088 14.696c22.88 47.48 11.312 105.024-28.808 143.192-31.856 29.488-59.904 42.592-91.072 42.592-15.464 0-31.688-3.336-49.408-10.168-6.704 5.704-21.216 19.144-42.96 40.328l-1.712 1.952-22.928 25.672c-52.6 59.696-174.04 208.904-175.264 210.408l-1.04 1.128-27.168 25.84c-13.72 13.048-31.928 20.248-51.272 20.248z m161.392-274.36L258.208 664.544l-26.752 25.488c-9.096 8.632-14.096 20.072-14.104 32.208 0 12.152 5 23.6 14.096 32.24 9.256 8.8 21.592 13.64 34.752 13.64s25.496-4.84 34.744-13.64l26.608-25.312c8.488-10.424 124.176-152.424 175.44-210.592l15.24-17.064-0.52-0.504 11.104-11.296c50.04-48.728 52.416-48.728 58.136-48.728h2.368l2.288 0.912c17.264 7.296 32.392 10.824 46.36 10.824 24.656 0 47.68-11.128 74.648-36.088 28.048-26.688 38.96-64.992 29.512-99.48l-61.264 57.288c-11.64 11.032-31.896 11.088-43.648-0.064l-31.696-30.16a29.632 29.632 0 0 1 0-43.232l54.112-51.128c-32.168-2.624-66.048 9.456-90.216 32.424-52.104 47.552-43.464 77.688-25.584 115.104 3.984 8.408 3.64 9.632-27.184 39.504l0.24 0.304-7.968 7.992-35.328 31.856 0.096 0.168-7.312 6.944-38.376 33.976-0.408-0.36z" fill="#C9C9C9" /><path d="M411.576 552.76l0.024-0.016h-0.008z"  /><path d="M546.056 506.76l-5.056-4.856-53.32-46.688-3.192-3.064L329.672 303.84s6.936-19.792-4.96-31.104l-25.536-23.24-48.384 46 25.536 23.24s19.496 11.264 33.512 4.8l154.128 148.416 3.088 5.16 51.864 49.856 27.808 26.672 24.456-22.736-25.128-24.144z" fill="#7F7F7F" /><path d="M520.336 612.88l214.224 205.704c10.104 9.656 26.528 9.656 36.672 0l66.072-59.592a23.792 23.792 0 0 0 0-34.888L621.744 514.48c-10.12-9.624-26.536-9.624-36.68 0l-15.808 15.032-30.16 28.024-18.768 20.48a23.792 23.792 0 0 0 0.008 34.864z" fill="#E89054" /><path d="M569.416 572.048l18.872-19.28L788.192 748.4l-18.864 19.28z" fill="#AA2F29" /><path d="M836.52 737.6c-5.12-5.456-28.544 8.296-52.296 30.688-23.784 22.376-38.888 44.936-33.784 50.376s28.544-8.312 52.312-30.704c23.768-22.376 38.888-44.952 33.768-50.36z" fill="#A54625" /></svg>