<?xml version="1.0" standalone="no"?><!DOCTYPE svg PUBLIC "-//W3C//DTD SVG 1.1//EN" "http://www.w3.org/Graphics/SVG/1.1/DTD/svg11.dtd"><svg class="icon" width="200px" height="200.00px" viewBox="0 0 1024 1024" version="1.1" xmlns="http://www.w3.org/2000/svg"><path d="M863.968 902.848a44.728 44.728 0 0 1-44.712 44.712H193.152a44.72 44.72 0 0 1-44.72-44.712V455.632a44.72 44.72 0 0 1 44.72-44.72h626.104a44.72 44.72 0 0 1 44.712 44.72v447.216z" fill="#E5CB5E" /><path d="M819.256 321.472H506.192v-44.72a44.72 44.72 0 0 0-44.72-44.72h-268.32a44.72 44.72 0 0 0-44.72 44.72v178.888a44.72 44.72 0 0 1 44.72-44.72h626.104a44.72 44.72 0 0 1 44.712 44.72V366.184a44.72 44.72 0 0 0-44.712-44.712z" fill="#3C4047" /><path d="M819.256 388.552H193.152a44.72 44.72 0 0 0-44.72 44.712v22.368a44.72 44.72 0 0 1 44.72-44.72h626.104a44.72 44.72 0 0 1 44.712 44.72v-22.368a44.72 44.72 0 0 0-44.712-44.712z"  /><path d="M237.872 366.184h536.648v44.72H237.872v-44.72z" fill="#EAEAEA" /><path d="M949.336 350.024l-31.544-5.408c8.352-48.704-3.832-97.96-34.328-138.672-30.688-40.976-76.216-68.456-128.208-77.36l5.408-31.536c60.096 10.304 112.8 42.168 148.416 89.72 35.8 47.816 50.104 105.8 40.256 163.256z" fill="#2A2E33" /><path d="M783.008 174.504L686.888 96.56l115.56-44.256z" fill="#2A2E33" /></svg>