<?xml version="1.0" standalone="no"?><!DOCTYPE svg PUBLIC "-//W3C//DTD SVG 1.1//EN" "http://www.w3.org/Graphics/SVG/1.1/DTD/svg11.dtd"><svg class="icon" width="200px" height="200.00px" viewBox="0 0 1024 1024" version="1.1" xmlns="http://www.w3.org/2000/svg"><path d="M829.50144 584.997547c-6.32832 0-12.506453 0.498347-18.664107 1.256106 0-0.505173 0.109227-1.030827 0.109227-1.570133 0-113.62304-67.222187-211.70176-164.788907-259.044693a140.957013 140.957013 0 0 0 16.984747-66.9696c0-1.870507-0.238933-3.693227-0.293547-5.59104 130.778453 55.808 222.276267 183.17312 222.276267 331.543893 0 3.652267-0.45056 7.195307-0.566613 10.81344a150.801067 150.801067 0 0 0-55.057067-10.437973zM218.385067 584.704c0 0.559787 0.1024 1.058133 0.1024 1.570133a147.483307 147.483307 0 0 0-73.434454 9.09312c-0.129707-3.62496-0.566613-7.113387-0.566613-10.717866 0-148.25472 91.36128-275.510613 222.016853-331.42784-0.047787 1.850027-0.293547 3.64544-0.293546 5.48864 0 24.180053 6.178133 46.906027 16.93696 66.9696-97.518933 47.322453-164.78208 145.408-164.78208 259.024213h0.02048z m106.461866 222.119253a299.137707 299.137707 0 0 0 189.815467 67.269974 299.096747 299.096747 0 0 0 189.815467-67.269974 147.114667 147.114667 0 0 0 54.142293 49.68448 373.67808 373.67808 0 0 1-243.807573 89.995947 373.425493 373.425493 0 0 1-243.923627-90.064213 147.626667 147.626667 0 0 0 53.957973-49.616214z" fill="#139FBF" /><path d="M829.50144 881.206613c-86.295893 0-156.187307-68.150613-156.187307-152.261973 0-84.043093 69.891413-152.193707 156.187307-152.193707 86.2208 0 156.132693 68.191573 156.132693 152.193707 0 84.11136-69.911893 152.261973-156.132693 152.261973z" fill="#4EB54E" /><path d="M829.50144 902.505813c-97.867093 0-177.486507-77.858133-177.486507-173.561173 0-95.668907 79.619413-173.513387 177.486507-173.513387 97.839787 0 177.431893 77.817173 177.431893 173.513387 0 95.716693-79.592107 173.561173-177.431893 173.561173z m0-304.45568c-74.38336 0-134.894933 58.73664-134.894933 130.921814 0 72.219307 60.511573 130.962773 134.894933 130.962773 74.356053 0 134.84032-58.73664 134.84032-130.962773 0-72.205653-60.491093-130.921813-134.84032-130.921814z" fill="#CCCCCC" /><path d="M514.757973 410.699093c-86.213973 0-156.112213-68.171093-156.112213-152.24832 0-84.125013 69.89824-152.2688 156.112213-152.2688 86.268587 0 156.194133 68.171093 156.194134 152.2688 0.027307 84.118187-69.925547 152.24832-156.194134 152.24832z" fill="#139FBF" /><path d="M514.757973 431.991467c-97.81248 0-177.39776-77.84448-177.39776-173.513387 0-95.72352 79.592107-173.595307 177.39776-173.595307 97.860267 0 177.493333 77.871787 177.493334 173.595307 0.013653 95.66208-79.60576 173.513387-177.493334 173.513387z m0-304.523947c-74.3424 0-134.81984 58.763947-134.81984 131.003733 0 72.21248 60.470613 130.92864 134.81984 130.92864 74.376533 0 134.894933-58.743467 134.894934-130.92864 0.027307-72.25344-60.491093-131.003733-134.894934-131.003733z" fill="#CCCCCC" /><path d="M355.744427 728.971947c0 84.104533-69.89824 152.282453-156.16 152.282453-86.2208 0-156.16-68.143787-156.16-152.282453 0-84.063573 69.9392-152.221013 156.16-152.221014 86.26176 0 156.16 68.1984 156.16 152.221014z" fill="#139FBF" /><path d="M199.59808 902.539947c-97.860267 0-177.452373-77.84448-177.452373-173.568 0-95.696213 79.592107-173.520213 177.452373-173.520214s177.466027 77.84448 177.466027 173.520214c0 95.72352-79.619413 173.568-177.466027 173.568z m0-304.489814c-74.349227 0-134.8608 58.73664-134.8608 130.921814 0 72.219307 60.491093 130.99008 134.8608 130.99008 74.38336 0 134.867627-58.73664 134.867627-130.99008 0.006827-72.178347-60.504747-130.921813-134.867627-130.921814z" fill="#CCCCCC" /></svg>