<?xml version="1.0" standalone="no"?><!DOCTYPE svg PUBLIC "-//W3C//DTD SVG 1.1//EN" "http://www.w3.org/Graphics/SVG/1.1/DTD/svg11.dtd"><svg class="icon" width="200px" height="200.00px" viewBox="0 0 1024 1024" version="1.1" xmlns="http://www.w3.org/2000/svg"><path d="M153.838933 169.710933h684.56448v684.56448H153.838933V169.710933z" fill="#606060" /><path d="M783.639893 224.50176h-37.1712l-0.027306-0.027307H245.794133v0.027307h-37.184853v37.164373l-0.013653 0.027307v500.6336h0.013653v37.198507l575.030613-575.023787z" fill="#F8FCFF" /><path d="M208.60928 799.525547h575.030613V224.50176l-575.030613 575.023787z" fill="#D8D8D8" /><path d="M685.602133 322.546347l-59.828906 59.856213h103.85408v-59.856213h-44.025174z" fill="#469FCC" /><path d="M321.460907 686.680747l-14.226774 14.2336h14.226774v-14.2336z" fill="#36A8C6" /><path d="M410.289493 641.624747h-0.9216v59.828906h320.259414v-59.828906H410.289493z" fill="#469FCC" /><path d="M409.25184 322.546347v59.856213h216.521387l59.828906-59.856213H409.25184zM321.460907 640.853333h-60.081494v60.061014h45.85472l14.226774-14.2336v-45.827414zM261.38624 483.71712h60.081493v60.08832h-60.081493v-60.08832z m0-157.12256h60.081493v60.081493h-60.081493v-60.081493zM409.25184 483.744427v59.856213h55.296l59.856213-59.856213H409.25184z" fill="#79D6F2" /><path d="M524.397227 483.744427l-59.856214 59.856213h266.335574v-59.856213H524.397227z" fill="#469FCC" /><path d="M592.964267 372.114773l10.990933 24.876374 7.55712-4.089174-6.068907-11.264a19.032747 19.032747 0 0 0-12.479146-9.5232z" fill="#E84656" /><path d="M571.118933 400.110933l6.08256 11.257174 26.760534-14.411094-10.990934-24.869546a19.285333 19.285333 0 0 0-13.919573 1.590613c-2.10944 1.160533-3.986773 2.717013-5.515947 4.580693l-0.669013 0.77824a19.565227 19.565227 0 0 0-1.747627 21.07392z m1.747627-21.039786l0.669013-0.77824-0.669013 0.77824z" fill="#E84656" /><path d="M611.5328 392.901973l-7.550293 4.089174 12.192426 27.600213a19.319467 19.319467 0 0 0 1.426774-20.432213l-6.068907-11.257174z m-28.269227 29.75744a19.47648 19.47648 0 0 0 26.391894 7.912107h0.006826c2.607787-1.45408 4.826453-3.50208 6.49216-5.98016l-12.199253-27.600213-26.760533 14.404266 6.068906 11.264z" fill="#D62740" /><path d="M613.96992 435.5072l5.67296-3.072-2.819413-6.396587-2.853547 9.468587z m29.375147-41.792853l-20.063574 10.820266-6.437546 21.504 2.82624 6.396587 33.19808-17.87904c-4.25984-13.011627-9.5232-20.841813-9.5232-20.841813z m9.5232 20.84864l-33.19808 17.87904 27.149653 61.405866a103.150933 103.150933 0 0 0 6.048427-79.284906zM619.64288 432.442027l-5.67296 3.072-38.741333 129.140053c38.597973-23.374507 60.14976-47.854933 71.584426-70.813013l-27.170133-61.39904z" fill="#7AC3E1" /><path d="M652.854613 414.562987l9.48224-5.09952-18.98496-15.74912c-0.006827 0 5.256533 7.830187 9.50272 20.84864z" fill="#3BAFDA" /><path d="M742.97344 476.644693l0.109227-0.314026-80.745814-66.88768-9.48224 5.106346c8.669867 26.180267 6.485333 54.74304-6.068906 79.29856l12.363093 27.921067 83.82464-45.124267zM575.228587 564.65408l-0.771414 2.573653 0.013654 0.14336 84.677973-45.602133-12.363093-27.921067c-11.414187 22.951253-32.9728 47.43168-71.55712 70.806187z" fill="#3BAFDA" /><path d="M616.81664 426.04544l6.43072-21.504-12.895573 6.94272 6.464853 14.56128z m-56.4224 12.335787l2.68288 24.53504 50.8928-27.409067 2.853547-9.468587-6.458027-14.568106-49.9712 26.91072z" fill="#7AC3E1" /><path d="M574.225067 565.254827l0.996693-0.600747 38.741333-129.140053-50.91328 27.409066 11.175254 102.331734z" fill="#7AC3E1" /><path d="M742.97344 476.644693l0.300373-0.157013-0.191146-0.157013-0.109227 0.314026z" fill="#282D32" /><path d="M743.273813 476.501333l-0.300373 0.14336-83.82464 45.124267 4.785493 10.840747-4.785493-10.840747L574.464 567.364267l97.122987 147.203413 83.469653 126.464c80.677547-144.13824-11.782827-364.530347-11.782827-364.530347z" fill="#FF4D56" /><path d="M872.338773 777.905493L743.273813 476.501333s92.460373 220.392107 11.762347 364.56448l117.302613-63.16032z" fill="#E84656" /><path d="M624.9472 398.957227c-5.61152 1.952427-11.22304 4.765013-16.83456 7.359146l2.27328 5.16096 12.895573-6.94272 20.063574-10.820266c-6.239573 1.344853-12.383573 3.09248-18.397867 5.24288z m-64.55296 39.424l49.99168-26.903894-2.27328-5.16096c-3.11296 1.426773-6.239573 2.41664-9.284267 4.061867-14.800213 7.96672-28.28288 17.851733-38.434133 28.002987z" fill="#7AC3E1" /><path d="M872.338773 777.905493l-117.30944 63.16032c23.258453 9.54368 49.88928 9.304747 73.741654-3.549866 23.87968-12.847787 38.734507-34.932053 43.567786-59.610454z" fill="#3BAFDA" /></svg>