<?xml version="1.0" standalone="no"?><!DOCTYPE svg PUBLIC "-//W3C//DTD SVG 1.1//EN" "http://www.w3.org/Graphics/SVG/1.1/DTD/svg11.dtd"><svg class="icon" width="200px" height="200.00px" viewBox="0 0 1024 1024" version="1.1" xmlns="http://www.w3.org/2000/svg"><path d="M744.624 256.92c-10.28 15.272-15.376 23.328-15.264 24.168 1.544 1.64 2.968 3.344 4.488 5 2.512-3.968 6.08-9.36 10.784-16.336a1604.408 1604.408 0 0 1 31.296-44.88l15.232-21.936-9.344 0.616-5.888 8.488a1587.824 1587.824 0 0 0-31.304 44.88z" fill="#305E35" /><path d="M780.688 211.832a1616.76 1616.76 0 0 0-31.296 44.888c-10.28 15.272-15.376 23.328-15.264 24.168 38.688 40.968 66.488 88.056 83.456 141.264 16.984 53.2 21.392 106.696 13.16 160.512-8.184 53.816-28.704 101.88-61.528 144.216-26.544 34.328-58.512 61.096-95.904 80.264-37.424 19.184-76.344 30.128-116.768 32.8-40.456 2.712-81.672-2.912-123.68-16.832-42-13.88-80.312-35.968-114.968-66.248-46.776-40-81.208-88.224-103.36-144.696-22.168-56.424-29.768-113.848-22.8-172.224 6.952-58.392 28.104-110.52 63.488-156.416 13.592-17.824 29.616-34.112 47.936-48.848 17.44 40.264 41.488 73.76 72.232 100.464 0.488 0.392 1.184 0.864 2.128 1.456 0.936 0.568 1.456 1.064 1.504 1.488a165.6 165.6 0 0 0-27.312 28.432c-33.936 43.688-47.096 94.48-39.44 152.296 7.656 57.824 33.872 105.768 78.64 143.8 21.48 18.864 45.336 32.704 71.536 41.536 26.2 8.816 51.944 12.4 77.208 10.728 25.232-1.68 49.576-8.584 73.016-20.72 23.44-12.12 43.44-28.872 60.048-50.264 30.216-39.216 43.512-84.696 39.904-136.448-3.608-51.768-22.672-97.016-57.144-135.736l-70.856 90.96-33.952-256.496 245.248-16.288-15.232 21.944z" fill="#33AF3C" /><path d="M794.36 189.888l-245.264 15.576 1.12 8.112 237.912-15.112z" fill="#85F9A0" /><path d="M350.272 354.504c-29.768 39.832-43.528 85.344-41.288 136.472 0.536-45.712 14.152-86.824 41.288-123.128a169.976 169.976 0 0 1 27.32-29.552c-0.048-0.44-0.552-0.952-1.496-1.544a26.944 26.944 0 0 1-2.144-1.512c-1.208-1.096-2.344-2.272-3.536-3.392-7.224 6.928-14.08 14.328-20.144 22.656zM711.048 499.704c-3.592-51.752-22.656-97-57.128-135.728l-70.856 90.976-32.28-243.776-1.688 0.112 33.968 256.488 70.856-90.952c34.472 38.72 53.528 83.96 57.128 135.728 0.264 3.64 0.232 7.176 0.328 10.752 0.248-7.744 0.248-15.568-0.328-23.6zM830.688 582.4c-8.2 53.816-28.72 101.88-61.528 144.216-26.56 34.328-58.528 61.088-95.92 80.264-37.424 19.176-76.328 30.128-116.768 32.792-40.456 2.712-81.664-2.912-123.672-16.824-41.992-13.88-80.312-35.976-114.968-66.248-46.76-40-81.176-88.224-103.352-144.696-15.952-40.592-24.216-81.72-25.096-123.328-0.744 46 7.504 91.4 25.096 136.168 22.168 56.464 56.592 104.696 103.352 144.688 34.656 30.28 72.976 52.368 114.968 66.248 42.016 13.912 83.224 19.528 123.672 16.832 40.44-2.672 79.344-13.608 116.768-32.8 37.392-19.176 69.36-45.936 95.92-80.264 32.816-42.336 53.328-90.408 61.528-144.216 3.16-20.64 4.424-41.232 3.84-61.8a345.224 345.224 0 0 1-3.84 48.968z" fill="#305E35" /><path d="M300.832 239.512c17.592 40.904 41.848 74.928 72.864 102.056 0.168 0.136 0.52 0.352 0.736 0.512 2.336-2.168 4.52-4.472 6.976-6.488-0.048-0.424-0.56-0.928-1.504-1.504a24 24 0 0 1-2.168-1.48c-31.008-27.128-55.264-61.152-72.856-102.048-18.48 14.968-34.624 31.512-48.36 49.624a319.024 319.024 0 0 0-37.672 63.192 320.72 320.72 0 0 1 33.624-54.232c13.736-18.112 29.88-34.656 48.36-49.632z" fill="#85F9A0" /></svg>