<?xml version="1.0" standalone="no"?><!DOCTYPE svg PUBLIC "-//W3C//DTD SVG 1.1//EN" "http://www.w3.org/Graphics/SVG/1.1/DTD/svg11.dtd"><svg class="icon" width="200px" height="200.00px" viewBox="0 0 1024 1024" version="1.1" xmlns="http://www.w3.org/2000/svg"><path d="M691.172693 846.1312l-146.254506-146.24768h-66.874027l-147.41504 147.462827c-4.28032 4.266667-6.935893 10.171733-6.935893 16.698026s2.648747 12.424533 6.935893 16.6912a23.504213 23.504213 0 0 0 16.704853 6.94272 23.483733 23.483733 0 0 0 16.698027-6.94272l124.054187-123.794773v83.82464c0 13.079893 10.356053 24.45312 23.40864 24.45312a23.545173 23.545173 0 0 0 23.558826-23.627093v-84.691627l122.73664 122.641067a23.57248 23.57248 0 0 0 16.971094 7.195306 23.599787 23.599787 0 0 0 16.42496-40.598186l-0.013654-0.006827zM535.053653 183.289173v-23.483733a23.483733 23.483733 0 0 0-46.96064-0.027307v23.51104h46.96064z" fill="#434854" /><path d="M535.053653 183.289173v-23.483733a23.483733 23.483733 0 0 0-46.96064-0.027307v23.51104h46.96064z" fill="#1D1E1E" /><path d="M159.35488 277.230933h704.43008v422.652587H159.35488V277.230933z" fill="#EAEAEA" /><path d="M159.35488 277.230933h704.43008v23.476907H159.35488V277.230933z m408.951467 446.272854l-23.6544-23.620267h-66.84672l-23.599787 23.620267h114.100907z" fill="#1D1E1E" /><path d="M887.27552 206.793387c0-12.970667-10.513067-23.483733-23.483733-23.483734H159.361707a23.483733 23.483733 0 0 0-23.483734 23.483734V277.230933h751.39072l0.006827-70.437546z" fill="#434854" /><path d="M464.616107 442.770773h93.92128v187.84256H464.616107V442.770773z" fill="#EACA44" /><path d="M347.211093 536.692053H441.1392v93.928107H347.211093V536.692053z" fill="#EF4D4D" /><path d="M582.014293 348.849493h93.934934v281.770667h-93.934934V348.849493z" fill="#3AAD73" /></svg>