<?xml version="1.0" standalone="no"?><!DOCTYPE svg PUBLIC "-//W3C//DTD SVG 1.1//EN" "http://www.w3.org/Graphics/SVG/1.1/DTD/svg11.dtd"><svg class="icon" width="200px" height="200.00px" viewBox="0 0 1024 1024" version="1.1" xmlns="http://www.w3.org/2000/svg"><path d="M864.201387 879.479467H216.221013a3.693227 3.693227 0 0 1-3.652266-3.13344l-67.037867-442.4704a3.693227 3.693227 0 0 1 3.652267-4.23936h782.056106a3.6864 3.6864 0 0 1 3.64544 4.23936l-67.037866 442.4704a3.700053 3.700053 0 0 1-3.64544 3.13344z" fill="#3AAD73" /><path d="M881.609387 429.636267V221.996373c0-5.789013-4.696747-10.472107-10.472107-10.472106H451.324587a10.410667 10.410667 0 0 1-8.97024-5.085867L407.552 148.432213a10.533547 10.533547 0 0 0-8.977067-5.085866H210.486613a10.513067 10.513067 0 0 0-10.472106 10.48576v275.80416h681.59488z" fill="#399163" /><path d="M240.913067 375.104853h599.79776v54.531414H240.913067v-54.531414z" fill="#FFFFFF" /><path d="M254.552747 334.21312h572.532053v40.891733H254.552747v-40.891733z" fill="#E7ECED" /><path d="M268.171947 293.31456h545.28v40.89856H268.171947v-40.89856z" fill="#C7CAC7" /><path d="M177.937067 647.734613l10.97728 72.43776 72.41728-72.43776H177.937067z" fill="#424A60" /><path d="M299.881813 647.734613h-38.550186l-72.41728 72.43776 5.065386 33.46432 7.488854 49.370454L356.7616 647.734613h-56.879787z" fill="#EFCE4A" /><path d="M395.30496 647.734613H356.7616l-155.293013 155.27936 1.256106 8.308054h99.51232l163.57376-163.587414H395.30496z" fill="#424A60" /><path d="M504.367787 647.734613h-38.557014l-163.57376 163.587414h109.056L574.8736 647.734613H504.367787z" fill="#EFCE4A" /><path d="M613.403307 647.734613h-38.54336l-163.580587 163.587414H520.328533l163.587414-163.587414H613.403307z" fill="#424A60" /><path d="M722.466133 647.734613h-38.54336l-163.587413 163.587414h109.056l163.587413-163.587414H722.466133z" fill="#EFCE4A" /><path d="M831.52896 647.734613h-38.550187l-163.587413 163.587414h109.062827l163.587413-163.587414h-70.51264z" fill="#424A60" /><path d="M902.034773 647.734613l-163.587413 163.587414h139.24352l17.988267-118.695254 6.813013-44.89216h-0.457387z" fill="#EFCE4A" /></svg>