<?xml version="1.0" standalone="no"?><!DOCTYPE svg PUBLIC "-//W3C//DTD SVG 1.1//EN" "http://www.w3.org/Graphics/SVG/1.1/DTD/svg11.dtd"><svg class="icon" width="200px" height="200.00px" viewBox="0 0 1024 1024" version="1.1" xmlns="http://www.w3.org/2000/svg"><path d="M252.53888 348.255573c-57.316693 0-103.785813 21.408427-103.785813 47.786667v477.81888c0 26.37824 46.496427 47.793493 103.785813 47.793493 57.28256 0 103.785813-21.415253 103.785813-47.793493V396.04224c-0.006827-26.405547-46.475947-47.786667-103.785813-47.786667z" fill="#EF4D4D" /><path d="M511.993173 252.689067c-57.316693 0-103.785813 21.408427-103.785813 47.77984v573.392213c0 26.37824 46.503253 47.793493 103.785813 47.793493 57.289387 0 103.79264-21.415253 103.79264-47.793493V300.468907c0-26.39872-46.46912-47.77984-103.79264-47.77984z" fill="#EACA44" /><path d="M771.454293 157.12256c-57.309867 0-103.77216 21.408427-103.77216 47.786667v668.951893c0 26.37824 46.496427 47.793493 103.77216 47.793493 57.296213 0 103.79264-21.415253 103.79264-47.793493V204.909227c0-26.405547-46.475947-47.786667-103.79264-47.786667z" fill="#3AAD73" /><path d="M148.753067 396.04224c0 26.385067 46.46912 47.77984 103.785813 47.77984 57.316693 0 103.785813-21.394773 103.785813-47.77984 0-26.391893-46.46912-47.786667-103.785813-47.786667-57.32352 0-103.785813 21.387947-103.785813 47.786667zM667.682133 204.909227c0 26.385067 46.462293 47.77984 103.77216 47.77984 57.316693 0 103.79264-21.394773 103.79264-47.77984 0-26.391893-46.475947-47.786667-103.79264-47.786667s-103.77216 21.387947-103.77216 47.786667zM408.20736 300.468907c0 26.391893 46.462293 47.786667 103.785813 47.786666 57.32352 0 103.79264-21.394773 103.79264-47.786666s-46.46912-47.77984-103.79264-47.77984c-57.316693 0-103.785813 21.387947-103.785813 47.77984z" fill="#262626" /><path d="M719.571627 245.951147v668.965546c-30.88384-8.239787-51.89632-23.415467-51.89632-41.0624v-668.945066c0.006827 17.605973 21.01248 32.802133 51.89632 41.04192zM460.10368 341.640533v573.39904c-30.870187-8.2944-51.89632-23.517867-51.89632-41.178453V300.468907c0 17.640107 21.019307 32.884053 51.89632 41.171626zM200.64256 437.20704v477.832533c-30.870187-8.2944-51.889493-23.517867-51.889493-41.178453V396.04224c0 17.626453 21.01248 32.8704 51.889493 41.1648z" fill="#DDDDDD" /></svg>