<?xml version="1.0" standalone="no"?><!DOCTYPE svg PUBLIC "-//W3C//DTD SVG 1.1//EN" "http://www.w3.org/Graphics/SVG/1.1/DTD/svg11.dtd"><svg class="icon" width="200px" height="200.00px" viewBox="0 0 1024 1024" version="1.1" xmlns="http://www.w3.org/2000/svg"><path d="M512 512m-385.7322666666667 0a385.7322666666667 385.7322666666667 0 1 0 771.4645333333334 0 385.7322666666667 385.7322666666667 0 1 0-771.4645333333334 0Z" fill="#017CC2" /><path d="M703.1295999999999 377.2928L537.6256 282.112c-17.254399999999997-10.112-45.491200000000006-10.112-62.754133333333336 0L309.76 377.2928c-17.271466666666665 10.112-31.163733333333333 34.5344-31.163733333333333 54.33173333333333v190.78826666666666c0 19.7888 13.892266666666666 44.2368 31.163733333333333 54.33173333333333L475.28106666666673 772.3520000000001c17.262933333333333 10.112 45.491200000000006 10.112 62.754133333333336 0l165.51253333333335-95.60746666666667c17.279999999999998-10.112 31.163733333333333-34.54293333333333 31.163733333333333-54.33173333333333V431.63306666666665c0.0256-19.79733333333333-14.293333333333333-44.22826666666666-31.581866666666667-54.34026666666667z m-142.33599999999998 149.9392c0 61.06453333333333-49.27146666666667 110.35306666666666-110.35306666666666 110.35306666666666s-110.35306666666666-49.26293333333333-110.35306666666666-110.35306666666666v-84.23253333333334a26.240000000000002 26.240000000000002 0 0 1 26.112-26.112 26.240000000000002 26.240000000000002 0 0 1 26.112 26.112v84.23253333333334c0 32.017066666666665 26.112 58.1376 58.12906666666667 58.1376 32.00853333333333 0 58.120533333333334-26.12053333333333 58.120533333333334-58.1376v-84.23253333333334c0-14.318933333333332 11.8016-26.112 26.12053333333333-26.112s26.12053333333333 11.793066666666666 26.12053333333333 26.112l-0.008533333333333334 84.23253333333334z m112.0256 84.24106666666667a26.240000000000002 26.240000000000002 0 0 1-26.112 26.112 26.257066666666667 26.257066666666667 0 0 1-26.129066666666663-26.112V442.99946666666665a26.257066666666667 26.257066666666667 0 0 1 26.129066666666663-26.112 26.240000000000002 26.240000000000002 0 0 1 26.112 26.112v168.47359999999998z" fill="#FFFFFF" /><path d="M689.2544 315.7162666666667v-38.596266666666665h-15.812266666666666v-5.1626666666666665H711.4666666666666v5.1626666666666665h-15.863466666666666v38.596266666666665h-6.3488zM717.7898666666666 315.7162666666667V271.9573333333333h9.557333333333334l11.349333333333334 30.98453333333333c1.0495999999999999 2.884266666666667 1.8175999999999999 5.0432 2.295466666666667 6.4768 0.5461333333333334-1.5957333333333332 1.3994666666666666-3.9253333333333336 2.56-7.014399999999999l11.485866666666666-30.446933333333334h8.541866666666666v43.75893333333333h-6.126933333333333v-36.62506666666666l-13.934933333333333 36.62506666666666h-5.7344l-13.8752-37.25653333333333v37.25653333333333h-6.118399999999999z" fill="#FFFFFF" /></svg>