<?xml version="1.0" standalone="no"?><!DOCTYPE svg PUBLIC "-//W3C//DTD SVG 1.1//EN" "http://www.w3.org/Graphics/SVG/1.1/DTD/svg11.dtd"><svg class="icon" width="200px" height="200.00px" viewBox="0 0 1024 1024" version="1.1" xmlns="http://www.w3.org/2000/svg"><path d="M659.715413 328.410453l-440.620373 514.054827 440.620373-514.054827V144.820907H182.381227v734.35136h660.923733V328.410453H659.715413z" fill="#7A7A7A" /><path d="M219.09504 181.541547v660.923733l440.620373-514.054827V181.541547H219.09504z" fill="#F8FCFF" /><path d="M659.715413 328.410453l-440.620373 514.054827h587.496107V328.410453H659.715413z" fill="#EFF2F4" /><path d="M806.58432 291.69664l-110.155093-110.155093-36.72064-36.713814v183.589547h183.596373l-36.72064-36.72064z" fill="#ACA9A1" /><path d="M432.5376 449.399467c0.55296 0.150187 1.058133 0.38912 1.611093 0.518826 6.423893 1.488213 13.011627 2.47808 19.879254 2.47808a87.71584 87.71584 0 0 0 19.90656-2.47808c47.08352-10.868053 76.45184-57.842347 65.583786-104.932693a87.504213 87.504213 0 0 0-85.490346-67.82976c-2.136747 0-4.143787 0.477867-6.253227 0.641707-45.40416 3.269973-81.353387 40.721067-81.353387 86.964906 0.027307 40.946347 28.187307 74.99776 66.116267 84.637014z m71.079253 30.180693l-49.568426 49.5616-26.289494-26.282667-23.278933-23.278933H308.032853v186.92096h61.883734l160.221866-186.92096h-26.5216z" fill="#79D6F2" /><path d="M530.138453 479.58016l-160.221866 186.92096h230.167893V479.58016H530.138453z" fill="#3BAFDA" /><path d="M546.85696 550.97344c0 60.94848 49.404587 110.359893 110.359893 110.359893 60.94848 0 110.353067-49.411413 110.353067-110.359893 0.027307-60.941653-49.3568-110.36672-110.30528-110.394027s-110.373547 49.3568-110.40768 110.30528v0.088747z" fill="#7FAA46" /><path d="M735.081813 518.71744l-26.023253-26.0096-64.45056 64.47104-39.253333-39.23968-26.023254 26.016427 39.232854 39.23968v0.013653l26.023253 26.016427v-0.013654l0.02048 0.013654 26.023253-26.016427v-0.006827l64.45056-64.484693z" fill="#F9F9F9" /><path d="M331.578027 747.574613a12.397227 12.397227 0 0 0-12.485974 12.294827v0.18432l0.300374 50.189653a12.724907 12.724907 0 0 0 12.629333 12.642987l36.57728-0.095573-0.423253-75.318614-36.59776 0.1024z" fill="#D66C03" /><path d="M747.690667 773.106347l-61.078187-26.453334-280.80128 0.709974 0.423253 75.291306 280.80128-0.7168 60.78464-25.74336c10.130773-4.314453 10.042027-18.684587-0.129706-23.087786z" fill="#FF8C00" /><path d="M686.61248 746.653013l-280.80128 0.709974 0.423253 75.291306 280.82176-0.7168 37.70368-15.960746v-42.8032l-38.147413-16.520534z" fill="#FF8C00" /><path d="M747.690667 773.106347l-22.944427-9.946454v42.789547l23.074133-9.78944a12.192427 12.192427 0 0 0 7.53664-11.496107 12.506453 12.506453 0 0 0-7.666346-11.557546z" fill="#282D32" /></svg>