<?xml version="1.0" standalone="no"?><!DOCTYPE svg PUBLIC "-//W3C//DTD SVG 1.1//EN" "http://www.w3.org/Graphics/SVG/1.1/DTD/svg11.dtd"><svg class="icon" width="200px" height="200.00px" viewBox="0 0 1024 1024" version="1.1" xmlns="http://www.w3.org/2000/svg"><path d="M670.173867 334.670507l-482.126507 562.476373L670.173867 334.670507V133.789013H147.8656v803.546454h723.18976v-602.658134H670.173867z m-7.174827 8.383146l-400.5888 467.339947 400.5888-467.339947z" fill="#7A7A7A" /><path d="M188.04736 173.963947v723.182933L670.173867 334.670507V173.963947H188.04736z m74.36288 636.429653l400.575147-467.339947-400.575147 467.339947z" fill="#F8FCFF" /><path d="M670.173867 334.670507l-482.126507 562.476373h642.833067V334.670507H670.173867z" fill="#EFF2F4" /><path d="M830.880427 294.495573l-120.538454-120.5248-40.168106-40.18176v200.88832h200.881493l-40.174933-40.18176z" fill="#A0A1A2" /><path d="M779.086507 850.98496a13.550933 13.550933 0 0 0 13.666986-13.45536v-0.2048l-0.32768-54.913707a13.9264 13.9264 0 0 0-13.817173-13.824l-40.01792 0.109227 0.47104 82.397867 40.024747-0.109227z" fill="#D66C03" /><path d="M390.61504 851.974827l307.275093-0.771414-0.477866-82.39104-307.254614 0.77824-41.253546 17.48992v46.81728l41.710933 18.077014z" fill="#FF8C00" /><path d="M323.795627 823.036587l25.115306 10.87488v-46.830934l-25.245013 10.704214a13.359787 13.359787 0 0 0-8.260267 12.567893 13.7216 13.7216 0 0 0 8.389974 12.683947z" fill="#282D32" /><path d="M701.68576 352.836267H654.609067l-42.3936 49.4592h90.248533v-49.4592h-0.77824z" fill="#3BAFDA" /><path d="M437.623467 352.836267v49.4592H612.215467l42.3936-49.4592H437.623467z m-84.309334 312.756906h11.748694v-49.657173h-49.657174v49.657173h37.90848z m-37.90848-179.52768h49.657174v49.64352h-49.657174v-49.64352z m0-129.877333h49.657174v49.657173h-49.657174v-49.657173z" fill="#79D6F2" /><path d="M701.68576 616.57088H437.746347v49.4592H702.464v-49.4592h-0.77824z" fill="#3BAFDA" /><path d="M532.821333 486.085973H437.623467v49.472854h60.347733l42.43456-49.472854H532.821333z" fill="#79D6F2" /><path d="M702.723413 486.085973H540.40576l-42.43456 49.472854h205.544107v-49.472854h-0.791894z" fill="#3BAFDA" /></svg>