<?xml version="1.0" standalone="no"?><!DOCTYPE svg PUBLIC "-//W3C//DTD SVG 1.1//EN" "http://www.w3.org/Graphics/SVG/1.1/DTD/svg11.dtd"><svg class="icon" width="200px" height="200.00px" viewBox="0 0 1024 1024" version="1.1" xmlns="http://www.w3.org/2000/svg"><path d="M797.387 862.494h-574.215v25.515h599.662v-577.365l-25.447-23.138z" fill="#304860" /><path d="M206.281 135.548v737.76h599.662v-578.025l-175.671-159.735z" fill="#B0C0E0" /><path d="M242.859 178.823v666.217h541.507v-547.935l-130.080-118.282z" fill="#FFFFFF" /><path d="M633.489 297.465h159.143l26.835 25.702h-185.977z" fill="#304860" /><path d="M822.759 310.725l-192.57-175.852v175.852z" fill="#B0C0E0" /><path d="M790.322 281.108l-127.695-116.618v116.618z" fill="#EFEFEF" /><path d="M406.554 416.228h365.475v34.927h-365.475zM306.616 269.003h71.092v36.99h-71.092zM416.731 269.003h71.093v36.99h-71.093zM524.274 269.003h71.093v36.99h-71.093zM349.899 373.665h-59.407c-16.567 0-30 13.357-30 29.835v59.070c0 16.492 13.433 29.843 30 29.843h59.407c16.567 0 30-13.35 30-29.843v-59.070c0-16.47-13.433-29.835-30-29.835zM363.361 454.403c-0.034 11.916-9.701 21.563-21.622 21.563-0.026 0-0.053 0-0.079 0h-42.934c-0.020 0-0.044 0-0.067 0-11.922 0-21.593-9.646-21.63-21.559v-42.716c0.034-11.916 9.701-21.563 21.623-21.563 0.026 0 0.053 0 0.079 0h42.934c0.020 0 0.044 0 0.067 0 11.922 0 21.593 9.646 21.63 21.559v42.716z" fill="#B0C0E0" /><path d="M341.379 390.706h-42.359c-0.018 0-0.039 0-0.060 0-11.762 0-21.3 9.52-21.33 21.275v42.115c0.025 11.757 9.562 21.277 21.322 21.277 0.023 0 0.048 0 0.071 0h42.356c0.018 0 0.039 0 0.060 0 11.762 0 21.3-9.52 21.33-21.275v-42.115c-0.034-11.758-9.574-21.278-21.337-21.278-0.019 0-0.037 0-0.055 0zM350.972 448.276c-0.025 8.493-6.916 15.367-15.412 15.367-0.022 0-0.042 0-0.064 0h-30.612c-0.018 0-0.039 0-0.060 0-8.497 0-15.387-6.875-15.412-15.366v-30.468c0-8.49 6.922-15.382 15.472-15.382h30.615c8.55 0 15.472 6.893 15.472 15.383v30.465z" fill="#304860" /><path d="M406.554 573.106h365.475v34.928h-365.475zM349.899 530.543h-59.407c-16.567 0-30 13.357-30 29.835v59.078c0 16.485 13.433 29.843 30 29.843h59.407c16.567 0 30-13.35 30-29.843v-59.078c0-16.477-13.433-29.835-30-29.835zM363.361 611.273c-0.030 11.919-9.699 21.57-21.622 21.57-0.026 0-0.053 0-0.079 0h-42.934c-0.022 0-0.049 0-0.075 0-11.923 0-21.593-9.651-21.623-21.567v-42.708c0.034-11.92 9.705-21.57 21.63-21.57 0.023 0 0.048 0 0.071 0h42.934c0.018 0 0.039 0 0.060 0 11.926 0 21.599 9.649 21.637 21.566v42.709z" fill="#B0C0E0" /><path d="M341.379 547.575h-42.359c-0.018 0-0.039 0-0.060 0-11.762 0-21.3 9.52-21.33 21.275v42.123c0.025 11.757 9.562 21.278 21.322 21.278 0.023 0 0.048 0 0.071 0h42.356c0.018 0 0.039 0 0.060 0 11.762 0 21.3-9.52 21.33-21.275v-42.123c-0.038-11.759-9.58-21.277-21.345-21.277-0.016 0-0.032 0-0.048 0zM350.972 605.146c0 8.49-6.923 15.375-15.472 15.375h-30.615c-0.016 0-0.034 0-0.053 0-8.5 0-15.395-6.878-15.42-15.372v-30.468c0-8.49 6.922-15.383 15.472-15.383h30.615c8.55 0 15.472 6.892 15.472 15.383v30.465z" fill="#304860" /><path d="M406.554 729.976h365.475v34.928h-365.475zM349.899 687.413h-59.407c-16.567 0-30 13.357-30 29.842v59.070c0 16.493 13.433 29.842 30 29.842h59.407c16.567 0 30-13.35 30-29.842v-59.070c0-16.485-13.433-29.842-30-29.842zM363.361 768.15c-0.034 11.916-9.701 21.563-21.622 21.563-0.026 0-0.053 0-0.079 0h-42.934c-0.022 0-0.049 0-0.075 0-11.92 0-21.589-9.647-21.623-21.561v-42.715c0.034-11.916 9.701-21.563 21.623-21.563 0.026 0 0.053 0 0.079 0h42.934c0.020 0 0.044 0 0.067 0 11.922 0 21.591 9.646 21.63 21.559v42.716z" fill="#B0C0E0" /><path d="M341.379 704.453h-42.359c-0.018 0-0.039 0-0.060 0-11.762 0-21.3 9.52-21.33 21.275v42.115c0.025 11.757 9.562 21.278 21.322 21.278 0.023 0 0.048 0 0.071 0h42.356c0.018 0 0.039 0 0.060 0 11.762 0 21.3-9.52 21.33-21.275v-42.115c-0.034-11.758-9.574-21.278-21.337-21.278-0.019 0-0.037 0-0.055 0zM350.972 762.023c-0.025 8.493-6.916 15.367-15.412 15.367-0.022 0-0.042 0-0.064 0h-30.612c-0.018 0-0.039 0-0.060 0-8.497 0-15.387-6.875-15.412-15.366v-30.468c0-8.49 6.922-15.382 15.472-15.382h30.615c8.55 0 15.472 6.892 15.472 15.382v30.465z" fill="#304860" /></svg>