<svg xmlns="http://www.w3.org/2000/svg" viewBox="0 0 1024 1024" version="1.1"><path d="M225.536 704l3.072-13.76c8.448-0.768 15.04-3.2 19.84-7.36 4.8-4.096 8.16-9.824 10.112-17.12 1.984-7.328 2.976-16.96 2.976-28.992 0-7.296-0.32-15.264-0.864-23.904l-1.952-36.256H134.976l-15.488 27.52a230.176 230.176 0 0 0-16 33.344c-3.392 9.28-5.088 17.504-5.088 24.64 0 15.744 9.472 25.12 28.416 28.096L123.712 704H8.672l3.104-13.76c5.824-0.768 11.296-3.072 16.448-6.912 5.152-3.84 10.656-9.664 16.448-17.44 5.824-7.776 13.984-20.672 24.48-38.656l180.288-311.648h42.464l20.256 313.6c0.928 14.816 2.624 26.4 5.056 34.752 2.432 8.32 5.76 14.528 9.984 18.56 4.224 4.032 10.368 6.592 18.432 7.712l-3.104 13.792H225.536z m-77.92-151.872H257.6l-4.8-90.56c-0.544-12.384-1.024-27.84-1.408-46.4-0.384-18.56-0.544-32-0.544-40.224h-3.104l-100.128 177.184z m507.136-222.176l-16.896 76.192h-26.976c-1.504-23.04-6.528-39.68-15.04-49.92-8.544-10.208-22.272-15.328-41.216-15.328-15.744 0-30.56 4.64-44.448 13.92-13.856 9.28-27.008 22.72-39.36 40.224a288.064 288.064 0 0 0-32.352 61.6 427.04 427.04 0 0 0-21.12 72 342.144 342.144 0 0 0-7.296 66.24c0 30.56 5.024 53.024 15.04 67.36 10.048 14.336 25.76 21.504 47.136 21.504 14.048 0 26.336-2.112 36.832-6.336 10.496-4.192 20.352-11.328 29.536-21.376 9.184-10.016 18.272-24.032 27.264-42.048h27.008l-17.152 79.904a397.984 397.984 0 0 1-110.24 14.624c-23.264 0-43.04-4.832-59.36-14.496a90.496 90.496 0 0 1-36.832-41.92c-8.256-18.24-12.384-40.256-12.384-65.92 0-13.504 0.96-26.656 2.816-39.392 2.24-15.744 5.824-32.896 10.688-51.456 6.176-23.072 13.952-44.064 23.36-63.04a273.536 273.536 0 0 1 34.56-53.12c12.192-14.272 25.408-26.176 39.68-35.744 13.12-8.8 27.264-15.648 42.464-20.512a157.344 157.344 0 0 1 48.384-7.328c17.056 0 32.832 1.056 47.36 3.104 14.56 2.048 30.72 5.824 48.544 11.264z m42.688 378.304c-25.824 0-45.888-7.264-60.128-21.76-14.24-14.496-21.376-35.328-21.376-62.496 0-10.016 1.28-21.76 3.744-35.264a212.8 212.8 0 0 1 13.504-46.496c7.488-16.832 17.12-31.36 28.864-43.616a120.32 120.32 0 0 1 40.512-28c15.264-6.4 31.616-9.6 49.12-9.6 19.2 0 34.88 3.648 47.136 10.976 12.256 7.36 21.12 17.28 26.624 29.888 5.504 12.576 8.256 27.104 8.256 43.616 0 14.816-2.08 30.656-6.272 47.488-5.984 24.672-14.72 45.6-26.24 62.752a114.88 114.88 0 0 1-43.232 39.136c-17.344 8.896-37.504 13.376-60.512 13.376z m-37.76-73.504c0 18.336 3.808 31.872 11.392 40.64 7.584 8.736 19.04 13.12 34.368 13.12 16.32 0 30.816-7.36 43.52-22.016 12.64-14.656 22.656-35.2 29.984-61.632 7.328-26.4 11.008-49.6 11.008-69.6 0-18.016-3.52-31.552-10.528-40.64-6.976-9.088-17.92-13.632-32.736-13.632-17.344 0-32.448 7.264-45.376 21.76-12.928 14.496-23.072 35.232-30.496 62.24-7.424 27.008-11.136 50.24-11.136 69.76z m332.8-111.488c-1.824-15.04-6.08-25.888-12.864-32.64-6.72-6.72-17.184-10.112-31.36-10.112a50.24 50.24 0 0 0-21.248 4.352 35.072 35.072 0 0 0-15.008 12.768 34.944 34.944 0 0 0-5.504 19.616c0 6.176 1.28 11.808 3.744 16.864 2.496 5.12 6.72 10.4 12.64 15.904 5.92 5.472 14.208 11.84 24.864 18.976 16.16 10.848 27.52 21.344 34.016 31.52a64 64 0 0 1 9.728 35.232c0 15.68-3.744 28.96-11.232 39.872a67.296 67.296 0 0 1-30.752 24.384c-12.992 5.344-27.68 8-44 8-14.656 0-28.384-1.088-41.12-3.264a370.624 370.624 0 0 1-37.12-8.224l11.744-54.016h19.52c1.152 15.36 5.504 26.784 13.12 34.368 7.552 7.584 18.592 11.392 33.088 11.392 14.848 0 26.432-3.712 34.752-11.136 8.32-7.424 12.512-17.216 12.512-29.376 0-7.168-1.28-13.568-3.744-19.232a52.16 52.16 0 0 0-11.744-16.256 172.992 172.992 0 0 0-22.752-17.76 191.616 191.616 0 0 1-25.504-20.256 72.128 72.128 0 0 1-15.136-20.864 58.08 58.08 0 0 1-5.376-25.12c0-13.824 3.424-25.824 10.24-36 6.848-10.176 16.544-17.92 29.12-23.264 12.608-5.312 27.328-8 44.16-8 27.488 0 51.744 3.584 72.736 10.752l-11.52 51.52h-19.968z" fill="#5D6D7E" p-id="39533"></path></svg>