<svg xmlns="http://www.w3.org/2000/svg" viewBox="0 0 1024 1024" version="1.1"><path d="M129.568 736H128V268.416h2.336a56.352 56.352 0 0 1-2.336-16c0-79.52 171.936-144 384-144s384 64.48 384 144c0 5.408-0.8 10.752-2.336 16H896V736h-3.616c2.368 8 3.616 16.16 3.616 24.384 0 11.712-0.704 22.624-5.504 33.536C855.552 872.896 698.368 928 512 928c-212.064 0-384-78.784-384-176 0-5.408 0.544-10.72 1.568-16z" fill="#FFFFFF" p-id="12414"></path><path d="M896 703.232h-32V672c-11.648 11.104-26.24 21.568-43.36 31.2H768v-10.112c59.648-23.808 96-54.688 96-85.12v-118.656c-25.728 18.688-58.304 34.816-96 47.936v-34.016c40.8-15.232 73.76-34.016 96-55.232v-150.4C804.704 348.48 669.44 384 512 384S219.296 348.48 160 297.632V448h-0.032c59.232 56.512 194.56 96 352.032 96a858.24 858.24 0 0 0 160-14.496v32.608A896.352 896.352 0 0 1 512 576c-146.56 0-277.76-32.768-352-86.656V608c0 61.312 147.52 124.448 336 127.84v32c-150.56-2.56-278.72-41.248-336-95.808v104.832l4.448 9.12C193.568 845.696 339.584 896 512 896a824.32 824.32 0 0 0 160-15.2v32.704A858.24 858.24 0 0 1 512 928c-185.76 0-340.736-54.976-376.32-128L128 768V242.048h0.032L128 240C128 160.48 299.936 96 512 96s384 64.48 384 144V703.232z m-7.488 96L888.32 800c-16.736 34.368-59.936 64.736-120.32 87.264v-34.176c38.304-15.36 67.2-33.888 83.104-53.856h37.408zM512 352c195.456 0 352-58.72 352-112S707.456 128 512 128 160 186.72 160 240 316.544 352 512 352z" fill="#5D6D7E" p-id="12415"></path><path d="M704 736v-160h32v160h160v32h-160v160h-32v-160h-160v-32z" fill="#C49F74" p-id="12416"></path></svg>