<svg xmlns="http://www.w3.org/2000/svg" viewBox="0 0 1024 1024" version="1.1"><path d="M160 160m32 0l704 0q32 0 32 32l0 704q0 32-32 32l-704 0q-32 0-32-32l0-704q0-32 32-32Z" fill="#FFFFFF" p-id="44080"></path><path d="M224 160v32H192v32H160V192a32 32 0 0 1 32-32h32z m96 0h576a32 32 0 0 1 32 32v704a32 32 0 0 1-32 32H192a32 32 0 0 1-32-32V320h32v576h704V192H320V160z" fill="#5D6D7E" p-id="44081"></path><path d="M537.088 454.944c-57.408 71.008-66.176 126.336-17.92 158.72 30.272 20.32 50.56 21.856 73.312 12.032 7.072-3.04 6.56-2.848 7.744-3.104 0.576-0.128 0.512-0.128 3.36 2.656 4.352 4.288 8.736 7.936 13.856 11.744 2.08 1.536 9.216 6.592 10.624 7.68 10.176 7.584 11.84 13.216 6.72 40.32-5.728 30.272-5.408 70.976 0.992 101.312 3.712 17.536 9.28 31.328 17.344 40.352 11.616 13.024 28.032 15.36 43.52 5.44 54.976-35.264 105.216-94.656 105.216-144.096 0-22.336 2.144-29.696 8.864-39.456l3.328-4.8a96.8 96.8 0 0 0 12.448-24.704c2.304-6.752 19.008-45.216 17.792-42.24 8.736-20.896 14.72-38.08 18.368-55.104 4.896-22.816 5.056-43.264-0.8-61.568l-30.496 9.728c3.936 12.288 3.84 27.328 0 45.12-3.168 14.72-8.512 30.24-16.576 49.44-1.6 3.744-3.2 7.552-5.28 12.288l-5.056 11.52c-4 9.184-6.4 15.104-8.224 20.448a64.896 64.896 0 0 1-8.608 17.024l-3.232 4.672c-10.528 15.296-14.528 28.992-14.528 57.632 0 35.392-43.84 87.232-90.496 117.12-2.176 1.44-1.184 1.6-2.368 0.224-3.552-4-7.232-13.088-9.92-25.664-5.504-26.176-5.76-62.592-0.832-88.704 7.264-38.336 1.824-56.352-18.976-71.936-1.888-1.408-9.088-6.496-10.752-7.744a95.04 95.04 0 0 1-10.464-8.864c-10.24-10.048-21.024-13.696-32.8-11.072-2.56 0.576-4.96 1.376-7.68 2.464a226.816 226.816 0 0 0-5.76 2.496c-12.928 5.568-21.76 4.896-42.816-9.216-27.808-18.688-22.272-53.632 24.96-112.064l-24.864-20.096z" fill="#30AD98" p-id="44082"></path><path d="M480 448h416a32 32 0 0 1 32 32v416a32 32 0 0 1-32 32H480a32 32 0 0 1-32-32V480a32 32 0 0 1 32-32z m0 32v416h416V480H480z" fill="#5D6D7E" p-id="44083"></path><path d="M256 256V96h32v160h160v32H288v160H256V288H96V256z" fill="#C49F74" p-id="44084"></path></svg>