<svg xmlns="http://www.w3.org/2000/svg" viewBox="0 0 1024 1024" version="1.1"><path d="M128 96h768a32 32 0 0 1 32 32v768a32 32 0 0 1-32 32H128a32 32 0 0 1-32-32V128a32 32 0 0 1 32-32z" fill="#FFFFFF" p-id="13830"></path><path d="M128 96h768a32 32 0 0 1 32 32v768a32 32 0 0 1-32 32H128a32 32 0 0 1-32-32V128a32 32 0 0 1 32-32z m0 32v768h768V128H128z m0 128h768v32H128V256z m480-64h160v32h-160V192z m192 0h64v32h-64V192z" fill="#5D6D7E" p-id="13831"></path><path d="M512 482.112a128.064 128.064 0 0 1 96-123.968v63.2a27.648 27.648 0 0 0 55.264 0v-65.12a128.032 128.032 0 0 1 32 241.376V928H576V592.96a127.936 127.936 0 0 1-64-110.848z m32 0c0 34.688 18.528 66.112 48 83.2l16 9.216V896h55.264v-318.56l18.176-8.704a96 96 0 0 0 13.824-165.152v17.76a59.648 59.648 0 0 1-119.264 0v-10.816a96 96 0 0 0-32 71.584z" fill="#27A2DF" p-id="13832"></path><path d="M368 674.016v-145.728L320 480l30.368-128h66.944L448 480l-48 46.176v147.84A64 64 0 0 1 448 736v192h-128v-192a64 64 0 0 1 48-61.984zM375.68 384l-20.448 86.08 27.84 27.968 29.536-28.416L392.064 384h-16.416zM416 896v-160a32 32 0 0 0-64 0v160h64z" fill="#C49F74" p-id="13833"></path></svg>