<svg xmlns="http://www.w3.org/2000/svg" viewBox="0 0 1024 1024" version="1.1"><path d="M704 288h192a32 32 0 0 1 32 32v576a32 32 0 0 1-32 32H128a32 32 0 0 1-32-32V320a32 32 0 0 1 32-32h192V192a64 64 0 0 1 64-64h256a64 64 0 0 1 64 64v96z" fill="#FFFFFF" p-id="13191"></path><path d="M896 320H128v128h256v32H128v416h768V480h-256v-32h256v-128z m-192-32h192a32 32 0 0 1 32 32v576a32 32 0 0 1-32 32H128a32 32 0 0 1-32-32V320a32 32 0 0 1 32-32h192V192a64 64 0 0 1 64-64h256a64 64 0 0 1 64 64v96z m-32 0V192a32 32 0 0 0-32-32h-256a32 32 0 0 0-32 32v96h320z" fill="#5D6D7E" p-id="13192"></path><path d="M384 416h256v256a32 32 0 0 1-32 32h-192a32 32 0 0 1-32-32v-256z m32 32v224h192v-224h-192z m0 128v-32h192v32h-192z" fill="#C49F74" p-id="13193"></path></svg>