<svg xmlns="http://www.w3.org/2000/svg" viewBox="0 0 1024 1024" version="1.1"><path d="M96 96h32v832H96z" fill="#5D6D7E" p-id="45923"></path><path d="M224 192h384a32 32 0 0 1 32 32v192a32 32 0 0 1-32 32H224a32 32 0 0 1-32-32V224a32 32 0 0 1 32-32z m0 384h672a32 32 0 0 1 32 32v192a32 32 0 0 1-32 32H224a32 32 0 0 1-32-32v-192a32 32 0 0 1 32-32z m0 32v192h672v-192H224z" fill="#808FA1" p-id="45924"></path><path d="M208 592m32 0l640 0q32 0 32 32l0 160q0 32-32 32l-640 0q-32 0-32-32l0-160q0-32 32-32Z" fill="#FFFFFF" p-id="45925"></path></svg>