<svg xmlns="http://www.w3.org/2000/svg" viewBox="0 0 1024 1024" version="1.1"><path d="M512 512m-272 0a272 272 0 1 0 544 0 272 272 0 1 0-544 0Z" fill="#FFFFFF" p-id="49831"></path><path d="M480 257.984A256.032 256.032 0 0 0 512 768a256.032 256.032 0 0 0 254.016-224H480V257.984zM512 256v256h256a256 256 0 0 0-256-256z m0 544a288 288 0 1 1 0-576 288 288 0 0 1 0 576z" fill="#5D6D7E" p-id="49832"></path><path d="M668.8 544h32.544A192.064 192.064 0 0 1 320 512a192.064 192.064 0 0 1 160-189.344V355.2a160.064 160.064 0 0 0 32 316.8 160.064 160.064 0 0 0 156.8-128z m-101.376 0h35.104A96.032 96.032 0 1 1 480 421.44v35.136A64 64 0 1 0 567.424 544z" fill="#808FA1" p-id="49833"></path><path d="M823.936 736H768v-32h128v128h-32v-96h-1.408A415.68 415.68 0 0 1 512 928a415.68 415.68 0 0 1-350.592-192h38.656C269.76 832.896 383.52 896 512 896s242.24-63.104 311.936-160z" fill="#27A2DF" p-id="49834"></path><path d="M128 352h96v32H96V256h32v95.712C190.752 201.536 339.04 96 512 96c173.056 0 321.44 105.664 384.128 256h-34.944C800.512 219.808 666.976 128 512 128 357.024 128 223.488 219.808 162.816 352H128z" fill="#30AD98" p-id="49835"></path></svg>