<svg xmlns="http://www.w3.org/2000/svg" viewBox="0 0 1024 1024" version="1.1"><path d="M778.784 594.88l54.88 58.24c-39.552 35.104-71.296 61.984-95.168 80.64 43.296 43.296 94.08 96.32 152.32 159.04h-112l-103.04-107.52c-67.2 50.784-121.728 84.736-163.52 101.92-41.824 17.184-87.36 25.76-136.64 25.76-60.48 0-109.952-17.728-148.416-53.216C188.736 824.32 169.536 780.8 169.536 729.28c0-51.52 17.152-98.752 51.52-141.664 34.336-42.944 81.728-87.936 142.208-134.976-41.792-48.544-69.6-86.08-83.424-112.576C266.016 313.6 259.136 288 259.136 263.36c0-42.56 17.152-77.44 51.52-104.736 34.336-27.232 77.44-40.864 129.344-40.864 51.904 0 94.272 14.56 127.136 43.68 32.832 29.12 49.28 63.104 49.28 101.92 0 27.616-9.536 56.736-28.576 87.36-19.04 30.624-56.544 69.44-112.576 116.48l206.08 211.68a3104.32 3104.32 0 0 0 97.44-84z m-352.768-188.16c72.416-57.504 108.608-105.28 108.608-143.36 0-18.656-9.12-34.88-27.424-48.736-18.304-13.792-41.44-20.704-69.44-20.704s-51.328 6.72-70.016 20.16c-18.656 13.44-28 30.976-28 52.64 0 29.856 28.768 76.544 86.24 140z m-10.112 107.52c-69.44 52.256-114.4 93.504-134.944 123.744-20.544 30.272-30.816 59.36-30.816 87.36 0 28.032 13.088 53.76 39.232 77.28 26.112 23.552 56.352 35.296 90.688 35.296 34.368 0 69.088-8 104.16-24.064 35.104-16.064 80.64-44.256 136.64-84.576l-204.96-215.04z" fill="#5D6D7E" p-id="42613"></path></svg>