<svg xmlns="http://www.w3.org/2000/svg" viewBox="0 0 1024 1024" version="1.1"><path d="M112 112m32 0l736 0q32 0 32 32l0 736q0 32-32 32l-736 0q-32 0-32-32l0-736q0-32 32-32Z" fill="#FFFFFF" p-id="50970"></path><path d="M439.136 269.344l-204.448 238.88L147.808 912h730.048l-40.64-321.76-222.624-138.624-175.456-182.272z" fill="#C49F74" fill-opacity=".2" p-id="50971"></path><path d="M518.688 595.776l-114.368 204.8-274.912 74.592 10.624 36.832h666.912l-117.024-252.448-171.232-63.776z" fill="#30AD98" fill-opacity=".5" p-id="50972"></path><path d="M219.904 500.896l218.56-255.36 186.272 193.536 227.392 141.6L896.032 928H128l91.904-427.104z m29.568 14.656L167.616 896h692.096l-37.44-296.192-217.824-135.68-164.608-170.976-190.368 222.4z" fill="#C49F74" p-id="50973"></path><path d="M109.504 864l284.128-77.12L511.36 576l190.272 70.848L832 928H128l-18.496-64z m42.56 32h629.824l-103.712-223.744-152.224-56.704-110.944 198.72-265.728 72.096 2.784 9.632z" fill="#30AD98" p-id="50974"></path><path d="M128 96h768a32 32 0 0 1 32 32v768a32 32 0 0 1-32 32H128a32 32 0 0 1-32-32V128a32 32 0 0 1 32-32z m0 32v768h768V128H128z" fill="#5D6D7E" p-id="50975"></path></svg>