<svg xmlns="http://www.w3.org/2000/svg" viewBox="0 0 1024 1024" version="1.1"><path d="M96 192m64 0l704 0q64 0 64 64l0 480q0 64-64 64l-704 0q-64 0-64-64l0-480q0-64 64-64Z" fill="#FFFFFF" p-id="17364"></path><path d="M632.224 592.448l-18.88-37.76 44.608-106.56-290.144-139.52-234.336 471.936-28.512-14.496L338.976 294.752l-147.2-70.784 13.856-28.832 464.96 223.584 95.616-223.264 29.408 12.608-96.192 224.512 216.128 103.936-13.888 28.832-214.848-103.296-54.592 130.4z m-24.8 59.232l-53.728 128.352-29.408-12.608 52.48-125.376 30.656 9.632z" fill="#ACB4C0" p-id="17365"></path><path d="M128 192h768a32 32 0 0 1 32 32v544a32 32 0 0 1-32 32H128a32 32 0 0 1-32-32V224a32 32 0 0 1 32-32z m0 32v544h768V224H128z" fill="#5D6D7E" p-id="17366"></path><path d="M544 416l128 256-128-40.256L416 672z" fill="#3B97D3" fill-opacity=".5" p-id="17367"></path><path d="M384.832 698.56L544 380.256l159.168 318.368L544 648.512l-159.168 50.08z m62.336-53.12L544 614.944l96.832 30.432L544 451.776l-96.832 193.632z" fill="#3B97D3" p-id="17368"></path><path d="M576 864v32H192v-32h384z m96 0h160v32h-160v-32z m-64-32h32v96h-32v-96zM96 96h416v32H96V96z" fill="#C49F74" p-id="17369"></path></svg>