<svg xmlns="http://www.w3.org/2000/svg" viewBox="0 0 1024 1024" version="1.1"><path d="M112 496.768a16 16 0 0 1 16 16c0 212.096 171.936 384 384 384 156.352 0 294.752-94.304 353.984-234.848l-70.592 34.368a16 16 0 0 1-19.904-4.896l-1.472-2.464a16 16 0 0 1 4.896-19.904l2.464-1.472 115.04-56.128 57.056 116.992a16 16 0 0 1-27.264 16.48l-1.504-2.464-31.104-63.744A416.16 416.16 0 0 1 512 928.768c-229.76 0-416-186.24-416-416a16 16 0 0 1 16-16zM512 96.768c229.76 0 416 186.24 416 416a16 16 0 1 1-32 0c0-212.064-171.936-384-384-384-157.76 0-297.28 96.032-355.52 238.656l70.496-27.072a16 16 0 0 1 19.424 6.624l1.28 2.56a16 16 0 0 1-6.624 19.424l-2.592 1.28-119.52 45.856L72.32 294.592a16 16 0 0 1 28.608-14.08l1.28 2.592 26.208 68.384A416.16 416.16 0 0 1 512 96.768z" fill="#5D6D7E" p-id="51950"></path><path d="M421.696 602.464a161.344 161.344 0 0 1 43.168 150.208l-1.888 7.36-2.56 9.12a16 16 0 0 1-31.36-5.76l0.544-2.88 2.56-9.12a129.344 129.344 0 0 0-33.088-126.272 130.88 130.88 0 0 0-119.84-35.456l-6.816 1.632-9.6 2.592a16 16 0 0 1-11.072-29.888l2.72-0.992 9.6-2.592a162.88 162.88 0 0 1 157.632 42.048z m158.336-360l2.848 0.48a16 16 0 0 1 11.264 19.616l-2.592 9.6-1.664 6.816a130.88 130.88 0 0 0 35.456 119.84 129.344 129.344 0 0 0 126.304 33.12l9.12-2.56 2.848-0.544a16 16 0 0 1 5.76 31.36l-9.12 2.56-7.36 1.856a161.344 161.344 0 0 1-150.176-43.168 162.88 162.88 0 0 1-42.08-157.6l2.624-9.6 0.96-2.72a16 16 0 0 1 18.656-8.576z" fill="#95A1AF" p-id="51951"></path><path d="M466.688 353.792a164.864 164.864 0 0 1 156.704 43.296l3.776 3.744a164.8 164.8 0 0 1 44.992 149.216l-1.696 7.488a155.2 155.2 0 0 1-113.024 112.928 164.704 164.704 0 0 1-156.32-43.36l-4-4a164.704 164.704 0 0 1-43.328-156.288 155.2 155.2 0 0 1 112.896-113.024z m7.776 31.04a123.2 123.2 0 0 0-89.632 89.728 132.704 132.704 0 0 0 29.888 120.608l5.056 5.312 3.968 4a132.704 132.704 0 0 0 125.952 34.944 123.2 123.2 0 0 0 87.68-82.368l2.048-7.264a132.896 132.896 0 0 0-29.856-120.992l-5.024-5.344-3.776-3.744a132.8 132.8 0 0 0-118.976-36.512l-7.328 1.6z" fill="#27A2DF" p-id="51952"></path><path d="M512 448a64 64 0 1 1 0 128 64 64 0 0 1 0-128z m0 32a32 32 0 1 0 0 64 32 32 0 0 0 0-64z" fill="#27A2DF" p-id="51953"></path></svg>