<svg xmlns="http://www.w3.org/2000/svg" viewBox="0 0 1024 1024" version="1.1"><path d="M237.44 704l3.072-13.76c8.448-0.768 15.04-3.2 19.84-7.36 4.8-4.096 8.16-9.824 10.112-17.12 1.984-7.328 2.976-16.96 2.976-28.992 0-7.296-0.32-15.264-0.864-23.904l-1.952-36.256H146.88l-15.488 27.52a230.176 230.176 0 0 0-16 33.344c-3.392 9.28-5.088 17.504-5.088 24.64 0 15.744 9.472 25.12 28.416 28.096L135.616 704H20.576l3.104-13.76c5.824-0.768 11.296-3.072 16.448-6.912 5.152-3.84 10.656-9.664 16.448-17.44 5.824-7.776 13.984-20.672 24.48-38.656l180.288-311.648h42.464l20.256 313.6c0.928 14.816 2.624 26.4 5.056 34.752 2.432 8.32 5.76 14.528 9.984 18.56 4.224 4.032 10.368 6.592 18.432 7.712l-3.104 13.792H237.44z m-77.92-151.872h109.984l-4.8-90.56c-0.544-12.384-1.024-27.84-1.408-46.4-0.352-18.56-0.544-32-0.544-40.224h-3.104l-100.128 177.184z m262.08 64.416c0 22.688 5.248 39.584 15.744 50.752 10.496 11.168 26.912 16.736 49.216 16.736 17.28 0 32.064-3.2 44.448-9.568 12.384-6.4 21.76-15.424 28.128-27.136 6.4-11.712 9.568-25.632 9.568-41.76a71.36 71.36 0 0 0-6.08-30.24 85.44 85.44 0 0 0-18.24-25.024c-8.16-8-19.936-17.12-35.328-27.424a241.056 241.056 0 0 1-34.56-27.712 110.208 110.208 0 0 1-21.952-30.496 85.472 85.472 0 0 1-8.16-37.696c0-22.144 5.344-41.632 16-58.496 10.72-16.896 25.824-29.92 45.312-39.104 19.52-9.184 41.984-13.76 67.52-13.76 17.216 0 33.216 1.152 47.936 3.52 14.72 2.304 30.976 6.304 48.8 11.936l-15.744 72.256H627.2c-0.768-15.936-3.2-28.448-7.328-37.536-4.128-9.088-10.016-15.616-17.696-19.52-7.68-3.968-17.92-5.92-30.656-5.92-15.584 0-29.248 3.2-41.088 9.568-11.808 6.368-20.8 15.04-26.976 26.016-6.208 10.944-9.28 23.2-9.28 36.704 0 9.728 1.664 18.464 5.056 26.144 3.36 7.68 8.768 15.232 16.16 22.624 7.424 7.424 18.24 16 32.48 25.76 18.4 12.736 32.416 24.128 42.048 34.176 9.664 10.016 16.8 20.64 21.376 31.904 4.608 11.264 6.912 24.288 6.912 39.104 0 22.688-5.504 42.88-16.48 60.608a108.864 108.864 0 0 1-46.4 41.056c-19.968 9.664-42.688 14.496-68.192 14.496a419.2 419.2 0 0 1-55.552-3.936 405.44 405.44 0 0 1-53.856-10.688l16.864-77.344h27.008z m346.848-249.536l-11.52 48.48h-44.224l11.52-48.48h44.224z m-61.76 274.496c-1.824 8.512-3.008 14.72-3.52 18.624a80.256 80.256 0 0 0-0.736 9.856c0 5.024 0.832 8.96 2.528 11.776a15.904 15.904 0 0 0 7.744 6.496c3.52 1.504 9.248 2.656 17.248 3.52l-2.24 12.224h-77.504l37.76-168.512c2.144-9.664 3.648-17.376 4.48-23.104 0.832-5.76 1.248-10.56 1.248-14.4a24.32 24.32 0 0 0-2.112-11.232 13.216 13.216 0 0 0-7.136-6.016c-3.328-1.312-9.088-2.144-17.28-2.496l2.784-13.248 60.992-2.24h14.752l-39.008 178.752zM987.072 704h-78.72l31.744-127.008c1.984-8.16 3.936-17.152 5.856-26.976 1.92-9.856 2.88-18.688 2.88-26.528 0-11.84-2.048-20.32-6.112-25.504-4.096-5.152-10.464-7.744-19.136-7.744-7.008 0-14.528 2.72-22.624 8.128-8.096 5.44-16.544 13.504-25.376 24.256s-16.32 21.664-22.4 32.736c-6.08 11.104-10.752 24.544-14.08 40.384L816.32 704H773.12l37.984-170.752c0.832-3.84 1.984-9.504 3.392-16.992 1.408-7.52 2.112-13.76 2.112-18.752a22.88 22.88 0 0 0-2.112-10.88 12.864 12.864 0 0 0-7.264-5.76c-3.392-1.248-9.184-2.112-17.376-2.624l3.008-13.248 56.768-2.24h14.24l-16.768 64.992 3.008 0.992c16.32-22.976 32.096-40 47.264-51.104 15.168-11.104 30.336-16.64 45.504-16.64 16.16 0 28.416 4.48 36.736 13.376 8.32 8.928 12.48 22.144 12.48 39.648 0 5.984-0.512 12.512-1.6 19.616a225.6 225.6 0 0 1-3.616 18.88l-21.024 88.96c-2.816 12.032-4.224 21.536-4.224 28.544 0 4.992 0.832 8.896 2.496 11.744a15.904 15.904 0 0 0 7.744 6.496c3.52 1.504 9.248 2.656 17.248 3.52l-2.016 12.224z" fill="#5D6D7E" p-id="39820"></path></svg>