<svg xmlns="http://www.w3.org/2000/svg" viewBox="0 0 1024 1024" version="1.1"><path d="M223.36 704l3.104-13.76c8.416-0.768 15.04-3.2 19.84-7.36 4.768-4.096 8.128-9.824 10.112-17.12 1.952-7.328 2.944-16.96 2.944-28.992 0-7.296-0.288-15.264-0.832-23.904l-1.984-36.256H132.8l-15.456 27.52a230.176 230.176 0 0 0-16.032 33.344c-3.392 9.28-5.088 17.504-5.088 24.64 0 15.744 9.472 25.12 28.416 28.096L121.536 704H6.528l3.072-13.76c5.824-0.768 11.296-3.072 16.448-6.912 5.184-3.84 10.656-9.664 16.48-17.44 5.792-7.776 13.952-20.672 24.448-38.656l180.288-311.648h42.464l20.256 313.6c0.96 14.816 2.624 26.4 5.056 34.752 2.432 8.32 5.76 14.528 9.984 18.56 4.224 4.032 10.368 6.592 18.432 7.712l-3.104 13.792H223.36z m-77.92-151.872h109.984l-4.8-90.56c-0.544-12.384-1.024-27.84-1.376-46.4-0.384-18.56-0.576-32-0.576-40.224h-3.104l-100.128 177.184zM502.08 704h-118.4l3.104-13.76c7.296-0.96 12.736-2.4 16.32-4.384a28.032 28.032 0 0 0 9.408-8.864c2.72-3.936 5.472-10.08 8.32-18.4 2.784-8.352 6.08-21.152 9.824-38.4l60.16-275.36h-35.712c-11.616 0-20.896 1.696-27.84 5.088-6.944 3.36-13.856 9.632-20.8 18.816-6.944 9.216-15.36 24.576-25.312 46.144h-27.008l21.12-94.784h293.6l-21.92 99.008h-27.008c0-18.208-0.48-31.84-1.408-40.96-0.96-9.056-2.72-16-5.344-20.8a21.888 21.888 0 0 0-9.696-9.824c-3.84-1.792-10.656-2.688-20.416-2.688h-41.6l-61.056 277.312a248 248 0 0 0-3.52 17.44c-0.64 4.32-1.216 8.864-1.664 13.664-0.48 4.768-0.704 9.024-0.704 12.8 0 5.792 0.96 10.336 2.816 13.632a16.384 16.384 0 0 0 8.416 7.168c3.776 1.504 10.24 2.624 19.424 3.36L502.08 704z m234.24-226.752l22.976-16.512 16 4-38.24 169.76c-2.336 10.016-3.904 17.728-4.736 23.136-0.864 5.44-1.28 9.856-1.28 13.376 0 6.816 1.92 11.776 5.76 14.88 3.84 3.072 11.2 5.024 22.016 5.856l-2.24 12.256h-71.52l15.744-62.72-3.232-1.024c-16 23.328-31.168 40.416-45.504 51.232-14.336 10.848-29.504 16.256-45.504 16.256-18.336 0-32.544-6.912-42.624-20.736-10.08-13.856-15.136-33.28-15.136-58.24 0-16 1.824-32.064 5.504-48.128 3.68-16.096 9.216-31.36 16.64-45.76 7.392-14.4 16.288-27.136 26.624-38.144a119.68 119.68 0 0 1 35.84-26.24 101.44 101.44 0 0 1 44.384-9.76c10.336 0 20.16 1.216 29.504 3.648 9.344 2.4 19.008 6.72 29.024 12.864z m-22.016 74.496c1.504-6.816 2.496-12.736 3.008-17.76a163.84 163.84 0 0 0 0.736-16.224c0-13.024-2.752-22.464-8.256-28.384-5.472-5.92-14.656-8.864-27.488-8.864-7.008 0-13.664 1.12-20 3.36-6.336 2.24-12.736 6.016-19.264 11.264a98.784 98.784 0 0 0-18.624 20.608 153.376 153.376 0 0 0-16.096 31.008 215.68 215.68 0 0 0-11.264 39.136 215.68 215.68 0 0 0-4 40.64c0 17.28 2.368 30.272 7.136 38.848 4.736 8.576 12.704 12.864 23.872 12.864 5.152 0 10.56-1.152 16.128-3.52 5.568-2.304 11.776-6.592 18.624-12.832 6.816-6.272 14.56-15.456 23.232-27.648a177.92 177.92 0 0 0 18.624-33.12c4.576-10.912 8.384-23.776 11.392-38.624l2.24-10.752zM1008.224 704h-78.752l31.744-127.008c2.016-8.16 3.968-17.152 5.888-26.976 1.92-9.856 2.88-18.688 2.88-26.528 0-11.84-2.048-20.32-6.144-25.504-4.064-5.152-10.464-7.744-19.136-7.744-6.976 0-14.528 2.72-22.624 8.128-8.064 5.44-16.512 13.504-25.376 24.256-8.832 10.752-16.288 21.664-22.368 32.736-6.08 11.104-10.784 24.544-14.112 40.384L837.44 704h-43.264l38.016-170.752c0.832-3.84 1.952-9.504 3.36-16.992 1.44-7.52 2.144-13.76 2.144-18.752a22.88 22.88 0 0 0-2.144-10.88 12.864 12.864 0 0 0-7.232-5.76c-3.424-1.248-9.216-2.112-17.376-2.624l3.008-13.248 56.736-2.24h14.24l-16.736 64.992 3.008 0.992c16.32-22.976 32.064-40 47.232-51.104s30.336-16.64 45.504-16.64c16.16 0 28.416 4.48 36.736 13.376 8.32 8.928 12.512 22.144 12.512 39.648 0 5.984-0.544 12.512-1.6 19.616a225.6 225.6 0 0 1-3.648 18.88l-20.992 88.96c-2.848 12.032-4.256 21.536-4.256 28.544 0 4.992 0.832 8.896 2.496 11.744a15.904 15.904 0 0 0 7.744 6.496c3.52 1.504 9.28 2.656 17.28 3.52l-2.016 12.224z" fill="#5D6D7E" p-id="39487"></path></svg>