<svg xmlns="http://www.w3.org/2000/svg" viewBox="0 0 1024 1024" version="1.1"><path d="M672 96a32 32 0 0 1 32 32v128h192a32 32 0 0 1 32 32v608a32 32 0 0 1-32 32H512a128 128 0 0 1-128-128v-224H128a32 32 0 0 1-32-32V128a32 32 0 0 1 32-32h544z" fill="#FFFFFF" p-id="40486"></path><path d="M672 256V128h-160v128l-6.4 0.16A127.488 127.488 0 0 0 427.328 288H320v128h64v32h-64v96h64v32H128a32 32 0 0 1-32-32V128a32 32 0 0 1 32-32h544a32 32 0 0 1 32 32v128h-32zM288 448H128v96h160v-96z m0-160H128v128h160V288z m0-160H128v128h160V128z m192 0h-160v128h160V128z" fill="#ACB4C0" p-id="40487"></path><path d="M896 256a32 32 0 0 1 32 32v608a32 32 0 0 1-28.256 31.776L896 928H480a96 96 0 0 1-96-96V352a96 96 0 0 1 96-96h416z m0 512H480a64 64 0 0 0-4.8 127.84L480 896h416v-64H496a16 16 0 0 1-2.88-31.744L496 800H896v-32z m0-480H480a64 64 0 0 0-63.84 59.2L416 352v408.448A95.648 95.648 0 0 1 480 736h416V288z" fill="#5D6D7E" p-id="40488"></path><path d="M112 640a16 16 0 0 1 15.744 13.12L128 656v128h167.008l-36.672-35.584a16 16 0 0 1-1.856-20.416l1.856-2.24a16 16 0 0 1 20.416-1.824l2.24 1.856 64.416 62.88a16 16 0 0 1 1.856 20.416l-1.856 2.24L280.96 880.32a16 16 0 0 1-24.48-20.384l1.856-2.24L296.704 816H112a16 16 0 0 1-15.744-13.12L96 800v-144a16 16 0 0 1 16-16z" fill="#27A2DF" p-id="40489"></path><path d="M816 512a16 16 0 0 1 2.88 31.744L816 544h-224a16 16 0 0 1-2.88-31.744L592 512h224z m0-128a16 16 0 0 1 2.88 31.744L816 416h-224a16 16 0 0 1-2.88-31.744L592 384h224z" fill="#C49F74" p-id="40490"></path><path d="M496 352a16 16 0 0 1 15.744 13.12l0.256 2.88v288a16 16 0 0 1-31.744 2.88L480 656v-288a16 16 0 0 1 16-16z" fill="#ACB4C0" p-id="40491"></path></svg>