<svg xmlns="http://www.w3.org/2000/svg" viewBox="0 0 1024 1024" version="1.1"><path d="M128 128h768v640H128z" fill="#FFFFFF" p-id="15692"></path><path d="M896 768V128H128v608h544v32h-160v128h160v32H224v-32h256v-128H128a32 32 0 0 1-32-32V128a32 32 0 0 1 32-32h768a32 32 0 0 1 32 32v608a32 32 0 0 1-32 32z" fill="#5D6D7E" p-id="15693"></path><path d="M192 641.056v-32h448v32H192z m0-384v-32h646.784v32H192z" fill="#CDD1D7" p-id="15694"></path><path d="M192.32 414.656h640.352v-96H192.352z" fill="#5D6D7E" p-id="15695"></path><path d="M192.16 546.592l512-2.752-0.32-64-512 2.752z" fill="#ACB4C0" p-id="15696"></path><path d="M738.784 928a16 16 0 1 0 32 0V536.48l-126.4 151.872a16 16 0 1 0 24.576 20.48l69.824-83.904V928z" fill="#30AD98" p-id="15697"></path><path d="M864.672 552.48a16 16 0 1 0-32 0V944l126.4-151.872a16 16 0 1 0-24.576-20.48l-69.824 83.872v-303.04z" fill="#27A2DF" p-id="15698"></path></svg>