<svg xmlns="http://www.w3.org/2000/svg" viewBox="0 0 1024 1024" version="1.1"><path d="M256 192h576v576H256z" fill="#FFFFFF" p-id="14124"></path><path d="M256 192h576v576H256V192z m32 32v512h512V224H288z" fill="#ACB4C0" p-id="14125"></path><path d="M384 512v160h-32V288h384v224H384z m0-191.232V480h320v-159.232H384z" fill="#EF633F" p-id="14126"></path><path d="M128.896 896h783.008a16 16 0 1 1 0 32H96.96L95.68 112.352a16 16 0 0 1 32-0.064L128.864 896zM224 160h64v64H224V160z m576 0h64v64h-64V160zM224 736h64v64H224v-64z m576 0h64v64h-64v-64z" fill="#5D6D7E" p-id="14127"></path></svg>