<svg xmlns="http://www.w3.org/2000/svg" viewBox="0 0 1024 1024" version="1.1"><path d="M204.064 344H192v-96h75.104c124.736-146.656 327.68-193.92 519.616-83.136 219.456 126.72 86.976 323.168-119.232 395.136-91.488 31.936-55.424 150.08-74.944 232-24.512 102.72-112.512 176.544-233.376 106.752-207.616-119.84-251.84-360.064-155.104-554.784z" fill="#FFFFFF" p-id="16037"></path><path d="M267.104 248c124.736-146.656 327.68-193.92 519.616-83.136 219.456 126.72 86.976 323.168-119.232 395.136-91.488 31.936-55.424 150.08-74.944 232-24.512 102.72-112.512 176.544-233.376 106.752-207.616-119.84-251.84-360.064-155.104-554.784h36.032c-104.48 192.448-53.216 418.4 135.04 527.072 90.048 52 163.008 10.976 186.24-86.496 3.648-15.136 5.312-32.48 6.24-59.552 0.16-4.032 0.256-7.552 0.448-14.528 3.2-110.144 17.824-155.872 88.864-180.672 96.288-33.6 173.12-95.328 200.352-159.36 27.616-64.896 2.56-126.4-86.56-177.856-163.84-94.592-341.824-66.88-460.608 55.392H267.104z" fill="#5D6D7E" p-id="16038"></path><path d="M640 760h288v32h-288z" fill="#C49F74" p-id="16039"></path><path d="M192 376v96H160v-256h256v160H192z m0-32h192v-96H192v96z" fill="#EF633F" p-id="16040"></path></svg>