<svg xmlns="http://www.w3.org/2000/svg" viewBox="0 0 1024 1024" version="1.1"><path d="M603.84 106.752l-2.816 31.872a354.208 354.208 0 0 0-88 3.136l-5.12-31.584a386.176 386.176 0 0 1 95.904-3.424z m-189.44 31.232l12.928 29.28c-26.752 11.84-52.16 26.976-75.872 45.216l-19.52-25.344a400.576 400.576 0 0 1 82.464-49.152z m-196.32 180.576c13.568-23.52 28.8-45.376 45.504-65.44l24.608 20.48a435.584 435.584 0 0 0-50.304 75.2l-28.256-14.976c2.72-5.12 5.536-10.24 8.448-15.264z m-44.8 104.224l30.72 9.056a422.72 422.72 0 0 0-16.096 87.776l-31.936-2.4a454.72 454.72 0 0 1 17.312-94.4z m-13.632 191.168l31.616-4.864c4.544 29.44 12.48 57.952 23.744 85.056l-29.536 12.256a399.68 399.68 0 0 1-25.824-92.448z m73.248 175.744l25.6-19.168a367.68 367.68 0 0 0 61.12 63.808l-20.352 24.736a399.68 399.68 0 0 1-66.368-69.376z m148.928 122.272l12.992-29.248c27.904 12.384 53.12 15.52 75.392 10.688l6.784 31.264c-27.968 6.08-59.968 2.88-95.168-12.704z m210.336-118.56c-6.848 28.672-18.656 55.136-34.72 76.8l-25.728-19.04c13.28-17.92 23.36-40.32 29.312-65.184 0.544-2.336 1.088-4.768 1.536-7.296l31.456 5.92a185.792 185.792 0 0 1-1.856 8.8z m8.32-104.672l-31.968-1.408c2.176-49.824 8.64-81.824 27.072-109.76l26.688 17.664c-16.448 24.896-20.256 58.368-21.76 93.504z m103.36-141.76l-12.928-29.28c28.16-12.416 54.4-27.328 77.664-44.096l18.72 25.952c-24.96 18.016-53.12 34.08-83.488 47.424z m153.312-113.664l-25.28-19.552c18.688-24.192 30.24-48.896 34.144-72.672l31.584 5.152c-4.896 29.984-19.104 59.52-40.448 87.072z m-5.024-165.12c-11.936-20.48-30.976-40.256-57.504-58.784l18.336-26.24c30.912 21.632 52.8 44.896 66.816 68.928l-27.648 16.128z" fill="#5D6D7E" p-id="50079"></path><path d="M384 536v96h-32v-256h256v160h-224z m0-32h192v-96h-192v96z" fill="#EF633F" p-id="50080"></path></svg>