<svg xmlns="http://www.w3.org/2000/svg" viewBox="0 0 1024 1024" version="1.1"><path d="M572.16 578.08l253.216 61.408 49.92 152.48a208.128 208.128 0 0 1-20.16 28.8l37.888 40.896-57.152 57.6-45.28-34.272a288.544 288.544 0 0 1-30.72 22.208l-156.384-61.952-51.84-238.784c-23.424 50.88-9.248 127.36-23.104 185.504-24.512 102.72-112.512 176.576-233.376 106.784-217.28-125.44-255.584-382.656-140.736-581.6 114.88-198.976 348.8-278.976 568.288-152.288 219.456 126.72 86.976 323.168-119.232 395.136-12.768 4.48-23.04 10.56-31.36 18.08z" fill="#FFFFFF" p-id="35739"></path><path d="M539.84 106.72l-2.816 31.872a354.208 354.208 0 0 0-88 3.168l-5.12-31.584a386.176 386.176 0 0 1 95.904-3.456z m-189.44 31.264l12.928 29.248c-26.752 11.84-52.16 26.976-75.872 45.216l-19.52-25.344a400.576 400.576 0 0 1 82.464-49.12zM154.08 318.528c13.568-23.52 28.8-45.376 45.504-65.44l24.608 20.48a435.584 435.584 0 0 0-50.304 75.2l-28.256-14.976c2.72-5.12 5.536-10.208 8.448-15.264z m-44.8 104.256l30.72 9.024a422.72 422.72 0 0 0-16.096 87.776l-31.936-2.368a454.72 454.72 0 0 1 17.312-94.432z m-13.632 191.136l31.616-4.864c4.544 29.44 12.48 57.952 23.744 85.056l-29.536 12.288a399.68 399.68 0 0 1-25.824-92.48z m73.248 175.744l25.6-19.136a367.68 367.68 0 0 0 61.12 63.808l-20.352 24.704a399.68 399.68 0 0 1-66.368-69.376z m148.928 122.272l12.992-29.248c27.904 12.384 53.12 15.552 75.392 10.688l6.784 31.296c-27.968 6.08-59.968 2.88-95.168-12.736z m210.336-118.56c-6.848 28.704-18.656 55.136-34.72 76.8l-25.728-19.04c13.28-17.92 23.36-40.32 29.312-65.184 0.544-2.336 1.088-4.768 1.536-7.296l31.456 5.92a185.792 185.792 0 0 1-1.856 8.8z m8.32-104.64l-31.968-1.408c2.176-49.856 8.64-81.856 27.072-109.76l26.688 17.632c-16.448 24.896-20.256 58.368-21.76 93.504z m103.36-141.76l-12.928-29.312c28.16-12.416 54.4-27.328 77.664-44.096l18.72 25.952c-24.96 18.016-53.12 34.08-83.488 47.424z m153.312-113.664l-25.28-19.584c18.688-24.192 30.24-48.896 34.144-72.672l31.584 5.184c-4.896 29.952-19.104 59.488-40.448 87.04z m-5.024-165.12c-11.936-20.48-30.976-40.256-57.504-58.816l18.336-26.24c30.912 21.632 52.8 44.896 66.816 68.928l-27.648 16.128z" fill="#5D6D7E" p-id="35740"></path><path d="M320 504v96H288v-256h256v160h-224z m0-32h192v-96h-192v96z" fill="#EF633F" p-id="35741"></path><path d="M857.248 821.344l46.528 46.528-67.904 67.904-46.528-46.528-34.464 34.464-155.04-65.6-70.72-296.96 296.992 70.72 61.472 159.104-30.336 30.4z m-159.52-111.872a48 48 0 1 1-21.792 23.456l-95.808-95.84 47.104 197.856 120.256 50.88 102.752-102.72-47.904-124.032-203.392-48.416 98.784 98.816zM720 768a16 16 0 1 0 0-32 16 16 0 0 0 0 32z m115.872 122.496l22.624-22.624-22.624-22.624-22.624 22.624 22.624 22.624z" fill="#C49F74" p-id="35742"></path></svg>