<svg xmlns="http://www.w3.org/2000/svg" viewBox="0 0 1024 1024" version="1.1"><path d="M542.08 451.008c47.232 0 83.968-6.56 110.24-19.68 41.248-20.64 61.856-57.76 61.856-111.392 0-53.984-21.92-90.368-65.792-109.12-24.768-10.496-61.504-15.744-110.272-15.744h-199.68v255.936h203.616z m37.664 381.376c68.64 0 117.568-19.872 146.816-59.648 18.368-25.12 27.552-55.488 27.552-91.104 0-60-26.784-100.896-80.416-122.624-28.48-11.648-66.208-17.44-113.056-17.44h-222.208v290.816h241.312zM228.736 101.696H583.68c96.768 0 165.568 28.864 206.432 86.624 24 34.112 36 73.504 36 118.112 0 52.16-14.784 94.88-44.416 128.256-15.36 17.6-37.504 33.76-66.368 48.384 42.368 16.128 74.048 34.304 95.04 54.56 37.12 36 55.68 85.696 55.68 149.056 0 53.248-16.672 101.44-50.048 144.576C766.112 895.744 686.816 928 578.048 928H228.736V101.696z" fill="#5D6D7E" p-id="25867"></path></svg>