<svg xmlns="http://www.w3.org/2000/svg" viewBox="0 0 1024 1024" version="1.1"><path d="M800 370.304l111.616 76.224v259.84A778.304 778.304 0 0 1 800 757.376V832l-231.04 123.232L96 832V192l322.432-92.512L800 192v178.304z" fill="#FFFFFF" p-id="34087"></path><path d="M768 241.056l-192 102.4V448h-32v-107.264L128 232.352v575.36l416 107.776V768h32v147.2l192-102.4V241.056zM800 352h-32v416h32v64l-231.04 123.232L96 832V192l322.432-92.512L800 192v160zM158.976 208l407.04 104.256 184.64-98.56-331.072-80.992L158.976 208z" fill="#5D6D7E" p-id="34088"></path><path d="M765.216 337.088l8.384-4.224 154.016 105.216v277.76l-8.32 4.576c-98.368 53.888-186.88 81.024-265.696 81.024-79.296 0-157.792-27.456-235.2-81.984l-6.816-4.8v-284.544l16.32 0.416 144.448 1.44 192.864-94.88z m130.4 139.872c-88.96 45.568-169.6 68.48-242.016 68.48-70.72 0-140.8-21.824-210.016-65.216v217.76c70.016 47.776 139.936 71.456 210.016 71.456 70.72 0 151.392-24.096 242.016-72.608v-219.84z m-242.016 36.48c67.648 0 144.448-22.08 230.336-66.432l-112.8-77.056-191.52 96.512-101.056-2.592c58.336 33.12 116.64 49.568 175.04 49.568z" fill="#27A2DF" p-id="34089"></path></svg>