<svg xmlns="http://www.w3.org/2000/svg" viewBox="0 0 1024 1024" version="1.1"><path d="M512 806.787879a46.545455 46.545455 0 1 1 0 93.090909 46.545455 46.545455 0 0 1 0-93.090909z m-219.415273-90.887758a46.545455 46.545455 0 1 1-65.815272 65.815273 46.545455 46.545455 0 0 1 65.784242-65.784242z m504.645818 0a46.545455 46.545455 0 1 1-65.784242 65.815273 46.545455 46.545455 0 0 1 65.784242-65.784242zM512 279.272727a217.212121 217.212121 0 1 1 0 434.424243 217.212121 217.212121 0 0 1 0-434.424243z m356.848485 170.666667a46.545455 46.545455 0 1 1 0 93.090909 46.545455 46.545455 0 0 1 0-93.090909z m-713.69697 0a46.545455 46.545455 0 1 1 0 93.090909 46.545455 46.545455 0 0 1 0-93.090909z m137.433212-238.685091a46.545455 46.545455 0 1 1-65.815272 65.784242 46.545455 46.545455 0 0 1 65.784242-65.784242z m504.645818 0a46.545455 46.545455 0 1 1-65.784242 65.784242 46.545455 46.545455 0 0 1 65.784242-65.784242zM512 93.090909a46.545455 46.545455 0 1 1 0 93.090909 46.545455 46.545455 0 0 1 0-93.090909z" fill="#5D6D7E" p-id="40537"></path><path d="M512 496.484848m-186.181818 0a186.181818 186.181818 0 1 0 372.363636 0 186.181818 186.181818 0 1 0-372.363636 0Z" fill="#FFFFFF" p-id="40538"></path></svg>