<svg xmlns="http://www.w3.org/2000/svg" viewBox="0 0 1024 1024" version="1.1"><path d="M128 128h768v608H128z" fill="#FFFFFF" p-id="49730"></path><path d="M544 768v128h256v32H224v-32h256v-128H128a32 32 0 0 1-32-32V128a32 32 0 0 1 32-32h768a32 32 0 0 1 32 32v608a32 32 0 0 1-32 32H544zM128 128v608h768V128H128z" fill="#5D6D7E" p-id="49731"></path><path d="M192 192h224v32H192V192z m0 128h96v32H192v-32z m0 96h64v32H192v-32z m0 96h64v32H192v-32z m0 96h96v32H192v-32z" fill="#ACB4C0" p-id="49732"></path><path d="M512 320h96v32h-96v-32z m-96 96h320v32H416v-32z m-32 96h384v32H384v-32z m64 96h160v32h-160v-32z" fill="#27A2DF" p-id="49733"></path><path d="M735.04 752.16a288 288 0 1 1 43.008-34.912 31.872 31.872 0 0 1 11.2 7.264l135.776 135.744a32 32 0 0 1-45.248 45.28l-135.776-135.776a31.84 31.84 0 0 1-8.96-17.6zM576 736a224 224 0 1 0 0-448 224 224 0 0 0 0 448z" fill="#808FA1" p-id="49734"></path></svg>