<svg xmlns="http://www.w3.org/2000/svg" viewBox="0 0 1024 1024" version="1.1"><path d="M290.24 640H128V128h768v512h-162.24A255.904 255.904 0 0 1 512 768a255.904 255.904 0 0 1-221.76-128z" fill="#FFFFFF" p-id="48788"></path><path d="M160 608V160h320c85.344 64 128 117.344 128 160 0 27.616-82.592 30.496-128 144-15.968 39.904-28 98.56-55.136 144H160z m443.712 0h-57.728A257.76 257.76 0 0 1 544 576c0-42.656 21.344-85.344 64-128v128c0 7.808-1.44 18.464-4.288 32z m261.632 0h-173.056c-30.848-59.2-26.496-112.544 13.056-160 53.312-64 53.312-106.656 0-128l160-160v448z" fill="#ACB4C0" opacity=".3" p-id="48789"></path><path d="M594.112 338.4C568.608 356.16 513.92 379.2 480 464c-15.968 39.904-28 98.56-55.136 144h-79.168a192 192 0 0 1 248.416-269.6z m91.52 255.68c-21.312-49.088-17.632-94.016 11.04-134.784 4.8 16.736 7.328 34.432 7.328 52.704 0 29.376-6.592 57.184-18.368 82.08z m-81.92 13.92h-57.728A257.76 257.76 0 0 1 544 576c0-42.656 21.344-85.344 64-128v128c0 7.808-1.44 18.464-4.288 32z" fill="#30AD98" p-id="48790"></path><path d="M128 128v512h768V128H128z m0-32h768c17.664 0 32 9.92 32 22.144v531.712c0 12.224-14.336 22.144-32 22.144H128c-17.664 0-32-9.92-32-22.144V118.144C96 105.92 110.336 96 128 96z m608.096 656.096a32 32 0 0 1 35.776 6.528l113.152 113.152a32 32 0 1 1-45.248 45.248l-113.152-113.152a31.936 31.936 0 0 1-9.28-25.28l-38.72-38.72a16 16 0 1 1 22.624-22.624l34.848 34.848z" fill="#5D6D7E" p-id="48791"></path><path d="M512 800a288 288 0 1 0 0-576 288 288 0 0 0 0 576z m0-32a256 256 0 1 1 0-512 256 256 0 0 1 0 512z" fill="#808FA1" p-id="48792"></path></svg>