<svg xmlns="http://www.w3.org/2000/svg" viewBox="0 0 1024 1024" version="1.1"><path d="M496 432m-336 0a336 336 0 1 0 672 0 336 336 0 1 0-672 0Z" fill="#FFFFFF" p-id="48689"></path><path d="M348.384 660.512a273.12 273.12 0 0 1-99.68-115.072 555.936 555.936 0 0 1-8.768-42.656s32.864 18.88 59.424 23.424c31.776 5.44 68.576 2.048 68.576 2.048-33.28 59.264-26.592 108.096-19.52 132.256zM240.128 339.52a272.096 272.096 0 0 1 510.752-2.656c-4.48 33.184-22.912 59.744-44.48 65.92-33.76 9.728-27.904 48.448-27.904 48.448 46.496 82.368-3.52 93.28-46.592 174.464-47.04 88.736-55.872-9.696-55.872-9.696 9.376-184.096-76.8-198.656-102.368-203.52-25.664-4.832-46.592-7.296-46.592-38.784s40.768-42.368 55.872-38.72c15.104 3.552 34.912-49.728-18.656-77.536-53.504-27.936-72.128 22.944-83.712 67.84-11.68 44.8-32.64 32.672-37.344-19.424-4.576-52.096-17.376-12.096-27.904 9.696-10.432 21.824-69.856 48.448-74.432 29.12a33.92 33.92 0 0 1-0.768-5.152z" fill="#ACB4C0" p-id="48690"></path><path d="M528 830.752v67.2h128a16 16 0 1 1 0 32h-288a16 16 0 1 1 0-32h128v-65.92c-121.6 0-230.56-54.304-303.904-139.936l-18.144 17.824a16 16 0 1 1-22.656-22.624l66.016-64.8a16 16 0 0 1 22.624 22.624l-24.96 24.512a367.2 367.2 0 0 0 281.024 130.368c203.232 0 368-164.736 368-368 0-112.352-50.368-212.96-129.76-280.48l-26.784 25.824a16 16 0 0 1-22.624-22.624L745.728 96a16 16 0 0 1 22.624 22.656l-10.976 10.56a399.072 399.072 0 0 1 138.624 302.784c0 210.144-162.048 382.464-368 398.752z" fill="#5D6D7E" p-id="48691"></path><path d="M496 768c185.568 0 336-150.4 336-336 0-185.568-150.432-336-336-336-185.6 0-336 150.432-336 336 0 185.6 150.4 336 336 336z m0-32a304 304 0 1 1 0-608 304 304 0 0 1 0 608z" fill="#30AD98" p-id="48692"></path></svg>