<svg xmlns="http://www.w3.org/2000/svg" viewBox="0 0 1024 1024" version="1.1"><path d="M96 96m32 0l768 0q32 0 32 32l0 768q0 32-32 32l-768 0q-32 0-32-32l0-768q0-32 32-32Z" fill="#FFFFFF" p-id="19849"></path><path d="M435.264 128c105.76 147.68 328.896 160.768 355.04 322.72 17.376 107.648 17.376 293.984-114.24 411.2-13.472 11.968-26.752 23.328-39.872 34.08H128V128h307.264z" fill="#FFF3D9" fill-opacity=".3" p-id="19850"></path><path d="M455.168 128c31.168 40.224 72.896 71.552 139.296 110.048 9.92 5.728 43.84 24.992 45.12 25.76 108.288 61.952 153.792 105.536 166.496 184.352 26.336 163.008-4.288 323.2-119.392 425.696-8.544 7.616-17.056 14.976-25.504 22.144h-50.464c17.92-14.208 36.16-29.568 54.688-46.048 105.248-93.696 133.856-243.36 109.12-396.672-10.72-66.24-50.4-104.224-150.816-161.696-1.184-0.704-35.264-20.032-45.28-25.856-79.232-45.92-126.08-82.976-161.92-136.672A315.2 315.2 0 0 0 415.904 128h39.296z" fill="#C49F74" p-id="19851"></path><path d="M272 468c42.656-160 96-213.344 160-160 96 80 272 256 128 384s-256 96-288 0c-21.344-64-21.344-138.656 0-224z" fill="#CAE6F9" p-id="19852"></path><path d="M256.48 464.128l0.064-0.256C301.76 294.4 364.864 231.232 442.24 295.712c68.064 56.704 124.416 117.12 157.824 178.656 46.976 86.56 41.984 166.112-29.44 229.6-139.744 124.192-273.664 113.504-313.792-6.912-22.4-67.104-22.4-144.832-0.352-232.96z m30.72 222.816c31.744 95.264 137.696 103.744 262.176-6.912 59.04-52.48 63.04-115.84 22.56-190.4-31.04-57.184-84.96-114.976-150.176-169.344-50.624-42.176-94.144 1.344-134.272 151.712-20.608 82.496-20.608 154.08-0.32 214.944z" fill="#3B97D3" p-id="19853"></path><path d="M128 96h768a32 32 0 0 1 32 32v768a32 32 0 0 1-32 32H128a32 32 0 0 1-32-32V128a32 32 0 0 1 32-32z m0 32v768h768V128H128z" fill="#5D6D7E" p-id="19854"></path></svg>