<svg xmlns="http://www.w3.org/2000/svg" viewBox="0 0 1024 1024" version="1.1"><path d="M112 112h800v608.64l-256 191.36-544.64-191.36z" fill="#FFFFFF" p-id="20398"></path><path d="M111.36 704.64l800.64-0.864L672 912 120.352 720.64z" fill="#27A2DF" fill-opacity=".5" p-id="20399"></path><path d="M111.36 704.64l800.64-0.32V128z" fill="#27A2DF" fill-opacity=".25" p-id="20400"></path><path d="M96 96l576 832 256-832-256 288z" fill="#27A2DF" fill-opacity=".5" p-id="20401"></path><path d="M918.432 99.2l-102.624 76.48 19.136 25.664L928 131.776l-9.568-32.608zM713.216 252.16l-102.624 76.512 19.136 25.664 102.592-76.512-19.104-25.664z m-205.248 153.024l-102.624 76.512 19.136 25.664 102.624-76.512-19.136-25.664z m-205.216 153.024l-102.624 76.512 19.136 25.664 102.592-76.512-19.104-25.664zM112 736.288l113.28 0.704-0.64-32-113.28-0.704 0.64 32z m209.856 0.704l126.304-0.704-0.64-32-126.272 0.704 0.64 32z m254.56-0.704h128.064l8.736-32.512-137.408 0.512 0.64 32z m255.52 0h70.848v-31.296h-70.848v31.296z" fill="#808FA1" p-id="20402"></path><path d="M112 112h800L668.96 384z" fill="#27A2DF" fill-opacity=".75" p-id="20403"></path><path d="M640.896 883.04L128 142.24v572.288l512.896 168.512zM162.528 128L672 373.024l224-242.4V128H162.56zM896 200l-207.456 674.24L896 721.92V200z m-240 212.128L196.896 180.48 656 848.672V412.128z m32 0.384v354.688L854.72 224l-166.72 188.512zM96 96h832v640.416L672 928 96 736.416V96z" fill="#5A6978" p-id="20404"></path></svg>