<svg xmlns="http://www.w3.org/2000/svg" viewBox="0 0 1024 1024" version="1.1"><path d="M128 128h768v768H128z" fill="#FFFFFF" p-id="47515"></path><path d="M128 96h768a32 32 0 0 1 32 32v768a32 32 0 0 1-32 32H128a32 32 0 0 1-32-32V128a32 32 0 0 1 32-32z m0 32v768h768V128H128z" fill="#5D6D7E" p-id="47516"></path><path d="M470.624 896l128-128h73.504l132.864 128h46.144L704 754.272V640h-118.624l-139.936-134.784L566.624 384h82.752l107.296 107.328 22.656-22.656L672 361.376V278.624L822.624 128h-45.248l-128 128h-82.752l-107.296-107.328-22.656 22.656L544 278.624v82.752l-121.6 121.6L128 199.488V243.84l448 431.552v69.952L425.376 896h45.248zM576 288h64v64h-64V288z m32 384h64v64h-64v-64z" fill="#D5D9DF" p-id="47517"></path><path d="M544 256h128v128h-128V256z m32 32v64h64V288h-64z" fill="#27A2DF" p-id="47518"></path><path d="M576 640h128v128h-128v-128z m32 32v64h64v-64h-64z" fill="#30AD98" p-id="47519"></path></svg>