<svg xmlns="http://www.w3.org/2000/svg" viewBox="0 0 1024 1024" version="1.1"><path d="M170.666667 434.517333l-31.030303-25.693091 133.12-160.488727h402.028606l119.776969-143.42206L884.363636 217.305212l-31.030303 78.196364v433.803636l-170.666666 139.636364H170.666667v-434.424243z m201.696969-310.30303L760.242424 118.846061l-62.060606 98.459151H291.374545l80.989091-93.090909z" fill="#FFFFFF" p-id="37115"></path><path d="M698.181818 851.843879l155.151515-126.293334V263.819636h31.030303v476.470303l-196.173575 159.68194H139.636364V434.424242h31.030303v434.517334h496.484848v-449.939394h31.030303z" fill="#5D6D7E" p-id="37116"></path><path d="M263.757576 232.820364l-147.580121 182.830545h624.67103l-47.414303-182.830545z" fill="#27A2DF" fill-opacity=".3" p-id="37117"></path><path d="M682.666667 232.820364l58.181818 182.830545 160.581818-198.345697-90.980848-112.391757z" fill="#27A2DF" fill-opacity=".5" p-id="37118"></path><path d="M263.757576 403.48703h31.030303v93.090909H263.757576v-93.090909z m0 186.181818h31.030303v93.09091H263.757576v-93.09091z m3.413333 129.95491l24.203636 19.393939-58.150787 72.67297-24.203637-19.362909L267.170909 719.592727z m58.647273 25.196606v-31.030303h93.090909v31.030303h-93.090909z m186.181818 0v-31.030303h93.090909v31.030303h-93.090909z m186.181818 0v-31.030303h93.090909v31.030303h-93.090909z" fill="#808FA1" p-id="37119"></path><path d="M801.792 118.846061l-97.062788 121.328484 45.118061 158.006303L884.363636 217.305212 801.792 118.846061z m-1.334303-25.662061L822.30303 93.090909l96.969697 124.214303-159.030303 217.212121H77.575758l162.816-195.770181L356.848485 93.21503h443.609212z m-125.672727 155.151515H272.756364l-129.055031 155.151515h575.363879l-44.311273-155.151515z m8.471272-31.030303l74.472728-93.090909H371.774061l-74.472728 93.090909h385.954909z" fill="#27A2DF" p-id="37120"></path></svg>