<svg xmlns="http://www.w3.org/2000/svg" viewBox="0 0 1024 1024" version="1.1"><path d="M925.6 605.504l1.184 0.704-0.096 0.448L928 608h-1.568l-31.648 160H96l32-161.792L528 192z" fill="#FFFFFF" p-id="33458"></path><path d="M267.2 624l27.328-32H185.952l-28.48 29.376-0.384 2.624H267.2z m219.328 0v-32h-128v32h128z m172.704 0v-32h-108.704v32h108.704z m188.768 0v-32h-122.656v32H848z" fill="#808FA1" p-id="33459"></path><path d="M865.216 736h3.52l24.512-117.984-350.4-364.384-30.016 115.904L865.216 736z m29.76 30.976L896 768H96l32-161.792L528 192 928 608l-32.992 158.976zM137.088 725.28L480.032 368.64l28.608-110.496L157.568 621.664l-20.48 103.616zM171.2 736H820.8L496 398.176 171.168 736z" fill="#5D6D7E" p-id="33460"></path></svg>