<svg xmlns="http://www.w3.org/2000/svg" viewBox="0 0 1024 1024" version="1.1"><path d="M785.28 302.016l-336-193.984-336 193.984v387.968l336 193.984 78.72-45.44V896a16 16 0 0 0 16 16h352a16 16 0 0 0 16-16V544a16 16 0 0 0-16-16h-110.72V302.016z" fill="#FFFFFF" p-id="28511"></path><path d="M704 736.224h-160v-32h160V544h32v160.224h171.264v32H736V896h-32z" fill="#ACB4C0" p-id="28512"></path><path d="M513.28 865.504l-64 36.96-352-203.232V292.768l352-203.2 352 203.2v244.8h-32v-201.824l-309.6 178.72V859.52l53.6-30.944v36.96z m245.184-560.48L449.28 126.496l-320 184.736v369.536l298.4 172.256V496l330.784-190.976zM608 608v-32h32v32h32v32h-32v32h-32v-32h-32v-32h32z m17.088 183.552l22.624-22.624 22.624 22.624-22.624 22.624 22.624 22.624-22.624 22.624-22.624-22.624-22.624 22.624-22.624-22.624 22.624-22.624-22.624-22.624 22.624-22.624 22.624 22.624zM768 768h96v32h-96v-32z m0 64h96v32h-96v-32z m0-224h96v32h-96v-32z" fill="#5D6D7E" p-id="28513"></path><path d="M544 512h352a32 32 0 0 1 32 32v352a32 32 0 0 1-32 32H544a32 32 0 0 1-32-32V544a32 32 0 0 1 32-32z m0 32v352h352V544H544z" fill="#C49F74" p-id="28514"></path></svg>