<svg xmlns="http://www.w3.org/2000/svg" viewBox="0 0 1024 1024" version="1.1"><path d="M512 512m-400 0a400 400 0 1 0 800 0 400 400 0 1 0-800 0Z" fill="#FFFFFF" p-id="22661"></path><path d="M512 928c229.76 0 416-186.24 416-416S741.76 96 512 96 96 282.24 96 512s186.24 416 416 416z m0-32C299.936 896 128 724.064 128 512S299.936 128 512 128s384 171.936 384 384-171.936 384-384 384z" fill="#5D6D7E" p-id="22662"></path><path d="M352 352m32 0l256 0q32 0 32 32l0 256q0 32-32 32l-256 0q-32 0-32-32l0-256q0-32 32-32Z" fill="#27A2DF" p-id="22663"></path></svg>