<svg xmlns="http://www.w3.org/2000/svg" viewBox="0 0 1024 1024" version="1.1"><path d="M912 912v-768H271.232l-3.776-10.656A80.032 80.032 0 0 0 112 160v672A80 80 0 0 0 192 912h720z" fill="#FFFFFF" p-id="18350"></path><path d="M128 832a64 64 0 0 0 64 64h704V160H288v672H256a64 64 0 1 0-128 0z m0-71.552A95.648 95.648 0 0 1 192 736c24.576 0 47.04 9.248 64 24.448V148.928l-3.648-10.24A64.032 64.032 0 0 0 128 160v600.448zM282.56 128H928v800H192a96 96 0 0 1-96-96V160a96 96 0 0 1 186.56-32z" fill="#5D6D7E" p-id="18351"></path><path d="M448 768c8.512-17.184 19.2-31.52 32-43.04V736h192v-128h32v128h160v32h-160v96h-32v-96h-192v96h-32v-96z m0-189.28V544h-128v-32h128v-51.584l32 19.104V512h54.4l-27.808 28.8-4.96 3.2H480v14.016l-32 20.704zM320 320V288v32z m128-97.344V192h32v61.344l-32-30.688zM516.16 288H672V192h32v45.888L653.088 320h-103.52L516.16 288zM864 288v32-32z m0 224v32-32z" fill="#CDD1D7" p-id="18352"></path><path d="M640 544v-32h224v64h-216.48C469.76 665.088 384 761.632 384 864h-64c0-121.92 86.976-229.056 256-322.656-0.16-46.048-4.32-54.208-22.88-65.184-1.792-1.024-14.24-8.096-18.464-10.624a233.184 233.184 0 0 1-24.512-16.64c-20.032-15.68-38.56-35.84-56.768-63.136-19.84-29.792-61.408-76.512-124-139.136l45.248-45.248c65.408 65.376 109.184 114.656 132 148.864 25.12 37.664 31.776 42.88 79.04 70.848C625.696 444.768 640 474.432 640 544z" fill="#30AD98" p-id="18353"></path><path d="M752 224l112 224-112-64-112 64z" fill="#27A2DF" p-id="18354"></path></svg>