<svg xmlns="http://www.w3.org/2000/svg" viewBox="0 0 1024 1024" version="1.1"><path d="M912 912v-768H271.232l-3.776-10.656A80.032 80.032 0 0 0 112 160v672A80 80 0 0 0 192 912h720z" fill="#FFFFFF" p-id="17710"></path><path d="M128 832a64 64 0 0 0 64 64h704V160H288v672H256a64 64 0 1 0-128 0z m0-71.552A95.648 95.648 0 0 1 192 736c24.576 0 47.04 9.248 64 24.448V148.928l-3.648-10.24A64.032 64.032 0 0 0 128 160v600.448zM282.56 128H928v800H192a96 96 0 0 1-96-96V160a96 96 0 0 1 186.56-32z" fill="#5B6A7A" p-id="17711"></path><path d="M320 259.072c14.496-27.648 30.496-50.016 48-67.072H672c32 32 48 112 128 112 22.72 0 44.192-7.776 64-18.88v516.64c-4.352 5.76-8.512 10.528-12.416 14.24-13.312 12.608-28.32 29.536-44.128 48H605.44c-8.64-20.032-20.928-32-45.408-32-19.744 0-47.072 13.6-78.4 32H320V259.072z" fill="#A6E6DC" p-id="17712"></path><path d="M320 762.112v-84.608A2936.512 2936.512 0 0 1 384 576c21.344-42.656 26.656-80 16-112-16-48-7.744-48 48-96 32.064-27.616 13.312-85.056 32-96 13.792-8.064 66.4 25.216 80 32 32 16 160 80 176 96s-80 112-80 128 17.92 81.76 48.96 64c31.04-17.76 31.04-101.248 63.04-128 32-26.752 83.584-32 83.584 0S832 576 816 608c-16 32-128 192-160 192s16-122.496-112-96c-128 26.496-128 80-176 64-15.776-5.248-33.28-5.344-48-5.888z" fill="#61C9F3" p-id="17713"></path><path d="M464 560c0-32 0-101.504 32-122.752 32-21.248 112-28.96 112 0S592 544 560 592c-32 48-176 112-160 90.24 16-21.76 64-90.24 64-122.24z" fill="#E8B273" p-id="17714"></path><path d="M704.32 446.464L705.504 384H641.6c6.4 31.456 31.2 56.192 62.72 62.464zM641.6 352H704V289.6c-31.36 6.368-56.032 31.04-62.4 62.4zM736 289.6V352h62.4A80.096 80.096 0 0 0 736 289.6zM798.4 384H736v62.4A80.096 80.096 0 0 0 798.4 384z m-78.4 96a112 112 0 1 1 0-224 112 112 0 0 1 0 224z" fill="#3B97D3" p-id="17715"></path></svg>