<svg xmlns="http://www.w3.org/2000/svg" viewBox="0 0 1024 1024" version="1.1"><path d="M224 416h608a32 32 0 0 1 32 32v448a32 32 0 0 1-32 32H224a32 32 0 0 1-32-32V448a32 32 0 0 1 32-32z m144-175.328c-26.496 0-48-38.176-48-64.672 0-26.496 21.504-57.28 48-57.28S416 149.472 416 176c0 26.496-21.504 64.672-48 64.672z m160 0c-26.496 0-48-38.176-48-64.672 0-26.496 21.504-57.28 48-57.28S576 149.472 576 176c0 26.496-21.504 64.672-48 64.672z m160 0c-26.496 0-48-38.176-48-64.672 0-26.496 21.504-57.28 48-57.28S736 149.472 736 176c0 26.496-21.504 64.672-48 64.672z" fill="#FFFFFF" p-id="13090"></path><path d="M256.32 222.72c5.024 0 9.28 1.792 12.736 5.28 3.456 3.52 5.184 7.776 5.184 12.8a17.056 17.056 0 0 1-5.312 12.576 17.344 17.344 0 0 1-12.608 5.248 17.184 17.184 0 0 1-12.704-5.312 17.472 17.472 0 0 1-5.248-12.736c0-4.896 1.728-9.056 5.184-12.512a17.696 17.696 0 0 1 12.768-5.312z m114.048-118.656c19.616 0 35.936 6.4 48.896 19.168 14.592 14.336 21.888 34.08 21.888 59.168 0 7.872-1.088 15.84-3.296 23.936a76.416 76.416 0 0 1-8.96 21.12c-6.624 10.496-15.36 18.496-26.24 23.936-9.632 4.8-20.352 7.232-32.16 7.232-19.616 0-35.872-6.4-48.8-19.264a68.416 68.416 0 0 1-14.4-20.992 92.8 92.8 0 0 1-7.456-37.056c0-17.792 4.064-33.184 12.256-46.176 6.4-10.272 15.168-18.24 26.24-23.84 9.184-4.672 19.84-7.072 32.032-7.232z m0 25.376c-11.584 0-20.8 5.152-27.648 15.424-6.368 9.568-9.536 21.44-9.536 35.552 0 14.144 3.2 26.016 9.536 35.552 6.848 10.272 16.096 15.424 27.776 15.424 11.744 0 20.992-5.12 27.776-15.424 6.336-9.536 9.504-21.184 9.504-34.88 0-14.816-3.168-26.88-9.504-36.224-6.784-10.112-16.064-15.264-27.904-15.424z m159.808-25.376c19.616 0 35.904 6.4 48.896 19.168 14.592 14.336 21.888 34.08 21.888 59.168 0 7.872-1.12 15.84-3.296 23.936a76.416 76.416 0 0 1-8.96 21.12c-6.656 10.496-15.392 18.496-26.24 23.936-9.632 4.8-20.352 7.232-32.16 7.232-19.616 0-35.904-6.4-48.8-19.264a68.416 68.416 0 0 1-14.432-20.992 92.8 92.8 0 0 1-7.424-37.056c0-17.792 4.064-33.184 12.224-46.176 6.4-10.272 15.168-18.24 26.24-23.84 9.216-4.672 19.904-7.072 32.064-7.232z m0 25.376c-11.584 0-20.8 5.152-27.68 15.424-6.336 9.568-9.504 21.44-9.504 35.552 0 14.144 3.2 26.016 9.504 35.552 6.88 10.272 16.128 15.424 27.808 15.424 11.712 0 20.992-5.12 27.776-15.424 6.336-9.536 9.504-21.184 9.504-34.88 0-14.816-3.2-26.88-9.504-36.224-6.784-10.112-16.096-15.264-27.904-15.424z m159.808-25.376c19.616 0 35.904 6.4 48.896 19.168 14.56 14.336 21.856 34.08 21.856 59.168 0 7.872-1.088 15.84-3.264 23.936a76.416 76.416 0 0 1-8.96 21.12c-6.656 10.496-15.392 18.496-26.24 23.936-9.664 4.8-20.384 7.232-32.192 7.232-19.616 0-35.84-6.4-48.768-19.264a68.416 68.416 0 0 1-14.432-20.992 92.8 92.8 0 0 1-7.456-37.056c0-17.792 4.096-33.184 12.256-46.176 6.4-10.272 15.168-18.24 26.24-23.84 9.184-4.672 19.872-7.072 32.064-7.232z m0 25.376c-11.616 0-20.8 5.152-27.68 15.424-6.336 9.568-9.504 21.44-9.504 35.552 0 14.144 3.168 26.016 9.504 35.552 6.848 10.272 16.128 15.424 27.776 15.424 11.744 0 20.992-5.12 27.776-15.424 6.368-9.536 9.536-21.184 9.536-34.88 0-14.816-3.2-26.88-9.536-36.224-6.784-10.112-16.064-15.264-27.872-15.424z" fill="#30AD98" p-id="13091"></path><path d="M224 416h608a32 32 0 0 1 32 32v448a32 32 0 0 1-32 32H224a32 32 0 0 1-32-32V448a32 32 0 0 1 32-32z m0 32v448h608V448H224z" fill="#5D6D7E" p-id="13092"></path><path d="M256 384h541.92v-32H256z" fill="#808FA1" p-id="13093"></path><path d="M320 320h415.232V288H320z" fill="#D5D9DF" p-id="13094"></path><path d="M544 694.144l127.552-142.4a16 16 0 1 1 23.84 21.344l-167.36 186.88-168-186.88a16 16 0 0 1 23.808-21.376L512 694.272V208a16 16 0 1 1 32 0v486.144z" fill="#27A2DF" p-id="13095"></path></svg>