<svg xmlns="http://www.w3.org/2000/svg" viewBox="0 0 1024 1024" version="1.1"><path d="M808.48 640H896v64h-160.32c-49.024 30.08-108.48 46.304-175.68 46.304-19.648 0-45.28 3.2-64 0-158.112-27.328-258.72-154.08-258.72-320 0-185.6 141.056-323.424 326.624-323.424s315.648 137.856 315.648 323.424c0 36.352-4.864 72.8-15.552 105.6-12.928 39.68-31.68 74.56-55.52 104.096zM608 832h288v64h-288v-64z" fill="#FFFFFF" p-id="22806"></path><path d="M608 732.224V736h95.296a334.72 334.72 0 0 1-143.296 32C374.432 768 224 617.568 224 432S374.432 96 560 96 896 246.432 896 432c0 64.544-18.208 124.8-49.728 176h-38.4A302.624 302.624 0 0 0 864 432a304 304 0 1 0-256 300.224z m-283.776-58.272a48 48 0 0 1 0 67.872l-158.4 158.4a48 48 0 0 1-67.872-67.904l158.4-158.4a48 48 0 0 1 67.84 0z" fill="#5D6D7E" p-id="22807"></path><path d="M752 752h32v64h-32z" fill="#F0F0F0" fill-opacity=".5" p-id="22808"></path><path d="M576 608h352v128H576v-128z m32 32v64h288v-64h-288z m-32 160h352v128H576v-128z m32 32v64h288v-64h-288zM569.472 224c32.896 0 59.712 8.608 79.968 26.816 20.256 17.728 30.368 42.016 30.368 72.896 0 25.28-6.592 46.08-18.72 62.24-4.576 5.056-19.232 18.752-43.52 40-9.12 7.072-15.68 15.68-20.256 24.8a73.632 73.632 0 0 0-7.584 33.408v7.072h-58.24v-7.072c0-19.232 3.072-35.936 10.144-49.6 6.592-13.664 26.336-34.944 59.2-64.288l6.08-7.072c9.12-11.136 13.664-23.296 13.664-35.936 0-16.704-5.056-29.888-14.144-39.488-9.6-9.6-23.296-14.176-40.512-14.176-21.76 0-37.44 6.592-47.552 20.256-8.64 11.616-12.672 28.32-12.672 50.112H448c0-37.44 10.624-66.816 32.896-88.096 21.76-21.248 51.136-31.872 88.576-31.872z m-9.12 292.032c11.136 0 20.768 3.52 28.352 10.624 7.072 7.104 11.136 16.192 11.136 27.328s-4.064 20.768-11.136 27.84a41.088 41.088 0 0 1-28.352 10.624c-11.136 0-20.224-4.032-27.328-11.104-8.096-7.104-11.648-16.224-11.648-27.36s3.552-20.224 11.648-27.328c7.104-7.072 16.192-10.624 27.328-10.624z" fill="#30AD98" p-id="22809"></path></svg>