<svg xmlns="http://www.w3.org/2000/svg" viewBox="0 0 1024 1024" version="1.1"><path d="M256 192m256 0l0 0q256 0 256 256l0 224q0 256-256 256l0 0q-256 0-256-256l0-224q0-256 256-256Z" fill="#FFFFFF" p-id="14563"></path><path d="M528 224.576V368h-32V224.576A224 224 0 0 0 288 448v224a224 224 0 0 0 448 0v-224a224 224 0 0 0-208-223.424zM512 192a256 256 0 0 1 256 256v224a256 256 0 1 1-512 0v-224a256 256 0 0 1 256-256z m-149.696 4.32a16 16 0 1 1-20.608-24.48C388.928 131.968 445.92 112 512 112s123.072 19.968 170.304 59.84a16 16 0 0 1-20.608 24.48C620.32 161.408 570.656 144 512 144c-58.656 0-108.32 17.408-149.696 52.32z" fill="#5D6D7E" p-id="14564"></path><path d="M512 352a64 64 0 0 1 64 64v64a64 64 0 1 1-128 0v-64a64 64 0 0 1 64-64z m0 32a32 32 0 0 0-32 32v64a32 32 0 0 0 64 0v-64a32 32 0 0 0-32-32z" fill="#27A2DF" p-id="14565"></path></svg>