<svg xmlns="http://www.w3.org/2000/svg" viewBox="0 0 1024 1024" version="1.1"><path d="M352 800H272A48 48 0 0 1 224 752V672H144A48 48 0 0 1 96 624v-480A48 48 0 0 1 144 96h480A48 48 0 0 1 672 144V224h80A48 48 0 0 1 800 272V352h80a48 48 0 0 1 48 48v480a48 48 0 0 1-48 48h-480a48 48 0 0 1-48-48V800z" fill="#FFFFFF" p-id="21580"></path><path d="M192 640v32H128a32 32 0 0 1-32-32V128a32 32 0 0 1 32-32h512a32 32 0 0 1 32 32v64h-32V128H128v512h64z" fill="#B7BEC8" p-id="21581"></path><path d="M320 768v32H256a32 32 0 0 1-32-32V256a32 32 0 0 1 32-32h512a32 32 0 0 1 32 32v64h-32V256H256v512h64z" fill="#808FA1" p-id="21582"></path><path d="M608 896v32h-224a32 32 0 0 1-32-32V384a32 32 0 0 1 32-32h512a32 32 0 0 1 32 32v224h-32v-224H384v512h224z" fill="#5D6D7E" p-id="21583"></path><path d="M704 672h224a32 32 0 0 1 32 32v224a32 32 0 0 1-32 32h-224a32 32 0 0 1-32-32v-224a32 32 0 0 1 32-32z m162.272 149.024l67.872-67.872-45.248-45.28-67.872 67.904-67.872-67.904-45.28 45.28 67.904 67.84-67.904 67.904 45.28 45.248 67.84-67.84 67.904 67.84 45.248-45.248-67.84-67.872z" fill="#EF633F" p-id="21584"></path></svg>