<svg xmlns="http://www.w3.org/2000/svg" viewBox="0 0 1024 1024" version="1.1"><path d="M112 112m32 0l736 0q32 0 32 32l0 736q0 32-32 32l-736 0q-32 0-32-32l0-736q0-32 32-32Z" fill="#FFFFFF" p-id="18898"></path><path d="M896 289.984c-119.68 54.72-205.024 150.08-256 286.016-49.6 132.32-99.232 238.976-148.864 320H128V128h768v161.984z" fill="#FBEDCE" p-id="18899"></path><path d="M782.656 128c-50.4 123.68-112.256 203.872-185.632 240.576-128 64-117.024 239.424-181.024 330.976C366.496 770.368 282.56 849.12 187.872 896H128V128h654.656z" fill="#EEAA5A" p-id="18900"></path><path d="M507.136 128C493.472 232.192 452.416 306.976 384 352.32 288 416 320 504.224 256 577.6c-31.232 35.84-73.92 62.304-128 79.392V128h379.136z" fill="#EF633F" p-id="18901"></path><path d="M624.224 896c39.904-119.072 130.496-209.984 271.776-272.736V896h-271.776z" fill="#81C3E3" p-id="18902"></path><path d="M128 96h768a32 32 0 0 1 32 32v768a32 32 0 0 1-32 32H128a32 32 0 0 1-32-32V128a32 32 0 0 1 32-32z m0 32v768h768V128H128z" fill="#5D6D7E" p-id="18903"></path></svg>