<svg xmlns="http://www.w3.org/2000/svg" viewBox="0 0 1024 1024" version="1.1"><path d="M341.333333 682.666667m-256 0a256 256 0 1 0 512 0 256 256 0 1 0-512 0Z" fill="#F9E373" p-id="39671"></path><path d="M682.666667 682.666667m-256 0a256 256 0 1 0 512 0 256 256 0 1 0-512 0Z" fill="#4F524D" p-id="39672"></path><path d="M341.333333 341.333333m-256 0a256 256 0 1 0 512 0 256 256 0 1 0-512 0Z" fill="#65C1C2" p-id="39673"></path><path d="M682.666667 341.333333m-256 0a256 256 0 1 0 512 0 256 256 0 1 0-512 0Z" fill="#E3725D" p-id="39674"></path></svg>