<svg xmlns="http://www.w3.org/2000/svg" viewBox="0 0 1024 1024" version="1.1"><path d="M594.624 259.52L274.4 595.36l318.912 316.8 318.88-320.416-317.568-332.16zM160.544 208.384a48 48 0 1 0 0-96 48 48 0 0 0 0 96z" fill="#FFFFFF" p-id="37364"></path><path d="M592 248.64L252.576 588.128 592 927.488l339.424-339.392L592 248.64z m0 45.28l294.144 294.176L592 882.24l-294.144-294.144L592 293.92z" fill="#5D6D7E" p-id="37365"></path><path d="M489.376 527.52l90.496 90.528 22.624-22.624L512 504.896l-22.624 22.624z m-135.776-135.744l90.528 90.496 22.624-22.624-90.528-90.496-22.624 22.624zM217.856 256l90.496 90.496 22.624-22.624-90.496-90.496L217.856 256z m-57.312-31.648a64 64 0 1 0 0-128 64 64 0 0 0 0 128z m0-32a32 32 0 1 1 0-64 32 32 0 0 1 0 64z" fill="#30AD98" p-id="37366"></path></svg>