<svg xmlns="http://www.w3.org/2000/svg" viewBox="0 0 1024 1024" version="1.1"><path d="M368 651.424m-224 0a224 224 0 1 0 448 0 224 224 0 1 0-448 0Z" fill="#E5B248" p-id="52689"></path><path d="M533.312 368m-224 0a224 224 0 1 0 448 0 224 224 0 1 0-448 0Z" fill="#4EB8A3" p-id="52690"></path><path d="M692.16 656m-224 0a224 224 0 1 0 448 0 224 224 0 1 0-448 0Z" fill="#E3684F" p-id="52691"></path><path d="M533.152 435.296A271.552 271.552 0 0 1 640 651.424a271.648 271.648 0 0 1-112.96 220.704 271.52 271.52 0 0 1-106.88-216.128 271.616 271.616 0 0 1 111.36-219.52z" fill="#E5B248" opacity=".502" p-id="52692"></path><path d="M692.16 384a271.04 271.04 0 0 1 110.368 23.296 272.096 272.096 0 0 1-379.52 209.408A272.064 272.064 0 0 1 692.16 384z" fill="#4EB8A3" opacity=".5" p-id="52693"></path><path d="M368 379.424a272.032 272.032 0 0 1 270.08 239.68A272.032 272.032 0 0 1 263.2 400.384 270.368 270.368 0 0 1 368 379.392z" fill="#E5B248" opacity=".5" p-id="52694"></path><path d="M533.184 435.296l4.48 3.52a273.376 273.376 0 0 1 17.792 15.52l-2.304-2.176c2.08 1.92 4.128 3.904 6.144 5.888l-3.84-3.712c2.272 2.176 4.544 4.384 6.752 6.656l-2.912-2.944 4.576 4.672-1.664-1.728c1.92 1.92 3.776 3.904 5.632 5.92l-3.968-4.192c2.688 2.752 5.312 5.6 7.84 8.48l-3.872-4.288c1.824 1.952 3.616 3.968 5.376 5.984l-1.504-1.696c1.92 2.176 3.84 4.384 5.664 6.592l-4.16-4.896a272.896 272.896 0 0 1 22.784 30.144l-1.984-3.008c1.728 2.56 3.392 5.184 5.056 7.808l-3.072-4.8c1.536 2.368 3.04 4.8 4.512 7.2l-1.44-2.4c1.376 2.24 2.752 4.48 4.064 6.784l-2.624-4.384a271.168 271.168 0 0 1 19.648 39.04l-2.112-5.088a269.92 269.92 0 0 1 8.96 23.936l-0.672-2.048c0.768 2.304 1.504 4.64 2.208 6.976l-1.536-4.928a269.824 269.824 0 0 1 10.112 43.584l-0.896-5.728c0.544 3.328 1.056 6.688 1.504 10.048l0.352 3.008-9.376 3.776a269.92 269.92 0 0 1-10.88 3.808l7.648-2.624a269.408 269.408 0 0 1-9.856 3.328l2.24-0.704c-4.064 1.28-8.16 2.56-12.256 3.68l10.016-2.976c-3.968 1.28-8 2.432-12.032 3.52l2.016-0.544c-3.424 0.96-6.88 1.792-10.368 2.624l8.352-2.08c-3.712 0.96-7.424 1.888-11.2 2.72l2.88-0.64c-4.192 0.96-8.416 1.856-12.672 2.624l9.792-1.984a270.528 270.528 0 0 1-12.384 2.432l2.592-0.448a271.36 271.36 0 0 1-12.128 1.92l9.536-1.472a273.6 273.6 0 0 1-36.16 3.808l-10.528 0.192-10.944-0.224a274.656 274.656 0 0 1-11.584-0.704l9.76 0.64a274.432 274.432 0 0 1-10.88-0.736l1.12 0.096a272.928 272.928 0 0 1-11.936-1.248l10.784 1.152a272.736 272.736 0 0 1-12.544-1.376l1.76 0.224a271.744 271.744 0 0 1-9.152-1.28l7.36 1.056a271.424 271.424 0 0 1-12.224-1.92l4.864 0.832c-3.84-0.64-7.68-1.312-11.456-2.08l6.592 1.28a270.624 270.624 0 0 1-9.152-1.824l2.56 0.544a270.24 270.24 0 0 1-12.032-2.784l9.472 2.24a270.144 270.144 0 0 1-12.576-3.04l3.104 0.8a269.92 269.92 0 0 1-9.696-2.656l6.592 1.856a269.824 269.824 0 0 1-31.008-10.304l1.92 0.768a270.24 270.24 0 0 1-9.408-3.904l-1.6-0.704 0.672-4.48-0.672 4.48a271.136 271.136 0 0 1 5.76-28.864l-0.96 3.936c0.704-2.944 1.472-5.92 2.304-8.832l-1.344 4.896c0.768-2.88 1.536-5.76 2.4-8.608l-1.056 3.712c0.736-2.72 1.536-5.44 2.368-8.096l-1.312 4.384c0.768-2.688 1.6-5.344 2.464-8l-1.152 3.616c0.928-2.944 1.92-5.888 2.912-8.8l-1.76 5.184a270.4 270.4 0 0 1 27.2-58.336l-1.92 3.104c1.408-2.336 2.88-4.704 4.384-7.008l-2.464 3.904c1.472-2.4 3.008-4.8 4.576-7.136l-2.112 3.232c1.664-2.56 3.36-5.12 5.12-7.68l-3.008 4.48c1.472-2.24 2.944-4.448 4.48-6.592l-1.472 2.112c1.728-2.528 3.52-5.024 5.376-7.488l-3.904 5.376c1.696-2.4 3.424-4.768 5.184-7.072l-1.28 1.696c1.6-2.144 3.2-4.288 4.896-6.4l-3.616 4.704a273.632 273.632 0 0 1 25.728-29.376l-4.16 4.16c1.952-2.016 3.936-4 5.952-5.952l-1.792 1.76c1.824-1.824 3.712-3.648 5.632-5.44l-3.84 3.68c2.048-1.984 4.128-3.936 6.24-5.888l-2.4 2.24c2.048-1.92 4.16-3.84 6.272-5.696l-3.872 3.456a273.6 273.6 0 0 1 6.016-5.344l-2.144 1.888c1.92-1.728 3.936-3.424 5.92-5.088l-3.776 3.2c2.304-1.952 4.64-3.904 6.976-5.792l-3.2 2.592a273.28 273.28 0 0 1 6.592-5.28l-3.392 2.688a272.32 272.32 0 0 1 11.328-8.64z" fill="#FFFFFF" p-id="52695"></path></svg>