<svg xmlns="http://www.w3.org/2000/svg" viewBox="0 0 1024 1024" version="1.1"><path d="M512 512m-416 0a416 416 0 1 0 832 0 416 416 0 1 0-832 0Z" fill="#FFFFFF" p-id="40632"></path><path d="M862.624 288a414.144 414.144 0 0 1 45.312 96H116.064a414.144 414.144 0 0 1 45.312-96z" fill="#5D6D7E" p-id="40633"></path><path d="M928 512a419.2 419.2 0 0 1-4.896 64H100.896A419.2 419.2 0 0 1 96 512z" fill="#5D6D7E" opacity=".75" p-id="40634"></path><path d="M881.12 704c-5.696 10.976-11.904 21.664-18.528 32H161.408c-6.624-10.336-12.8-21.024-18.56-32z" fill="#5D6D7E" fill-opacity=".5" p-id="40635"></path><path d="M512 96c229.76 0 416 186.24 416 416s-186.24 416-416 416S96 741.76 96 512 282.24 96 512 96z m0 32C299.936 128 128 299.936 128 512s171.936 384 384 384 384-171.936 384-384S724.064 128 512 128z" fill="#5D6D7E" p-id="40636"></path></svg>