<svg xmlns="http://www.w3.org/2000/svg" viewBox="0 0 1024 1024" version="1.1"><path d="M112 112m32 0l736 0q32 0 32 32l0 736q0 32-32 32l-736 0q-32 0-32-32l0-736q0-32 32-32Z" fill="#FFFFFF" p-id="50029"></path><path d="M128 96h768a32 32 0 0 1 32 32v768a32 32 0 0 1-32 32H128a32 32 0 0 1-32-32V128a32 32 0 0 1 32-32z m0 32v768h768V128H128z m0 544h512v32H128v-32z m704 0h64v32h-64v-32z" fill="#5D6D7E" p-id="50030"></path><path d="M192 768h640v96H192z" fill="#C49F74" p-id="50031"></path><path d="M512 768h320v96H512v-96z m224-96c-35.36 0-64-25.6-64-57.152S700.64 512 736 512s64 71.296 64 102.848c0 31.584-28.64 57.152-64 57.152z" fill="#27A2DF" p-id="50032"></path><path d="M477.504 263.52a32 32 0 0 1 7.552 5.632l158.4 158.4a32 32 0 0 1 0 45.248l-158.4 158.4a31.872 31.872 0 0 1-11.84 7.488 32 32 0 0 1-36.384-6.272l-153.248-153.248a31.84 31.84 0 0 1-8.576-15.552 32 32 0 0 1 6.4-36.096l146.112-146.08-92.256-92.256a24 24 0 1 1 33.952-33.92l108.288 108.256z m-27.36 40.544l-120.48 120.48h240.96l-120.48-120.48z m152.512 152.48H310.4l151.136 151.136 146.112-146.112a24.416 24.416 0 0 1-0.64-0.64l-4.384-4.384z" fill="#808FA1" p-id="50033"></path></svg>