<svg xmlns="http://www.w3.org/2000/svg" viewBox="0 0 1024 1024" version="1.1"><path d="M512 160c212.064 0 384 171.936 384 384s-171.936 384-384 384S128 756.064 128 544 299.936 160 512 160z m0 32C317.6 192 160 349.6 160 544s157.6 352 352 352 352-157.6 352-352S706.4 192 512 192z" fill="#5D6D7E" p-id="39720"></path><path d="M512 224m-128 0a128 128 0 1 0 256 0 128 128 0 1 0-256 0Z" fill="#E3725D" p-id="39721"></path><path d="M192 704m-128 0a128 128 0 1 0 256 0 128 128 0 1 0-256 0Z" fill="#A3CA55" p-id="39722"></path><path d="M832 704m-128 0a128 128 0 1 0 256 0 128 128 0 1 0-256 0Z" fill="#65C1C2" p-id="39723"></path></svg>