<svg xmlns="http://www.w3.org/2000/svg" viewBox="0 0 1024 1024" version="1.1"><path d="M128 128h768v768H128z" fill="#FFFFFF" p-id="51559"></path><path d="M672 128v512h224v32h-224v224h-32v-224H128v-32h512V128h32z m-176 640a16 16 0 0 1 2.88 31.744L496 800h-224a16 16 0 0 1-2.88-31.744L272 768h224zM896 768a16 16 0 0 1 2.88 31.744L896 800h-79.456a16 16 0 0 1-2.88-31.744l2.88-0.256H896z m0-416a16 16 0 0 1 2.88 31.744L896 384h-79.456a16 16 0 0 1-2.88-31.744l2.88-0.256H896z" fill="#C6CCD3" p-id="51560"></path><path d="M896 96a32 32 0 0 1 32 32v768a32 32 0 0 1-32 32H128a32 32 0 0 1-32-32V128a32 32 0 0 1 32-32h768z m0 32H128v768h768V128z" fill="#5D6D7E" p-id="51561"></path><path d="M672 96v576H96V128a32 32 0 0 1 32-32h544z m-32 32H128v512h512V128zM288 256v192.576c0 33.6-26.016 61.152-58.976 63.584l-5.6 0.16a62.944 62.944 0 0 1-62.72-58.24l-0.192-4.672h32c0 15.872 11.936 28.928 27.328 30.72l4.416 0.192a31.744 31.744 0 0 0 31.52-28.032L256 448.576V256h32z m160 0v32h-96v59.712l6.176-1.024c43.936-6.72 74.368 5.312 87.296 37.696l1.728 4.768c5.952 18.144 7.936 36.8 5.952 55.808a75.264 75.264 0 0 1-74.88 67.36c-30.56 0-55.648-23.52-58.08-53.504L320 454.08v-5.76h32v5.76c0 14.528 11.776 26.272 26.272 26.272 22.144 0 40.736-16.704 43.04-38.72 1.536-14.528 0.032-28.64-4.512-42.496-7.04-21.408-28.096-28.096-69.696-17.568l-6.752 1.824-20.352 5.76V256h128z m96 0a64 64 0 0 1 64 64v128a64 64 0 1 1-128 0v-128a64 64 0 0 1 64-64z m0 32a32 32 0 0 0-31.776 28.256L512 320v128a32 32 0 0 0 63.776 3.744L576 448v-128a32 32 0 0 0-32-32z" fill="#27A2DF" p-id="51562"></path></svg>