<svg xmlns="http://www.w3.org/2000/svg" viewBox="0 0 1024 1024" version="1.1"><path d="M144 308.384v507.744l128 1.152v94.304l361.376 0.928 246.624-247.136V176h-124.256V112.96H485.12l-91.36 65.504H295.008L144 308.384z" fill="#FFFFFF" p-id="33798"></path><path d="M128 301.056V832l128 1.152v94.4l384 0.96L896 672V160h-124.256V96.96H480l-91.36 65.504H289.088L128 301.024z m32 14.688l140.96-121.28h97.952l91.36-65.504h249.472V192H864v466.752l-237.248 237.76L288 895.616v-94.24l-128-1.12V315.744z" fill="#27A2DF" p-id="33799"></path><path d="M544 290.08v50.816l96-74.24v-31.904l-96 55.328zM539.04 256l55.52-32h-72.224l-48.352 32h65.056zM544 381.376V384h-76.608l-67.04 64h127.84l214.304-168.8h-67.264l0.32 0.384L544 381.344z m0 94.912v314.432l225.28-195.84-1.088-295.2L544 476.288zM354.4 448l-0.192-0.224 63.968-61.024H256.128V704H352v-256h2.4z m-87.808-93.248H416V288h-82.72L266.56 354.752zM224.128 352L320 256h96l96.704-64H672v55.2h128l1.312 362.24L544 833.12 352 832v-96H224.128V352zM384 480v320h128V480h-128z m64-192v64h64V288h-64z" fill="#5D6D7E" p-id="33800"></path></svg>