<svg xmlns="http://www.w3.org/2000/svg" viewBox="0 0 1024 1024" version="1.1"><path d="M444.736 478.08v451.264H892.48v-32H476.736V446.112H165.024V130.24h-32v347.84z" fill="#5D6D7E" p-id="30147"></path><path d="M128 96h32a32 32 0 0 1 32 32v32a32 32 0 0 1-32 32H128a32 32 0 0 1-32-32V128a32 32 0 0 1 32-32z m0 320h32a32 32 0 0 1 32 32v32a32 32 0 0 1-32 32H128a32 32 0 0 1-32-32v-32a32 32 0 0 1 32-32z m736 448h32a32 32 0 0 1 32 32v32a32 32 0 0 1-32 32h-32a32 32 0 0 1-32-32v-32a32 32 0 0 1 32-32zM448 416h32a32 32 0 0 1 32 32v32a32 32 0 0 1-32 32h-32a32 32 0 0 1-32-32v-32a32 32 0 0 1 32-32z" fill="#30AD98" p-id="30148"></path></svg>