<svg xmlns="http://www.w3.org/2000/svg" viewBox="0 0 1024 1024" version="1.1"><path d="M96 192m48 0l736 0q48 0 48 48l0 544q0 48-48 48l-736 0q-48 0-48-48l0-544q0-48 48-48Z" fill="#FFFFFF" p-id="44181"></path><path d="M746.304 800l-68.608-68.064a16 16 0 0 1 21.312-23.872l109.856 106.528-109.28 105.6a16 16 0 0 1-23.168-22.08l69.952-66.112H128a32 32 0 0 1-32-32v-576a32 32 0 0 1 32-32h32v32H128v576h618.304z m-469.824-608H896a32 32 0 0 1 32 32v576a32 32 0 0 1-32 32h-32v-32h32v-576H279.168l67.328 66.784a16 16 0 1 1-21.312 23.872l-109.856-106.56 109.28-105.6a16 16 0 0 1 23.136 22.08L276.48 192z" fill="#5A6978" p-id="44182"></path><path d="M315.488 548.608a144 144 0 1 1 231.776 1.728l-89.824-140.064a32 32 0 0 0-53.952 0.096l-88 138.24z" fill="#3B97D3" opacity=".147" p-id="44183"></path><path d="M608 384h96a64 64 0 0 1 64 64v128a64 64 0 0 1-64 64h-96v-256z" fill="#30AD98" opacity=".147" p-id="44184"></path><path d="M430.4 464.768L294.4 681.92h269.28z" fill="#BC9A72" opacity=".147" p-id="44185"></path><path d="M444.032 438.336l147.488 241.28a16 16 0 0 1-13.664 24.384H282.912a16 16 0 0 1-13.632-24.352l147.456-241.312a16 16 0 0 1 27.296 0z m-132.576 233.664h237.888l-118.944-194.656-118.944 194.656z" fill="#BC9A72" p-id="44186"></path><path d="M548.128 549.152l-19.808-28a112 112 0 1 0-193.92-2.176c-7.168 10.624-13.632 20.32-19.328 29.056a144 144 0 1 1 233.056 1.12z" fill="#27A2DF" p-id="44187"></path><path d="M608 384v32h128v192h-128v32h128a32 32 0 0 0 32-32v-192a32 32 0 0 0-32-32h-128z" fill="#30AD98" p-id="44188"></path></svg>