<svg xmlns="http://www.w3.org/2000/svg" viewBox="0 0 1024 1024" version="1.1"><path d="M412.736 478.08v451.264h509.76v-32h-477.76V446.112H133.024V96h-32v382.08z" fill="#808FA1" p-id="29857"></path><path d="M624 358.016v196.288c51.36-25.504 103.936-20.48 155.456 14.976 46.624 32.096 89.696 33.6 132.544 4.896v-183.488c-52.48 50.624-106.176 52.16-155.488 1.408-43.296-44.576-86.336-55.424-132.512-34.08z" fill="#FFFFFF" p-id="29858"></path><path d="M608 348.16c56-30.304 109.312-19.392 160 32.8 50.688 52.16 104 41.28 160-32.8v234.304c-50.56 37.504-103.104 37.504-157.6 0-54.496-37.536-108.64-37.536-162.4 0V348.16z m32 182.24c49.312-16.416 99.84-7.84 148.544 25.696 38.656 26.592 72.64 29.536 107.456 9.248v-141.248c-50.688 33.792-103.36 28.16-150.944-20.832-35.68-36.736-68.96-47.456-105.056-34.528v161.664z" fill="#EF633F" p-id="29859"></path></svg>