<svg xmlns="http://www.w3.org/2000/svg" viewBox="0 0 1024 1024" version="1.1"><path d="M736 96a192 192 0 1 1-26.4 382.208l-64.64 53.248 314.464 314.464-97.056 97.056-332.864-332.864L196.64 942.976l-97.056-97.056L192 753.536 192 544h128v81.536L529.472 416l114.048 114.048V456.32A192 192 0 0 1 736 96z" fill="#FFFFFF" p-id="39961"></path><path d="M736 96a192 192 0 1 1-26.4 382.208l-64.64 53.248 314.464 314.464-97.056 97.056-332.864-332.864L196.64 942.976l-97.056-97.056L192 753.536 192 544h128v81.536L529.472 416l114.048 114.048V456.32A192 192 0 0 1 736 96z m-206.496 365.28l-384.64 384.64 51.776 51.776 332.864-332.832 332.832 332.832 51.84-51.776-384.64-384.64zM288 576H224v145.536l64-63.968V576zM736 128a160 160 0 0 0-83.52 296.512l6.528 3.776 16.576 9.12v27.36l24.48-20.16 13.888 1.92A160 160 0 1 0 736 128z" fill="#5D6D7E" p-id="39962"></path><path d="M731.712 205.824a21.056 21.056 0 0 0 21.12-21.472 22.208 22.208 0 0 0-5.984-15.136 20.704 20.704 0 0 0-15.136-5.984 21.056 21.056 0 0 0-21.472 21.12 20.48 20.48 0 0 0 6.336 15.136 20.48 20.48 0 0 0 15.136 6.336z m33.44 200.64v-7.04c-7.04-4.576-11.968-9.856-13.728-14.08-1.408-4.576-2.464-13.376-2.464-24.32V238.592l-49.28 12.672v6.688c5.984 4.576 10.208 9.152 12.32 14.08 2.464 6.336 3.872 16.192 3.872 28.48v60.576c0 10.88-1.056 19.712-2.816 24.288-1.76 4.224-6.336 9.504-13.376 14.08v7.04h65.472z" fill="#30AD98" p-id="39963"></path></svg>