<svg xmlns="http://www.w3.org/2000/svg" viewBox="0 0 1024 1024" version="1.1"><path d="M96 96m32 0l768 0q32 0 32 32l0 768q0 32-32 32l-768 0q-32 0-32-32l0-768q0-32 32-32Z" fill="#FFFFFF" p-id="51852"></path><path d="M896 96a32 32 0 0 1 32 32v608h-32V128H128v768h608v32H128a32 32 0 0 1-32-32V128a32 32 0 0 1 32-32h768z m32 736v64a32 32 0 0 1-32 32h-64v-32h64v-64h32z" fill="#5D6D7E" p-id="51853"></path><path d="M224 736a64 64 0 1 1 0 128 64 64 0 0 1 0-128z m320-160a64 64 0 1 1 0 128 64 64 0 0 1 0-128z m272-192a48 48 0 1 1 0 96 48 48 0 0 1 0-96zM288 352a64 64 0 1 1 0 128 64 64 0 0 1 0-128z m352-64a64 64 0 1 1 0 128 64 64 0 0 1 0-128z" fill="#7A8A9B" p-id="51854"></path><path d="M304 576a48 48 0 1 1 0 96 48 48 0 0 1 0-96z m448-416a48 48 0 1 1 0 96 48 48 0 0 1 0-96zM720 480a48 48 0 1 1 0 96 48 48 0 0 1 0-96z m-288-288a48 48 0 1 1 0 96 48 48 0 0 1 0-96z" fill="#95A1AF" p-id="51855"></path><path d="M800 640v128h128v32h-128v128h-32v-128h-128v-32h128v-128h32z" fill="#C49F74" p-id="51856"></path></svg>