<svg xmlns="http://www.w3.org/2000/svg" viewBox="0 0 1024 1024" version="1.1"><path d="M480 128a32 32 0 0 1 32 32v64h384a32 32 0 0 1 32 32v608a32 32 0 0 1-32 32H128a32 32 0 0 1-32-32V256a32 32 0 0 1 32-32h32V160a32 32 0 0 1 32-32h288z" fill="#FFFFFF" p-id="43886"></path><path d="M480 128a32 32 0 0 1 32 32v64h384a32 32 0 0 1 32 32v608a32 32 0 0 1-32 32H128a32 32 0 0 1-32-32V256a32 32 0 0 1 32-32h32V160a32 32 0 0 1 32-32h288z m416 128H512v1.472H160V256H128v608h768V256zM480 160H192v64h288V160z" fill="#5D6D7E" p-id="43887"></path><path d="M583.84 434.048a16 16 0 0 1 7.296 19.2l-1.184 2.592-160 284.096a16 16 0 0 1-29.088-13.088l1.184-2.624 160-284.064a16 16 0 0 1 21.792-6.08z m-204.544 34.624a16 16 0 0 1 1.856 20.416l-1.856 2.24-100.672 100.64 100.672 100.704a16 16 0 0 1 1.856 20.416l-1.856 2.24a16 16 0 0 1-20.416 1.824l-2.208-1.856-112-112a16 16 0 0 1-1.824-20.416l1.824-2.208 112-112a16 16 0 0 1 22.624 0z m249.376 0a16 16 0 0 1 22.656 0l112 112 1.824 2.24a16 16 0 0 1-1.856 20.384l-112 112-2.208 1.856a16 16 0 0 1-20.416-1.856l-1.824-2.24a16 16 0 0 1 1.824-20.384l100.704-100.704-100.704-100.64-1.824-2.24a16 16 0 0 1 1.824-20.416z" fill="#30AD98" p-id="43888"></path></svg>