<svg xmlns="http://www.w3.org/2000/svg" viewBox="0 0 1024 1024" version="1.1"><path d="M112 112m32 0l736 0q32 0 32 32l0 736q0 32-32 32l-736 0q-32 0-32-32l0-736q0-32 32-32Z" fill="#FFFFFF" p-id="43737"></path><path d="M128 96h768a32 32 0 0 1 32 32v768a32 32 0 0 1-32 32H128a32 32 0 0 1-32-32V128a32 32 0 0 1 32-32z m0 32v768h768V128H128z" fill="#5D6D7E" p-id="43738"></path><path d="M288 640v64H224v-64h64z m0-128v64H224v-64h64z m0-128v64H224V384h64z m320 0v64h-64V384h64z" fill="#AEB6C0" p-id="43739"></path><path d="M480 640v64H320v-64h160z m0-128v64H320v-64h160z m0-128v64H320V384h160z m320 0v64h-160V384h160z" fill="#D8D8D8" p-id="43740"></path><path d="M224 224h576v96H224z" fill="#AEB6C0" p-id="43741"></path><path d="M480.096 928H448a240.16 240.16 0 0 1 172.256-214.464 112 112 0 1 1 134.432 0.064 240 240 0 0 1 172.256 214.4h-32.064a208 208 0 0 0-199.36-191.84l-8.32-0.192-7.168 0.16a208 208 0 0 0-199.936 191.904z m207.36-384a80 80 0 0 0-52.48 140.32l4.48 3.616 23.168 17.344 8.736-0.736 7.968-0.416 7.136-0.16 1.728 0.032c5.312 0 10.624 0.192 15.872 0.576l8.416 0.704 22.976-17.28a79.808 79.808 0 0 0 31.808-58.144l0.224-5.856a80 80 0 0 0-80-80z" fill="#30AD98" p-id="43742"></path></svg>