<svg xmlns="http://www.w3.org/2000/svg" viewBox="0 0 1024 1024" version="1.1"><path d="M96 96m32 0l768 0q32 0 32 32l0 768q0 32-32 32l-768 0q-32 0-32-32l0-768q0-32 32-32Z" fill="#FFFFFF" p-id="49382"></path><path d="M440.576 449.728l0.448-3.68 2.016 0.256a310.432 310.432 0 0 0 30.08-53.728c57.344-130.848 157.568-229.248 299.904-294.816l13.408 29.088C651.008 189.216 556.544 281.92 502.4 405.44a344.704 344.704 0 0 1-30.816 55.904c-10.4 115.968 44.32 177.536 169.12 190.048 144.096 14.432 240.192 95.104 286.08 239.776l-30.496 9.664c-42.112-132.672-127.616-204.48-258.784-217.6-125.888-12.64-193.28-74.304-198.784-181.248-68.864 72.256-172.48 112.896-309.664 121.984L126.944 592c148.16-9.792 252.16-57.248 313.632-142.304z" fill="#ACB4C0" p-id="49383"></path><path d="M320 288m-96 0a96 96 0 1 0 192 0 96 96 0 1 0-192 0Z" fill="#C49F74" p-id="49384"></path><path d="M704 608c35.36 0 64-31.36 64-70.016C768 499.328 739.36 384 704 384s-64 115.328-64 154.016C640 576.64 668.64 608 704 608z" fill="#27A2DF" p-id="49385"></path><path d="M408 768H224l112-128 92 105.152L464 704l112 128H352z" fill="#30AD98" p-id="49386"></path><path d="M128 96h768a32 32 0 0 1 32 32v768a32 32 0 0 1-32 32H128a32 32 0 0 1-32-32V128a32 32 0 0 1 32-32z m0 32v768h768V128H128z" fill="#5D6D7E" p-id="49387"></path></svg>