<svg xmlns="http://www.w3.org/2000/svg" viewBox="0 0 1024 1024" version="1.1"><path d="M389.44 224c25.216-73.024 134.976-128 266.56-128s241.344 54.976 266.56 128H928v384h-1.664c-10.752 51.456-72.736 94.752-158.336 115.264V896H128V320h128V224h133.44z" fill="#FFFFFF" p-id="20742"></path><path d="M256 288h96l106.656 128H768a32 32 0 0 1 32 32v448a32 32 0 0 1-32 32H128a32 32 0 0 1-32-32V288h128V192h170.528L384 224H256v64z m0 544h160-160zM128 320v576h640V448H443.68l-106.656-128H128z" fill="#5D6D7E" p-id="20743"></path><path d="M800 683.168c58.656-18.752 96-47.52 96-75.168v-67.712c-22.496 19.776-55.712 36.48-96 48.32V555.2c58.656-18.752 96-47.52 96-75.168v-67.712c-22.496 19.776-55.712 36.48-96 48.32V427.2c58.656-18.752 96-47.52 96-75.168V284.288C850.208 324.608 759.904 352 656 352s-194.208-27.424-240-67.712V352c0 7.104 2.464 14.304 7.136 21.344L384 326.4V224c0-70.72 121.792-128 272-128S928 153.28 928 224v384c0 45.792-51.136 85.984-128 108.608V683.2zM432.544 384.64c11.424 11.296 28.384 22.016 49.664 31.328h-23.552l-26.112-31.36zM656 320c134.688 0 240-49.568 240-96s-105.312-96-240-96S416 177.568 416 224s105.312 96 240 96z" fill="#27A2DF" p-id="20744"></path><path d="M448 608h256v32h-256v-32z m0 96h256v32h-256v-32z" fill="#30AD98" p-id="20745"></path><path d="M192 544h192v192H192v-192z m32 32v128h128v-128H224z" fill="#808FA1" p-id="20746"></path></svg>