<svg xmlns="http://www.w3.org/2000/svg" viewBox="0 0 1024 1024" version="1.1"><path d="M112 112m32 0l736 0q32 0 32 32l0 736q0 32-32 32l-736 0q-32 0-32-32l0-736q0-32 32-32Z" fill="#FFFFFF" p-id="49284"></path><path d="M128 96h768a32 32 0 0 1 32 32v768a32 32 0 0 1-32 32H128a32 32 0 0 1-32-32V128a32 32 0 0 1 32-32z m0 32v768h768V128H128z" fill="#5D6D7E" p-id="49285"></path><path d="M512 480h320a32 32 0 0 1 32 32v320a32 32 0 0 1-32 32H512a32 32 0 0 1-32-32V512a32 32 0 0 1 32-32z m0 32v320h320V512H512z" fill="#27A2DF" p-id="49286"></path><path d="M448 448v256H160v-288h256V160h288v288h-256z m0-256v224h224V192h-224z m-256 256v224h224v-224H192z" fill="#ACB4C0" p-id="49287"></path><path d="M192 160h224a32 32 0 0 1 32 32v224a32 32 0 0 1-32 32H192a32 32 0 0 1-32-32V192a32 32 0 0 1 32-32z m0 32v224h224V192H192z" fill="#30AD98" p-id="49288"></path></svg>