<svg xmlns="http://www.w3.org/2000/svg" viewBox="0 0 1024 1024" version="1.1"><path d="M97.216 354.496C113.536 263.616 292.992 192 512 192c229.76 0 416 78.784 416 176v391.264C928 846.304 741.76 928 512 928S96 846.272 96 759.264V352.32l1.216 2.144z" fill="#FFFFFF" p-id="18108"></path><path d="M640 535.52v-33.28c149.632-22.24 256-80.64 256-134.72 0-36.8-49.28-75.648-128-103.68v-34.56c97.408 32.192 160 82.368 160 138.72 0 1.952-0.064 3.904-0.224 5.856l0.224-0.192v385.6C928 846.304 741.76 928 512 928S96 846.272 96 759.264v-385.6l0.224 0.192A76 76 0 0 1 96 368c0-56.352 62.592-106.528 160-138.752v34.56c-78.72 28.064-128 66.88-128 103.68 0 54.08 106.368 112.512 256 134.72v33.28c-115.84-15.808-209.44-52.544-256-99.68v164.48c62.752 58.56 211.04 104.544 384 104.544s321.248-45.952 384-104.544v-164.48c-46.56 47.136-140.16 83.872-256 99.712zM128 759.264c0 62.08 167.424 139.936 381.344 139.936C723.2 899.2 896 821.344 896 759.264V642.88c-80.96 53.12-226.816 92.352-386.656 92.352-159.872 0-300.384-39.264-381.344-92.352v116.384z" fill="#5D6D7E" p-id="18109"></path><path d="M528 129.056v462.816a16 16 0 1 1-32 0V129.056L363.328 261.76a16 16 0 0 1-22.656-22.624L512 67.808l171.328 171.328a16 16 0 0 1-22.656 22.624L528 129.056z" fill="#3A96D2" p-id="18110"></path></svg>