<svg xmlns="http://www.w3.org/2000/svg" viewBox="0 0 1024 1024" version="1.1"><path d="M518.176 829.12c-22.656 1.92-46.144 2.88-70.176 2.88-194.4 0-352-64.48-352-144 0-21.44 11.456-41.792 32-60.064V277.408C107.456 261.12 96 243.072 96 224c0-70.72 157.6-128 352-128s352 57.28 352 128v277.568a224 224 0 1 1-281.824 327.584z" fill="#FFFFFF" p-id="49040"></path><path d="M522.976 928H160v-32h256v-64.576c-155.84-5.664-282.4-52.16-312.96-112.64L96 704V224v-0.64C96 153.056 253.6 96 448 96s352 57.024 352 127.36v209.024a285.92 285.92 0 0 0-45.504-11.968c5.92-4.192 11.328-8.544 16.16-12.992V274.368C716.32 319.36 592.32 350.784 448 350.784c-144.32 0-268.32-31.424-322.656-76.416v133.024h-0.064C179.616 457.376 303.68 492.32 448 492.32c21.568 0 42.72-0.8 63.232-2.304-10.304 9.28-19.904 19.296-28.8 29.952-11.328 0.416-22.848 0.64-34.432 0.64-134.336 0-254.624-28.96-322.656-76.64v104.96c0 52.736 127.84 107.008 293.76 112.736a289.28 289.28 0 0 0-2.752 28.224c-130.624-4.672-240.704-38.048-291.008-84.32v92.736l4.064 8.064c25.856 51.2 152.512 94.624 304.256 97.216A288.64 288.64 0 0 0 522.944 928zM448 322.464c179.168 0 322.656-51.936 322.656-99.072 0-47.168-143.488-99.072-322.656-99.072S125.344 176.224 125.344 223.36c0 47.136 143.488 99.072 322.656 99.072z" fill="#5D6D7E" p-id="49041"></path><path d="M704 960a256 256 0 1 1 0-512 256 256 0 0 1 0 512z m-128-256a128 128 0 1 1 128 128v32a160 160 0 1 0-160-160h-32l48 64 48-64h-32z" fill="#30AD98" p-id="49042"></path></svg>