<svg xmlns="http://www.w3.org/2000/svg" viewBox="0 0 1024 1024" version="1.1"><path d="M805.312 837.952c-13.824 13.376-32.64 25.76-55.552 36.8-5.664 2.72-11.616-10.624-17.792-8.064-67.104 27.904-162.336 45.312-267.968 45.312C260.768 912 96 847.52 96 768V253.696c0-79.52 164.768-144 368-144S832 174.176 832 253.696v165.024a48 48 0 1 1 0 90.56v261.44a48 48 0 1 1-26.688 67.2z" fill="#FFFFFF" p-id="37509"></path><path d="M612.704 723.104l33.92 25.92c-53.792 12.096-116.16 18.976-182.624 18.976-149.696 0-278.528-34.976-336-85.184V784C128 837.664 277.12 896 464 896c114.72 0 215.2-21.984 275.68-51.36 2.752 10.336 6.912 20.096 12.288 29.024C684.544 906.784 580.608 928 464 928 260.768 928 96 863.52 96 784v-544C96 160.48 260.768 96 464 96S832 160.48 832 240v113.12c-11.296 1.6-22.08 4.928-32 9.664V298.816C742.528 349.024 613.696 384 464 384S185.472 349.024 128 298.816V432C128 485.664 277.12 544 464 544c5.984 0 11.904-0.064 17.792-0.192A112.32 112.32 0 0 0 458.784 576C311.328 575.2 184.832 540.448 128 490.816V624C128 677.664 277.12 736 464 736c24.32 0 48.064-0.96 70.88-2.816a112.352 112.352 0 0 0 77.056-9.92l0.768-0.16z m136.96-43.552C781.568 662.272 800 642.848 800 624v-58.784c9.92 4.736 20.704 8.032 32 9.664v130.24c-11.296 1.6-22.08 4.928-32 9.664v-31.968a184.64 184.64 0 0 1-22.528 16.64l-27.84-19.904z m-126.72-148.224a112.16 112.16 0 0 0-2.528-1.664c2.432-0.448 4.864-0.96 7.264-1.44l-4.768 3.104zM464 352C650.88 352 800 293.664 800 240S650.88 128 464 128 128 186.336 128 240 277.12 352 464 352z" fill="#5D6D7E" p-id="37510"></path><path d="M619.104 570.08l150.528-89.92a80 80 0 1 1 12.8 29.632l-146.912 87.744a79.872 79.872 0 0 1-2.24 58.592l153.504 108.384a80 80 0 1 1-15.36 28.32l-156.608-110.56a80 80 0 1 1 4.288-112.192zM560 672a48 48 0 1 0 0-96 48 48 0 0 0 0 96z m288 192a48 48 0 1 0 0-96 48 48 0 0 0 0 96z m0-352a48 48 0 1 0 0-96 48 48 0 0 0 0 96z" fill="#27A2DF" p-id="37511"></path></svg>