<svg xmlns="http://www.w3.org/2000/svg" viewBox="0 0 1024 1024" version="1.1"><path d="M128 736V267.52h2.336A56.352 56.352 0 0 1 128 251.52c0-79.488 171.936-144 384-144s384 64.512 384 144c0 5.44-0.8 10.784-2.336 16H896V768c0 88.352-171.936 160-384 160S128 824.352 128 736z" fill="#FFFFFF" p-id="22176"></path><path d="M896 534.656a257.536 257.536 0 0 0-32-30.496v-14.816a263.392 263.392 0 0 1-10.208 7.04 256.096 256.096 0 0 0-30.272-18.816A212.64 212.64 0 0 0 864 448v-150.4C804.704 348.48 669.44 384 512 384S219.296 348.48 160 297.632V448h-0.032c58.24 55.584 190.08 94.688 344.192 95.968-7.968 9.92-15.2 20.48-21.664 31.584C347.968 571.52 229.184 539.616 160 489.344V608c0 56.192 123.904 113.92 289.728 125.76 1.28 11.104 3.264 21.952 5.888 32.544C322.816 758.144 212.096 721.664 160 672v104.832l4.448 9.12C193.568 845.696 339.584 896 512 896c7.488 0 14.944-0.096 22.336-0.288 12.832 11.36 26.816 21.44 41.728 30.08-20.832 1.44-42.24 2.208-64.064 2.208-185.76 0-340.736-54.976-376.32-128L128 768V242.048h0.032L128 240C128 160.48 299.936 96 512 96s384 64.48 384 144v294.656zM512 352c195.456 0 352-58.72 352-112S707.456 128 512 128 160 186.72 160 240 316.544 352 512 352z" fill="#5D6D7E" p-id="22177"></path><path d="M704 928a224 224 0 1 1 0-448 224 224 0 0 1 0 448z m0-32a192 192 0 1 0 0-384 192 192 0 0 0 0 384z m89.024-199.104l-74.72-76.448a16.224 16.224 0 0 1 0.032 1.28v224a16 16 0 1 1-32 0v-222.176L614.08 696.96a16 16 0 1 1-22.784-22.432L704 560.064l111.904 114.464a16 16 0 1 1-22.88 22.368z" fill="#27A2DF" p-id="22178"></path></svg>