<svg xmlns="http://www.w3.org/2000/svg" viewBox="0 0 1024 1024" version="1.1"><path d="M97.216 354.496C113.536 263.616 292.992 192 512 192c229.76 0 416 78.784 416 176v391.264C928 846.304 741.76 928 512 928S96 846.272 96 759.264V352.32l1.216 2.144z" fill="#FFFFFF" p-id="18156"></path><path d="M768 506.752v-35.52c78.72-28.064 128-66.88 128-103.712 0-54.08-106.368-112.48-256-134.72v-32.32c167.136 22.848 288 89.216 288 167.52 0 1.952-0.064 3.904-0.224 5.856l0.224-0.192v385.6C928 846.304 741.76 928 512 928S96 846.272 96 759.264v-385.6l0.224 0.192A76 76 0 0 1 96 368c0-78.304 120.864-144.672 288-167.52v32.32c-149.632 22.24-256 80.64-256 134.72 0 36.8 49.28 75.648 128 103.68v35.52c-55.872-18.464-100.288-42.848-128-70.912v164.48c62.752 58.56 211.04 104.544 384 104.544s321.248-45.952 384-104.544v-164.48c-27.712 28.064-72.128 52.48-128 70.944z m-640 252.48c0 62.08 167.424 139.968 381.344 139.968C723.2 899.2 896 821.344 896 759.264V642.88c-80.96 53.12-226.816 92.352-386.656 92.352-159.872 0-300.384-39.264-381.344-92.352v116.384z" fill="#5D6D7E" p-id="18157"></path><path d="M528 546.624V83.808a16 16 0 1 0-32 0v462.816l-132.672-132.704a16 16 0 0 0-22.656 22.624L512 607.872l171.328-171.328a16 16 0 0 0-22.656-22.624L528 546.624z" fill="#3A96D2" p-id="18158"></path></svg>