<svg xmlns="http://www.w3.org/2000/svg" viewBox="0 0 1024 1024" version="1.1"><path d="M112 112m32 0l736 0q32 0 32 32l0 736q0 32-32 32l-736 0q-32 0-32-32l0-736q0-32 32-32Z" fill="#FFFFFF" p-id="15059"></path><path d="M128 96h768a32 32 0 0 1 32 32v768a32 32 0 0 1-32 32H128a32 32 0 0 1-32-32V128a32 32 0 0 1 32-32z m0 32v768h768V128H128z" fill="#5D6D7E" p-id="15060"></path><path d="M293.184 396.8c-28.608 13.024-46.336 31.232-46.336 48.544 0 23.072 31.552 47.808 78.496 59.616v27.232C265.984 518.528 224 484.8 224 445.344 224 406.848 263.968 373.76 320.992 359.52c-12.864 12.352-22.4 25.12-27.84 37.28z m409.824-37.28C760 373.76 800 406.848 800 445.344c0 39.456-41.984 73.184-101.344 86.848v-27.232c46.944-11.808 78.496-36.544 78.496-59.616 0-17.312-17.728-35.52-46.336-48.544-5.44-12.16-14.944-24.96-27.84-37.28z m-4.352 227.744c37.344-8.768 64.96-25.12 74.688-42.304v-76.672l26.656-18.848v153.984l-26.656 15.232v-38.88c-13.824 11.296-32.32 20.736-54.048 27.488a113.504 113.504 0 0 0-20.64-16.192v-3.84z m-393.952 20c-21.728-6.752-40.224-16.192-54.048-27.488v38.88L224 603.232v-154.56l26.656 18.176v78.112c9.728 17.184 37.344 33.536 74.688 42.304v3.808c-8.096 5.056-15.04 10.464-20.64 16.192z m430.208 44.704c26.112-12.8 42.144-30.016 42.24-46.432l7.584-39.936c9.792 12.064 15.264 25.536 15.264 39.776 0 38.336-39.648 71.264-96.32 85.6 16.864-11.584 27.84-24.832 31.232-39.04zM320.32 691.008C263.648 676.576 224 643.68 224 605.344c0-14.336 5.536-27.904 15.456-40.032l7.392 38.24h0.064a25.696 25.696 0 0 0-0.064 1.792c0 16.48 16.032 33.76 42.24 46.592 3.36 14.176 14.368 27.424 31.232 39.04z" fill="#27A2DF" opacity=".397" p-id="15061"></path><path d="M512 512c108.32 0 192-48.832 192-93.344 0-44.48-83.68-93.312-192-93.312s-192 48.8-192 93.312S403.68 512 512 512z m0 37.344c-123.712 0-224-58.528-224-130.688S388.288 288 512 288s224 58.496 224 130.656-100.288 130.688-224 130.688z m192 93.6l10.656-55.936c13.696 16.896 21.344 35.808 21.344 55.744 0 72.128-100.288 130.56-224 130.56s-224-58.432-224-130.56c0-20.096 7.776-39.104 21.632-56.096L320 640.192h0.096a35.968 35.968 0 0 0-0.096 2.56C320 687.232 403.68 736 512 736c108.16 0 191.744-48.64 192-93.088z m-5.344-36.032c-40.128 32.8-108.736 54.4-186.656 54.4s-146.56-21.6-186.656-54.4v54.4L288 639.776v-216.416l37.344 25.44v109.376c20.032 35.424 94.4 68.416 186.656 68.416 92.224 0 166.624-32.992 186.656-68.416v-107.36L736 424.416V640l-37.344 21.344v-54.432z" fill="#27A2DF" p-id="15062"></path></svg>