<svg xmlns="http://www.w3.org/2000/svg" viewBox="0 0 1024 1024" version="1.1"><path d="M112 112m32 0l736 0q32 0 32 32l0 736q0 32-32 32l-736 0q-32 0-32-32l0-736q0-32 32-32Z" fill="#FFFFFF" p-id="17810"></path><path d="M128 96h768a32 32 0 0 1 32 32v768a32 32 0 0 1-32 32H128a32 32 0 0 1-32-32V128a32 32 0 0 1 32-32z m0 32v768h768V128H128z" fill="#5D6D7E" p-id="17811"></path><path d="M782.08 512h-36.896l17.856-32-125.504-223.936H386.464L260.96 480l125.504 224.768H512v32H368L224 480l144-255.936h288L800 480l-17.92 32z" fill="#C49F74" p-id="17812"></path><path d="M160 800h288v32H160z" fill="#30AD98" p-id="17813"></path><path d="M544 608v48c0 20.48 55.04 48 128 48 72.96 0 128-27.52 128-48V608c-29.184 19.424-75.648 32-128 32-52.352 0-98.816-12.576-128-32z m-32-48c0-44.16 71.648-80 160-80s160 35.84 160 80v192c0 44.16-71.648 80-160 80s-160-35.84-160-80v-192z m32 144v48c0 20.48 55.04 48 128 48 72.96 0 128-27.52 128-48V704c-29.184 19.424-75.648 32-128 32-52.352 0-98.816-12.576-128-32z m128-96c72.96 0 128-27.52 128-48S744.96 512 672 512c-72.96 0-128 27.52-128 48s55.04 48 128 48z" fill="#3A96D2" p-id="17814"></path></svg>