<svg xmlns="http://www.w3.org/2000/svg" viewBox="0 0 1024 1024" version="1.1"><path d="M878.848 815.424a192.032 192.032 0 0 1-235.136 102.912c-41.088 6.24-85.44 9.664-131.712 9.664-212.064 0-368-94.272-368-182.624V269.28h2.336a56.352 56.352 0 0 1-2.336-16c0-79.52 155.936-144 368-144s384 64.48 384 144c0 5.408-0.8 10.752-2.336 16H896V768c0 16.512-6.016 32.448-17.152 47.424z" fill="#FFFFFF" p-id="22272"></path><path d="M704 928a224 224 0 1 1 0-448 224 224 0 0 1 0 448z m0-32a192 192 0 1 0 0-384 192 192 0 0 0 0 384z m14.336-94.752l74.72-76.448a16 16 0 0 1 22.88 22.4l-111.904 114.464-112.736-114.432a16 16 0 0 1 22.784-22.464l72.32 73.376V576a16 16 0 1 1 32 0v224c0 0.416 0 0.832-0.064 1.248z" fill="#30AD98" p-id="22273"></path><path d="M896 534.656a257.536 257.536 0 0 0-32-30.496v-14.816a263.392 263.392 0 0 1-10.208 7.04 256.096 256.096 0 0 0-30.272-18.816A212.64 212.64 0 0 0 864 448v-150.4C804.704 348.48 669.44 384 512 384S219.296 348.48 160 297.632V448h-0.032c58.24 55.584 190.08 94.688 344.192 95.968-7.968 9.92-15.2 20.48-21.664 31.584C347.968 571.52 229.184 539.616 160 489.344V608c0 56.192 123.904 113.92 289.728 125.76 1.28 11.104 3.264 21.952 5.888 32.544C322.816 758.144 212.096 721.664 160 672v104.832l4.448 9.12C193.568 845.696 339.584 896 512 896c7.488 0 14.944-0.096 22.336-0.288 12.832 11.36 26.816 21.44 41.728 30.08-20.832 1.44-42.24 2.208-64.064 2.208-185.76 0-340.736-54.976-376.32-128L128 768V242.048h0.032L128 240C128 160.48 299.936 96 512 96s384 64.48 384 144v294.656zM512 352c195.456 0 352-58.72 352-112S707.456 128 512 128 160 186.72 160 240 316.544 352 512 352z" fill="#5D6D7E" p-id="22274"></path></svg>