<svg xmlns="http://www.w3.org/2000/svg" viewBox="0 0 1024 1024" version="1.1"><path d="M112 112m32 0l736 0q32 0 32 32l0 736q0 32-32 32l-736 0q-32 0-32-32l0-736q0-32 32-32Z" fill="#FFFFFF" p-id="15009"></path><path d="M128 96h768a32 32 0 0 1 32 32v768a32 32 0 0 1-32 32H128a32 32 0 0 1-32-32V128a32 32 0 0 1 32-32z m0 32v768h768V128H128z" fill="#5D6D7E" p-id="15010"></path><path d="M733.12 376.32c45.568-12.032 76.032-36.288 76.032-58.976 0-31.808-59.776-66.688-137.152-66.688-53.536 0-98.656 16.704-121.376 37.536-11.168 0.448-22.08 1.728-32.576 3.648C537.056 252.704 598.784 224 672 224c88.352 0 160 41.792 160 93.344 0 39.008-41.024 72.416-99.296 86.4A26.144 26.144 0 0 0 736 390.624c0-4.544-0.992-9.344-2.88-14.336z m2.656 186.656c-1.024-8.544-5.536-16.672-12.928-24.192 51.104-10.88 86.144-36.96 86.304-61.248l7.584-39.936c9.792 12.064 15.264 25.536 15.264 39.776 0 38.304-39.584 71.232-96.224 85.6z m-29.12-74.368v-25.024c49.344-6.432 86.976-25.952 98.688-46.624V340.288L832 321.44v153.984l-26.656 15.232v-38.88c-22.528 18.432-57.664 31.904-98.688 36.832z" fill="#27A2DF" opacity=".3" p-id="15011"></path><path d="M563.936 464c83.2-1.184 146.912-38.912 146.912-73.344 0-34.976-65.76-73.312-150.848-73.312-80.768 0-144.128 34.56-150.368 67.968A251.04 251.04 0 0 0 384.352 384c5.888-53.6 82.272-96 175.648-96C657.216 288 736 333.952 736 390.656c0 53.6-70.368 97.6-160.128 102.272-0.8-9.024-4.928-18.944-11.936-28.96z m6.72 205.12c-5.344-9.152-14.464-17.728-26.656-25.344v-4.224c5.248 0.32 10.56 0.48 16 0.48 84.96 0 150.656-38.24 150.848-73.152l8.384-43.936c10.752 13.28 16.768 28.128 16.768 43.776 0 54.592-73.12 99.2-165.376 102.4zM544 580.96V553.6c5.248 0.288 10.56 0.448 16 0.448 72.48 0 130.912-25.92 146.656-53.76V415.904L736 395.2v169.376l-29.344 16.768V538.56c-31.52 25.792-85.44 42.784-146.656 42.784-5.408 0-10.72-0.128-16-0.416z" fill="#27A2DF" opacity=".6" p-id="15012"></path><path d="M384 576c92.832 0 164.576-41.856 164.576-80S476.8 416 384 416s-164.576 41.856-164.576 80S291.2 576 384 576z m0 32c-106.048 0-192-50.144-192-112S277.952 384 384 384s192 50.144 192 112S490.048 608 384 608z m164.576 80.224l9.12-47.936c11.744 14.496 18.304 30.72 18.304 47.776C576 749.888 490.048 800 384 800s-192-50.112-192-111.936c0-17.216 6.656-33.504 18.56-48.064l8.864 45.888h0.096a30.816 30.816 0 0 0-0.096 2.176C219.424 726.208 291.2 768 384 768c92.704 0 164.352-41.696 164.576-79.808zM544 657.344C509.6 685.472 450.784 704 384 704s-125.6-18.56-160-46.656V704l-32-18.496v-185.504l32 21.792v93.76c17.184 30.336 80.96 58.624 160 58.624s142.816-28.288 160-58.624V523.52l32-22.592v184.768L544 704v-46.656z" fill="#27A2DF" p-id="15013"></path></svg>