<svg xmlns="http://www.w3.org/2000/svg" viewBox="0 0 1024 1024" version="1.1"><path d="M160 733.792V848H128v-175.712c-4.416-10.56-8.384-21.312-11.936-32.288h208.832v32H162.784c60.672 132.192 194.208 224 349.184 224 167.2 0 309.44-106.88 362.144-256h33.792c-53.984 167.136-210.848 288-395.936 288a415.68 415.68 0 0 1-352-194.208z m713.664-351.136C820.544 234.208 678.72 128 512 128c-167.2 0-309.44 106.88-362.144 256H116.064C170.048 216.864 326.912 96 512 96c171.84 0 319.328 104.16 382.784 252.8V224.16h32v190.496h-187.648v-32h134.528z" fill="#5D6D7E" p-id="13434"></path><path d="M512 352h-32v244.384h225.472v-32H512z" fill="#27A2DF" p-id="13435"></path></svg>