<svg xmlns="http://www.w3.org/2000/svg" viewBox="0 0 1024 1024" version="1.1"><path d="M352 460.8a176 176 0 1 1 78.72-232.992L557.888 128H864v499.328l-38.656 41.696L960 864H64l176.832-256H352v-147.2z" fill="#FFFFFF" p-id="33555"></path><path d="M688 608v32H257.6l-132.608 192h774.016l-106.272-153.888 23.264-22.592L960 864H64l176.832-256H688zM352 460.8v35.264A208 208 0 1 1 464.064 224H428.8a176 176 0 1 0-76.8 236.8z" fill="#5D6D7E" p-id="33556"></path><path d="M384 480h288v128h-288z" fill="#D8D8D8" p-id="33557"></path><path d="M704 480l128-140.64V489.6L704 608z" fill="#B6B6B6" p-id="33558"></path><path d="M832 199.136l-128 127.456v109.472l128-130.944V199.136z m0 151.776l-128 130.944v120.512l128-116.512v-134.944z m0 178.208l-128 116.512v107.296l128-138.176v-85.632zM690.016 768H672v-128h-288v128h306.016zM384 608h288v-136 8h-288v128z m0-160h288v20.8V288h25.408l128.512-128h-256.96l-163.136 128H672v32h-288v128z m480 179.328L704 800H352V288h1.952l203.968-160H864v499.328z" fill="#808FA1" p-id="33559"></path><path d="M256 704h64v64H256v-64z m-96 192h64v64H160v-64z m160-32h64v64h-64v-64z m224 32h64v64h-64v-64z m192-32h64v64h-64v-64z m160 32h64v64h-64v-64z" fill="#30AD98" p-id="33560"></path><path d="M272 192l112 160H160z" fill="#27A2DF" p-id="33561"></path></svg>