<svg xmlns="http://www.w3.org/2000/svg" viewBox="0 0 1024 1024" version="1.1"><path d="M128 96h704a32 32 0 0 1 32 32v471.456L599.776 864H128a32 32 0 0 1-32-32V128a32 32 0 0 1 32-32z" fill="#FFFFFF" p-id="39253"></path><path d="M832 96a32 32 0 0 1 32 32v480.064l-32 32.096V128H128v704h512.768l-31.904 32H128a32 32 0 0 1-32-32V128a32 32 0 0 1 32-32h704z" fill="#5D6D7E" p-id="39254"></path><path d="M352 352h0.864a145.6 145.6 0 0 0 0 32.064 96 96 0 1 0 92.384 118.72c9.888 3.744 20.256 6.4 31.04 7.872A128 128 0 1 1 352 352z" fill="#A0ABB7" p-id="39255"></path><path d="M496 224a144 144 0 1 1 0 288 144 144 0 0 1 0-288z m0 32a112 112 0 1 0 0 224 112 112 0 0 0 0-224z" fill="#5D6D7E" p-id="39256"></path><path d="M563.744 533.76l2.24 1.824 169.696 169.728 169.696-169.728 2.24-1.856a16 16 0 0 1 20.384 24.48l-169.696 169.728L928 897.6a16 16 0 0 1-20.416 24.48l-2.24-1.856-169.664-169.696-169.728 169.696-2.208 1.856a16 16 0 0 1-20.416-24.48l169.728-169.696-169.728-169.728a16 16 0 0 1 20.416-24.48z" fill="#C49F74" p-id="39257"></path></svg>