<svg xmlns="http://www.w3.org/2000/svg" viewBox="0 0 1024 1024" version="1.1"><path d="M112 112m32 0l736 0q32 0 32 32l0 736q0 32-32 32l-736 0q-32 0-32-32l0-736q0-32 32-32Z" fill="#FFFFFF" p-id="19399"></path><path d="M128 96h768a32 32 0 0 1 32 32v768a32 32 0 0 1-32 32H128a32 32 0 0 1-32-32V128a32 32 0 0 1 32-32z m0 32v768h768V128H128z" fill="#5D6D7E" p-id="19400"></path><path d="M168.832 717.312V290.688c0-8.448-1.408-14.784-6.336-19.712l-21.12-20.416c-1.408-2.112-4.928-4.224-4.928-6.336s1.408-4.224 4.224-4.224H233.6c71.104 0 113.344 68.288 113.344 250.624C346.944 720.128 304.704 768 233.6 768H140.672c-2.816 0-4.224-2.112-4.224-4.224s3.52-3.52 4.928-6.336l21.12-20.416c4.928-4.928 6.336-11.264 6.336-19.712zM223.04 275.2v457.6h12.672c27.456 0 53.504-26.752 53.504-242.176 0-188.672-26.048-215.424-53.504-215.424H223.04z m238.656 0v206.272h15.488c3.52 0 6.336-1.408 7.744-4.928l24.64-49.28c1.408-2.816 2.112-4.224 4.224-4.224s2.816 1.408 2.816 4.224v149.248c0 2.112-0.704 3.52-2.816 3.52-2.816 0-3.52-2.112-4.928-4.928l-23.936-51.392c-1.408-3.52-4.224-4.928-7.744-4.928h-15.488V732.8h40.128c9.152 0 16.192-4.224 19.008-12.672l38.016-135.168c0.704-2.816 2.816-4.224 4.928-4.224s3.52 2.112 3.52 4.224v176.704c0 3.52-2.112 6.336-5.632 6.336H379.328c-2.816 0-4.224-2.112-4.224-4.224s3.52-3.52 4.928-6.336l21.12-20.416c4.928-4.928 6.336-11.264 6.336-19.712V290.688c0-8.448-1.408-14.784-6.336-19.712l-21.12-20.416c-1.408-2.112-4.928-4.224-4.928-6.336s1.408-4.224 4.224-4.224h182.336c2.816 0 5.632 2.816 5.632 6.336v175.296c0 2.816-1.408 4.224-3.52 4.224-2.816 0-4.928-2.112-5.632-4.928l-38.016-132.352c-2.816-9.152-9.152-13.376-18.304-13.376h-40.128z m135.168-35.2h85.888c6.336 0 9.152 4.928 9.856 11.968l46.464 304.832h1.408l42.944-304.832c0.704-7.04 2.816-11.968 7.744-11.968h88c2.816 0 4.224 2.112 4.224 3.52 0 2.816-2.816 4.928-4.928 7.04l-17.6 20.416c-4.224 5.632-5.632 11.264-5.632 19.712v426.624c0 8.448 1.408 14.08 5.632 19.712l17.6 20.416c2.112 2.112 4.928 4.224 4.928 7.04 0 1.408-1.408 3.52-4.224 3.52h-98.56c-3.52 0-4.224-2.112-4.224-3.52 0-2.816 2.816-4.928 4.928-7.744l14.784-19.008c4.224-5.632 4.928-11.968 4.928-20.416V376.576h-1.408l-53.504 385.792c-0.704 3.52-2.112 5.632-5.632 5.632h-15.488c-2.112 0-2.816-2.816-3.52-6.336L664.448 376.576h-1.408v340.736c0 8.448 0.704 14.784 4.928 20.416l14.784 19.008c2.112 2.816 4.928 4.928 4.928 7.744 0 1.408-1.408 3.52-4.224 3.52h-86.592c-2.816 0-4.224-2.112-4.224-3.52 0-2.816 3.52-4.928 4.928-7.04l17.6-20.416a30.112 30.112 0 0 0 6.336-19.712V290.688a30.112 30.112 0 0 0-6.336-19.712l-17.6-20.416c-1.408-2.112-4.928-4.224-4.928-7.04 0-1.408 1.408-3.52 4.224-3.52z" fill="#27A2DF" p-id="19401"></path></svg>