<svg xmlns="http://www.w3.org/2000/svg" viewBox="0 0 1024 1024" version="1.1"><path d="M512 928c229.76 0 416-186.24 416-416S741.76 96 512 96 96 282.24 96 512s186.24 416 416 416z m0-32C299.936 896 128 724.064 128 512S299.936 128 512 128s384 171.936 384 384-171.936 384-384 384z" fill="#27A2DF" p-id="18849"></path><path d="M512 800a288 288 0 1 0 0-576 288 288 0 0 0 0 576z m0-32a256 256 0 1 1 0-512 256 256 0 0 1 0 512z" fill="#50B4E6" p-id="18850"></path><path d="M512 672a160 160 0 1 0 0-320 160 160 0 0 0 0 320z m0-32a128 128 0 1 1 0-256 128 128 0 0 1 0 256z" fill="#7EC8ED" p-id="18851"></path><path d="M512 576a64 64 0 1 0 0-128 64 64 0 0 0 0 128z m0-32a32 32 0 1 1 0-64 32 32 0 0 1 0 64z" fill="#ABDCF5" p-id="18852"></path></svg>