<svg xmlns="http://www.w3.org/2000/svg" viewBox="0 0 1024 1024" version="1.1"><path d="M112 144m32 0l736 0q32 0 32 32l0 672q0 32-32 32l-736 0q-32 0-32-32l0-672q0-32 32-32Z" fill="#FFFFFF" p-id="15399"></path><path d="M128 128h768a32 32 0 0 1 32 32v704a32 32 0 0 1-32 32H128a32 32 0 0 1-32-32V160a32 32 0 0 1 32-32z m0 32v704h768V160H128z" fill="#5D6D7E" p-id="15400"></path><path d="M288 736v32h96v-32h96v32h64v-32h96v32h64v-32h51.648l72.224 64H832V224H192v576h10.656L288 736zM160 192h704v640H160V192z" fill="#D8D8D8" p-id="15401"></path><path d="M288 672h128v128H288v-128z m32 32v64h64v-64H320z m128-32h128v128h-128v-128z m32 32v64h64v-64h-64z m128-32h128v128h-128v-128z m32 32v64h64v-64h-64z" fill="#27A2DF" p-id="15402"></path></svg>