<svg xmlns="http://www.w3.org/2000/svg" viewBox="0 0 1024 1024" version="1.1"><path d="M832 928H256a96 96 0 0 1-96-96V224a128 128 0 0 1 128-128h544a32 32 0 0 1 32 32v640a64 64 0 1 0 0 128 32 32 0 0 1-32 32z" fill="#FFFFFF" p-id="42466"></path><path d="M832 96a32 32 0 0 1 32 32v640.512a64 64 0 0 0 0 126.976V896a32 32 0 0 1-32 32H255.36A95.36 95.36 0 0 1 160 832.64l0.128-4.288L160 828.48V224a128 128 0 0 1 128-128h544zM272 832a16 16 0 0 1-2.88-31.744L272 800h509.6a96 96 0 0 1 16.768-29.44l1.088-1.28H255.36a63.36 63.36 0 0 0-4.736 126.56L255.36 896h545.28l-2.24-2.528a95.744 95.744 0 0 1-22.08-55.68L776.096 832H272zM832 128H288a96 96 0 0 0-95.84 90.368L192 224v537.376a95.008 95.008 0 0 1 63.36-24.064l575.68-0.032 0.96-0.128V128z" fill="#5D6D7E" p-id="42467"></path><path d="M656 544a16 16 0 0 1 2.88 31.744L656 576h-256a16 16 0 0 1-2.88-31.744L400 544h256z m-64-192a16 16 0 0 1 2.88 31.744L592 384h-192a16 16 0 0 1-2.88-31.744L400 352h192z m160-96a16 16 0 0 1 2.88 31.744L752 288h-352a16 16 0 0 1-2.88-31.744L400 256h352z" fill="#C49F74" p-id="42468"></path><path d="M272.096 191.296a16 16 0 0 1 15.744 13.12l0.256 2.88v448a16 16 0 0 1-31.744 2.88l-0.256-2.88v-448a16 16 0 0 1 16-16z" fill="#D8D8D8" p-id="42469"></path></svg>