<svg xmlns="http://www.w3.org/2000/svg" viewBox="0 0 1024 1024" version="1.1"><path d="M496 400v96h-96v288h96v96h288v-96h96v-288h-96v-96h-288z" fill="#FFFFFF" p-id="32745"></path><path d="M640 384h160v96h96v320h-96v96H480v-96h-96v-160H224v-96H128V224h96V128h320v96h96v160z m0 32v128h-96v96h-128v128h96v96h256v-96h96v-256h-96v-96h-128z" fill="#5D6D7E" p-id="32746"></path><path d="M96 96h96v96H96V96z m480 0h96v96h-96V96zM96 576h96v96H96v-96z m480 0h96v96h-96v-96z m-224-224h96v96h-96v-96z m480 0h96v96h-96v-96zM352 832h96v96h-96v-96z m480 0h96v96h-96v-96z" fill="#27A2DF" p-id="32747"></path></svg>