<svg xmlns="http://www.w3.org/2000/svg" viewBox="0 0 1024 1024" version="1.1"><path d="M112 112m32 0l736 0q32 0 32 32l0 736q0 32-32 32l-736 0q-32 0-32-32l0-736q0-32 32-32Z" fill="#FFFFFF" p-id="14027"></path><path d="M128 288v608h768V128H128v128h768v32H128z m0-192h768a32 32 0 0 1 32 32v768a32 32 0 0 1-32 32H128a32 32 0 0 1-32-32V128a32 32 0 0 1 32-32z m480 96h160v32h-160V192z m192 0h64v32h-64V192z" fill="#5D6D7E" p-id="14028"></path><path d="M384 544h512v32H384v320H352V288h32v256z" fill="#C49F74" p-id="14029"></path></svg>