<svg xmlns="http://www.w3.org/2000/svg" viewBox="0 0 1024 1024" version="1.1"><path d="M96 96m32 0l768 0q32 0 32 32l0 768q0 32-32 32l-768 0q-32 0-32-32l0-768q0-32 32-32Z" fill="#FFFFFF" p-id="14465"></path><path d="M128 96h768a32 32 0 0 1 32 32v768a32 32 0 0 1-32 32H128a32 32 0 0 1-32-32V128a32 32 0 0 1 32-32z m0 32v768h768V128H128z" fill="#5D6D7E" p-id="14466"></path><path d="M768 224h64v64h-64V224z m0 160h64v64h-64V384z m0 160h64v64h-64v-64z m0 160h64v64h-64v-64zM342.624 352L320 374.624 252.128 306.752l22.624-22.624L342.624 352zM576 374.624L553.376 352l67.872-67.872 22.624 22.624L576 374.624z m27.2 194.304l11.872-29.728 89.152 35.648-11.904 29.728-89.12-35.648zM432 672h32v96h-32v-96z m-151.072-132.8l11.84 29.728-89.088 35.648-11.904-29.728L280.96 539.2z" fill="#808FA1" p-id="14467"></path><path d="M448 624l-131.648 69.216 25.12-146.592-106.496-103.84 147.2-21.408L448 288l65.824 133.376 147.2 21.408-106.496 103.84 25.12 146.592L448 624z m-89.152 10.72L448 587.84l89.152 46.88-17.024-99.296 72.128-70.304-99.68-14.496L448 360.32l-44.576 90.304-99.68 14.496 72.128 70.304-17.024 99.296z" fill="#C49F74" p-id="14468"></path></svg>