<svg xmlns="http://www.w3.org/2000/svg" viewBox="0 0 1024 1024" version="1.1"><path d="M182.624 748.32L748.32 182.624l158.4 158.4-565.696 565.696z" fill="#FFFFFF" p-id="27339"></path><path d="M160 748.32L748.32 160l181.024 181.024-588.32 588.32L160 748.32z m45.248 0l135.776 135.744 543.04-543.04-135.744-135.776-543.04 543.04z" fill="#5D6D7E" p-id="27340"></path><path d="M688.384 536.672l-22.4 22.848-68.48-67.2 22.4-22.816 68.48 67.2z m128.128-127.232l-22.56 22.72-68.48-67.968 22.56-22.72 68.48 67.968z m-256.8 256.64l-22.848 22.4-67.36-68.576 22.816-22.4 67.392 68.576z m-126.944 126.944l-22.4 22.848-68.864-67.52 22.4-22.848 68.864 67.52zM112 646.624l-22.624-22.624L639.328 74.048l22.624 22.624L112 646.624z" fill="#C49F74" p-id="27341"></path></svg>