<svg xmlns="http://www.w3.org/2000/svg" viewBox="0 0 1024 1024" version="1.1"><path d="M112 112m32 0l736 0q32 0 32 32l0 736q0 32-32 32l-736 0q-32 0-32-32l0-736q0-32 32-32Z" fill="#FFFFFF" p-id="17659"></path><path d="M608 96h288a32 32 0 0 1 32 32v768a32 32 0 0 1-32 32h-288v-32h288V128h-288V96z" fill="#8B9CAE" p-id="17660"></path><path d="M640 97.664l0.96-0.96L832 287.68l-0.32 0.32H832v640H128a32 32 0 0 1-32-32V128a32 32 0 0 1 32-32h512v1.664z m0 43.296V288h147.04L640 140.96zM608 128H128v768h672V320h-192V128z" fill="#5D6D7E" p-id="17661"></path><path d="M416 544m32 0l224 0q32 0 32 32l0 160q0 32-32 32l-224 0q-32 0-32-32l0-160q0-32 32-32Z" fill="#EF633F" p-id="17662"></path><path d="M608 512h-32v-32H352v160h32v32H352a32 32 0 0 1-32-32v-160a32 32 0 0 1 32-32h224a32 32 0 0 1 32 32v32z" fill="#2FAF9A" p-id="17663"></path><path d="M512 416h-32V384H256v160h32v32H256a32 32 0 0 1-32-32V384a32 32 0 0 1 32-32h224a32 32 0 0 1 32 32v32z" fill="#3B97D3" p-id="17664"></path></svg>