<svg xmlns="http://www.w3.org/2000/svg" viewBox="0 0 1024 1024" version="1.1"><path d="M651.68 578.208h-304.576L305.28 669.92c-6.272 13.216-9.408 23.616-9.408 31.232 0 14.528 3.712 24.608 25.856 30.208v24.512H144.064v-24.512c13.248-2.624 35.008-7.264 41.92-13.856 6.976-6.624 14.912-19.52 23.808-38.688L433.28 158.848c7.936-16.512 11.904-4.352 11.904-14.272 0-15.2-2.72-16.576-21.888-23.2V96h177.632v25.376c-19.488 5.632-24.576 5.856-24.576 19.744 0 9.6 3.136-4.896 9.408 7.328l232.384 521.472c10.88 22.144 20.48 37.248 28.768 45.344 8.256 8.096 19.328 13.44 33.184 16.096v24.512h-203.008v-24.512c21.792-3.616 37.664-13.856 37.664-30.72 0-6.944-3.296-17.184-9.92-30.72l-53.12-91.712z m-25.408-76.16l-116.288-286.304-112.128 286.336h228.416z" fill="#5D6D7E" p-id="41883"></path><path d="M128.64 834.688c135.456-61.184 267.008-63.04 393.408-5.376l11.84 5.568c121.248 59.008 241.504 59.008 362.304 0a16 16 0 1 1 14.08 28.768c-125.76 61.408-252.384 63.264-378.56 5.6l-11.84-5.6c-121.28-59.04-246.88-59.04-378.048 0.192a16 16 0 1 1-13.184-29.152z" fill="#27A2DF" p-id="41884"></path></svg>