<svg xmlns="http://www.w3.org/2000/svg" viewBox="0 0 1024 1024" version="1.1"><path d="M864 576h64v224h-64v96a32 32 0 0 1-32 32H256a32 32 0 0 1-32-32V256a32 32 0 0 1 32-32h435.648L864 387.616V576z" fill="#FFFFFF" p-id="13976"></path><path d="M597.344 128H128v672a32 32 0 0 1-32-32V128a32 32 0 0 1 32-32h435.648l33.696 32z" fill="#ACB4C0" p-id="13977"></path><path d="M661.344 192H192v672a32 32 0 0 1-32-32V192a32 32 0 0 1 32-32h435.648l33.696 32z" fill="#808FA1" p-id="13978"></path><path d="M832 832h32v64a32 32 0 0 1-32 32H256a32 32 0 0 1-32-32V256a32 32 0 0 1 32-32h435.648L864 387.616V608h-32v-192.416h-159.552V256H256v640h576v-64zM704.448 280.256v103.328h108.8l-108.8-103.328z" fill="#5D6D7E" p-id="13979"></path><path d="M320 576h576a32 32 0 0 1 32 32v192a32 32 0 0 1-32 32H320a32 32 0 0 1-32-32v-192a32 32 0 0 1 32-32z m-1.696 224h25.632v-25.6h-25.6v25.6z m68.16 0h136.736v-21.632h-112.512v-62.368h101.376v-21.504h-101.376V638.4h108.256v-21.632h-132.48V800z m256-71.872h53.856v34.112c-5.184 4.608-12.768 8.896-22.752 12.96-10.016 4.032-20.256 6.08-30.752 6.08-12.096 0-23.488-2.688-34.24-8a53.984 53.984 0 0 1-24.576-24.544c-5.632-10.976-8.448-24.64-8.448-40.96 0-13.28 2.336-25.568 7.04-36.896 2.72-6.592 6.56-12.64 11.52-18.144 4.96-5.472 11.52-9.92 19.584-13.312 8.064-3.36 17.664-5.056 28.736-5.056 9.28 0 17.664 1.6 25.28 4.8 7.552 3.2 13.408 7.488 17.472 12.832 4.096 5.344 7.488 12.672 10.24 22.016l21.888-6.016c-3.168-12.32-7.776-22.336-13.888-30.016a59.584 59.584 0 0 0-25.184-17.92 95.84 95.84 0 0 0-35.936-6.432c-18.24 0-34.368 3.744-48.352 11.232a74.4 74.4 0 0 0-32.192 34.464 113.408 113.408 0 0 0-11.2 49.92c0 18.016 3.744 34.304 11.264 48.864 7.488 14.592 18.592 25.728 33.28 33.44 14.72 7.712 31.072 11.584 49.088 11.584 13.344 0 26.336-2.4 39.008-7.2 12.64-4.8 24.96-11.936 36.864-21.44v-68l-77.632 0.128v21.504z m244.096 7.616c-3.328 15.424-9.696 27.04-19.136 34.88-9.408 7.84-20.896 11.744-34.496 11.744-11.168 0-21.536-2.88-31.104-8.64-9.6-5.728-16.64-14.4-21.184-26.048-4.544-11.616-6.816-25.216-6.816-40.8 0-12.096 1.92-23.808 5.76-35.2a53.44 53.44 0 0 1 19.904-27.2c9.472-6.72 21.248-10.112 35.328-10.112 12.256 0 22.4 3.04 30.496 9.12 8.096 6.08 14.24 15.808 18.496 29.12l23.872-5.6c-4.896-16.928-13.632-30.08-26.112-39.36-12.48-9.344-27.936-14.016-46.24-14.016-16.192 0-31.008 3.68-44.48 11.04-13.44 7.392-23.808 18.176-31.104 32.384-7.296 14.208-10.944 30.848-10.944 49.92 0 17.536 3.232 33.92 9.696 49.152 6.464 15.232 15.872 26.88 28.256 34.944 12.384 8.032 28.448 12.064 48.192 12.064 19.072 0 35.2-5.248 48.416-15.68 13.216-10.464 22.368-25.664 27.456-45.568l-24.256-6.144z" fill="#27A2DF" p-id="13980"></path><path d="M320 480h416v32H320v-32z m0-64h256v32h-256v-32z" fill="#ACB4C0" p-id="13981"></path></svg>