<svg xmlns="http://www.w3.org/2000/svg" viewBox="0 0 1024 1024" version="1.1"><path d="M768 736h128V405.984l-41.28 11.328H768v-165.76c0-79.52-143.264-144-320-144S128 172.032 128 251.552v520.192c4.512 77.792 146.048 140.256 320 140.256s315.488-62.464 319.904-140.256L768 736z" fill="#FFFFFF" p-id="42999"></path><path d="M736 384h31.968L768 240C768 160.48 624.736 96 448 96S128 160.48 128 240v547.744C132.512 865.536 274.048 928 448 928s315.488-62.464 319.904-140.256V736H736v48.96l-0.064 0.96C732.832 840.512 606.528 896 448 896s-284.832-55.488-287.936-110.08L160 784.96V302.848C211.84 350.88 321.344 384 448 384s236.16-33.12 288-81.152V384z m-288-32c-161.056 0-288-57.12-288-112S286.944 128 448 128c161.056 0 288 57.12 288 112S609.056 352 448 352z m-288 272v62.848c33.216 30.784 90.112 55.424 160 69.184v-32.736c-95.456-19.872-160-60.16-160-99.296z m0-192v62.848c33.216 30.784 90.112 55.424 160 69.184v-32.736c-95.456-19.872-160-60.16-160-99.296z" fill="#5A6978" p-id="43000"></path><path d="M705.504 416.224v32H320v287.584h543.904v-304.32l-35.264 43.648a16 16 0 0 1-24.896-20.096l78.464-97.12 81.184 96.896a16 16 0 1 1-24.512 20.544l-42.976-51.264v311.68a32 32 0 0 1-32 32H320a32 32 0 0 1-32-32v-287.552a32 32 0 0 1 32-32h385.504z" fill="#3B97D3" p-id="43001"></path><path d="M505.952 672v-27.008h-89.6v-43.648h80.512v-27.008h-80.48v-35.552h86.496v-27.136H384V672h121.952z m59.84 0v-60.48h21.12c14.624 0 25.824-0.768 33.568-2.304 5.664-1.248 11.264-3.776 16.768-7.584 5.504-3.84 10.048-9.12 13.632-15.808 3.552-6.72 5.344-15.008 5.344-24.832 0-12.768-3.104-23.168-9.28-31.232a42.048 42.048 0 0 0-23.072-15.68c-5.984-1.6-18.816-2.432-38.528-2.432H533.44V672h32.384z m17.696-87.712h-17.696v-45.504h15.616c11.68 0 19.456 0.352 23.296 1.088a22.4 22.4 0 0 1 13.024 7.104c3.424 3.808 5.12 8.64 5.12 14.432a21.568 21.568 0 0 1-3.648 12.48 21.248 21.248 0 0 1-10.112 7.872c-4.288 1.696-12.8 2.528-25.6 2.528z m157.28 90.56c13.952 0 25.6-1.952 34.88-5.856a47.232 47.232 0 0 0 29.312-43.68c0-10.144-2.112-18.656-6.4-25.568a45.024 45.024 0 0 0-17.696-16.288c-7.552-3.968-19.2-7.808-34.944-11.52-15.744-3.744-25.664-7.296-29.76-10.72a12.32 12.32 0 0 1-4.8-9.76c0-4.16 1.728-7.456 5.12-9.92 5.344-3.872 12.704-5.824 22.112-5.824 9.12 0 15.968 1.824 20.48 5.44 4.576 3.584 7.552 9.504 8.96 17.76l32.352-1.44c-0.512-14.72-5.856-26.496-16-35.328-10.176-8.8-25.344-13.216-45.44-13.216-12.352 0-22.848 1.856-31.584 5.568-8.704 3.712-15.36 9.152-20 16.256-4.64 7.104-6.944 14.72-6.944 22.912 0 12.672 4.928 23.424 14.752 32.256 7.008 6.272 19.2 11.552 36.544 15.872 13.472 3.328 22.112 5.664 25.92 6.976 5.536 1.984 9.408 4.288 11.648 6.944 2.24 2.688 3.328 5.888 3.328 9.696 0 5.92-2.656 11.072-7.936 15.488-5.28 4.384-13.12 6.592-23.552 6.592-9.856 0-17.664-2.464-23.456-7.424-5.824-4.96-9.664-12.736-11.552-23.296l-31.488 3.072c2.112 17.92 8.576 31.584 19.456 40.96 10.88 9.344 26.432 14.048 46.72 14.048z" fill="#5A6978" p-id="43002"></path></svg>