<svg xmlns="http://www.w3.org/2000/svg" viewBox="0 0 1024 1024" version="1.1"><path d="M490.08 736l-263.36 170.432 82.304-293.216L64 405.536l326.4-10.752L490.08 96l99.648 298.784 326.4 10.784-245.024 207.68 82.304 293.184z" fill="#FFFFFF" p-id="15302"></path><path d="M490.08 736l-263.36 170.432 82.304-293.216L64 405.536l326.4-10.752L490.08 96l99.648 298.784 326.4 10.784-245.024 207.68 82.304 293.184L490.048 736z m-209.664 97.6l209.664-135.712 209.632 135.68-64.96-231.488 197.408-167.264-265.728-8.8-76.352-228.896-76.352 228.896-265.728 8.8 197.408 167.264-64.96 231.488z" fill="#EBC6BC" p-id="15303"></path><path d="M490.08 773.76l30.016 154.208h-58.816l28.8-154.24z m-177.6-450.688L193.92 220l46.336-36.224 72.256 139.296z m328.32 0l72.224-139.296 46.368 36.224-118.624 103.04z m-390.08 309.824l-111.744 110.112-32.896-48.768 144.64-61.344z m511.456 0l144.64 61.344-32.864 48.768-111.776-110.112z" fill="#EF633F" p-id="15304"></path></svg>