<svg xmlns="http://www.w3.org/2000/svg" viewBox="0 0 1024 1024" version="1.1"><path d="M821.12 657.952h62.24a32 32 0 0 1 32 32v195.52a32 32 0 0 1-32 32H142.88a32 32 0 0 1-32-32v-195.52a32 32 0 0 1 32-32H210.24V128h610.88v529.952z" fill="#FFFFFF" p-id="43097"></path><path d="M296 640L416 736h192l120-96H896a32 32 0 0 1 32 32v224a32 32 0 0 1-32 32H128a32 32 0 0 1-32-32v-224a32 32 0 0 1 32-32h168z m-11.2 32H128v224h768v-224h-156.8l-120 96h-214.4L284.8 672z" fill="#5D6D7E" p-id="43098"></path><path d="M800 640V128H224v512H192V128a32 32 0 0 1 32-32h576a32 32 0 0 1 32 32v512h-32z" fill="#808FA1" p-id="43099"></path><path d="M528 263.84v359.744a16 16 0 1 1-32 0V265.056l-68.288 73.568a16 16 0 0 1-23.424-21.76l107.84-116.256 110.08 116.128a16 16 0 1 1-23.2 22.016L528 263.84z" fill="#27A2DF" p-id="43100"></path></svg>