<svg xmlns="http://www.w3.org/2000/svg" viewBox="0 0 1024 1024" version="1.1"><path d="M144 96h672A48 48 0 0 1 864 144v664.512L823.264 800v42.624a32 32 0 0 1-0.48 5.6L808.608 928H144A48 48 0 0 1 96 880v-736A48 48 0 0 1 144 96z" fill="#FFFFFF" p-id="22465"></path><path d="M576 896v32H128a32 32 0 0 1-32-32V128a32 32 0 0 1 32-32h704a32 32 0 0 1 32 32v416h-32V128H128v768h448z" fill="#5D6D7E" p-id="22466"></path><path d="M192 192h288v128H192V192z m32 32v64h224V224H224z m-32 192h288v128H192v-128z m32 32v64h224v-64H224z" fill="#30AD98" p-id="22467"></path><path d="M320 320h32v96h-32z" fill="#ACB4C0" p-id="22468"></path><path d="M832 676.384s-24.864 61.472-64.448 63.456h-84.576s-54.816-17.344-60.48 40.128v51.808l-28.8 0.192S544 836.16 544 734.592c0-50.592 49.696-51.488 49.696-51.488h145.664v-27.808H626.56v-83.424s22.624-7.072 38.208-14.496c17.6-8.448 48.896-12.8 74.56-13.312 58.976-1.216 89.312 17.344 92.416 54.976L832 676.384z m-177.216-76.704v27.84h28.16v-27.84h-28.16z m71.424 217.12l4.416 28.64h92.64v61.184S822.4 961.472 726.208 960C637.472 958.624 640 906.624 640 906.624v-106.592c0-46.08 62.432-40.512 62.432-40.512H784c45.76-1.92 65.44-66.176 65.44-66.176V640l31.68 0.96S928 643.968 928 744.704c0 98.528-52.352 81.952-52.352 81.952l-149.44-9.856z m32.64 57.28v28.64h28.16v-28.64h-28.16zM370.592 704l-60.992-51.808 20.736-24.384 110.336 93.728-106.72 90.656-20.736-24.384L374.24 736H298.656l-4.256-3.2C224.928 680.704 192 647.776 192 624h32c0 8 29.568 37.792 85.344 80h61.28z" fill="#27A2DF" p-id="22469"></path></svg>