<svg xmlns="http://www.w3.org/2000/svg" viewBox="0 0 1024 1024" version="1.1"><path d="M704 102.624V224a48 48 0 0 0 96 0V102.624c73.888 20.896 117.12 88.8 117.12 169.376 0 68.384-28.16 127.68-85.12 156.8v406.016a80 80 0 1 1-160 0V428.8c-56.96-29.12-82.848-88.416-82.848-156.8 0-80.576 40.96-148.48 114.848-169.376z m-563.264 6.4h167.808a32 32 0 0 1 32 32v743.04a32 32 0 0 1-32 32H140.736a32 32 0 0 1-32-32V141.024a32 32 0 0 1 32-32z" fill="#FFFFFF" p-id="22416"></path><path d="M128 96h192a32 32 0 0 1 32 32v768a32 32 0 0 1-32 32H128a32 32 0 0 1-32-32V128a32 32 0 0 1 32-32z m0 32v768h192V128H128z" fill="#5D6D7E" p-id="22417"></path><path d="M505.408 528h-294.08a16 16 0 1 1 0-32h291.392l-97.76-93.12a16 16 0 1 1 22.08-23.136l140.16 133.44-140.16 134.08a16 16 0 0 1-22.08-23.136l100.448-96.128z" fill="#27A2DF" p-id="22418"></path><path d="M800 848V407.808a144.064 144.064 0 0 0 32-255.552V208a80 80 0 1 1-160 0V152.256a144.064 144.064 0 0 0 32 255.552V848a48 48 0 0 0 96 0z m32 0a80 80 0 1 1-160 0V428.8a176.064 176.064 0 0 1 32-326.176V208a48 48 0 0 0 96 0V102.624A176.064 176.064 0 0 1 832 428.8v419.2z m-80 32a32 32 0 1 1 0-64 32 32 0 0 1 0 64z" fill="#C49F74" p-id="22419"></path></svg>