<svg xmlns="http://www.w3.org/2000/svg" viewBox="0 0 1024 1024" version="1.1"><path d="M96 96m32 0l768 0q32 0 32 32l0 768q0 32-32 32l-768 0q-32 0-32-32l0-768q0-32 32-32Z" fill="#FFFFFF" p-id="36565"></path><path d="M896 832h32v64a32 32 0 0 1-32 32H128a32 32 0 0 1-32-32V128a32 32 0 0 1 32-32h768a32 32 0 0 1 32 32v480h-32V128H128v768h768v-64z" fill="#5D6D7E" p-id="36566"></path><path d="M96 416h576v224H96v-224z m53.952 139.008a19.616 19.616 0 0 0-15.488 6.464 20.64 20.64 0 0 0-6.464 15.776c0 6.208 1.984 11.264 6.464 15.776a21.44 21.44 0 0 0 15.488 6.208c6.208 0 11.264-2.24 15.776-6.208 4.224-4.48 6.496-9.6 6.496-15.776s-2.24-11.52-6.496-15.776a21.056 21.056 0 0 0-15.776-6.464zM267.68 448c-21.696 0-38.88 7.328-51.264 22.24-12.96 14.656-19.136 32.672-19.136 54.368 0 24.192 6.752 43.072 20.256 56.864 12.672 13.248 29.856 20 51.52 20 19.456 0 35.52-5.632 48.448-16.64 10.144-8.96 16.896-20.544 20.288-34.048H305.696c-3.936 8.16-8.16 14.08-12.96 17.728-6.208 4.512-14.08 6.784-23.936 6.784-11.52 0-20.544-3.68-26.752-10.72-6.208-7.04-9.856-17.44-10.976-30.976h108.96c0-26.176-5.888-46.72-17.44-61.376-12.672-16.32-30.976-24.224-54.912-24.224z m0.832 26.176c22.528 0 35.2 11.552 38.016 35.2H231.68c1.952-11.52 5.888-20.256 11.808-26.176 6.208-6.208 14.368-9.024 25.056-9.024z m87.872-22.24l50.112 68.16-56.608 77.44h37.76l36.608-53.792 36.32 53.76h37.728l-56.608-77.44 50.144-68.128H454.4l-30.144 44.48-30.4-44.48H356.352zM578.56 448c-21.696 0-38.848 7.328-51.264 22.24-12.928 14.656-19.136 32.672-19.136 54.368 0 24.192 6.752 43.072 20.288 56.864 12.672 13.248 29.824 20 51.52 20 19.424 0 35.488-5.632 48.448-16.64 10.112-8.96 16.896-20.544 20.256-34.048h-32.096c-3.936 8.16-8.16 14.08-12.96 17.728-6.176 4.512-14.08 6.784-23.936 6.784-11.52 0-20.544-3.68-26.752-10.72-6.176-7.04-9.856-17.44-10.976-30.976h108.992c0-26.176-5.92-46.72-17.472-61.376-12.672-16.32-30.976-24.224-54.912-24.224z m0.832 26.176c22.528 0 35.2 11.552 38.016 35.2h-74.88c1.952-11.52 5.888-20.256 11.84-26.176 6.176-6.208 14.336-9.024 25.024-9.024z" fill="#30AD98" p-id="36567"></path><path d="M256 256.832v-32h512v32H256z m0 93.824v-32h403.456v32H256z" fill="#D5D9DF" p-id="36568"></path><path d="M805.536 736H127.872v-32h671.232l-71.584-68.512a16 16 0 0 1 22.144-23.136l115.584 110.656-115.584 111.104a16 16 0 0 1-22.176-23.072L805.568 736z" fill="#27A2DF" p-id="36569"></path></svg>