<svg xmlns="http://www.w3.org/2000/svg" viewBox="0 0 1024 1024" version="1.1"><path d="M112 112m32 0l736 0q32 0 32 32l0 736q0 32-32 32l-736 0q-32 0-32-32l0-736q0-32 32-32Z" fill="#FFFFFF" p-id="18450"></path><path d="M128 96h768a32 32 0 0 1 32 32v768a32 32 0 0 1-32 32H128a32 32 0 0 1-32-32V128a32 32 0 0 1 32-32z m0 32v768h768V128H128z" fill="#5D6D7E" p-id="18451"></path><path d="M128 431.136l207.584-213.696L832 693.376V896h-32v-188.96L336.416 262.56 128 470.944z" fill="#CDD1D7" p-id="18452"></path><path d="M301.28 254.464L788.16 733.024l44.864-45.632L346.144 208.832z" fill="#27A2DF" p-id="18453"></path></svg>