<svg xmlns="http://www.w3.org/2000/svg" viewBox="0 0 1024 1024" version="1.1"><path d="M365.536 608V288L560 140.064h290.464L864 624l-39.648 43.616L948.96 864H79.2L256 608z" fill="#FFFFFF" p-id="37064"></path><path d="M384 608v32H257.6l-132.608 192h774.016l-110.496-160 35.328-7.424L960 864H64l176.832-256z" fill="#5D6D7E" p-id="37065"></path><path d="M352 480h352v160H352z" fill="#D8D8D8" p-id="37066"></path><path d="M672 480l160-128v160l-160 128z" fill="#B6B6B6" p-id="37067"></path><path d="M672 480h-288v128h288v32h-288v128h288v-288z m-288-32h288v-128h-288v128z m320-21.888l128-117.856V200.224l-128 117.696v108.16z m128-74.336l-128 117.824v132.64l128-118.176v-132.288z m0 175.84l-128 118.144v107.168l128-138.176v-87.136zM689.28 288l139.2-128h-259.584l-161.92 125.792L672.128 288h17.12zM672 800H352V288l205.92-160H864v499.328L704 800l-32 0.224V800z" fill="#27A2DF" p-id="37068"></path><path d="M256 704h64v64H256v-64z m-96 192h64v64H160v-64z m160-32h64v64h-64v-64z m224 32h64v64h-64v-64z m192-32h64v64h-64v-64z m160 32h64v64h-64v-64z" fill="#808FA1" p-id="37069"></path></svg>