<svg xmlns="http://www.w3.org/2000/svg" viewBox="0 0 1024 1024" version="1.1"><path d="M186.432 912l699.904 0.64L547.392 288l-113.696 297.728L384 528z" fill="#FFFFFF" p-id="21336"></path><path d="M547.392 296.48L886.336 928H752L547.392 296.48zM384 541.92l246.688 380.96L496 928 384 541.92z" fill="#30AD98" p-id="21337"></path><path d="M166.624 896l215.936-415.968 46.88 73.376 111.04-337.888L905.184 896H960v32h-37.632l0.352 0.64H637.44l-0.448-0.64H128v-32h38.624z m36.064 0h407.68l-224.96-352.032L202.72 896z m451.616 0h214.624L547.52 296.48l-95.584 290.88L654.304 896z" fill="#5D6D7E" p-id="21338"></path><path d="M209.376 153.408L122.72 231.648a16 16 0 1 1-21.44-23.744L225.184 96l123.904 111.904a16 16 0 0 1-21.44 23.744L241.376 153.728v316.032a16 16 0 1 1-32 0V153.408z" fill="#27A2DF" p-id="21339"></path></svg>