<svg xmlns="http://www.w3.org/2000/svg" viewBox="0 0 1024 1024" version="1.1"><path d="M112 112m32 0l736 0q32 0 32 32l0 736q0 32-32 32l-736 0q-32 0-32-32l0-736q0-32 32-32Z" fill="#FFFFFF" p-id="17215"></path><path d="M128 96h768a32 32 0 0 1 32 32v768a32 32 0 0 1-32 32H128a32 32 0 0 1-32-32V128a32 32 0 0 1 32-32z m0 32v768h768V128H128z" fill="#5D6D7E" p-id="17216"></path><path d="M96 96h832v192H96V96z m448 96v32h160V192h-160z m224 0v32h64V192h-64zM337.696 800H279.808V364.8h57.92V800zM441.6 364.8h150.24c26.304 0 48.96 1.312 67.968 4a144.064 144.064 0 0 1 54.496 19.584 151.552 151.552 0 0 1 45.408 42.88c12.96 18.24 23.168 39.168 30.592 62.816 7.392 23.648 11.104 52.288 11.104 85.92 0 64.128-15.232 116.832-45.696 158.08-30.496 41.28-82.944 61.92-157.344 61.92H441.6V364.8z m57.6 383.552h93.216c19.008 0 35.968-1.184 50.912-3.584 14.944-2.368 30.08-8.8 45.44-19.296 15.328-10.464 28.032-27.68 38.144-51.648 10.08-23.936 15.136-55.616 15.136-95.008 0-21.76-1.92-42.08-5.76-60.992a143.68 143.68 0 0 0-21.408-51.648c-10.4-15.552-22.304-26.944-35.776-34.144a112.704 112.704 0 0 0-39.36-13.216c-12.736-1.6-29.12-2.368-49.088-2.368H499.2v331.904z" fill="#3B97D3" p-id="17217"></path></svg>