<svg xmlns="http://www.w3.org/2000/svg" viewBox="0 0 1024 1024" version="1.1"><path d="M96 160h768v128H96V160z m0 160h544v128H96v-128z m0 416h832v128H96v-128z m0-160h384v128H96v-128z" fill="#FFFFFF" p-id="36515"></path><path d="M96 160h768v128H96V160z m32 32v64h704V192H128zM96 736h832v128H96v-128z m32 32v64h768v-64H128z" fill="#27A2DF" p-id="36516"></path><path d="M96 320h544v128H96v-128z m32 32v64h480v-64H128z" fill="#30AD98" p-id="36517"></path><path d="M96 576h384v128H96v-128z m32 32v64h320v-64H128z" fill="#808FA1" p-id="36518"></path><path d="M96.32 96.448v834.272h32V96.448z" fill="#5D6D7E" p-id="36519"></path></svg>