<svg xmlns="http://www.w3.org/2000/svg" viewBox="0 0 1024 1024" version="1.1"><path d="M160 128h544.896L864 277.568V896H160z" fill="#FFFFFF" p-id="20596"></path><path d="M896 928H128V96h576v0.864l192.32 192.64-0.32 0.32V928z m-32-32V320h-192V128H160v768h704zM704 142.144V288h145.568L704 142.144z" fill="#5A6978" p-id="20597"></path><path d="M639.68 601.312l-23.84-6.72 23.744 72.512L639.456 768H256v-32h64v-128h64V288h64V256h128v32h64l-0.32 313.312zM608 320h-192v288h192v-288z m0 320h-256v96h256v-96z m-192-256h192v32h-192v-32z m0 96h192v32h-192v-32z" fill="#808FA1" p-id="20598"></path><path d="M938.112 668.288l-373.376-124.448L695.52 928l50.816-202.56 191.776-57.152z m-218.368 31.68l-28.864 115.072-75.04-220.448 215.936 72-112.032 33.376z" fill="#27A2DF" p-id="20599"></path></svg>