<svg xmlns="http://www.w3.org/2000/svg" viewBox="0 0 1024 1024" version="1.1"><path d="M121.504 912.32H913.28V147.008L532.928 698.784l-199.072-306.656L121.504 912.32z" fill="#FFFFFF" p-id="35207"></path><path d="M97.696 928.32h831.552V95.616l-395.936 574.4-202.72-312.256-232.896 570.56z m47.616-32l191.776-469.792 195.424 301.024L897.28 198.4V896.32H145.28z" fill="#5A6978" p-id="35208"></path><path d="M416 489.28l117.312 180.736L736 375.936V928H416z" fill="#30AD98" p-id="35209"></path><path d="M480 128h-96 96V96h-96v32h96z m160 0h-96 96V96h-96v32h96z m128 0V96h-64v32h64z m-32 96V160v64h32V160h-32v64z m0 128V288v64h32V288h-32v64z m0 128v-64 64h32v-64h-32v64z m0 128v-64 64h32v-64h-32v64z m0 128v-64 64h32v-64h-32v64z m0 128v-64 64h32v-64h-32v64z m-32 32h64-64v32h64v-32h-64z m-160 0h96-96v32h96v-32h-96z m-160 0v31.616L480 928v-32h-96z m32-32h-32v-64h32v64-64 64z m0-128h-32v-64h32v64-64 64z m0-128h-32v-64h32v64-64 64z m0-128h-32v-64h32v64-64 64z m0-128h-32V288h32v64-64 64z m0-128V160v64h-32V160h32v64z" fill="#808FA1" p-id="35210"></path></svg>