<svg xmlns="http://www.w3.org/2000/svg" viewBox="0 0 1024 1024" version="1.1"><path d="M513.952 913.6c229.76 0 403.36-171.84 403.36-401.6 0-58.816-1.536-114.816-23.552-165.536a417.664 417.664 0 0 0-183.584-200.32c-58.912-32-126.4-37.376-198.176-37.376C282.24 108.768 110.592 282.24 110.592 512c0 69.312 2.368 134.624 32.32 192.096a417.76 417.76 0 0 0 190.912 183.936c54.016 25.6 116.384 25.6 180.16 25.6z" fill="#FFFFFF" p-id="23583"></path><path d="M335.168 888.64a15.968 15.968 0 0 1-10.464-27.776l96.48-88.64a16 16 0 0 1 21.632 23.552l-77.472 71.232c45.184 18.688 94.72 28.992 146.656 28.992 212.064 0 384-171.936 384-384 0-55.008-11.552-107.296-32.384-154.592l24.128-24.128A414.4 414.4 0 0 1 928 512c0 229.76-186.24 416-416 416a414.4 414.4 0 0 1-176.832-39.36zM676.48 164.896A382.496 382.496 0 0 0 512 128C299.936 128 128 299.936 128 512c0 63.52 15.424 123.456 42.752 176.224l-23.68 23.68A414.144 414.144 0 0 1 96 512C96 282.24 282.24 96 512 96c70.272 0 136.512 17.44 194.56 48.192a16 16 0 0 1 8.768 27.104l-96 96a16 16 0 0 1-22.656-22.624l79.808-79.776z" fill="#5D6D7E" p-id="23584"></path><path d="M382.016 591.04A170.048 170.048 0 0 1 320 460C320 364.992 398.784 288 496 288s176 76.992 176 172a169.92 169.92 0 0 1-59.328 128.768L498.816 736l-116.8-144.96zM496 576a112 112 0 1 0 0-224 112 112 0 0 0 0 224z" fill="#30AD98" p-id="23585"></path></svg>