<svg xmlns="http://www.w3.org/2000/svg" viewBox="0 0 1024 1024" version="1.1"><path d="M112 112m32 0l736 0q32 0 32 32l0 736q0 32-32 32l-736 0q-32 0-32-32l0-736q0-32 32-32Z" fill="#FFFFFF" p-id="38974"></path><path d="M128 656h64a16 16 0 1 0 0-32H128a16 16 0 1 0 0 32z m128 0h64a16 16 0 1 0 0-32H256a16 16 0 1 0 0 32z m128 0h64a16 16 0 1 0 0-32H384a16 16 0 1 0 0 32z m128 0h64a16 16 0 1 0 0-32h-64a16 16 0 1 0 0 32z m128 0h64a16 16 0 1 0 0-32h-64a16 16 0 1 0 0 32z m128 0h64a16 16 0 1 0 0-32h-64a16 16 0 1 0 0 32z" fill="#A0ABB7" p-id="38975"></path><path d="M896 96a32 32 0 0 1 32 32v768a32 32 0 0 1-32 32H128a32 32 0 0 1-32-32V128a32 32 0 0 1 32-32h768z m0 32H128v768h768V128z" fill="#5D6D7E" p-id="38976"></path><path d="M784.32 320.128a16 16 0 0 1 15.744 13.12l0.256 2.88v96.192a16 16 0 0 1-31.744 2.88l-0.256-2.88-0.032-58.176-212.256 205.088a16 16 0 0 1-19.456 2.144l-2.464-1.856-137.536-126.048-257.152 261.92a16 16 0 0 1-20.416 2.048l-2.24-1.824a16 16 0 0 1-2.016-20.416l1.824-2.24 268.032-272.928a16 16 0 0 1 19.68-2.496l2.56 1.92 137.76 126.272 200.416-193.632h-55.648a16 16 0 0 1-15.744-13.12l-0.256-2.88a16 16 0 0 1 13.12-15.712l2.88-0.256h94.944z" fill="#27A2DF" p-id="38977"></path></svg>