<svg xmlns="http://www.w3.org/2000/svg" viewBox="0 0 1024 1024" version="1.1"><path d="M96 96m48 0l736 0q48 0 48 48l0 736q0 48-48 48l-736 0q-48 0-48-48l0-736q0-48 48-48Z" fill="#FFFFFF" p-id="24970"></path><path d="M96 512c104 16.608 225.216-19.744 363.616-109.056 138.4-89.28 225.696-191.616 261.856-306.944H124.544l-25.12 25.696L96 512z" fill="#30AD98" fill-opacity=".2" p-id="24971"></path><path d="M96 495.008c61.952 2.528 122.112-5.44 180.48-23.84 58.4-18.4 115.552-50.816 171.52-97.216 50.592 6.976 93.28 31.68 128 74.048 34.784 42.368 56.096 95.68 64 160-67.52 35.776-131.52 80.64-192 134.56A700.576 700.576 0 0 0 299.52 928H116.8L96 900.16V495.008z" fill="#27A2DF" fill-opacity=".2" p-id="24972"></path><path d="M912 524.832c-94.208-11.52-206.72 22.88-337.408 104-134.528 83.52-228.896 177.952-283.424 283.168h602.752l18.08-21.76V524.8z" fill="#C49F74" fill-opacity=".2" p-id="24973"></path><path d="M446.912 402.592c87.616 26.432 140.48 90.88 159.584 195.808l31.488-5.76c-21.184-116.256-82.176-190.624-181.824-220.672l-9.248 30.624z" fill="#27A2DF" p-id="24974"></path><path d="M128.256 483.36c89.376 5.376 194.048-29.92 314.016-107.296C557.504 301.696 634.88 218.976 675.232 128h34.784c-41.472 102.336-124.928 193.984-250.4 274.944C335.2 483.264 224.64 520.704 128 515.392l0.256-32z" fill="#30AD98" p-id="24975"></path><path d="M896 539.36c-87.264-6.08-191.68 27.776-312.96 103.072-122.112 75.84-210.176 160.384-264.768 253.568H281.6c56.544-104.48 151.424-198.08 284.576-280.736 125.504-77.92 235.456-113.92 329.856-107.968v32.064z" fill="#C49F74" p-id="24976"></path><path d="M128 96h768a32 32 0 0 1 32 32v768a32 32 0 0 1-32 32H128a32 32 0 0 1-32-32V128a32 32 0 0 1 32-32z m0 32v768h768V128H128z" fill="#5D6D7E" p-id="24977"></path></svg>