<svg xmlns="http://www.w3.org/2000/svg" viewBox="0 0 1024 1024" version="1.1"><path d="M128 272H96V128a32 32 0 0 1 32-32h160v32H128v144z m0 448V896h160v32H128a32 32 0 0 1-32-32v-176h32zM736 896h160v-176h32V896a32 32 0 0 1-32 32h-160v-32z m160-624V128h-160V96h160a32 32 0 0 1 32 32v144h-32z" fill="#5D6D7E" p-id="35256"></path><path d="M256 256m32 0l448 0q32 0 32 32l0 448q0 32-32 32l-448 0q-32 0-32-32l0-448q0-32 32-32Z" fill="#FFFFFF" p-id="35257"></path><path d="M288 256h448a32 32 0 0 1 32 32v448a32 32 0 0 1-32 32H288a32 32 0 0 1-32-32V288a32 32 0 0 1 32-32z m0 32v448h448V288H288z" fill="#27A2DF" p-id="35258"></path></svg>