<svg xmlns="http://www.w3.org/2000/svg" viewBox="0 0 1024 1024" version="1.1"><path d="M256 256h512v512H256V256z" fill="#FFFFFF" p-id="16529"></path><path d="M895.616 151.008l-259.84 259.84a16 16 0 0 1-22.624-22.624l260.16-260.16h-153.088a16 16 0 1 1 0-32h207.392V304a16 16 0 1 1-32 0V151.04zM127.904 873.472l260.32-260.32a16 16 0 0 1 22.624 22.624l-260.352 260.352h153.472a16 16 0 1 1 0 32H95.904v-208a16 16 0 1 1 32 0v153.344z" fill="#27A2DF" p-id="16530"></path><path d="M287.552 672.48h-32v-64h32v64z m0-128h-32v-64h32v64z m0-128h-32v-64h32v64z m0-128h-32V256h63.52v32H271.552l16-16v16.48zM383.072 288V256h64v32h-64z m128 0V256h64v32h-64z m128 0V256h64v32h-64z m-287.296 479.584v-32h64v32h-64z m128 0v-32h64v32h-64z m128 0v-32h64v32h-64z m128 0v-32h16.96l-16 16v-47.04h32v63.04h-32.96z m32.96-127.04h-32v-64h32v64z m0-128h-32v-64h32v64z m0-128h-32v-60.544h32v60.512z" fill="#5D6D7E" p-id="16531"></path></svg>