<svg xmlns="http://www.w3.org/2000/svg" viewBox="0 0 1024 1024" version="1.1"><path d="M112 112m32 0l736 0q32 0 32 32l0 736q0 32-32 32l-736 0q-32 0-32-32l0-736q0-32 32-32Z" fill="#FFFFFF" p-id="45074"></path><path d="M128 96h768a32 32 0 0 1 32 32v768a32 32 0 0 1-32 32H128a32 32 0 0 1-32-32V128a32 32 0 0 1 32-32z m0 32v768h768V128H128z m137.568 564c89.6-26.24 131.296-63.04 129.088-108.704-4.608-95.808 86.592-137.536 187.904-119.424 74.304 13.28 102.4-4.32 126.4-128.832a64.416 64.416 0 0 0 32.96-2.88c-28.608 149.44-70.08 180.16-164.992 163.2-84.032-15.04-153.664 16.832-150.304 86.4 3.104 64.704-49.92 111.36-154.72 141.696L272 720c0-10.048-2.304-19.52-6.432-28z" fill="#5D6D7E" p-id="45075"></path><path d="M736 177.312a96.64 96.64 0 0 0-32 0V128h32v49.312zM814.688 256H896v32h-81.312a96.64 96.64 0 0 0 0-32zM736 447.264V480h160v32h-160v192h160v32h-160v160h-32v-160h-192v160h-32v-160H334.688l0.544-3.84A300.096 300.096 0 0 0 386.944 704H480v-169.92a91.904 91.904 0 0 1 32-10.208V704h192v-192h-19.68c20.672-13.344 37.568-34.4 51.68-64.736zM288 803.2V896H256v-81.312a95.36 95.36 0 0 0 32-11.52zM145.312 736H128v-32h17.312a96.64 96.64 0 0 0 0 32zM256 625.312V512H128v-32h128V288H128V256h128V128h32v128h192V128h32v128h113.312a96.64 96.64 0 0 0 0 32H512v139.36a234.56 234.56 0 0 0-32 4.704V288H288v192h104.16a127.872 127.872 0 0 0-21.12 32H288v124.832a95.36 95.36 0 0 0-32-11.52z" fill="#ACB4C0" opacity=".5" p-id="45076"></path><path d="M720 336a64 64 0 1 0 0-128 64 64 0 0 0 0 128z m0-32a32 32 0 1 1 0-64 32 32 0 0 1 0 64z" fill="#30AD98" p-id="45077"></path><path d="M240 784a64 64 0 1 0 0-128 64 64 0 0 0 0 128z m0-32a32 32 0 1 1 0-64 32 32 0 0 1 0 64z" fill="#27A2DF" p-id="45078"></path></svg>