<svg xmlns="http://www.w3.org/2000/svg" viewBox="0 0 1024 1024" version="1.1"><path d="M128 128h768v768H128z" fill="#FFFFFF" p-id="34676"></path><path d="M128 96h768a32 32 0 0 1 32 32v768a32 32 0 0 1-32 32H128a32 32 0 0 1-32-32V128a32 32 0 0 1 32-32z m0 32v768h768V128H128z" fill="#5D6D7E" p-id="34677"></path><path d="M289.92 640H896a32 32 0 0 1 32 32v224a32 32 0 0 1-32 32H289.92a32 32 0 0 1-32-32v-224a32 32 0 0 1 32-32z m143.776 219.296H355.2c2.048-3.552 4.736-7.232 8.064-10.976 3.328-3.744 11.232-11.328 23.68-22.784 12.48-11.424 21.12-20.192 25.92-26.272 7.2-9.216 12.48-17.984 15.808-26.368 3.328-8.416 4.992-17.248 4.992-26.528 0-16.32-5.824-29.952-17.44-40.928-11.616-10.944-27.616-16.448-47.968-16.448-18.56 0-34.016 4.736-46.4 14.208-12.384 9.472-19.744 25.088-22.08 46.816l39.36 3.968c0.768-11.52 3.584-19.808 8.448-24.768 4.896-4.96 11.456-7.456 19.712-7.456 8.32 0 14.88 2.368 19.616 7.104 4.736 4.736 7.072 11.52 7.072 20.32 0 8-2.688 16.032-8.128 24.192-4.032 5.92-14.976 17.152-32.768 33.76-22.144 20.512-36.96 36.992-44.448 49.408-7.488 12.448-12 25.6-13.504 39.456h138.528v-36.704zM468.8 896h39.52v-39.52h-39.52V896z m72.16-53.024c2.336 17.28 9.504 31.008 21.504 41.216 12 10.24 27.52 15.328 46.56 15.328 23.808 0 42.4-9.088 55.808-27.296 9.856-13.312 14.784-28.448 14.784-45.44 0-20.32-6.08-36.864-18.304-49.6a59.328 59.328 0 0 0-44.576-19.136c-9.184 0-18.176 2.208-26.976 6.624l6.176-35.04h74.56v-36.96h-104.512l-20.256 107.296 32.064 4.64c8.992-10.048 19.2-15.04 30.528-15.04 9.088 0 16.48 3.136 22.144 9.472 5.664 6.336 8.512 15.808 8.512 28.48 0 13.504-2.88 23.584-8.576 30.304a27.104 27.104 0 0 1-40.064 2.24c-5.568-5.184-8.896-12.256-10.016-21.152l-39.36 4.064z m168.192-153.12V896h78.304c15.36 0 27.68-1.44 36.864-4.352 12.288-3.936 22.016-9.44 29.248-16.448 9.568-9.28 16.928-21.44 22.08-36.448 4.224-12.256 6.336-26.88 6.336-43.84 0-19.328-2.24-35.584-6.752-48.736a90.08 90.08 0 0 0-19.712-33.408 68.928 68.928 0 0 0-31.04-18.976c-9.024-2.624-22.08-3.936-39.264-3.936h-76.064z m41.6 34.88h18.72c16.96 0 28.352 0.64 34.176 1.952 7.776 1.696 14.208 4.928 19.264 9.696 5.056 4.8 8.992 11.456 11.808 19.968 2.816 8.544 4.224 20.8 4.224 36.704 0 15.936-1.408 28.544-4.224 37.76-2.816 9.248-6.432 15.872-10.88 19.904a38.4 38.4 0 0 1-16.832 8.576c-5.12 1.312-13.536 1.984-25.152 1.984h-31.104v-136.576z" fill="#5D6D7E" p-id="34678"></path><path d="M704 328.352l-112 64.864v135.872l112-67.2V328.32zM736 480l-160 96-288-96V288l160-96 288 96v192z m-284.16-252.992l-112.192 67.328 234.4 72.32 108.384-62.784-230.592-76.864zM320 321.728v135.2l240 80v-141.12L320 321.728z" fill="#27A2DF" p-id="34679"></path></svg>