<svg xmlns="http://www.w3.org/2000/svg" viewBox="0 0 1024 1024" version="1.1"><path d="M800 352l128 128v112l-11.264 287.84a32 32 0 0 1-32 32H373.952V800H128a32 32 0 0 1-32-32V128a32 32 0 0 1 32-32h640a32 32 0 0 1 32 32v224z" fill="#FFFFFF" p-id="13879"></path><path d="M800 256h-32V128H128v640h192v32H128a32 32 0 0 1-32-32V128a32 32 0 0 1 32-32h640a32 32 0 0 1 32 32v128zM320 672H256v96H224v-96H128v-32h96V256H128V224h96V128h32v96h384V128h32v96h96v32H256v384h64v32z m128-224h192v32h-192v-32z m0 96h384v32H448v-32z m0 160h384v32H448v-32z m0 96h288v32h-288v-32z m0-160h384v32H448v-32z" fill="#ACB4C0" p-id="13880"></path><path d="M768 289.184l0.32-0.32 160.544 157.6-1.504 1.536H928v448a32 32 0 0 1-32 32H384a32 32 0 0 1-32-32V320a32 32 0 0 1 32-32h384v1.184z m0 44.224V448h116.736L768 333.44zM736 320H384v576h512V480h-160v-160z" fill="#5D6D7E" p-id="13881"></path><path d="M448 544h384v32H448v-32z m0 160h384v32H448v-32z" fill="#C49F74" p-id="13882"></path></svg>