<svg xmlns="http://www.w3.org/2000/svg" viewBox="0 0 1024 1024" version="1.1"><path d="M311.648 391.072L512 271.36l204.064 119.744v237.76l-202.24 119.872-211.968-119.872 9.792-237.76z" fill="#FFFFFF" p-id="44234"></path><path d="M528.096 721.92l176.096-100.48v-202.112l-176.096 97.696v204.896z m-32 0.16v-205.056L320 417.28v204.16l176.096 100.672z m-156.672-330.624l172.672 97.856 174.464-96.8-174.624-99.648-172.48 98.592zM511.904 256l224.32 128v256l-224.32 128L288 640v-256l223.936-128z" fill="#5A6978" p-id="44235"></path><path d="M864 290.208V207.36a16 16 0 1 1 32 0V352h-138.08a16 16 0 1 1 0-32h86.72A383.84 383.84 0 0 0 512 128C299.936 128 128 299.936 128 512s171.936 384 384 384c23.872 0 47.264-2.176 69.92-6.368l8 31.072A418.24 418.24 0 0 1 512 928C282.24 928 96 741.76 96 512S282.24 96 512 96a415.68 415.68 0 0 1 352 194.208z m-165.152 593.6l-14.4-28.608a384.576 384.576 0 0 0 74.016-48.736l20.576 24.544a416.576 416.576 0 0 1-80.192 52.8z m146.976-123.52l-25.664-19.136a383.552 383.552 0 0 0 44.384-76.704l29.376 12.704a415.552 415.552 0 0 1-48.096 83.104z" fill="#3B97D3" p-id="44236"></path></svg>