<svg xmlns="http://www.w3.org/2000/svg" viewBox="0 0 1024 1024" version="1.1"><path d="M112 857.792l241.6-443.104 52.16 57.856 107.936-346.368 401.696 727.84z" fill="#FFFFFF" p-id="44330"></path><path d="M352.512 403.232l53.248 69.248 106.56-358.976 403.072 740.512H112l240.512-450.784zM130.688 832.64h375.168l-153.344-393.824L130.688 832.64z m564.16 7.616L512.352 146.88 416 489.76l278.816 350.496z m173.216-665.28l-51.648-51.648a16 16 0 0 1 22.624-22.656l90.272 90.304-90.24 90.24a16 16 0 0 1-22.656-22.592l51.648-51.648h-150.816a16 16 0 1 1 0-32h150.816z m-213.152 0a16 16 0 1 1 0 32H624a16 16 0 1 1 0-32h30.912z" fill="#30AD98" p-id="44331"></path><path d="M96 928v-32h833.28v32H96z m2.304-96l254.72-438.56 46.816 60.64 112.64-357.12L929.28 832.32l-0.64 0.384V864H96v-32h2.24z m36.992 0h515.936L356.8 450.656 135.296 832z m556.352 0h200.64L520.896 176.64l-97.184 308.288L691.648 832z" fill="#5A6978" p-id="44332"></path></svg>