<svg xmlns="http://www.w3.org/2000/svg" viewBox="0 0 1024 1024" version="1.1"><path d="M848 240h-128v128h-64v128h-64v-384h-160v352h-96v-137.632L260.832 246.624 176 326.88V496h-32v256h736v-288h-32v-224z" fill="#FFFFFF" p-id="34628"></path><path d="M864 448h32v320H128v-288h32v-160l101.472-96L352 320v128h64V96h192v384h32v-128h64V224h160v224z m0 32h-32V256h-96v128h-64v128h-96V128h-128v352h-128v-147.296L260.16 269.28 192 333.76V512H160v224h704v-256z" fill="#657381" p-id="34629"></path><path d="M189.28 864h645.44a48 48 0 1 1 0 32H189.28a48 48 0 1 1 0-32z" fill="#27A2DF" p-id="34630"></path></svg>