<svg xmlns="http://www.w3.org/2000/svg" viewBox="0 0 1024 1024" version="1.1"><path d="M128 96h768a32 32 0 0 1 32 32v768a32 32 0 0 1-32 32H128a32 32 0 0 1-32-32V128a32 32 0 0 1 32-32z m0 32v768h768V128H128z" fill="#5D6D7E" p-id="34970"></path><path d="M128 128h768v768H128z" fill="#FFFFFF" p-id="34971"></path><path d="M416 544h-96v96h96v-96z m32-32h128v-128h-128v-32h128V224h-128v288z m160-128v128h128v32h-128v96h128v-256h-128z m-32 256v-96h-128v96h128z m192 32H288v-160h128V192h192v160h160v320z" fill="#27A2DF" p-id="34972"></path><path d="M259.872 640H896a32 32 0 0 1 32 32v224a32 32 0 0 1-32 32H259.872a32 32 0 0 1-32-32v-224a32 32 0 0 1 32-32z m16.96 49.856V896h78.304c15.36 0 27.648-1.44 36.864-4.352 12.256-3.936 22.016-9.44 29.248-16.448 9.536-9.28 16.896-21.44 22.08-36.448 4.192-12.256 6.304-26.88 6.304-43.84 0-19.328-2.24-35.584-6.72-48.736a90.08 90.08 0 0 0-19.712-33.408 68.928 68.928 0 0 0-31.072-18.976c-8.992-2.624-22.08-3.936-39.232-3.936H276.8z m41.6 34.88h18.72c16.96 0 28.352 0.64 34.176 1.952 7.776 1.696 14.176 4.928 19.264 9.696 5.056 4.8 8.96 11.456 11.808 19.968 2.816 8.544 4.224 20.8 4.224 36.704 0 15.936-1.408 28.544-4.224 37.76-2.816 9.248-6.464 15.872-10.88 19.904a38.4 38.4 0 0 1-16.832 8.576c-5.152 1.312-13.536 1.984-25.184 1.984h-31.04v-136.576z m155.968 104.192c2.72 23.04 11.04 40.64 25.024 52.672 13.952 12.032 33.984 18.048 60.032 18.048 17.92 0 32.864-2.496 44.864-7.52a60.704 60.704 0 0 0 37.696-56.192c0-13.024-2.752-23.968-8.224-32.832a57.92 57.92 0 0 0-22.784-20.928c-9.696-5.12-24.672-10.08-44.928-14.848-20.256-4.8-32.992-9.376-38.24-13.76a15.84 15.84 0 0 1-6.208-12.544c0-5.344 2.24-9.6 6.624-12.8 6.848-4.96 16.32-7.456 28.416-7.456 11.712 0 20.48 2.336 26.336 6.976 5.888 4.64 9.696 12.256 11.488 22.848l41.6-1.824c-0.64-18.944-7.52-34.08-20.576-45.44-13.12-11.328-32.576-16.992-58.432-16.992-15.84 0-29.376 2.368-40.576 7.168-11.2 4.8-19.776 11.744-25.728 20.864-5.952 9.152-8.96 18.976-8.96 29.472 0 16.32 6.336 30.144 19.008 41.504 8.992 8.032 24.64 14.848 46.976 20.384 17.344 4.288 28.448 7.296 33.312 8.992 7.136 2.56 12.128 5.504 14.976 8.928 2.88 3.424 4.288 7.584 4.288 12.448 0 7.584-3.392 14.24-10.176 19.904-6.816 5.664-16.896 8.512-30.304 8.512-12.672 0-22.72-3.2-30.176-9.6-7.456-6.336-12.384-16.32-14.848-29.92l-40.48 3.936zM676.48 896h38.656v-162.272L755.936 896h40.064l40.928-162.272V896h38.656v-206.144h-62.4l-37.024 140.608-37.408-140.608H676.48V896z" fill="#5D6D7E" p-id="34973"></path></svg>