<svg xmlns="http://www.w3.org/2000/svg" viewBox="0 0 1024 1024" version="1.1"><path d="M512 915.104c229.76 0 405.184-173.344 405.184-403.104S741.76 111.04 512 111.04C282.24 111.04 111.68 282.24 111.68 512S282.24 915.104 512 915.104z" fill="#FFFFFF" p-id="27965"></path><path d="M512.032 928C282.24 928 96 741.728 96 512 96 282.304 282.24 96 512.032 96 741.76 96 928 282.304 928 512c0 229.728-186.24 416-415.968 416zM512 896c212.064 0 384-171.936 384-384S724.064 128 512 128 128 299.936 128 512s171.936 384 384 384z" fill="#5D6D7E" p-id="27966"></path><path d="M265.472 619.04c43.456 7.456 93.696 2.816 93.696 2.816-46.912 83.84-35.68 152.448-25.76 184.32a373.664 373.664 0 0 1-119.04-99.648c-20.352-56.416-30.08-119.584-30.08-119.584s44.928 25.888 81.184 32.096z m472.608-72.896c54.368 98.432-4.16 111.424-54.464 208.416-55.008 106.016-65.312-11.584-65.312-11.584 10.944-219.904-89.792-237.312-119.68-243.104-29.952-5.76-54.432-8.704-54.432-46.336 0-37.6 47.648-50.624 65.312-46.272 17.664 4.256 40.8-59.392-21.824-92.608-62.528-33.344-84.288 27.424-97.856 81.024-13.632 53.568-38.144 39.04-43.616-23.168-5.376-62.24-20.32-14.432-32.64 11.584-12.192 26.048-81.632 57.856-87.008 34.752-3.392-14.496 1.696-47.232 6.016-69.6 62.688-97.824 168.192-161.984 287.776-161.984 129.792 0 242.72 75.68 302.688 187.648 6.08 54.72-20.096 103.936-52.32 113.376-39.488 11.584-32.64 57.856-32.64 57.856z" fill="#ACB4C0" p-id="27967"></path></svg>