<svg xmlns="http://www.w3.org/2000/svg" viewBox="0 0 1024 1024" version="1.1"><path d="M913.44 621.536c8.96 8.736 14.56 20.96 14.56 34.464v190.464A113.536 113.536 0 0 1 814.464 960H737.28a129.44 129.44 0 0 1-96.416-43.008 46.464 46.464 0 0 1-3.84-3.648l-3.232-3.456A415.936 415.936 0 0 1 512 928C282.24 928 96 741.76 96 512S282.24 96 512 96s416 186.24 416 416c0 37.92-5.088 74.656-14.56 109.536z" fill="#FFFFFF" p-id="15205"></path><path d="M908.448 638.4l-28.064-17.696c6.08-20.64 10.496-42.016 13.024-63.936l0.192-0.448 0.288-3.744 0.416-4.192a538.24 538.24 0 0 1-0.128 0.224c1.216-16.736 1.824-31.456 1.824-44.16 0-14.624-1.632-33.152-4.928-55.584l-0.192 0.192C860.8 266.88 702.624 128 512 128 299.936 128 128 299.936 128 512c0 155.936 92.96 290.176 226.496 350.304 50.048 0.384 104.544-9.216 159.936-28.672l23.936 25.152a557.76 557.76 0 0 1-106.816 28.8c25.92 5.504 52.864 8.416 80.448 8.416 29.632 0 58.496-3.36 86.208-9.728l47.84 19.648c-42.048 14.304-87.136 22.08-134.016 22.08-59.264 0-115.616-12.384-166.624-34.72-87.616-3.04-163.2-35.104-210.304-97.664-47.168-62.56-57.152-144.064-35.904-229.184l1.28 6.944A419.328 419.328 0 0 1 96 512C96 282.304 282.24 96 512.032 96c55.04 0 107.52 10.688 155.616 30.08-0.8-0.32-1.6-0.64-2.336-1.024 95.84-1.248 179.168 30.784 229.76 97.92 50.496 66.976 58.336 155.744 30.88 247.36 1.344 13.728 2.048 27.616 2.048 41.664a415.68 415.68 0 0 1-19.552 126.4zM724 154.016a417.184 417.184 0 0 1 185.984 236.48c4.64-56.448-7.584-108.384-38.688-149.664-30.688-40.736-76.48-66.656-131.136-77.984a1343.008 1343.008 0 0 0-16.16-8.832zM270.976 851.104a417.088 417.088 0 0 1-151.744-201.696c-0.288 48.16 12.48 92.32 39.616 128.32 27.072 35.936 65.888 60.32 112.128 73.376z" fill="#5D6D7E" p-id="15206"></path><path d="M614.784 578.656v66.56c-18.56-127.872-91.52-140.544-116.16-145.344-29.952-5.76-54.432-8.704-54.432-46.336 0-37.6 47.648-50.624 65.312-46.272 17.664 4.256 40.8-59.392-21.824-92.608-62.528-33.344-84.288 27.424-97.856 81.024-13.632 53.568-38.144 39.04-43.616-23.168-5.376-62.24-20.32-14.432-32.64 11.584-12.192 26.048-81.632 57.856-87.008 34.752-3.392-14.496 1.696-47.232 6.016-69.6 62.688-97.824 168.192-161.984 287.776-161.984 129.792 0 242.72 75.68 302.688 187.648 4.736 42.56-10.048 81.792-32 101.568a47.936 47.936 0 0 0-81.536 5.664 112.448 112.448 0 0 0-5.12 5.504 80 80 0 0 0-89.6 91.008z m-255.616 43.2c-46.912 83.84-35.68 152.448-25.76 184.32a373.664 373.664 0 0 1-119.04-99.648c-20.352-56.416-30.08-119.584-30.08-119.584s44.928 25.888 81.184 32.096c43.456 7.456 93.696 2.816 93.696 2.816z" fill="#D5D9DF" p-id="15207"></path><path d="M832.064 655.968H832V560a16 16 0 0 0-21.888-14.88l-10.304 4.064V720a16 16 0 1 1-32 0v-194.88l-0.352-1.344a16 16 0 0 0-30.912 0l-0.736 2.784 0.064 1.44v192a16 16 0 1 1-32 0v-170.944l-9.984-3.936A16 16 0 0 0 672 560v218.88l-10.592 9.536c-1.056 0.96-2.08 1.92-3.072 2.944l-23.36 24.032-65.792-70.24-0.64-0.64a13.696 13.696 0 0 0-19.36 0.64 20.16 20.16 0 0 0 0 27.52l111.2 118.784 0.64 0.64 0.512 0.48 3.136 3.04A97.408 97.408 0 0 0 737.28 928h77.184A81.536 81.536 0 0 0 896 846.464V656a16 16 0 0 0-21.344-15.104l-10.592 3.744v101.536a16 16 0 0 1-32 0v-90.24z m-192.928 259.52a45.696 45.696 0 0 1-2.112-2.144l-111.2-118.784a52.16 52.16 0 0 1 0-71.296 45.696 45.696 0 0 1 66.72 0l42.88 45.76c1.472-1.504 2.976-2.976 4.576-4.384V560a48 48 0 0 1 65.696-44.64 48 48 0 0 1 92.608 0A48 48 0 0 1 864 560v50.72a48 48 0 0 1 64 45.28v190.464A113.536 113.536 0 0 1 814.464 960H737.28a129.44 129.44 0 0 1-96.416-43.008 46.464 46.464 0 0 1-1.728-1.536z" fill="#27A2DF" p-id="15208"></path></svg>