<svg xmlns="http://www.w3.org/2000/svg" viewBox="0 0 1024 1024" version="1.1"><path d="M96 96m48 0l736 0q48 0 48 48l0 736q0 48-48 48l-736 0q-48 0-48-48l0-736q0-48 48-48Z" fill="#FFFFFF" p-id="24168"></path><path d="M96 768h160v160H144A48 48 0 0 1 96 880V768z m0-192h160v160H96v-160z m0-192h160v160H96V384z m0-192h160v160H96V192z m192 192h160v160H288V384z m192-192h160v160h-160V192z" fill="#C49F74" opacity=".205" p-id="24169"></path><path d="M288 576h160v160H288v-160z m192 0h160v160h-160v-160z m0 192h160v160h-160v-160z" fill="#27A2DF" opacity=".201" p-id="24170"></path><path d="M672 384h160v160h-160V384z m0 192h160v160h-160v-160z" fill="#30AD98" opacity=".201" p-id="24171"></path><path d="M480 192h160v160h-160V192z m32 32v96h96V224h-96zM288 384h160v160H288V384z m32 32v96h96v-96H320zM96 192h160v160H96V192z m32 32v96h96V224H128zM96 384h160v160H96V384z m32 32v96h96v-96H128z m-32 160h160v160H96v-160z m32 32v96h96v-96H128z m-32 160h160v160H128a32 32 0 0 1-32-32v-128z m32 32v96h96v-96H128z" fill="#C49F74" p-id="24172"></path><path d="M672 384h160v160h-160V384z m32 32v96h96v-96h-96z m-32 160h160v160h-160v-160z m32 32v96h96v-96h-96z" fill="#30AD98" p-id="24173"></path><path d="M480 576h160v160h-160v-160z m32 32v96h96v-96h-96z m-224-32h160v160H288v-160z m32 32v96h96v-96H320z m160 160h160v160h-160v-160z m32 32v96h96v-96h-96z" fill="#39A9E0" p-id="24174"></path><path d="M128 96h768a32 32 0 0 1 32 32v768a32 32 0 0 1-32 32H128a32 32 0 0 1-32-32V128a32 32 0 0 1 32-32z m0 32v768h768V128H128z" fill="#5D6D7E" p-id="24175"></path></svg>