<svg xmlns="http://www.w3.org/2000/svg" viewBox="0 0 1024 1024" version="1.1"><path d="M112 112m32 0l736 0q32 0 32 32l0 736q0 32-32 32l-736 0q-32 0-32-32l0-736q0-32 32-32Z" fill="#FFFFFF" p-id="47219"></path><path d="M128 96h768a32 32 0 0 1 32 32v768a32 32 0 0 1-32 32H128a32 32 0 0 1-32-32V128a32 32 0 0 1 32-32z m0 32v768h768V128H128z" fill="#5D6D7E" p-id="47220"></path><path d="M643.648 896h-74.08l-226.624-220.448a31.552 31.552 0 0 1-0.32-44.928 32 32 0 0 1 45.248 0l249.44 249.408a21.6 21.6 0 0 1 6.336 15.968z" fill="#808FA1" p-id="47221"></path><path d="M436.672 283.328c70.272 70.24 144.384 70.24 214.656 0 57.728-57.76 111.616-57.76 169.344 0l22.656-22.656c-70.272-70.24-144.384-70.24-214.656 0-57.728 57.76-111.616 57.76-169.344 0l-22.656 22.656z" fill="#27A2DF" p-id="47222"></path><path d="M725.344 352L832 460V640H512v-144L725.344 352zM544 512.992V608h256v-134.848l-78.784-79.776L544 512.992z" fill="#30AD98" p-id="47223"></path><path d="M320 688l-94.048 49.44 17.952-104.704-76.064-74.176 105.152-15.296L320 448l47.04 95.264 105.12 15.296-76.064 74.176 17.92 104.704z" fill="#C49F74" p-id="47224"></path></svg>