<svg xmlns="http://www.w3.org/2000/svg" viewBox="0 0 1024 1024" version="1.1"><path d="M112 112m32 0l736 0q32 0 32 32l0 736q0 32-32 32l-736 0q-32 0-32-32l0-736q0-32 32-32Z" fill="#FFFFFF" p-id="19599"></path><path d="M736 160V128h32v32h-32z m96 64h96v32h-96V224z m-64 96v64h160v32h-160v128h160v32h-160v352h-32V576h-64v-32h64v-128h-128v96h-32v-96h-64V384h64V256h-128v64h-32V256H128V224h288V128h32v96h128V128h32v96h64v32h-64v128h128V320h32z m-160 320v288h-32v-288h32z m-64-64h-96v352h-32V576H128v-32h288v-96h32v96h96v32z m-160-160H128V384h256v32z" fill="#CACFD8" opacity=".5" p-id="19600"></path><path d="M288 128v528.256l154.112-239.36 160.416 74.88 136.32-196.896 26.304 18.24-151.68 219.104-159.584-74.528-152.448 236.8-26.88-17.344 3.296-5.152H256V128H128v608h64v32H128v128h128v-96h32v96h608v-128H320v-32h576V128H288zM128 96h768a32 32 0 0 1 32 32v768a32 32 0 0 1-32 32H128a32 32 0 0 1-32-32V128a32 32 0 0 1 32-32z" fill="#5D6D7E" p-id="19601"></path><path d="M224 672h64a32 32 0 0 1 32 32v64a32 32 0 0 1-32 32H224a32 32 0 0 1-32-32v-64a32 32 0 0 1 32-32z m0 32v64h64v-64H224z m192-384h64a32 32 0 0 1 32 32v64a32 32 0 0 1-32 32h-64a32 32 0 0 1-32-32V352a32 32 0 0 1 32-32z m0 32v64h64V352h-64z m160 160h64a32 32 0 0 1 32 32v64a32 32 0 0 1-32 32h-64a32 32 0 0 1-32-32v-64a32 32 0 0 1 32-32z m0 32v64h64v-64h-64z" fill="#ACB4C0" p-id="19602"></path><path d="M704 160h96a32 32 0 0 1 32 32v96a32 32 0 0 1-32 32h-96a32 32 0 0 1-32-32V192a32 32 0 0 1 32-32z m0 32v96h96V192h-96z" fill="#27A2DF" p-id="19603"></path></svg>