<svg xmlns="http://www.w3.org/2000/svg" viewBox="0 0 1024 1024" version="1.1"><path d="M490.08 736l-263.36 170.432 82.304-293.216L64 405.536l326.4-10.752L490.08 96l99.648 298.784 326.4 10.784-245.024 207.68 82.304 293.184z" fill="#30AD98" p-id="16969"></path><path d="M474.08 477.984l-71.36 76.896a16 16 0 1 1-23.488-21.76l110.784-119.36 111.68 119.296a16 16 0 0 1-23.392 21.888l-72.224-77.216v211.2a16 16 0 1 1-32 0v-210.944z" fill="#FFFFFF" p-id="16970"></path><path d="M416 943.968h-32v-45.12h32v45.12z m192 0h-32v-45.12h32v45.12z m-101.92 0.032h-32v-85.92h32V944z" fill="#E6F5F2" p-id="16971"></path><path d="M416 911.968h-32v-45.12h32v45.12z m192 0h-32v-45.12h32v45.12z m-101.92 0.032h-32v-85.92h32V912z" fill="#A2DAD0" p-id="16972"></path><path d="M416 877.888h-32v-43.04h32v43.04z m192 0h-32v-43.04h32v43.04z m-101.92 0h-32v-83.84h32v83.84z" fill="#48B6A4" p-id="16973"></path></svg>