<svg xmlns="http://www.w3.org/2000/svg" viewBox="0 0 1024 1024" version="1.1"><path d="M480 128h-96V96h96v32z m192-32v32h-96V96h96z m192 0v32h-96V96h96z m-192 800v32h-96v-32h96z m192 0v32h-96v-32h96z" fill="#808FA1" p-id="27679"></path><path d="M336 112h-224v800h480v-224h-256v-576z" fill="#FFFFFF" p-id="27680"></path><path d="M352 672h256v256H96V96h256v576z m224 32h-256V128H128v768h448v-192z" fill="#5D6D7E" p-id="27681"></path><path d="M320 704h32v96h-32v-96z m128 0h32v96h-32v-96z m-224-32h96v32H224v-32z m0-128h96v32H224v-32z m0-128h96v32H224v-32z m0-128h96v32H224V288z m672-192h32v832h-32V96z" fill="#C49F74" p-id="27682"></path></svg>