<svg xmlns="http://www.w3.org/2000/svg" viewBox="0 0 1024 1024" version="1.1"><path d="M512 512m-400 0a400 400 0 1 0 800 0 400 400 0 1 0-800 0Z" fill="#FFFFFF" p-id="49981"></path><path d="M512 928c229.76 0 416-186.24 416-416S741.76 96 512 96 96 282.24 96 512s186.24 416 416 416z m0-32C299.936 896 128 724.064 128 512S299.936 128 512 128s384 171.936 384 384-171.936 384-384 384z" fill="#5D6D7E" p-id="49982"></path><path d="M518.912 240.896c49.152 0 88.32 13.056 118.272 40.704 28.416 26.112 43.008 62.208 43.008 108.288 0 34.56-9.984 64.512-29.184 89.856-7.68 9.216-28.416 29.184-62.208 59.136-16.896 14.592-28.416 28.416-36.096 42.24-9.984 16.896-14.592 35.328-14.592 56.064v17.664h-61.44v-17.664c0-25.344 4.608-47.616 13.824-66.816 10.752-23.04 36.096-52.224 77.568-89.088 12.288-12.288 21.504-21.504 26.112-27.648 15.36-19.2 23.04-39.168 23.04-60.672 0-30.72-9.216-54.528-26.112-71.424-17.664-18.432-43.008-26.88-75.264-26.88-38.4 0-66.816 12.288-85.248 37.632-16.896 21.504-25.344 50.688-25.344 88.32H344.576c0-53.76 14.592-96.768 45.312-129.024 30.72-33.792 73.728-50.688 129.024-50.688z m-11.52 467.712c13.056 0 24.576 3.84 33.792 13.056 8.448 8.448 13.056 19.2 13.056 32.256 0 13.824-4.608 24.576-13.824 33.024a47.072 47.072 0 0 1-33.024 13.056c-13.056 0-23.808-4.608-33.024-13.056-9.216-9.216-13.056-19.968-13.056-33.024 0-13.056 3.84-23.808 13.056-32.256 9.216-9.216 19.968-13.056 33.024-13.056z" fill="#30AD98" p-id="49983"></path></svg>