<svg xmlns="http://www.w3.org/2000/svg" viewBox="0 0 1024 1024" version="1.1"><path d="M576 96v832H144A48 48 0 0 1 96 880v-736A48 48 0 0 1 144 96H576z m32 0h240A48 48 0 0 1 896 144v736a48 48 0 0 1-48 48H608V96z" fill="#FFFFFF" p-id="29002"></path><path d="M96 96h480v832H96V96z m256 32v768h192V128h-192z m-32 0H128v768h192V128z" fill="#5D6D7E" p-id="29003"></path><path d="M704 736h256v32h-256z" fill="#30AD98" p-id="29004"></path><path d="M672 128h-64V96h64v32h-64 64z m128 0h-64V96h64v32h-64 64z m64 32V96h32v64h-32V96v64z m0 128V224h32v64h-32V224v64z m0 128v-64h32v64h-32v-64 64z m0 128v-64h32v64h-32v-64 64z m0 128v-64h32v64h-32v-64 64z m0 256v-96h32v96h-32z m-128-32h64v32h-64v-32h64-64z m-96 0h32v32h-64v-96h32v64z m0-128h-32v-64h32v64-64 64z m0-128h-32v-64h32v64-64 64z m0-128h-32v-64h32v64-64 64z m0-128h-32v-64h32v64-64 64z m0-128V192v64h-32V192h32v64z" fill="#ACB4C0" p-id="29005"></path></svg>