<svg xmlns="http://www.w3.org/2000/svg" viewBox="0 0 1024 1024" version="1.1"><path d="M112 112m32 0l736 0q32 0 32 32l0 736q0 32-32 32l-736 0q-32 0-32-32l0-736q0-32 32-32Z" fill="#FFFFFF" p-id="19105"></path><path d="M192 320h160v512H192V320z m32 32v448h96V352H224z m192-128h160v608h-160V224z m32 32v544h96V256h-96z m192 128h160v448h-160V384z m32 32v384h96V416h-96z" fill="#27A2DF" p-id="19106"></path><path d="M160 832v-32h704v32H160zM128 96h768a32 32 0 0 1 32 32v768a32 32 0 0 1-32 32H128a32 32 0 0 1-32-32V128a32 32 0 0 1 32-32z m0 32v768h768V128H128z" fill="#5D6D7E" p-id="19107"></path></svg>