<svg xmlns="http://www.w3.org/2000/svg" viewBox="0 0 1024 1024" version="1.1"><path d="M128 896v-32h768v32z" fill="#5D6D7E" p-id="36420"></path><path d="M657.664 630.016H339.84l-43.68 94.336c-6.528 13.6-9.824 24.32-9.824 32.16 0 14.944 3.904 25.312 27.008 31.104v25.184H128v-25.184c13.792-2.72 36.512-7.488 43.744-14.304 7.264-6.784 15.52-20.032 24.832-39.776L429.76 224.672c8.288-16.992 12.416-4.48 12.416-14.72 0-15.616-2.88-17.024-22.88-23.84V160h185.408v26.112c-20.352 5.76-25.664 6.016-25.664 20.288 0 9.856 3.264-5.024 9.824 7.552l242.496 510.4c11.36 22.784 21.376 38.336 29.984 46.688 8.64 8.32 20.16 13.856 34.656 16.576v25.184h-211.84v-25.184c22.72-3.744 39.296-14.304 39.296-31.616 0-7.168-3.456-17.696-10.368-31.648l-55.424-94.336zM627.2 544l-117.312-268.8L396.8 544h230.4z" fill="#27A2DF" p-id="36421"></path></svg>