<svg xmlns="http://www.w3.org/2000/svg" viewBox="0 0 1024 1024" version="1.1"><path d="M273.696 185.728h212.608v32H272.704l57.6 51.296-21.248 23.872L207.168 202.24l101.856-91.008 21.312 23.84-56.64 50.656zM128 928H96V96h32v832z" fill="#5D6D7E" p-id="33121"></path><path d="M896 896H256a32 32 0 0 1-32-32v-160a32 32 0 0 1 32-32h640a32 32 0 0 1 32 32v160a32 32 0 0 1-32 32z m-192-320H256a32 32 0 0 1-32-32v-160a32 32 0 0 1 32-32h448a32 32 0 0 1 32 32v160a32 32 0 0 1-32 32z" fill="#808FA1" p-id="33122"></path></svg>