<svg xmlns="http://www.w3.org/2000/svg" viewBox="0 0 1024 1024" version="1.1"><path d="M512 96c229.76 0 416 186.24 416 416s-186.24 416-416 416S96 741.76 96 512 282.24 96 512 96z m0 192a224 224 0 1 0 0 448 224 224 0 0 0 0-448z" fill="#FFFFFF" p-id="40295"></path><path d="M528 735.424V928h-32v-192.576a227.264 227.264 0 0 0 32 0z m153.28-76.736l136.192 136.16-22.624 22.624-136.16-136.16c8.064-7.008 15.616-14.56 22.624-22.624z m-315.968 22.624l-136.16 136.16-22.624-22.624 136.16-136.16c7.008 8.064 14.56 15.616 22.624 22.624z m370.112-185.28L928 496v32h-192.576a227.264 227.264 0 0 0 0-32zM288 512c0 5.376 0.192 10.72 0.576 16H96v-32h192.576A227.264 227.264 0 0 0 288 512zM229.152 206.528l136.16 136.16a225.376 225.376 0 0 0-22.624 22.624L206.528 229.152l22.624-22.624z m565.696 0l22.624 22.624-136.16 136.16a225.376 225.376 0 0 0-22.624-22.624l136.16-136.16zM528 96v192.576a227.232 227.232 0 0 0-32 0V96h32z" fill="#A7B3C2" p-id="40296"></path><path d="M512 96c229.76 0 416 186.24 416 416s-186.24 416-416 416S96 741.76 96 512 282.24 96 512 96z m0 32C299.936 128 128 299.936 128 512s171.936 384 384 384 384-171.936 384-384S724.064 128 512 128z" fill="#5D6D7E" p-id="40297"></path><path d="M512 288a224 224 0 1 1 0 448 224 224 0 0 1 0-448z m0 32a192 192 0 1 0 0 384 192 192 0 0 0 0-384z" fill="#5D6D7E" p-id="40298"></path></svg>