<svg xmlns="http://www.w3.org/2000/svg" viewBox="0 0 1024 1024" version="1.1"><path d="M96 96m32 0l768 0q32 0 32 32l0 768q0 32-32 32l-768 0q-32 0-32-32l0-768q0-32 32-32Z" fill="#FFFFFF" p-id="19302"></path><path d="M186.016 128H267.2c18.944 102.912 57.344 158.016 112.96 172.48 65.472 17.056 121.472 42.72 165.472 76.416 120.16-104.576 221.12-126.656 294.08-49.472 21.824 23.04 40.64 41.504 56.288 55.2v97.408c-29.632-13.824-65.408-45.824-114.4-97.632-34.592-36.608-91.648-24.736-179.2 51.04a254.08 254.08 0 0 1 39.52 75.968c6.592 20.608 26.016 43.488 52.032 65.152 2.272 1.504 4.416 3.2 6.336 5.152 57.216 45.408 141.856 84.288 195.712 84.288v80c-51.84 0-118.432-22.496-178.592-56.736-8.32 48.32-35.744 95.68-81.12 141.024a40 40 0 0 1-56.576-56.576c50.432-50.4 68-96.256 57.152-141.216-34.4-30.272-60.576-63.744-71.136-96.704a177.984 177.984 0 0 0-37.44-64.448 39.872 39.872 0 0 1-20.736-20.256 259.008 259.008 0 0 0-23.84-18.176c-11.648 76.16-47.232 128-108.096 150.592-83.296 30.88-114.976 154.176-20.48 217.216a40 40 0 0 1-44.416 66.56c-37.504-25.056-62.816-56-77.696-89.28a235.52 235.52 0 0 0-1.024 24 40 40 0 0 1-80 0c0-66.688 22.336-113.6 66.528-129.792 10.08-71.776 58.432-137.44 129.28-163.712 35.392-13.12 55.936-48.736 59.584-113.824-14.88-5.504-30.72-10.432-47.36-14.752C265.888 353.408 208.736 267.424 186.016 128z" fill="#CAE6F9" p-id="19303"></path><path d="M242.816 128c20.192 114.048 64.32 178.272 131.296 195.712 70.592 18.368 129.024 46.976 172.16 84.8 118.368-108.608 211.68-132.64 276.032-64.608 30.176 31.936 55.136 55.36 73.696 69.984v38.848c-24.256-14.56-55.84-43.328-96.96-86.848-48.48-51.264-123.808-32.064-229.888 65.056a233.6 233.6 0 0 1 49.92 85.76c24.64 76.864 185.92 171.296 276.928 171.296v32c-57.376 0-136.256-31.168-200.32-74.464 3.68 56-22.144 111.552-76.352 165.76l-22.656-22.624c58.592-58.56 78.4-115.168 61.472-171.424-33.952-28.672-59.808-60.288-69.568-90.752-18.048-56.416-61.248-102.304-125.056-135.36-4.16 88.512-35.968 145.504-96.256 167.872-100.096 37.12-137.984 184.576-25.44 259.68l-17.76 26.624c-49.6-33.088-75.072-77.856-81.6-123.648C219.424 728 208 752.32 208 800h-32c0-64.672 21.76-103.744 64.96-110.816 3.36-69.312 47.68-135.168 115.2-160.192 49.056-18.176 74.656-67.84 75.808-152.48a506.592 506.592 0 0 0-65.92-21.824C283.616 333.248 232.064 256.64 210.336 128h32.48z" fill="#27A2DF" p-id="19304"></path><path d="M128 96h768a32 32 0 0 1 32 32v768a32 32 0 0 1-32 32H128a32 32 0 0 1-32-32V128a32 32 0 0 1 32-32z m0 32v768h768V128H128z" fill="#5D6D7E" p-id="19305"></path></svg>