<svg xmlns="http://www.w3.org/2000/svg" viewBox="0 0 1024 1024" version="1.1"><path d="M817.248 208.256L832 537.44l111.616 6.56L864 884.96a32 32 0 0 1-32 32H136.48a32 32 0 0 1-32-32V207.616a32 32 0 0 1 32-32H279.36L288 128h434.688l94.56 80.256z" fill="#FFFFFF" p-id="29516"></path><path d="M425.088 544l10.432-60.736-108.48-105.76 149.92-21.792L544 219.84l67.04 135.872 149.952 21.76-108.48 105.792 10.4 60.736h-32.48l-12.32-71.936 74.112-72.224-102.4-14.88L544 292.16l-45.792 92.8-102.4 14.88 74.08 72.224L457.6 544h-32.48z m84.544 0L544 525.92l34.368 18.08h-68.736z" fill="#C49F74" p-id="29517"></path><path d="M128 797.344l64.384-259.36C195.712 523.648 212.736 512 230.4 512h704c17.664 0 29.312 11.648 25.984 26.016l-90.368 364c-3.328 14.336-20.352 25.984-38.016 25.984H128c-9.28 0-16.96-3.2-21.6-8.384A31.904 31.904 0 0 1 96 896V192a32 32 0 0 1 32-32h128v32H128v605.344zM230.4 544c-3.616 0-7.104 2.368-6.976 1.696L136.48 896H832c3.648 0 7.104-2.368 6.976-1.696L925.92 544H230.4z" fill="#5D6D7E" p-id="29518"></path><path d="M832 512h-32V209.28L722.688 128H288v384H256V96h480.416L832 196.512V512z" fill="#76879A" p-id="29519"></path></svg>