<svg xmlns="http://www.w3.org/2000/svg" viewBox="0 0 1024 1024" version="1.1"><path d="M864 783.84V896h-163.168c-62.464 20.16-138.624 32-220.832 32-188.352 0-345.024-62.144-377.728-144.16H96V245.12h0.224A55.168 55.168 0 0 1 96 240C96 160.48 267.936 96 480 96s384 64.48 384 144c0 1.728-0.096 3.424-0.224 5.12H864v538.72z" fill="#FFFFFF" p-id="15499"></path><path d="M864 608h-32v-118.656C757.76 543.232 626.56 576 480 576s-277.76-32.768-352-86.656V608c0 35.52 49.6 71.68 128 96.48v33.504c-55.68-16.704-100.192-39.456-128-65.92v104.8l4.448 9.12c14.816 30.4 60 58.4 123.552 78.528v34.4C175.168 875.84 115.84 840.704 96 800V245.696l0.32 0.096C96.096 243.84 96 241.92 96 240 96 160.48 267.936 96 480 96s384 64.48 384 144c0 2.112-0.128 4.224-0.352 6.336L864 246.208V608z m-31.968-160H832V297.632C772.704 348.48 637.44 384 480 384S187.296 348.48 128 297.632V448h-0.032c59.232 56.512 194.56 96 352.032 96 157.44 0 292.8-39.488 352.032-96zM480 352c195.456 0 352-58.72 352-112S675.456 128 480 128 128 186.72 128 240 284.544 352 480 352z" fill="#5D6D7E" p-id="15500"></path><path d="M320 640h576a32 32 0 0 1 32 32v224a32 32 0 0 1-32 32H320a32 32 0 0 1-32-32v-224a32 32 0 0 1 32-32z m86.112 224h24.256v-183.264h-24.256V864z m66.24 0h23.392v-156L548.736 864h21.888l53.248-153.376V864h23.36v-183.264h-32.608l-43.872 127.52c-4.416 12.896-7.68 22.72-9.76 29.376-1.824-6.016-4.736-15.04-8.736-27.136l-43.392-129.76h-36.48V864z m299.776-71.872h53.856v34.112c-5.152 4.608-12.736 8.896-22.72 12.96-10.016 4.032-20.256 6.08-30.752 6.08-12.096 0-23.52-2.688-34.24-8a53.984 53.984 0 0 1-24.576-24.544c-5.632-10.976-8.448-24.64-8.448-40.96 0-13.28 2.336-25.568 7.008-36.896 2.752-6.592 6.592-12.64 11.552-18.144 4.96-5.472 11.488-9.92 19.552-13.312 8.096-3.36 17.696-5.056 28.768-5.056 9.248 0 17.664 1.6 25.248 4.8 7.584 3.2 13.44 7.488 17.504 12.832 4.064 5.344 7.488 12.672 10.24 22.016l21.888-6.016c-3.2-12.32-7.808-22.336-13.888-30.016a59.584 59.584 0 0 0-25.184-17.92 95.84 95.84 0 0 0-35.936-6.432c-18.24 0-34.368 3.744-48.384 11.232a74.4 74.4 0 0 0-32.192 34.464 113.408 113.408 0 0 0-11.2 49.92c0 18.016 3.776 34.304 11.264 48.864 7.52 14.592 18.624 25.728 33.312 33.44 14.72 7.712 31.072 11.584 49.088 11.584 13.312 0 26.336-2.4 38.976-7.2 12.672-4.8 24.96-11.936 36.896-21.44v-68l-77.632 0.128v21.504z" fill="#27A2DF" p-id="15501"></path></svg>