<svg xmlns="http://www.w3.org/2000/svg" viewBox="0 0 1024 1024" version="1.1"><path d="M704 448c123.712 0 224 79.136 224 130.656 0 19.104 7.584 47.776-16 56.096v110.784c23.584 14.784 16 38.048 16 57.12C928 854.208 827.712 896 704 896s-224-41.792-224-93.344c0-12.704 5.344-29.92 16-51.584V640H128a32 32 0 0 1-32-32V128a32 32 0 0 1 32-32h480a32 32 0 0 1 32 32v327.04a296 296 0 0 1 64-7.04z" fill="#FFFFFF" p-id="14364"></path><path d="M448 592c0 16.64 3.36 32.736 9.632 48H128a32 32 0 0 1-32-32V128a32 32 0 0 1 32-32h480a32 32 0 0 1 32 32v293.536c-110.4 19.52-192 88.448-192 170.464z" fill="#FBF4E4" p-id="14365"></path><path d="M224 480H128v-96h96V256h160v352H224v-128z m160-352h96v96h-96V128z" fill="#DDEEDB" p-id="14366"></path><path d="M449.056 608H384v-128h122.528C469.952 510.4 448 549.44 448 592c0 5.408 0.352 10.72 1.056 16zM512 475.584V352h96v76.8c-37.12 10.336-69.92 26.464-96 46.784z" fill="#A5D0E8" p-id="14367"></path><path d="M704 669.536c108.32 0 192-48.288 192-92.32 0-44-83.68-92.288-192-92.288s-192 48.288-192 92.288c0 44.032 83.68 92.32 192 92.32z m0 36.928c-123.712 0-224-57.856-224-129.248C480 505.856 580.288 448 704 448s224 57.856 224 129.216c0 71.36-100.288 129.248-224 129.248z m191.872-12.448H896v-59.264c20.32 18.144 32 39.36 32 62.08 0 66.496-100.288 120.384-224 120.384s-224-53.888-224-120.384c0-22.72 11.68-43.936 32-62.08v59.264h0.128a30.688 30.688 0 0 0-0.128 2.816c0 40.992 83.68 85.984 192 85.984s192-44.992 192-85.984a30.688 30.688 0 0 0-0.128-2.816z m0 110.784H896v-59.264c20.32 18.112 32 39.36 32 62.08C928 874.048 827.712 928 704 928s-224-53.92-224-120.416c0-22.72 11.68-43.936 32-62.08v59.296h0.128a30.688 30.688 0 0 0-0.128 2.784c0 41.024 83.68 86.016 192 86.016s192-44.992 192-86.016a30.688 30.688 0 0 0-0.128-2.784z" fill="#5D6D7E" p-id="14368"></path><path d="M480 581.856l32 25.152v210.24l-32-21.376v-214.016z m416 27.136l32-26.08v213.216l-32 21.12V608.96zM608 384h-96v91.584A190.976 190.976 0 0 0 475.904 512H384v96h65.056c1.44 10.976 4.352 21.696 8.576 32H128a32 32 0 0 1-32-32V128a32 32 0 0 1 32-32h480a32 32 0 0 1 32 32v293.536c-10.976 1.92-21.664 4.384-32 7.264V384z m0-32V256h-96v96h96z m0-128V128h-96v96h96z m-128-96h-96v96h96V128z m-128 0H256v96h96V128zM224 128H128v96h96V128zM128 256v96h96V256H128z m0 128v96h96v-96H128z m0 128v96h96v-96H128z m128 96h96v-96H256v96z m384-128v32-32z m-160 0v-96h-96v96h96z m-128 0v-96H256v96h96z m-96-128h96V256H256v96z m128 0h96V256h-96v96z" fill="#5D6D7E" p-id="14369"></path><path d="M839.744 346.048l36.576-37.248a16 16 0 0 1 22.848 22.4l-74.016 75.424-76.608-75.2a16 16 0 1 1 22.4-22.848l36.896 36.224 0.192-64.8c-13.12-70.784-49.472-104-112.288-104v-32c78.912 0 127.904 44.8 144 133.056v68.992z" fill="#27A2DF" p-id="14370"></path></svg>