<svg xmlns="http://www.w3.org/2000/svg" viewBox="0 0 1024 1024" version="1.1"><path d="M768 512h128a32 32 0 0 1 32 32v352a32 32 0 0 1-32 32H544a32 32 0 0 1-32-32v-128H128a32 32 0 0 1-32-32V128a32 32 0 0 1 32-32h608a32 32 0 0 1 32 32v384z" fill="#FFFFFF" p-id="15448"></path><path d="M896 849.888c-34.656-48.992-60.224-81.6-76.736-97.888-31.488-31.008-104.48-12.992-83.264-43.2 39.584-56.384 92.896-80.224 160-71.456v212.544zM768 480h-256a32 32 0 0 0-32 32v256H128a32 32 0 0 1-32-32V128a32 32 0 0 1 32-32h608a32 32 0 0 1 32 32v352z" fill="#FBF4E4" p-id="15449"></path><path d="M448 128h128v128h-128V128zM288 288h128v448H288V288z m-160 160h128v128H128v-128z" fill="#DDEEDB" p-id="15450"></path><path d="M736 480h-128v-32h128v32z m-256 128v128h-32v-128h32z" fill="#A5D0E8" p-id="15451"></path><path d="M725.888 704.512c39.2-74.752 99.776-107.616 178.88-96.352l-4.48 31.68c-62.304-8.864-108.608 14.176-141.408 71.04 101.728 24.544 156.096 86.624 159.648 184.544l-32 1.152c-3.392-94.08-59.84-147.104-174.528-161.696-129.856-16.544-193.856-81.92-185.728-192.576l31.904 2.336c-6.784 92.32 43.776 143.968 157.856 158.496 3.328 0.416 6.624 0.864 9.856 1.376z" fill="#CDD1D7" p-id="15452"></path><path d="M448 736h32v32H128a32 32 0 0 1-32-32V128a32 32 0 0 1 32-32h608a32 32 0 0 1 32 32v352h-32v-32h-128v32h-32v-32h-128v128h32v32h-32v128z m-32 0v-128H288v128h128z m-160 0v-128H128v128h128z m-128-160h128v-128H128v128z m0-160h128V288H128v128z m0-160h128V128H128v128z m160-128v128h128V128H288z m160 0v128h128V128h-128z m160 0v128h128V128h-128z m128 160h-128v128h128V288z m-320 288v-128H288v128h128z m-128-160h128V288H288v128z m160 0h128V288h-128v128z m96 96h352a32 32 0 0 1 32 32v352a32 32 0 0 1-32 32H544a32 32 0 0 1-32-32V544a32 32 0 0 1 32-32z m0 32v352h352V544H544z" fill="#5D6D7E" p-id="15453"></path></svg>