<svg xmlns="http://www.w3.org/2000/svg" viewBox="0 0 1024 1024" version="1.1"><path d="M117.152 800l185.792-160h448l160.864 160H928a32 32 0 0 1 32 32v64a32 32 0 0 1-32 32H96a32 32 0 0 1-32-32v-64a32 32 0 0 1 32-32h21.152z m313.472-384H608l139.008 128H288l142.624-128z" fill="#FFFFFF" p-id="18204"></path><path d="M533.376 539.648c-28.672 15.616-47.168 31.552-47.168 31.552-39.168 17.984-17.312-17.344-48.384-24.608-31.072-7.2-53.792-36.768-53.792-36.768 23.936-45.536 86.08-42.944 86.08-42.944 23.616-18.72 70.464-20 115.904-18.368 45.44 1.536 6.624 24.992 5.408 42.912-1.312 17.92-29.344 32.64-58.048 48.224m167.008 262.656c-2.784 40.128-62.944 73.152-124.352 108.16-10.784 6.112-20.576 12.256-29.92 18.24h-167.072c-2.464-0.928-4.896-1.92-7.776-2.656C304.736 909.792 256 843.584 256 843.584c51.424-102.176 184.416-96.288 184.416-96.288 50.688-41.92 151.072-44.8 248.448-41.28 97.344 3.52 14.304 56.128 11.52 96.32" fill="#30AD98" p-id="18205"></path><path d="M279.488 523.712l136.896-128.96 62.208-210.24-199.104 339.2zM248.8 576l-119.392 203.456L302.944 640h448l134.08 123.168L775.232 576H248.8z m494.528-54.272L550.72 193.6l70.336 211.008 105.664 101.216L736 512h-2.816l10.144 9.728zM925.44 832h-181.44l16 64H928v-59.648L925.44 832zM98.56 832l-2.56 4.352V896h200l16-64H98.56z m849.248-25.152A31.936 31.936 0 0 1 960 832v64a32 32 0 0 1-32 32H96a32 32 0 0 1-32-32v-64c0-10.208 4.8-19.296 12.192-25.152L512 64.384l435.808 742.464zM452.928 384.032H512L544 384l36.48 0.032-67.584-202.72-59.968 202.72zM234.56 736l-79.68 64H320l16-64H234.56z m39.808-32h69.632l8-32h32l-8 32H512v-32h32v32h136L672 672h32l8 32h61.312l-34.848-32H314.24l-39.84 32z m533.76 32H720l16 64h141.856l-69.696-64z m-80.128 160l-16-64H544v64h184zM512 896v-64h-168l-16 64H512z m141.504-416l-66.784-63.968H544V480h109.504z m33.408 32H544v32h176.32l-33.408-32zM512 544v-32h-173.376L304.64 544H512z m-139.424-64H512v-63.968h-71.52L372.576 480zM352 800h160v-64h-144l-16 64z m192 0h160l-16-64H544v64z" fill="#5D6D7E" p-id="18206"></path></svg>