<svg xmlns="http://www.w3.org/2000/svg" viewBox="0 0 1024 1024" version="1.1"><path d="M144 400m32 0l672 0q32 0 32 32l0 448q0 32-32 32l-672 0q-32 0-32-32l0-448q0-32 32-32Z" fill="#FFFFFF" p-id="22368"></path><path d="M160 384h704a32 32 0 0 1 32 32v480a32 32 0 0 1-32 32H160a32 32 0 0 1-32-32V416a32 32 0 0 1 32-32z m0 32v480h704V416H160z" fill="#5D6D7E" p-id="22369"></path><path d="M496 709.12V112.384a16 16 0 0 1 32 0v596.768l132.288-143.872a16 16 0 0 1 23.552 21.664L512 773.824l-171.776-186.88a16 16 0 1 1 23.552-21.664L496 709.12z" fill="#27A2DF" p-id="22370"></path></svg>