<svg xmlns="http://www.w3.org/2000/svg" viewBox="0 0 1024 1024" version="1.1"><path d="M928 848a80 80 0 0 1-80 80h-672A80 80 0 0 1 96 848V224a128 128 0 0 1 128-128v64h576V96a128 128 0 0 1 128 128v624z" fill="#FFFFFF" p-id="41446"></path><path d="M800 160V96a128 128 0 0 1 128 128v636.48a176 176 0 0 0-0.864-0.576A80 80 0 0 1 848 928h-672a80 80 0 0 1-79.136-68.096L96 860.448V224a128 128 0 0 1 128-128v64h576z m32-26.56V800a208 208 0 0 1 64 10.048V224a96.032 96.032 0 0 0-64-90.56zM800 192H224v642.88a177.024 177.024 0 0 0-96 9.12v4A48 48 0 0 0 176 896h672a48 48 0 0 0 48-48v-4a175.552 175.552 0 0 0-96-9.088V192zM192 133.44A96.032 96.032 0 0 0 128 224v586.048A208 208 0 0 1 192 800V133.44z" fill="#5D6D7E" p-id="41447"></path><path d="M320 672v32h64v32h-64v64H288v-64H256v-32h32v-32h32z m416 0v32h32v32h-32v64h-32v-64h-64v-32h64v-32h32z m-160 32v32h-128v-32h128z m-256-224v128H288v-128h32z m416.032 30.336L736 608h-32v-53.376c11.584-13.408 22.56-28.224 32.032-44.288zM320 288v64h64v32h-64v32H288v-32H256v-32h32V288h32z" fill="#D8D8D8" p-id="41448"></path><path d="M592 224a176 176 0 0 1 176 176c0 144-160 240-176 240S416 544 416 400A176 176 0 0 1 592 224z m0 32a144 144 0 0 0-144 144c0 53.952 27.008 105.728 72.64 151.36a347.808 347.808 0 0 0 54.592 44.576c5.376 3.52 10.4 6.528 14.72 8.864l2.048 1.056 2.08-1.056c2.88-1.568 6.048-3.424 9.44-5.504l5.248-3.36a347.808 347.808 0 0 0 54.592-44.576C708.992 505.728 736 453.952 736 400A144 144 0 0 0 592 256z" fill="#5D6D7E" p-id="41449"></path><path d="M591.168 343.36a21.056 21.056 0 0 0 21.12-21.472 22.208 22.208 0 0 0-5.984-15.136 20.704 20.704 0 0 0-15.136-5.984 21.056 21.056 0 0 0-21.472 21.12 20.48 20.48 0 0 0 6.336 15.136 20.48 20.48 0 0 0 15.136 6.336zM624.608 544v-7.04c-7.04-4.576-11.968-9.856-13.728-14.08-1.408-4.576-2.464-13.376-2.464-24.288v-122.496l-49.28 12.672v6.688c5.984 4.576 10.208 9.152 12.32 14.08 2.464 6.336 3.872 16.192 3.872 28.512v60.544c0 10.912-1.056 19.712-2.816 24.288-1.76 4.224-6.336 9.504-13.376 14.08V544h65.472z" fill="#30AD98" p-id="41450"></path></svg>