<svg xmlns="http://www.w3.org/2000/svg" viewBox="0 0 1024 1024" version="1.1"><path d="M886.4 752.64c0 88.352-162.336 160-374.4 160-212.064 0-371.52-71.648-371.52-160V272.832c0-88.384 159.456-160 371.52-160s374.4 71.616 374.4 160V752.64z" fill="#FFFFFF" p-id="37557"></path><path d="M160 416v352h0.608l0.416 22.944C176.832 844.576 329.024 896 512 896s335.168-51.424 350.976-105.056L863.36 768H864V297.632C804.704 348.48 669.44 384 512 384S219.296 348.48 160 297.632V416zM96 736v-288l32-32V224c21.216-72 186.336-128 384-128s362.784 56 384 128v192l32 32v288h-32v64c-21.216 72-186.336 128-384 128S151.552 872 130.336 800L128 736H96z m416-384c195.456 0 352-58.72 352-112S707.456 128 512 128 160 186.72 160 240 316.544 352 512 352z" fill="#5D6D7E" p-id="37558"></path><path d="M96 448l32.352-32v32h766.72L896 416l32 32v288H96v-288z m193.6 165.056c-2.688 11.744-7.136 20.32-13.312 25.792-6.208 5.472-13.6 8.224-22.208 8.224a35.52 35.52 0 0 1-28.448-12.928c-7.296-8.576-10.944-23.04-10.944-43.296 0-19.104 3.712-32.928 11.104-41.472 7.392-8.512 17.056-12.8 28.928-12.8 8.64 0 15.936 2.432 21.952 7.232 5.984 4.8 9.952 11.392 11.84 19.68l32.064-7.648c-3.648-12.8-9.12-22.688-16.416-29.536-12.256-11.584-28.16-17.376-47.808-17.376-22.432 0-40.576 7.36-54.336 22.144-13.76 14.752-20.672 35.52-20.672 62.176 0 25.216 6.848 45.12 20.544 59.68 13.728 14.528 31.232 21.792 52.512 21.792 17.216 0 31.392-4.224 42.592-12.736 11.2-8.48 19.2-21.472 24-38.976l-31.36-9.952z m52.64-20.256c0 25.536 7.04 45.568 21.12 60.128 14.048 14.528 32.992 21.792 56.864 21.792 23.552 0 42.336-7.296 56.416-21.92 14.08-14.624 21.12-34.88 21.12-60.768 0-26.08-7.104-46.464-21.28-61.12-14.176-14.656-33.088-21.984-56.704-21.984a88 88 0 0 0-34.56 6.336 62.4 62.4 0 0 0-20.736 14.432 75.456 75.456 0 0 0-14.912 21.984c-4.896 11.104-7.36 24.8-7.36 41.12z m33.344-1.088c0-18.432 4.096-32.256 12.256-41.376 8.16-9.152 18.912-13.76 32.256-13.76 13.344 0 24.064 4.544 32.096 13.568 8.064 9.056 12.096 22.752 12.096 41.152 0 18.56-4.16 32.512-12.416 41.824a40.64 40.64 0 0 1-31.776 13.952 40.96 40.96 0 0 1-31.936-14.08c-8.384-9.344-12.576-23.104-12.576-41.28z m222.048 21.344h37.056v20.32c-4.864 3.808-10.72 7.04-17.536 9.696a55.744 55.744 0 0 1-20.416 4c-13.696 0-24.8-4.768-33.248-14.272-8.448-9.536-12.672-23.808-12.672-42.816 0-17.664 4.16-30.976 12.512-39.936 8.32-8.96 19.584-13.44 33.728-13.44 9.344 0 17.12 2.24 23.36 6.816 6.24 4.576 10.496 10.784 12.736 18.656l32.16-6.016c-3.2-14.72-10.4-26.24-21.6-34.624-11.2-8.32-26.72-12.512-46.656-12.512-15.296 0-28.096 2.656-38.4 8a70.72 70.72 0 0 0-30.72 29.824c-6.976 12.992-10.496 27.84-10.496 44.544 0 15.36 3.136 29.6 9.408 42.688 6.272 13.12 15.648 23.168 28.128 30.208 12.48 7.04 27.072 10.56 43.84 10.56 13.216 0 26.24-2.528 39.104-7.52 12.864-4.992 22.72-10.752 29.472-17.312v-63.904h-69.76v27.04z m93.056-20.256c0 25.536 7.04 45.568 21.12 60.128 14.08 14.528 33.024 21.792 56.864 21.792 23.552 0 42.368-7.296 56.448-21.92 14.08-14.624 21.12-34.88 21.12-60.768 0-26.08-7.104-46.464-21.28-61.12-14.176-14.656-33.088-21.984-56.704-21.984a88 88 0 0 0-34.56 6.336 62.4 62.4 0 0 0-20.736 14.432 75.456 75.456 0 0 0-14.944 21.984c-4.864 11.104-7.328 24.8-7.328 41.12z m33.376-1.088c0-18.432 4.064-32.256 12.256-41.376 8.16-9.152 18.88-13.76 32.256-13.76 13.344 0 24.032 4.544 32.096 13.568 8.064 9.056 12.096 22.752 12.096 41.152 0 18.56-4.16 32.512-12.416 41.824a40.64 40.64 0 0 1-31.776 13.952 40.96 40.96 0 0 1-31.936-14.08c-8.384-9.344-12.576-23.104-12.576-41.28z" fill="#708294" p-id="37559"></path></svg>