<svg xmlns="http://www.w3.org/2000/svg" viewBox="0 0 1024 1024" version="1.1"><path d="M303.07297 376.645818a31.030303 31.030303 0 0 1 31.030303-31.030303h88.777697l-0.155152-60.602182a31.030303 31.030303 0 0 1 31.030303-31.030303h38.384485v-31.030303a31.030303 31.030303 0 0 1 31.030303-31.030303h74.534788a31.030303 31.030303 0 0 1 31.030303 31.030303v31.030303h29.882182a31.030303 31.030303 0 0 1 31.030303 31.030303l0.06206 91.632485h78.78594a31.030303 31.030303 0 0 1 23.986424 11.357091l113.198546 132.499394v363.799273a31.030303 31.030303 0 0 1-31.030303 31.030303H148.355879a31.030303 31.030303 0 0 1-31.030303-31.030303V523.23297l115.122424-135.199031a31.030303 31.030303 0 0 1 24.017455-11.388121h46.607515z" fill="#FFFFFF" p-id="20500"></path><path d="M698.181818 402.245818v124.121212h183.078788l-102.803394-124.121212H698.181818z m0-31.030303h80.151273a31.030303 31.030303 0 0 1 23.986424 11.357091L915.393939 520.471273v378.259394a31.030303 31.030303 0 0 1-31.030303 31.030303H139.636364a31.030303 31.030303 0 0 1-31.030303-31.030303V523.23297l115.122424-140.629334a31.030303 31.030303 0 0 1 23.986424-11.388121H294.787879a31.030303 31.030303 0 0 1 31.030303-31.030303h93.090909v-62.060606a31.030303 31.030303 0 0 1 31.030303-31.030303h31.030303v-31.030303a31.030303 31.030303 0 0 1 31.030303-31.030303h31.030303V139.636364a15.515152 15.515152 0 1 1 31.030303 0v45.397333h31.030303a31.030303 31.030303 0 0 1 31.030303 31.030303v31.030303h31.030303a31.030303 31.030303 0 0 1 31.030303 31.030303v93.090909z m-403.393939 31.030303H247.373576l-100.848485 124.121212H294.787879v-124.121212z m31.030303 124.121212h93.090909v-155.151515h-93.090909v155.151515z m124.121212 0h217.212121v-248.242424h-217.212121v248.242424z m434.424242 31.030303H139.636364v341.333334h744.727272v-341.333334z m-279.272727-310.30303v-31.030303h-93.090909v31.030303h93.090909z m-76.706909 555.535515l44.373333-43.845818a15.515152 15.515152 0 0 1 21.814303 22.093576l-81.423515 80.430545-85.364363-80.182303a15.515152 15.515152 0 1 1 21.224727-22.621091l48.345212 45.428364v-168.96a15.515152 15.515152 0 1 1 31.030303 0v167.656727z" fill="#5A6978" p-id="20501"></path><path d="M480.969697 309.154909h155.151515v31.030303h-155.151515v-31.030303z m0 62.060606h155.151515v31.030303h-155.151515v-31.030303z m0 62.060606h155.151515v31.030303h-155.151515v-31.030303z m-124.121212-31.030303h31.030303v31.030303h-31.030303v-31.030303z m0 62.060606h31.030303v31.030303h-31.030303v-31.030303z" fill="#BC9A72" p-id="20502"></path></svg>