<svg xmlns="http://www.w3.org/2000/svg" viewBox="0 0 1024 1024" version="1.1"><path d="M96 96m32 0l768 0q32 0 32 32l0 768q0 32-32 32l-768 0q-32 0-32-32l0-768q0-32 32-32Z" fill="#FFFFFF" p-id="19000"></path><path d="M928 448a160 160 0 0 0 0 320v128a32 32 0 0 1-32 32h-259.2a160.064 160.064 0 0 0-313.6 0H256.512a240 240 0 0 1 239.488-224c36.864 0 55.712 2.112 96.256 12.704s80.32-26.24 80.32-60.704c0.256-9.216-0.576-29.312-0.576-32 0-5.504 0.192-10.944 0.544-16.352 0.832-5.696 1.76-11.424 1.792-17.184A240.064 240.064 0 0 1 928 384.512V448z" fill="#ACB4C0" p-id="19001"></path><path d="M96 767.872V128a32 32 0 0 1 32-32h594.4A494.144 494.144 0 0 1 768 304C768 577.92 545.92 800 272 800c-61.984 0-121.28-11.36-176-32.128z" fill="#D1E0F1" p-id="19002"></path><path d="M96 646.976V128a32 32 0 0 1 32-32h455.872A367.04 367.04 0 0 1 704 368C704 571.232 539.232 736 336 736A366.56 366.56 0 0 1 96 646.976z" fill="#81C3E3" p-id="19003"></path><path d="M96 560.128V303.872a272 272 0 1 1 0 256.224z" fill="#27A2DF" p-id="19004"></path><path d="M352 448m-160 0a160 160 0 1 0 320 0 160 160 0 1 0-320 0Z" fill="#FFFFFF" p-id="19005"></path><path d="M832 576h64v64h-64v-64z m-384 288h64v64h-64v-64zM352 448h64v64H352v-64z" fill="#5D6D7E" p-id="19006"></path><path d="M128 96h768a32 32 0 0 1 32 32v768a32 32 0 0 1-32 32H128a32 32 0 0 1-32-32V128a32 32 0 0 1 32-32z m0 32v768h768V128H128z" fill="#5D6D7E" p-id="19007"></path></svg>