<svg xmlns="http://www.w3.org/2000/svg" viewBox="0 0 1024 1024" version="1.1"><path d="M112 112m48 0l704 0q48 0 48 48l0 704q0 48-48 48l-704 0q-48 0-48-48l0-704q0-48 48-48Z" fill="#FFFFFF" p-id="27631"></path><path d="M128 96h768a32 32 0 0 1 32 32v768a32 32 0 0 1-32 32H128a32 32 0 0 1-32-32V128a32 32 0 0 1 32-32z m0 32v768h768V128H128z" fill="#5D6D7E" p-id="27632"></path><path d="M160.832 640V365.12h32.192v136.32l136.48-136.32h49.312l-115.296 111.36L383.872 640h-48l-97.856-139.136-44.992 43.872V640H160.832z m255.872 0V365.12h50.56l65.056 194.624c5.984 18.144 10.368 31.68 13.12 40.704 3.136-10.016 8-24.704 14.624-44.064l65.824-191.264h46.912V640h-33.056V409.92L559.872 640h-32.8l-79.52-234.016V640h-30.848z m287.552 0V365.12h32.256v242.432h128.32V640h-160.576z" fill="#27A2DF" p-id="27633"></path></svg>