<svg xmlns="http://www.w3.org/2000/svg" viewBox="0 0 1024 1024" version="1.1"><path d="M864 432H256.224l582.56-200.576a16 16 0 0 0 9.92-20.352l-31.264-90.784a16 16 0 0 0-20.32-9.92L131.456 339.584a16 16 0 0 0-9.92 20.352l26.208 76.064-2.464 5.696A15.904 15.904 0 0 0 144 448v448a16 16 0 0 0 16 16h704a16 16 0 0 0 16-16V448a16 16 0 0 0-16-16z" fill="#FFFFFF" p-id="36323"></path><path d="M157.12 475.616l2.88 17.888V512h81.792l64-64H265.184l1.504-2.688-88.32 30.4a31.872 31.872 0 0 1-21.216-0.096zM351.872 416H864a32 32 0 0 1 32 32v448a32 32 0 0 1-32 32H160a32 32 0 0 1-32-32V427.808l-21.568-62.688a32 32 0 0 1 19.84-40.64l665.6-229.216a32 32 0 0 1 40.704 19.84l31.264 90.752a32 32 0 0 1-19.84 40.672L351.84 416zM864 544H160v352h704V544z m-512.96-96l-64 64h178.752l64-64H351.04z m224 0l-64 64h178.752l64-64H575.04z m224 0l-64 64H864v-64h-64.96zM304.48 296.96L136.64 354.688l31.264 90.752 77.024-26.496 59.52-122.048z m42.784-14.752l-59.52 122.016 168.992-58.176L516.256 224 347.264 282.24z m211.776-72.96l-59.52 122.048 169.024-58.176 59.52-122.048L559.04 209.28z m211.808-72.896l-59.52 122.016 122.24-42.08-31.264-90.784-31.456 10.848z" fill="#5D6D7E" p-id="36324"></path><path d="M336 672.032v-63.68h32V672h400.416v32H368v64.096h400.416v32H368v32.544h-32v-32.544H256v-32h80v-64.096H256v-32z" fill="#C49F74" p-id="36325"></path></svg>