<svg xmlns="http://www.w3.org/2000/svg" viewBox="0 0 1024 1024" version="1.1"><path d="M823.68 584.224L960 660 869.344 800l-30.24-28H832V960h-288v-54.528L512 928 96 640l92.448-64L96 512l99.936-69.184L114.88 384 512 109.056 914.56 384l-84.32 60.32L928 512l-104.32 72.224z" fill="#FFFFFF" p-id="26054"></path><path d="M384 672.48v38.912L96 512l71.264-49.312 27.936 19.552-42.976 29.76L384 672.48z m462.144-142.72l25.632-17.76-42.976-29.76 27.936-19.552L928 512l-51.456 35.616-30.4-17.888z" fill="#808FA1" p-id="26055"></path><path d="M493.312 876.16v38.912L96 640l48.256-33.408 27.968 19.552-20 13.856 341.088 236.16z" fill="#ACB4C0" p-id="26056"></path><path d="M453.504 592.576l-28.832 18.976L96 384l416-288 416 288-256.448 177.536a155.776 155.776 0 0 1-43.136-9.056L871.776 384 512 134.912 152.224 384l301.28 208.576z" fill="#5D6D7E" p-id="26057"></path><path d="M832 772V960h-288v-188h-7.104l-30.24 28L416 688l151.104-112c40.32 37.344 80.608 56 120.896 56 40.32 0 80.608-18.656 120.896-56L960 660 869.344 800l-30.24-28H832zM800 928v-188h51.648l11.52 10.656 51.36-79.328-101.664-56.512c-40.32 32.416-82.048 49.184-124.864 49.184-41.92 0-82.784-16.064-122.304-47.136l-103.808 76.96 48.128 59.456 14.336-13.28H576V928h224z" fill="#27A2DF" p-id="26058"></path></svg>