<svg xmlns="http://www.w3.org/2000/svg" viewBox="0 0 1024 1024" version="1.1"><path d="M743.104 768H736v4.928L512 928 96 640l92.448-64L96 512l92.448-64L96 384l416-288 416 288-92.448 64L928 512l-92.448 64L928 640l-184.896 128z" fill="#FFFFFF" p-id="13779"></path><path d="M429.536 800h-56.192L96 608l48.256-33.408 27.968 19.552-20 13.856 277.312 192z m164.928 0l277.312-192-20-13.856 27.968-19.552L928 608l-277.344 192h-56.192z" fill="#ACB4C0" p-id="13780"></path><path d="M195.2 450.24L152.224 480 512 729.088 871.776 480l-42.976-29.76 27.936-19.552L928 480l-416 288-416-288 71.264-49.312 27.936 19.552z" fill="#C49F74" p-id="13781"></path><path d="M512 96l416 288-416 288-416-288 416-288z m0 38.912L152.224 384 512 633.088 871.776 384 512 134.912z" fill="#5D6D7E" p-id="13782"></path><path d="M736 832v32H96v-32h640z m96 0h96v32h-96v-32z" fill="#808FA1" p-id="13783"></path><path d="M736 768h96v160h-96v-160z m32 32v96h32v-96h-32z" fill="#30AD98" p-id="13784"></path></svg>