<svg xmlns="http://www.w3.org/2000/svg" viewBox="0 0 1024 1024" version="1.1"><path d="M195.968 442.784L109.248 384 512 106.24l401.408 275.424-87.232 59.84L928 512l-92.448 64L928 640l-416 288-416-288 92.448-64L96 512l99.968-69.216z" fill="#FFFFFF" p-id="27242"></path><path d="M195.2 482.24L152.224 512 512 761.088 871.776 512l-42.976-29.76 27.936-19.552L928 512l-416 288-416-288 71.264-49.312 27.936 19.552z" fill="#808FA1" p-id="27243"></path><path d="M172.224 626.144L152.224 640 512 889.088 871.776 640l-20-13.856 27.968-19.552L928 640l-416 288-416-288 48.256-33.408 27.968 19.552z" fill="#ACB4C0" p-id="27244"></path><path d="M512 96l416 288-416 288-416-288 416-288z m0 38.912L152.224 384 512 633.088 871.776 384 512 134.912z" fill="#5D6D7E" p-id="27245"></path></svg>