<svg xmlns="http://www.w3.org/2000/svg" viewBox="0 0 1024 1024" version="1.1"><path d="M160 96.032h705.472a32 32 0 0 1 32 30.496L928 768v128a32 32 0 0 1-32 32l-736 0.032a32 32 0 0 1-32-32v-768a32 32 0 0 1 32-32z" fill="#FFFFFF" p-id="46223"></path><path d="M777.888 896l36.096 32H128a32 32 0 0 1-32-32V128a32 32 0 0 1 32-32h768a32 32 0 0 1 32 32v678.048l-32-29.248V128H128v768h649.888z m-41.824-175.936c11.808-5.344 26.176-3.2 35.936 6.464l148.32 146.944a31.84 31.84 0 0 1 0.224 45.056l-0.096 0.096a32.16 32.16 0 0 1-45.376 0.096l-148.352-146.944a31.776 31.776 0 0 1-9.312-25.12l-38.784-38.784a16 16 0 1 1 22.624-22.624l34.816 34.816z" fill="#5D6D7E" p-id="46224"></path><path d="M192 416h192v448H192V416z m256 0h384v448H448V416zM192 192h640v160H192V192z" fill="#CDD1D7" opacity=".2" p-id="46225"></path><path d="M231.136 416H384v322.048A288 288 0 0 1 231.136 416zM256 480a255.776 255.776 0 0 0 96 199.904V448H257.984A258.88 258.88 0 0 0 256 480z m544 0a288 288 0 0 1-352 280.864V416h344.864A288.96 288.96 0 0 1 800 480z m-320-32v286.016A256 256 0 0 0 766.016 448H480z m-226.048-96A288 288 0 0 1 512 192a288 288 0 0 1 258.048 160H253.952zM512 224a255.776 255.776 0 0 0-199.904 96h399.808A255.776 255.776 0 0 0 512 224z" fill="#30AD98" p-id="46226"></path><path d="M512 768a288 288 0 1 0 0-576 288 288 0 0 0 0 576z m0-32a256 256 0 1 1 0-512 256 256 0 0 1 0 512z" fill="#808FA1" p-id="46227"></path></svg>