<svg xmlns="http://www.w3.org/2000/svg" viewBox="0 0 1024 1024" version="1.1"><path d="M112 112m32 0l736 0q32 0 32 32l0 736q0 32-32 32l-736 0q-32 0-32-32l0-736q0-32 32-32Z" fill="#FFFFFF" p-id="18060"></path><path d="M128 96h768a32 32 0 0 1 32 32v768a32 32 0 0 1-32 32H128a32 32 0 0 1-32-32V128a32 32 0 0 1 32-32z m0 32v768h768V128H128z" fill="#5D6D7E" p-id="18061"></path><path d="M800 384V256H224v544h576V416H448v384h-32V416H224V384h576zM224 224h576a32 32 0 0 1 32 32v544a32 32 0 0 1-32 32H224a32 32 0 0 1-32-32V256a32 32 0 0 1 32-32z" fill="#C49F74" p-id="18062"></path></svg>