<svg xmlns="http://www.w3.org/2000/svg" viewBox="0 0 1024 1024" version="1.1"><path d="M112 112m32 0l736 0q32 0 32 32l0 736q0 32-32 32l-736 0q-32 0-32-32l0-736q0-32 32-32Z" fill="#FFFFFF" p-id="45124"></path><path d="M128 96h768a32 32 0 0 1 32 32v768a32 32 0 0 1-32 32H128a32 32 0 0 1-32-32V128a32 32 0 0 1 32-32z m0 32v768h768V128H128z m192 384v-32h352v32H320z" fill="#5D6D7E" p-id="45125"></path><path d="M736 401.312a96.64 96.64 0 0 0-32 0V288h-192v160h-32V288H288v113.312a96.64 96.64 0 0 0-32 0V288H128V256h128V128h32v128h192V128h32v128h192V128h32v128h160v32h-160v113.312zM814.688 480H896v32h-81.312a96.64 96.64 0 0 0 0-32zM736 590.688V704h160v32h-160v160h-32v-160h-192v160h-32v-160H288v160H256v-160H128v-32h128v-113.312a96.64 96.64 0 0 0 32 0V704h192v-160h32v160h192v-113.312a96.64 96.64 0 0 0 32 0zM177.312 512H128v-32h49.312a96.64 96.64 0 0 0 0 32z" fill="#ACB4C0" fill-opacity=".5" p-id="45126"></path><path d="M720 560a64 64 0 1 0 0-128 64 64 0 0 0 0 128z m0-32a32 32 0 1 1 0-64 32 32 0 0 1 0 64z" fill="#30AD98" p-id="45127"></path><path d="M272 560a64 64 0 1 0 0-128 64 64 0 0 0 0 128z m0-32a32 32 0 1 1 0-64 32 32 0 0 1 0 64z" fill="#27A2DF" p-id="45128"></path></svg>