<svg xmlns="http://www.w3.org/2000/svg" viewBox="0 0 1024 1024" version="1.1"><path d="M112 112m32 0l736 0q32 0 32 32l0 736q0 32-32 32l-736 0q-32 0-32-32l0-736q0-32 32-32Z" fill="#FFFFFF" p-id="48542"></path><path d="M128 96h768a32 32 0 0 1 32 32v768a32 32 0 0 1-32 32H128a32 32 0 0 1-32-32V128a32 32 0 0 1 32-32z m0 32v768h768V128H128z" fill="#5D6D7E" p-id="48543"></path><path d="M160 224h704v32H160z" fill="#C49F74" p-id="48544"></path><path d="M288 608v32H160v-32h128z m64 0h128v32H352v-32z m192 0h128v32h-128v-32z m192 0h128v32h-128v-32z" fill="#27A2DF" p-id="48545"></path><path d="M224 416v32H160v-32h64z m32 0h32v32H256v-32z m64 0h64v32H320v-32z m96 0h32v32h-32v-32z m64 0h64v32h-64v-32z m96 0h32v32h-32v-32z m64 0h64v32h-64v-32z m96 0h32v32h-32v-32z m64 0h64v32h-64v-32z" fill="#ACB4C0" p-id="48546"></path><path d="M160 768h704v64H160z" fill="#30AD98" p-id="48547"></path></svg>