<svg xmlns="http://www.w3.org/2000/svg" viewBox="0 0 1024 1024" version="1.1"><path d="M124.288 690.112c7.136-1.12 12.48-2.944 16.032-5.472a30.4 30.4 0 0 0 9.024-10.56c2.432-4.48 4.672-9.984 6.72-16.448 2.08-6.464 5.184-18.976 9.28-37.536l47.84-216.576c1.856-8.64 3.36-16.896 4.48-24.864 1.12-8 1.696-14.784 1.696-20.416 0-8.8-2.24-14.944-6.752-18.4-4.48-3.488-11.424-5.504-20.8-6.08L194.88 320h112.512l-3.104 13.76c-7.104 1.536-12.224 3.2-15.328 5.088a27.776 27.776 0 0 0-8.416 8.448c-2.56 3.744-5.088 9.6-7.616 17.568-2.528 7.968-5.76 20.96-9.696 38.944l-60.16 274.24h69.152c12.576 0 22.464-1.248 29.696-3.68 7.2-2.432 14.048-6.88 20.512-13.344 6.464-6.464 12.8-15.232 18.976-26.304 6.208-11.072 12.48-24.832 18.88-41.344h27.264l-28.416 110.528H121.216l3.072-13.76z m522.08 13.792h-78.752l31.744-127.008c1.984-8.16 3.968-17.152 5.888-26.976 1.92-9.856 2.88-18.688 2.88-26.528 0-11.84-2.048-20.32-6.144-25.472-4.096-5.184-10.464-7.776-19.136-7.776-6.976 0-14.528 2.72-22.624 8.128-8.064 5.44-16.544 13.504-25.376 24.256s-16.288 21.664-22.368 32.768c-6.08 11.072-10.784 24.512-14.112 40.352l-22.752 108.256H432.32l38.016-170.752c0.832-3.84 1.92-9.504 3.36-16.992 1.408-7.488 2.144-13.76 2.144-18.752a22.88 22.88 0 0 0-2.144-10.88 12.864 12.864 0 0 0-7.232-5.76c-3.424-1.248-9.216-2.112-17.376-2.624l2.976-13.248 56.768-2.24h14.24l-16.736 64.992 2.976 1.024c16.32-23.04 32.096-40.064 47.264-51.136 15.168-11.104 30.336-16.64 45.504-16.64 16.16 0 28.416 4.48 36.736 13.376 8.32 8.928 12.512 22.144 12.512 39.648 0 5.984-0.544 12.512-1.6 19.616a225.6 225.6 0 0 1-3.648 18.88l-20.992 88.96c-2.848 12.032-4.256 21.536-4.256 28.544 0 4.992 0.832 8.896 2.496 11.744a15.904 15.904 0 0 0 7.744 6.496c3.52 1.504 9.28 2.656 17.28 3.52l-2.016 12.224z m274.752-226.752a2547.68 2547.68 0 0 1-101.504 102.24l23.232 54.752c6.176 14.688 11.104 25.472 14.752 32.384 3.68 6.912 7.008 11.904 10.016 15.008a31.744 31.744 0 0 0 8.992 6.72c3.008 1.44 7.744 2.56 14.24 3.392l-2.752 12.256h-62.24l-34.752-100.48c-4 3.488-9.28 8.352-15.872 14.592a291.2 291.2 0 0 0-19.136 20c-6.144 7.104-10.496 12.8-12.992 17.152a43.584 43.584 0 0 0-4.864 11.232c-0.768 3.2-1.12 6.4-1.12 9.76 0 4.32 1.184 7.744 3.616 10.24 2.4 2.496 6.528 4.256 12.384 5.248l-2.752 12.256h-71.264l-4.736-12.256a2206.112 2206.112 0 0 1 107.744-108.256l-23.744-55.744a461.44 461.44 0 0 0-11.744-25.856 72.192 72.192 0 0 0-8.64-13.76 29.12 29.12 0 0 0-9.504-7.488 43.52 43.52 0 0 0-15.36-3.392l2.752-12.256h62.24l33.248 94.272c8.16-7.52 15.904-15.264 23.264-23.264 7.328-8 12.48-14.336 15.488-19.008 3.008-4.672 5.088-8.832 6.24-12.48 1.184-3.68 1.76-7.52 1.76-11.52 0-9.152-5.344-14.4-16-15.744l2.752-12.256h71.232l5.024 12.256z" fill="#5D6D7E" p-id="39069"></path></svg>