<svg xmlns="http://www.w3.org/2000/svg" viewBox="0 0 1024 1024" version="1.1"><path d="M282.56 128H928v800H192a96 96 0 0 1-96-96V160a96 96 0 0 1 186.56-32z" fill="#FFFFFF" p-id="13384"></path><path d="M528 896c8.64 11.52 18.304 22.24 28.8 32H192a96 96 0 0 1-96-96V160a96 96 0 0 1 186.56-32H928v504.192a240.8 240.8 0 0 0-32-43.36V160H288v672H256a64 64 0 1 0-64 64h336z m400-24.192V928h-44.8a241.024 241.024 0 0 0 44.8-56.192z m-800-111.36A95.648 95.648 0 0 1 192 736c24.576 0 47.04 9.248 64 24.448V148.928l-3.648-10.24A64.032 64.032 0 0 0 128 160v600.448z" fill="#5D6D7E" p-id="13385"></path><path d="M716.448 554.944a222.656 222.656 0 0 0-67.616 16.768 1337.6 1337.6 0 0 0-102.592-14.816 542.976 542.976 0 0 1-58.944-9.664L544 528l2.912-3.232 2.848 0.32c23.168 2.56 44.48 5.28 64.032 8.224 98.688-102.656 192.384-154.624 281.504-154.624v32c-74.56 0-155.68 42.688-242.976 129.12 24.832 4.64 46.112 9.696 64.128 15.136z m-311.36-71.36l-22.816 23.68c-41.696-24.64-73.184-57.728-94.272-99.104V259.84c0.448 106.336 38.976 180.544 117.056 223.776z" fill="#D5D9DF" p-id="13386"></path><path d="M520.16 365.472l116.48-83.744 39.648 119.84-57.76-30.72-5.536 18.816c-25.472 86.56-57.632 127.456-93.92 127.456-55.712 0-91.52 52.64-110.208 151.936l31.456 5.888c16.16-85.888 43.328-125.824 78.752-125.824 51.328 0 90.24-45.216 118.784-131.744l93.856 49.92-78.4-237.024-232.448 167.2h113.28c-33.92 51.232-67.456 74.336-100.16 71.616-53.92-4.48-87.776 26.08-97.76 86.08l31.552 5.248c7.424-44.48 27.328-62.432 63.584-59.424 52.704 4.352 100.864-33.984 145.216-111.552l13.696-23.968h-70.08z" fill="#808FA1" p-id="13387"></path><path d="M895.296 768a175.296 175.296 0 0 1-44.384 101.632l-45.376-45.344c13.248-15.68 22.272-35.008 25.344-56.288h-42.816l76.192-95.104L945.6 768h-50.304zM736 862.88a111.36 111.36 0 0 0 45.568-17.28l45.856 45.824A175.104 175.104 0 0 1 736 927.264v-64.384z m54.528-197.888A111.488 111.488 0 0 0 736 641.12v-64.416a175.264 175.264 0 0 1 99.936 42.88l-45.408 45.44zM704 641.12a111.52 111.52 0 0 0-56.32 25.344l-45.312-45.376A175.296 175.296 0 0 1 704 576.704v64.416z m-77.568 49.28a111.36 111.36 0 0 0-17.28 45.6h-64.448c3.104-34.24 16-65.664 35.872-91.424l45.856 45.856zM609.152 768c2.912 20.48 11.392 39.2 23.84 54.528l-45.408 45.44A175.264 175.264 0 0 1 544.704 768h64.416z m47.36 76.288c13.888 9.568 30.048 16.096 47.488 18.56v64.448a175.136 175.136 0 0 1-93.216-37.28l45.728-45.76z" fill="#27A2DF" p-id="13388"></path></svg>