<svg xmlns="http://www.w3.org/2000/svg" viewBox="0 0 1024 1024" version="1.1"><path d="M96 96m48 0l736 0q48 0 48 48l0 736q0 48-48 48l-736 0q-48 0-48-48l0-736q0-48 48-48Z" fill="#FFFFFF" p-id="24720"></path><path d="M896 624.896V128H128v768h496.896c10.88 12.16 23.296 22.944 36.928 32H128a32 32 0 0 1-32-32V128a32 32 0 0 1 32-32h768a32 32 0 0 1 32 32v533.824a193.024 193.024 0 0 0-32-36.928z m32 249.28V896a32 32 0 0 1-32 32h-21.824A193.056 193.056 0 0 0 928 874.176z" fill="#5D6D7E" p-id="24721"></path><path d="M256 256h96v504H256z" fill="#27A2DF" p-id="24722"></path><path d="M384 512h96v248H384z" fill="#ACB4C0" p-id="24723"></path><path d="M608 661.824a190.944 190.944 0 0 0-27.744 65.728H512V352h96v309.824z" fill="#30AD98" p-id="24724"></path><path d="M736 578.656a191.36 191.36 0 0 0-96 46.24V416h96v162.656z m-157.024 223.232c1.856 10.336 4.512 20.416 7.936 30.112H224v-32h352l2.976 1.888z" fill="#808FA1" p-id="24725"></path><path d="M784 688a16 16 0 1 1-32 0v-64a16 16 0 1 1 32 0v64z m0 224.832a16 16 0 1 1-32 0v-64a16 16 0 0 1 32 0v64z m64.416-128.416a16 16 0 0 1 0-32h64a16 16 0 1 1 0 32h-64z m-224.8 0a16 16 0 0 1 0-32h64a16 16 0 1 1 0 32h-64z m212.576-61.536a16 16 0 1 1-22.624-22.656l45.248-45.248a16 16 0 1 1 22.624 22.624l-45.248 45.28z m-158.976 158.944a16 16 0 0 1-22.624-22.624l45.248-45.248a16 16 0 0 1 22.624 22.624l-45.248 45.248z m136.32-45.248a16 16 0 0 1 22.656-22.624l45.248 45.248a16 16 0 0 1-22.624 22.624l-45.248-45.248z m-158.944-158.976a16 16 0 0 1 22.624-22.624l45.248 45.248a16 16 0 1 1-22.624 22.656l-45.248-45.28z" fill="#C49F74" p-id="24726"></path></svg>