<svg xmlns="http://www.w3.org/2000/svg" viewBox="0 0 1024 1024" version="1.1"><path d="M530.24 731.008c-3.2 3.84-5.856 7.616-8 11.36-2.176 3.744-3.744 7.36-4.64 10.88-0.928 3.52-1.376 7.68-1.376 12.48 0 12.512 4.48 21.632 13.504 27.392 8.992 5.76 22.56 8.64 40.736 8.64 16.512 0 30.24-2.912 41.28-8.768 10.976-5.824 20.32-14.784 27.968-26.88 7.68-12.064 14.4-26.976 20.16-44.736 5.728-17.76 11.584-41.472 17.6-71.136l-3.52-0.736c-16.16 22.176-31.136 38.336-44.992 48.48a74.08 74.08 0 0 1-44.736 15.264c-18.176 0-32.32-6.816-42.368-20.48-10.08-13.696-15.136-33.184-15.136-58.528 0-18.496 2.4-36.736 7.264-54.72a191.04 191.04 0 0 1 20.224-48.768c8.672-14.496 18.464-26.56 29.376-36.128 10.912-9.6 22.464-16.704 34.624-21.376 12.16-4.672 24.832-7.008 38.016-7.008 10.496 0 20.416 1.28 29.76 3.744 9.312 2.528 18.72 6.752 28.224 12.768l23.04-16.512 16 4-26.016 117.248c-1.856 8.32-3.776 17.76-5.76 28.256l-6.496 32.768c-7.84 39.328-14.08 66.4-18.752 81.248-5.664 17.152-12.352 31.488-20 42.976-7.168 10.528-15.68 19.296-25.504 26.4a112.704 112.704 0 0 1-34.112 16.352c-12.928 3.84-28.16 5.76-45.632 5.76-63.008 0-94.496-18.336-94.496-55.008 0-9.312 2.816-17.824 8.48-25.504 5.664-7.68 14.752-15.744 27.264-24.224l17.984 14.496z m71.744-47.264c8.48 0 16.96-2.912 25.344-8.736 8.448-5.856 17.44-15.104 27.008-27.744 9.6-12.672 17.056-24.768 22.4-36.256 5.312-11.52 9.856-25.856 13.6-43.008a213.76 213.76 0 0 0 5.632-44.736c0-13.024-2.752-22.464-8.256-28.384-5.504-5.92-14.656-8.864-27.52-8.864-6.976 0-13.632 1.12-19.968 3.36-6.336 2.24-12.768 5.984-19.264 11.264a98.784 98.784 0 0 0-18.624 20.608 153.376 153.376 0 0 0-16.128 31.008 215.68 215.68 0 0 0-11.232 39.104 215.68 215.68 0 0 0-4 40.64c0 17.344 2.496 30.304 7.488 38.88 4.992 8.576 12.832 12.864 23.52 12.864z m139.072 259.52c3.84 0 6.848-0.192 8.992-0.608a17.056 17.056 0 0 0 5.248-1.792 18.816 18.816 0 0 0 4.192-3.52 29.568 29.568 0 0 0 4-5.44 123.84 123.84 0 0 0 4.608-9.248h14.528l-11.552 45.632h-122.496l1.536-7.52c6.08-10.816 13.952-22.176 23.68-34.048 9.76-11.872 22.944-25.728 39.616-41.568 13.952-13.216 23.584-22.592 28.896-28.128 9.472-9.6 16.736-17.856 21.728-24.832 4.992-6.976 8.544-13.504 10.624-19.52 2.08-6.08 3.136-12.192 3.136-18.464 0-8.736-2.496-15.488-7.424-20.224-4.96-4.736-12-7.104-21.184-7.104-8.544 0-16.224 2.56-23.04 7.68-6.816 5.088-12.32 12.32-16.48 21.696h-20.16l6.72-30.016a216.608 216.608 0 0 1 32.736-10.368 137.92 137.92 0 0 1 30.08-3.36c10.208 0 19.04 1.696 26.464 5.056 7.456 3.392 13.088 8.096 16.896 14.08 3.808 5.984 5.696 12.576 5.696 19.744 0 6.784-0.832 12.96-2.496 18.56a65.792 65.792 0 0 1-7.808 16.64 168.96 168.96 0 0 1-20.16 23.872 982.4 982.4 0 0 1-40.16 37.344c-26.048 23.36-44.128 41.824-54.208 55.488h57.792z m278.656-460.512a2547.68 2547.68 0 0 1-101.504 102.24l23.232 54.752c6.176 14.688 11.104 25.472 14.752 32.384 3.68 6.912 7.04 11.904 10.016 15.008a31.744 31.744 0 0 0 8.992 6.72c3.008 1.44 7.744 2.56 14.24 3.392l-2.752 12.256H924.48l-34.752-100.48c-4 3.488-9.28 8.352-15.872 14.592a291.2 291.2 0 0 0-19.136 20c-6.144 7.104-10.496 12.8-12.992 17.12a43.584 43.584 0 0 0-4.864 11.264c-0.768 3.168-1.12 6.4-1.12 9.76 0 4.32 1.184 7.744 3.616 10.24 2.432 2.496 6.528 4.256 12.384 5.248l-2.752 12.256h-71.264l-4.736-12.256a2206.08 2206.08 0 0 1 107.744-108.256l-23.744-55.744a461.44 461.44 0 0 0-11.744-25.888 72.192 72.192 0 0 0-8.64-13.76 29.12 29.12 0 0 0-9.504-7.488 43.52 43.52 0 0 0-15.36-3.36l2.752-12.256h62.24l33.248 94.24c8.16-7.488 15.904-15.232 23.264-23.232 7.328-8 12.48-14.336 15.488-19.008 3.008-4.672 5.088-8.832 6.24-12.48 1.184-3.68 1.76-7.52 1.76-11.52 0-9.152-5.344-14.4-16-15.744l2.752-12.256h71.232l5.024 12.256z m-1016.64 207.36c7.136-1.12 12.48-2.944 16.064-5.472a30.4 30.4 0 0 0 8.96-10.56c2.464-4.48 4.704-9.984 6.784-16.448 2.048-6.464 5.152-18.976 9.28-37.536l47.808-216.576c1.888-8.64 3.36-16.896 4.48-24.864 1.152-8 1.696-14.784 1.696-20.416 0-8.8-2.24-14.944-6.72-18.4-4.512-3.488-11.456-5.504-20.8-6.08l3.072-13.76h112.48l-3.072 13.76c-7.136 1.536-12.256 3.2-15.36 5.088a27.776 27.776 0 0 0-8.416 8.448c-2.56 3.744-5.056 9.6-7.584 17.568-2.56 7.968-5.76 20.96-9.728 38.944l-60.16 274.24H151.04c12.544 0 22.432-1.248 29.664-3.68 7.232-2.432 14.08-6.88 20.544-13.344 6.464-6.464 12.8-15.232 18.976-26.304 6.176-11.072 12.48-24.832 18.848-41.344h27.264l-28.384 110.528H0l3.104-13.76z m366.72 18.048c-25.792 0-45.856-7.264-60.096-21.76-14.24-14.496-21.376-35.328-21.376-62.496 0-9.984 1.28-21.76 3.744-35.232a212.8 212.8 0 0 1 13.504-46.528c7.488-16.832 17.12-31.36 28.864-43.616a120.32 120.32 0 0 1 40.512-28c15.264-6.4 31.616-9.6 49.12-9.6 19.2 0 34.88 3.648 47.136 10.976 12.256 7.36 21.12 17.28 26.624 29.888 5.504 12.576 8.256 27.104 8.256 43.616 0 14.816-2.08 30.656-6.272 47.488-5.984 24.672-14.72 45.6-26.24 62.752a114.88 114.88 0 0 1-43.232 39.136c-17.344 8.928-37.504 13.376-60.512 13.376z m-37.728-73.504c0 18.336 3.808 31.872 11.392 40.64 7.584 8.736 19.04 13.12 34.368 13.12 16.32 0 30.816-7.36 43.52-22.016 12.64-14.656 22.656-35.2 29.984-61.632 7.328-26.4 11.008-49.6 11.008-69.6 0-18.016-3.52-31.552-10.528-40.64-6.976-9.088-17.92-13.632-32.736-13.632-17.344 0-32.448 7.264-45.376 21.76-12.928 14.496-23.072 35.264-30.496 62.24-7.424 27.008-11.136 50.24-11.136 69.76z" fill="#5D6D7E" p-id="39023"></path></svg>