<svg xmlns="http://www.w3.org/2000/svg" viewBox="0 0 1024 1024" version="1.1"><path d="M912 912v-768H271.232l-3.776-10.656A80.032 80.032 0 0 0 112 160v672A80 80 0 0 0 192 912h720z" fill="#FFFFFF" p-id="32366"></path><path d="M128 832a64 64 0 0 0 64 64h704V160H288v672H256a64 64 0 1 0-128 0z m0-71.552A95.648 95.648 0 0 1 192 736c24.576 0 47.04 9.248 64 24.448V148.928l-3.648-10.24A64.032 64.032 0 0 0 128 160v600.448zM282.56 128H928v800H192a96 96 0 0 1-96-96V160a96 96 0 0 1 186.56-32z" fill="#5D6D7E" p-id="32367"></path><path d="M320 736V192h160c85.344 42.656 128 85.344 128 128 0 27.616-82.592 30.496-128 144-64 160-160 272-160 272z m256-128v128c0 21.344-10.656 64-32 128-64-21.344-96-53.344-96-96s42.656-96 128-160z m288-256v512h-128c-74.656-85.344-85.344-160-32-224 53.344-64 53.344-106.656 0-128l160-160z" fill="#30AD98" p-id="32368"></path></svg>