<svg xmlns="http://www.w3.org/2000/svg" viewBox="0 0 1024 1024" version="1.1"><path d="M845.312 858.464L932.576 896 960 928H288l22.88-32 93.376-39.456a381.504 381.504 0 0 1-117.248-44.48C172.768 745.472 103.2 621.696 103.2 480 103.2 267.936 267.936 102.592 480 102.592c212.064 0 377.152 165.344 377.152 377.408 0 58.368-6.176 113.728-29.504 163.264a383.84 383.84 0 0 1-39.296 65.632c8.608-3.168 17.92 0 27.648 0 44.16 0 72.192 30.912 72.192 75.104 0 33.824-13.184 62.752-42.88 74.464z m-96.96-74.464c0-6.944-11.456-13.664-9.824-20.064-16.96 15.424-35.264 29.376-54.784 41.6l64.608 21.184c-7.84-12.384 0-27.008 0-42.72z" fill="#FFFFFF" p-id="49533"></path><path d="M288 800c0 4.352 0.16 8.64 0.512 12.928A383.872 383.872 0 0 1 96 480C96 268 267.904 96 480.032 96 692.064 96 864 268 864 480c0 58.048-12.896 113.12-35.968 162.464a160.96 160.96 0 0 0-34.496-2.336A350.624 350.624 0 0 0 832 479.968C832 285.536 674.4 128 480.032 128 285.6 128 128 285.536 128 479.968c0 124.32 64.448 233.6 161.76 296.224A161.28 161.28 0 0 0 288 800z" fill="#5D6D7E" p-id="49534"></path><path d="M624 576c-15.424 0-30.272 2.432-44.16 6.912-12.928-128.32-84.16-140.384-107.52-144.832-27.232-5.152-49.504-7.744-49.504-41.216s43.328-45.056 59.392-41.152c16.064 3.776 37.088-52.832-19.84-82.4-56.832-29.664-76.64 24.416-88.96 72.096-12.384 47.648-34.656 34.72-39.648-20.608-4.864-55.36-18.464-12.864-29.632 10.304-11.136 23.136-74.24 51.456-79.104 30.912-3.104-12.928 1.536-42.048 5.44-61.92 55.936-85.44 149.44-141.984 255.648-144.032A320.032 320.032 0 0 1 768 340.352c0.288 43.072-21.792 79.808-48.384 87.424-35.84 10.304-29.632 51.456-29.632 51.456 30.976 54.912 21.6 79.936-0.96 112.256-19.52-9.92-41.6-15.488-65.024-15.488zM160.96 505.344c3.68-63.648 16.192-121.344 16.192-121.344s45.28 49.408 88.64 72.128c51.968 27.2 118.208 43.2 118.208 43.2-98.752 78.08-116.288 163.136-118.432 204.672a458.816 458.816 0 0 1-93.824-137.856 318.976 318.976 0 0 1-10.752-60.8z" fill="#ACB4C0" p-id="49535"></path><path d="M680 777.12c43.872 14.72 80 46.208 100.8 86.88h-37.056a143.872 143.872 0 0 0-119.744-64c-49.92 0-93.92 25.408-119.744 64H467.2a176.544 176.544 0 0 1 100.8-86.88 80 80 0 1 1 112.064 0h-0.032zM624 768a48 48 0 1 0 0-96 48 48 0 0 0 0 96z" fill="#30AD98" p-id="49536"></path><path d="M488 841.12c43.872 14.72 80 46.208 100.8 86.88h-37.056a143.872 143.872 0 0 0-119.744-64c-49.92 0-93.92 25.408-119.744 64H275.2a176.544 176.544 0 0 1 100.8-86.88 80 80 0 1 1 112.064 0h-0.032zM432 832a48 48 0 1 0 0-96 48 48 0 0 0 0 96z m440 9.12c43.872 14.72 80 46.208 100.8 86.88h-37.056a143.872 143.872 0 0 0-119.744-64c-49.92 0-93.92 25.408-119.744 64H659.2a176.544 176.544 0 0 1 100.8-86.88 80 80 0 1 1 112.064 0h-0.032zM816 832a48 48 0 1 0 0-96 48 48 0 0 0 0 96z" fill="#27A2DF" p-id="49537"></path></svg>