<svg xmlns="http://www.w3.org/2000/svg" viewBox="0 0 1024 1024" version="1.1"><path d="M928 557.664l21.504 18.336-21.504 18.336V896a32 32 0 0 1-32 32H128a32 32 0 0 1-32-32V128a32 32 0 0 1 32-32h768a32 32 0 0 1 32 32v429.664z" fill="#FFFFFF" p-id="47270"></path><path d="M574.72 751.264L512 813.92v37.248c-42.656-20.608-64-48.32-64-83.168 0-42.656 42.656-96 128-160v128c0 4.256-0.416 9.344-1.28 15.264zM864 499.584L846.304 480l-109.024 108.896c15.392-36.224 4.32-61.856-33.28-76.896l160-160v147.584z m0 149.856V864h-128a371.616 371.616 0 0 1-33.024-43.36L864 649.44zM160 864V160h320c85.344 64 128 117.344 128 160 0 27.616-82.592 30.496-128 144-26.688 66.752-42.368 185.888-136.224 208-37.76 8.896-61.024 110.816-119.776 192-8.352 11.52-29.696 11.52-64 0z" fill="#DBDDE1" p-id="47271"></path><path d="M448 896v32H128a32 32 0 0 1-32-32V128a32 32 0 0 1 32-32h768a32 32 0 0 1 32 32v321.504l-32-30.528V128H128v768h320z m280.896 0H896v-162.976l32-30.528V896a32 32 0 0 1-32 32h-196.224l29.12-32z" fill="#5D6D7E" p-id="47272"></path><path d="M224 320H192V224h96v32H224v64z m0 160v64h64v32H192v-96h32z m224 64h64v-64h32v96h-96v-32z m64-224V256h-64V224h96v96h-32z" fill="#27A2DF" p-id="47273"></path><path d="M769.536 556.384L512 813.92V896h114.304l14.848-15.552-87.776-87.776 22.624-22.656 35.68 35.68 204.576-204.576-46.72-44.736z m22.624-22.624l94.112 90.112 46.784-48.96-91.008-91.04-49.888 49.888z m72 113.248l-24.8-23.744-205.056 205.056 28.96 28.992 200.928-210.304z m-22.112-208.384l135.744 135.776L640 928h-160v-127.36l362.048-362.016z" fill="#C49F74" p-id="47274"></path></svg>