<svg xmlns="http://www.w3.org/2000/svg" viewBox="0 0 1024 1024" version="1.1"><path d="M128 128h768v768H128z" fill="#FFFFFF" p-id="46670"></path><path d="M160 864V160h320c85.344 64 128 117.344 128 160 0 27.616-82.592 30.496-128 144-26.688 66.752-42.368 185.888-136.224 208-37.76 8.896-61.024 110.816-119.776 192-8.352 11.52-29.696 11.52-64 0z m416-256v128c0 21.344-10.656 64-32 128-64-21.344-96-53.344-96-96s42.656-96 128-160z m288-256v512h-128c-74.656-85.344-85.344-160-32-224 53.344-64 53.344-106.656 0-128l160-160z" fill="#CDD1D7" p-id="46671"></path><path d="M128 128v768h768V128H128z m0-32h768a32 32 0 0 1 32 32v768a32 32 0 0 1-32 32H128a32 32 0 0 1-32-32V128a32 32 0 0 1 32-32z" fill="#5D6D7E" p-id="46672"></path><path d="M416 480h-32v-96h96v32h-64v64z m0 128v64h64v32h-96v-96h32z m192 64h64v-64h32v96h-96v-32z m64-192v-64h-64v-32h96v96h-32z" fill="#30AD98" p-id="46673"></path><path d="M529.152 529.152l316.768 90.496c-69.472 31.104-116.8 59.2-141.92 84.352-25.152 25.152-53.248 72.448-84.352 141.92l-90.496-316.8z" fill="#27A2DF" p-id="46674"></path></svg>