<svg xmlns="http://www.w3.org/2000/svg" viewBox="0 0 1024 1024" version="1.1"><path d="M609.6 352a112 112 0 1 1 156.768 0H896a32 32 0 0 1 32 32v512a32 32 0 0 1-32 32H128a32 32 0 0 1-32-32V384a32 32 0 0 1 32-32h481.6z" fill="#FFFFFF" p-id="15108"></path><path d="M593.12 352c6.976 12.032 15.84 22.848 26.24 32H128v512h768V384h-107.328c10.368-9.152 19.232-19.968 26.208-32H896a32 32 0 0 1 32 32v512a32 32 0 0 1-32 32H128a32 32 0 0 1-32-32V384a32 32 0 0 1 32-32h465.12z" fill="#5D6D7E" p-id="15109"></path><path d="M356.576 677.184c-47.68 81.984-123.84 123.68-228.256 123.68v-32c87.36 0 152.288-32.448 194.912-98.432a2653.216 2653.216 0 0 0-196.736-29.568l3.648-31.776c77.184 8.928 147.04 19.52 209.568 31.936 13.44-27.744 23.84-60.096 31.232-97.088H128.32v-32h248.096c5.504-38.272 8.192-80.864 8.064-127.904l32-0.064a912.864 912.864 0 0 1-7.904 128h263.616a1029.76 1029.76 0 0 1 87.04-108.864l23.648 21.536a1021.632 1021.632 0 0 0-71.488 87.296h184.48v32h-206.72c-39.072 59.104-68.032 119.04-86.848 179.776 89.056 46.08 133.856 103.232 133.856 172.288h-32c0-53.952-36.8-101.088-110.72-140.768A575.04 575.04 0 0 0 575.936 896h-32c0-52.384 6.72-104.128 20.16-155.2-53.632-24.416-122.784-45.664-207.52-63.616z m15.136-29.504c80.384 17.44 147.552 38.08 201.44 62.08 17.824-56.096 43.84-111.36 77.984-165.824h-247.808c-7.424 38.944-17.952 73.536-31.616 103.744z" fill="#CDD1D7" p-id="15110"></path><path d="M574.016 399.04A170.048 170.048 0 0 1 512 268C512 172.992 590.784 96 688 96S864 172.992 864 268a169.92 169.92 0 0 1-59.328 128.768L690.816 544l-116.8-144.96zM688 384a112 112 0 1 0 0-224 112 112 0 0 0 0 224z" fill="#30AD98" p-id="15111"></path></svg>