<svg xmlns="http://www.w3.org/2000/svg" viewBox="0 0 1024 1024" version="1.1"><path d="M96 96m32 0l768 0q32 0 32 32l0 544q0 32-32 32l-768 0q-32 0-32-32l0-544q0-32 32-32Z" fill="#FFFFFF" p-id="23729"></path><path d="M160 608V160h320c85.344 64 128 117.344 128 160 0 27.616-82.592 30.496-128 144-15.968 39.904-28 98.56-55.136 144H160z m443.712 0h-57.696A257.76 257.76 0 0 1 544 576c0-42.656 21.344-85.344 64-128v128c0 7.808-1.44 18.464-4.288 32z m261.632 0h-173.056c-30.848-59.2-26.496-112.544 13.056-160 53.312-64 53.312-106.656 0-128l160-160v448z" fill="#ACB4C0" p-id="23730"></path><path d="M128 128v512h768V128H128z m0-32h768c17.664 0 32 9.92 32 22.144v531.712c0 12.224-14.336 22.144-32 22.144H128c-17.664 0-32-9.92-32-22.144V118.144C96 105.92 110.336 96 128 96z" fill="#5D6D7E" p-id="23731"></path><path d="M96 640h832v64H96z" fill="#5D6D7E" p-id="23732"></path><path d="M96 768h832v64H96z" fill="#808FA1" p-id="23733"></path><path d="M96 896h832v32H96z" fill="#ACB4C0" p-id="23734"></path></svg>