<svg xmlns="http://www.w3.org/2000/svg" viewBox="0 0 1024 1024" version="1.1"><path d="M273.792 128H928v800H192v-7.904a90.08 90.08 0 0 1-14.848-5.824C149.76 900.544 122.656 863.584 96 803.392V160c32-55.968 64-83.936 96-83.936 27.264 0 54.528 17.28 81.792 51.936z" fill="#FFFFFF" p-id="30969"></path><path d="M288 160v664.64l-0.32-0.224c0.224 2.528 0.32 5.024 0.32 7.584H256a64 64 0 1 0-64 64h704V160H288z m-32-11.072l-3.648-10.24A64.032 64.032 0 0 0 128 160v600.448A95.648 95.648 0 0 1 192 736c24.576 0 47.04 9.248 64 24.448V148.928zM282.56 128H928v800H192a96 96 0 0 1-96-96V160a96 96 0 0 1 186.56-32z" fill="#5D6D7E" p-id="30970"></path><path d="M640.928 349.44l-2.848-8.032a32 32 0 0 0-62.208 10.592v13.984c0.096 0.64 0.128 1.344 0.128 2.016v192a16 16 0 1 1-32 0v-170.752l-15.488-8.48a32 32 0 0 0-47.296 28.128v262.112l-91.168-92.864-0.288-0.32a21.952 21.952 0 0 0-31.04 0.32 24 24 0 0 0 0 33.6l128.32 130.752 0.32 0.288c1.6 1.536 3.328 2.816 5.216 3.84l3.488 2.08a107.84 107.84 0 0 0 61.664 19.296h160.48a81.792 81.792 0 0 0 81.44-89.568L799.68 672c0.128-1.184 0.192-2.368 0.192-3.552V512A32 32 0 0 0 768 480v144a16 16 0 1 1-32 0V480h-0.128v-96a32 32 0 0 0-49.76-26.624l-14.112 9.472V560a16 16 0 1 1-32 0v-206.112c0-1.6 0.32-3.072 0.928-4.416zM477.76 775.008a53.92 53.92 0 0 1-13.568-10.08l-128.32-130.72a56 56 0 0 1 0-78.464 53.952 53.952 0 0 1 76.992 0l36.32 37.024v-183.84a64 64 0 0 1 94.656-56.192V352a64 64 0 0 1 124.416-21.184A64 64 0 0 1 767.872 384v64a64 64 0 0 1 64 64v156.448c0 2.368-0.128 4.704-0.384 7.008A113.792 113.792 0 0 1 718.208 800H557.76a139.84 139.84 0 0 1-79.936-25.024z" fill="#27A2DF" p-id="30971"></path></svg>