<svg xmlns="http://www.w3.org/2000/svg" viewBox="0 0 1024 1024" version="1.1"><path d="M128 128h768v768H128z" fill="#FFFFFF" p-id="45630"></path><path d="M448 704h128v-96h-128v96z m-32 0v-96H288v96h128z m320 0v-96h-128v96h128z m32 0h32v32H224v-32h32v-256h160V192h192v128h160v384z m-192-352h-128v-32h128V224h-128v224h128v-96z m-160 224v-96H288v96h128z m32 0h128v-96h-128v96z m160-224v96h128v-96h-128z m128 128h-128v96h128v-96z" fill="#2F98CF" p-id="45631"></path><path d="M128 736v160h768V128H128v576h768v32H128zM128 96h768a32 32 0 0 1 32 32v768a32 32 0 0 1-32 32H128a32 32 0 0 1-32-32V128a32 32 0 0 1 32-32z" fill="#5C6C7C" p-id="45632"></path></svg>