<svg xmlns="http://www.w3.org/2000/svg" viewBox="0 0 1024 1024" version="1.1"><path d="M128 128h768v768H128z" fill="#FFFFFF" p-id="46273"></path><path d="M704 424.864l-174.944 99.424-0.96 197.664L704 621.44v-196.576z m-12.736-29.568L512 292.864l-178.24 101.856 176.32 101.28h3.936l177.28-100.704zM320 423.712v197.728l176.096 100.608 0.96-196.64L320 423.712zM512 256l224 128v256l-224 128-224-128v-256l224-128z" fill="#27A2DF" p-id="46274"></path><path d="M288 128h448v32H288V128z m608 160v448h-32V288h32z m-160 608H288v-32h448v32zM128 736V288h32v448H128zM128 96h96a32 32 0 0 1 32 32v96a32 32 0 0 1-32 32H128a32 32 0 0 1-32-32V128a32 32 0 0 1 32-32z m0 32v96h96V128H128z m672-32h96a32 32 0 0 1 32 32v96a32 32 0 0 1-32 32h-96a32 32 0 0 1-32-32V128a32 32 0 0 1 32-32z m0 32v96h96V128h-96zM128 768h96a32 32 0 0 1 32 32v96a32 32 0 0 1-32 32H128a32 32 0 0 1-32-32v-96a32 32 0 0 1 32-32z m0 32v96h96v-96H128z m672-32h96a32 32 0 0 1 32 32v96a32 32 0 0 1-32 32h-96a32 32 0 0 1-32-32v-96a32 32 0 0 1 32-32z m0 32v96h96v-96h-96z" fill="#5B6B7A" p-id="46275"></path></svg>