<svg xmlns="http://www.w3.org/2000/svg" viewBox="0 0 1024 1024" version="1.1"><path d="M144.8 321.6c0-53.984 4.672-99.84 31.808-137.664 27.168-37.824 66.528-56.736 118.08-56.736 47.456 0 86.72 16.96 117.824 50.784 31.104 33.856 36.544 83.616 36.544 149.28 0 63.936-5.6 113.184-37.056 147.744-31.456 34.56-70.208 51.808-116.288 51.808-45.696 0-83.776-17.024-114.208-51.04-30.4-34.048-36.704-85.44-36.704-154.176zM297.28 191.136c-23.04 0-42.208 9.984-57.504 29.92s-22.944 56.544-22.944 109.824c0 48.448 7.744 82.56 23.2 102.336 15.488 19.776 34.56 29.664 57.248 29.664 23.36 0 42.72-9.984 58.016-29.92s22.944-56.352 22.944-109.312c0-48.8-7.744-83.104-23.232-102.848-15.456-19.776-34.688-29.664-57.728-29.664zM263.168 929.312L694.912 97.056h75.264L340 929.312H263.168z m308.096-210.688c0-54.304 3.008-100.288 30.176-137.92 27.136-37.664 66.688-56.48 118.592-56.48 47.424 0 86.72 16.96 117.824 50.784 31.104 33.888 36.512 83.648 36.512 149.28 0 63.936-5.6 113.184-37.024 147.744-31.456 34.56-70.4 51.84-116.8 51.84-45.728 0-83.808-17.12-114.24-51.328-30.4-34.208-35.04-85.504-35.04-153.92z m151.36-130.464c-23.392 0-42.72 9.984-58.016 29.92s-22.944 56.544-22.944 109.824c0 48.128 7.712 82.144 23.2 102.08 15.456 19.968 34.56 29.92 57.216 29.92 23.712 0 43.232-9.952 58.528-29.888 15.296-19.968 22.944-56.384 22.944-109.344 0-48.8-7.744-83.072-23.2-102.848-15.456-19.776-34.72-29.664-57.76-29.664z" fill="#5D6D7E" p-id="42754"></path></svg>