<svg xmlns="http://www.w3.org/2000/svg" viewBox="0 0 1024 1024" version="1.1"><path d="M188.448 448L96 384l416-275.584L928 384l-92.448 64L928 512l-92.448 64L928 640l-416 288-416-288 92.448-64L96 512l92.448-64z" fill="#FFFFFF" p-id="23532"></path><path d="M480 866.912v38.944L96 640l48.256-33.408 27.968 19.552-20 13.856L480 866.912z" fill="#ACB4C0" p-id="23533"></path><path d="M480 610.912v38.944L96 384l416-288 416 288-184.896 128h-56.224l184.896-128L512 134.912 152.224 384 480 610.912z m-112.512-179.424l0.448-32c54.016 0.768 99.2 16 135.008 45.888 17.92 14.944 64.32 11.104 93.632-9.376 31.712-22.176 32.512-53.568-11.296-94.304l21.792-23.424c58.24 54.176 56.864 109.664 7.84 143.936-40.064 28-102.048 33.152-132.48 7.744-29.856-24.96-67.968-37.792-114.944-38.464z" fill="#5D6D7E" p-id="23534"></path><path d="M480 738.912v38.944L96 512l71.264-49.312 27.936 19.552-42.976 29.76L480 738.912zM871.776 512l-42.976-29.76 27.936-19.552L928 512h-56.224z" fill="#808FA1" p-id="23535"></path><path d="M336 448a48 48 0 1 1 0-96 48 48 0 0 1 0 96zM544 832h96v96h-96v-96z m0-128h96v96h-96v-96z m0-128h96v96h-96v-96z m128 256h96v96h-96v-96z m0-128h96v96h-96v-96z m128 128h96v96h-96v-96z" fill="#27A2DF" p-id="23536"></path><path d="M592 352a48 48 0 1 1 0-96 48 48 0 0 1 0 96z m272 192h96v96h-96v-96z m3.872 128l67.904 67.872-67.904 67.904L800 739.84 867.872 672z m-128-128l67.904 67.872-67.904 67.904L672 611.84 739.872 544z" fill="#30AD98" p-id="23537"></path></svg>