<svg xmlns="http://www.w3.org/2000/svg" viewBox="0 0 1024 1024" version="1.1"><path d="M96 608h832v320H96V608zM768.384 128.32v320h-672v-320h672z" fill="#5A6978" p-id="44282"></path><path d="M137.28 804.384l35.968-3.52c2.176 12.096 6.56 20.96 13.184 26.624 6.624 5.664 15.552 8.512 26.816 8.512 11.904 0 20.896-2.528 26.944-7.552 6.048-5.056 9.056-10.944 9.056-17.696 0-4.32-1.28-8-3.84-11.072-2.528-3.04-6.944-5.664-13.28-7.936a455.36 455.36 0 0 0-29.632-8c-19.84-4.896-33.76-10.944-41.76-18.112-11.232-10.08-16.864-22.4-16.864-36.896 0-9.312 2.656-18.048 7.936-26.176 5.312-8.128 12.928-14.304 22.88-18.56 9.952-4.256 21.984-6.4 36.064-6.4 23.008 0 40.32 5.056 51.936 15.136 11.616 10.112 17.728 23.552 18.304 40.384l-36.992 1.6c-1.6-9.376-4.992-16.16-10.176-20.288-5.216-4.128-13.024-6.176-23.456-6.176-10.752 0-19.168 2.208-25.248 6.624a13.344 13.344 0 0 0-5.856 11.36 14.08 14.08 0 0 0 5.472 11.136c4.672 3.904 16 8 34.016 12.256 17.984 4.256 31.296 8.64 39.936 13.184 8.64 4.544 15.36 10.752 20.256 18.624 4.864 7.872 7.296 17.6 7.296 29.184a53.952 53.952 0 0 1-33.504 49.92c-10.656 4.48-23.936 6.72-39.872 6.72-23.168 0-40.96-5.376-53.376-16.064-12.416-10.72-19.84-26.336-22.24-46.816zM298.72 864l62.624-95.616-56.736-87.648h43.232l36.768 58.88 36-58.88h42.88l-57.024 89.024L469.12 864h-44.608l-40.64-63.36L343.136 864H298.752z m215.36 0L470.4 680.736h37.888l27.616 125.888 33.504-125.888h44l32.128 128 28.128-128h37.248L666.4 864h-39.264l-36.512-136.992L554.24 864h-40.128z m215.36-183.264h37.024v99.264c0 15.744 0.448 25.952 1.376 30.624 1.6 7.488 5.344 13.536 11.328 18.048 5.952 4.544 14.08 6.816 24.416 6.816 10.496 0 18.432-2.144 23.744-6.4a25.44 25.44 0 0 0 9.632-15.84c1.088-6.24 1.632-16.64 1.632-31.136v-101.376h36.992v96.256c0 22.016-0.992 37.536-2.976 46.624a51.616 51.616 0 0 1-11.072 23.008c-5.376 6.24-12.576 11.2-21.568 14.944-8.992 3.712-20.736 5.568-35.264 5.568-17.472 0-30.752-2.016-39.808-6.08a56.96 56.96 0 0 1-21.44-15.744 50.496 50.496 0 0 1-10.368-20.32c-2.4-10.496-3.616-25.984-3.616-46.496v-97.76zM153.92 388.8V205.536h55.36l33.28 125.024 32.864-125.024h55.488v183.264H296.544V244.544L260.16 388.8H224.544L188.288 244.544v144.256H153.92z m195.136 0l62.624-95.616-56.768-87.648h43.264l36.736 58.88 36-58.88h42.88l-56.992 89.024 62.624 94.24h-44.64l-40.64-63.36-40.736 63.36h-44.352z m189.248-183.264h67.616c15.264 0 26.88 1.184 34.88 3.52 10.752 3.168 19.968 8.768 27.616 16.864 7.68 8.096 13.504 17.984 17.504 29.696 4 11.712 6.016 26.144 6.016 43.296 0 15.104-1.888 28.096-5.632 39.04-4.576 13.312-11.136 24.096-19.648 32.32-6.4 6.272-15.04 11.136-25.984 14.656-8.16 2.56-19.072 3.84-32.736 3.84h-69.632V205.568z m36.992 31.04v121.344h27.616c10.336 0 17.792-0.576 22.4-1.76 5.984-1.504 10.976-4.032 14.912-7.616 3.968-3.584 7.2-9.472 9.696-17.696 2.496-8.192 3.744-19.392 3.744-33.536 0-14.176-1.248-25.056-3.744-32.64a41.92 41.92 0 0 0-10.496-17.76 35.2 35.2 0 0 0-17.12-8.64c-5.184-1.152-15.296-1.728-30.4-1.728h-16.608z" fill="#FFFFFF" p-id="44283"></path><path d="M824.192 524.16L826.56 416c0.416-34.624-25.984-67.36-82.176-97.92a16 16 0 0 1 15.296-28.16c65.536 35.68 99.488 77.76 98.88 126.656l-2.432 111.872 66.176-60.064a16 16 0 0 1 21.504 23.68l-101.248 91.936-101.28-91.936a16 16 0 1 1 21.504-23.68l61.44 55.776z" fill="#27A2DF" p-id="44284"></path></svg>