<svg xmlns="http://www.w3.org/2000/svg" viewBox="0 0 1024 1024" version="1.1"><path d="M194.517333 60.245333h499.2a42.666667 42.666667 0 0 1 30.250667 12.629334l135.509333 136.362666a42.666667 42.666667 0 0 1 12.373334 30.08V896a42.666667 42.666667 0 0 1-42.666667 42.666667H194.56a42.666667 42.666667 0 0 1-42.666667-42.666667V102.912a42.666667 42.666667 0 0 1 42.666667-42.666667z" fill="#FFFFFF" p-id="45225"></path><path d="M685.781333 85.333333H170.666667v853.333334h682.666666V255.829333h-103.552a64 64 0 0 1-64-64V85.333333z m42.666667 10.666667v95.829333a21.333333 21.333333 0 0 0 21.333333 21.333334H844.8L728.448 96zM170.666667 42.666667h547.157333a42.666667 42.666667 0 0 1 30.250667 12.586666l135.509333 136.405334a42.666667 42.666667 0 0 1 12.416 30.08V938.666667a42.666667 42.666667 0 0 1-42.666667 42.666666H170.666667a42.666667 42.666667 0 0 1-42.666667-42.666666V85.333333a42.666667 42.666667 0 0 1 42.666667-42.666666z" fill="#5D6D7E" p-id="45226"></path><path d="M682.666667 426.666667h-42.666667V384H384v170.666667h42.666667v42.666666H384a42.666667 42.666667 0 0 1-42.666667-42.666666V384a42.666667 42.666667 0 0 1 42.666667-42.666667h256a42.666667 42.666667 0 0 1 42.666667 42.666667v42.666667z" fill="#2FAF9A" p-id="45227"></path><path d="M469.333333 426.666667h256a42.666667 42.666667 0 0 1 42.666667 42.666666v106.666667h-341.333333V469.333333a42.666667 42.666667 0 0 1 42.666666-42.666666z" fill="#EF633F" p-id="45228"></path><path d="M128 469.333333v85.333334H42.666667l85.333333-85.333334z m768 0l85.333333 85.333334h-85.333333v-85.333334z" fill="#1582B8" p-id="45229"></path><path d="M597.333333 341.333333h-42.666666V298.666667H298.666667v170.666666h42.666666v42.666667H298.666667a42.666667 42.666667 0 0 1-42.666667-42.666667V298.666667a42.666667 42.666667 0 0 1 42.666667-42.666667h256a42.666667 42.666667 0 0 1 42.666666 42.666667v42.666666zM42.666667 554.666667h938.666666v341.333333H42.666667v-341.333333z m275.626666 268.501333h37.248V666.88l39.253334 156.288h38.613333l39.424-156.288v156.288h37.205333V624.64h-60.117333l-35.626667 135.424-36.010666-135.424H318.293333v198.528z m283.733334 0h39.936v-83.285333l72.96-115.2h-46.165334l-45.781333 78.506666-46.72-78.506666h-46.976l72.704 114.944v83.541333z" fill="#3B97D3" p-id="45230"></path></svg>