<svg xmlns="http://www.w3.org/2000/svg" viewBox="0 0 1024 1024" version="1.1"><path d="M96 96m32 0l768 0q32 0 32 32l0 768q0 32-32 32l-768 0q-32 0-32-32l0-768q0-32 32-32Z" fill="#FFFFFF" p-id="15595"></path><path d="M907.296 689.184c6.816-14.56 13.76-29.952 20.704-45.824v65.44l-20.704-19.616zM459.808 896l-24.096 14.624c-10.752 6.528-20.352 12.224-29.28 17.376H336.544c8.192-3.584 16.768-7.68 25.728-12.32 11.136-5.76 22.496-12.032 35.52-19.68h62.016z m181.984-568.416a143.488 143.488 0 0 0-35.392 17.76c-16.64-8.512-33.696-17.088-53.568-27.04-2.88-1.44-23.104-12.8-29.472-16.224a366.88 366.88 0 0 0-10.464-5.376c-14.208-6.976-25.728-10.368-24.832-10.88 0.128-0.064-1.28 5.472-2.432 20.608-0.896 12-1.28 16-2.24 22.4-3.264 22.048-10.432 38.784-24.96 51.296-55.84 48.096-43.424 36.96-47.52 43.968-3.584 6.08-3.008 12.992 4.256 34.848 12.16 36.48 6.24 78.048-16.864 124.224l-0.992 1.696c-21.184 31.776-47.712 74.24-79.584 127.36-7.552 12.608-12.096 22.08-13.92 28.64-0.8 2.88-0.928 3.968-1.184 3.904 0.704-0.064 6.976 0.96 21.856 1.472 13.472 0.48 19.2 0.8 27.072 1.824 7.744 1.024 14.848 2.56 21.504 4.768 8.736 2.88 14.304 2.72 20.864-0.032 1.248-0.512 5.6-3.2 11.616-7.008L363.52 783.36a82.656 82.656 0 0 0-16.096-3.552 233.696 233.696 0 0 0-24.032-1.6c-28.992-0.96-38.528-2.784-47.264-15.36-10.56-15.2-4.992-35.2 14.144-67.072 31.84-53.088 58.464-95.68 79.84-127.808 19.2-38.784 23.808-71.584 14.72-98.88-10.016-30.016-11.2-44.704-1.536-61.184 4.32-7.36 10.56-14.144 20.768-23.328 5.504-4.928 30.88-26.464 33.504-28.704 7.68-6.592 11.936-16.576 14.176-31.68a255.36 255.36 0 0 0 1.984-20.192c2.144-27.872 4.64-37.888 18.208-45.824 13.088-7.648 29.152-2.912 55.04 9.824 3.648 1.792 7.424 3.712 11.424 5.856 7.008 3.712 26.72 14.816 28.768 15.84 28.224 14.08 50.784 25.504 74.624 37.888z m185.152 98.4c23.456 1.024 40.64 14.336 40.64 38.016 0 34.784-20.288 117.216-37.28 151.168-1.44 2.88-3.04 5.92-4.8 9.152l-4.32-3.328-22.944-13.824a123.2 123.2 0 0 0 3.456-6.336c14.784-29.568 33.888-107.136 33.888-136.832 0-2.56-0.96-4.256-3.68-5.216a143.872 143.872 0 0 0-4.96-32.8z m-269.312-23.232c-4.96 10.56-8.672 21.792-10.976 33.536-16.512 2.752-32.384 8.032-41.792 14.304-11.04 7.296-18.72 26.656-22.304 55.104-2.08 16.32-2.56 30.4-2.56 54.304 0 23.68-17.6 58.88-43.296 97.728 5.76-2.656 11.84-5.568 18.048-8.704 42.88-21.76 79.68-47.488 91.936-65.92 7.488-11.2 14.464-25.28 20.608-40.544 6.56 10.048 14.304 19.2 23.04 27.296a231.968 231.968 0 0 1-17.024 31.04c-16.256 24.384-56.544 52.544-104.064 76.64-19.36 9.824-37.76 17.728-50.72 21.792-7.936 2.496-13.888 3.68-19.104 3.2-16.608-1.632-20.832-18.176-12.32-29.76C419.776 628.32 448 580.288 448 560c0-25.216 0.512-40.288 2.816-58.336 4.64-36.896 15.36-63.776 36.32-77.76 16.96-11.264 44.576-19.2 70.496-21.12zM928 217.152v41.472c-5.408 4.48-9.984 8.256-12 9.856C873.568 302.4 838.912 320 800 320c-49.28 0-78.816-23.168-108.096-70.016-2.944-4.704-13.248-21.856-15.552-25.568-6.176-9.856-10.976-16.384-15.68-21.12-32.576-32.576-172.448-54.944-238.72-28.448-48.128 19.264-88.128 74.24-118.784 166.208-53.44 159.104-90.816 265.92-112.256 320.768C167.936 720.544 136.608 778.24 96 836.992v-58.304a784.608 784.608 0 0 0 65.088-128.512c21.216-54.208 58.496-160.704 111.744-319.264 33.344-100 78.688-162.336 137.216-185.76 77.728-31.104 231.2-6.528 273.28 35.52 6.784 6.816 12.8 15.04 20.16 26.784 2.528 4.032 12.8 21.184 15.552 25.568C743.04 271.488 764.128 288 800 288c29.76 0 58.816-14.72 96-44.48 4.032-3.232 20.864-17.28 32-26.4z" fill="#CDD1D7" p-id="15596"></path><path d="M520.48 797.664c40.32 63.936 90.56 97.728 151.52 102.624V672h-63.808v-32H672v-81.312a96 96 0 1 1 32 0V640h64.416v32H704v228.224c60.416-5.024 108.672-38.752 145.728-102.56H768l94.528-88.864 94.528 88.864h-70.848c-43.36 83.68-104.512 129.152-182.208 134.688v0.544h-32v-0.512c-78.176-5.344-141.44-50.816-188.736-134.72H416l94.528-88.864 94.528 88.864h-84.576zM688 528a64 64 0 1 0 0-128 64 64 0 0 0 0 128z" fill="#3B97D3" p-id="15597"></path><path d="M928 708.8l-32-30.304V128H128v768H494.624l41.216 32H128a32 32 0 0 1-32-32V128a32 32 0 0 1 32-32h768a32 32 0 0 1 32 32v580.8z m0 142.24V896a32 32 0 0 1-32 32h-42.56l19.2-20.32L896 896l32-44.96z" fill="#5D6D7E" p-id="15598"></path></svg>