<svg xmlns="http://www.w3.org/2000/svg" viewBox="0 0 1024 1024" version="1.1"><path d="M800 464a208.064 208.064 0 0 1-224 207.392V896H128V128h448v128.608a207.36 207.36 0 0 1 96 15.36c75.168 31.328 128 105.504 128 192.032z" fill="#FFFFFF" p-id="36766"></path><path d="M385.344 440.256a206.976 206.976 0 0 1 43.008-104.64c7.104-5.792 14.24-12.16 21.344-19.072 42.272 42.304 84.64 63.488 127.04 63.488 42.432 0 84.832-23.136 127.264-69.344v328.64a206.784 206.784 0 0 1-96 32.064V896a32 32 0 0 1-32 32H128a32 32 0 0 1-32-32V406.688c41.344 46.208 83.744 69.344 127.232 69.344s86.976-21.184 130.464-63.488c10.56 10.56 21.12 19.776 31.648 27.712z" fill="#A5D0E8" p-id="36767"></path><path d="M391.648 407.904a207.072 207.072 0 0 0-6.4 33.152c-27.04-18.144-53.344-12.288-82.944 17.44-47.456 54.56-101.184 54.56-151.744 0.416A130.24 130.24 0 0 0 128 439.2v-36.064c15.488 6.496 30.88 17.824 45.952 33.92 37.76 40.48 69.376 40.48 104.96-0.32 37.312-37.568 76.032-47.232 112.736-28.8z m6.464 131.552c12.48 32 32.576 60.128 58.144 82.144-17.44-5.408-34.528-16.96-50.88-34.752-34.4-37.376-66.208-37.376-103.072-0.32-47.456 54.528-101.184 54.528-151.744 0.384a16 16 0 0 1 23.392-21.824c37.76 40.448 69.376 40.448 104.96-0.384 39.488-39.744 80.608-48.224 119.2-25.248z m61.728-236.064c22.368 2.624 44.288 15.2 65.088 37.76 34.4 37.376 66.144 37.376 103.328 0 14.208-15.392 28.864-26.304 43.744-32.768v36.48a127.296 127.296 0 0 0-20.64 18.4c-50.24 50.56-103.04 50.56-149.984-0.416-26.56-28.864-51.552-35.456-78.528-19.904 10.56-14.72 23.04-28.064 36.992-39.552zM384 460.096c47.488-41.76 96.768-38.848 140.896 9.056 34.4 37.376 66.144 37.376 103.712-0.416a16 16 0 0 1 22.72 22.528c-50.24 50.56-103.04 50.56-149.984-0.416-34.4-37.376-66.208-37.376-103.072-0.32a173.536 173.536 0 0 1-10.88 11.392 209.184 209.184 0 0 1-3.392-41.824z" fill="#27A2DF" p-id="36768"></path><path d="M704 633.376l16-16 37.376 37.376a32 32 0 0 1 31.36 8.224l129.92 130.432a32 32 0 0 1-45.312 45.184l-129.952-130.464a32 32 0 0 1-8.32-30.464l-35.584-35.552c-8.768 5.312-17.92 9.952-27.488 13.952V271.936c11.2 4.672 21.888 10.304 32 16.768v344.64zM608 256.608a210.912 210.912 0 0 0-32 0V128H128v768h448v-224.608a210.912 210.912 0 0 0 32 0V896a32 32 0 0 1-32 32H128a32 32 0 0 1-32-32V128a32 32 0 0 1 32-32h448a32 32 0 0 1 32 32v128.608z" fill="#5D6D7E" p-id="36769"></path><path d="M592 688a224 224 0 1 0 0-448 224 224 0 0 0 0 448z m0-32a192 192 0 1 1 0-384 192 192 0 0 1 0 384z" fill="#808FA1" p-id="36770"></path></svg>