<svg xmlns="http://www.w3.org/2000/svg" viewBox="0 0 1024 1024" version="1.1"><path d="M128 96h576l192 197.6V928H128z" fill="#FFFFFF" p-id="41930"></path><path d="M704 96l192 192h-0.064H896v160h-32v-128h-192V128H160v768h704v-32h32v64H128V96h576z m0 45.248V288h146.752L704 141.248z" fill="#5D6D7E" p-id="41931"></path><path d="M352 512h576v288H352z" fill="#708294" p-id="41932"></path><path d="M524.928 736v-104.576L589.568 736h32.48v-160.32h-30.08v107.04l-65.6-107.072h-31.52V736h30.08z m198.72 2.72c17.248 0 31.424-4.224 42.624-12.736 11.2-8.48 19.2-21.472 24-38.976l-31.36-9.952c-2.72 11.744-7.168 20.32-13.376 25.792-6.176 5.472-13.6 8.224-22.208 8.224a35.52 35.52 0 0 1-28.416-12.928c-7.296-8.576-10.944-23.04-10.944-43.296 0-19.104 3.712-32.928 11.104-41.472 7.392-8.512 17.056-12.8 28.928-12.8 8.608 0 15.904 2.432 21.92 7.232 6.016 4.8 9.984 11.392 11.872 19.68l32.064-7.648c-3.648-12.8-9.12-22.688-16.416-29.536-12.256-11.584-28.16-17.376-47.808-17.376-22.464 0-40.576 7.36-54.336 22.144-13.792 14.752-20.672 35.52-20.672 62.176 0 25.216 6.848 45.12 20.544 59.68 13.728 14.528 31.2 21.792 52.48 21.792z" fill="#FFFFFF" p-id="41933"></path></svg>