<svg xmlns="http://www.w3.org/2000/svg" viewBox="0 0 1024 1024" version="1.1"><path d="M96 96m32 0l768 0q32 0 32 32l0 768q0 32-32 32l-768 0q-32 0-32-32l0-768q0-32 32-32Z" fill="#FFFFFF" p-id="19548"></path><path d="M896 233.376v45.248L710.624 464 896 649.376v45.248l-80-80-108.96 108.96L885.856 896h-46.08l-155.36-149.792L534.656 896h-45.28l172-172-107.296-103.456L278.624 896H233.376l297.664-297.696-74.688-72L128 854.592v-45.248L345.376 592 128 374.624V329.376l240 240 84.672-84.704 3.2 3.2 3.232-3.392 94.592 91.2 111.68-111.68L329.376 128h45.248L592 345.376 809.376 128h45.248l-240 240 73.376 73.376 208-208z m-208 253.248l-111.264 111.264 107.264 103.456 109.376-109.344-105.376-105.376z" fill="#D5D9DF" p-id="19549"></path><path d="M372.672 756.672l22.656 22.656 315.296-315.328-123.296-123.328-22.656 22.656 100.704 100.672z" fill="#5D6D7E" p-id="19550"></path><path d="M527.648 311.744a80 80 0 1 1 104.864-1.056l-51.776 68.48-53.12-67.424z m51.84-28.928a32 32 0 1 0 0-64 32 32 0 0 0 0 64z" fill="#30AD98" p-id="19551"></path><path d="M332.32 701.12a80 80 0 1 1 104.864-1.056l-51.744 68.48-53.12-67.424z m51.84-28.928a32 32 0 1 0 0-64 32 32 0 0 0 0 64z" fill="#27A2DF" p-id="19552"></path><path d="M128 96h768a32 32 0 0 1 32 32v768a32 32 0 0 1-32 32H128a32 32 0 0 1-32-32V128a32 32 0 0 1 32-32z m0 32v768h768V128H128z" fill="#5D6D7E" p-id="19553"></path></svg>