<svg xmlns="http://www.w3.org/2000/svg" viewBox="0 0 1024 1024" version="1.1"><path d="M464 912h96v-256H896a16 16 0 0 0 16-16V128a16 16 0 0 0-16-16H128a16 16 0 0 0-16 16v512a16 16 0 0 0 16 16h336v256z" fill="#FFFFFF" p-id="30194"></path><path d="M448 896v-224H128a32 32 0 0 1-32-32V128a32 32 0 0 1 32-32h768a32 32 0 0 1 32 32v512a32 32 0 0 1-32 32H576v224h224v32H224v-32h224z m32 0h64v-224h-64v224z m416-256V128H128v512h768z" fill="#5D6D7E" p-id="30195"></path><path d="M336 432.928L265.408 560H163.744L288 352.896l48 80zM288 415.104L220.256 528h26.336l52.48-94.464L288 415.104z" fill="#27A2DF" p-id="30196"></path><path d="M416 223.04l187.2 336.96H228.8L416 223.04zM283.2 528h265.6L416 288.96 283.2 528z" fill="#30AD98" p-id="30197"></path><path d="M640 288h192v32h-192V288z m0 192h192v32h-192v-32z m0-96h128v32h-128v-32z" fill="#ACB4C0" p-id="30198"></path></svg>