<svg xmlns="http://www.w3.org/2000/svg" viewBox="0 0 1024 1024" version="1.1"><path d="M192 160c25.44-3.808 41.44-9.76 48-17.856 6.56-8.096 7.808-23.456 3.744-46.144h460.16L896 290.752V896H160V189.024L192 160z" fill="#FFFFFF" p-id="48103"></path><path d="M736 617.728v-96C696.8 554.24 625.472 576 544 576s-152.8-21.76-192-54.272v96C391.2 650.24 462.528 672 544 672s152.8-21.76 192-54.272z m32-150.56V736h-2.24c-15.552 54.272-108.928 96-221.76 96s-206.208-41.728-221.76-96l-2.24-7.392v-260.928l0.128 0.064A57.088 57.088 0 0 1 320 464c0-61.856 100.288-112 224-112s224 50.144 224 112c0 1.088 0 2.144-0.096 3.2H768z m-416 256.416l1.024 3.616C363.712 764.544 444.864 800 544 800c99.168 0 180.288-35.456 190.976-72.8l1.024-3.616v-66.4C688.704 686.72 619.648 704 544 704s-144.704-17.28-192-46.816v66.4zM544 544c108.32 0 192-41.856 192-80S652.32 384 544 384s-192 41.856-192 80 83.68 80 192 80z" fill="#3B97D3" p-id="48104"></path><path d="M736 97.984L926.304 288H928v640H160V422.304c10.112 5.856 20.8 10.816 32 14.784V896h704V320h-192V128h-304.896a193.024 193.024 0 0 0-36.928-32H736v1.984z m0 45.216V288h145.024L736 143.2z" fill="#5D6D7E" p-id="48105"></path><path d="M224 350.88a111.424 111.424 0 0 1-51.072-21.184l-46.08 46.08-22.624-22.624 46.08-46.08A111.424 111.424 0 0 1 129.12 256H64V224h65.12a111.424 111.424 0 0 1 21.184-51.072l-46.08-46.08 22.624-22.624 46.08 46.08A111.424 111.424 0 0 1 224 129.12V64h32v65.12a111.424 111.424 0 0 1 51.072 21.184l46.08-46.08 22.624 22.624-46.08 46.08c10.976 14.656 18.464 32.096 21.184 51.072H416v32h-65.12a111.424 111.424 0 0 1-21.184 51.072l46.08 46.08-22.624 22.624-46.08-46.08A111.424 111.424 0 0 1 256 350.88V416H224v-65.12zM240 320a80 80 0 1 0 0-160 80 80 0 0 0 0 160z" fill="#EF633F" p-id="48106"></path></svg>