<svg xmlns="http://www.w3.org/2000/svg" viewBox="0 0 1024 1024" version="1.1"><path d="M348.8 389.888c37.888 0 79.872 10.24 124.928 32.768 30.72 17.408 63.488 35.84 97.28 56.32 57.344 32.768 105.472 50.176 144.384 50.176 47.104 0 98.304-39.936 153.6-118.784l54.272 45.056c-65.536 96.256-135.168 145.408-207.872 145.408-47.104 0-100.352-16.384-159.744-49.152-33.792-20.48-66.56-39.936-97.28-57.344-40.96-21.504-77.824-31.744-109.568-31.744-53.248 0-106.496 37.888-160.768 113.664l-55.296-44.032c66.56-95.232 138.24-142.336 216.064-142.336z" fill="#5D6D7E" p-id="40249"></path></svg>