<svg xmlns="http://www.w3.org/2000/svg" viewBox="0 0 1024 1024" version="1.1"><path d="M928 624c0 16.352-11.776 27.2-32 34.336v113.44c20.224 12.672 32 27.84 32 44.224 0 44.16-85.952 80-192 80-62.816 0-118.592-12.576-153.6-32H160a32 32 0 0 1-32-32V128a32 32 0 0 1 32-32h640a32 32 0 0 1 32 32v402.848c57.376 23.328 96 63.552 96 93.152z" fill="#FFFFFF" p-id="15547"></path><path d="M512 832v32H160a32 32 0 0 1-32-32V128a32 32 0 0 1 32-32h640a32 32 0 0 1 32 32v320h-32V128H160v704h352z m224-128c92.832 0 164.576-41.856 164.576-80S828.8 544 736 544s-164.576 41.856-164.576 80S643.2 704 736 704z m0 32c-106.048 0-192-50.144-192-112s85.952-112 192-112 192 50.144 192 112-85.952 112-192 112z m164.576 80.224l9.12-47.936c11.744 14.496 18.304 30.72 18.304 47.776C928 877.888 842.048 928 736 928s-192-50.112-192-111.936c0-17.216 6.656-33.504 18.56-48.064l8.864 45.888h0.096a30.816 30.816 0 0 0-0.096 2.176C571.424 854.208 643.2 896 736 896c92.704 0 164.352-41.696 164.576-79.808zM896 785.344C861.6 813.472 802.784 832 736 832s-125.6-18.56-160-46.656V832l-32-18.496v-185.504l32 21.792v93.76c17.184 30.336 80.96 58.624 160 58.624s142.816-28.288 160-58.624V651.52l32-22.592v184.768L896 832v-46.656z" fill="#5D6D7E" p-id="15548"></path><path d="M128 192h608a32 32 0 0 1 32 32v192a32 32 0 0 1-32 32H128a32 32 0 0 1-32-32V224a32 32 0 0 1 32-32z m37.44 224h25.6v-25.6h-25.6v25.6z m187.872-183.264v105.76c0 23.008-3.776 38.56-11.36 46.624-7.584 8.096-20.32 12.16-38.144 12.16-10.4 0-19.2-2.08-26.432-6.144a33.696 33.696 0 0 1-15.264-17.44c-2.944-7.552-4.416-19.264-4.416-35.2V232.736h-24.256v105.888c0 19.424 2.336 34.72 7.008 45.952 4.672 11.2 12.448 19.744 23.36 25.664 10.912 5.92 24.96 8.896 42.144 8.896 17.664 0 31.936-3.392 42.784-10.208 10.88-6.784 18.4-15.584 22.592-26.432 4.16-10.816 6.24-25.44 6.24-43.872V232.736h-24.256zM417.952 416h66.112c11.072 0 20.896-1.056 29.44-3.136s15.84-5.12 21.856-9.184c6.08-4.032 11.616-9.6 16.704-16.64 5.088-7.04 9.248-15.904 12.48-26.656a128 128 0 0 0 4.896-37.024c0-16.32-2.4-30.848-7.2-43.52a74.56 74.56 0 0 0-21.664-31.36 62.08 62.08 0 0 0-26.88-13.12c-7.52-1.728-18.368-2.624-32.64-2.624h-63.104V416z m24.224-21.632V254.4h38.496c14.432 0 24.896 1.28 31.392 3.744 8.992 3.52 16.64 10.4 22.944 20.704 6.272 10.304 9.44 25.024 9.44 44.16 0 13.856-1.6 25.6-4.8 35.328-3.232 9.728-7.712 17.44-13.44 23.2a40.672 40.672 0 0 1-16.448 9.504c-6.88 2.24-16.352 3.36-28.448 3.36h-39.136z m159.648 21.632h69.856c11.68 0 21.536-1.024 29.568-3.072s14.72-5.056 20.064-9.056c5.344-4 9.824-9.696 13.44-17.056 3.616-7.36 5.44-15.36 5.44-23.936 0-10.656-2.976-19.936-8.96-27.744-5.952-7.84-14.464-13.376-25.536-16.64 8.576-4.256 14.976-9.824 19.232-16.736 4.256-6.912 6.4-14.304 6.4-22.144a45.12 45.12 0 0 0-7.2-24.192c-4.8-7.68-11.424-13.408-19.872-17.12-8.48-3.712-19.68-5.568-33.696-5.568h-68.736V416z m24.224-106.24V254.4h36.64c13.152 0 22.464 0.832 27.872 2.56 5.44 1.696 9.6 4.864 12.48 9.472a29.44 29.44 0 0 1 4.384 16.064c0 6.4-1.536 11.744-4.672 16a25.696 25.696 0 0 1-13.952 9.12c-4.64 1.44-12.352 2.144-23.104 2.144h-39.648z m0 84.608v-63.008h42.4c11.648 0 20.608 1.024 26.816 3.072a27.68 27.68 0 0 1 14.56 10.624c3.488 5.056 5.248 10.976 5.248 17.824a31.872 31.872 0 0 1-3.648 15.424 26.56 26.56 0 0 1-9.248 10.208 39.552 39.552 0 0 1-13.984 4.992c-3.2 0.576-8.672 0.864-16.512 0.864h-45.632z m-250.08 226.848L305.28 549.312a16 16 0 0 1 22.816-22.432l111.552 113.504-111.872 107.488a16 16 0 0 1-22.176-23.072l74.496-71.584H144a16 16 0 1 1 0-32h231.968z" fill="#27A2DF" p-id="15549"></path></svg>