<svg xmlns="http://www.w3.org/2000/svg" viewBox="0 0 1024 1024" version="1.1"><path d="M112 112m32 0l736 0q32 0 32 32l0 736q0 32-32 32l-736 0q-32 0-32-32l0-736q0-32 32-32Z" fill="#FFFFFF" p-id="47020"></path><path d="M128 96h768a32 32 0 0 1 32 32v768a32 32 0 0 1-32 32H128a32 32 0 0 1-32-32V128a32 32 0 0 1 32-32z m0 32v768h768V128H128z" fill="#5D6D7E" p-id="47021"></path><path d="M192 224c182.4 0 324.256 50.656 425.6 152 101.344 101.344 162.144 253.344 182.4 456H192V224z m32 576h540.16c-22.784-178.176-79.456-311.648-169.184-401.376C505.984 309.632 382.848 262.112 224 256.544V800zM256 192h352v32H256V192z" fill="#808FA1" p-id="47022"></path><path d="M160 160h96v96H160V160z m448 0h96v96h-96V160z m160 608h96v96h-96v-96z" fill="#30AD98" p-id="47023"></path></svg>