<svg xmlns="http://www.w3.org/2000/svg" viewBox="0 0 1024 1024" version="1.1"><path d="M96 96m48 0l736 0q48 0 48 48l0 736q0 48-48 48l-736 0q-48 0-48-48l0-736q0-48 48-48Z" fill="#FFFFFF" p-id="26198"></path><path d="M864 896h32v-64.448l32-54.816V896a32 32 0 0 1-32 32h-32v-32z m-352 0v32H128a32 32 0 0 1-32-32V128a32 32 0 0 1 32-32h768a32 32 0 0 1 32 32v465.984l-32-20.864V128H128v768h384z" fill="#5D6D7E" p-id="26199"></path><path d="M640 576a192 192 0 1 0 0-384 192 192 0 0 0 0 384z m0-32a160 160 0 1 1 0-320 160 160 0 0 1 0 320z" fill="#30AD98" p-id="26200"></path><path d="M544 605.024l-32 22.304V352H224v288h269.856L448 672H192V320h352z" fill="#ACB4C0" p-id="26201"></path><path d="M832 772V960h-288v-188h-7.104l-30.24 28L416 688l151.104-112c40.32 37.344 80.608 56 120.896 56 40.32 0 80.608-18.656 120.896-56L960 660 869.344 800l-30.24-28H832zM800 928v-188h51.648l11.52 10.656 51.36-79.328-101.664-56.512c-40.32 32.416-82.048 49.184-124.864 49.184-41.92 0-82.784-16.064-122.304-47.136l-103.808 76.96 48.128 59.456 14.336-13.28H576V928h224z" fill="#27A2DF" p-id="26202"></path></svg>