<svg xmlns="http://www.w3.org/2000/svg" viewBox="0 0 1024 1024" version="1.1"><path d="M512 512m-416 0a416 416 0 1 0 832 0 416 416 0 1 0-832 0Z" fill="#FFFFFF" p-id="27823"></path><path d="M420.64 901.536C378.72 859.776 345.28 789.92 325.12 704H160.992a400.736 400.736 0 0 0 259.648 197.536z m182.72 0A400.736 400.736 0 0 0 863.008 704h-164.16c-20.128 85.92-53.6 155.776-95.488 197.536zM665.856 704H358.144c30.624 124.224 89.504 208 153.856 208 64.352 0 123.2-83.776 153.856-208zM304 512h-192c0 56.896 11.872 111.008 33.28 160h173.12a870.752 870.752 0 0 1-14.4-160z m32 0c0 56.96 5.44 111.072 15.04 160h321.92c9.6-48.928 15.04-103.04 15.04-160h-352z m384 0c0 56.448-5.056 110.464-14.4 160h173.12a398.656 398.656 0 0 0 33.28-160h-192zM325.12 320H160.992a397.504 397.504 0 0 0-47.744 160h191.296c1.952-57.056 9.12-111.136 20.576-160z m33.024 0a791.872 791.872 0 0 0-21.568 160h350.848a791.872 791.872 0 0 0-21.568-160H358.144zM698.88 320c11.456 48.864 18.624 102.944 20.576 160h191.296a397.504 397.504 0 0 0-47.744-160h-164.16z m-278.24-197.536A400.448 400.448 0 0 0 180.544 288h152.928c20.48-71.264 50.592-129.088 87.168-165.536z m182.72 0C639.936 158.912 670.08 216.736 690.528 288h152.928a400.448 400.448 0 0 0-240.096-165.536zM657.088 288c-32.32-106.4-86.4-176-145.088-176-58.656 0-112.768 69.6-145.088 176h290.176zM512 944C273.408 944 80 750.592 80 512S273.408 80 512 80 944 273.408 944 512 750.592 944 512 944z" fill="#5D6D7E" p-id="27824"></path></svg>