<svg xmlns="http://www.w3.org/2000/svg" viewBox="0 0 1024 1024" version="1.1"><path d="M243.2 272c0-94.816 59.584-159.84 156.8-159.84 97.216 0 162.88 65.024 162.88 159.84 0 31.84-1.76 69.44-31.552 121.376h334.176a48 48 0 0 1 48 48v390.912a48 48 0 0 1-48 48H160.384a48 48 0 0 1-48-48V441.376a48 48 0 0 1 48-48h108.288C238.912 341.44 243.2 303.84 243.2 272z" fill="#FFFFFF" p-id="21829"></path><path d="M511.872 645.824l-75.2 75.488 145.952 142.72-22.4 22.848-146.112-142.88-151.584 152.16-22.688-22.592 151.36-151.968L99.2 436.032l22.4-22.88 292.256 285.76 304.384-305.536 22.656 22.592-206.4 207.168 256.32 240.416-21.856 23.328z" fill="#B7BFC8" p-id="21830"></path><path d="M768 864V416h-265.312l18.144-32H896a32 32 0 0 1 32 32v448a32 32 0 0 1-32 32H128a32 32 0 0 1-32-32V416a32 32 0 0 1 32-32h153.888l22.88 32H128v448h640z m32 0h96V416h-96v448z m48-288a16 16 0 0 1 16 16v96a16 16 0 1 1-32 0v-96a16 16 0 0 1 16-16z" fill="#5D6D7E" p-id="21831"></path><path d="M400 576c117.344-142.336 176-245.12 176-308.32C576 172.864 497.216 96 400 96S224 172.864 224 267.68C224 330.88 282.656 433.664 400 576zM256 267.68C256 190.72 320.32 128 400 128S544 190.72 544 267.68c0 49.12-47.84 136.64-144 257.504C303.84 404.32 256 316.8 256 267.68z" fill="#30AD98" p-id="21832"></path><path d="M400 336a64 64 0 1 0 0-128 64 64 0 0 0 0 128z m0-32a32 32 0 1 1 0-64 32 32 0 0 1 0 64z" fill="#30AD98" p-id="21833"></path></svg>