<svg xmlns="http://www.w3.org/2000/svg" viewBox="0 0 1024 1024" version="1.1"><path d="M788.544 832L720 902.912 651.456 832H128a32 32 0 0 1-32-32V192a64 64 0 0 1 64-64h198.592l95.872 96H928v576a32 32 0 0 1-32 32h-107.456z" fill="#FFFFFF" p-id="12899"></path><path d="M486.624 256l51.072 51.072a16 16 0 0 1-22.624 22.624L441.376 256h-0.192l-95.872-96H160a32 32 0 0 0-32 32v608h504.736l36.96 32H128a32 32 0 0 1-32-32V192a64 64 0 0 1 64-64h198.592l19.808 19.84 0.928 0.832L454.624 224H928v576a32 32 0 0 1-32 32h-112l48-32h64V256H486.624z" fill="#5D6D7E" p-id="12900"></path><path d="M591.072 737.92a22.4 22.4 0 0 0-16.096 37.952l145.024 150.08 145.024-150.08a22.4 22.4 0 0 0-16.096-37.952h-81.728v-139.008h-32v171.008h91.072L720 879.904l-106.272-109.984h90.112v-171.008h-32v139.008h-80.768z" fill="#30AD98" p-id="12901"></path></svg>