<svg xmlns="http://www.w3.org/2000/svg" viewBox="0 0 1024 1024" version="1.1"><path d="M187.264 60.245333h513.024a42.666667 42.666667 0 0 1 30.250667 12.629334l135.509333 136.362666a42.666667 42.666667 0 0 1 12.373333 30.08V896a42.666667 42.666667 0 0 1-42.666666 42.666667h-648.533334a42.666667 42.666667 0 0 1-42.666666-42.666667V102.912a42.666667 42.666667 0 0 1 42.666666-42.666667z" fill="#FFFFFF" p-id="45480"></path><path d="M685.781333 85.333333H170.666667v853.333334h682.666666V255.829333h-103.552a64 64 0 0 1-64-64V85.333333z m42.666667 10.666667v95.829333a21.333333 21.333333 0 0 0 21.333333 21.333334H844.8L728.448 96zM170.666667 42.666667h547.157333a42.666667 42.666667 0 0 1 30.250667 12.586666l135.509333 136.405334a42.666667 42.666667 0 0 1 12.416 30.08V938.666667a42.666667 42.666667 0 0 1-42.666667 42.666666H170.666667a42.666667 42.666667 0 0 1-42.666667-42.666666V85.333333a42.666667 42.666667 0 0 1 42.666667-42.666666z" fill="#5D6D7E" p-id="45481"></path><path d="M682.666667 426.666667h-42.666667V384H384v170.666667h42.666667v42.666666H384a42.666667 42.666667 0 0 1-42.666667-42.666666V384a42.666667 42.666667 0 0 1 42.666667-42.666667h256a42.666667 42.666667 0 0 1 42.666667 42.666667v42.666667z" fill="#2FAF9A" p-id="45482"></path><path d="M469.333333 426.666667h256a42.666667 42.666667 0 0 1 42.666667 42.666666v106.666667h-341.333333V469.333333a42.666667 42.666667 0 0 1 42.666666-42.666666z" fill="#EF633F" p-id="45483"></path><path d="M128 469.333333v85.333334H42.666667l85.333333-85.333334z m768 0l85.333333 85.333334h-85.333333v-85.333334z" fill="#1582B8" p-id="45484"></path><path d="M597.333333 341.333333h-42.666666V298.666667H298.666667v170.666666h42.666666v42.666667H298.666667a42.666667 42.666667 0 0 1-42.666667-42.666667V298.666667a42.666667 42.666667 0 0 1 42.666667-42.666667h256a42.666667 42.666667 0 0 1 42.666666 42.666667v42.666666zM42.666667 554.666667h938.666666v341.333333H42.666667v-341.333333z m173.909333 170.453333c0 31.573333 8.704 56.405333 26.112 74.410667 17.450667 18.005333 40.917333 27.008 70.4 27.008 29.184 0 52.48-9.045333 69.930667-27.136 17.408-18.090667 26.112-43.178667 26.112-75.221334 0-32.341333-8.789333-57.557333-26.325334-75.690666-17.578667-18.176-40.96-27.221333-70.229333-27.221334-16.170667 0-30.421333 2.602667-42.794667 7.850667-9.301333 3.84-17.834667 9.813333-25.642666 17.877333a93.44 93.44 0 0 0-18.474667 27.221334c-6.058667 13.696-9.088 30.72-9.088 50.901333z m41.301333-1.365333c0-22.826667 5.034667-39.893333 15.146667-51.2 10.112-11.349333 23.466667-17.066667 39.978667-17.066667s29.738667 5.632 39.722666 16.810667c9.984 11.221333 14.933333 28.16 14.933334 50.944 0 23.04-5.12 40.277333-15.36 51.797333s-23.338667 17.237333-39.296 17.237333a50.773333 50.773333 0 0 1-39.552-17.408c-10.368-11.562667-15.573333-28.586667-15.573334-51.114666z m182.656 99.413333h40.106667v-82.858667h8.106667c9.216 0 15.957333 0.725333 20.181333 2.218667 4.266667 1.493333 8.277333 4.266667 12.074667 8.277333 3.797333 4.010667 10.837333 13.738667 21.12 29.184l28.970666 43.178667h47.957334l-24.277334-38.741333c-9.557333-15.445333-17.152-26.154667-22.784-32.213334a93.525333 93.525333 0 0 0-21.461333-16.64c17.408-2.56 30.506667-8.661333 39.253333-18.346666 8.746667-9.728 13.141333-22.016 13.141334-36.906667 0-11.733333-2.901333-22.186667-8.661334-31.317333a45.653333 45.653333 0 0 0-23.082666-18.986667c-9.642667-3.584-25.045333-5.376-46.250667-5.376h-84.394667v198.528z m40.106667-114.56v-50.346667h31.274667c16.213333 0 26.026667 0.213333 29.269333 0.64 6.485333 1.109333 11.52 3.669333 15.061333 7.808a23.808 23.808 0 0 1 5.376 16.170667c0 5.973333-1.365333 10.922667-4.053333 14.890667a21.589333 21.589333 0 0 1-11.264 8.405333c-4.778667 1.621333-16.768 2.432-36.010667 2.432h-29.653333z m287.061333 41.557333c-3.328 14.506667-8.832 25.173333-16.512 32a40.149333 40.149333 0 0 1-27.477333 10.112 43.946667 43.946667 0 0 1-35.2-15.957333c-9.045333-10.666667-13.568-28.544-13.568-53.632 0-23.637333 4.608-40.746667 13.738667-51.328 9.173333-10.538667 21.12-15.829333 35.84-15.829333 10.666667 0 19.712 2.986667 27.136 8.96 7.466667 5.930667 12.373333 14.08 14.72 24.32l39.68-9.472c-4.522667-15.872-11.306667-28.074667-20.309334-36.565334-15.189333-14.336-34.901333-21.504-59.178666-21.504-27.818667 0-50.261333 9.130667-67.328 27.392-17.066667 18.304-25.6 43.946667-25.6 77.013334 0 31.232 8.533333 55.850667 25.472 73.856 16.981333 18.005333 38.656 27.008 64.981333 27.008 21.333333 0 38.912-5.248 52.778667-15.786667 13.824-10.496 23.765333-26.581333 29.696-48.213333l-38.826667-12.373334z" fill="#3B97D3" p-id="45485"></path></svg>