<svg xmlns="http://www.w3.org/2000/svg" viewBox="0 0 1024 1024" version="1.1"><path d="M128 128h768v768H128z" fill="#FFFFFF" p-id="38830"></path><path d="M126.496 916.32c66.24-14.432 113.344-41.12 140.512-80.608 9.76-14.176 19.136-28.608 28.16-43.36 43.584-71.168 77.184-145.408 108.064-232.128 11.584-32.512 50.688-153.92 59.84-177.76 18.112-47.008 33.088-66.08 49.12-66.08 15.04 0 30.112 16.64 48.224 56.32 12.768 28 64.704 170.848 66.624 175.84 34.336 89.344 69.216 163.424 113.728 235.04a1027.2 1027.2 0 0 0 34.752 52.32c28.224 39.744 69.024 66.56 121.76 80.288l8.064-30.976c-45.664-11.872-80-34.432-103.712-67.84a995.2 995.2 0 0 1-33.696-50.688c-43.296-69.664-77.376-142.016-111.04-229.6-1.44-3.84-53.984-148.32-67.36-177.632-22.912-50.24-45.344-75.072-77.344-75.072-34.496 0-56.32 27.84-78.976 86.592-9.568 24.864-48.832 146.784-60.128 178.528-30.176 84.8-62.912 157.12-105.216 226.144-8.736 14.272-17.792 28.224-27.2 41.92-22.016 31.968-62.08 54.656-120.992 67.52l6.816 31.232z" fill="#2FB49E" p-id="38831"></path><path d="M666.016 760.192c40.544 38.24 117.376 72 231.168 102.368l8.256-30.912c-109.056-29.12-181.76-61.056-217.44-94.72-36.16-34.144-90.464-125.824-161.376-273.6l-15.68-32.704-13.568 33.664c-43.648 108.256-104.416 199.104-182.4 272.64-76.352 72.032-139.712 102.816-189.216 94.4l-5.376 31.552c61.728 10.496 133.632-24.416 216.576-102.688 73.376-69.248 132.128-153.024 176.192-251.296 65.152 132.864 115.712 216.224 152.864 251.296z" fill="#27A2DF" p-id="38832"></path><path d="M128 96h768a32 32 0 0 1 32 32v768a32 32 0 0 1-32 32H128a32 32 0 0 1-32-32V128a32 32 0 0 1 32-32z m0 32v768h768V128H128z" fill="#5D6D7E" p-id="38833"></path></svg>