<svg xmlns="http://www.w3.org/2000/svg" viewBox="0 0 1024 1024" version="1.1"><path d="M773.472 512a16 16 0 0 1 2.88 31.744l-2.88 0.256H512v256h-32v-256H245.024a16 16 0 0 1-2.88-31.744l2.88-0.256h528.448z m89.696-416v381.12h-32V96h32z" fill="#7A8A9B" p-id="40966"></path><path d="M544 768a32 32 0 0 1 32 32v96a32 32 0 0 1-32 32h-96a32 32 0 0 1-32-32v-96a32 32 0 0 1 32-32h96z m0-320a32 32 0 0 1 32 32v96a32 32 0 0 1-32 32h-96a32 32 0 0 1-32-32v-96a32 32 0 0 1 32-32h96zM224 448a32 32 0 0 1 32 32v96a32 32 0 0 1-32 32H128a32 32 0 0 1-32-32v-96a32 32 0 0 1 32-32h96z m672 0a32 32 0 0 1 32 32v96a32 32 0 0 1-32 32h-96a32 32 0 0 1-32-32v-96a32 32 0 0 1 32-32h96z m0-352a32 32 0 0 1 32 32v96a32 32 0 0 1-32 32h-96a32 32 0 0 1-32-32V128a32 32 0 0 1 32-32h96z" fill="#FFFFFF" p-id="40967"></path><path d="M544 768a32 32 0 0 1 32 32v96a32 32 0 0 1-32 32h-96a32 32 0 0 1-32-32v-96a32 32 0 0 1 32-32h96z m0 32h-96v96h96v-96z m0-352a32 32 0 0 1 32 32v96a32 32 0 0 1-32 32h-96a32 32 0 0 1-32-32v-96a32 32 0 0 1 32-32h96zM224 448a32 32 0 0 1 32 32v96a32 32 0 0 1-32 32H128a32 32 0 0 1-32-32v-96a32 32 0 0 1 32-32h96z m672 0a32 32 0 0 1 32 32v96a32 32 0 0 1-32 32h-96a32 32 0 0 1-32-32v-96a32 32 0 0 1 32-32h96z m-352 32h-96v96h96v-96zM224 480H128v96h96v-96z m672 0h-96v96h96v-96z m0-384a32 32 0 0 1 32 32v96a32 32 0 0 1-32 32h-96a32 32 0 0 1-32-32V128a32 32 0 0 1 32-32h96z m0 32h-96v96h96V128z" fill="#3B97D3" p-id="40968"></path></svg>