<svg xmlns="http://www.w3.org/2000/svg" viewBox="0 0 1024 1024" version="1.1"><path d="M769.696 416h29.184L928 546.816V928H256v-64H128a32 32 0 0 1-32-32V128a32 32 0 0 1 32-32h608a32 32 0 0 1 32 32v41.088L896 288l-126.304 128z" fill="#FFFFFF" p-id="12802"></path><path d="M192 832v32H128a32 32 0 0 1-32-32V128a32 32 0 0 1 32-32h608a32 32 0 0 1 32 32v32h-32V128H128v704h64z m608-414.88l127.84 126.784-0.096 0.096H928v384H256V416h544v1.12z m0 45.088V544h82.464L800 462.208zM768 448H288v448h608V576h-128v-128z" fill="#5D6D7E" p-id="12803"></path><path d="M352 512h320v32H352v-32z m0 96h320v32H352v-32z m128 192v64h-32v-160h96v96h-64z m0-64v32h32v-32h-32z m128 128h-32v-160h64v32h-32v96h32v32h-32z m32-128h32v96h-32v-96z m96 64v64h-32v-160h96v32h-64v32h64v32h-64z m-352 32h32v32h-32v-32z" fill="#808FA1" p-id="12804"></path><path d="M855.968 269.216L785.28 197.312a16 16 0 1 1 22.816-22.432l111.552 113.504-111.872 107.488a16 16 0 0 1-22.176-23.072l74.496-71.584H624a16 16 0 1 1 0-32h231.968z" fill="#27A2DF" p-id="12805"></path></svg>