<svg xmlns="http://www.w3.org/2000/svg" viewBox="0 0 1024 1024" version="1.1"><path d="M704 384h192v384h-192v128H320v-128H128V384h192V128h319.584L704 196.96z" fill="#FFFFFF" p-id="46468"></path><path d="M288 608h448v320H288V608z m32 32v256h384v-256H320z" fill="#808FA1" p-id="46469"></path><path d="M288 352V96h351.168l0.704-0.736 97.664 96.64-1.536 1.536V352h160a32 32 0 0 1 32 32v384a32 32 0 0 1-32 32h-160v-32h160V384h-192V224h-96V128h-288v256H128v384h160v32H128a32 32 0 0 1-32-32V384a32 32 0 0 1 32-32h160z m352-211.584V192h52.16L640 140.416zM224 608h576v32H224v-32z" fill="#5D6D7E" p-id="46470"></path><path d="M384 704h256v32h-256v-32z m0 96h256v32h-256v-32z m352-352h64v64h-64v-64z" fill="#27A2DF" p-id="46471"></path><path d="M490.816 254.08l-95.328 98.592a16 16 0 1 1-22.976-22.24l122.784-127.008h0.032L506.368 192l11.456 10.944 0.064 0.032 133.152 127.008a16 16 0 1 1-22.08 23.168l-106.144-101.248v282.656a16 16 0 1 1-32 0V254.08z" fill="#30AD98" p-id="46472"></path></svg>