<svg xmlns="http://www.w3.org/2000/svg" viewBox="0 0 1024 1024" version="1.1"><path d="M800 512h96v384H128a32 32 0 0 1-32-32V224a32 32 0 0 1 32-32h218.56L352 128h192.128v64H768a32 32 0 0 1 32 32v288z" fill="#FFFFFF" p-id="26531"></path><path d="M800 416h-32V224h-192V192h192a32 32 0 0 1 32 32v192zM416 896H128a32 32 0 0 1-32-32V224a32 32 0 0 1 32-32h192v32H128v640h288v32z" fill="#5D6D7E" p-id="26532"></path><path d="M320 96h256v256h-256V96z m32 32v192h192V128h-192z" fill="#27A2DF" p-id="26533"></path><path d="M512 480h384a32 32 0 0 1 32 32v384a32 32 0 0 1-32 32H512a32 32 0 0 1-32-32V512a32 32 0 0 1 32-32z m0 32v384h384V512H512z" fill="#30AD98" p-id="26534"></path></svg>