<svg xmlns="http://www.w3.org/2000/svg" viewBox="0 0 1024 1024" version="1.1"><path d="M112 112m32 0l736 0q32 0 32 32l0 736q0 32-32 32l-736 0q-32 0-32-32l0-736q0-32 32-32Z" fill="#FFFFFF" p-id="31312"></path><path d="M128 96h768a32 32 0 0 1 32 32v768a32 32 0 0 1-32 32H128a32 32 0 0 1-32-32V128a32 32 0 0 1 32-32z m0 32v768h768V128H128z" fill="#5D6D7E" p-id="31313"></path><path d="M416.928 481.792l153.792 153.792 22.624-22.624-176.416-176.416-176.416 176.416 22.624 22.624z" fill="#30AD98" p-id="31314"></path><path d="M812.224 602.4l22.624-22.656-187.616-187.616-141.856 141.856 22.624 22.656 119.232-119.232z" fill="#30AD98" p-id="31315"></path><path d="M512 352m-64 0a64 64 0 1 0 128 0 64 64 0 1 0-128 0Z" fill="#C49F74" p-id="31316"></path><path d="M192 192h640v512H192V192z m32 32v448h576V224H224z" fill="#808FA1" p-id="31317"></path></svg>