<svg xmlns="http://www.w3.org/2000/svg" viewBox="0 0 1024 1024" version="1.1"><path d="M140.992 108.48H882.24a32 32 0 0 1 32 32v741.856a32 32 0 0 1-32 32H140.992a32 32 0 0 1-32-32V140.512a32 32 0 0 1 32-32z" fill="#FFFFFF" p-id="36371"></path><path d="M509.888 529.504l137.344-137.376 187.616 187.616-22.624 22.656-164.992-164.992-114.72 114.72 60.8 60.8-22.592 22.656-153.792-153.792-153.792 153.792-22.624-22.624 176.416-176.416 92.96 92.96z" fill="#30AD98" p-id="36372"></path><path d="M512 352m-64 0a64 64 0 1 0 128 0 64 64 0 1 0-128 0Z" fill="#C49F74" p-id="36373"></path><path d="M128 96h768a32 32 0 0 1 32 32v768a32 32 0 0 1-32 32H128a32 32 0 0 1-32-32V128a32 32 0 0 1 32-32z m0 32v768h768V128H128z m64 64h640v512H192V192z m32 32v448h576V224H224z" fill="#5D6D7E" p-id="36374"></path></svg>