<svg xmlns="http://www.w3.org/2000/svg" viewBox="0 0 1024 1024" version="1.1"><path d="M512 512m-416 0a416 416 0 1 0 832 0 416 416 0 1 0-832 0Z" fill="#FFFFFF" p-id="50477"></path><path d="M512 928c229.76 0 416-186.24 416-416S741.76 96 512 96 96 282.24 96 512s186.24 416 416 416z m0-32C299.936 896 128 724.064 128 512S299.936 128 512 128s384 171.936 384 384-171.936 384-384 384z" fill="#C49F74" p-id="50478"></path><path d="M96 512C96 282.24 282.24 96 512 96c4.928 0 9.856 0.096 14.784 0.256v425.216l-319.648 273.6A414.528 414.528 0 0 1 96 512z m398.784-5.248V128.384C290.688 137.376 128 305.696 128 512c0 87.808 29.568 170.944 82.592 237.984l284.16-243.232z" fill="#30AD98" p-id="50479"></path><path d="M96 512C96 354.88 183.104 218.112 311.648 147.328L512 511.488 119.2 649.344A415.36 415.36 0 0 1 96 512z m44.128 96.096l325.632-114.304L299.68 192A383.68 383.68 0 0 0 128 512c0 32.8 4.096 64.992 12.128 96.096z" fill="#27A2DF" p-id="50480"></path></svg>