<svg xmlns="http://www.w3.org/2000/svg" viewBox="0 0 1024 1024" version="1.1"><path d="M96 96m32 0l768 0q32 0 32 32l0 768q0 32-32 32l-768 0q-32 0-32-32l0-768q0-32 32-32Z" fill="#FFFFFF" p-id="14611"></path><path d="M128 96h768a32 32 0 0 1 32 32v768a32 32 0 0 1-32 32H128a32 32 0 0 1-32-32V128a32 32 0 0 1 32-32z m0 32v768h768V128H128z" fill="#5D6D7E" p-id="14612"></path><path d="M272 384h32v224h-32V384z m0-32V240h32V352h-32z m224 128h32v128h-32v-128z m0-32V240h32V448h-32z m224-64h32v224h-32V384z m0-32V240h32V352h-32z" fill="#808FA1" p-id="14613"></path><path d="M288 816a80 80 0 1 1 0-160 80 80 0 0 1 0 160z m0-32a48 48 0 1 0 0-96 48 48 0 0 0 0 96z m224 32a80 80 0 1 1 0-160 80 80 0 0 1 0 160z m0-32a48 48 0 1 0 0-96 48 48 0 0 0 0 96z m224 32a80 80 0 1 1 0-160 80 80 0 0 1 0 160z m0-32a48 48 0 1 0 0-96 48 48 0 0 0 0 96zM224 320h128v96H224V320z m32 32v32h64V352H256z m192 64h128v96h-128v-96z m32 32v32h64v-32h-64z m192-128h128v96h-128V320z m32 32v32h64V352h-64z" fill="#30AD98" p-id="14614"></path></svg>