<svg xmlns="http://www.w3.org/2000/svg" viewBox="0 0 1024 1024" version="1.1"><path d="M783.616 624H256a144 144 0 0 1-57.28-276.16l10.272-4.48-0.64-11.136a208 208 0 0 1 378.496-130.88l5.056 7.264 8.864-0.416A144 144 0 0 1 752 352v0.8l-0.096 17.952 17.856-1.984A128 128 0 1 1 784 624h-0.384z" fill="#FFFFFF" p-id="49681"></path><path d="M784 640a144 144 0 1 0-16-287.136V352a160 160 0 0 0-168-159.808 224 224 0 0 0-407.616 140.96A160.032 160.032 0 0 0 256 640h528z m-0.32-32H256a128 128 0 0 1-50.88-245.504l20.48-8.896-1.28-22.304A192 192 0 0 1 573.76 210.464l10.112 14.56 17.728-0.864A128 128 0 0 1 736 352v0.704l-0.192 35.936 35.712-3.968A112 112 0 1 1 784 608h-0.32z" fill="#5D6D7E" p-id="49682"></path><path d="M320 416a32 32 0 1 1 0-64 32 32 0 0 1 0 64z m96 288a32 32 0 1 1 0-64 32 32 0 0 1 0 64z m-32-128a32 32 0 1 1 0-64 32 32 0 0 1 0 64z m0 352a32 32 0 1 1 0-64 32 32 0 0 1 0 64z m224-512a32 32 0 1 1 0-64 32 32 0 0 1 0 64z m96 96a32 32 0 1 1 0-64 32 32 0 0 1 0 64z m-128 64a32 32 0 1 1 0-64 32 32 0 0 1 0 64z m32 352a32 32 0 1 1 0-64 32 32 0 0 1 0 64z" fill="#3B97D3" p-id="49683"></path><path d="M432 320a48 48 0 1 1 0-96 48 48 0 0 1 0 96z m-160 224a48 48 0 1 1 0-96 48 48 0 0 1 0 96z m224-64a48 48 0 1 1 0-96 48 48 0 0 1 0 96z m96 288a48 48 0 1 1 0-96 48 48 0 0 1 0 96z m-128 96a48 48 0 1 1 0-96 48 48 0 0 1 0 96z" fill="#30AD98" p-id="49684"></path></svg>