<svg xmlns="http://www.w3.org/2000/svg" viewBox="0 0 1024 1024" version="1.1"><path d="M112 624h672v288h-672z" fill="#FFFFFF" p-id="21286"></path><path d="M96 608h704v320H96V608z m14.784 288h35.904v-35.904H110.784V896z m65.472-191.488v132.352c0 10.56 1.76 19.584 5.28 27.104 3.52 7.52 8.224 13.728 14.08 18.656 5.632 5.152 12.032 9.024 19.2 11.616 7.136 2.56 14.368 3.872 21.632 3.872 7.264 0 14.496-1.28 21.632-3.872 7.168-2.56 13.696-6.464 19.552-11.616 5.632-4.928 10.208-11.136 13.728-18.656 3.52-7.52 5.28-16.544 5.28-27.104v-132.352c0-10.08-1.76-19.008-5.28-26.752a58.944 58.944 0 0 0-13.728-19.36 63.808 63.808 0 0 0-19.52-11.264 63.392 63.392 0 0 0-21.664-3.872 63.392 63.392 0 0 0-40.832 15.136c-5.856 5.152-10.56 11.616-14.08 19.36-3.52 7.744-5.28 16.64-5.28 26.752z m35.904 132.352v-132.352c0-8.672 2.4-15.072 7.232-19.2a25.44 25.44 0 0 1 17.056-6.144c6.56 0 12.256 2.048 17.088 6.144 4.8 4.128 7.2 10.528 7.2 19.2v132.352c0 8.672-2.4 15.072-7.2 19.2a25.44 25.44 0 0 1-17.088 6.144 25.44 25.44 0 0 1-17.088-6.144c-4.8-4.128-7.2-10.528-7.2-19.2z m232.32-119.328v-17.6c0-14.56-5.408-27.456-16.192-38.72a63.04 63.04 0 0 0-19.2-13.024 59.552 59.552 0 0 0-24.448-4.928c-10.56 0-19.648 1.824-27.264 5.44a53.248 53.248 0 0 0-18.848 14.624c-5.152 6.08-9.024 13.376-11.616 21.824-2.56 8.448-3.872 17.376-3.872 26.752 0 15.712 2.624 28.8 7.936 39.264 5.28 10.432 15.648 18.816 31.136 25.152l25.696 10.56c4.48 1.888 8.032 3.648 10.752 5.28a19.776 19.776 0 0 1 6.496 6.336 27.84 27.84 0 0 1 2.816 10.208 201.12 201.12 0 0 1 0.16 31.52 27.808 27.808 0 0 1-3.328 11.776 18.944 18.944 0 0 1-7.904 7.552 31.488 31.488 0 0 1-14.272 2.656c-9.152 0-15.68-2.624-19.52-7.904a29.312 29.312 0 0 1-5.824-17.792v-11.264H321.28v13.376c0 8.448 1.6 16.256 4.768 23.424 3.168 7.136 7.424 13.44 12.832 18.816 5.408 5.408 11.84 9.6 19.36 12.672 7.52 3.04 15.616 4.576 24.288 4.576 11.52 0 21.248-1.888 29.216-5.632 8-3.744 14.432-8.928 19.36-15.488 4.704-6.336 8.096-14.016 10.208-23.04 2.112-9.056 3.168-18.848 3.168-29.408 0-9.152-0.48-17.28-1.408-24.448a66.624 66.624 0 0 0-5.28-19.2 46.4 46.4 0 0 0-11.616-14.24 68.064 68.064 0 0 0-19.36-10.752l-27.456-10.912a56.576 56.576 0 0 1-11.072-5.632 19.584 19.584 0 0 1-6.176-6.688 23.36 23.36 0 0 1-2.624-8.8 119.04 119.04 0 0 1-0.544-12.32c0-4.224 0.352-8.256 1.056-12.16a29.76 29.76 0 0 1 3.872-10.368 23.616 23.616 0 0 1 7.392-7.04 22.592 22.592 0 0 1 11.968-2.816c9.152 0 15.68 2.976 19.52 8.96 3.904 6.016 5.824 13.12 5.824 21.312v8.096h35.904z m24.64-13.024v132.352c0 10.56 1.76 19.584 5.28 27.104 3.52 7.52 8.224 13.728 14.08 18.656 5.632 5.152 12.032 9.024 19.2 11.616 7.136 2.56 14.368 3.872 21.632 3.872 7.264 0 14.496-1.28 21.632-3.872 7.168-2.56 13.696-6.464 19.552-11.616 5.632-4.928 10.208-11.136 13.728-18.656 3.52-7.52 5.28-16.544 5.28-27.104v-78.848h-64.416v31.68h28.512v47.168c0 8.672-2.4 15.072-7.2 19.2a25.44 25.44 0 0 1-17.088 6.144 25.44 25.44 0 0 1-17.056-6.144c-4.8-4.128-7.232-10.528-7.232-19.2v-132.352c0-8.672 2.4-15.072 7.232-19.2a25.44 25.44 0 0 1 17.056-6.144c6.56 0 12.256 2.048 17.088 6.144 4.8 4.128 7.2 10.528 7.2 19.2v12.672h35.904v-12.672c0-10.08-1.76-19.008-5.28-26.752a58.944 58.944 0 0 0-13.728-19.36 63.808 63.808 0 0 0-19.52-11.264 63.392 63.392 0 0 0-21.664-3.872 63.392 63.392 0 0 0-40.832 15.136c-5.856 5.152-10.56 11.616-14.08 19.36-3.52 7.744-5.28 16.64-5.28 26.752zM621.184 896h48.928c23.456 0 40.544-5.856 51.2-17.6 10.688-11.744 16.032-28.64 16.032-50.688v-14.08c0-13.376-1.984-23.936-5.984-31.68a38.944 38.944 0 0 0-18.656-17.6c8.224-4.704 14.304-10.336 18.304-16.896 2.112-3.52 3.68-7.616 4.736-12.32a80 80 0 0 0 1.6-17.248v-9.152c0-8.224-1.12-16.128-3.36-23.744a52.576 52.576 0 0 0-30.976-34.336c-8.096-3.52-17.888-5.28-29.376-5.28h-52.448V896z m35.904-116.16h15.84c6.56 0 11.84 0.768 15.84 2.304a20.256 20.256 0 0 1 9.504 7.2c2.112 3.296 3.52 7.264 4.224 11.968 0.704 4.704 1.056 10.208 1.056 16.544 0 6.08-0.224 11.744-0.704 16.896-0.48 5.152-1.76 9.6-3.872 13.376a21.856 21.856 0 0 1-9.312 8.8c-4.128 2.112-9.824 3.168-17.088 3.168h-15.488V779.84z m0-100.672h14.784c11.968 0 20.224 2.816 24.832 8.448 4.576 5.632 6.848 14.08 6.848 25.344 0 11.52-2.048 20.224-6.144 26.24-4.128 5.984-12.16 8.96-24.128 8.96h-16.192v-68.992z" fill="#5D6D7E" p-id="21287"></path><path d="M256 256a32 32 0 1 1 0-64 32 32 0 0 1 0 64z m-32 224a32 32 0 1 1 0-64 32 32 0 0 1 0 64z m96-64a32 32 0 1 1 0-64 32 32 0 0 1 0 64z m96 64a32 32 0 1 1 0-64 32 32 0 0 1 0 64z m128-224a32 32 0 1 1 0-64 32 32 0 0 1 0 64z m96 64a32 32 0 1 1 0-64 32 32 0 0 1 0 64z" fill="#3B97D3" p-id="21288"></path><path d="M368 160a48 48 0 1 1 0-96 48 48 0 0 1 0 96z m-224 224a48 48 0 1 1 0-96 48 48 0 0 1 0 96z m288-64a48 48 0 1 1 0-96 48 48 0 0 1 0 96z m160 160a48 48 0 1 1 0-96 48 48 0 0 1 0 96z" fill="#30AD98" p-id="21289"></path><path d="M832 582.464v-125.024C794.112 408.416 765.856 384 752 384a16 16 0 0 1 0-32c28.416 0 62.912 30.176 108.736 90.304l3.264 4.288v134.08l50.592-48.256a16 16 0 0 1 22.08 23.168l-89.6 85.44-89.664-85.44a16 16 0 0 1 22.08-23.168L832 582.464z" fill="#C49F74" p-id="21290"></path></svg>