<svg xmlns="http://www.w3.org/2000/svg" viewBox="0 0 1024 1024" version="1.1"><path d="M496 528m-384 0a384 384 0 1 0 768 0 384 384 0 1 0-768 0Z" fill="#FFFFFF" p-id="51510"></path><path d="M496 128C716.928 128 896 307.072 896 528S716.928 928 496 928 96 748.928 96 528 275.072 128 496 128z m0 32C292.768 160 128 324.768 128 528S292.768 896 496 896 864 731.232 864 528 699.232 160 496 160z" fill="#8B9CAE" p-id="51511"></path><path d="M512 160v352h-9.28l3.616 3.712 276.096 270.944-22.4 22.816-264.064-259.072-263.456 259.072-22.4-22.816 275.36-270.816 3.776-3.84H480V160h32z" fill="#27A2DF" p-id="51512"></path><path d="M256 768v96H160v-96h96z m576 0v96h-96v-96h96z m-288-288v96h-96v-96h96z m0-384v96h-96V96h96z" fill="#5D6D7E" p-id="51513"></path></svg>