<svg xmlns="http://www.w3.org/2000/svg" viewBox="0 0 1024 1024" version="1.1"><path d="M144 96h736A48 48 0 0 1 928 144V864l-23.168 46.304a32 32 0 0 1-28.608 17.696H144A48 48 0 0 1 96 880v-736A48 48 0 0 1 144 96z" fill="#FFFFFF" p-id="28708"></path><path d="M708.992 896l17.312 32H128a32 32 0 0 1-32-32V128a32 32 0 0 1 32-32h768a32 32 0 0 1 32 32v423.648l-32-26.24V128H128v768h580.992z m183.232 0H896v-4.768l32-40.352V896a32 32 0 0 1-32 32h-29.12l25.344-32z" fill="#5D6D7E" p-id="28709"></path><path d="M696.352 825.92a160 160 0 1 1 209.696-2.112l-103.488 136.96-106.208-134.848zM800 800a96 96 0 1 0 0-192 96 96 0 0 0 0 192z" fill="#27A2DF" p-id="28710"></path><path d="M608 672v32h-256v192h-32v-192H128v-32h192v-160H128v-32h192v-160H128V288h192V128h32v160h320V128h32v160h192v32h-192v160h192v32H352v160h256z m-256-192h320v-160H352v160z" fill="#ACB4C0" p-id="28711"></path><path d="M352 288h352v192H352z" fill="#F7F7F7" p-id="28712"></path><path d="M320 288h384v224H320V288z m32 32v160h320v-160H352z" fill="#30AD98" p-id="28713"></path></svg>