<svg xmlns="http://www.w3.org/2000/svg" viewBox="0 0 1024 1024" version="1.1"><path d="M560.96 464.224a4140 4140 0 0 1-164.928 166.144l37.76 88.96c10.048 23.84 18.016 41.376 24 52.64 5.952 11.2 11.36 19.36 16.224 24.352 4.896 5.024 9.76 8.672 14.656 10.976 4.864 2.304 12.576 4.16 23.136 5.472l-4.48 19.904h-101.12l-56.48-163.296c-6.496 5.696-15.104 13.6-25.792 23.776-10.72 10.144-21.056 20.992-31.104 32.48-10.016 11.52-17.056 20.8-21.12 27.84-4.064 7.04-6.72 13.12-7.904 18.272-1.216 5.152-1.824 10.432-1.824 15.84 0 7.04 1.92 12.608 5.888 16.64 3.904 4.096 10.624 6.944 20.096 8.544l-4.48 19.904H167.712L160 812.8a3584.928 3584.928 0 0 1 175.104-175.904l-38.592-90.56a749.824 749.824 0 0 0-19.104-42.08 117.344 117.344 0 0 0-14.016-22.336 47.36 47.36 0 0 0-15.424-12.16c-5.824-2.88-14.176-4.704-24.992-5.504l4.48-19.904h101.12l54.048 153.152c13.28-12.192 25.856-24.8 37.76-37.76 11.936-13.024 20.32-23.328 25.216-30.912a88.32 88.32 0 0 0 10.144-20.288c1.92-5.984 2.88-12.192 2.88-18.688 0-14.912-8.704-23.424-26.016-25.6l4.48-19.904h115.744l8.128 19.904z m130.56-185.728c-1.696-12.672-3.264-21.44-4.8-26.368a21.76 21.76 0 0 0-7.232-11.264c-3.328-2.56-8.736-4.128-16.224-4.608L665.984 224h64.256l19.008 198.72c56.32-76.96 84.48-132.16 84.48-165.44 0-7.872-1.632-13.184-4.992-16-3.328-2.88-8.96-4.544-16.96-5.024L814.208 224h64.512l6.72 12.48a564.48 564.48 0 0 1-33.856 72c-13.76 24.864-30.56 52.032-50.496 81.504a1934.08 1934.08 0 0 1-66.368 92.032c-18.656 24.48-34.336 42.976-47.008 55.488-9.824 9.504-18.88 16.704-27.104 21.632a95.744 95.744 0 0 1-24 10.496 94.496 94.496 0 0 1-54.4-1.888l10.752-46.72h19.52a23.168 23.168 0 0 0 4 13.472c2.496 3.328 6.144 4.992 10.976 4.992 5.344 0 9.92-0.544 13.76-1.6 3.84-1.088 7.872-2.88 12.128-5.376a101.12 101.12 0 0 0 15.488-12c6.08-5.504 12.96-12.8 20.64-21.888 7.68-9.088 16.256-20.032 25.76-32.864l-23.776-187.264z" fill="#5D6D7E" p-id="39161"></path></svg>