<svg xmlns="http://www.w3.org/2000/svg" viewBox="0 0 1024 1024" version="1.1"><path d="M678.656 96.224c11.584 0 22.72 4.16 31.392 11.68l3.552 3.424 169.376 179.904a48 48 0 0 1 12.8 27.712l0.256 5.184V880.224a48 48 0 0 1-43.392 47.808l-4.608 0.192H176a48 48 0 0 1-47.776-43.36L128 880.192v-96.768a16 16 0 0 1 31.744-2.88l0.256 2.88v96.768a16 16 0 0 0 13.12 15.744l2.88 0.256h672.032a16 16 0 0 0 15.744-13.12L864 880.224V324.128a16 16 0 0 0-2.496-8.576l-1.856-2.368-169.376-179.936a16 16 0 0 0-9.024-4.8l-2.624-0.224H176a16 16 0 0 0-15.744 13.12L160 144.224v271.776a16 16 0 0 1-31.744 2.88L128 416V144.224A48 48 0 0 1 171.392 96.448L176 96.224h502.656z" fill="#5D6D7E" p-id="52240"></path><path d="M266.432 515.04c5.888 9.024 14.048 16.48 23.648 21.568l-72.96 74.56a64.32 64.32 0 0 0-21.12-24.096z m391.424-86.688a64 64 0 0 0 28.16 17.088l-147.52 149.28a80.096 80.096 0 0 0-18.048-27.392z m-286.72 90.112l42.688 43.232a80.352 80.352 0 0 0-20.48 24.8l-47.36-48c10.016-4.448 18.688-11.392 25.184-20.032z" fill="#5D6D7E" p-id="52241"></path><path d="M464 624m-80 0a80 80 0 1 0 160 0 80 80 0 1 0-160 0Z" fill="#27A2DF" p-id="52242"></path><path d="M464 544a80 80 0 1 1 0 160 80 80 0 0 1 0-160z m0 32a48 48 0 1 0 0 96 48 48 0 0 0 0-96zM160 576a64 64 0 1 1 0 128 64 64 0 0 1 0-128z m0 32a32 32 0 1 0 0 64 32 32 0 0 0 0-64z m160-192a64 64 0 1 1 0 128 64 64 0 0 1 0-128z m0 32a32 32 0 1 0 0 64 32 32 0 0 0 0-64z m384-128a64 64 0 1 1 0 128 64 64 0 0 1 0-128z m0 32a32 32 0 1 0 0 64 32 32 0 0 0 0-64z" fill="#27A2DF" p-id="52243"></path></svg>