<svg xmlns="http://www.w3.org/2000/svg" viewBox="0 0 1024 1024" version="1.1"><path d="M736 160v384h160v352H128V544h96V160h512z" fill="#FFFFFF" p-id="41496"></path><path d="M800 288v256h-32V288h32z m64.576 0v256h-32V288h32z" fill="#808FA1" p-id="41497"></path><path d="M222.272 228.96l64.864 67.872h64.352c25.28 0 46.08 19.392 48.32 44.128l0.192 4.416c0 25.28-19.36 46.08-44.096 48.32l-4.416 0.192h-59.52a12.224 12.224 0 0 0-2.496 24.192l2.464 0.256h17.152a39.488 39.488 0 0 1 4.032 78.784l-4.032 0.192h-10.944a18.432 18.432 0 0 0-18.176 15.456l-0.256 3.008v37.6l-58.752 49.024-20.512-24.544 47.264-39.52v-22.56c0-26.336 20.16-47.936 45.856-50.24l4.576-0.224h10.944a7.488 7.488 0 0 0 1.984-14.72l-1.984-0.256h-17.152a44.224 44.224 0 0 1-4.256-88.256l4.256-0.192h59.552a16.512 16.512 0 0 0 2.976-32.768l-2.976-0.256H273.504L199.136 251.04l23.136-22.08z m218.88-84.896V177.6a16 16 0 0 0 13.12 15.744l2.88 0.256h47.648c21.632 0 39.2 17.568 39.2 39.232 0 3.296 2.24 6.08 5.28 6.944l1.92 0.256h22.88a48 48 0 0 1 48 48 16 16 0 0 0 13.12 15.744l2.88 0.256H736v32h-97.92a48 48 0 0 1-48-48 16 16 0 0 0-13.12-15.744l-2.88-0.256h-22.88A39.2 39.2 0 0 1 512 232.8a7.2 7.2 0 0 0-5.28-6.976l-1.92-0.256h-47.68a48 48 0 0 1-47.744-43.36l-0.224-4.64V144.064h32z" fill="#30AD98" p-id="41498"></path><path d="M784 128A80 80 0 0 1 864 208V256h-96V224h64v-16a48 48 0 0 0-43.392-47.776L784 160a48 48 0 0 0-47.776 43.392L736 208V512h160a32 32 0 0 1 32 32v352a32 32 0 0 1-32 32H128a32 32 0 0 1-32-32V544a32 32 0 0 1 32-32h64V224a96 96 0 0 1 96-96h496zM192 544H128v352h768V544h-160v96h96v32H192v-128zM720 160H288a64 64 0 0 0-63.84 59.2L224 224v416h480V208c0-18.016 5.952-34.624 16-48z" fill="#5D6D7E" p-id="41499"></path><path d="M736 704h96v96h-96z" fill="#30AD98" p-id="41500"></path></svg>