<svg xmlns="http://www.w3.org/2000/svg" viewBox="0 0 1024 1024" version="1.1"><path d="M149.856 416h-31.936L272 128h634.08l-95.296 174.752A382.4 382.4 0 0 1 896 544c0 212.064-171.936 384-384 384S128 756.064 128 544c0-44.896 7.68-87.968 21.856-128z" fill="#FFFFFF" p-id="17609"></path><path d="M512 192v32h-32v-30.56c-4.384 0.384-8.736 0.864-13.056 1.408l-4.064-31.744a387.712 387.712 0 0 1 96.64-0.192l-3.936 31.744A355.52 355.52 0 0 0 512 192zM859.072 379.52l-28.896 13.728A352.32 352.32 0 0 0 782.72 319.04l24.64-20.448a384.32 384.32 0 0 1 51.68 80.896z m-207.328-193.28c30.144 11.808 58.432 27.296 84.32 45.92l-18.688 25.952a351.168 351.168 0 0 0-77.28-42.048l11.648-29.824z m-282.368 1.152l11.904 29.696c-27.36 10.944-53.184 25.28-76.96 42.688l-18.88-25.824a383.296 383.296 0 0 1 83.936-46.56zM214.752 300.896l24.736 20.256a352.192 352.192 0 0 0-46.816 74.528l-29.024-13.504c13.632-29.28 30.848-56.576 51.104-81.28zM512 256v96h-32V256h32z m0 128v32h-32V384h32z" fill="#CDD3DA" p-id="17610"></path><path d="M813.12 361.568l18.144-31.008A382.208 382.208 0 0 1 896 544c0 212.064-171.936 384-384 384S128 756.064 128 544c0-44.896 7.68-87.968 21.856-128H184A351.104 351.104 0 0 0 160 544c0 194.4 157.6 352 352 352s352-157.6 352-352c0-66.784-18.592-129.216-50.88-182.432z" fill="#5D6D7E" p-id="17611"></path><path d="M265.504 112l-174.56 320h667.552l174.56-320H265.504z" fill="#DCF5FF" fill-opacity=".5" p-id="17612"></path><path d="M256 96h704l-192 352H64L256 96z m19.008 32l-157.12 288h631.104l157.12-288H274.976z" fill="#3B97D3" p-id="17613"></path></svg>