<svg xmlns="http://www.w3.org/2000/svg" viewBox="0 0 1024 1024" version="1.1"><path d="M661.824 928H256v-32.864a144 144 0 0 1 0.576-286.336 240 240 0 0 1 479.04-30.08A192 192 0 1 1 661.824 928h0.032z" fill="#FFFFFF" p-id="48297"></path><path d="M752 159.744l-89.6 97.792a16 16 0 1 1-23.584-21.6L766.976 96l129.28 145.12a16 16 0 1 1-23.904 21.28L784 163.2v259.52a16 16 0 1 1-32 0V159.712z" fill="#27A2DF" p-id="48298"></path><path d="M722.944 513.728a238.4 238.4 0 0 0-62.208 16.224 176.064 176.064 0 0 0-340.704 65.28A176 176 0 0 1 416 750.624 144 144 0 1 0 181.44 864h358.208a240.896 240.896 0 0 0 49.152 64H230.176l-0.256-0.288a176 176 0 1 1 26.56-350.944 240 240 0 0 1 466.464-63.04zM415.104 768c0.544-4.8 0.832-9.696 0.896-14.656a178.112 178.112 0 0 1-0.704 14.656h-0.16z" fill="#5D6D7E" p-id="48299"></path><path d="M708.064 950.4l55.68-32.16c16.64 15.68 33.184 28.064 48.928 36.544a192.064 192.064 0 0 1-104.64-4.384z m-36.096-16.096a190.72 190.72 0 0 1-51.936-43.904l81.664-47.168c12.48 18.88 25.696 36.096 39.168 51.296l-68.896 39.776zM601.728 864a191.68 191.68 0 0 1-22.528-60.896l77.12-44.512c7.872 18.88 17.408 38.144 28.544 57.408L601.728 864z m-25.76-96a192.48 192.48 0 0 1 52.608-132.064c-0.768 26.112 4.8 57.92 16.288 92.32L575.968 768z m288.064-166.304l-68.896 39.776c-24-27.136-48.8-47.872-71.808-60.256a192.48 192.48 0 0 1 140.704 20.48z m28.8 20.352A191.68 191.68 0 0 1 934.24 672l-83.136 48a507.328 507.328 0 0 0-35.456-53.44l77.12-44.512z m55.136 79.008a190.72 190.72 0 0 1 12.064 66.912l-68.896 39.776a464.576 464.576 0 0 0-24.832-59.52l81.664-47.168z m8 106.24a192.064 192.064 0 0 1-48.544 92.8c0.512-17.888-1.92-38.432-7.2-60.64l55.712-32.16z m-163.136 94.176l78.336-45.248c1.28 6.464 2.304 12.736 3.04 18.784 4.032 33.792-1.6 54.304-10.208 59.264-8.608 4.96-29.184-0.416-56.416-20.8a238.208 238.208 0 0 1-14.752-12z m-23.648-23.296a425.536 425.536 0 0 1-39.68-50.976l109.024-62.976c10.048 20.352 18.208 40.576 24.288 59.872l-93.632 54.08zM712.544 800c-11.04-19.2-20.544-38.592-28.288-57.568l103.488-59.744c12.544 16.192 24.608 34.112 35.68 53.312l-110.848 64z m-39.36-88.096a282.944 282.944 0 0 1-11.392-50.912c-4.032-33.792 1.6-54.304 10.208-59.264 8.608-4.96 29.184 0.416 56.416 20.8 12.704 9.504 25.664 21.44 38.4 35.296l-93.632 54.08z" fill="#30AD98" p-id="48300"></path></svg>