<svg xmlns="http://www.w3.org/2000/svg" viewBox="0 0 1024 1024" version="1.1"><path d="M128 96h800v800a32 32 0 0 1-32 32H128a32 32 0 0 1-32-32V128a32 32 0 0 1 32-32z" fill="#FFFFFF" p-id="50175"></path><path d="M279.328 288H384v106.56l91.2 94.784-23.104 22.176L360.224 416h-81.6L128 566.624 105.376 544 256 393.376V310.016L96.64 160.736l21.856-23.36L279.328 288z m134.72 329.376l22.624 22.624-287.872 287.904-22.656-22.624 287.904-287.904zM928 672H608v256h-32v-288h352v32zM288 320v64h64v-64H288z" fill="#ACB4C0" p-id="50176"></path><path d="M896 416h32v480a32 32 0 0 1-32 32H128a32 32 0 0 1-32-32V128a32 32 0 0 1 32-32h352v32H128v768h768V416z m-181.344-64L608 480v-128h-64V64h416v288h-245.344z m-14.976-32H928V96H576v224h64v71.616L699.68 320z" fill="#5D6D7E" p-id="50177"></path><path d="M416 480h160v160h-160v-160z m32 32v96h96v-96h-96z m160-384h288v32h-288V128z m0 64h288v32h-288V192z m0 64h192v32h-192V256z" fill="#30AD98" p-id="50178"></path></svg>