<svg xmlns="http://www.w3.org/2000/svg" viewBox="0 0 1024 1024" version="1.1"><path d="M208 480c23.776 0 45.824 7.424 63.968 20.064a264.64 264.64 0 0 0-9.6 33.28 80 80 0 1 0 0 117.344c2.464 11.36 5.696 22.464 9.568 33.248A112 112 0 1 1 208 480z m608 0a112 112 0 1 1-37.312 217.632c4.16-9.792 7.744-19.872 10.72-30.208a80 80 0 1 0 0-150.912 268.8 268.8 0 0 0-10.688-30.112c11.648-4.16 24.192-6.4 37.28-6.4zM528.96 129.248a32 32 0 0 1 10.176 10.176l102.272 163.616a32 32 0 0 1-4.576 39.648A270.592 270.592 0 0 0 528 320c-45.536 0-88.448 11.2-126.176 30.976a31.904 31.904 0 0 1-19.2-47.936l102.24-163.616a32 32 0 0 1 44.096-10.176z m-16.96 27.136L409.728 320h204.544L512 156.384z" fill="#A0ABB7" p-id="38685"></path><path d="M528 592m-272 0a272 272 0 1 0 544 0 272 272 0 1 0-544 0Z" fill="#FFFFFF" p-id="38686"></path><path d="M608 496l-176 16 16 176 176-16-16-176zM288 144L112 160 128 336 304 320 288 144z m608 0l-176 16 16 176 176-16-16-176z" fill="#D1F0FF" p-id="38687"></path><path d="M608 480a32 32 0 0 1 32 32v160a32 32 0 0 1-32 32h-160a32 32 0 0 1-32-32v-160a32 32 0 0 1 32-32h160z m0 32h-160v160h160v-160zM288 128a32 32 0 0 1 32 32v160a32 32 0 0 1-32 32H128a32 32 0 0 1-32-32V160a32 32 0 0 1 32-32h160z m608 0a32 32 0 0 1 32 32v160a32 32 0 0 1-32 32h-160a32 32 0 0 1-32-32V160a32 32 0 0 1 32-32h160zM288 160H128v160h160V160z m608 0h-160v160h160V160z" fill="#27A2DF" p-id="38688"></path><path d="M528 320a272 272 0 0 1 187.584 468.96l127.744 127.712a16 16 0 0 1-20.416 24.48l-2.24-1.824-128-128-1.44-1.728A272 272 0 1 1 528 320z m0 32a240 240 0 1 0 0 480 240 240 0 0 0 0-480z" fill="#5D6D7E" p-id="38689"></path></svg>