<svg xmlns="http://www.w3.org/2000/svg" viewBox="0 0 1024 1024" version="1.1"><path d="M928 688c0 18.016-11.904 34.624-32 48v96c20.096 13.376 32 29.984 32 48 0 44.16-71.648 80-160 80-64.672 0-120.384-19.2-145.6-46.816-25.408 6.976-51.744 11.616-78.816 13.632-10.432 0.8-20.96-5.088-31.584-5.088C282.24 921.728 102.72 741.76 102.72 512c0-78.72 15.136-152.32 53.12-215.04a417.536 417.536 0 0 1 199.104-170.272c48.448-19.776 101.472-23.776 157.056-23.776 229.76 0 411.264 179.328 411.264 409.088 0 21.44 3.104 42.496 0 63.04a413.216 413.216 0 0 1-17.696 72.096c14.24 11.936 22.432 25.92 22.432 40.864z" fill="#FFFFFF" p-id="49186"></path><path d="M512 464c9.216 0 17.824 2.592 25.12 7.104l148.576-181.6a16 16 0 1 1 24.768 20.256l-152.96 186.976a48 48 0 0 1-90.784 31.264h-116.096a16 16 0 1 1 0-32h116.096a48 48 0 0 1 45.28-32z" fill="#C49F74" p-id="49187"></path><path d="M128 512c0 212.064 171.936 384 384 384 10.784 0 21.44-0.448 32-1.312v32.096c-10.56 0.8-21.248 1.216-32 1.216-229.76 0-416-186.24-416-416 0-79.584 22.336-153.952 61.12-217.184l22.72 24.384A382.24 382.24 0 0 0 128 512z m223.616-383.968A414.72 414.72 0 0 1 512 96c229.76 0 416 186.24 416 416a419.2 419.2 0 0 1-4.896 64h-32.416c3.52-20.8 5.312-42.208 5.312-64 0-212.064-171.936-384-384-384-48.256 0-94.4 8.896-136.96 25.152L351.616 128zM512 560a48 48 0 1 1 0-96 48 48 0 0 1 0 96z m0-32a16 16 0 1 0 0-32 16 16 0 0 0 0 32z" fill="#5D6D7E" p-id="49188"></path><path d="M640 736v48c0 20.48 55.04 48 128 48 72.96 0 128-27.52 128-48V736c-29.184 19.424-75.648 32-128 32-52.352 0-98.816-12.576-128-32z m-32-48c0-44.16 71.648-80 160-80s160 35.84 160 80v192c0 44.16-71.648 80-160 80s-160-35.84-160-80v-192z m32 192c0 20.48 55.04 48 128 48 72.96 0 128-27.52 128-48V832c-29.184 19.424-75.648 32-128 32-52.352 0-98.816-12.576-128-32v48z m128-144c72.96 0 128-27.52 128-48S840.96 640 768 640c-72.96 0-128 27.52-128 48s55.04 48 128 48z" fill="#27A2DF" p-id="49189"></path></svg>