<svg xmlns="http://www.w3.org/2000/svg" viewBox="0 0 1024 1024" version="1.1"><path d="M864 672c20.096 26.72 32 59.968 32 96a159.296 159.296 0 0 1-32 96v13.216L809.504 928H128v-148.544c85.28-11.904 150.848-83.264 150.848-169.6 0-86.272-65.568-157.664-150.848-169.536V302.592h169.152c0-108.16 90.048-195.776 201.12-195.776 111.104 0 201.152 87.648 201.152 195.776H864V672z" fill="#FFFFFF" p-id="35304"></path><path d="M192 793.6c-10.24 4.8-20.928 8.736-32 11.808V896h354.24c6.496 11.232 13.824 21.92 21.92 32H128v-148.544a178.016 178.016 0 0 0 64-21.856v36.032z m0-331.456a178.016 178.016 0 0 0-64-21.824V291.776h169.152C297.152 183.648 387.2 96 498.24 96c111.104 0 201.152 87.648 201.152 195.776H864v254.464a254.944 254.944 0 0 0-32-15.616v-206.848h-164.576v-32c0-90.24-75.52-163.776-169.152-163.776-93.6 0-169.12 73.504-169.12 163.776v32H160v90.56c11.072 3.104 21.76 7.04 32 11.808v36zM736 960a192 192 0 1 1 0-384 192 192 0 0 1 0 384z m0-32a160 160 0 1 0 0-320 160 160 0 0 0 0 320z" fill="#5D6D7E" p-id="35305"></path><path d="M288 576h160v32H288v160H256v-160H96v-32h160v-160h32v160z" fill="#C49F74" p-id="35306"></path><path d="M832 768l-160 96v-192z" fill="#27A2DF" p-id="35307"></path></svg>