<svg xmlns="http://www.w3.org/2000/svg" viewBox="0 0 1024 1024" version="1.1"><path d="M512 160a128 128 0 1 1 0 256v64h-97.12a112 112 0 0 1-221.76 0H96V96h416v64z m64 560a112 112 0 0 0-96-110.88V512h128a128 128 0 1 1 256 0h64v416H480v-97.12a112 112 0 0 0 96-110.88z" fill="#FFFFFF" p-id="17761"></path><path d="M645.44 480h-33.408A128.064 128.064 0 0 1 864 512h64v416H480v-97.12A112 112 0 0 0 574.88 704H576v-74.528a144.096 144.096 0 0 1-64 226.336V896h384V544h-64v-32a96 96 0 0 0-186.56-32zM480 609.12V576v33.12z" fill="#5D6D7E" p-id="17762"></path><path d="M352 528v37.216A112 112 0 0 1 193.12 480H96V96h416v64a128 128 0 0 1 64 238.88v-39.328A96 96 0 0 0 512 192h-32V128H128v320h92.896l3.904 27.456A80 80 0 0 0 352 528z m30.4-48c0.32-1.504 0.576-3.008 0.8-4.544l3.904-27.456H480v-64 96h-97.6z" fill="#708294" p-id="17763"></path><path d="M544 512h128v32h-128v128h-32v-128h-128v-32h128v-128h32z" fill="#C49F74" p-id="17764"></path></svg>