<svg xmlns="http://www.w3.org/2000/svg" viewBox="0 0 1024 1024" version="1.1"><path d="M320 96v32H128v192H96V96h224z m384 0h224v224h-32V128h-192V96z m224 608v224h-224v-32h192v-192h32zM320 928H96v-224h32v192h192v32z" fill="#5D6D7E" p-id="46769"></path><path d="M706.24 683.584a32 32 0 0 1 30.912 8.32l113.12 113.12a32 32 0 0 1-45.248 45.248l-113.152-113.12a32 32 0 0 1-8.288-30.944l-36.96-36.96 22.624-22.624 36.96 36.96z" fill="#5D6D7E" p-id="46770"></path><path d="M480 448m-272 0a272 272 0 1 0 544 0 272 272 0 1 0-544 0Z" fill="#FFFFFF" p-id="46771"></path><path d="M480 736a288 288 0 1 0 0-576 288 288 0 0 0 0 576z m0-32a256 256 0 1 1 0-512 256 256 0 0 1 0 512z" fill="#27A2DF" p-id="46772"></path></svg>