<svg xmlns="http://www.w3.org/2000/svg" viewBox="0 0 1024 1024" version="1.1"><path d="M736 768v128a32 32 0 0 1-32 32H160a32 32 0 0 1-32-32V288a32 32 0 0 1 32-32h128V128a32 32 0 0 1 32-32h403.648L896 259.616V736a32 32 0 0 1-32 32h-128z" fill="#FFFFFF" p-id="13579"></path><path d="M768 768v-32h96V273.376L710.88 128H320v96H288V128a32 32 0 0 1 32-32h403.648L896 259.616V736a32 32 0 0 1-32 32h-96z" fill="#808FA1" p-id="13580"></path><path d="M736 768h-32V433.376L550.88 288H160v608h544v-32h32v32a32 32 0 0 1-32 32H160a32 32 0 0 1-32-32V288a32 32 0 0 1 32-32h403.648L736 419.616V768z" fill="#5D6D7E" p-id="13581"></path><path d="M224 416h416v416H224V416z m32 32v352h352V448H256z m96 256h160v-160h-160v160z m0 32v64h-32v-64H256v-32h64v-160H256v-32h64v-64h32v64h160v-64h32v64h64v32h-64v160h64v32h-64v64h-32v-64h-160z" fill="#ACB4C0" p-id="13582"></path><path d="M672 800h256v32h-256z" fill="#C49F74" p-id="13583"></path></svg>