<svg xmlns="http://www.w3.org/2000/svg" viewBox="0 0 1024 1024" version="1.1"><path d="M96 96m32 0l768 0q32 0 32 32l0 768q0 32-32 32l-768 0q-32 0-32-32l0-768q0-32 32-32Z" fill="#FFFFFF" p-id="18300"></path><path d="M160 768l32-32h96v-96l32-32v128h192v-32h32v32h192v-192h-32v-32h32V320h-128l32-32h96V128h32v160h160v32h-160v192h160v32h-160v192h160v32h-160v160h-32v-160h-192v160h-32v-160H320v160H288v-160H160zM128 320V288v32z m160-192h32-32z" fill="#CDD1D7" p-id="18301"></path><path d="M128 128v320l-32 32V128a32 32 0 0 1 32-32h320l-32 32H128z m0 640v128h768V128h-160V96h160a32 32 0 0 1 32 32v768a32 32 0 0 1-32 32H128a32 32 0 0 1-32-32v-128h32z" fill="#5D6D7E" p-id="18302"></path><path d="M205.248 250.496l45.248-45.248a64 64 0 0 1 90.528 0l181.024 181.024a64 64 0 0 1 0 90.496l-45.28 45.28a64 64 0 0 1-90.496 0L205.248 341.024a64 64 0 0 1 0-90.528z m287.36 340.352l98.24-98.24a64 64 0 0 1 45.28-18.752h17.6a18.272 18.272 0 0 1 12.928 31.168l-161.6 161.6a18.272 18.272 0 0 1-31.2-12.896v-17.6a64 64 0 0 1 18.72-45.28z" fill="#27A2DF" p-id="18303"></path><path d="M201.696 427.968L314.88 541.12l-169.696 169.696L32 597.696l169.696-169.728z m226.272-226.24L597.696 32l113.12 113.152-169.696 169.696-113.152-113.152z" fill="#808FA1" p-id="18304"></path></svg>