<svg xmlns="http://www.w3.org/2000/svg" viewBox="0 0 1024 1024" version="1.1"><path d="M672 128a32 32 0 0 1 32 32v256h54.56a32 32 0 0 1 22.496 9.248l137.44 135.872a32 32 0 0 1 9.504 22.752V896a32 32 0 0 1-32 32H448a32 32 0 0 1-32-32v-64H128a32 32 0 0 1-32-32V160a32 32 0 0 1 32-32h544z" fill="#FFFFFF" p-id="38183"></path><path d="M672 128a32 32 0 0 1 32 32v256h-32V160H128v640h288v32H128a32 32 0 0 1-32-32V160a32 32 0 0 1 32-32h544z" fill="#808FA1" p-id="38184"></path><path d="M758.56 416a32 32 0 0 1 22.496 9.248l137.44 135.872a32 32 0 0 1 9.504 22.752V896a32 32 0 0 1-32 32H448a32 32 0 0 1-32-32V448a32 32 0 0 1 32-32h310.56zM896 583.872L758.56 448H448v448h448v-312.128z" fill="#5D6D7E" p-id="38185"></path><path d="M592 352a16 16 0 0 1 2.88 31.744L592 384h-384a16 16 0 0 1-2.88-31.744L208 352h384z m-96-96a16 16 0 0 1 2.88 31.744L496 288h-288a16 16 0 0 1-2.88-31.744L208 256h288z" fill="#95A1AF" p-id="38186"></path><path d="M527.488 496a16 16 0 0 1 15.744 13.12l0.256 2.88v96a16 16 0 0 1-31.744 2.88l-0.256-2.88v-96a16 16 0 0 1 16-16z m64 0a16 16 0 0 1 15.712 13.12l0.256 2.88v96a16 16 0 0 1-31.744 2.88l-0.256-2.88v-96a16 16 0 0 1 16-16z" fill="#808FA1" p-id="38187"></path><path d="M800 704a32 32 0 0 1 32 32v64a32 32 0 0 1-32 32h-256a32 32 0 0 1-32-32v-64a32 32 0 0 1 32-32h256z m0 32h-256v64h256v-64z" fill="#32AD99" p-id="38188"></path></svg>