<svg xmlns="http://www.w3.org/2000/svg" viewBox="0 0 1024 1024" version="1.1"><path d="M736 288h96v128h64v480H224v-96H128V128h288l2.112 64H736z" fill="#FFFFFF" p-id="42800"></path><path d="M768 256h64a32 32 0 0 1 32 32v96h-32V288H320a16 16 0 0 1 0-32h96V128H128v672h96v32H128a32 32 0 0 1-32-32V128a32 32 0 0 1 32-32h288a32 32 0 0 1 32 32v32h288a32 32 0 0 1 32 32v64z m-32 0V192h-288v64h288z" fill="#5D6D7E" p-id="42801"></path><path d="M224 384h672a32 32 0 0 1 32 32v480a32 32 0 0 1-32 32H224a32 32 0 0 1-32-32V416a32 32 0 0 1 32-32z m0 32v480h672V416H224z" fill="#5D6D7E" p-id="42802"></path><path d="M368 640a80 80 0 1 0 0-160 80 80 0 0 0 0 160z m0-32a48 48 0 1 1 0-96 48 48 0 0 1 0 96z" fill="#C49F74" p-id="42803"></path><path d="M306.176 822.208c56.704-90.912 106.56-102.08 161.44-39.872 27.52 31.168 50.944 43.328 73.472 34.848 17.664-6.656 28.8-22.816 42.56-53.92 2.656-5.984 14.752-34.88 18.272-42.816 16.224-36.384 31.2-58.304 50.816-70.4 34.752-21.44 56.352-15.296 84.096 21.248 11.2 14.72 22.944 33.92 38.72 62.752 6.304 11.488 37.44 69.856 47.04 87.36a16 16 0 0 0 28.064-15.36c-9.504-17.28-40.64-75.68-47.04-87.36-16.512-30.08-28.928-50.464-41.28-66.72-37.024-48.8-76.416-59.968-126.4-29.184-26.56 16.384-44.608 42.816-63.232 84.64-3.744 8.32-15.84 37.28-18.336 42.88-10.24 23.2-18.016 34.464-24.544 36.928-6.496 2.432-18.56-3.84-38.208-26.08-70.72-80.128-145.568-63.36-212.576 44.128a16 16 0 0 0 27.136 16.928z" fill="#30AD98" p-id="42804"></path></svg>