<svg xmlns="http://www.w3.org/2000/svg" viewBox="0 0 1024 1024" version="1.1"><path d="M96 96h623.52L928 320v540.416L878.88 896 768 928H96z" fill="#FFFFFF" p-id="24071"></path><path d="M736 141.248V384H288V128H128v768h96V544h349.952a107.52 107.52 0 0 0-22.88 32H256v320h317.952c12.224 12.032 27.744 22.848 45.888 32H96V96h640l192 192v230.4a239.904 239.904 0 0 0-32-15.456V301.248l-160-160zM704 128H320v224h384V128z" fill="#5D6D7E" p-id="24072"></path><path d="M320 672h224v32h-224v-32z m0 96h224v32h-224v-32z" fill="#ACB4C0" p-id="24073"></path><path d="M544 160h96v160h-96V160z m64 525.92v34.88C608.992 758.784 678.4 800 768 800s159.008-41.248 160-79.168v-34.88C893.6 716.064 834.784 736 768 736s-125.6-19.904-160-50.08zM576 624c0-61.856 85.952-112 192-112s192 50.144 192 112v192.832C959.232 878.272 873.568 928 768 928s-191.232-49.696-192-111.168V624z m352 192.832v-34.88C893.6 812.064 834.784 832 768 832s-125.6-19.904-160-50.08v34.88C608.992 854.784 678.4 896 768 896s159.008-41.248 160-79.168zM768 704c90.24 0 160-41.856 160-80S858.24 544 768 544s-160 41.856-160 80 69.76 80 160 80z" fill="#27A2DF" p-id="24074"></path></svg>