<svg xmlns="http://www.w3.org/2000/svg" viewBox="0 0 1024 1024" version="1.1"><path d="M128 160h736a32 32 0 0 1 32 32v714.176H464.64V864H128a32 32 0 0 1-32-32V192a32 32 0 0 1 32-32z" fill="#FFFFFF" p-id="51120"></path><path d="M864 160a32 32 0 0 1 32 32v354.912l-32-29.088V192H128v640h352v32H128a32 32 0 0 1-32-32V192a32 32 0 0 1 32-32h736z" fill="#5D6D7E" p-id="51121"></path><path d="M240.8 96.832a16 16 0 0 1 15.712 13.12l0.288 2.88V242.88a16 16 0 0 1-31.744 2.88l-0.256-2.88V112.832a16 16 0 0 1 16-16z m512 0a16 16 0 0 1 15.712 13.12l0.288 2.88V242.88a16 16 0 0 1-31.744 2.88l-0.256-2.88V112.832a16 16 0 0 1 16-16z" fill="#5D6D7E" p-id="51122"></path><path d="M803.36 448a32 32 0 0 1 22.976 9.728l92.64 95.52a32 32 0 0 1 9.024 22.272V896a32 32 0 0 1-32 32H480a32 32 0 0 1-32-32V480a32 32 0 0 1 32-32h323.36z m0 32l-226.592-0.032v129.152h243.488a16 16 0 0 1 15.744 13.12l0.256 2.88a16 16 0 0 1-13.12 15.776l-2.88 0.256h-259.488a16 16 0 0 1-15.744-13.12l-0.256-2.88v-145.184L480 480v416l32-0.032V736a32 32 0 0 1 32-32h288a32 32 0 0 1 32 32v159.968L896 896V575.52L803.36 480zM832 736h-288v159.968h288V736z" fill="#C49F74" p-id="51123"></path><path d="M400 704a16 16 0 0 1 2.88 31.744L400 736h-192a16 16 0 0 1-2.88-31.744L208 704h192z m0-192a16 16 0 0 1 2.88 31.744L400 544h-192a16 16 0 0 1-2.88-31.744L208 512h192z m0-96a16 16 0 0 1 2.88 31.744L400 448h-192a16 16 0 0 1-2.88-31.744L208 416h192z m352-96a16 16 0 0 1 2.88 31.744L752 352h-544a16 16 0 0 1-2.88-31.744L208 320h544z" fill="#ACB4C0" p-id="51124"></path></svg>