<svg xmlns="http://www.w3.org/2000/svg" viewBox="0 0 1024 1024" version="1.1"><path d="M896 560c0 49.92-25.408 93.92-64 119.744v130.336c0 26.496-21.504 85.92-48 85.92h-640A48 48 0 0 1 96 848v-704A48 48 0 0 1 144 96h506.624a32 32 0 0 1 23.168 9.92l149.376 156.8A32 32 0 0 1 832 284.8v155.456c38.592 25.824 64 69.824 64 119.744z" fill="#FFFFFF" p-id="22564"></path><path d="M549.568 512a207.68 207.68 0 0 0-4.96 32H256v320h384v32H224V512h325.568zM256 256h384v32H256V256z" fill="#ACB4C0" p-id="22565"></path><path d="M800 396.928V270.272L664.32 128H128v736h570.88v32H128a32 32 0 0 1-32-32V128a32 32 0 0 1 32-32h536.32a32 32 0 0 1 23.168 9.92l135.68 142.272a32 32 0 0 1 8.832 22.08v137.024a206.4 206.4 0 0 0-32-10.368z m-48 480.64a32 32 0 1 1 0-64 32 32 0 0 1 0 64z" fill="#5D6D7E" p-id="22566"></path><path d="M800 848v-152.192a144.064 144.064 0 0 0 32-255.552V496a80 80 0 1 1-160 0v-55.744a144.064 144.064 0 0 0 32 255.552V848a48 48 0 0 0 96 0z m32 0a80 80 0 1 1-160 0v-131.2a176.064 176.064 0 0 1 32-326.176V496a48 48 0 0 0 96 0v-105.376A176.064 176.064 0 0 1 832 716.8v131.2z m-80 32a32 32 0 1 1 0-64 32 32 0 0 1 0 64z" fill="#C49F74" p-id="22567"></path></svg>