<svg xmlns="http://www.w3.org/2000/svg" viewBox="0 0 1024 1024" version="1.1"><path d="M160.288 160.096h217.984c35.872-0.8 65.056 8.512 88.576 27.872 23.648 19.456 39.04 46.88 46.176 82.976l-0.32 191.584v16h286.56V159.36h-32v287.136h-222.528V267.84c-8.864-46.176-27.936-80.224-57.536-104.576-29.696-24.416-66.368-36.128-109.28-35.168H128.32v631.36c1.696 37.536 12.928 68.416 33.824 92.8 20.48 23.936 51.52 43.136 92.896 57.984l10.784-30.144c-36.544-13.12-62.944-29.44-79.36-48.64-16.032-18.72-24.8-42.752-26.144-72.704V160.096z" fill="#808FA1" p-id="29661"></path><path d="M256 832h32a32 32 0 0 1 32 32v32a32 32 0 0 1-32 32H256a32 32 0 0 1-32-32v-32a32 32 0 0 1 32-32zM128 96h32a32 32 0 0 1 32 32v32a32 32 0 0 1-32 32H128a32 32 0 0 1-32-32V128a32 32 0 0 1 32-32z m640 32h32a32 32 0 0 1 32 32v32a32 32 0 0 1-32 32h-32a32 32 0 0 1-32-32V160a32 32 0 0 1 32-32z" fill="#30AD98" p-id="29662"></path><path d="M448 448h352l128 128v352H448z" fill="#FFFFFF" p-id="29663"></path><path d="M681.376 480H480v416h416v-306.752L786.752 480H608v128h192v32h-224v-160h105.376zM576 896h-32v-192h288v192h-32v-160h-224v160z m-128-448h352l128 128v352H448V448z" fill="#5D6D7E" p-id="29664"></path></svg>