<svg xmlns="http://www.w3.org/2000/svg" viewBox="0 0 1024 1024" version="1.1"><path d="M948.768 752c0 114.88-81.92 196.64-196.768 196.64-49.664 0-95.232-6.048-131.008-35.072-34.72 9.408-71.264 0-108.992 0C282.24 913.6 105.12 741.76 105.12 512 105.12 282.24 282.24 106.24 512 106.24S913.6 282.24 913.6 512c0 37.728 9.376 74.24 0 108.992 28.992 35.776 35.168 81.344 35.168 131.008z" fill="#FFFFFF" p-id="27387"></path><path d="M658.848 901.344A415.072 415.072 0 0 1 512 928C282.24 928 96 741.76 96 512S282.24 96 512 96s416 186.24 416 416c0 51.68-9.44 101.184-26.656 146.848a176.768 176.768 0 0 0-23.488-29.888c11.776-36.864 18.144-76.16 18.144-116.96 0-212.064-171.936-384-384-384S128 299.936 128 512s171.936 384 384 384c40.8 0 80.096-6.368 116.96-18.144 9.056 8.864 19.072 16.736 29.888 23.488z" fill="#5D6D7E" p-id="27388"></path><path d="M576.384 544.32c-28.064-35.392-62.336-41.44-77.76-44.448-29.952-5.76-54.432-8.704-54.432-46.336 0-37.6 47.648-50.624 65.312-46.272 17.664 4.256 40.8-59.392-21.824-92.608-62.528-33.344-84.288 27.424-97.856 81.024-13.632 53.568-38.144 39.04-43.616-23.168-5.376-62.24-20.32-14.432-32.64 11.584-12.192 26.048-81.632 57.856-87.008 34.752-3.392-14.496 1.696-47.232 6.016-69.6 62.688-97.824 168.192-161.984 287.776-161.984 129.792 0 242.72 75.68 302.688 187.648 5.216 46.88-13.248 89.696-38.912 106.976A274.848 274.848 0 0 0 752 480a270.912 270.912 0 0 0-175.616 64.32z m-310.912 74.72c43.456 7.456 93.696 2.816 93.696 2.816-46.912 83.84-35.68 152.448-25.76 184.32a373.664 373.664 0 0 1-119.04-99.648c-20.352-56.416-30.08-119.584-30.08-119.584s44.928 25.888 81.184 32.096z" fill="#ACB4C0" p-id="27389"></path><path d="M752 960a208 208 0 1 1 0-416 208 208 0 0 1 0 416z m0-32a176 176 0 1 0 0-352 176 176 0 0 0 0 352z m0.256-307.712c7.456 0 14.208 2.688 20.288 8.064 6.08 5.408 9.12 12.384 9.12 20.992 0 8.128-2.88 15.008-8.704 20.608a28.704 28.704 0 0 1-20.704 8.416 28.096 28.096 0 0 1-20.896-8.672 28.352 28.352 0 0 1-8.48-20.544c0-8 2.88-14.848 8.768-20.448a28.8 28.8 0 0 1 20.608-8.416z m-27.52 79.904h54.496V864H724.8v-163.808z" fill="#30AD98" p-id="27390"></path></svg>