<svg xmlns="http://www.w3.org/2000/svg" viewBox="0 0 1024 1024" version="1.1"><path d="M144 112m32 0l672 0q32 0 32 32l0 736q0 32-32 32l-672 0q-32 0-32-32l0-736q0-32 32-32Z" fill="#FFFFFF" p-id="38285"></path><path d="M864 96a32 32 0 0 1 32 32v768a32 32 0 0 1-32 32H160a32 32 0 0 1-32-32V128a32 32 0 0 1 32-32h704z m0 160.672H160V896h704V256.672zM864 128H160v96.672h704V128z" fill="#5D6D7E" p-id="38286"></path><path d="M330.88 340.672a16 16 0 0 1 24.512 20.416l-1.856 2.24-74.912 74.88 74.88 74.912a16 16 0 0 1 1.888 20.416l-1.856 2.24a16 16 0 0 1-20.416 1.824l-2.24-1.856-97.504-97.536L330.88 340.672zM580.672 340.672a16 16 0 0 0-24.48 20.416l1.856 2.24 74.912 74.88-74.88 74.912a16 16 0 0 0-1.888 20.416l1.856 2.24a16 16 0 0 0 20.416 1.824l2.24-1.856 97.504-97.536-97.536-97.536zM473.312 345.888a16 16 0 0 1 30.432 9.472l-0.864 2.752-72.096 173.952a16 16 0 0 1-30.4-9.504l0.832-2.752 72.096-173.92z" fill="#30AD98" p-id="38287"></path><path d="M784 608a16 16 0 0 1 2.88 31.744L784 640h-544a16 16 0 0 1-2.88-31.744L240 608h544z" fill="#A0ABB7" p-id="38288"></path><path d="M464 704a16 16 0 0 1 2.88 31.744L464 736h-224a16 16 0 0 1-2.88-31.744L240 704h224z" fill="#5D6D7E" p-id="38289"></path></svg>