<svg xmlns="http://www.w3.org/2000/svg" viewBox="0 0 1024 1024" version="1.1"><path d="M326.944 112.96L143.488 297.824v271.264l89.44 87.904h201.888v254.624h260.064l184.512-184v-301.216l-82.208-89.216h-206.624V112.96h-263.616z" fill="#FFFFFF" p-id="33991"></path><path d="M574.56 320V128.96h-240.96L159.488 304.416v257.952l80 78.624h170.88L409.376 640l219.584-219.616 22.656 22.656L454.624 640H704v239.904l159.36-158.944v-288.32l-73.184-79.456h-215.616V352h-193.472v-32h193.472z m32 0H608v1.184h196.224l91.168 98.976v314.08L704 925.12V928h-288v-255.008H226.4l-98.912-97.184V291.2l192.8-194.272h286.272V320zM672 895.616V672h-221.184v223.616H672z" fill="#5D6D7E" p-id="33992"></path><path d="M480 704h160v160h-160z" fill="#30AD98" p-id="33993"></path></svg>