<svg xmlns="http://www.w3.org/2000/svg" viewBox="0 0 1024 1024" version="1.1"><path d="M451.2 809.92l12.8 2.592V896a16 16 0 0 0 16 16h64a16 16 0 0 0 16-16v-83.488l12.8-2.592a302.176 302.176 0 0 0 106.848-44.288l10.88-7.2 59.072 59.04a16 16 0 0 0 22.624 0l45.248-45.248a16 16 0 0 0 0-22.624L758.4 690.528l7.2-10.88A302.176 302.176 0 0 0 809.92 572.8l2.592-12.832H896a16 16 0 0 0 16-16v-64a16 16 0 0 0-16-16h-83.488l-2.592-12.8a302.176 302.176 0 0 0-44.288-106.848l-7.2-10.88 59.04-59.072a16 16 0 0 0 0-22.624l-45.248-45.248a16 16 0 0 0-22.624 0L690.528 265.6l-10.88-7.2A302.176 302.176 0 0 0 572.8 214.08l-12.832-2.592V128a16 16 0 0 0-16-16h-64a16 16 0 0 0-16 16v83.488l-12.8 2.592a302.176 302.176 0 0 0-106.848 44.288l-10.88 7.2-59.072-59.04a16 16 0 0 0-22.624 0L206.528 251.776a16 16 0 0 0 0 22.624L265.6 333.472l-7.2 10.88A302.176 302.176 0 0 0 214.08 451.2l-2.592 12.832H128a16 16 0 0 0-16 16v64a16 16 0 0 0 16 16h83.488l2.592 12.8a302.176 302.176 0 0 0 44.288 106.848l7.2 10.88-59.04 59.072a16 16 0 0 0 0 22.624l45.248 45.248a16 16 0 0 0 22.624 0l59.072-59.04 10.88 7.2A302.176 302.176 0 0 0 451.2 809.92zM512 656a144 144 0 1 1 0-288 144 144 0 0 1 0 288z" fill="#FFFFFF" p-id="26626"></path><path d="M335.52 778.976L285.76 828.8a32 32 0 0 1-45.248 0L195.2 783.52a32 32 0 0 1 0-45.248l49.792-49.792A318.208 318.208 0 0 1 198.4 576H128a32 32 0 0 1-32-32v-64a32 32 0 0 1 32-32h70.4a318.208 318.208 0 0 1 46.624-112.48L195.2 285.76a32 32 0 0 1 0-45.248L240.48 195.2a32 32 0 0 1 45.248 0l49.792 49.792A318.208 318.208 0 0 1 448 198.4V128a32 32 0 0 1 32-32h64a32 32 0 0 1 32 32v70.4a318.208 318.208 0 0 1 112.48 46.624L738.24 195.2a32 32 0 0 1 45.248 0L828.8 240.48a32 32 0 0 1 0 45.248l-49.792 49.792A318.208 318.208 0 0 1 825.6 448H896a32 32 0 0 1 32 32v64a32 32 0 0 1-32 32h-70.4a318.208 318.208 0 0 1-46.624 112.48L828.8 738.24a32 32 0 0 1 0 45.248L783.52 828.8a32 32 0 0 1-45.248 0l-49.792-49.792A318.208 318.208 0 0 1 576 825.6V896a32 32 0 0 1-32 32h-64a32 32 0 0 1-32-32v-70.4a318.208 318.208 0 0 1-112.48-46.624zM480 896h64v-96.544l25.632-5.216a286.176 286.176 0 0 0 101.184-41.92l21.792-14.464 68.288 68.288 45.248-45.248-68.288-68.288 14.432-21.792A286.176 286.176 0 0 0 794.24 569.6l5.216-25.632H896v-64h-96.544l-5.216-25.632a286.176 286.176 0 0 0-41.92-101.184l-14.464-21.792 68.288-68.288-45.248-45.248-68.288 68.288-21.792-14.432A286.176 286.176 0 0 0 569.6 229.76L544 224.544V128h-64v96.544l-25.632 5.216a286.176 286.176 0 0 0-101.184 41.92l-21.792 14.464-68.288-68.288-45.248 45.248 68.288 68.288-14.432 21.792A286.176 286.176 0 0 0 229.76 454.4L224.544 480H128v64h96.544l5.216 25.632a286.176 286.176 0 0 0 41.92 101.184l14.464 21.792-68.288 68.288 45.248 45.248 68.288-68.288 21.792 14.432A286.176 286.176 0 0 0 454.4 794.24l25.632 5.216V896z m32-224a160 160 0 1 1 0-320 160 160 0 0 1 0 320z m0-32a128 128 0 1 0 0-256 128 128 0 0 0 0 256z" fill="#5D6D7E" p-id="26627"></path></svg>