<svg xmlns="http://www.w3.org/2000/svg" viewBox="0 0 1024 1024" version="1.1"><path d="M412.288 800L704 928l187.36-128-42.784-20.096V205.952L612.16 116.16l-144.192 82.24v563.776z" fill="#FFFFFF" p-id="34135"></path><path d="M448 745.76V189.44l110.912-64.128L608 96l78.528 29.312L864 189.44v573.248l64 20.64-210.752 167.968-359.104-156.384L448 745.76z m32-17.536L582.752 672 704 711.104V295.648l-220.64-89.696-3.36 1.952v520.32z m256-6.816l96 30.944V215.456L734.72 288H736v433.408z m-273.12 52.672l-32.096 17.568 281.6 122.624 149.024-118.816-20.16-6.496-118.752 91.04-259.616-105.92z m36.16-19.808L704 837.888v-93.184l-117.952-38.016-86.976 47.584z m236.96 0.768v74.272l68.224-52.288L736 755.04zM575.136 152.896l-55.616 33.248 193.056 78.464 85.248-63.584-122.336-45.664-64.352-23.264-36 20.8z" fill="#5D6D7E" p-id="34136"></path><path d="M455.52 187.584L736 307.264 352 960l-288-123.456z" fill="#C49F74" opacity=".5" p-id="34137"></path></svg>