<svg xmlns="http://www.w3.org/2000/svg" viewBox="0 0 1024 1024" version="1.1"><path d="M387.878788 217.212121h527.515151v558.545455H387.878788a279.272727 279.272727 0 0 1 0-558.545455z" fill="#FFFFFF" p-id="40873"></path><path d="M915.393939 217.212121v558.545455H574.060606v-31.030303h310.30303V248.242424H574.060606V217.212121h341.333333zM449.939394 217.212121v31.030303h-62.060606a248.242424 248.242424 0 0 0-248.118303 240.484849L139.636364 496.484848a248.242424 248.242424 0 0 0 240.484848 248.118304L387.878788 744.727273h62.060606v31.030303h-62.060606a279.272727 279.272727 0 0 1 0-558.545455h62.060606zM512 92.842667a15.515152 15.515152 0 0 1 15.266909 12.722424l0.248243 2.792727v776.036849a15.515152 15.515152 0 0 1-30.782061 2.792727l-0.248243-2.792727V108.357818a15.515152 15.515152 0 0 1 15.515152-15.515151z" fill="#5D6D7E" p-id="40874"></path></svg>