<svg xmlns="http://www.w3.org/2000/svg" viewBox="0 0 1024 1024" version="1.1"><path d="M319.872 643.904c16.352 0 31.072-3.008 44.16-8.96 13.056-6.016 23.072-14.4 30.08-25.184 6.976-10.784 10.464-22.272 10.464-34.432 0-12.32-3.2-23.168-9.536-32.608-6.368-9.408-16.192-17.184-29.536-23.36-9.184-4.16-26.08-9.024-50.72-14.592-24.64-5.568-39.872-11.008-45.696-16.32a26.048 26.048 0 0 1-8.896-20.32c0-9.472 4.16-17.6 12.576-24.32 8.384-6.72 21.76-10.048 40.064-10.048 17.6 0 30.912 3.68 39.936 11.072 9.024 7.392 14.304 18.336 15.872 32.832l29.056-2.208a69.344 69.344 0 0 0-11.264-36.096 64.8 64.8 0 0 0-29.92-24.128c-12.96-5.44-27.936-8.192-44.928-8.192-15.392 0-29.44 2.592-42.016 7.808-12.608 5.216-22.208 12.832-28.768 22.88a58.24 58.24 0 0 0-9.824 32.416c0 10.56 2.688 20.032 8.032 28.512 5.376 8.512 13.536 15.616 24.448 21.344 8.448 4.48 23.2 9.248 44.224 14.304 21.056 5.056 34.656 8.768 40.8 11.168 9.6 3.648 16.448 8.16 20.608 13.504 4.16 5.376 6.24 11.648 6.24 18.848 0 7.072-2.144 13.6-6.464 19.584-4.32 6.016-10.912 10.72-19.776 14.144a84.256 84.256 0 0 1-30.624 5.152c-13.024 0-24.736-2.24-35.136-6.784-10.432-4.544-18.112-10.464-23.04-17.824-4.96-7.36-8.128-16.736-9.472-28.16l-28.608 2.464c0.416 15.328 4.608 29.056 12.576 41.184 8 12.128 18.976 21.216 32.96 27.264 14.048 6.048 31.392 9.056 52.16 9.056zM476.288 640v-93.12h58.752c32.384 0 54.784-6.72 67.2-20.224 12.384-13.504 18.56-29.984 18.56-49.472 0-11.36-2.304-21.76-6.944-31.232a56.16 56.16 0 0 0-18.368-22.112 69.024 69.024 0 0 0-28.256-10.72c-8.032-1.44-19.648-2.176-34.88-2.176h-86.4V640h30.336z m59.2-120.16h-59.2v-81.856h58.56c13.76 0 23.2 0.64 28.32 2.016 7.904 2.176 14.272 6.72 19.136 13.504 4.832 6.848 7.264 15.04 7.264 24.64 0 13.216-4.128 23.456-12.352 30.752-8.224 7.296-22.144 10.944-41.728 10.944zM666.432 640l25.152-69.376h95.776L814.08 640h34.56l-93.76-229.056h-32.64L634.24 640h32.192z m111.552-94.08h-77.632l25.152-67.2c5.312-14.464 9.408-29.024 12.352-43.712 3.52 12.384 8.96 28.224 16.224 47.488l23.904 63.456z" fill="#C49F74" p-id="38735"></path><path d="M880.736 96.544a16 16 0 0 1 15.744 13.12l0.256 2.88-0.032 277.44 37.44-37.344a16 16 0 0 1 20.384-1.856l2.24 1.856a16 16 0 0 1 1.824 20.416l-1.856 2.208-64.704 64.704a16 16 0 0 1-19.84 2.24l-2.528-1.984-67.616-64.704a16 16 0 0 1 19.84-24.96l2.24 1.824 40.576 38.816V128.544H160v143.648a16 16 0 0 1-13.12 15.744l-2.88 0.256a16 16 0 0 1-15.744-13.12L128 272.192v-159.68a16 16 0 0 1 13.12-15.712l2.88-0.256h736.736zM144.704 928.64a16 16 0 0 1-15.744-13.12l-0.256-2.88v-248.512l-37.376 37.376a16 16 0 0 1-20.416 1.856l-2.24-1.856a16 16 0 0 1-1.824-20.416l1.824-2.24 64.736-64.704a16 16 0 0 1 19.84-2.208l2.528 1.984 67.616 64.704a16 16 0 0 1-19.84 24.928l-2.24-1.824-40.608-38.784v233.728h703.456V752.96a16 16 0 0 1 13.12-15.744l2.88-0.256a16 16 0 0 1 15.744 13.12l0.256 2.88v159.68a16 16 0 0 1-13.12 15.776l-2.88 0.256H144.704z" fill="#5D6D7E" p-id="38736"></path></svg>