<svg xmlns="http://www.w3.org/2000/svg" viewBox="0 0 1024 1024" version="1.1"><path d="M112 112m32 0l736 0q32 0 32 32l0 736q0 32-32 32l-736 0q-32 0-32-32l0-736q0-32 32-32Z" fill="#FFFFFF" p-id="47368"></path><path d="M96 896c249.504-85.344 388.16-218.656 416-400C539.84 314.656 667.84 192 896 128l-32-32H128a32 32 0 0 0-32 32v768z" fill="#C49F74" fill-opacity=".2" p-id="47369"></path><path d="M96 896V128a32 32 0 0 1 32-32h736l32 32c-221.056 62.016-348.096 179.072-381.12 351.168l3.52 11.008c32.064 101.504 92.032 161.696 180.896 182.56 100.16 23.488 171.008 91.936 211.744 203.648l5.472 15.04-30.08 10.944-5.44-15.04c-37.216-101.984-99.904-162.56-188.992-183.456-87.712-20.576-151.04-75.616-189.184-163.84C460.48 699.104 324.864 817.76 96 896z m32-45.664c212.256-81.728 328.16-201.344 352.384-359.2 25.824-168.512 132.256-289.92 315.392-363.136H128v722.336z" fill="#C49F74" p-id="47370"></path><path d="M128 96h768a32 32 0 0 1 32 32v768a32 32 0 0 1-32 32H128a32 32 0 0 1-32-32V128a32 32 0 0 1 32-32z m0 32v768h768V128H128z" fill="#5D6D7E" p-id="47371"></path></svg>