<svg xmlns="http://www.w3.org/2000/svg" viewBox="0 0 1024 1024" version="1.1"><path d="M128 224h736a32 32 0 0 1 32 32v608l-111.2-32L768 907.36 439.712 896v-64H128a32 32 0 0 1-32-32V256a32 32 0 0 1 32-32z" fill="#FFFFFF" p-id="47860"></path><path d="M864 715.104V256H128v544h288v-96a32 32 0 0 1 32-32h320a32 32 0 0 1 32 32v25.984l64-14.88z m32-7.424l14.208-3.296c9.824-2.272 17.792 5.792 17.792 18.048v155.136c0 12.256-7.968 20.32-17.792 18.048l-110.208-25.6V896a32 32 0 0 1-32 32H448a32 32 0 0 1-32-32v-64H128a32 32 0 0 1-32-32V256a32 32 0 0 1 32-32h736a32 32 0 0 1 32 32v451.68z m-96 129.504l96 22.272v-118.912l-96 22.272v74.368zM768 704H448v192h320v-192z" fill="#5D6D7E" p-id="47861"></path><path d="M176 176h640v32h-640z" fill="#D8D8D8" p-id="47862"></path><path d="M240 112h512v32h-512z" fill="#D8D8D8" p-id="47863"></path><path d="M512 624a112 112 0 1 1 0-224 112 112 0 0 1 0 224z m0-32a80 80 0 1 0 0-160 80 80 0 0 0 0 160z m208 32a64 64 0 1 1 0-128 64 64 0 0 1 0 128z m0-32a32 32 0 1 0 0-64 32 32 0 0 0 0 64z" fill="#27A2DF" p-id="47864"></path></svg>