<svg xmlns="http://www.w3.org/2000/svg" viewBox="0 0 1024 1024" version="1.1"><path d="M112 112m192 0l416 0q192 0 192 192l0 416q0 192-192 192l-416 0q-192 0-192-192l0-416q0-192 192-192Z" fill="#FFFFFF" p-id="43934"></path><path d="M736 96a192 192 0 0 1 192 192v448a192 192 0 0 1-192 192H288a192 192 0 0 1-192-192V288a192 192 0 0 1 192-192h448z m0 32H288a160 160 0 0 0-159.84 153.056L128 288v448a160 160 0 0 0 153.056 159.84L288 896h448a160 160 0 0 0 159.84-153.056L896 736V288a160 160 0 0 0-153.056-159.84L736 128z" fill="#5D6D7E" p-id="43935"></path><path d="M201.088 690.848l2.24 1.824 135.744 135.776a16 16 0 0 1-20.416 24.48l-2.208-1.856-135.776-135.744a16 16 0 0 1 20.416-24.48z m0-256l2.24 1.824L565.344 798.72a16 16 0 0 1-20.416 24.48l-2.208-1.856L180.672 459.328a16 16 0 0 1 20.416-24.48z m16-240l2.24 1.824 576 576a16 16 0 0 1-20.416 24.48l-2.24-1.824-576-576a16 16 0 0 1 20.416-24.48z m240-16l2.24 1.824L821.344 542.72a16 16 0 0 1-20.416 24.48l-2.208-1.856L436.672 203.328a16 16 0 0 1 20.416-24.48z m256 0l2.24 1.824 135.744 135.776a16 16 0 0 1-20.416 24.48l-2.208-1.856-135.776-135.744a16 16 0 0 1 20.416-24.48z" fill="#A7B3C2" p-id="43936"></path></svg>