<svg xmlns="http://www.w3.org/2000/svg" viewBox="0 0 1024 1024" version="1.1"><path d="M112 112m32 0l736 0q32 0 32 32l0 736q0 32-32 32l-736 0q-32 0-32-32l0-736q0-32 32-32Z" fill="#FFFFFF" p-id="18748"></path><path d="M704 736v-32h32v-128h-96v-32h96v-128h-96V384h96V256h-128v96h-32V256h-32V224h32V128h32v96h128V128h32v96h160v32h-160v128h160v32h-160v128h160v32h-160v128h160v32h-160v192h-32v-192h-32z m-96 96v96h-32v-96h32z m-128-96h-32v192h-32v-192H288v192H256v-192H128v-32h128v-128H128v-32h128v-128H128V384h128V256H128V224h128V128h32v96h32v32H288v128h96v32H288v128h32v32H288v128h128v-32h32v32h32v32zM416 128h32-32z m192 320h-32 32z m0 160v32h-32v-32h32z m-64-32v-32 32z m-32-160h-32V384h32v32z" fill="#ACB4C0" opacity=".5" p-id="18749"></path><path d="M448 384h160v288h-32v-256h-128v96h-32V320h32v64zM128 96h768a32 32 0 0 1 32 32v768a32 32 0 0 1-32 32H128a32 32 0 0 1-32-32V128a32 32 0 0 1 32-32z m0 32v768h768V128H128z" fill="#5D6D7E" p-id="18750"></path><path d="M384 160h96a32 32 0 0 1 32 32v96a32 32 0 0 1-32 32H384a32 32 0 0 1-32-32V192a32 32 0 0 1 32-32z m0 32v96h96V192H384z" fill="#27A2DF" p-id="18751"></path><path d="M384 480h96a32 32 0 0 1 32 32v96a32 32 0 0 1-32 32H384a32 32 0 0 1-32-32v-96a32 32 0 0 1 32-32z m0 32v96h96v-96H384z m160 128h96a32 32 0 0 1 32 32v96a32 32 0 0 1-32 32h-96a32 32 0 0 1-32-32v-96a32 32 0 0 1 32-32z m0 32v96h96v-96h-96z" fill="#30AD98" p-id="18752"></path></svg>