<svg xmlns="http://www.w3.org/2000/svg" viewBox="0 0 1024 1024" version="1.1"><path d="M142.08 168.544h738.144a32 32 0 0 1 32 32v622.272a32 32 0 0 1-32 32H142.112a32 32 0 0 1-32-32V200.544a32 32 0 0 1 32-32z" fill="#FFFFFF" p-id="35983"></path><path d="M128 160h768a32 32 0 0 1 32 32v640a32 32 0 0 1-32 32H128a32 32 0 0 1-32-32V192a32 32 0 0 1 32-32z m0 32v640h768V192H128z" fill="#5D6D7E" p-id="35984"></path><path d="M160 224h704v576H160V224z m32 32v512h640V256H192z" fill="#808FA1" p-id="35985"></path><path d="M192 528h640v-32H192z" fill="#27A2DF" p-id="35986"></path></svg>