<svg xmlns="http://www.w3.org/2000/svg" viewBox="0 0 1024 1024" version="1.1"><path d="M96 96m32 0l768 0q32 0 32 32l0 768q0 32-32 32l-768 0q-32 0-32-32l0-768q0-32 32-32Z" fill="#FFFFFF" p-id="19700"></path><path d="M896 384.384v39.712a334.56 334.56 0 0 0-224-71.712V672H352.384a334.56 334.56 0 0 0 71.744 224H384.352a366.304 366.304 0 0 1-64.032-224H128v-32h195.104A368.192 368.192 0 0 1 640 323.104V128h32v192.32a366.304 366.304 0 0 1 224 64.032zM355.392 640H640V355.392A336.224 336.224 0 0 0 355.392 640z" fill="#A9B4C0" p-id="19701"></path><path d="M337.44 656H656V337.44A352.096 352.096 0 0 0 337.44 656z" fill="#CAE6F9" p-id="19702"></path><path d="M672 320.32V672H320.32C328.512 481.472 481.504 328.48 672 320.32zM640 640V355.392A336.224 336.224 0 0 0 355.392 640H640z" fill="#3B97D3" p-id="19703"></path><path d="M128 96h768a32 32 0 0 1 32 32v768a32 32 0 0 1-32 32H128a32 32 0 0 1-32-32V128a32 32 0 0 1 32-32z m0 32v768h768V128H128z" fill="#5D6D7E" p-id="19704"></path></svg>