<svg xmlns="http://www.w3.org/2000/svg" viewBox="0 0 1024 1024" version="1.1"><path d="M160 128h543.136L864 291.424V896H160z" fill="#FFFFFF" p-id="46871"></path><path d="M704 140.48V288h147.744L704 140.48z m192 148.48V928H128V96h575.232l0.736-0.768L896.992 288 896 288.992zM672 128H160v768h704V320h-192V128z" fill="#5D6D7E" p-id="46872"></path><path d="M608 346.464c-125.568 163.264-256.8 267.904-384 310.304l-5.056-31.936c122.08-40.704 245.216-142.176 368.992-304.832H480V288h160v160h-32v-101.536z" fill="#EF633F" p-id="46873"></path><path d="M736.704 832V416H800v416h32v32H192V224h32v608z" fill="#808FA1" p-id="46874"></path><path d="M256 736h64v96H256z" fill="#27A2DF" p-id="46875"></path><path d="M416 640h64v192h-64z" fill="#ACB4C0" p-id="46876"></path><path d="M576 512h64v320h-64z" fill="#30AD98" p-id="46877"></path></svg>