<svg xmlns="http://www.w3.org/2000/svg" viewBox="0 0 1024 1024" version="1.1"><path d="M784.32 224.128a16 16 0 0 1 15.744 13.12l0.256 2.88v96.192a16 16 0 0 1-31.744 2.88l-0.256-2.88-0.032-58.176-212.256 205.088a16 16 0 0 1-19.456 2.144l-2.464-1.856-137.536-126.048-257.152 261.92a16 16 0 0 1-20.416 2.048l-2.24-1.824a16 16 0 0 1-2.016-20.416l1.824-2.24 268.032-272.928a16 16 0 0 1 19.68-2.496l2.56 1.92 137.76 126.272 200.416-193.632h-55.648a16 16 0 0 1-15.744-13.12l-0.256-2.88a16 16 0 0 1 13.12-15.712l2.88-0.256h94.944z" fill="#27A2DF" p-id="38782"></path><path d="M112 96.544a16 16 0 0 1 15.744 13.12l0.256 2.88-0.032 783.68h784.704a16 16 0 0 1 15.744 13.12l0.256 2.88a16 16 0 0 1-13.12 15.744l-2.88 0.256H112a16 16 0 0 1-15.744-13.12L96 912.224V112.544a16 16 0 0 1 16-16z" fill="#5D6D7E" p-id="38783"></path><path d="M304 608a16 16 0 0 1 15.744 13.12l0.256 2.88V896H288v-272a16 16 0 0 1 16-16z m128-32a16 16 0 0 1 15.744 13.12l0.256 2.88V896h-32v-304a16 16 0 0 1 16-16z m128 64a16 16 0 0 1 15.744 13.12l0.256 2.88V896h-32v-240a16 16 0 0 1 16-16z m128-128a16 16 0 0 1 15.744 13.12l0.256 2.88V896h-32V528a16 16 0 0 1 16-16z" fill="#30AD98" p-id="38784"></path></svg>