<svg xmlns="http://www.w3.org/2000/svg" viewBox="0 0 1024 1024" version="1.1"><path d="M96 96m48 0l736 0q48 0 48 48l0 736q0 48-48 48l-736 0q-48 0-48-48l0-736q0-48 48-48Z" fill="#FFFFFF" p-id="24516"></path><path d="M128 96h768a32 32 0 0 1 32 32v768a32 32 0 0 1-32 32H128a32 32 0 0 1-32-32V128a32 32 0 0 1 32-32z m0 32v768h768V128H128z" fill="#5D6D7E" p-id="24517"></path><path d="M160 192h128v672H160z" fill="#27A2DF" p-id="24518"></path><path d="M352 544h128v320H352z" fill="#ACB4C0" p-id="24519"></path><path d="M544 320h128v544h-128z" fill="#30AD98" p-id="24520"></path><path d="M736 416h128v448h-128z" fill="#808FA1" p-id="24521"></path></svg>