<svg xmlns="http://www.w3.org/2000/svg" viewBox="0 0 1024 1024" version="1.1"><path d="M288 352h448v320H288z" fill="#FFFFFF" p-id="46020"></path><path d="M288 320h448a32 32 0 0 1 32 32v320a32 32 0 0 1-32 32H288a32 32 0 0 1-32-32V352a32 32 0 0 1 32-32z m0 32v320h448V352H288z" fill="#5D6D7E" p-id="46021"></path><path d="M512 928c-173.056 0-321.44-105.664-384.128-256h34.944c60.672 132.192 194.208 224 349.184 224 154.976 0 288.512-91.808 349.184-224H800v-32h128v128h-32v-95.712C833.248 822.464 684.96 928 512 928z" fill="#30AD98" p-id="46022"></path><path d="M512 96c173.056 0 321.44 105.664 384.128 256h-34.944C800.512 219.808 666.976 128 512 128c-154.976 0-288.512 91.808-349.184 224H224v32H96V256h32v95.712C190.752 201.536 339.04 96 512 96z" fill="#27A2DF" p-id="46023"></path><path d="M352 448h32v192h-32z" fill="#808FA1" p-id="46024"></path><path d="M448 384h32v256h-32z" fill="#30AD98" p-id="46025"></path><path d="M544 512h32v128h-32z" fill="#DADDE1" p-id="46026"></path><path d="M640 448h32v192h-32z" fill="#C49F74" p-id="46027"></path></svg>