<svg xmlns="http://www.w3.org/2000/svg" viewBox="0 0 1024 1024" version="1.1"><path d="M888.096 650.784c20.16 28.64 30.656 63.552 30.656 101.216 0 97.216-69.536 165.728-166.752 165.728-91.808 0-157.024-68.928-165.12-158.624H173.856c-17.664 0-32-13.024-32-30.72V166.72a32 32 0 0 1 32-32H848.96c17.664 0 47.008 30.24 47.008 47.904L888.096 640v10.784z" fill="#FFFFFF" p-id="36273"></path><path d="M896 650.784c20.16 28.64 32 63.552 32 101.216 0 59.52-29.536 112.16-74.784 144H960v32H512v-32h138.784a175.872 175.872 0 0 1-74.08-128H160a32 32 0 0 1-32-32V160a32 32 0 0 1 32-32h704a32 32 0 0 1 32 32v490.784z m-32-34.56V160H160v576h416.704A176 176 0 0 1 864 616.224zM752 896a144 144 0 1 0 0-288 144 144 0 0 0 0 288z" fill="#5D6D7E" p-id="36274"></path><path d="M224 256h64v64H224V256z m0 160h64v64H224v-64z m0 160h64v64H224v-64zM736 256h64v64h-64V256z m0 160h64v64h-64v-64z" fill="#808FA1" p-id="36275"></path><path d="M621.76 461.024l-180.48 128.896a16 16 0 0 1-25.28-13.024V319.104a16 16 0 0 1 25.28-13.024l180.48 128.896a16 16 0 0 1 0 26.048z" fill="#27A2DF" p-id="36276"></path><path d="M752 640h-32v128h128.992v-32H752z" fill="#30AD98" p-id="36277"></path></svg>