<svg xmlns="http://www.w3.org/2000/svg" viewBox="0 0 1024 1024" version="1.1"><path d="M96 352m64 0l704 0q64 0 64 64l0 160q0 64-64 64l-704 0q-64 0-64-64l0-160q0-64 64-64Z" fill="#FFFFFF" p-id="47614"></path><path d="M128 352h768a32 32 0 0 1 32 32v224a32 32 0 0 1-32 32H128a32 32 0 0 1-32-32v-224a32 32 0 0 1 32-32z m0 32v224h768v-224H128z" fill="#808FA1" p-id="47615"></path><path d="M528 133.12V272.064a16 16 0 1 1-32 0V133.696l-51.072 52.544a16 16 0 0 1-22.944-22.304L511.904 71.424l91.616 92.416a16 16 0 0 1-22.72 22.528L528 133.12z m0 725.856l52.8-53.248a16 16 0 0 1 22.72 22.528l-91.648 92.416-89.92-92.512a16 16 0 0 1 22.976-22.304l51.072 52.544v-138.4a16 16 0 1 1 32 0v138.976z" fill="#27A2DF" p-id="47616"></path></svg>