<svg xmlns="http://www.w3.org/2000/svg" viewBox="0 0 1024 1024" version="1.1"><path d="M896 336h-80V160a16 16 0 0 0-16-16H128a16 16 0 0 0-16 16v544a16 16 0 0 0 16 16h80V896a16 16 0 0 0 16 16h672a16 16 0 0 0 16-16V352a16 16 0 0 0-16-16z" fill="#FFFFFF" p-id="47168"></path><path d="M832 352h-32V160H128v544h96v32H128a32 32 0 0 1-32-32V160a32 32 0 0 1 32-32h672a32 32 0 0 1 32 32v192z" fill="#5D6D7E" p-id="47169"></path><path d="M480 688a80 80 0 1 0 0-160 80 80 0 0 0 0 160z m0-32a48 48 0 1 1 0-96 48 48 0 0 1 0 96z" fill="#C49F74" p-id="47170"></path><path d="M242.752 824.608c50.304-70.048 91.552-85.696 129.664-54.88 10.112 8.192 19.616 18.56 36.352 38.848l3.84 4.704c44.288 53.76 65.696 71.52 100.352 66.336 42.688-6.4 81.472-60.16 125.056-173.952 34.624-90.432 68.8-119.392 104.224-99.424 42.56 24 92.96 110.656 148.096 258.464a16 16 0 0 0 29.984-11.2c-57.76-154.848-110.848-246.08-162.368-275.136-58.656-33.088-109.184 9.728-149.824 115.84-39.584 103.392-73.024 149.76-99.872 153.76-18.048 2.688-34.88-11.232-70.912-55.04l-3.904-4.704c-18.08-21.92-28.576-33.408-40.896-43.36-55.584-44.96-116.128-21.984-175.776 61.056a16 16 0 0 0 25.984 18.688z" fill="#30AD98" p-id="47171"></path><path d="M192 480h32v416h672V352H224v64H192v-64a32 32 0 0 1 32-32h672a32 32 0 0 1 32 32v544a32 32 0 0 1-32 32H224a32 32 0 0 1-32-32V480z" fill="#5D6D7E" p-id="47172"></path><path d="M271.776 502.08v75.36a22.4 22.4 0 0 0 38.24 15.84l139.36-139.36L310.08 313.92a22.4 22.4 0 0 0-38.272 15.808v76.064H96v32h207.776v-84.8l100.416 100.896-100.416 100.416v-84.224H96v32h175.776z" fill="#27A2DF" p-id="47173"></path></svg>