<svg xmlns="http://www.w3.org/2000/svg" viewBox="0 0 1024 1024" version="1.1"><path d="M96 96m48 0l736 0q48 0 48 48l0 736q0 48-48 48l-736 0q-48 0-48-48l0-736q0-48 48-48Z" fill="#FFFFFF" p-id="25023"></path><path d="M443.392 128C487.36 188.608 502.72 280.672 576 352c86.912 84.64 250.88 113.504 320 198.112V896H128V128h315.392z" fill="#C49F74" fill-opacity=".1" p-id="25024"></path><path d="M245.344 128C336.096 196.384 355.52 357.92 448 448c112 109.056 320 253.536 320 416 0 10.88-0.288 21.568-0.832 32H128V128h117.344z" fill="#C49F74" fill-opacity=".2" p-id="25025"></path><path d="M128 482.272c228.096 21.824 407.232 197.504 415.68 413.728H128V482.272z" fill="#C49F74" fill-opacity=".3" p-id="25026"></path><path d="M495.36 189.952l14.24 31.488c5.6 12.16 10.4 22.112 15.296 31.68 18.304 35.584 37.504 63.296 62.272 87.424 31.264 30.432 68.768 52.128 143.488 87.232l18.88 8.832c68.064 31.936 115.52 58.688 146.464 88.032v51.296c-22.784-38.304-71.872-68.992-160.064-110.368l-18.88-8.832c-77.92-36.608-117.568-59.52-152.224-93.28-27.52-26.816-48.64-57.28-68.384-95.712a815.68 815.68 0 0 1-15.904-32.96c-3.04-6.592-12.928-28.512-14.304-31.552-14.656-32.096-28.192-56.736-43.2-75.232h39.36c11.264 17.376 21.984 37.92 32.96 61.952zM559.68 896h-32C519.232 688.8 347.424 520.064 128 498.368v-32.16c236.8 21.952 423.232 204.544 431.68 429.792z m192.32-32c0-88.832-61.408-174.048-189.536-290.816 0.448 0.416-101.728-90.432-125.632-113.728-36.032-35.072-60.352-75.84-94.304-148.96l-12.032-26.08C290.752 198.336 260 150.4 217.984 128h53.792c30.656 30.464 57.216 76.8 87.776 143.04-1.28-2.848 9.216 19.968 12 25.952 32.416 69.76 55.168 107.936 87.616 139.52 23.296 22.72 124.8 112.96 124.864 113.024C718.624 672.224 784 762.912 784 864c0 10.88-0.256 21.536-0.8 32h-32.032c0.544-10.464 0.832-21.12 0.832-32z" fill="#C49F74" p-id="25027"></path><path d="M128 96h768a32 32 0 0 1 32 32v768a32 32 0 0 1-32 32H128a32 32 0 0 1-32-32V128a32 32 0 0 1 32-32z m0 32v768h768V128H128z" fill="#5D6D7E" p-id="25028"></path></svg>