<svg xmlns="http://www.w3.org/2000/svg" viewBox="0 0 1024 1024" version="1.1"><path d="M112 112m32 0l736 0q32 0 32 32l0 736q0 32-32 32l-736 0q-32 0-32-32l0-736q0-32 32-32Z" fill="#FFFFFF" p-id="19649"></path><path d="M331.456 928A52.864 52.864 0 0 1 320 896c0-42.656 7.936-117.344 23.776-224 22.496-139.008 62.976-183.712 121.44-134.144 87.712 74.4 248.512 238.016 116.96 357.024-14.4 13.056-28.832 24-43.072 33.12H331.456z m229.248-56.832c47.456-42.944 50.592-93.44 16.96-156.48-27.104-50.848-75.072-103.168-133.12-152.416-30.272-25.664-49.952-3.904-69.12 114.432C359.808 781.888 352 855.36 352 896h177.472c10.464-7.232 20.896-15.52 31.232-24.832z" fill="#A9B4C0" p-id="19650"></path><path d="M258.016 928c-13.44-37.568-32.48-90.56-34.016-96-18.08-64.288-29.344-157.696-33.728-280.224 113.792-200.416 215.584-259.552 305.344-177.504 52.576 48.064 108.992 97.6 162.4 177.504 83.392 124.8 327.808 177.44 204.64 297.504A683.84 683.84 0 0 1 764.896 928H258.016z m497.056-32a646.976 646.976 0 0 0 85.248-69.632c36.896-35.968 32.16-55.104-17.024-94.72a696.096 696.096 0 0 0-36.096-26.784c-4.896-3.456-33.248-23.168-41.6-29.088-55.616-39.36-89.504-69.312-114.176-106.24a675.968 675.968 0 0 0-68.48-86.272c-23.84-25.6-34.048-35.2-88.896-85.376-68-62.144-148.48-16.832-251.456 161.824 4.544 115.712 15.36 203.776 32.224 263.616 0.64 2.304 8.512 24.512 22.816 64.48l0.096 0.256 2.848 7.936h474.496z" fill="#A9B4C0" p-id="19651"></path><path d="M128 544H96V414.784c174.848-224 324.16-279.072 447.84-165.28 20.672 19.008 37.76 32 53.024 42.752-6.656 8.32-11.936 17.824-15.52 28.096-27.52-19.072-36.704-26.656-59.168-47.296C417.376 176.64 289.728 221.92 128 425.856V544z m768 0v-36.608c-80.992 20.8-144.32 6.016-186.656-57.696a1090.24 1090.24 0 0 0-4.896-7.328c10.24-3.648 19.648-9.024 27.968-15.744L736 432c44.064 66.336 116.48 60 192 31.648V544h-32z" fill="#27A2DF" p-id="19652"></path><path d="M672 464a112 112 0 1 0 0-224 112 112 0 0 0 0 224z m0-32a80 80 0 1 1 0-160 80 80 0 0 1 0 160z" fill="#30AD98" p-id="19653"></path><path d="M128 96h768a32 32 0 0 1 32 32v768a32 32 0 0 1-32 32H128a32 32 0 0 1-32-32V128a32 32 0 0 1 32-32z m0 32v768h768V128H128z" fill="#5D6D7E" p-id="19654"></path></svg>