<svg xmlns="http://www.w3.org/2000/svg" viewBox="0 0 1024 1024" version="1.1"><path d="M544 96a32 32 0 0 1 32 32l0.032 70.4a318.208 318.208 0 0 1 112.416 46.624L738.272 195.2a32 32 0 0 1 45.248 0L828.8 240.48a32 32 0 0 1 0 45.248l-49.792 49.824A318.208 318.208 0 0 1 825.6 448H896a32 32 0 0 1 32 32v64a32 32 0 0 1-32 32l-70.4 0.032a318.208 318.208 0 0 1-46.624 112.416l49.792 49.824a32 32 0 0 1 0 45.248L783.52 828.8a32 32 0 0 1-45.248 0l-49.824-49.792a318.208 318.208 0 0 1-112.416 46.624L576 896a32 32 0 0 1-32 32h-64a32 32 0 0 1-32-32v-70.4a318.208 318.208 0 0 1-112.448-46.624L285.728 828.8a32 32 0 0 1-45.248 0L195.2 783.52a32 32 0 0 1 0-45.248l49.792-49.824A318.208 318.208 0 0 1 198.4 576H128a32 32 0 0 1-32-32v-64a32 32 0 0 1 32-32l70.4-0.032a318.208 318.208 0 0 1 46.624-112.448L195.232 285.728a32 32 0 0 1 0-45.248L240.48 195.2a32 32 0 0 1 45.248 0l49.824 49.792A318.208 318.208 0 0 1 448 198.4V128a32 32 0 0 1 32-32h64z" fill="#FFFFFF" p-id="38879"></path><path d="M544 96a32 32 0 0 1 32 32l0.032 70.4a318.208 318.208 0 0 1 112.416 46.624L738.272 195.2a32 32 0 0 1 45.248 0L828.8 240.48a32 32 0 0 1 0 45.248l-49.792 49.824A318.208 318.208 0 0 1 825.6 448H896a32 32 0 0 1 32 32v64a32 32 0 0 1-32 32l-70.4 0.032a318.208 318.208 0 0 1-46.624 112.416l49.792 49.824a32 32 0 0 1 0 45.248L783.52 828.8a32 32 0 0 1-45.248 0l-49.824-49.792a318.208 318.208 0 0 1-112.416 46.624L576 896a32 32 0 0 1-32 32h-64a32 32 0 0 1-32-32v-70.4a318.208 318.208 0 0 1-112.448-46.624L285.728 828.8a32 32 0 0 1-45.248 0L195.2 783.52a32 32 0 0 1 0-45.248l49.792-49.824A318.208 318.208 0 0 1 198.4 576H128a32 32 0 0 1-32-32v-64a32 32 0 0 1 32-32l70.4-0.032a318.208 318.208 0 0 1 46.624-112.448L195.232 285.728a32 32 0 0 1 0-45.248L240.48 195.2a32 32 0 0 1 45.248 0l49.824 49.792A318.208 318.208 0 0 1 448 198.4V128a32 32 0 0 1 32-32h64z m0 32h-64v96.544l-25.632 5.216a285.984 285.984 0 0 0-90.816 35.392l-10.336 6.528-21.792 14.432-68.32-68.256-45.248 45.248 68.288 68.256-14.432 21.824a286.304 286.304 0 0 0-39.232 89.152l-2.72 12-5.184 25.6L128 480v64h96.544l5.216 25.632a285.984 285.984 0 0 0 35.392 90.816l6.528 10.336 14.432 21.792-68.256 68.32 45.248 45.248 68.32-68.256 21.76 14.4a286.304 286.304 0 0 0 89.184 39.232l12 2.72 25.632 5.216V896h64l0.032-96.576 25.6-5.184a285.984 285.984 0 0 0 90.816-35.392l10.336-6.528 21.792-14.432 68.32 68.256 45.248-45.248-68.256-68.32 14.4-21.76a286.304 286.304 0 0 0 39.232-89.152l2.72-12 5.184-25.6L896 544v-64h-96.544l-5.216-25.632a285.984 285.984 0 0 0-35.392-90.816l-6.528-10.336-14.432-21.792 68.256-68.32-45.248-45.248-68.32 68.256-21.76-14.4a286.304 286.304 0 0 0-89.152-39.232l-12-2.72-25.6-5.184L544 128z" fill="#5D6D7E" p-id="38880"></path><path d="M512 336a176 176 0 1 0 0 352 176 176 0 0 0 0-352z m0 32a144 144 0 1 1 0 288 144 144 0 0 1 0-288z" fill="#32AD99" p-id="38881"></path><path d="M512 591.776a16 16 0 0 1 15.744 13.12l0.256 2.88v128a16 16 0 0 1-31.744 2.88l-0.256-2.88v-128a16 16 0 0 1 16-16zM416 496a16 16 0 0 1 2.88 31.744L416 528H288a16 16 0 0 1-2.88-31.744L288 496h128z m320-0.224a16 16 0 0 1 2.88 31.744l-2.88 0.256h-128a16 16 0 0 1-2.88-31.744l2.88-0.256h128zM512 272a16 16 0 0 1 15.744 13.12L528 288v128a16 16 0 0 1-31.744 2.88L496 416V288a16 16 0 0 1 16-16z" fill="#808FA1" p-id="38882"></path></svg>