<svg xmlns="http://www.w3.org/2000/svg" viewBox="0 0 1024 1024" version="1.1"><path d="M512 512m-400 0a400 400 0 1 0 800 0 400 400 0 1 0-800 0Z" fill="#FFFFFF" p-id="38482"></path><path d="M512 96c229.76 0 416 186.24 416 416s-186.24 416-416 416S96 741.76 96 512 282.24 96 512 96z m0 32C299.936 128 128 299.936 128 512s171.936 384 384 384 384-171.936 384-384S724.064 128 512 128z" fill="#5D6D7E" p-id="38483"></path><path d="M512 320a192 192 0 1 1 0 384 192 192 0 0 1 0-384z m0 32a160 160 0 1 0 0 320 160 160 0 0 0 0-320z" fill="#95A1AF" p-id="38484"></path><path d="M512 224a288 288 0 0 1 205.44 489.856l-22.816-22.432A256 256 0 1 0 256 512h-0.032l0.032 0.416a16 16 0 0 1-13.12 15.712l-2.88 0.288A16 16 0 0 1 224 512a288 288 0 0 1 288-288z" fill="#808FA1" p-id="38485"></path><path d="M512 512m-64 0a64 64 0 1 0 128 0 64 64 0 1 0-128 0Z" fill="#30AD98" p-id="38486"></path><path d="M500.672 500.672a16 16 0 0 1 20.416-1.824l2.24 1.824 271.52 271.552a16 16 0 0 1-20.416 24.48l-2.24-1.856-271.52-271.52a16 16 0 0 1 0-22.656z" fill="#30AD98" p-id="38487"></path><path d="M288 288a64 64 0 1 1 0 128 64 64 0 0 1 0-128z m496-160a80 80 0 1 1 0 160 80 80 0 0 1 0-160z" fill="#FFFFFF" p-id="38488"></path><path d="M288 288a64 64 0 1 1 0 128 64 64 0 0 1 0-128z m0 32a32 32 0 1 0 0 64 32 32 0 0 0 0-64z" fill="#27A2DF" p-id="38489"></path><path d="M784 128a80 80 0 1 1 0 160 80 80 0 0 1 0-160z m0 32a48 48 0 1 0 0 96 48 48 0 0 0 0-96z" fill="#C49F74" p-id="38490"></path></svg>