<svg xmlns="http://www.w3.org/2000/svg" viewBox="0 0 1024 1024" version="1.1"><path d="M416 832v32h-96v-32h96z m352-160v32h-96v-32h96zM512 96c77.696 0 150.432 21.312 212.672 58.4A80 80 0 1 1 843.84 261.12a413.92 413.92 0 0 1 84.032 241.056L928 512H96l0.128-9.824C101.344 276.96 285.536 96 512 96z" fill="#FFFFFF" p-id="38133"></path><path d="M512 256a256 256 0 0 1 255.872 248L768 512H256c0-30.464 5.312-59.648 15.072-86.72 7.232 8.544 16.64 15.168 27.36 19.008a221.12 221.12 0 0 0-7.264 29.888L290.272 480h443.424l-0.768-5.248a224.096 224.096 0 0 0-213.216-186.624L512 288a223.104 223.104 0 0 0-144.64 52.96 63.68 63.68 0 0 0-28-17.984A255.04 255.04 0 0 1 512 256z" fill="#95A1AF" p-id="38134"></path><path d="M512 96c77.696 0 150.432 21.312 212.672 58.4-7.2 7.904-12.8 17.248-16.32 27.52A382.08 382.08 0 0 0 521.6 128.16L512 128C312.96 128 148.736 279.68 129.824 474.048L129.28 480h765.376l-0.48-5.632a381.856 381.856 0 0 0-75.936-194.08c9.792-4.608 18.496-11.2 25.6-19.2a413.888 413.888 0 0 1 84.032 241.088L928 512H96l0.128-9.824C101.344 276.96 285.536 96 512 96z" fill="#5D6D7E" p-id="38135"></path><path d="M288 833.088v32H112a16 16 0 0 1-2.88-31.744l2.88-0.256H288z m624 0a16 16 0 0 1 2.88 31.744l-2.88 0.256H448v-32h464zM640 672v32H112a16 16 0 0 1-2.88-31.744L112 672H640z m272 0a16 16 0 0 1 2.88 31.744L912 704H800v-32h112zM320 320a64 64 0 1 1 0 128 64 64 0 0 1 0-128z m0 32a32 32 0 1 0 0 64 32 32 0 0 0 0-64z m464-224a80 80 0 1 1 0 160 80 80 0 0 1 0-160z m0 32a48 48 0 1 0 0 96 48 48 0 0 0 0-96z" fill="#808FA1" p-id="38136"></path><path d="M416 800a32 32 0 0 1 32 32v32a32 32 0 0 1-32 32h-96a32 32 0 0 1-32-32v-32a32 32 0 0 1 32-32h96z m0 32h-96v32h96v-32z m352-192a32 32 0 0 1 32 32v32a32 32 0 0 1-32 32h-96a32 32 0 0 1-32-32v-32a32 32 0 0 1 32-32h96z m0 32h-96v32h96v-32z" fill="#32AD99" p-id="38137"></path></svg>