<svg xmlns="http://www.w3.org/2000/svg" viewBox="0 0 1024 1024" version="1.1"><path d="M512 512m-384 0a384 384 0 1 0 768 0 384 384 0 1 0-768 0Z" fill="#FFFFFF" p-id="38383"></path><path d="M512 128c212.064 0 384 171.904 384 384 0 212.064-171.936 384-384 384s-384-171.936-384-384c0-212.096 171.936-384 384-384z m0 32c-194.4 0-352 157.6-352 352s157.6 352 352 352 352-157.6 352-352-157.6-352-352-352z" fill="#5D6D7E" p-id="38384"></path><path d="M512 416a96 96 0 1 1 0 192 96 96 0 0 1 0-192z m0 32a64 64 0 1 0 0 128 64 64 0 0 0 0-128z" fill="#30AD98" p-id="38385"></path><path d="M512 735.36a16 16 0 0 1 15.744 13.12l0.256 2.88v192a16 16 0 0 1-31.744 2.88l-0.256-2.88v-192a16 16 0 0 1 16-16z m430.176-238.176a16 16 0 0 1 2.88 31.744l-2.88 0.256h-192a16 16 0 0 1-2.88-31.744l2.88-0.256h192z m-668.352 0a16 16 0 0 1 2.88 31.744l-2.88 0.256h-192a16 16 0 0 1-2.88-31.744l2.88-0.256h192zM512 67.008a16 16 0 0 1 15.744 13.12l0.256 2.88v192a16 16 0 0 1-31.744 2.88l-0.256-2.88v-192a16 16 0 0 1 16-16z" fill="#808FA1" p-id="38386"></path></svg>