<svg xmlns="http://www.w3.org/2000/svg" viewBox="0 0 1024 1024" version="1.1"><path d="M128 112a16 16 0 0 0-16 16v768a16 16 0 0 0 16 16h768a16 16 0 0 0 16-16V128a16 16 0 0 0-16-16H128z" fill="#FFFFFF" p-id="21930"></path><path d="M384 608h416v32H384v-32z m0 128h416v32H384v-32z m-128-160h64v64H256v-64z m0 128h64v64H256v-64z" fill="#808FA1" opacity=".5" p-id="21931"></path><path d="M282.048 452.352l-47.84-44.096-43.392 47.04 96.576 89.056 141.984-165.248-48.544-41.728z" fill="#30AD98" p-id="21932"></path><path d="M128 96h768a32 32 0 0 1 32 32v768a32 32 0 0 1-32 32H128a32 32 0 0 1-32-32V128a32 32 0 0 1 32-32z m0 32v768h768V128H128z m0 128h768v32H128V256z m480-64h160v32h-160V192z m192 0h64v32h-64V192z m-320 288h320v32H480v-32z" fill="#5D6D7E" p-id="21933"></path></svg>