<svg xmlns="http://www.w3.org/2000/svg" viewBox="0 0 1024 1024" version="1.1"><path d="M256 695.808c-15.04 5.312-31.168 8.192-48 8.192-79.52 0-123.872-64.48-123.872-144S128.48 416 208 416c16.832 0 32.96 2.88 48 8.192v271.616z m544-278.944a145.6 145.6 0 0 1 16-0.864c79.52 0 128.544 64.48 128.544 144S895.52 704 816 704a145.6 145.6 0 0 1-16-0.864v-286.272z m-272.256 426.24h64.416c35.328 0 64 17.536 64 52.896s-28.672 52-64 52h-64.416c-35.328 0-64-16.64-64-52s28.672-52.864 64-52.864z" fill="#FFFFFF" p-id="22906"></path><path d="M802.72 736a47.936 47.936 0 0 1-2.72-16V704h96v16a48 48 0 0 1-32 45.28V800a128 128 0 0 1-128 128h-96v-64h96a64 64 0 0 0 64-64v-64h2.72zM192.384 416C200.704 237.856 347.808 96 528 96c180.192 0 327.264 141.856 335.616 320h-64.064a272 272 0 0 0-543.104 0H192.384zM256 704v16a48 48 0 0 1-96 0V704h96z m-96-245.216a112 112 0 0 0 0 202.432v34.56a144.064 144.064 0 0 1 0-271.584v34.56z m704 202.432a112 112 0 0 0 0-202.432v-34.56a144.064 144.064 0 0 1 0 271.584v-34.56z" fill="#5D6D7E" p-id="22907"></path><path d="M160 416h96v288H160v-288z m32 32v224h32v-224H192z m608-32h96v288h-96v-288z m32 32v224h32v-224h-32z" fill="#808FA1" p-id="22908"></path><path d="M512 832h96a64 64 0 1 1 0 128h-96a64 64 0 1 1 0-128z m0 32a32 32 0 0 0 0 64h96a32 32 0 0 0 0-64h-96z" fill="#27A2DF" p-id="22909"></path></svg>