<svg xmlns="http://www.w3.org/2000/svg" viewBox="0 0 1024 1024" version="1.1"><path d="M800 96a32 32 0 0 1 32 32v525.664h52.992a32 32 0 0 1 32 32v199.84a32 32 0 0 1-32 32H140.352a32 32 0 0 1-32-32v-199.84a32 32 0 0 1 32-32H192V256a32 32 0 0 1 32-32h32V192a32 32 0 0 1 32-32h32V128a32 32 0 0 1 32-32h448z" fill="#FFFFFF" p-id="51170"></path><path d="M800 96a32 32 0 0 1 32 32v544h-32V128H352v32h-32V128a32 32 0 0 1 32-32h448z" fill="#ACB4C0" p-id="51171"></path><path d="M736 160a32 32 0 0 1 32 32v480h-32V192H288v32H256V192a32 32 0 0 1 32-32h448z" fill="#808FA1" p-id="51172"></path><path d="M672 256H224v416H192V256a32 32 0 0 1 32-32h448a32 32 0 0 1 32 32v423.84l-32 23.904V256z" fill="#5D6D7E" p-id="51173"></path><path d="M296 640L416 736h192l120-96H896a32 32 0 0 1 32 32v224a32 32 0 0 1-32 32H128a32 32 0 0 1-32-32v-224a32 32 0 0 1 32-32h168z m-11.2 32H128v224h768v-224h-156.8l-120 96h-214.4L284.8 672z" fill="#5D6D7E" p-id="51174"></path><path d="M354.56 396.064l2.24 1.856 86.368 86.784a16 16 0 0 1 1.888 20.288l-1.824 2.24-86.4 87.808a16 16 0 0 1-24.64-20.192l1.856-2.24 59.552-60.64L144 512a16 16 0 0 1-2.88-31.744L144 480h249.312l-59.2-59.52a16 16 0 0 1-1.792-20.416l1.856-2.24a16 16 0 0 1 20.416-1.76z" fill="#30AD98" p-id="51175"></path><path d="M509.312 300.064l-2.24 1.856-86.336 86.784a16 16 0 0 0-1.92 20.288l1.824 2.24 86.4 87.808a16 16 0 0 0 24.64-20.192l-1.824-2.24-59.584-60.64 249.6 0.032a16 16 0 0 0 2.88-31.744l-2.88-0.256h-249.28l59.2-59.52a16 16 0 0 0 1.792-20.416l-1.856-2.24a16 16 0 0 0-20.416-1.76z" fill="#3B97D3" p-id="51176"></path></svg>