<svg xmlns="http://www.w3.org/2000/svg" viewBox="0 0 1024 1024" version="1.1"><path d="M128 352h256v96h96V192h64V128h160v64h64v264.96L896 352v432.64L756.8 896H128z" fill="#FFFFFF" p-id="33359"></path><path d="M608 640h-96v-32.64l257.376-0.48L896 505.6v-151.04l-128 102.4V192h-64V128h-160v64h-64v256h-96v-64h-32v-32H160v32H128v224l224-0.384V640H128v256h628.8l11.2-8.96V640h-160z m320-160v320l-160 128H96V352h32v-32h256v32h32v64h32V160h64V96h224v64h64v230.4L928 288v192z m-128 160v221.44l96-76.8v-238.08l-96 76.8V640z" fill="#5D6D7E" p-id="33360"></path><path d="M640 224h96v64h-96V224z m0 96h96v64h-96v-64z m0 96h96v64h-96v-64z m0 96h96v64h-96v-64z m-128-288h96v64h-96V224z m0 96h96v64h-96v-64z m0 96h96v64h-96v-64z m0 96h96v64h-96v-64zM160 416h192v64H160v-64z m0 96h192v64H160v-64z" fill="#808FA1" p-id="33361"></path><path d="M448 770.88l72.864-73.888 22.656 23.008-111.52 113.152-109.12-113.152 22.208-23.008L416 770.56V576h32v194.88z" fill="#27A2DF" p-id="33362"></path></svg>