<svg xmlns="http://www.w3.org/2000/svg" viewBox="0 0 1024 1024" version="1.1"><path d="M421.792 559.552L608 145.792l329.984 773.376H81.92L320 444.256z" fill="#FFFFFF" p-id="33750"></path><path d="M619.84 206.176l4.16 452.096 52.16 76.128L736 800h-18.24v96h193.952l-291.84-689.824zM256 896v-96l64-141.728v-170.72L115.776 896H256z m154.24-357.856l7.04 8.672L608 96l352 832H64l256-512 90.24 122.144zM594.592 672l-2.592-3.808V216l-167.136 395.168-0.032-0.064-0.192 0.384L352 513.152V672h242.592z m56.448 82.304L605.184 704h-262.816l-33.504 64H660.48l-9.408-13.696z m31.36 45.696H288v95.968h397.76v-91.008L682.4 800z" fill="#5D6D7E" p-id="33751"></path><path d="M640 736h-64v-96h96v96h64v96h-96v-96z m-320 0v96H224v-96h64v-96h96v96h-64z" fill="#30AD98" p-id="33752"></path></svg>