<svg xmlns="http://www.w3.org/2000/svg" viewBox="0 0 1024 1024" version="1.1"><path d="M112 112m32 0l736 0q32 0 32 32l0 736q0 32-32 32l-736 0q-32 0-32-32l0-736q0-32 32-32Z" fill="#FFFFFF" p-id="46321"></path><path d="M515.36 466.112c33.152 0 57.344 8.512 73.472 25.984 13.44 15.232 20.608 36.288 20.608 63.168V704h-33.6v-38.976c-8.96 12.544-21.056 22.848-35.392 30.912a117.6 117.6 0 0 1-57.792 14.336c-23.296 0-41.664-5.824-55.552-17.472a58.4 58.4 0 0 1-21.504-46.592c0-26.432 10.304-46.144 31.808-59.584 18.816-12.544 45.696-19.264 80.64-19.712l55.552-0.896v-12.096c0-38.976-20.16-58.24-60.48-58.24-17.024 0-30.912 3.136-41.664 10.304-12.096 7.168-19.712 18.368-23.296 33.152l-35.392-2.688c4.928-24.192 17.024-42.56 35.84-54.208 17.024-10.752 38.976-16.128 66.752-16.128z m58.24 126.784l-53.312 0.896c-51.968 0.896-77.952 17.92-77.952 51.52 0 10.752 4.032 19.264 12.992 26.432 8.96 6.72 20.608 10.304 34.944 10.304 21.952 0 41.216-7.168 58.24-21.504 16.576-13.888 25.088-30.016 25.088-47.936v-19.712zM234.72 384.128h42.56L403.168 704H363.296l-34.048-89.6H182.304L148.256 704H108.832l125.888-319.872z m-40.768 199.36h123.648l-60.48-159.936h-1.792l-61.376 159.936z" fill="#27A2DF" p-id="46322"></path><path d="M648.608 384.128h142.912c29.568 0 53.312 7.168 70.784 21.504 17.024 14.336 25.536 34.048 25.536 59.136 0 17.92-4.928 33.6-14.336 46.592-9.856 11.648-22.848 20.16-38.976 25.536 21.056 3.584 37.184 12.544 48.832 25.984 11.648 13.44 17.92 30.464 17.92 51.968 0 31.36-11.2 54.656-33.152 69.888-18.816 12.544-44.8 19.264-77.504 19.264h-142.016V384.128z m36.736 30.912v108.864h97.216c22.4 0 39.424-4.928 51.072-13.888 11.648-9.408 17.92-23.296 17.92-41.664 0-17.92-5.824-31.36-17.472-40.32-11.648-8.96-28.672-12.992-51.072-12.992h-97.664z m0 139.328v118.72h102.144c22.4 0 39.872-4.48 53.312-12.544 15.68-9.856 23.744-25.536 23.744-46.144 0-20.608-7.168-35.84-20.608-45.696-12.992-9.856-31.808-14.336-56.448-14.336h-102.144z" fill="#30AD98" p-id="46323"></path><path d="M128 96h768a32 32 0 0 1 32 32v768a32 32 0 0 1-32 32H128a32 32 0 0 1-32-32V128a32 32 0 0 1 32-32z m0 32v768h768V128H128z" fill="#5D6D7E" p-id="46324"></path></svg>