<svg xmlns="http://www.w3.org/2000/svg" viewBox="0 0 1024 1024" version="1.1"><path d="M432 432m-320 0a320 320 0 1 0 640 0 320 320 0 1 0-640 0Z" fill="#FFFFFF" p-id="37412"></path><path d="M344.608 689.664a272.512 272.512 0 0 1-126.144-89.152L309.76 398.464c5.856-12.224 8.768-3.232 8.768-10.56 0-11.232-2.016-12.256-16.192-17.152V352h131.328v18.752c-14.4 4.16-18.176 4.32-18.176 14.592 0 7.072 2.304-3.616 6.944 5.44l132.928 283.712a270.08 270.08 0 0 1-78.08 25.76l-6.08-10.592H344.576z m-74.016 0H246.08l-30.944 67.776c-4.64 9.76-6.944 17.472-6.944 23.072 0 10.752 2.752 18.208 19.104 22.368v18.08H96v-18.08c9.76-1.952 25.856-5.376 31.008-10.272 5.12-4.896 10.976-14.4 17.6-28.576l59.2-131.136a305.536 305.536 0 0 0 66.784 56.768z m298.336 13.824l25.28 53.952c8.064 16.352 15.136 27.52 21.248 33.504 6.08 5.984 14.272 9.984 24.544 11.936v18.08h-150.08v-18.08c16.128-2.688 27.84-10.272 27.84-22.72 0-5.12-2.432-12.704-7.296-22.72l-16.128-27.84a301.824 301.824 0 0 0 74.592-26.112z m-116.512-70.08L366.4 440.48l-82.848 192.864h168.832z" fill="#27A2DF" p-id="37413"></path><path d="M679.712 659.008a48 48 0 0 1 53.312 9.984l158.4 158.4a48 48 0 0 1-67.904 67.872l-158.4-158.4a48 48 0 0 1-9.696-53.888A334.72 334.72 0 0 1 432 768C246.432 768 96 617.568 96 432S246.432 96 432 96 768 246.432 768 432c0 87.52-33.472 167.2-88.288 227.008zM432 736a304 304 0 1 0 0-608 304 304 0 0 0 0 608z" fill="#5D6D7E" p-id="37414"></path></svg>