<svg xmlns="http://www.w3.org/2000/svg" viewBox="0 0 1024 1024" version="1.1"><path d="M208.096 704h93.12l123.456-290.112L558.88 704l-23.52-64 85.856-112.064L730.88 704h100.672L928 928H96l112.096-224zM672 96h256v160h-256V96z" fill="#FFFFFF" p-id="16284"></path><path d="M525.696 626.944l94.56-145.376 187.68 319.616h-203.52l-78.72-174.24z m78.72 142.24h147.616l-133.12-226.752-67.84 104.32 53.376 122.432z" fill="#808FA1" p-id="16285"></path><path d="M271.68 736H227.904l-32 64h48.768l27.072-64z m-91.84 96l-32.032 64H879.36l-40.8-94.816H583.232L433.28 436.16 265.824 832H179.84z m644.96-62.816L810.56 736h-41.28l-18.56-32h80.896L928 928H96l112.096-224h77.12l148.48-351.04 170.976 416.224h220.16z" fill="#5D6D7E" p-id="16286"></path><path d="M672 160.48V96h256v160h-256V192.48H256.864v608.736h-32V160.48H672zM704 128v96h192V128h-192z" fill="#30AD98" p-id="16287"></path></svg>