<svg xmlns="http://www.w3.org/2000/svg" viewBox="0 0 1024 1024" version="1.1"><path d="M112 112m32 0l736 0q32 0 32 32l0 736q0 32-32 32l-736 0q-32 0-32-32l0-736q0-32 32-32Z" fill="#FFFFFF" p-id="44720"></path><path d="M128 96h768a32 32 0 0 1 32 32v768a32 32 0 0 1-32 32H128a32 32 0 0 1-32-32V128a32 32 0 0 1 32-32z m0 32v768h768V128H128z m153.664 568.16a48.16 48.16 0 0 0-24.64-21.056l125.184-202.336 163.456 200.256 147.392-361.28a47.776 47.776 0 0 0 31.232 8.064l-169.344 415.168-169.152-207.2-104.128 168.384z" fill="#5D6D7E" p-id="44721"></path><path d="M736 177.312a96.64 96.64 0 0 0-32 0V128h32v49.312zM814.688 256H896v32h-81.312a96.64 96.64 0 0 0 0-32zM736 375.872V480h160v32h-160v192h160v32h-160v160h-32v-160h-114.912l13.056-32H704v-192h-23.552l13.056-32H704v-25.696l32-78.432zM514.464 736H512v160h-32v-160H334.688a96.64 96.64 0 0 0 0-32H480v-10.24L514.464 736zM288 803.168V896H256v-81.312a95.36 95.36 0 0 0 32-11.52zM145.312 736H128v-32h17.312a96.64 96.64 0 0 0 0 32zM256 616V512H128v-32h128V288H128V256h128V128h32v128h192V128h32v128h113.312a96.64 96.64 0 0 0 0 32H512v192h77.824l-13.056 32H512v69.184l-32-39.232V512h-24.448l-26.144-32H480V288H288v192h52.096l-19.776 32H288v52.224L256 616z" fill="#ACB4C0" fill-opacity=".5" p-id="44722"></path><path d="M720 336a64 64 0 1 0 0-128 64 64 0 0 0 0 128z m0-32a32 32 0 1 1 0-64 32 32 0 0 1 0 64z" fill="#30AD98" p-id="44723"></path><path d="M240 784a64 64 0 1 0 0-128 64 64 0 0 0 0 128z m0-32a32 32 0 1 1 0-64 32 32 0 0 1 0 64z" fill="#27A2DF" p-id="44724"></path></svg>