<svg xmlns="http://www.w3.org/2000/svg" viewBox="0 0 1024 1024" version="1.1"><path d="M384.16 517.856l-2.24-5.856L192 544l-64-85.472 361.504-192.576L725.344 128l2.784 10.88 20.384-10.88 56.416 36.032 113.088 483.456-92.672-129.504L832 544l-59.36-57.856L713.216 480c-78.944 69.856-123.68 126.304-134.208 169.344-10.56 43.008 2.784 114.56 40.032 214.656l-5.248 1.856c29.184 22.4 64.576 43.136 106.208 62.144H261.376c-6.208-113.952 6.208-207.296 37.28-280 16.8-39.296 45.312-82.688 85.504-130.144z" fill="#FFFFFF" p-id="16481"></path><path d="M147.904 448.896L192 528l189.952-16 146.848-124-254.56 22.4 438.976-263.488 107.36 376.096L672 388c-98.464 100.448-151.808 187.552-160 261.344-8.192 73.76 27.488 145.312 107.04 214.656-37.248-100.096-50.592-171.648-40.032-214.656 10.56-43.04 55.264-99.488 134.208-169.344l91.712 9.472 113.088 158.016-113.088-483.456L748.48 128 147.84 448.896z" fill="#D8D8D8" p-id="16482"></path><path d="M748.704 154.72l103.392 403.264 36.064 36.512-104.096-413.536-35.36-26.24z m-12.608-49.216l76.224 56.576L947.84 700.48l-41.216-41.76-77.056-78.048-108.64-99.232c-125.536 124.352-156.64 247.584-95.776 372.64l-0.256 0.128c27.84 21.216 61.76 40.96 101.76 59.232l-13.312 29.12c-134.72-61.568-208-141.888-217.28-241.088-9.152-98.24 46.272-206.336 164.608-324.8l11.2-11.168 130.464 127.232-87.232-340.224-440.864 257.92 288.64-46.912-40.128 36.352c-109.6 99.2-179.392 184.256-209.376 254.4-29.984 70.208-42.112 161.152-36.032 272.864l-31.936 1.728c-6.336-116.224 6.4-211.936 38.56-287.136 16.064-37.632 42.24-78.528 78.432-122.752l-182.176 26.112-57.92-76.928 1.056-0.8-13.6 2.24L735.552 103.456l0.544 2.016z m-163.552 698.816c-31.488-120.64 14.72-240.096 137.024-356.48l0.48-0.416-37.824-36.864c-104.544 107.808-152.128 203.936-144.32 287.968 3.584 38.08 18.368 73.344 44.64 105.792zM157.6 461.76l36.8 48.928 199.84-28.64a1380.864 1380.864 0 0 1 68.192-69.824l-304.832 49.536z" fill="#5D6D7E" p-id="16483"></path></svg>