<svg xmlns="http://www.w3.org/2000/svg" viewBox="0 0 1024 1024" version="1.1"><path d="M312.352 720l-183.296 96h614.592l183.296-96H312.352z" fill="#FFFFFF" p-id="30775"></path><path d="M475.52 704l1.12-0.544 0.256 0.544h222.592l1.152-0.544 0.256 0.544H992l-244.416 128H64l244.416-128h167.072z m-67.776 32H316.288l-30.56 16h88.16l33.856-16z m74.944 0l-33.888 16h149.088l33.856-16h-149.056z m224 0l-33.888 16h158.56l30.56-16h-155.232z m63.584 48h-165.216l-33.888 16h168.544l30.56-16z m-274.016 16l33.888-16h-149.088l-33.888 16h149.088z m-224 0l33.888-16H228.928v-2.24L194.08 800h78.176z" fill="#8190A2" p-id="30776"></path><path d="M731.872 801.536H92.8l179.392-288.32-27.2-16.896L35.2 833.536h714.976l180.864-307.136-288.128-344.64-24.544 20.48 273.632 327.36z" fill="#5D6D7E" p-id="30777"></path></svg>