<svg xmlns="http://www.w3.org/2000/svg" viewBox="0 0 1024 1024" version="1.1"><path d="M609.408 822.4c-84.864 0-149.056-53.856-174.4-130.24C246.592 676.928 103.104 616 103.104 539.04V512C103.136 282.24 282.24 106.24 512 106.24c229.76 0 409.504 176 409.504 405.76v27.008c0 6.784-4.448 24.224-4.8 24.48-14.272 35.712-63.232 63.232-128.224 87.04-9.92 96.736-79.712 171.872-179.072 171.872z" fill="#FFFFFF" p-id="45678"></path><path d="M512 704c129.984 0 246.048-22.944 322.336-58.848 5.056-2.368 8.768-13.12 13.472-15.648 37.44-19.84 63.264-43.072 73.792-68.32 3.456-8.32 0-8.512 0-17.184 0-88.352-179.84-160-409.6-160C282.24 384 103.136 454.272 103.136 544c0 20.16 7.232 30.24 24.864 48 44.032 44.256 132.064 79.104 249.184 94.4 3.84 0.512 8.64 10.112 12.512 10.56A1046.08 1046.08 0 0 0 512 704z" fill="#E4E6E8" p-id="45679"></path><path d="M129.088 481.344l21.44 23.744C135.04 519.136 128 532.224 128 544H96c0-22.24 11.776-43.424 33.088-62.656z m737.312-21.152l-16.928 27.136c-21.184-13.216-48.448-25.344-80.576-35.68l9.792-30.464c34.4 11.072 64.096 24.256 87.712 39.008zM688 398.976l-5.664 31.488a908.832 908.832 0 0 0-92-11.52l2.4-31.936c33.344 2.528 65.28 6.592 95.264 11.968z m-192-14.848l0.448 32c-31.68 0.448-62.816 2.304-92.896 5.536l-3.392-31.808c30.656-3.296 62.72-5.248 95.808-5.76z m-190.944 21.056l6.912 31.232a571.904 571.904 0 0 0-87.04 26.048l-11.84-29.76a603.456 603.456 0 0 1 91.968-27.52z" fill="#ACB4C0" p-id="45680"></path><path d="M831.904 646.272a228.224 228.224 0 0 0-1.6-34.144c12.736-6.4 23.872-13.056 33.184-19.936 16.192-12.096 25.6-24.608 29.952-35.552a388.064 388.064 0 0 0-7.936-134.112c-28.576 22.368-70.4 41.792-121.44 56.768a225.088 225.088 0 0 0-30.592-24.896c65.984-16.64 116.48-39.776 142.624-64.736a383.872 383.872 0 0 0-86.144-142.624c-35.072 12.128-75.52 21.984-119.808 28.992 15.04 47.2 25.696 101.472 30.656 160.032a222.368 222.368 0 0 0-33.28-12.064c-5.536-53.024-15.872-101.632-29.568-143.456A1043.52 1043.52 0 0 1 512 288a1043.52 1043.52 0 0 1-125.952-7.456c-17.376 52.992-29.28 116.864-32.896 186.816 31.232 5.152 64.704 8.928 99.84 10.944-9.696 9.28-18.56 19.424-26.432 30.304a953.536 953.536 0 0 1-74.464-8.864 821.632 821.632 0 0 0 13.248 161.504c6.528 1.024 13.184 1.92 19.936 2.816 1.216 11.296 3.264 22.368 6.08 33.12C220.448 677.28 96 616.224 96 544v-32C96 282.24 282.24 96 512 96s416 186.24 416 416v32c0 6.784-4.48 24.224-4.832 24.448-11.68 29.344-44.096 56.032-91.264 77.824z m-500.16 9.248a861.76 861.76 0 0 1-11.552-161.504c-78.624-15.744-142.528-40.864-181.696-71.488a385.024 385.024 0 0 0-7.904 134.208c14.08 39.136 91.584 77.664 201.152 98.784z m96.96-518.464a382.816 382.816 0 0 0-168.416 84.928c30.848 9.44 66.016 17.376 104.416 23.2 17.44-45.216 39.264-82.24 64-108.16zM512 256c40 0 78.528-2.304 114.688-6.464C596.512 174.496 554.688 128 512 128s-84.512 46.496-114.688 121.536C433.472 253.696 472 256 512 256z m251.712-34.016a382.816 382.816 0 0 0-168.448-84.928c24.768 25.856 46.592 62.912 64.032 108.128 38.4-5.824 73.6-13.76 104.416-23.2zM234.048 247.04A383.872 383.872 0 0 0 147.872 389.76c30.176 28.672 92.48 55.008 173.536 71.712 3.84-68.256 15.264-131.456 32.448-185.408-44.288-7.008-84.736-16.864-119.808-28.992z" fill="#5B6B7A" p-id="45681"></path><path d="M764.992 671.04C694.912 691.68 607.168 704 512 704a1086.4 1086.4 0 0 1-51.2-1.216 158.784 158.784 0 0 1-9.952-32.608c19.904 1.184 40.32 1.824 61.152 1.824 52.064 0 101.568-3.904 146.688-10.72a821.632 821.632 0 0 0 13.216-161.536A1016.96 1016.96 0 0 1 512 512c26.72-20.096 59.968-32 96-32s69.248 11.904 96 32c0 50.432-4.16 98.784-11.744 143.52 27.424-5.28 52.8-11.648 75.712-18.848a163.136 163.136 0 0 1-2.976 34.336z" fill="#5B6B7A" p-id="45682"></path><path d="M608 640m-192 0a192 192 0 1 0 384 0 192 192 0 1 0-384 0Z" fill="#FFFFFF" opacity=".5" p-id="45683"></path><path d="M713.696 800.32a192 192 0 1 1 25.28-19.936l117.184 117.12a16 16 0 1 1-22.624 22.656l-119.84-119.84zM608 800a160 160 0 1 0 0-320 160 160 0 0 0 0 320z" fill="#30AD98" p-id="45684"></path></svg>