<svg xmlns="http://www.w3.org/2000/svg" viewBox="0 0 1024 1024" version="1.1"><path d="M734.848 463.808l179.84 111.424v218.016L720 913.28l-192-110.848-192 110.848-191.744-120V568l192.576-119.424-0.96-0.576V226.24l192.128-112 207.84 120v228.992z" fill="#FFFFFF" p-id="45825"></path><path d="M544 342.752l159.84-92.288-0.16 205.824L544 548.576v-205.824z m-32.16 0v205.824l-159.68-92.288L352 250.464l159.84 92.288z" fill="#27A2DF" fill-opacity=".3" p-id="45826"></path><path d="M562.144 576l157.696-91.04L877.536 576l-157.696 91.04L562.144 576z m-384 0l157.696-91.04L493.536 576l-157.696 91.04L178.144 576z" fill="#27A2DF" fill-opacity=".5" p-id="45827"></path><path d="M527.84 558.848l192-110.848 207.84 120v240L719.84 928l-192-110.848-192 110.848L128 808v-240L335.84 448l192 110.848z m-176 322.976l159.84-92.288v-187.072l-159.84 92.288v187.072z m-32 0V694.72L160 602.464v187.072l159.84 92.288z m16-214.784L493.536 576l-157.696-91.04L178.144 576l157.696 91.04z m400 214.784l159.84-92.288v-187.072l-159.84 92.288v187.072z m-32 0V694.72L544 602.464v187.072l159.84 92.288z m16-214.784L877.536 576l-157.696-91.04L562.144 576l157.696 91.04z" fill="#5C6C7C" p-id="45828"></path><path d="M543.84 548.576l159.84-92.288V250.464l-159.84 92.288v205.824z m-32 0v-205.824L352 250.464v205.824l159.84 92.288z m16-233.536L685.536 224l-157.696-91.04L370.144 224l157.696 91.04z m0-219.04l207.84 120v258.784l-207.84 120L320 474.784V216L527.84 96z" fill="#5C6C7C" p-id="45829"></path></svg>