<svg xmlns="http://www.w3.org/2000/svg" viewBox="0 0 1024 1024" version="1.1"><path d="M81.152 512C97.6 736.736 285.312 912 512 912c227.104 0 415.04-175.84 430.912-398.88C927.04 287.84 739.072 112 512 112 285.28 112 97.6 287.264 81.152 512z" fill="#FFFFFF" p-id="33702"></path><path d="M105.28 567.968c46.848-39.744 113.536-72.096 192.704-93.184l10.496 30.336c-80.256 21.024-147.392 54.112-191.36 95.136C172.896 774.976 331.104 896 512 896s339.072-120.992 394.88-295.744c-43.968-41.024-111.104-74.112-191.36-95.136l10.496-30.336c79.168 21.088 145.856 53.44 192.672 93.184 3.936-18.24 6.656-36.928 8.096-55.968C910.4 296.16 729.92 128 512 128S113.6 296.16 97.216 512c1.44 19.04 4.16 37.76 8.096 55.968zM512 96c236.672 0 430.464 183.52 446.88 416-16.416 232.48-210.24 416-446.88 416-236.672 0-430.464-183.52-446.88-416C81.536 279.52 275.36 96 512 96z" fill="#5D6D7E" p-id="33703"></path><path d="M512 320l152.16 110.56-58.112 178.88H417.92l-58.112-178.88z" fill="#27A2DF" p-id="33704"></path></svg>