<svg xmlns="http://www.w3.org/2000/svg" viewBox="0 0 1024 1024" version="1.1"><path d="M528 96C748.928 96 928 232.096 928 400c0 29.664-5.6 58.304-16 85.408V659.2l-34.72 99.008L752.672 864l-207.68 64v-64l-196.224-32h-27.776l-88 89.216L128 832l-64-115.968 7.424-255.904L128 448v-65.6l2.336-15.424C151.968 214.624 321.76 96 528 96z" fill="#FFFFFF" p-id="50575"></path><path d="M240.416 675.744l23.424-22.4C330.72 704.32 424.32 736 528 736c5.568 0 11.136-0.096 16.64-0.288l1.44 144.096c-6.016 0.192-12.032 0.32-18.08 0.32-64.224 0-125.184-11.52-179.232-32L320 835.68v-111.776a402.304 402.304 0 0 1-79.584-48.192zM352 737.216v77.824c52.288 21.088 112.256 33.056 176 33.056 5.696 0 11.36-0.096 16.96-0.288l-0.192-80.064c-5.568 0.16-11.168 0.256-16.768 0.256-62.944 0-122.752-11.04-176-30.784z" fill="#30AD98" p-id="50576"></path><path d="M544 927.776l0.128-531.52L160 357.664V448H128v-65.6c0-16.48 5.216-38.912 15.68-67.264C192.96 185.088 349.568 96 528 96 747.2 96 928 229.664 928 400V672h-0.64c-11.776 142.24-179.392 250.4-383.36 255.776zM896 656v-136.16c-54.4 96.928-173.024 167.456-315.456 181.568l-4.544 0.448v192.128c180.576-15.36 320-116.032 320-237.984z m-320-289.824l1.408 303.392C757.28 651.744 896 537.824 896 400 896 249.792 731.232 128 528 128c-168.768 0-311.008 83.968-354.4 198.464L576 366.176z" fill="#C49F74" p-id="50577"></path><path d="M320 790.848v44.864l-87.008 85.504-20.16-9.44C121.824 869.088 64 793.504 64 708.512V480l0.096-22.944 513.792-90.88L256 676v177.76l64-62.912z m-224-83.424v1.088c0 72.416 50.88 136.16 128 173.12v-188.672l-10.208-4.736C162.72 664.448 122.016 630.368 96 590.048v117.376zM480 416L96 483.904v0.64c0 73.44 52.352 137.92 131.296 174.656L480 416z" fill="#27A2DF" p-id="50578"></path></svg>