<svg xmlns="http://www.w3.org/2000/svg" viewBox="0 0 1024 1024" version="1.1"><path d="M250.24 624l-159.104 288h841.728l-144.352-261.28 27.488-29.696V144h-284.576L336 297.312V624H250.24z" fill="#FFFFFF" p-id="48991"></path><path d="M608 608v32H259.68l-141.44 256h787.52l-128.704-232.896 26.88-17.504L960 928H64l176.832-320H608z" fill="#5D6D7E" p-id="48992"></path><path d="M373.824 288H640v32h-288v128h288v20.8V288h25.408l128.512-128h-256.96l-163.136 128zM352 480v128h288v-136 8h-288z m0 160v128h306.016H640v-128h-288z m320 112.928l128-138.176v-85.632l-128 116.512v107.296z m0-150.56l128-116.512v-134.944l-128 130.944v120.512z m0-166.304l128-130.944V199.136l-128 127.456v109.472z m160 191.264L672 800H320V288h1.952l203.968-160H832v499.328z" fill="#27A2DF" p-id="48993"></path><path d="M352 480h288v128h-288v-128z m320 128v-128l128-128v139.648L672 608z" fill="#D5D9DF" p-id="48994"></path></svg>