<svg xmlns="http://www.w3.org/2000/svg" viewBox="0 0 1024 1024" version="1.1"><path d="M87.648 909.312L939.264 928 512 145.76z" fill="#FFFFFF" p-id="34039"></path><path d="M512 160l117.024 496c28.16 9.152 51.84 35.84 71.104 80 19.264 44.16 25.92 101.952 19.872 173.312H928L512 160z" fill="#30AD98" p-id="34040"></path><path d="M288 896v-64a224 224 0 0 1 448 0v64h169.408L512 161.504 118.592 896H288z m224-800l448 832H64L512 96z m192 800v-64a192 192 0 1 0-384 0v64h384z" fill="#5D6D7E" p-id="34041"></path></svg>