<svg xmlns="http://www.w3.org/2000/svg" viewBox="0 0 1024 1024" version="1.1"><path d="M227.744 429.632L85.408 912H937.28L662.848 142.624l-144.16 385.344-171.296-0.384-119.68-97.92z" fill="#FFFFFF" p-id="34429"></path><path d="M507.616 511.968L663.2 96 960 928H64l155.2-526.016 133.92 109.632 154.496 0.32z m154.88-322.72L529.76 544l-188.128-0.416-105.408-86.304L106.816 896h807.808l-252.16-706.752z" fill="#5D6D7E" p-id="34430"></path><path d="M595.296 800a625.504 625.504 0 0 0-24.768-96h95.424c11.2 29.632 21.44 61.632 30.72 96h-101.376z m-30.944 0h-118.4c1.92-26.528 0.736-53.696-3.648-81.504a247.52 247.52 0 0 0-2.72-14.496h98.112c2.24 6.048 4.352 12.16 6.304 18.272 8.704 27.168 15.488 53.088 20.352 77.728zM608 922.88a930.528 930.528 0 0 0-7.68-90.88h104.64c7.04 28.8 13.472 59.072 19.328 90.88H608z m-36.032 0h-160a331.52 331.52 0 0 0 30.016-90.88h127.744c4.416 32.704 5.152 63.008 2.24 90.88zM558.144 672a550.144 550.144 0 0 0-32.096-64h93.184a401.92 401.92 0 0 1 33.92 64h-95.008z m-33.728 0h-94.08a299.936 299.936 0 0 0-32.576-64h90.656c13.888 20.736 25.888 42.048 36 64z m-19.2-96A322.496 322.496 0 0 0 448 514.144l-18.656-0.96 95.68 0.96A304.768 304.768 0 0 1 595.488 576h-90.272z m-40.096 0h-91.136a513.216 513.216 0 0 0-63.872-64l97.024 0.96A584.64 584.64 0 0 1 465.12 576z" fill="#30AD98" p-id="34431"></path></svg>