<svg xmlns="http://www.w3.org/2000/svg" viewBox="0 0 1024 1024" version="1.1"><path d="M143.776 896.8H880.64L640.256 174.08 450.24 655.552l-154.656-192.128z" fill="#FFFFFF" p-id="45730"></path><path d="M633.536 101.632a8.96 8.96 0 0 0-16.64 0L448 632.96 297.6 416a8.96 8.96 0 0 0-15.68 2.24L96 928.8h832L633.536 101.632zM143.776 896.832L285.76 507.52l57.6 389.28H143.776z m230.944 0L317.12 499.52 448 689.28a8.64 8.64 0 0 0 15.36-2.24l148.416-473.728 56.064 683.52h-293.12z m324.16 0l-58.624-683.52 240.416 683.52H698.88z" fill="#5B6B7A" p-id="45731"></path></svg>