<svg xmlns="http://www.w3.org/2000/svg" viewBox="0 0 1024 1024" version="1.1"><path d="M80 912.64l250.304-485.44L365.888 480 512 128l416 784.64z" fill="#FFFFFF" p-id="20941"></path><path d="M330.304 450.56l300.288 472.416-141.696 5.024-158.592-477.44zM512 164.608L928 928h-224L512 164.608z" fill="#30AD98" p-id="20942"></path><path d="M943.104 896H992v32h-31.68l0.384 0.736L645.024 928H32v-32h54.08l236.736-513.376 41.728 65.792 142.816-361.824L943.104 896z m-332.608 0l-283.2-446.624L121.28 896h489.184z m296.256 0L511.872 162.4l-125.984 319.104L653.76 896h253.024z" fill="#5D6D7E" p-id="20943"></path></svg>