<svg xmlns="http://www.w3.org/2000/svg" viewBox="0 0 1024 1024" version="1.1"><path d="M112 112m32 0l736 0q32 0 32 32l0 736q0 32-32 32l-736 0q-32 0-32-32l0-736q0-32 32-32Z" fill="#FFFFFF" p-id="47417"></path><path d="M128 96h768a32 32 0 0 1 32 32v768a32 32 0 0 1-32 32H128a32 32 0 0 1-32-32V128a32 32 0 0 1 32-32z m0 32v768h768V128H128z" fill="#5D6D7E" p-id="47418"></path><path d="M160 480h256v32H160v-32z m448 0h256v32h-256v-32z" fill="#ACB4C0" p-id="47419"></path><path d="M142.08 176L176 142.08l298.496 298.464-33.92 33.92L142.016 176z m416 416l33.92-33.92 298.496 298.464-33.92 33.92-298.528-298.464z" fill="#27A2DF" p-id="47420"></path><path d="M512 624a112 112 0 1 0 0-224 112 112 0 0 0 0 224z m0-32a80 80 0 1 1 0-160 80 80 0 0 1 0 160z" fill="#808FA1" p-id="47421"></path></svg>