<svg xmlns="http://www.w3.org/2000/svg" viewBox="0 0 1024 1024" version="1.1"><path d="M112 112m32 0l736 0q32 0 32 32l0 736q0 32-32 32l-736 0q-32 0-32-32l0-736q0-32 32-32Z" fill="#FFFFFF" p-id="18598"></path><path d="M128 96h768a32 32 0 0 1 32 32v768a32 32 0 0 1-32 32H128a32 32 0 0 1-32-32V128a32 32 0 0 1 32-32z m0 32v768h768V128H128z" fill="#5D6D7E" p-id="18599"></path><path d="M224 256c94.368 0 145.44 25.536 161.632 74.112 0.832 2.432 21.376 68.288 30.4 94.912 16.832 49.76 34.56 94.944 55.04 137.952C551.072 730.976 656.896 832 800 832v-64c-112.16 0-200.64-84.448-271.136-232.544-19.296-40.48-36.16-83.424-52.224-130.944-8.704-25.696-29.184-91.36-30.272-94.624C419.84 230.464 342.976 192 224 192v64z" fill="#ACB4C0" fill-opacity=".5" p-id="18600"></path><path d="M789.184 161.888l21.632 60.224c-78.464 28.16-125.536 60.48-142.4 94.176l-57.248-28.608c25.792-51.616 85.536-92.64 178.016-125.792z m-230.72 224l58.56 25.728c-54.4 123.84-121.024 209.504-200.768 256L384 612.384c66.56-38.816 125.024-113.984 174.464-226.496z m-246.24 287.04l15.552 62.112C255.36 753.12 224 784.544 224 832H160c0-80.544 53.92-134.464 152.224-159.04z" fill="#27A2DF" p-id="18601"></path><path d="M576 288h64a32 32 0 0 1 32 32v64a32 32 0 0 1-32 32h-64a32 32 0 0 1-32-32V320a32 32 0 0 1 32-32z m0 32v64h64V320h-64z m-256 288h64a32 32 0 0 1 32 32v64a32 32 0 0 1-32 32H320a32 32 0 0 1-32-32v-64a32 32 0 0 1 32-32z m0 32v64h64v-64H320z" fill="#808FA1" p-id="18602"></path></svg>