<svg xmlns="http://www.w3.org/2000/svg" viewBox="0 0 1024 1024" version="1.1"><path d="M256 800V128a32 32 0 0 1 32-32h608a32 32 0 0 1 32 32v576a32 32 0 0 1-32 32H431.872l-70.336 64h98.944l103.808 128H96l100.288-128H256z" fill="#FFFFFF" p-id="14416"></path><path d="M272 800v32H211.84l-50.112 64h335.424l-51.904-64H302.144l30.176-32h128.16l103.808 128H96l100.288-128H272zM352 256V224h228.288v32H352z m0 224v-32h477.12v32H352z m0 96v-32h477.12v32H352z m0 64v-32h288v32h-288z" fill="#808FA1" p-id="14417"></path><path d="M288 96h608a32 32 0 0 1 32 32v576a32 32 0 0 1-32 32H431.872L256 896V128a32 32 0 0 1 32-32z m0 727.616L419.52 704H896V128H288v695.616z" fill="#5D6D7E" p-id="14418"></path><path d="M352 352h477.12v-32H352z" fill="#C49F74" p-id="14419"></path></svg>