<svg xmlns="http://www.w3.org/2000/svg" viewBox="0 0 1024 1024" version="1.1"><path d="M112 112m32 0l736 0q32 0 32 32l0 736q0 32-32 32l-736 0q-32 0-32-32l0-736q0-32 32-32Z" fill="#FFFFFF" p-id="18648"></path><path d="M128 96h768a32 32 0 0 1 32 32v768a32 32 0 0 1-32 32H128a32 32 0 0 1-32-32V128a32 32 0 0 1 32-32z m0 32v768h768V128H128z" fill="#5D6D7E" p-id="18649"></path><path d="M594.56 128h90.496v0.032l-256.064 255.68L544 498.784l352-352v90.496L589.248 544l128 128L672 717.248l-128-128L237.248 896H146.752l352-352-115.04-115.04L128 684.32v-90.464l210.464-210.144-147.52-147.52 45.248-45.248 147.52 147.52z" fill="#CDD1D7" p-id="18650"></path><path d="M633.248 678.496L544 589.248l-101.824 101.824 89.248 89.248 101.824-101.824z m45.248-45.248l101.824-101.824-89.248-89.248L589.248 544l89.248 89.248z m-32.672-236.32l-114.4-114.432-101.824 101.824L544 498.752l101.824-101.824zM384.32 339.072L531.424 192l339.392 339.424-339.392 339.392L192 531.424 339.072 384.32 338.752 384 384 338.752l0.32 0.32z m0 90.528l-101.824 101.824 114.432 114.4L498.752 544 384.32 429.6z" fill="#27A2DF" p-id="18651"></path></svg>