<svg xmlns="http://www.w3.org/2000/svg" viewBox="0 0 1024 1024" version="1.1"><path d="M112 112m32 0l736 0q32 0 32 32l0 736q0 32-32 32l-736 0q-32 0-32-32l0-736q0-32 32-32Z" fill="#FFFFFF" p-id="20146"></path><path d="M509.248 504.352l153.376 153.408-22.624 22.624-153.28-153.28-118.624 119.52-22.72-22.528 244.8-246.72 22.72 22.528-103.68 104.448zM128 880l-22.624-22.624 144-144L272 736 128 880zM689.792 319.808l-24.32-20.768L834.592 100.48l24.384 20.736-169.216 198.624zM272 623.104l-21.696 23.52-144.896-133.728 21.728-23.52 144.864 133.728zM612.864 297.248l-22.624 22.624L393.376 123.008 416 100.384l196.864 196.864z m26.56 440.64l23.2 22.016-158.88 167.584-23.232-22.016 158.88-167.584zM768 680.384l-22.624-22.624 159.488-159.52 22.624 22.624L768 680.384zM729.376 752l22.624-22.624 175.488 175.488-22.624 22.624-175.488-175.488z" fill="#ACB4C0" p-id="20147"></path><path d="M576 288h128v128h-128V288z m32 32v64h64V320h-64zM247.136 608h128v128h-128v-128z m32 32v64h64v-64h-64zM640 640h128v128h-128v-128z m32 32v64h64v-64h-64z" fill="#2FB49E" p-id="20148"></path><path d="M128 96h768a32 32 0 0 1 32 32v768a32 32 0 0 1-32 32H128a32 32 0 0 1-32-32V128a32 32 0 0 1 32-32z m0 32v768h768V128H128z" fill="#5D6D7E" p-id="20149"></path></svg>