<svg xmlns="http://www.w3.org/2000/svg" viewBox="0 0 1024 1024" version="1.1"><path d="M128 96h320a32 32 0 0 1 32 32v320a32 32 0 0 1-32 32H128a32 32 0 0 1-32-32V128a32 32 0 0 1 32-32z m448 448h320a32 32 0 0 1 32 32v320a32 32 0 0 1-32 32H576a32 32 0 0 1-32-32V576a32 32 0 0 1 32-32z" fill="#FFFFFF" p-id="32508"></path><path d="M128 128v320h320V128H128z m0-32h320a32 32 0 0 1 32 32v320a32 32 0 0 1-32 32H128a32 32 0 0 1-32-32V128a32 32 0 0 1 32-32z m448 480v320h320V576H576z m0-32h320a32 32 0 0 1 32 32v320a32 32 0 0 1-32 32H576a32 32 0 0 1-32-32V576a32 32 0 0 1 32-32z" fill="#5D6D7E" p-id="32509"></path><path d="M256 256m32 0l448 0q32 0 32 32l0 448q0 32-32 32l-448 0q-32 0-32-32l0-448q0-32 32-32Z" fill="#27A2DF" p-id="32510"></path></svg>