<svg xmlns="http://www.w3.org/2000/svg" viewBox="0 0 1024 1024" version="1.1"><path d="M576 800v128a32 32 0 0 1-32 32h-64a32 32 0 0 1-32-32v-128H160L512 96l352 704h-288z" fill="#FFFFFF" p-id="30341"></path><path d="M576 800v-32h236.224L512 167.552 211.776 768H480v32H160L512 96l352 704h-288z m-20.256-96l73.28-73.92 22.72 22.56L576 729.024V704h-20.256z m-85.12-48l-22.624 22.624-82.88-82.88 22.624-22.624 82.88 82.88z m96.128-13.632L544 619.84l85.024-85.76 22.72 22.56-85.024 85.728z" fill="#30AD98" p-id="30342"></path><path d="M480 544h64a32 32 0 0 1 32 32v352a32 32 0 0 1-32 32h-64a32 32 0 0 1-32-32V576a32 32 0 0 1 32-32z m0 32v352h64V576h-64z" fill="#5D6D7E" p-id="30343"></path></svg>