<svg xmlns="http://www.w3.org/2000/svg" viewBox="0 0 1024 1024" version="1.1"><path d="M928 641.088A208 208 0 0 1 641.088 928H128a32 32 0 0 1-32-32V128a32 32 0 0 1 32-32h768a32 32 0 0 1 32 32v513.088z" fill="#FFFFFF" p-id="17066"></path><path d="M521.216 896c7.04 11.232 14.848 21.952 23.392 32H128a32 32 0 0 1-32-32V128a32 32 0 0 1 32-32h768a32 32 0 0 1 32 32v416.608a272.896 272.896 0 0 0-32-23.392V128H128v768h393.216z" fill="#5D6D7E" p-id="17067"></path><path d="M752 960a208 208 0 1 0 0-416 208 208 0 0 0 0 416z m0-32a176 176 0 1 1 0-352 176 176 0 0 1 0 352z" fill="#5D6D7E" p-id="17068"></path><path d="M752.256 620.288c7.456 0 14.208 2.688 20.288 8.064 6.08 5.408 9.12 12.384 9.12 20.992 0 8.128-2.88 15.008-8.704 20.608a28.704 28.704 0 0 1-20.704 8.416 28.096 28.096 0 0 1-20.896-8.672 28.352 28.352 0 0 1-8.48-20.544c0-8 2.88-14.848 8.768-20.448a28.8 28.8 0 0 1 20.608-8.416z m-27.52 79.904h54.496V864H724.8v-163.808z" fill="#30AD98" p-id="17069"></path><path d="M400.48 418.368l231.744-139.04 66.016 161.92-94.752-45.12-7.936 9.824c-77.216 95.488-110.656 192.192-99.456 289.44l31.808-3.648c-9.76-84.864 18.24-169.92 84.736-255.808l146.4 69.728-111.264-272.96-408.256 244.928 224.64-37.44c-47.424 48.448-79.04 91.552-94.944 129.664-20.128 48.32-20.128 115.456-0.832 201.632l31.232-6.976c-17.984-80.32-17.984-141.216-0.832-182.368 17.6-42.208 58.944-93.92 124.096-154.432l39.04-36.256-161.44 26.88z" fill="#808FA1" p-id="17070"></path></svg>