<svg xmlns="http://www.w3.org/2000/svg" viewBox="0 0 1024 1024" version="1.1"><path d="M112 112m32 0l736 0q32 0 32 32l0 736q0 32-32 32l-736 0q-32 0-32-32l0-736q0-32 32-32Z" fill="#FFFFFF" p-id="18400"></path><path d="M128 96h768a32 32 0 0 1 32 32v768a32 32 0 0 1-32 32H128a32 32 0 0 1-32-32V128a32 32 0 0 1 32-32z m0 32v768h768V128H128z" fill="#5D6D7E" p-id="18401"></path><path d="M421.44 480a95.84 95.84 0 0 0 0 64H192v-64h229.44z m181.12 0H832v64h-229.44a95.84 95.84 0 0 0 0-64z" fill="#ACB4C0" p-id="18402"></path><path d="M512 640a128 128 0 1 0 0-256 128 128 0 0 0 0 256z m0-64a64 64 0 1 1 0-128 64 64 0 0 1 0 128z" fill="#808FA1" p-id="18403"></path><path d="M446.976 401.728a128.64 128.64 0 0 0-45.248 45.248L224 269.248 269.248 224l177.728 177.728z m175.296 175.296l212.672 212.672-45.248 45.248-212.672-212.672a128.64 128.64 0 0 0 45.248-45.248z" fill="#27A2DF" p-id="18404"></path></svg>