<svg xmlns="http://www.w3.org/2000/svg" viewBox="0 0 1024 1024" version="1.1"><path d="M112 112m32 0l736 0q32 0 32 32l0 736q0 32-32 32l-736 0q-32 0-32-32l0-736q0-32 32-32Z" fill="#FFFFFF" p-id="44870"></path><path d="M128 96h768a32 32 0 0 1 32 32v768a32 32 0 0 1-32 32H128a32 32 0 0 1-32-32V128a32 32 0 0 1 32-32z m0 32v768h768V128H128z m210.208 352h348v32H338.208v-32z" fill="#5D6D7E" p-id="44871"></path><path d="M288 432.96a64 64 0 1 1 0 128 64 64 0 0 1 0-128z m0 32a32 32 0 1 0 0 64 32 32 0 0 0 0-64z" fill="#27A2DF" p-id="44872"></path><path d="M736 432.96a64 64 0 1 1 0 128 64 64 0 0 1 0-128z m0 32a32 32 0 1 0 0 64 32 32 0 0 0 0-64z" fill="#30AD98" p-id="44873"></path></svg>