<svg xmlns="http://www.w3.org/2000/svg" viewBox="0 0 1024 1024" version="1.1"><path d="M112 112m32 0l736 0q32 0 32 32l0 736q0 32-32 32l-736 0q-32 0-32-32l0-736q0-32 32-32Z" fill="#FFFFFF" p-id="45024"></path><path d="M128 96h768a32 32 0 0 1 32 32v768a32 32 0 0 1-32 32H128a32 32 0 0 1-32-32V128a32 32 0 0 1 32-32z m0 32v768h768V128H128z m224 224h64v32H352V352z m128 0h64v32h-64V352z m128 0h64v32h-64V352z" fill="#5D6D7E" p-id="45025"></path><path d="M240.288 450.944c34.496 184 95.616 253.12 179.712 183.36 38.848-32.256 65.344-37.28 87.264-22.784 19.52 12.864 35.904 38.624 60.384 90.56l14.848 31.776c28.064 59.84 80.8 67.52 122.496 15.488 41.28-51.584 70.176-155.68 78.976-300.384l-31.936-1.92c-8.416 138.688-35.68 236.928-72 282.272-26.592 33.216-50.368 29.76-68.544-9.056l-14.88-31.84c-27.072-57.376-45.472-86.272-71.68-103.616-35.36-23.36-76.704-15.52-125.376 24.864-55.68 46.208-97.088-0.64-127.84-164.608l-31.424 5.888z" fill="#A9B4C0" p-id="45026"></path><path d="M256 288a64 64 0 1 1 0 128 64 64 0 0 1 0-128z m0 32a32 32 0 1 0 0 64 32 32 0 0 0 0-64z" fill="#27A2DF" p-id="45027"></path><path d="M768 288a64 64 0 1 1 0 128 64 64 0 0 1 0-128z m0 32a32 32 0 1 0 0 64 32 32 0 0 0 0-64z" fill="#30AD98" p-id="45028"></path></svg>