<svg xmlns="http://www.w3.org/2000/svg" viewBox="0 0 1024 1024" version="1.1"><path d="M96 482.464L384 192l448 448.672V928H96z" fill="#FFFFFF" p-id="18548"></path><path d="M777.056 896l-24.32 32H96V482.464L384 192l382.848 383.456h-45.216L384.064 237.376 128 495.616V896h649.056z" fill="#5D6D7E" p-id="18549"></path><path d="M409.376 96l380.608 380.608 22.624-22.624L432 73.376z" fill="#808FA1" p-id="18550"></path><path d="M859.136 854.784H680.96l-144-160.096H480v-32h71.232l144 160.096h164.288l-55.36-59.936a16 16 0 1 1 23.488-21.696l90.336 97.728-90.432 96.224a16 16 0 0 1-23.328-21.92l54.912-58.4z" fill="#30AD98" p-id="18551"></path><path d="M636 710.912l-21.536-24.64 65.664-87.488h179.392l-55.36-59.936a16 16 0 1 1 23.488-21.696l90.336 97.728-90.432 96.224a16 16 0 0 1-23.328-21.92l54.912-58.4h-163.008l-60.128 80.128z m-58.88 78.496l-24.992 33.376H480v-32h56.128l19.456-25.984 21.568 24.64z" fill="#27A2DF" p-id="18552"></path></svg>