<svg xmlns="http://www.w3.org/2000/svg" viewBox="0 0 1024 1024" version="1.1"><path d="M242.464 90.944h30.304v132.352c0 23.008-2.592 41.28-7.808 54.816-5.184 13.568-14.592 24.576-28.192 33.056-13.6 8.48-31.424 12.736-53.504 12.736-21.472 0-39.04-3.68-52.672-11.104a63.328 63.328 0 0 1-29.216-32.096c-5.824-14.016-8.736-33.152-8.736-57.408V90.944h30.304v132.16c0 19.904 1.856 34.56 5.536 44 3.712 9.44 10.048 16.704 19.072 21.792 8.992 5.12 20.032 7.68 33.056 7.68 22.272 0 38.176-5.056 47.648-15.168 9.472-10.112 14.208-29.536 14.208-58.272V90.944zM323.264 320V90.944h78.88c17.824 0 31.424 1.088 40.8 3.264 13.12 3.04 24.32 8.512 33.6 16.416 12.064 10.208 21.12 23.264 27.104 39.136 5.984 15.904 8.96 34.048 8.96 54.464a160 160 0 0 1-6.08 46.24c-4.064 13.44-9.28 24.576-15.616 33.376a83.008 83.008 0 0 1-20.864 20.768c-7.552 5.056-16.64 8.896-27.36 11.488a156.064 156.064 0 0 1-36.8 3.904h-82.624z m30.304-27.04h48.896c15.104 0 26.944-1.408 35.552-4.224a50.88 50.88 0 0 0 20.544-11.84c7.2-7.2 12.8-16.864 16.8-28.992 4-12.16 6.016-26.88 6.016-44.16 0-23.968-3.936-42.368-11.808-55.232-7.84-12.864-17.408-21.472-28.672-25.856-8.128-3.136-21.184-4.672-39.2-4.672h-48.128v174.976z m199.52 27.04V90.944h85.952c17.504 0 31.52 2.304 42.112 6.944 10.56 4.64 18.848 11.776 24.832 21.408 5.984 9.632 8.96 19.712 8.96 30.24 0 9.792-2.624 19.008-7.936 27.648-5.312 8.64-13.344 15.616-24.064 20.928 13.856 4.064 24.512 11.008 31.936 20.8 7.456 9.792 11.2 21.344 11.2 34.688 0 10.72-2.272 20.704-6.816 29.92a57.92 57.92 0 0 1-16.8 21.312 70.08 70.08 0 0 1-25.088 11.328c-10.048 2.56-22.368 3.84-36.928 3.84h-87.36z m30.304-132.8h49.536c13.44 0 23.072-0.896 28.928-2.656 7.68-2.304 13.504-6.08 17.408-11.424 3.904-5.312 5.856-11.968 5.856-20 0-7.584-1.824-14.304-5.44-20.064a27.68 27.68 0 0 0-15.648-11.872c-6.784-2.144-18.4-3.2-34.848-3.2h-45.76V187.2z m0 105.76h57.056c9.792 0 16.64-0.352 20.608-1.088 6.976-1.248 12.8-3.328 17.504-6.24 4.704-2.912 8.544-7.168 11.552-12.736 3.04-5.568 4.544-12 4.544-19.296a38.08 38.08 0 0 0-6.56-22.272 34.624 34.624 0 0 0-18.208-13.28c-7.744-2.56-18.944-3.84-33.504-3.84H583.36v78.752z m161.12 27.04l88.576-119.36-78.112-109.696h36.096l41.568 58.752c8.64 12.16 14.784 21.568 18.432 28.128 5.12-8.32 11.136-17.056 18.112-26.112l46.08-60.8h32.96l-80.448 108L954.496 320h-37.504l-57.664-81.728c-3.2-4.672-6.56-9.792-9.984-15.296-5.12 8.32-8.736 14.08-10.944 17.184L780.896 320h-36.384z m-250.56 261.152V400a16 16 0 1 1 32 0v181.952l53.76-48.96a16 16 0 0 1 21.536 23.68L509.76 640l-88.736-83.52a16 16 0 0 1 21.952-23.328l50.976 48z" fill="#30AD98" p-id="37843"></path><path d="M349.184 698.944h30.304v132.352c0 23.008-2.592 41.28-7.808 54.816-5.216 13.568-14.592 24.576-28.192 33.056-13.6 8.48-31.424 12.736-53.504 12.736-21.472 0-39.04-3.68-52.672-11.104a63.328 63.328 0 0 1-29.216-32.096c-5.824-14.016-8.768-33.152-8.768-57.408v-132.352h30.336v132.16c0 19.904 1.856 34.56 5.536 44 3.712 9.44 10.048 16.704 19.072 21.792 8.992 5.12 20.032 7.68 33.056 7.68 22.272 0 38.176-5.056 47.648-15.168 9.472-10.112 14.208-29.536 14.208-58.272v-132.192zM429.984 928v-229.056h78.88c17.824 0 31.424 1.088 40.8 3.264 13.12 3.04 24.32 8.512 33.6 16.416 12.064 10.208 21.12 23.264 27.104 39.136 5.984 15.904 8.96 34.048 8.96 54.464a160 160 0 0 1-6.08 46.24c-4.064 13.44-9.28 24.576-15.616 33.376a83.008 83.008 0 0 1-20.864 20.768c-7.552 5.056-16.64 8.896-27.36 11.488a156.064 156.064 0 0 1-36.8 3.904h-82.624z m30.304-27.04h48.896c15.104 0 26.944-1.408 35.52-4.224a50.88 50.88 0 0 0 20.576-11.84c7.2-7.2 12.8-16.864 16.8-28.992 4-12.16 6.016-26.88 6.016-44.16 0-23.968-3.936-42.368-11.808-55.232-7.84-12.864-17.408-21.472-28.672-25.856-8.128-3.136-21.184-4.672-39.2-4.672h-48.128v174.976z m199.52 27.04v-229.056h85.952c17.504 0 31.52 2.304 42.112 6.944 10.56 4.64 18.848 11.776 24.832 21.408 5.984 9.632 8.96 19.712 8.96 30.24 0 9.792-2.624 19.008-7.936 27.648-5.312 8.64-13.344 15.616-24.064 20.928 13.856 4.064 24.512 11.008 31.936 20.8 7.456 9.792 11.2 21.344 11.2 34.688 0 10.72-2.272 20.704-6.816 29.92a57.92 57.92 0 0 1-16.8 21.312 70.08 70.08 0 0 1-25.088 11.328c-10.048 2.56-22.368 3.84-36.928 3.84h-87.36z m30.304-132.8h49.536c13.44 0 23.072-0.896 28.928-2.656 7.68-2.304 13.504-6.08 17.408-11.424 3.904-5.312 5.856-11.968 5.856-20 0-7.584-1.824-14.304-5.44-20.064a27.68 27.68 0 0 0-15.68-11.872c-6.72-2.144-18.368-3.2-34.816-3.2h-45.76v69.216z m0 105.76h57.056c9.792 0 16.64-0.352 20.608-1.088 6.976-1.248 12.8-3.328 17.504-6.24 4.704-2.912 8.544-7.168 11.552-12.736 3.04-5.568 4.544-12 4.544-19.296a38.08 38.08 0 0 0-6.56-22.272 34.624 34.624 0 0 0-18.208-13.28c-7.744-2.56-18.944-3.84-33.504-3.84h-52.992v78.752z" fill="#27A2DF" p-id="37844"></path></svg>