<svg xmlns="http://www.w3.org/2000/svg" viewBox="0 0 1024 1024" version="1.1"><path d="M128 144a16 16 0 0 0-16 16v736a16 16 0 0 0 16 16h160a16 16 0 0 0 16-16v-736a16 16 0 0 0-16-16H128z m80 736a64 64 0 1 1 0-128 64 64 0 0 1 0 128z" fill="#E3684E" p-id="21681"></path><path d="M406.688 125.664a16 16 0 0 0-20.672 9.216L122.24 821.984a16 16 0 0 0 9.216 20.672l149.376 57.344a16 16 0 0 0 20.672-9.184L565.248 203.648a16 16 0 0 0-9.184-20.672L406.688 125.664zM208 880a64 64 0 1 1 0-128 64 64 0 0 1 0 128z" fill="#F9B54C" p-id="21682"></path><path d="M668.32 237.248a16 16 0 0 0-22.624 0L125.248 757.728a16 16 0 0 0 0 22.624l113.152 113.152a16 16 0 0 0 22.624 0L781.44 373.024a16 16 0 0 0 0-22.624l-113.12-113.12zM208 880.032a64 64 0 1 1 0-128 64 64 0 0 1 0 128z" fill="#54C0EB" p-id="21683"></path><path d="M844.96 469.696a16 16 0 0 0-20.512-9.568L132.832 711.872a16 16 0 0 0-9.568 20.48l54.72 150.4a16 16 0 0 0 20.512 9.536l691.616-251.712a16 16 0 0 0 9.568-20.512l-54.72-150.368zM208 880a64 64 0 1 1 0-128 64 64 0 0 1 0 128z" fill="#F2F9FF" p-id="21684"></path><path d="M880 720m0 32l0 128q0 32-32 32l-704 0q-32 0-32-32l0-128q0-32 32-32l704 0q32 0 32 32Z" fill="#4CDBC4" p-id="21685"></path><path d="M128 736.256v159.744h736v-160H128.128L128 736.256z m736 191.744H128a32 32 0 0 1-32-32v-736a32 32 0 0 1 32-32h160a32 32 0 0 1 32 32V262.208L371.072 129.152A32 32 0 0 1 412.416 110.752l149.376 57.344a32 32 0 0 1 18.4 41.312l-44.064 114.784 98.24-98.24a32 32 0 0 1 45.248 0l113.152 113.152a32 32 0 0 1 0 45.248L682.24 494.848l136.736-49.76a32 32 0 0 1 41.024 19.104l54.72 150.368a32 32 0 0 1-19.136 40.992l-133.024 48.416H864a32 32 0 0 1 32 32v160a32 32 0 0 1-32 32z m-194.976-224l215.616-78.464-54.72-150.368-628.704 228.832h467.808zM128 696.608l29.344-10.688L288 345.568V160H128v536.608z m51.84-18.88l4.32-1.6 296.352-296.32 69.792-181.856L400.96 140.608 203.008 656.256l-23.168 21.472z m75.488-27.456l355.744-129.504 159.04-159.04-113.12-113.152L255.36 650.272z" fill="#5D6D7E" p-id="21686"></path><path d="M208 864a48 48 0 1 0 0-96 48 48 0 0 0 0 96z" fill="#434F5B" p-id="21687"></path></svg>