<svg xmlns="http://www.w3.org/2000/svg" viewBox="0 0 1024 1024" version="1.1"><path d="M284.96 432l-165.76 480h787.552l-180.576-480z" fill="#FFFFFF" p-id="47662"></path><path d="M283.776 416h453.632L928 928H96l187.776-512zM141.824 896H881.92L715.2 448H306.112L141.824 896z" fill="#808FA1" p-id="47663"></path><path d="M363.84 544l6.944-32h-103.04v-32h109.984l11.04-51.04 31.296 6.784-9.6 44.256H496v-48h32V480h86.496l-9.504-44.288 31.296-6.72 10.944 51.008h106.176v32H654.08l6.848 32h119.168v32h-112.32l20.576 96h141.824v32h-134.944l13.696 64h150.112v32h-143.264l23.232 108.288-31.296 6.72-24.64-115.008H528v112h-32V800h-154.848l-24.896 115.04-31.296-6.784L308.416 800H160v-32h155.36l13.856-64H192v-32h144.16l20.8-96H234.816v-32h129.024z m32.768 0H496v-32h-92.48l-6.912 32z m-6.944 32l-20.8 96H496v-96h-106.336z m138.336-32h100.224l-6.88-32H528v32z m0 32v96h127.648l-20.576-96H528z m134.496 128H528v64h148.224l-13.76-64zM496 704h-134.048l-13.856 64H496v-64z" fill="#808FA1" p-id="47664"></path><path d="M262.912 112l-145.728 512h788.512l-173.216-512H262.912z" fill="#C49F74" fill-opacity=".2" p-id="47665"></path><path d="M250.848 96h493.12L928 640H96L250.848 96z m24.16 32l-136.64 480h745.024L720.992 128H275.008z" fill="#C49F74" p-id="47666"></path></svg>