<svg xmlns="http://www.w3.org/2000/svg" viewBox="0 0 1024 1024" version="1.1"><path d="M864 704h32v192h-32v32h-256V96h256v608zM576 96v832H128V96h448z" fill="#FFFFFF" p-id="28560"></path><path d="M96 96h480v832H96V96z m256 32v768h192V128h-192z m-32 0H128v768h192V128z" fill="#5D6D7E" p-id="28561"></path><path d="M873.376 704H704v169.376L873.376 704z m22.624 22.624L726.624 896H896v-169.376zM672 672h256v256h-256v-256z" fill="#27A2DF" p-id="28562"></path><path d="M672 128h-64V96h64v32z m64-32h64v32h-64V96z m96 0h32v32h-32V96z m32 96v64h-32V192h32z m0 128v64h-32v-64h32z m0 128v64h-32v-64h32z m0 192h-32v-64h32v64z m-224 288h-32v-96.096h32V928z m-32-160v-64h32v64h-32z m0-128v-64h32v64h-32z m0-128v-64h32v64h-32z m0-128v-64h32v64h-32z m0-128V192h32v64h-32z" fill="#ACB4C0" p-id="28563"></path></svg>