<svg xmlns="http://www.w3.org/2000/svg" viewBox="0 0 1024 1024" version="1.1"><path d="M96 96m48 0l736 0q48 0 48 48l0 736q0 48-48 48l-736 0q-48 0-48-48l0-736q0-48 48-48Z" fill="#FFFFFF" p-id="24366"></path><path d="M128 96h768a32 32 0 0 1 32 32v768a32 32 0 0 1-32 32H128a32 32 0 0 1-32-32V128a32 32 0 0 1 32-32z m0 32v768h768V128H128z" fill="#5D6D7E" p-id="24367"></path><path d="M736 608v224h-64v-224h-128v-64h320v64h-128zM352 608v224H288v-224H160v-64h320v64H352z m192-352v224h-64V256H352V192h320v64h-128z" fill="#C49F74" p-id="24368"></path></svg>