<svg xmlns="http://www.w3.org/2000/svg" viewBox="0 0 1024 1024" version="1.1"><path d="M224 864H192v-64H96V96h576v64h64v64h28.48L896 357.216V928H224z" fill="#FFFFFF" p-id="36865"></path><path d="M736 160v64h-32V192H192v640h32v32H160V160z" fill="#808FA1" p-id="36866"></path><path d="M672 96v64h-32V128H128v640h32v32H96V96z" fill="#B7BFC8" p-id="36867"></path><path d="M224 745.728l-128-89.12v-256l128 89.12V224h541.024l0.896-0.928 0.96 0.928H768v1.152L895.936 352l0.256 0.224-0.192 0.192V544h-32v-160h-128V256H256v640h608v-192h32v224H224v-182.272z m544-475.52V352h82.496L768 270.208z" fill="#5D6D7E" p-id="36868"></path><path d="M256 512h672v256H256z" fill="#808FA1" p-id="36869"></path><path d="M545.856 390.688l-67.2 81.28a16 16 0 1 1-25.6-19.2L561.6 320l112.704 132.544a16 16 0 1 1-25.216 19.68l-71.232-81.536V624a16 16 0 1 1-32-0.224v-233.12z" fill="#30AD98" p-id="36870"></path></svg>