<svg xmlns="http://www.w3.org/2000/svg" viewBox="0 0 1024 1024" version="1.1"><path d="M749.28 677.6c0 64.224-24.448 118.912-73.376 164.064-48.896 45.184-107.68 67.776-176.384 67.776-40.32 0-88.48-12.32-144.48-36.96-14.944-6.72-26.144-10.08-33.6-10.08-8.96 0-14.56 10.816-16.8 32.48-0.736 11.2-5.6 16.8-14.56 16.8-7.456 0-11.2-4.48-11.2-13.44 0-5.984 0.384-10.464 1.12-13.44 5.984-45.536 8.96-87.744 8.96-126.56 0-7.456-0.736-28.384-2.24-62.72a113.792 113.792 0 0 1-1.12-17.92c0-11.2 4.48-16.8 13.44-16.8 7.456 0 12.704 8.96 15.68 26.88 19.424 132.896 82.496 199.36 189.28 199.36 45.536 0 80.832-12.864 105.856-38.624 24.992-25.792 37.504-62.176 37.504-109.216 0-41.824-12.16-77.44-36.384-106.976-24.288-29.472-65.92-58.784-124.896-87.904-70.944-35.104-120.224-69.056-147.84-101.92-27.616-32.864-41.44-73.536-41.44-122.08 0-61.984 19.968-113.12 59.936-153.44 39.936-40.32 90.528-60.48 151.744-60.48 25.376 0 60.48 8.576 105.28 25.76 15.68 5.984 27.264 8.96 34.72 8.96 8.224 0 13.632-1.504 16.256-4.48 2.592-2.976 5.024-10.816 7.264-23.52 1.504-7.456 5.6-11.2 12.32-11.2 7.456 0 11.2 4.48 11.2 13.44 0 5.984-0.384 10.464-1.12 13.44a534.4 534.4 0 0 0-3.36 64.96c0 35.84 1.856 64.224 5.6 85.12l1.12 17.92c0.736 8.224-2.624 12.32-10.08 12.32-8.224 0-13.824-8.576-16.8-25.76-8.224-44.064-27.616-80.832-58.24-110.336-30.624-29.472-64.96-44.224-103.04-44.224-37.344 0-67.008 11.936-89.056 35.84-22.016 23.904-33.024 56.384-33.024 97.44 0 47.776 16.064 86.24 48.16 115.36 17.92 16.416 56.736 39.584 116.48 69.44 70.176 35.104 120.576 70.72 151.2 106.976 30.624 36.192 45.92 77.44 45.92 123.744z" fill="#5D6D7E" p-id="29051"></path></svg>