<svg xmlns="http://www.w3.org/2000/svg" viewBox="0 0 1024 1024" version="1.1"><path d="M112 112m32 0l736 0q32 0 32 32l0 736q0 32-32 32l-736 0q-32 0-32-32l0-736q0-32 32-32Z" fill="#FFFFFF" p-id="48838"></path><path d="M314.464 128c6.784 3.168 13.76 6.592 20.864 10.24 166.72 85.536 313.024 196.704 385.92 303.232 85.184 124.48 67.648 231.584-77.536 326.24-99.04 64.544-194.144 106.624-280.16 128.288H128V128h186.464zM206.56 456.192c-19.424 79.744-19.424 149.536 0 209.344 29.152 89.696 131.168 119.616 262.304 0 131.136-119.616-29.12-284.096-116.576-358.848-58.272-49.824-106.88 0-145.728 149.504z" fill="#C49F74" opacity=".197" p-id="48839"></path><path d="M468.032 896H363.52c66.24-16.64 137.824-45.44 212.448-87.264V832h24a1015.36 1015.36 0 0 1-131.968 64zM384.448 128A1537.536 1537.536 0 0 1 544 227.616v39.52C481.888 220.8 410.688 176.896 335.328 138.24A619.2 619.2 0 0 0 314.464 128h69.984zM672 747.904c70.4-53.12 102.464-110.176 100.48-171.904h31.776c2.016 72.928-35.84 145.184-132.256 211.296v-39.392zM744.608 480c-6.656-12.672-14.432-25.504-23.36-38.528-27.616-40.384-65.792-81.408-111.616-121.472H640v-15.84c61.664 55.232 112.096 114.912 140.16 175.84h-35.552z m-553.6-27.584c41.44-159.424 99.84-219.328 171.68-157.888 62.08 53.12 113.504 109.664 144 167.264 42.944 81.216 38.4 155.904-27.04 215.552-128 116.736-251.424 106.592-288.32-6.88-20.384-62.848-20.384-135.584-0.32-218.048z m30.784 208.16c28.608 88.096 123.648 95.872 236.288-6.88 53.408-48.704 57.024-107.552 20.32-176.928-28.192-53.312-77.216-107.2-136.512-157.92-44.704-38.24-83.456 1.504-119.808 141.28-18.72 76.96-18.72 143.712-0.32 200.448z" fill="#C49F74" p-id="48840"></path><path d="M544 224h96v96h-96V224z m192 256h96v96h-96v-96z m-160 256h96v96h-96v-96z" fill="#30AD98" p-id="48841"></path><path d="M128 96h768a32 32 0 0 1 32 32v768a32 32 0 0 1-32 32H128a32 32 0 0 1-32-32V128a32 32 0 0 1 32-32z m0 32v768h768V128H128z" fill="#5D6D7E" p-id="48842"></path></svg>