<svg xmlns="http://www.w3.org/2000/svg" viewBox="0 0 1024 1024" version="1.1"><path d="M512 512m-400 0a400 400 0 1 0 800 0 400 400 0 1 0-800 0Z" fill="#FFFFFF" p-id="38432"></path><path d="M512 96c229.76 0 416 186.24 416 416s-186.24 416-416 416S96 741.76 96 512 282.24 96 512 96z m0 32C299.936 128 128 299.936 128 512s171.936 384 384 384 384-171.936 384-384S724.064 128 512 128z" fill="#5D6D7E" p-id="38433"></path><path d="M512 224a288 288 0 0 1 238.208 449.92 16.384 16.384 0 0 1-12.832 6.304 16 16 0 0 1-13.12-25.184l-0.8 1.28a256 256 0 1 0-423.328-0.544 16 16 0 0 1-26.688 17.728h0.064l-0.416-0.544a16 16 0 0 1-0.544-0.896l0.96 1.408A288 288 0 0 1 512 224z" fill="#808FA1" p-id="38434"></path><path d="M512 512m-64 0a64 64 0 1 0 128 0 64 64 0 1 0-128 0Z" fill="#5D6D7E" p-id="38435"></path><path d="M260.672 260.672a16 16 0 0 1 20.416-1.824l2.24 1.824 352 352a16 16 0 0 1-20.416 24.48l-2.24-1.824-352-352a16 16 0 0 1 0-22.656z" fill="#C49F74" p-id="38436"></path></svg>