<svg xmlns="http://www.w3.org/2000/svg" viewBox="0 0 1024 1024" version="1.1"><path d="M832 749.536v-212.64h32v213.632l51.296-57.6 23.904 21.248-90.688 101.856-91.008-101.824 23.84-21.344L832 749.536zM928 896v32H96v-32h832z" fill="#5D6D7E" p-id="32981"></path><path d="M672 128v640a32 32 0 0 1-32 32h-160a32 32 0 0 1-32-32V128a32 32 0 0 1 32-32h160a32 32 0 0 1 32 32z m-320 192v448a32 32 0 0 1-32 32H160a32 32 0 0 1-32-32V320a32 32 0 0 1 32-32h160a32 32 0 0 1 32 32z" fill="#808FA1" p-id="32982"></path></svg>