<svg xmlns="http://www.w3.org/2000/svg" viewBox="0 0 1024 1024" version="1.1"><path d="M112 112m32 0l736 0q32 0 32 32l0 736q0 32-32 32l-736 0q-32 0-32-32l0-736q0-32 32-32Z" fill="#FFFFFF" p-id="36080"></path><path d="M128 96h768a32 32 0 0 1 32 32v768a32 32 0 0 1-32 32H128a32 32 0 0 1-32-32V128a32 32 0 0 1 32-32z m0 32v768h768V128H128z" fill="#5D6D7E" p-id="36081"></path><path d="M272 544h32v288h-32v-288z m0-96V208h32V448h-32z m224 192h32v192h-32v-192z m0-96V208h32V544h-32z m224 0h32v288h-32v-288z m0-96V208h32V448h-32z" fill="#808FA1" p-id="36082"></path><path d="M224 448h128v96H224v-96z m32 32v32h64v-32H256z m192 64h128v96h-128v-96z m32 32v32h64v-32h-64z m192-128h128v96h-128v-96z m32 32v32h64v-32h-64z" fill="#30AD98" p-id="36083"></path></svg>