<svg xmlns="http://www.w3.org/2000/svg" viewBox="0 0 1024 1024" version="1.1"><path d="M704 864v32h-64v-32H128a32 32 0 0 1-32-32V192a32 32 0 0 1 32-32h768a32 32 0 0 1 32 32v640a32 32 0 0 1-32 32h-192z" fill="#FFFFFF" p-id="38084"></path><path d="M896 160a32 32 0 0 1 32 32v640a32 32 0 0 1-32 32h-128v-32h128V192H128v640h448v32H128a32 32 0 0 1-32-32V192a32 32 0 0 1 32-32h768z" fill="#5D6D7E" p-id="38085"></path><path d="M652.8 573.184l-211.744 145.6a16 16 0 0 1-25.056-13.216v-291.136a16 16 0 0 1 25.056-13.216l211.776 145.6a16 16 0 0 1 0 26.368z" fill="#27A2DF" p-id="38086"></path><path d="M592 224.064a16 16 0 0 1 0 32H191.84v496.768a16 16 0 1 1-32 0V256.064a32 32 0 0 1 32-32z m256-0.064a16 16 0 0 1 16 16v384.032a16 16 0 1 1-32 0V240a16 16 0 0 1 16-16zM608 768h128v160h-128v-160z m32 32v96h64v-96h-64z" fill="#808FA1" p-id="38087"></path></svg>