<svg xmlns="http://www.w3.org/2000/svg" viewBox="0 0 1024 1024" version="1.1"><path d="M128 96h768v832H128z" fill="#FFFFFF" p-id="36129"></path><path d="M224 320h384a32 32 0 0 1 32 32v288a32 32 0 0 1-32 32H224a32 32 0 0 1-32-32v-288a32 32 0 0 1 32-32z m0 32v288h384v-288H224z m480 0h160v128h-160v-128z m32 32v64h96v-64h-96z m-242.72 125.12l-116.096 81.28a16 16 0 0 1-25.184-13.12v-162.56a16 16 0 0 1 25.184-13.12l116.096 81.28a16 16 0 0 1 0 26.24z" fill="#27A2DF" p-id="36130"></path><path d="M736 224h96v64h-96V224z m0 320h96v64h-96v-64z m0 160h96v64h-96v-64z" fill="#808FA1" p-id="36131"></path><path d="M128 96v832H96V96h32z m768 0h32v832h-32V96zM480 768v-32h32v32h64v32h-64v32h-32v-32H256v-32h224z" fill="#5D6D7E" p-id="36132"></path></svg>