<svg xmlns="http://www.w3.org/2000/svg" viewBox="0 0 1024 1024" version="1.1"><path d="M96 96m32 0l768 0q32 0 32 32l0 768q0 32-32 32l-768 0q-32 0-32-32l0-768q0-32 32-32Z" fill="#FFFFFF" p-id="15254"></path><path d="M384 128H128v768h256V128z m32 0v768h480V128H416zM128 96h768a32 32 0 0 1 32 32v768a32 32 0 0 1-32 32H128a32 32 0 0 1-32-32V128a32 32 0 0 1 32-32z" fill="#5D6D7E" p-id="15255"></path><path d="M192 224h128v32H192V224z m0 96h128v32H192V320z m0 96h128v32H192v-32z m0 96h128v32H192v-32z" fill="#C49F74" p-id="15256"></path></svg>