<svg xmlns="http://www.w3.org/2000/svg" viewBox="0 0 1024 1024" version="1.1"><path d="M112 112m32 0l736 0q32 0 32 32l0 736q0 32-32 32l-736 0q-32 0-32-32l0-736q0-32 32-32Z" fill="#FFFFFF" p-id="48443"></path><path d="M128 288v608h768V128H128v128h768v32H128z m0-192h768a32 32 0 0 1 32 32v768a32 32 0 0 1-32 32H128a32 32 0 0 1-32-32V128a32 32 0 0 1 32-32z m480 96h160v32h-160V192z m192 0h64v32h-64V192z" fill="#5D6D7E" p-id="48444"></path><path d="M368 368h288v448h-288z" fill="#F0F0F0" fill-opacity=".5" p-id="48445"></path><path d="M352 352h320v480H352V352z m32 32v416h256V384H384z" fill="#27A2DF" p-id="48446"></path><path d="M320 736v32H192V416h128v32H224v288h96z m384 0h96v-288h-96v-32h128v352h-128v-32z" fill="#808FA1" opacity=".5" p-id="48447"></path></svg>