<svg xmlns="http://www.w3.org/2000/svg" viewBox="0 0 1024 1024" version="1.1"><path d="M224 160v32H128v640h96v32H128a32 32 0 0 1-32-32V192a32 32 0 0 1 32-32h96z m576 0h96a32 32 0 0 1 32 32v640a32 32 0 0 1-32 32h-96v-32h96V192h-96V160z" fill="#5D6D7E" p-id="47910"></path><path d="M288 96m32 0l384 0q32 0 32 32l0 768q0 32-32 32l-384 0q-32 0-32-32l0-768q0-32 32-32Z" fill="#27A2DF" fill-opacity=".2" p-id="47911"></path><path d="M320 96h384a32 32 0 0 1 32 32v768a32 32 0 0 1-32 32H320a32 32 0 0 1-32-32V128a32 32 0 0 1 32-32z m0 32v768h384V128H320z" fill="#27A2DF" p-id="47912"></path></svg>