<svg xmlns="http://www.w3.org/2000/svg" viewBox="0 0 1024 1024" version="1.1"><path d="M785.984 124.864l64 110.848a32 32 0 0 1-11.712 43.712l-114.72 66.24A304 304 0 1 1 432 128c67.84 0 130.464 22.208 181.024 59.744l129.28-74.592a32 32 0 0 1 43.68 11.712z" fill="#FFFFFF" p-id="40682"></path><path d="M652.768 375.36l91.424 137.184h120.512v-48.032a16 16 0 0 1 31.744-2.88l0.256 2.88v192a16 16 0 0 1-31.744 2.88l-0.256-2.88v-111.968h-129.056a16 16 0 0 1-11.296-4.672l-2.016-2.432-96.192-144.32 26.624-17.76z" fill="#A0ABB7" p-id="40683"></path><path d="M785.984 124.864l64 110.848a32 32 0 0 1-11.712 43.712l-387.968 224a32 32 0 0 1-43.712-11.712l-12.192-21.12-41.824 78.72-81.312-135.072 90.56-0.032-19.232-33.344a32 32 0 0 1 11.712-43.712l387.968-224a32 32 0 0 1 43.712 11.712z m-27.712 16l-387.968 224 64 110.848 387.968-224-64-110.848z" fill="#27A2DF" p-id="40684"></path><path d="M432 96C617.568 96 768 246.432 768 432c0 89.664-35.104 171.104-92.352 231.36l19.616 19.584a48 48 0 0 1 58.176 7.488l158.4 158.4a48 48 0 1 1-67.904 67.872l-158.4-158.4a48 48 0 0 1-11.008-50.784l-21.984-22.016A334.72 334.72 0 0 1 432 768C246.432 768 96 617.568 96 432S246.432 96 432 96z m0 32a304 304 0 0 0 0 608c3.488 0 6.944-0.064 10.432-0.16L432 736a309.216 309.216 0 0 0 67.04-7.424 301.952 301.952 0 0 0 130.368-65.408l0.448-0.32 5.44-4.8a305.92 305.92 0 0 0 17.28-16.864l0.448-0.448a305.792 305.792 0 0 0 63.36-101.088A301.824 301.824 0 0 0 736 432 304 304 0 0 0 432 128z" fill="#5D6D7E" p-id="40685"></path><path d="M432 128a304 304 0 1 1 0 608 304 304 0 0 1 0-608z m0 32a272 272 0 1 0 0 544 272 272 0 0 0 0-544z" fill="#FFFFFF" p-id="40686"></path></svg>