<svg xmlns="http://www.w3.org/2000/svg" viewBox="0 0 1024 1024" version="1.1"><path d="M96 96m48 0l672 0q48 0 48 48l0 704q0 48-48 48l-672 0q-48 0-48-48l0-704q0-48 48-48Z" fill="#FFFFFF" p-id="20450"></path><path d="M96 384V352h128v32H96z m0-32h128v32H96V352z m0 288v-32h128v32H96z m0-32h128v32H96v-32z m256 288H320v-192h32v192z m-32 0v-192h32v192H320zM320 96h32v224H320V96z m32 0v224H320V96h32z m256 0h32v224h-32V96z m32 0v224h-32V96h32z m224 256v32h-160V352h160z m0 32h-160V352h160v32z" fill="#B7BFC8" p-id="20451"></path><path d="M864 480h-32V128H128v736h352v32H128a32 32 0 0 1-32-32V128a32 32 0 0 1 32-32h704a32 32 0 0 1 32 32v352z m-189.856-102.048L480 489.28v304.512l-32-17.184v-1.184l-223.264-126.08V353.152l240.704-127.392 240.704 127.36V480h-32V377.952z m-28.416-20.576l-180.288-95.424-181.76 96.224 180.32 103.36 181.728-104.16z m-388.992 22.24v251.04L448 738.688V489.28L256.736 379.616zM512 832h96v96h-96v-96z m0-128h96v96h-96v-96z m0-128h96v96h-96v-96z m128 256h96v96h-96v-96z m0-128h96v96h-96v-96z m128 128h96v96h-96v-96z m64-288h96v96h-96v-96z m3.872 128l67.904 67.872-67.904 67.904L768 739.84 835.872 672z m-128-128l67.904 67.872-67.904 67.904L640 611.84 707.872 544z" fill="#5D6D7E" p-id="20452"></path><path d="M512 832h96v96h-96v-96z m0-128h96v96h-96v-96z m0-128h96v96h-96v-96z m128 256h96v96h-96v-96z m0-128h96v96h-96v-96z m128 128h96v96h-96v-96z" fill="#27A2DF" p-id="20453"></path><path d="M832 544h96v96h-96v-96z m3.872 128l67.904 67.872-67.904 67.904L768 739.84 835.872 672z m-128-128l67.904 67.872-67.904 67.904L640 611.84 707.872 544z" fill="#30AD98" p-id="20454"></path></svg>