<svg xmlns="http://www.w3.org/2000/svg" viewBox="0 0 1024 1024" version="1.1"><path d="M96 416m32 0l768 0q32 0 32 32l0 320q0 32-32 32l-768 0q-32 0-32-32l0-320q0-32 32-32Z" fill="#FFFFFF" p-id="42950"></path><path d="M896 416a32 32 0 0 1 32 32v320a32 32 0 0 1-32 32H128a32 32 0 0 1-32-32v-320a32 32 0 0 1 32-32h768z m0 32H128v320h768v-320z" fill="#5D6D7E" p-id="42951"></path><path d="M704 447.84v320.32h-32v-320.32h32z m-384 0v320.32H288v-320.32h32z" fill="#A7B3C2" p-id="42952"></path><path d="M496 290.784a16 16 0 0 1 15.744 13.12L512 306.784v607.488a16 16 0 0 1-31.744 2.88l-0.256-2.88V306.784a16 16 0 0 1 16-16zM820.032 98.784a16 16 0 0 1 15.744 13.12l0.256 2.88V194.784h80a16 16 0 0 1 2.88 31.744l-2.88 0.256h-80v80a16 16 0 0 1-31.712 2.88l-0.288-2.88V226.784h-80a16 16 0 0 1-2.88-31.744l2.88-0.256h80V114.784a16 16 0 0 1 16-16z" fill="#5D6D7E" p-id="42953"></path></svg>