<svg xmlns="http://www.w3.org/2000/svg" viewBox="0 0 1024 1024" version="1.1"><path d="M864.8 840.96A191.84 191.84 0 0 1 704 928a191.904 191.904 0 0 1-58.208-8.96A974.08 974.08 0 0 1 512 928c-212.064 0-384-64.48-384-144V245.12h0.224A55.168 55.168 0 0 1 128 240C128 160.48 299.936 96 512 96s384 64.48 384 144c0 1.728-0.096 3.424-0.224 5.12H896V784c0 20.224-11.104 39.488-31.2 56.96z" fill="#FFFFFF" p-id="18252"></path><path d="M896 566.656a257.536 257.536 0 0 0-32-30.496v-46.816a298.304 298.304 0 0 1-36.384 22.4c-12.16-6.72-24.896-12.448-38.144-17.12 30.976-13.504 56.32-29.248 74.528-46.592v-150.4C804.704 348.48 669.44 384 512 384S219.296 348.48 160 297.632V448h-0.032c59.232 56.512 194.56 96 352.032 96 7.712 0 15.36-0.096 22.976-0.288-11.168 9.824-21.472 20.64-30.816 32.256-143.36-1.152-271.264-33.696-344.16-86.624V608c0 56 123.072 113.536 288 125.664a261.408 261.408 0 0 0 1.728 32.256C319.488 757.056 211.296 720.928 160 672v104.832l4.448 9.12c28.64 58.816 170.72 108.48 339.68 109.984 9.152 11.424 19.264 22.08 30.24 31.776A935.04 935.04 0 0 1 512 928c-185.76 0-348.416-54.976-384-128V244.48l0.192 0.096A55.136 55.136 0 0 1 128 240C128 160.48 299.936 96 512 96s384 64.48 384 144c0 1.536-0.064 3.04-0.192 4.576L896 244.48v322.144zM512 352c195.456 0 352-58.72 352-112S707.456 128 512 128 160 186.72 160 240 316.544 352 512 352z" fill="#5D6D7E" p-id="18253"></path><path d="M783.776 562.496l-0.384 2.688-24.32 17.28-18.368 9.824-6.72 18.88-10.912 9.856H687.04l-16.8 6.528-0.832 13.12-6.688 10.688-1.632 11.488 3.296 9.824 4.16 9.856s10.112 11.52 0 19.712c0 0-12.544 0-15.04-4.16-2.496-4.032-20.96-15.552-24.32-18.848-3.36-3.264-14.272-6.56-14.272-6.56l-13.408-4.864-12.576-0.832 0.864-17.28-0.864-14.72-4.992-10.688-14.304-10.688-0.832-11.456 1.088-4A192.416 192.416 0 0 0 512 736.128c0 106.144 85.28 192.096 190.272 192.096 105.024 0 190.208-85.92 190.208-192.096a192.256 192.256 0 0 0-108.704-173.632z m140.704 173.632c0 123.776-99.456 224.096-222.208 224.096-122.72 0-222.272-100.32-222.272-224.096C480 612.384 579.552 512 702.272 512c122.752 0 222.208 100.384 222.208 224.128z m-221.536 53.024V752.32l4.224-31.232 9.152-6.592 10.912-12.256 7.552-2.464 25.952 4.896h18.496l7.552 15.584 17.6 13.952 10.88 17.248 14.304 4.896h15.904l10.88 13.12 6.72 13.984 2.528 9.824v16.416l-1.728 9.696a184.096 184.096 0 0 1-40 46.08l-6.88 4.16-20.128 12.288-11.872 8.672a187.136 187.136 0 0 1-27.552 10.4v-11.776l-3.36-27.008s-1.664-15.552-4.224-19.68a34.24 34.24 0 0 0-14.24-12.288c-5.824-2.56-10.08-2.56-13.376-6.56-3.328-4.16-5.92-11.52-10.08-18.08-4.16-6.592-9.216-13.152-9.216-16.448z" fill="#30AD98" p-id="18254"></path></svg>