<svg xmlns="http://www.w3.org/2000/svg" viewBox="0 0 1024 1024" version="1.1"><path d="M128 128h768v768H128z" fill="#FFFFFF" p-id="49483"></path><path d="M608 256.64l160.384 159.296-0.384 0.352V896h128V128H128v128h480v0.64z m0 45.12V416h115.04L608 301.76zM896 928H96V128a32 32 0 0 1 32-32h768a32 32 0 0 1 32 32v768a32 32 0 0 1-32 32zM608 192h160v32h-160V192z m192 0h64v32h-64V192z m-224 96H128v608h608V448h-160V288z" fill="#5D6D7E" p-id="49484"></path><path d="M352 576m32 0l224 0q32 0 32 32l0 160q0 32-32 32l-224 0q-32 0-32-32l0-160q0-32 32-32Z" fill="#EF633F" p-id="49485"></path><path d="M576 576h-32v-32H320v160h32v32H320a32 32 0 0 1-32-32v-160a32 32 0 0 1 32-32h224a32 32 0 0 1 32 32v32z" fill="#2FAF9A" p-id="49486"></path><path d="M512 512h-32v-32H256v160h32v32H256a32 32 0 0 1-32-32v-160a32 32 0 0 1 32-32h224a32 32 0 0 1 32 32v32z" fill="#3B97D3" p-id="49487"></path></svg>