<svg xmlns="http://www.w3.org/2000/svg" viewBox="0 0 1024 1024" version="1.1"><path d="M128 96h768l32 140.704V896a32 32 0 0 1-32 32H128a32 32 0 0 1-32-32V128a32 32 0 0 1 32-32z" fill="#FFFFFF" p-id="52539"></path><path d="M128 128v768h768V128H128z m0-32h768a32 32 0 0 1 32 32v768a32 32 0 0 1-32 32H128a32 32 0 0 1-32-32V128a32 32 0 0 1 32-32z" fill="#8B9CAE" p-id="52540"></path><path d="M608 128H128v768h672V128h-192z m64-32h160v832H96V96h576z" fill="#5D6D7E" p-id="52541"></path><path d="M416 544m32 0l224 0q32 0 32 32l0 160q0 32-32 32l-224 0q-32 0-32-32l0-160q0-32 32-32Z" fill="#EF633F" p-id="52542"></path><path d="M576 448a32 32 0 0 1 32 32v32h-32V480H352v160h32v32H352a32 32 0 0 1-32-32V480a32 32 0 0 1 32-32h224z" fill="#30AD98" p-id="52543"></path><path d="M480 352a32 32 0 0 1 32 32v32H480V384H256v160h32v32H256a32 32 0 0 1-32-32V384a32 32 0 0 1 32-32h224z" fill="#3B97D3" p-id="52544"></path></svg>