<svg xmlns="http://www.w3.org/2000/svg" viewBox="0 0 1024 1024" version="1.1"><path d="M128 96h681.76L928 236.704V896a32 32 0 0 1-32 32H128a32 32 0 0 1-32-32V128a32 32 0 0 1 32-32z" fill="#FFFFFF" p-id="21879"></path><path d="M896 288h32v608a32 32 0 0 1-32 32H128a32 32 0 0 1-32-32V128a32 32 0 0 1 32-32h522.656l-36.448 32H128v768h768V288z" fill="#8B9CAE" p-id="21880"></path><path d="M704 128H128v768h672V448h32v480H96V96h640l-0.704 4.192z" fill="#5D6D7E" p-id="21881"></path><path d="M416 544m32 0l224 0q32 0 32 32l0 160q0 32-32 32l-224 0q-32 0-32-32l0-160q0-32 32-32Z" fill="#EF633F" p-id="21882"></path><path d="M608 512h-32v-32H352v160h32v32H352a32 32 0 0 1-32-32v-160a32 32 0 0 1 32-32h224a32 32 0 0 1 32 32v32z" fill="#30AD98" p-id="21883"></path><path d="M512 416h-32v-32H256v160h32v32H256a32 32 0 0 1-32-32v-160a32 32 0 0 1 32-32h224a32 32 0 0 1 32 32v32z m289.536-263.84l-70.24 70.08a16 16 0 0 1-22.592-22.656l110.592-110.4 107.264 110.56a16 16 0 1 1-22.976 22.304l-70.08-72.224v219.904a16 16 0 0 1-32 0v-217.6z" fill="#3B97D3" p-id="21884"></path></svg>