<svg xmlns="http://www.w3.org/2000/svg" viewBox="0 0 1024 1024" version="1.1"><path d="M928 142.08V914.24H288a285.408 285.408 0 0 1-62.496 0H192v-7.52a123.008 123.008 0 0 1-14.848-6.208c-27.424-13.728-54.496-41.152-81.152-82.24V177.824C128 135.2 160 78.08 192 78.08s64 21.344 96 64h640z" fill="#FFFFFF" p-id="31017"></path><path d="M288 160v664.64l-0.32-0.224c0.224 2.528 0.32 5.024 0.32 7.584H256a64 64 0 1 0-64 64h704V160H288z m-32-11.072l-3.648-10.24A64.032 64.032 0 0 0 128 160v600.448A95.648 95.648 0 0 1 192 736c24.576 0 47.04 9.248 64 24.448V148.928zM282.56 128H928v800H192a96 96 0 0 1-96-96V160a96 96 0 0 1 186.56-32z" fill="#5D6D7E" p-id="31018"></path><path d="M579.68 800a240 240 0 1 1 0-480 240 240 0 0 1 0 480z m0-32a208 208 0 1 0 0-416 208 208 0 0 0 0 416z m168.832 7.616a32 32 0 1 1 46.432-44.064l132.8 140a32 32 0 0 1-46.432 44.032l-132.8-139.968z" fill="#808FA1" p-id="31019"></path><path d="M576 544v-96h32v96h96v32h-96v96h-32v-96h-96v-32h96z" fill="#27A2DF" p-id="31020"></path></svg>