<svg xmlns="http://www.w3.org/2000/svg" viewBox="0 0 1024 1024" version="1.1"><path d="M464 757.344c185.568 0 328.224-139.776 328.224-325.344 0-185.568-142.656-326.72-328.224-326.72C278.432 105.28 139.328 246.4 139.328 432c0 185.568 139.104 325.344 324.672 325.344z" fill="#FFFFFF" p-id="23049"></path><path d="M711.712 659.008a48 48 0 0 1 53.312 9.984l158.4 158.4a48 48 0 0 1-67.904 67.872l-158.4-158.4a48 48 0 0 1-9.696-53.888A334.72 334.72 0 0 1 464 768C278.432 768 128 617.568 128 432S278.432 96 464 96 800 246.432 800 432c0 87.52-33.472 167.2-88.288 227.008zM464 736a304 304 0 1 0 0-608 304 304 0 0 0 0 608z" fill="#5D6D7E" p-id="23050"></path><path d="M448 416V256h32v160h160v32h-160v160h-32v-160H288v-32h160z" fill="#27A2DF" p-id="23051"></path></svg>