<svg xmlns="http://www.w3.org/2000/svg" viewBox="0 0 1024 1024" version="1.1"><path d="M490.08 736l-263.36 170.432 82.304-293.216L64 405.536l326.4-10.752L490.08 96l99.648 298.784 326.4 10.784-245.024 207.68 82.304 293.184L490.048 736zM176 192.096V176h108.384a16 16 0 1 1 0 32h-49.6l72 62.56a16 16 0 0 1-20.96 24.16L208 227.104V279.36a16 16 0 0 1-32 0V192.096z m636.384 34.24l-81.76 68.544a16 16 0 1 1-20.544-24.512L784.416 208H736a16 16 0 1 1 0-32H844.384v103.36a16 16 0 1 1-32 0V226.304zM112 705.376l80.96-76.992a16 16 0 1 1 22.016 23.168l-80.64 76.736h54.08a16 16 0 1 1 0 32H80V656.96a16 16 0 0 1 32 0v48.448z m725.6 22.912l-80.64-76.736a16 16 0 1 1 22.08-23.168l84.288 80.224V656.96a16 16 0 0 1 32 0v103.36h-108.384a16 16 0 0 1 0-32h50.656z" fill="#30AD98" p-id="17019"></path><path d="M496 629.984L387.2 704l34.016-127.36L320 486.464l134.816-4.704L496 352l41.184 129.76 134.816 4.704-101.216 90.176L604.768 704z" fill="#FFFFFF" p-id="17020"></path></svg>