<?xml version="1.0" standalone="no"?><!DOCTYPE svg PUBLIC "-//W3C//DTD SVG 1.1//EN" "http://www.w3.org/Graphics/SVG/1.1/DTD/svg11.dtd"><svg t="1559133061445" class="icon" style="" viewBox="0 0 1024 1024" version="1.1" xmlns="http://www.w3.org/2000/svg" p-id="10585" xmlns:xlink="http://www.w3.org/1999/xlink" width="128" height="128"><defs><style type="text/css"></style></defs><path d="M985.516536 615.991316L962.446449 546.765062a51.134028 51.134028 0 0 0-48.553138-34.984968h-231.300613c0-1.835211-0.293874-3.656429-0.875623-5.39768l-9.549897-28.721659h36.014525a59.284526 59.284526 0 0 0 42.247847-17.458498 59.748327 59.748327 0 0 0-42.247847-101.956191h-75.871399l-14.989559-45.230565a34.339245 34.339245 0 0 0-32.310117-23.006114H563.178009v-51.17801h51.17801c28.251861-0.029987 51.148022-22.926149 51.178009-51.178009h341.187396a17.05867 17.05867 0 0 0 0-34.117341h-344.332044a51.094046 51.094046 0 0 0-48.03536-34.119339h-51.17801V102.356019a51.283964 51.283964 0 0 0-34.119339-48.263262V17.05867A17.05867 17.05867 0 0 0 511.998001 0a17.05867 17.05867 0 0 0-17.05867 17.05867v37.261989A51.094046 51.094046 0 0 0 460.819991 102.356019v17.05867h-51.178009A51.096045 51.096045 0 0 0 361.606622 153.534028H17.278576C7.856624 153.534028 0.219906 161.170747 0.219906 170.592698s7.636719 17.05867 17.05867 17.058671H358.465972c0.029987 28.251861 22.926149 51.148022 51.178009 51.178009h51.17801v51.178009h-21.832619a34.425208 34.425208 0 0 0-32.402077 23.289993l-14.887603 44.946687h-75.881395a59.282527 59.282527 0 0 0-42.247847 17.458498 59.748327 59.748327 0 0 0 42.247847 101.956191h36.014525l-9.549897 28.721659a17.080661 17.080661 0 0 0-0.875623 5.39768h-231.300613a51.134028 51.134028 0 0 0-48.555137 34.984968l-23.070087 69.226254C14.453789 622.260622-1.603311 644.874905 0.39583 669.62627c1.999141 24.751365 21.48077 44.494881 46.202147 46.825879 24.721378 2.330998 47.549569-13.422233 54.140737-37.363945 6.591168-23.941713-4.955871-49.158877-27.388232-59.8103L93.919644 557.560423a17.028683 17.028683 0 0 1 16.185045-11.660989h60.707915V614.136113c-18.833907 0.021991-34.097349 15.285432-34.119339 34.11934v34.119339c0.021991 18.833907 15.283433 34.097349 34.119339 34.119339h34.119339c18.833907-0.021991 34.097349-15.285432 34.11934-34.119339v-34.119339c-0.021991-18.833907-15.283433-34.097349-34.11934-34.11934v-68.236679h136.475359v40.63454l-49.36279 24.687392a33.887439 33.887439 0 0 0-18.875889 30.520885v91.810551c0.021991 18.833907 15.285432 34.097349 34.119339 34.119339h17.05867v37.261989a51.094046 51.094046 0 0 0-34.119339 48.03536v51.178009c0 28.263855 22.914154 51.178009 51.178009 51.17801s51.178009-22.914154 51.17801-51.17801v-51.178009a51.096045 51.096045 0 0 0-34.119339-48.03536v-36.908141a720.944219 720.944219 0 0 0 102.356018 14.377822v88.060162c-29.371379 22.028535-41.352231 60.380055-29.743219 95.211088 11.611011 34.831034 44.205006 58.324939 80.921229 58.324939s69.310218-23.493905 80.921229-58.324939c11.609012-34.831034-0.369841-73.182554-29.74322-95.211088V782.403811a721.230096 721.230096 0 0 0 102.356019-14.377822v36.908141a51.094046 51.094046 0 0 0-34.119339 48.03536v51.178009c0 28.263855 22.914154 51.178009 51.178009 51.17801 28.263855 0 51.178009-22.914154 51.17801-51.17801v-51.178009a51.096045 51.096045 0 0 0-34.11934-48.03536V767.670142h17.058671c18.833907-0.021991 34.097349-15.283433 34.119339-34.11934v-91.81055a33.901433 33.901433 0 0 0-18.857897-30.520885l-49.378783-24.689392v-40.63254h136.475359V614.136113c-18.833907 0.021991-34.097349 15.285432-34.11934 34.11934v34.119339c0.021991 18.833907 15.285432 34.097349 34.11934 34.119339h34.119339c18.833907-0.021991 34.097349-15.285432 34.119339-34.119339v-34.119339c-0.021991-18.833907-15.283433-34.097349-34.119339-34.11934v-68.236679h60.707914a17.028683 17.028683 0 0 1 16.185046 11.660989l20.569162 61.717481c-22.436359 10.651423-33.989395 35.874585-27.396229 59.822295 6.591168 23.945711 29.425356 39.704939 54.152732 37.371942 24.727375-2.330998 44.213002-22.080512 46.212143-46.835875 1.997142-24.757362-14.065956-47.375643-38.099629-53.64495zM563.17601 153.534028h51.17801a17.072664 17.072664 0 0 1 17.05867 17.05867v17.058671a17.072664 17.072664 0 0 1-17.05867 17.05867h-51.17801V153.534028z m-511.780094 528.838765a17.05867 17.05867 0 1 1 17.05867-17.05867 17.072664 17.072664 0 0 1-17.05867 17.05867z m153.560017 0H170.812604v-34.119339h34.119339l0.02399 34.119339z m436.924259-187.651369h-78.712178l25.589004-34.119339h41.778049l11.345125 34.119339zM494.939331 102.356019a17.05867 17.05867 0 0 1 17.05867-17.05867 17.05867 17.05867 0 0 1 17.05867 17.05867v187.653368h-34.11734V102.356019z m-85.297349 102.356019a17.072664 17.072664 0 0 1-17.05867-17.05867v-17.05867a17.072664 17.072664 0 0 1 17.05867-17.058671h51.178009v51.17801h-51.178009z m9.679841 178.123462c0.341853-0.701698 0.637726-1.425388 0.88362-2.167068l18.783929-56.541705H585.060607l18.73395 56.541705c0.239897 0.731686 0.531772 1.44338 0.875624 2.133083l14.525758 43.681231h-214.38788l14.513764-43.647246z m126.803514 77.766585l-25.589005 34.119339h-42.665667l25.589005-34.119339h42.665667z m-152.662403 0h67.367053l-25.589005 34.119339H382.11581l11.347124-34.119339z m-86.176971 272.948717v-91.81055l34.119339-17.05867v108.86922h-34.119339z m51.17801 170.594698a17.05867 17.05867 0 0 1-34.117341 0v-51.178009c0-9.421952 7.636719-17.05867 17.05867-17.058671s17.05867 7.636719 17.058671 17.058671v51.178009z m-42.647675-460.602085c-14.131928 0-25.589005-11.457077-25.589005-25.589005 0-14.131928 11.457077-25.589005 25.589005-25.589005h64.374339l-17.016688 51.17801h-47.357651z m196.181703 545.897435c-28.263855 0-51.178009-22.912155-51.17801-51.17801s22.912155-51.178009 51.17801-51.178009c28.263855 0 51.178009 22.914154 51.178009 51.178009-0.029987 28.251861-22.926149 51.148022-51.178009 51.17801z m-17.05867-134.7501v-70.733607c5.687556 0.131943 11.371114 0.455804 17.05867 0.455805 5.689555 0 11.371114-0.323861 17.05867-0.455805v70.733607a85.245371 85.245371 0 0 0-34.11734 0z m85.297349-107.895639a698.303948 698.303948 0 0 1-136.475359 0v-149.717668a17.072664 17.072664 0 0 1 17.05867-17.05867h102.356019a17.072664 17.072664 0 0 1 17.05867 17.05867v149.717668z m68.236679-10.26159a703.51171 703.51171 0 0 1-34.119339 5.999422v-145.4555c-0.029987-28.251861-22.926149-51.148022-51.17801-51.178009h-102.356019c-28.251861 0.029987-51.148022 22.926149-51.178009 51.178009v145.4555a659.986412 659.986412 0 0 1-34.119339-5.999422V528.838765h272.948717v207.694756z m12.350693-292.990106l-17.016688-51.17801h64.374339c14.12593 0.015993 25.573012 11.463074 25.589005 25.589005a25.469056 25.469056 0 0 1-25.589005 25.589005h-47.357651z m38.827317 460.602085a17.05867 17.05867 0 0 1-34.117341 0v-51.178009a17.05867 17.05867 0 0 1 34.117341 0v51.178009z m17.05867-262.405248v91.81055h-34.11934v-108.86922l34.11934 17.05867z m136.475358 40.632541h-34.119339v-34.119339h34.119339v34.119339z m119.414689 0a17.05867 17.05867 0 1 1 17.05867-17.05867 17.072664 17.072664 0 0 1-17.05867 17.05867z" fill="" p-id="10586"></path></svg>