<?xml version="1.0" standalone="no"?><!DOCTYPE svg PUBLIC "-//W3C//DTD SVG 1.1//EN" "http://www.w3.org/Graphics/SVG/1.1/DTD/svg11.dtd"><svg t="1559133053460" class="icon" style="" viewBox="0 0 1207 1024" version="1.1" xmlns="http://www.w3.org/2000/svg" p-id="10454" xmlns:xlink="http://www.w3.org/1999/xlink" width="150.875" height="128"><defs><style type="text/css"></style></defs><path d="M86.38359 977.001026a406.711795 46.998974 0 1 0 813.423589 0 406.711795 46.998974 0 1 0-813.423589 0Z" fill="#45413C" opacity=".15" p-id="10455"></path><path d="M1055.245128 332.406154l-664.287179 99.774359V210.051282l664.287179 30.457436z" fill="#FF6242" p-id="10456"></path><path d="M390.957949 210.051282v56.188718l664.287179 30.457436V240.508718z" fill="#FF866E" p-id="10457"></path><path d="M1042.116923 253.059282l-638.030769-29.275897v193.142153l638.030769-95.835897V253.059282z m15.07118 92.317539l-664.28718 99.774358a13.128205 13.128205 0 0 1-15.071179-12.970666V210.051282a13.128205 13.128205 0 0 1 13.732102-13.128205l664.28718 30.457436a13.128205 13.128205 0 0 1 12.524307 13.128205v91.897436a13.128205 13.128205 0 0 1-11.18523 12.970667z" fill="#45413C" p-id="10458"></path><path d="M632.516923 180.118974a18.116923 18.116923 0 0 0-18.116923-18.116923h-192.196923a18.116923 18.116923 0 0 0-18.116923 18.116923v97.148718h228.430769v-97.148718z m-18.116923-44.373333c24.497231 0 44.373333 19.876103 44.373333 44.373333v110.276923a13.128205 13.128205 0 0 1-13.128205 13.128206h-254.687179a13.128205 13.128205 0 0 1-13.128205-13.128206v-110.276923c0-24.497231 19.876103-44.373333 44.373333-44.373333h192.196923z" fill="#45413C" p-id="10459"></path><path d="M802.658462 440.32c0 195.610256-197.185641 375.991795-375.991795 375.991795A293.021538 293.021538 0 0 1 123.930256 518.301538c0-164.627692 145.197949-298.010256 324.004103-298.010256 208.475897 0 354.724103 82.445128 354.724103 220.028718z" fill="#FF6242" p-id="10460"></path><path d="M447.934359 290.658462c191.671795 0 331.355897 70.104615 352.098462 188.783589 1.68041-12.970667 2.546872-26.046359 2.625641-39.122051 0-137.58359-146.773333-220.028718-354.724103-220.028718-178.806154 0-324.004103 133.382564-324.004103 298.010256 0.026256 12.182974 0.735179 24.365949 2.100513 36.496411 18.379487-148.611282 155.437949-264.139487 321.90359-264.139487z" fill="#FF866E" p-id="10461"></path><path d="M789.530256 440.32c0-125.636923-134.590359-206.900513-341.595897-206.900513-171.848205 0-310.875897 127.816205-310.875897 285.118359A279.893333 279.893333 0 0 0 426.666667 803.18359c177.309538 0 362.86359-180.118974 362.863589-362.86359z m26.256411 0c0 197.448205-197.448205 389.12-388.673641 389.12A306.149744 306.149744 0 0 1 110.802051 518.301538c0-172.084513 151.236923-311.138462 337.132308-311.138461 219.634872 0 367.852308 89.481846 367.852308 233.156923zM1135.327179 210.471385a113.165128 113.165128 0 1 0-160.164102 159.849025 113.165128 113.165128 0 0 0 160.164102-159.849025z m-80.265846 219.346051a139.421538 139.421538 0 1 1 0.36759-278.843077 139.421538 139.421538 0 0 1-0.36759 278.843077zM497.821538 135.745641h32.820513v-55.138462h-32.820513v55.138462z m-13.128205-81.394872h59.076923a13.128205 13.128205 0 0 1 13.128206 13.128205v81.394872a13.128205 13.128205 0 0 1-13.128206 13.128205h-59.076923a13.128205 13.128205 0 0 1-13.128205-13.128205v-81.394872a13.128205 13.128205 0 0 1 13.128205-13.128205z" fill="#45413C" p-id="10462"></path><path d="M44.635897 80.607179a13.128205 13.128205 0 0 1 0-26.25641h939.191795a13.128205 13.128205 0 1 1 0 26.25641H44.635897z" fill="#45413C" p-id="10463"></path><path d="M557.161026 54.350769v-7.351795a11.290256 11.290256 0 0 0-11.290257-11.290256h-63.277948a11.290256 11.290256 0 0 0-11.290257 11.290256v7.351795h85.858462zM545.870769 9.452308c20.742564 0 37.546667 16.804103 37.546667 37.546666v20.48a13.128205 13.128205 0 0 1-13.128205 13.128205h-112.114872a13.128205 13.128205 0 0 1-13.128205-13.128205v-20.48c0-20.742564 16.804103-37.546667 37.546667-37.546666h63.277948zM283.201641 782.204718a13.128205 13.128205 0 1 1 22.790564 13.075692l-97.148718 169.616411a13.128205 13.128205 0 1 1-22.790564-13.075693l97.148718-169.61641zM591.819487 764.114051a13.128205 13.128205 0 0 1 25.731282-5.356307l40.96 196.923077a13.128205 13.128205 0 0 1-25.731282 5.356307l-40.96-196.923077z" fill="#45413C" p-id="10464"></path><path d="M791.893333 945.230769a13.128205 13.128205 0 1 1 0 26.25641H113.427692c-41.485128 0-69.868308-13.364513-86.30482-35.997538-10.108718-13.942154-13.732103-27.910564-13.994667-37.966769a13.128205 13.128205 0 1 1 26.25641-0.682667c0.131282 5.251282 2.468103 14.230974 8.979693 23.210667 11.290256 15.596308 31.665231 25.179897 65.063384 25.179897h678.465641z" fill="#45413C" p-id="10465"></path><path d="M388.594872 225.28c-150.711795 26.25641-264.664615 147.035897-264.664616 293.021538a312.451282 312.451282 0 0 0 13.39077 90.584616h320.853333c13.128205-61.650051 14.913641-125.190564 5.251282-187.470769C448.984615 349.210256 424.30359 236.307692 388.594872 225.28z" fill="#00B8F0" p-id="10466"></path><path d="M349.735385 608.886154l109.226666-210.051282C443.995897 328.730256 420.102564 236.307692 388.594872 225.28c-8.139487 1.312821-16.01641 3.150769-23.893334 4.988718L164.890256 608.886154h184.845129z" fill="#4ACFFF" p-id="10467"></path><path d="M386.336821 212.33559a13.128205 13.128205 0 0 1 6.144 0.393846c36.837744 11.395282 58.026667 77.193846 83.915487 206.664205a531.167179 531.167179 0 0 1-5.382564 192.22318 13.128205 13.128205 0 0 1-12.839385 10.397538H137.321026a13.128205 13.128205 0 0 1-12.576821-9.321026 325.579487 325.579487 0 0 1-13.942154-94.391795C110.802051 367.589744 227.511795 240.009846 386.336821 212.33559zM137.058462 518.301538c0 26.177641 3.413333 52.197744 10.16123 77.456411h300.215795c10.870154-56.818872 11.894154-115.081846 3.124513-171.769436-21.372718-106.86359-42.535385-174.185026-63.356718-185.107692C242.399179 265.714872 137.058462 381.952 137.058462 518.301538z" fill="#45413C" p-id="10468"></path><path d="M510.162051 307.725128a485.481026 485.481026 0 0 1 33.608205 142.834872 698.683077 698.683077 0 0 1-9.977435 157.538462h91.372307s31.770256-43.060513 20.48-150.449231a166.990769 166.990769 0 0 0-135.483077-149.924103z" fill="#00B8F0" p-id="10469"></path><path d="M645.645128 458.436923a175.655385 175.655385 0 0 0-28.619487-81.92l-74.305641 162.264615a671.901538 671.901538 0 0 1-8.927179 70.104616h91.372307s31.245128-43.060513 20.48-150.449231z" fill="#4ACFFF" p-id="10470"></path><path d="M497.979077 312.635077a13.128205 13.128205 0 0 1 14.62482-17.801846 180.040205 180.040205 0 0 1 146.090667 161.450666c5.77641 54.718359 1.365333 98.120205-9.636102 131.072-4.726154 14.178462-9.662359 23.578256-13.338257 28.540718a13.128205 13.128205 0 0 1-10.555077 5.330052h-91.372307a13.128205 13.128205 0 0 1-12.918154-15.43877 685.029744 685.029744 0 0 0 9.819897-154.177641 472.352821 472.352821 0 0 0-32.715487-138.975179z m58.893128 137.268513a711.811282 711.811282 0 0 1-7.588102 145.066666h68.450461a121.829744 121.829744 0 0 0 6.432821-15.937641c9.793641-29.302154 13.784615-68.949333 8.402051-120.254359a153.862564 153.862564 0 0 0-101.192205-131.72841c13.600821 39.56841 22.16041 80.764718 25.494974 122.853744z" fill="#45413C" p-id="10471"></path><path d="M975.268103 389.225026a13.128205 13.128205 0 0 1-18.589539 0 139.684103 139.684103 0 0 1 0-197.369436 13.128205 13.128205 0 0 1 18.589539 0l89.271794 89.534359a13.128205 13.128205 0 0 1 0 18.563282l-89.271794 89.271795z m61.44-98.592821L966.498462 220.291282a113.480205 113.480205 0 0 0 0 140.550564l70.183384-70.183384z" fill="#45413C" p-id="10472"></path><path d="M1135.222154 191.85559a13.128205 13.128205 0 0 1 18.589538 0 139.684103 139.684103 0 0 1 0 197.343179 13.128205 13.128205 0 0 1-18.589538 0l-89.271795-89.271795a13.128205 13.128205 0 0 1 0-18.537025l89.271795-89.534359z m-61.44 98.776615l70.183384 70.183385a113.480205 113.480205 0 0 0 0-140.576821l-70.157128 70.393436z" fill="#45413C" p-id="10473"></path></svg>