<?xml version="1.0" standalone="no"?><!DOCTYPE svg PUBLIC "-//W3C//DTD SVG 1.1//EN" "http://www.w3.org/Graphics/SVG/1.1/DTD/svg11.dtd"><svg t="1559134941883" class="icon" style="" viewBox="0 0 1024 1024" version="1.1" xmlns="http://www.w3.org/2000/svg" p-id="3869" xmlns:xlink="http://www.w3.org/1999/xlink" width="128" height="128"><defs><style type="text/css"></style></defs><path d="M176 160a32 32 0 1 0-64 0 32 32 0 1 0 0 64h64a32 32 0 1 0 0-64z" fill="#4FC3F7" p-id="3870"></path><path d="M40 816h-32a8 8 0 0 1 0-16h32a8 8 0 0 1 0 16zM224 816H72a8 8 0 0 1 0-16H224a8 8 0 0 1 0 16zM288 864H120a8 8 0 0 1 0-16H288a8 8 0 0 1 0 16zM488 864h-121.376a24.048 24.048 0 0 1-22.64-31.984l88.48-250.672A8 8 0 0 1 440 576h240a8 8 0 0 1 6.544 12.624l-192 272A8.032 8.032 0 0 1 488 864z m-42.336-272l-86.592 245.328a7.888 7.888 0 0 0 1.008 7.28 7.904 7.904 0 0 0 6.544 3.392h117.232l180.704-256H445.664z" fill="#263238" p-id="3871"></path><path d="M432.448 581.328A8 8 0 0 1 440 576H126.336l-38.08 23.984V616a40 40 0 0 0 40 40h277.84l26.352-74.672z" fill="#FF5252" p-id="3872"></path><path d="M380.656 664H128.256a47.968 47.968 0 0 1-44.08-28.992 8 8 0 1 1 14.688-6.336A32.016 32.016 0 0 0 128.256 648h252.4a8 8 0 0 1 0 16z" fill="#263238" p-id="3873"></path><path d="M680 576a8 8 0 0 1 6.528 12.624L638.96 656H976a40 40 0 0 0 40-40V576h-336z" fill="#FF5252" p-id="3874"></path><path d="M680 488h-240a8 8 0 0 1-7.488-5.184l-87.888-234.368a24.032 24.032 0 0 1 22.464-32.448h100.912c15.024 0 29.392 7.168 38.4 19.2l180 240a8 8 0 0 1-6.4 12.8z m-234.448-16H664L493.6 244.8a32.144 32.144 0 0 0-25.6-12.8h-100.912c-2.672 0-5.056 1.248-6.576 3.44s-1.856 4.88-0.912 7.376L445.552 472zM88.224 608h-80a8 8 0 0 1-5.664-13.664l80-80A8.064 8.064 0 0 1 88.224 512h128a8 8 0 1 1 4.24 14.784l-128 80a8 8 0 0 1-4.24 1.216z m-60.688-16H85.92l102.4-64H91.52l-63.984 64z" fill="#263238" p-id="3875"></path><path d="M976 664H668.336a8 8 0 0 1 0-16H976c17.648 0 32-14.352 32-32v-20c0-10.016-4.784-19.6-12.8-25.6l-69.328-52a152.912 152.912 0 0 0-91.2-30.4H288a7.968 7.968 0 0 1-6.016-2.736l-100.048-114.336a32 32 0 0 0-24.08-10.928H104.016a7.968 7.968 0 0 0-8 8l0.192 119.984c0 4.432-4.192 7.552-8 8.016a8 8 0 0 1-8-7.984l-0.192-119.984c0-6.416 2.48-12.448 7.008-16.992 4.544-4.544 10.576-7.04 16.992-7.04h53.824c13.84 0 27.008 5.968 36.112 16.384l97.664 111.616h543.024c36.096 0 71.904 11.936 100.8 33.6l69.328 52a48.24 48.24 0 0 1 19.2 38.4v20a48 48 0 0 1-47.968 48z" fill="#263238" p-id="3876"></path><path d="M392 864a8 8 0 0 1-7.552-10.656l96-272a8 8 0 0 1 15.088 5.312l-96 272A7.984 7.984 0 0 1 392 864zM488 488a8 8 0 0 1-7.488-5.184l-96-256a8 8 0 0 1 14.976-5.632l96 256a8 8 0 0 1-7.488 10.816z" fill="#263238" p-id="3877"></path><path d="M792 800a48 48 0 1 1 96 0 48 48 0 1 1 0 96h-96a48 48 0 1 1 0-96z" fill="#4FC3F7" p-id="3878"></path><path d="M896 232h-64a8 8 0 0 1 0-16h64a8 8 0 0 1 0 16z" fill="#263238" p-id="3879"></path><path d="M864 264a8 8 0 0 1-8-8v-64a8 8 0 0 1 16 0v64a8 8 0 0 1-8 8zM800 296h-64a8 8 0 0 1 0-16h64a8 8 0 0 1 0 16z" fill="#263238" p-id="3880"></path><path d="M768 328a8 8 0 0 1-8-8v-64a8 8 0 0 1 16 0v64a8 8 0 0 1-8 8zM1010.4 584H856c-13.232 0-24-10.768-24-24v-32c0-13.232 10.768-24 24-24h74.672a8 8 0 0 1 4.8 1.6l69.328 52c4.896 3.68 9.104 8.512 12.512 14.368a8.016 8.016 0 0 1-6.912 12.032z m-154.4-64a8 8 0 0 0-8 8v32a8 8 0 0 0 8 8H992l-64-48h-72z" fill="#263238" p-id="3881"></path></svg>