<?xml version="1.0" standalone="no"?><!DOCTYPE svg PUBLIC "-//W3C//DTD SVG 1.1//EN" "http://www.w3.org/Graphics/SVG/1.1/DTD/svg11.dtd"><svg t="1559133913341" class="icon" style="" viewBox="0 0 1025 1024" version="1.1" xmlns="http://www.w3.org/2000/svg" p-id="10698" xmlns:xlink="http://www.w3.org/1999/xlink" width="128.125" height="128"><defs><style type="text/css"></style></defs><path d="M1005.831181 293.072431 599.414302 293.072431l0-17.319321c0-10.034985-8.136106-18.17109-18.17109-18.17109s-18.17109 8.136106-18.17109 18.17109l0 17.319321L147.778664 293.072431c-10.034985 0-18.17109 8.136106-18.17109 18.17109s8.136106 18.17109 18.17109 18.17109l415.293457 0 0 36.342181-55.081118 0c-30.057255 0-54.513271 24.456016-54.513271 54.513271l0 0.22941-72.684362 0c-10.034985 0-18.17109 8.136106-18.17109 18.17109l0 17.398819L109.146926 456.069384c-10.034985 0-18.17109 8.136106-18.17109 18.17109s8.136106 18.17109 18.17109 18.17109l70.506102 0c-8.092949 31.379202-36.63519 54.631383-70.506102 54.631383C69.002444 547.042948 36.344452 514.382684 36.344452 474.240474s32.657992-72.802474 72.802474-72.802474c19.445338 0 37.727726 7.572802 51.478699 21.323775 7.095811 7.095811 18.600382 7.095811 25.696193 0 7.098082-7.095811 7.098082-18.600382 0-25.696193-20.615102-20.615102-48.023921-31.967491-77.177164-31.967491C48.964274 365.09582 0.002271 414.057823 0.002271 474.240474s48.962003 109.144654 109.144654 109.144654c53.988581 0 98.921145-39.413095 107.602383-90.973564l145.875242 0 0 36.810086c0 40.078611 32.60575 72.684362 72.684362 72.684362l47.222121 0c5.478584 5.353658 11.011681 11.079822 16.787816 17.060382 33.273538 34.447845 70.983093 73.490704 130.327603 73.490704l6.023716 0 0 37.6187-151.262971 0c-10.034985 0-18.17109 8.136106-18.17109 18.17109s8.136106 18.17109 18.17109 18.17109l435.61555 0c25.362299 0 46.527077-13.378465 58.072534-36.703331 4.451917-8.99469 0.77-19.895073-8.22469-24.34699-8.990147-4.449646-19.895073-0.77-24.34699 8.226961-3.722802 7.518289-11.166135 16.481179-25.503125 16.481179l-66.210911 0 0-37.6187 107.997604 0c10.019085 0 18.148377-8.11112 18.17109-18.130205l0.115841-52.421324c0-24.955721-16.060973-41.411915-29.534836-49.634333-4.406489-12.96053-14.748111-40.971266-30.466104-69.281825-30.384335-54.735867-64.911678-82.489936-102.625776-82.489936l-109.767014 0 0-0.22941c0-30.057255-24.456016-54.513271-54.513271-54.513271l-53.772799 0 0-36.342181 406.416879 0c10.034985 0 18.17109-8.136106 18.17109-18.17109S1015.866166 293.072431 1005.831181 293.072431zM817.467387 730.075799l-145.457307 0 0-37.6187 145.457307 0L817.467387 730.075799zM943.676966 656.114918 629.644182 656.114918c-43.919525 0-74.558255-31.71991-104.18849-62.397253-7.561445-7.827197-15.379557-15.922418-23.224925-23.256724-3.366194-3.148141-7.802212-4.897109-12.408583-4.897109l-54.513271 0c-20.03817 0-36.342181-16.304011-36.342181-36.342181l0-72.379996 272.957034 0 0 91.01672c0 28.746665 22.218701 52.403153 50.383891 54.699525 1.437788 0.367965 2.943717 0.561032 4.495073 0.561032l204.424767 0c4.388318 2.603009 12.524424 8.769823 12.524424 18.748023L943.676966 656.114918zM909.88101 566.774481l-179.371376 0c-1.197021-0.247581-2.437197-0.379322-3.706902-0.379322-10.221238 0-18.536784-8.317817-18.536784-18.539055l0-91.01672 109.203711 0C857.918505 456.841655 892.911482 523.808937 909.88101 566.774481zM671.358191 420.270064l0 0.22941-181.538279 0 0-0.22941c0-10.019085 8.152005-18.17109 18.17109-18.17109l145.196098 0C663.206186 402.098974 671.358191 410.250979 671.358191 420.270064z" p-id="10699" fill="#1296db"></path></svg>