<?xml version="1.0" standalone="no"?><!DOCTYPE svg PUBLIC "-//W3C//DTD SVG 1.1//EN" "http://www.w3.org/Graphics/SVG/1.1/DTD/svg11.dtd"><svg t="1559132354634" class="icon" style="" viewBox="0 0 1026 1024" version="1.1" xmlns="http://www.w3.org/2000/svg" p-id="3656" xmlns:xlink="http://www.w3.org/1999/xlink" width="128.25" height="128"><defs><style type="text/css"></style></defs><path d="M549.888 422.4c0-20.48-16.384-36.864-36.864-36.864s-36.864 16.384-36.864 36.864v178.688H395.264c-14.336 0-21.504 16.896-11.776 27.136l117.76 164.352c6.144 6.656 16.896 6.656 23.04 0l117.76-164.352c9.728-10.24 2.56-27.136-11.776-27.136h-80.384V422.4z" p-id="3657"></path><path d="M975.36 248.832h-339.968L472.064 72.192c-9.728-10.24-23.552-16.384-37.376-16.384H56.32c-28.16 0-51.2 22.528-51.2 50.688L0 916.48c0 13.824 5.12 26.624 14.848 36.352 9.728 9.728 22.528 15.36 36.352 15.36h924.16c28.16 0 51.2-23.04 51.2-51.2V300.032c0-28.672-23.04-51.2-51.2-51.2z m-51.2 616.96H102.4l4.608-707.584h304.64l163.328 176.64c9.728 10.24 23.552 16.384 37.376 16.384h311.296v514.56z" p-id="3658"></path></svg>