<?xml version="1.0" standalone="no"?><!DOCTYPE svg PUBLIC "-//W3C//DTD SVG 1.1//EN" "http://www.w3.org/Graphics/SVG/1.1/DTD/svg11.dtd"><svg t="1561449250963" class="icon" viewBox="0 0 1024 1024" version="1.1" xmlns="http://www.w3.org/2000/svg" p-id="916" xmlns:xlink="http://www.w3.org/1999/xlink" width="200" height="200"><defs><style type="text/css"></style></defs><path d="M512 512m-490.666667 0a490.666667 490.666667 0 1 0 981.333334 0 490.666667 490.666667 0 1 0-981.333334 0Z" fill="#3399FF" p-id="917"></path><path d="M512 1024C228.266667 1024 0 795.733333 0 512S228.266667 0 512 0s512 230.4 512 512c0 283.733333-228.266667 512-512 512z m0-981.333333C253.866667 42.666667 42.666667 253.866667 42.666667 512s211.2 469.333333 469.333333 469.333333 469.333333-211.2 469.333333-469.333333S770.133333 42.666667 512 42.666667z" p-id="918"></path><path d="M512 921.6h-17.066667l2.133334-42.666667h14.933333c89.6 0 177.066667-32 245.333333-93.866666l27.733334 32c-74.666667 68.266667-172.8 104.533333-273.066667 104.533333z m-189.866667-44.8c-93.866667-49.066667-166.4-132.266667-200.533333-234.666667l40.533333-12.8c29.866667 89.6 96 166.4 179.2 209.066667l-19.2 38.4z m567.466667-202.666667l-38.4-17.066666c19.2-44.8 29.866667-93.866667 29.866667-145.066667 0-44.8-8.533333-89.6-23.466667-130.133333l40.533333-14.933334c17.066667 46.933333 27.733333 96 27.733334 145.066667-4.266667 55.466667-14.933333 110.933333-36.266667 162.133333zM147.2 469.333333l-42.666667-4.266666c12.8-106.666667 64-202.666667 147.2-268.8l27.733334 32C204.8 288 157.866667 375.466667 147.2 469.333333zM768 247.466667c-68.266667-66.133333-160-102.4-256-102.4-29.866667 0-59.733333 4.266667-89.6 10.666666l-10.666667-40.533333c32-8.533333 66.133333-12.8 100.266667-12.8 106.666667 0 209.066667 40.533333 285.866667 115.2L768 247.466667z" p-id="919"></path><path d="M512 512m-279.466667 0a279.466667 279.466667 0 1 0 558.933334 0 279.466667 279.466667 0 1 0-558.933334 0Z" fill="#FFBF80" p-id="920"></path><path d="M512 812.8c-166.4 0-300.8-134.4-300.8-300.8S345.6 211.2 512 211.2 812.8 345.6 812.8 512 678.4 812.8 512 812.8z m0-558.933333c-142.933333 0-258.133333 115.2-258.133333 258.133333 0 142.933333 115.2 258.133333 258.133333 258.133333 142.933333 0 258.133333-115.2 258.133333-258.133333 0-142.933333-115.2-258.133333-258.133333-258.133333z" p-id="921"></path><path d="M512 320l-42.666667 128-128 4.266667 102.4 81.066666-36.266666 128 104.533333-76.8 104.533333 76.8-36.266666-130.133333 102.4-81.066667-128-4.266666-42.666667-125.866667z" p-id="922"></path></svg>