<?xml version="1.0" standalone="no"?><!DOCTYPE svg PUBLIC "-//W3C//DTD SVG 1.1//EN" "http://www.w3.org/Graphics/SVG/1.1/DTD/svg11.dtd"><svg t="1559182396917" class="icon" style="" viewBox="0 0 1024 1024" version="1.1" xmlns="http://www.w3.org/2000/svg" p-id="3714" xmlns:xlink="http://www.w3.org/1999/xlink" width="128" height="128"><defs><style type="text/css"></style></defs><path d="M512 512m-414 0a414 414 0 1 0 828 0 414 414 0 1 0-828 0Z" fill="#F0C48A" p-id="3715"></path><path d="M11.8 934.4h1000.6v78H11.8z" fill="#7BABF1" p-id="3716"></path><path d="M1012.2 1024H11.8c-6.4 0-11.8-5.2-11.8-11.8v-78c0-6.4 5.2-11.8 11.8-11.8h1000.6c6.4 0 11.8 5.2 11.8 11.8v78c-0.2 6.6-5.4 11.8-12 11.8zM23.4 1000.6h977V946H23.4v54.6z" fill="#4C4372" p-id="3717"></path><path d="M328.708 517.342l89.92 59.82-160.408 241.122-89.92-59.82z" fill="#FFFFFF" p-id="3718"></path><path d="M380.65 551.99l37.966 25.26-160.408 241.12-37.968-25.26z" fill="#D3E6F8" p-id="3719"></path><path d="M258.2 830.2c-2.2 0-4.4-0.6-6.4-2l-90-59.8c-2.6-1.8-4.4-4.4-5-7.4-0.6-3 0-6.2 1.8-8.8l160.4-241.2c3.6-5.4 10.8-6.8 16.2-3.2l90 59.8c2.6 1.8 4.4 4.4 5 7.4 0.6 3 0 6.2-1.8 8.8L268 824.8c-2.4 3.4-6 5.4-9.8 5.4z m-73.8-75l70.4 46.8 147.4-221.6-70.2-46.8-147.6 221.6z" fill="#4C4372" p-id="3720"></path><path d="M352.4 934.4H113.2V782c0-22 17.8-39.8 39.8-39.8h159.8c22 0 39.8 17.8 39.8 39.8v152.4z" fill="#A4CFF2" p-id="3721"></path><path d="M314.6 934.4h-15.4v-192.2h15.4c22.4 0 40.6 19.8 40.6 44.2V890c-0.2 24.6-18.2 44.4-40.6 44.4z" fill="#7BABF1" p-id="3722"></path><path d="M352.4 946H113.2c-6.4 0-11.8-5.2-11.8-11.8v-153c0-28 22.8-50.8 50.8-50.8h161.2c28 0 50.8 22.8 50.8 50.8v153c0 6.6-5.4 11.8-11.8 11.8zM124.8 922.6h215.8v-141.4c0-15-12.2-27.4-27.4-27.4H152.2c-15 0-27.4 12.2-27.4 27.4v141.4zM910.8 198.4c-6.4 0-11.8-5.2-11.8-11.8 0-90-73.2-163.2-163.2-163.2-6.4 0-11.8-5.2-11.8-11.8s5.6-11.6 12-11.6c102.8 0 186.6 83.8 186.6 186.6 0 6.4-5.2 11.8-11.8 11.8z" fill="#4C4372" p-id="3723"></path><path d="M855.4 198.4c-6.4 0-11.8-5.2-11.8-11.8 0-59.4-48.2-107.6-107.6-107.6-6.4 0-11.8-5.2-11.8-11.8 0-6.4 5.2-11.8 11.8-11.8 72.2 0 131.2 58.8 131.2 131.2 0 6.4-5.4 11.8-11.8 11.8z" fill="#4C4372" p-id="3724"></path><path d="M616.4 393l-83-83.2 135.6-92.6 40 40.2z" fill="#FFFFFF" p-id="3725"></path><path d="M676.2 250.2l-69 69 35.4 35.4 56-82z" fill="#D3E6F8" p-id="3726"></path><path d="M616.4 404.8c-3 0-6-1.2-8.2-3.4l-83.2-83.2c-2.4-2.4-3.8-6-3.4-9.4 0.4-3.4 2.2-6.6 5-8.6l135.6-92.6c4.6-3.2 11-2.6 15 1.4l40 40c4 4 4.6 10.2 1.4 14.8L626 399.4c-2 2.8-5.2 4.8-8.6 5-0.2 0.2-0.6 0.4-1 0.4z m-64.8-93.2l63.2 63.2 79.2-116-26.4-26.4-116 79.2z" fill="#4C4372" p-id="3727"></path><path d="M807.4 532.2c-115.2 115.2-302 115.2-417 0-115.2-115.2-115.2-302 0-417l417 417z" fill="#E8677D" p-id="3728"></path><path d="M361.2 498.4c115.4 85 278.8 75.4 383.2-29l-354-354.2c-104.6 104.4-114.2 267.8-29.2 383.2z" fill="#FD919E" p-id="3729"></path><path d="M598.8 630.2c-78.6 0-157-29.8-216.8-89.6-119.6-119.6-119.6-314 0-433.6 2.2-2.2 5.2-3.4 8.2-3.4 3.2 0 6 1.2 8.2 3.4L815.6 524c2.2 2.2 3.4 5.2 3.4 8.2 0 3.2-1.2 6-3.4 8.2-59.6 60-138.2 89.8-216.8 89.8zM390.6 132c-102.2 111-99.6 284.4 8.2 392 107.6 107.6 281 110.4 392 8.2L390.6 132z" fill="#4C4372" p-id="3730"></path><path d="M386.6 536m-91.2 0a91.2 91.2 0 1 0 182.4 0 91.2 91.2 0 1 0-182.4 0Z" fill="#E8677D" p-id="3731"></path><path d="M386.6 639c-26.4 0-52.8-10-72.8-30.2-40.2-40.2-40.2-105.4 0-145.6 40.2-40.2 105.4-40.2 145.6 0 40.2 40.2 40.2 105.4 0 145.6-20.2 20.2-46.4 30.2-72.8 30.2z m0-182.4c-20.4 0-40.8 7.8-56.2 23.2-31 31-31 81.4 0 112.4s81.4 31 112.4 0 31-81.4 0-112.4c-15.6-15.4-35.8-23.2-56.2-23.2z" fill="#4C4372" p-id="3732"></path><path d="M386.6 536m-48.8 0a48.8 48.8 0 1 0 97.6 0 48.8 48.8 0 1 0-97.6 0Z" fill="#FD919E" p-id="3733"></path><path d="M386.6 596.4c-16.2 0-31.4-6.2-42.8-17.8-11.4-11.4-17.8-26.6-17.8-42.8 0-16.2 6.2-31.4 17.8-42.8 11.4-11.4 26.6-17.8 42.8-17.8 16.2 0 31.4 6.2 42.8 17.8 23.6 23.6 23.6 62 0 85.4-11.6 11.8-26.8 18-42.8 18z m0-97.4c-9.8 0-19.2 3.8-26.2 10.8-7 7-10.8 16.2-10.8 26.2 0 9.8 3.8 19.2 10.8 26.2 7 7 16.2 10.8 26.2 10.8 9.8 0 19.2-3.8 26.2-10.8 14.4-14.4 14.4-37.8 0-52.4-7-6.8-16.4-10.8-26.2-10.8z m34.4 71.4z" fill="#4C4372" p-id="3734"></path><path d="M724 202.4m-67.8 0a67.8 67.8 0 1 0 135.6 0 67.8 67.8 0 1 0-135.6 0Z" fill="#E8677D" p-id="3735"></path><path d="M676 154.4c-24 24-26.2 61.8-6.6 88.2 25.2 11.8 56 7.4 76.8-13.4 24-24 26.2-61.8 6.6-88.2-25-11.8-56-7.4-76.8 13.4z" fill="#FD919E" p-id="3736"></path><path d="M724 281.8c-20.4 0-40.6-7.8-56.2-23.2-15-15-23.2-35-23.2-56.2 0-21.2 8.2-41.2 23.2-56.2 31-31 81.4-31 112.4 0 15 15 23.2 35 23.2 56.2 0 21.2-8.2 41.2-23.2 56.2-15.6 15.4-35.8 23.2-56.2 23.2z m0-135.4c-14.4 0-28.6 5.4-39.6 16.4-10.6 10.6-16.4 24.6-16.4 39.6s5.8 29 16.4 39.6c21.8 21.8 57.4 21.8 79.2 0 10.6-10.6 16.4-24.6 16.4-39.6s-5.8-29-16.4-39.6c-11-11-25.2-16.4-39.6-16.4z" fill="#4C4372" p-id="3737"></path></svg>