<?xml version="1.0" standalone="no"?><!DOCTYPE svg PUBLIC "-//W3C//DTD SVG 1.1//EN" "http://www.w3.org/Graphics/SVG/1.1/DTD/svg11.dtd"><svg t="1561386026485" class="icon" viewBox="0 0 1024 1024" version="1.1" xmlns="http://www.w3.org/2000/svg" p-id="532" xmlns:xlink="http://www.w3.org/1999/xlink" width="200" height="200"><defs><style type="text/css"></style></defs><path d="M153.6 90.709333L176.298667 51.2a51.2 51.2 0 0 1 44.373333-25.6h494.336l157.610667 166.314667L904.533333 284.842667h-16.298666L707.669333 90.709333z" fill="#B3D9FF" p-id="533"></path><path d="M716.8 25.6l12.117333 54.442667 190.208 214.016-36.864-133.376L716.8 25.6zM170.666667 128h521.898666L921.6 354.901333V981.333333a17.066667 17.066667 0 0 1-17.066667 17.066667H170.666667a17.066667 17.066667 0 0 1-17.066667-17.066667V145.066667a17.066667 17.066667 0 0 1 17.066667-17.066667z" fill="#96CAFF" p-id="534"></path><path d="M712.021333 102.4H153.6a25.6 25.6 0 0 0-25.6 25.6v844.8a25.6 25.6 0 0 0 25.6 25.6h716.8a25.6 25.6 0 0 0 25.6-25.6V300.032zM153.6 76.8h569.6L921.6 290.133333v682.666667a51.2 51.2 0 0 1-51.2 51.2H153.6a51.2 51.2 0 0 1-51.2-51.2V128a51.2 51.2 0 0 1 51.2-51.2z" fill="#175AA7" p-id="535"></path><path d="M161.024 38.4a25.6 25.6 0 0 1 22.186667-12.8h529.578666l150.698667 154.026667 32.426667 110.933333 27.050666 1.194667-36.693333-125.696L723.541333 0H183.210667a51.2 51.2 0 0 0-44.373334 25.6L102.4 88.917333v46.165334l25.6-39.253334zM409.6 411.306667h-51.2v307.2h358.4v-204.8H563.2v-102.4h-51.2v102.4H409.6z m76.8 76.8v-102.4h102.4v102.4h153.6v256H332.8v-358.4h102.4v102.4z" fill="#175AA7" p-id="536"></path><path d="M588.8 590.506667v51.2h51.2v-51.2z m-25.6-25.6h102.4v102.4H563.2z" fill="#175AA7" p-id="537"></path></svg>