<?xml version="1.0" standalone="no"?><!DOCTYPE svg PUBLIC "-//W3C//DTD SVG 1.1//EN" "http://www.w3.org/Graphics/SVG/1.1/DTD/svg11.dtd"><svg t="1559182433533" class="icon" style="" viewBox="0 0 1024 1024" version="1.1" xmlns="http://www.w3.org/2000/svg" p-id="3859" xmlns:xlink="http://www.w3.org/1999/xlink" width="128" height="128"><defs><style type="text/css"></style></defs><path d="M512 512m-414 0a414 414 0 1 0 828 0 414 414 0 1 0-828 0Z" fill="#F0C48A" p-id="3860"></path><path d="M89.8 293.6v-22.4c0-38.2 31.2-69.4 69.4-69.4h705.6c38.2 0 69.4 31.2 69.4 69.4V716H89.8V293.6z" fill="#D3E6F8" p-id="3861"></path><path d="M871.6 202.2v513h62.6v-444c0-35.8-27.6-65.6-62.6-69z" fill="#7BABF1" p-id="3862"></path><path d="M872.6 716H151.4V294.6c0-20.2 16.4-36.8 36.8-36.8h647.6c20.2 0 36.8 16.4 36.8 36.8V716z" fill="#FFFFFF" p-id="3863"></path><path d="M934.2 727.6H89.8c-6.4 0-11.8-5.2-11.8-11.8V271.2c0-44.6 36.4-81 81-81h705.6c44.6 0 81 36.4 81 81V716c0.2 6.4-5 11.6-11.4 11.6zM101.6 704.2h820.8V271.2c0-31.8-25.8-57.6-57.6-57.6H159.2c-31.8 0-57.6 25.8-57.6 57.6v433z" fill="#4C4372" p-id="3864"></path><path d="M944.2 822.2H79.8c-37.4 0-68-30.6-68-68V716h1000.6v38c-0.2 37.6-30.8 68.2-68.2 68.2z" fill="#A4CFF2" p-id="3865"></path><path d="M13.6 770c6.2 25.6 26.8 45.6 52.6 50.8h891.4c25.8-5.2 46.6-25.2 52.6-50.8H13.6z" fill="#7BABF1" p-id="3866"></path><path d="M944.2 833.8H79.8C35.8 833.8 0 798 0 754v-38c0-6.4 5.2-11.8 11.8-11.8h1000.6c6.4 0 11.8 5.2 11.8 11.8v38c-0.2 44-36 79.8-80 79.8zM23.4 727.6V754c0 31 25.2 56.2 56.2 56.2h864.6c31 0 56.2-25.2 56.2-56.2v-26.4H23.4z" fill="#4C4372" p-id="3867"></path><path d="M872.6 727.6H151.4c-6.4 0-11.8-5.2-11.8-11.8V301c0-30.2 24.6-54.8 54.8-54.8h634.8c30.2 0 54.8 24.6 54.8 54.8V716c0.2 6.4-5 11.6-11.4 11.6zM163.2 704.2h697.6V301c0-17.4-14-31.4-31.4-31.4H194.6c-17.4 0-31.4 14-31.4 31.4v403.2z" fill="#4C4372" p-id="3868"></path><path d="M231.4 323.6h118.8v118.8h-118.8z" fill="#FD919E" p-id="3869"></path><path d="M413.6 504.2s58.8-26 75.6-56.2c16.8-30.2 43.2-71 50.2-100.4 7-29.4 40.6-14.2 40.6-14.2s7.4 11.6 8.6 31.4c1.2 20-12.4 102.4-12.4 102.4l78.6 1.4s17.4 2 15.4 21.8c-2 19.8-18.2 23.2-18.2 23.2s25.8 11.4 14.2 38.6l-20.6 9.4s15.6 29.8-12.8 39.8l-2.8 7.4s30.2 36.6-6.4 36.6h-132.4L414 615.8v-111.6z" fill="#FFFFFF" p-id="3870"></path><path d="M350.4 612.6V502c0-15.8 12.8-28.6 28.6-28.6h27.6c15.8 0 28.6 12.8 28.6 28.6v110.6c0 15.8-12.8 28.6-28.6 28.6h-27.6c-16 0-28.6-12.8-28.6-28.6z" fill="#FD919E" p-id="3871"></path><path d="M350.4 611.6v-28.8h82v28.8c0 13.8-11.2 24.8-24.8 24.8h-32.4c-13.8 0.2-24.8-11-24.8-24.8z" fill="#E8677D" p-id="3872"></path><path d="M635.2 623.2h-130.2c-4.4 0-8.8-0.8-13-2.4l-51.8-19.6s-8 27.2 7.6 27.6c15.6 0.4 58 24.2 58 24.2l121.2-8 8.2-21.8z" fill="#D3E6F8" p-id="3873"></path><path d="M406.6 652.8h-27.6c-22.2 0-40.2-18-40.2-40.2V502c0-22.2 18-40.2 40.2-40.2h27.6c22.2 0 40.2 18 40.2 40.2v110.6c0 22.2-18 40.2-40.2 40.2z m-27.8-167.6c-9.2 0-16.8 7.6-16.8 16.8v110.6c0 9.2 7.6 16.8 16.8 16.8h27.6c9.2 0 16.8-7.6 16.8-16.8V502c0-9.2-7.6-16.8-16.8-16.8h-27.6z" fill="#4C4372" p-id="3874"></path><path d="M646.8 525.2h-43.2c-6.4 0-11.8-5.2-11.8-11.8 0-6.4 5.2-11.8 11.8-11.8h43.2c6.2 0 11.4-5.2 11.4-11.4s-5.2-11.4-11.4-11.4H576c-3.4 0-6.6-1.4-8.8-4-2.2-2.6-3.2-5.8-2.8-9.2l13.4-110.6c0.4-4-0.8-7.8-3.4-10.8-2.6-3-6.4-4.6-10.4-4.6-6.4 0-12 4.4-13.4 10.6 0 0.2-0.2 0.6-0.2 0.8l-6.8 22c-17.2 55.2-54 102-103.6 131.6-5.6 3.4-12.8 1.4-16-4-3.4-5.6-1.4-12.8 4-16 44.8-26.6 77.8-68.8 93.2-118.4l6.8-21.6c4.2-16.6 19-28.2 36.2-28.2 10.6 0 20.8 4.6 27.8 12.6s10.4 18.6 9 29.2l-11.8 97.6h57.6c19.2 0 34.8 15.6 34.8 34.8 0 18.8-15.4 34.4-34.8 34.6 0.2 0 0.2 0 0 0z" fill="#4C4372" p-id="3875"></path><path d="M651.8 569h-48c-6.4 0-11.8-5.2-11.8-11.8s5.2-11.8 11.8-11.8h48c5.6 0 10.2-4.6 10.2-10.2s-4.6-10.2-10.2-10.2h-48c-6.4 0-11.8-5.2-11.8-11.8 0-6.4 5.2-11.8 11.8-11.8h48c18.6 0 33.6 15.2 33.6 33.6 0 19-15 34-33.6 34z" fill="#4C4372" p-id="3876"></path><path d="M632.6 613h-28.8c-6.4 0-11.8-5.2-11.8-11.8 0-6.4 5.2-11.8 11.8-11.8h28.8c5.6 0 10.2-4.6 10.2-10.2s-4.6-10.2-10.2-10.2h-28.8c-6.4 0-11.8-5.2-11.8-11.8s5.2-11.8 11.8-11.8h28.8c18.6 0 33.6 15.2 33.6 33.6 0 18.8-15.2 34-33.6 34z" fill="#4C4372" p-id="3877"></path><path d="M613.2 657H502c-13 0-25.6-2.6-37.6-8l-34-15c-6-2.6-8.6-9.6-6-15.4 2.6-6 9.6-8.6 15.4-6l34 15c9 4 18.4 6 28.2 6h111.2c5.6 0 10.2-4.6 10.2-10.2s-4.6-10.2-10.2-10.2h-9.6c-6.4 0-11.8-5.2-11.8-11.8 0-6.4 5.2-11.8 11.8-11.8h9.6c18.6 0 33.6 15.2 33.6 33.6 0.2 18.6-15 33.8-33.6 33.8z" fill="#4C4372" p-id="3878"></path><path d="M781.6 335.2h-131.2c-6.4 0-11.8-5.2-11.8-11.8s5.2-11.8 11.8-11.8h131.2c6.4 0 11.8 5.2 11.8 11.8s-5.4 11.8-11.8 11.8zM781.6 378.2H670c-6.4 0-11.8-5.2-11.8-11.8s5.2-11.8 11.8-11.8h111.8c6.4 0 11.8 5.2 11.8 11.8s-5.6 11.8-12 11.8zM781.6 421h-53c-6.4 0-11.8-5.2-11.8-11.8s5.2-11.8 11.8-11.8h53c6.4 0 11.8 5.2 11.8 11.8s-5.4 11.8-11.8 11.8z" fill="#4C4372" p-id="3879"></path><path d="M315.8 315.8h35v126.6h-35z" fill="#E8677D" p-id="3880"></path><path d="M350.4 454.2h-118.8c-6.4 0-11.8-5.2-11.8-11.8v-118.8c0-6.4 5.2-11.8 11.8-11.8h118.8c6.4 0 11.8 5.2 11.8 11.8v118.8c-0.2 6.4-5.4 11.8-11.8 11.8z m-107.2-23.6h95.4v-95.4h-95.4v95.4z" fill="#4C4372" p-id="3881"></path></svg>