<?xml version="1.0" standalone="no"?><!DOCTYPE svg PUBLIC "-//W3C//DTD SVG 1.1//EN" "http://www.w3.org/Graphics/SVG/1.1/DTD/svg11.dtd"><svg t="1561445312326" class="icon" viewBox="0 0 1024 1024" version="1.1" xmlns="http://www.w3.org/2000/svg" p-id="1203" xmlns:xlink="http://www.w3.org/1999/xlink" width="200" height="200"><defs><style type="text/css"></style></defs><path d="M512 0C229.376 0 0 229.376 0 512s229.376 512 512 512 512-229.376 512-512S794.624 0 512 0z m346.112 739.84c-9.216 14.848-25.088 23.04-41.472 23.04-8.704 0-17.408-2.56-25.6-7.168l-322.56-199.68-0.512-0.512c-1.024-0.512-1.536-1.024-2.56-1.536-0.512-0.512-1.024-1.024-1.536-1.024-0.512-0.512-1.024-1.024-2.048-1.536-0.512-0.512-1.024-1.024-2.048-1.536l-1.536-1.536c-0.512-0.512-1.024-1.536-2.048-2.048-0.512-0.512-1.024-1.024-1.024-1.536-0.512-0.512-1.024-1.536-1.536-2.048-0.512-0.512-1.024-1.024-1.024-2.048-0.512-0.512-1.024-1.536-1.024-2.048-0.512-0.512-1.024-1.536-1.024-2.048-0.512-0.512-0.512-1.024-1.024-2.048s-0.512-1.536-1.024-2.56c0-0.512-0.512-1.024-0.512-1.536-0.512-1.024-0.512-2.048-1.024-2.56 0-0.512-0.512-1.024-0.512-2.048s-0.512-1.536-0.512-2.56c0-0.512-0.512-1.536-0.512-2.048v-2.048-2.56-287.744c0-26.624 22.016-48.64 48.64-48.64s48.64 22.016 48.64 48.64v259.584l299.52 185.344c23.04 13.312 29.696 43.008 15.872 66.048z" fill="#186EB1" p-id="1204"></path></svg>