<?xml version="1.0" standalone="no"?><!DOCTYPE svg PUBLIC "-//W3C//DTD SVG 1.1//EN" "http://www.w3.org/Graphics/SVG/1.1/DTD/svg11.dtd"><svg t="1561513016942" class="icon" viewBox="0 0 1024 1024" version="1.1" xmlns="http://www.w3.org/2000/svg" p-id="3550" xmlns:xlink="http://www.w3.org/1999/xlink" width="200" height="200"><defs><style type="text/css"></style></defs><path d="M160 387.776h704v244.256H160z" fill="#D9FAFF" p-id="3551"></path><path d="M128 851.808l56.096-3.168c1.216 8.128 3.712 14.336 7.424 18.56 6.112 6.88 14.752 10.336 26.048 10.336 8.448 0 14.912-1.792 19.456-5.248 4.544-3.552 6.848-7.648 6.848-12.288 0-4.384-2.176-8.352-6.528-11.808-4.32-3.488-14.4-6.752-30.176-9.856-25.888-5.184-44.32-12.064-55.328-20.608-11.104-8.608-16.672-19.52-16.672-32.832 0-8.736 2.816-16.992 8.512-24.736 5.696-7.776 14.24-13.888 25.664-18.336s27.04-6.688 46.944-6.688c24.352 0 42.976 4.032 55.744 12.128 12.8 8.064 20.416 20.96 22.88 38.56l-55.616 2.88c-1.44-7.648-4.576-13.184-9.28-16.672s-11.264-5.216-19.584-5.216c-6.88 0-12.032 1.312-15.52 3.872a11.456 11.456 0 0 0-5.184 9.472c0 2.688 1.408 5.12 4.288 7.264 2.752 2.24 9.376 4.32 19.776 6.304 25.76 4.928 44.224 9.92 55.392 14.976 11.168 5.088 19.264 11.328 24.352 18.848 5.088 7.52 7.616 15.904 7.616 25.152 0 10.944-3.392 20.96-10.144 30.144a62.592 62.592 0 0 1-28.384 20.928c-12.16 4.736-27.488 7.136-45.952 7.136-32.448 0-54.944-5.568-67.456-16.704A62.72 62.72 0 0 1 128 851.808M500.352 883.2c7.392 4.512 12.192 7.392 14.464 8.544 3.36 1.696 7.936 3.712 13.664 5.92l-16.416 29.472a198.24 198.24 0 0 1-24.48-12.704 217.088 217.088 0 0 1-16.928-11.04c-13.024 4.992-29.312 7.488-48.928 7.488-29.024 0-51.872-6.688-68.64-20.16-19.776-15.904-29.696-38.272-29.696-67.136 0-27.968 8.672-49.696 25.984-65.184 17.312-15.52 41.504-23.264 72.576-23.264 31.68 0 56.16 7.552 73.376 22.752 17.216 15.136 25.856 36.8 25.856 65.024 0 25.12-6.944 45.216-20.832 60.288m-45.184-26.912c4.672-7.488 7.04-18.72 7.04-33.632 0-17.152-3.584-29.408-10.752-36.736-7.168-7.36-17.024-11.008-29.632-11.008-11.712 0-21.216 3.744-28.512 11.232-7.296 7.52-10.912 19.232-10.912 35.136 0 18.528 3.52 31.552 10.656 39.072 7.136 7.488 16.896 11.232 29.312 11.232 4 0 7.776-0.32 11.328-1.024-4.96-4.288-12.768-8.256-23.456-12.096l9.248-18.848c5.216 0.832 9.28 1.888 12.192 3.104 2.88 1.216 8.544 4.48 16.992 9.76 1.984 1.216 4.16 2.496 6.496 3.808M552.96 738.016h58.976v128.128h92.032v41.856H552.96zM160 351.136h704v64H160zM640 223.136h128v64h-128zM640 479.136h128v64h-128z" fill="#40D1E7" p-id="3552"></path><path d="M864 95.136H160a32 32 0 0 0-32 32v544h64v-512h640v704h-32.032v64H864a32 32 0 0 0 32-32v-768a32 32 0 0 0-32-32" fill="#40D1E7" p-id="3553"></path><path d="M178.784 607.136H864v64H178.784z" fill="#40D1E7" p-id="3554"></path></svg>