<svg xmlns="http://www.w3.org/2000/svg" viewBox="0 0 1024 1024" version="1.1"><path d="M128 896v-213.333333a125.44 125.44 0 0 1 72.533333-107.52 834.986667 834.986667 0 0 1 622.506667 0A125.44 125.44 0 0 1 896 682.666667v213.333333a128 128 0 0 1-128 128H256a128 128 0 0 1-128-128zM512 0a213.333333 213.333333 0 1 0 213.333333 213.333333 213.333333 213.333333 0 0 0-213.333333-213.333333z" fill="#6DD143" p-id="2937"></path><path d="M896 682.666667v213.333333a128 128 0 0 1-128 128H512V514.986667a834.56 834.56 0 0 1 311.466667 60.16A125.44 125.44 0 0 1 896 682.666667zM512 0v426.666667A213.333333 213.333333 0 1 0 512 0z" fill="#7BEA47" p-id="2938"></path></svg>