<svg xmlns="http://www.w3.org/2000/svg" viewBox="0 0 1441 1024" version="1.1"><path d="M66.281631 1024a66.278317 66.278317 0 0 0 66.278317-66.278317v-82.185113a375.135275 375.135275 0 0 1 112.010356-268.427185 368.507443 368.507443 0 0 1 269.752751-109.359223l495.761812 4.639482a66.278317 66.278317 0 0 0 0-132.556634l-495.099029-4.639482A511.005825 511.005825 0 0 0 0.003314 875.53657v81.52233a66.278317 66.278317 0 0 0 66.278317 66.9411z" fill="#F24922" p-id="3032"></path><path d="M978.271275 369.170227h-112.673139v132.556634h112.010356a66.278317 66.278317 0 0 0 0-132.556634z" fill="#C63228" p-id="3033"></path><path d="M931.876453 33.139159v782.746925a33.139159 33.139159 0 0 0 55.011003 25.185761l442.739159-389.053722a33.139159 33.139159 0 0 0 0-49.708738L986.887456 8.616181a33.139159 33.139159 0 0 0-55.011003 24.522978z" fill="#FFA42C" p-id="3034"></path></svg>