<svg xmlns="http://www.w3.org/2000/svg" viewBox="0 0 1442 1024" version="1.1"><path d="M1375.257278 1023.986745a66.277459 66.277459 0 0 1-66.277459-66.27746v-82.184049a375.130419 375.130419 0 0 0-112.008906-268.42371A368.502673 368.502673 0 0 0 927.884429 497.743719l-497.080944 3.976647a66.277459 66.277459 0 0 1 0-132.554918l497.080944-3.976648a510.99921 510.99921 0 0 1 514.975858 510.999211v81.521274a66.277459 66.277459 0 0 1-67.603009 66.27746z" fill="#F24922" p-id="2890"></path><path d="M509.010887 33.13873v782.736793a33.13873 33.13873 0 0 1-55.010292 25.185434L11.267168 452.012272a33.13873 33.13873 0 0 1 0-49.708095L454.000595 8.61607a33.13873 33.13873 0 0 1 55.010292 24.52266z" fill="#FFA42C" p-id="2891"></path></svg>