<svg xmlns="http://www.w3.org/2000/svg" viewBox="0 0 1024 1024" version="1.1"><path d="M767.422671 0H255.371679a128.012748 128.012748 0 0 0-128.012747 128.012748v853.41832a42.670916 42.670916 0 0 0 68.700174 33.710023L458.911949 810.747404a85.341832 85.341832 0 0 1 104.970453 0l262.852842 204.393687A42.670916 42.670916 0 0 0 895.435419 981.431068V128.012748a128.012748 128.012748 0 0 0-128.012748-128.012748z" fill="#A63DF9" p-id="2984"></path><path d="M618.074465 360.995949h-85.341832v-85.341832a42.670916 42.670916 0 0 0-85.341832 0v85.341832h-85.341832a42.670916 42.670916 0 0 0 0 85.341832h85.341832v85.341832a42.670916 42.670916 0 1 0 85.341832 0v-85.341832h85.341832a42.670916 42.670916 0 0 0 0-85.341832z" fill="#7328BC" p-id="2985"></path><path d="M639.409923 341.367328h-85.341832V256.025496a42.670916 42.670916 0 0 0-85.341832 0v85.341832H383.384427a42.670916 42.670916 0 0 0 0 85.341832h85.341832v85.341832a42.670916 42.670916 0 1 0 85.341832 0v-85.341832h85.341832a42.670916 42.670916 0 0 0 0-85.341832z" fill="#FF80F3" p-id="2986"></path></svg>