<svg xmlns="http://www.w3.org/2000/svg" viewBox="0 0 1024 1024" version="1.1"><path d="M512.658997 1023.987089a44.521178 44.521178 0 0 1-44.521178-44.521178V89.042356a44.521178 44.521178 0 1 1 89.042356 0v890.423555a44.521178 44.521178 0 0 1-44.521178 44.521178z" fill="#4E1387" p-id="3178"></path><path d="M468.137819 333.908833h89.042356v89.042356h-89.042356z m22.260589-133.563533a89.042356 89.042356 0 0 0 66.781767-30.719613V89.042356a44.521178 44.521178 0 1 0-89.042356 0v108.186462a89.042356 89.042356 0 0 0 22.260589 3.116482z" fill="#320E5B" p-id="3179"></path><path d="M512.658997 1023.987089A442.540507 442.540507 0 0 1 77.241878 677.167114 44.521178 44.521178 0 0 1 106.625856 623.296489l123.768874-44.521178a44.521178 44.521178 0 1 1 29.829189 83.699814l-84.590238 30.274401A358.840693 358.840693 0 0 0 512.658997 934.944733a356.169422 356.169422 0 0 0 336.580104-239.078724l-84.590238-30.274401a44.521178 44.521178 0 1 1 30.274401-83.699814l123.768874 44.521177a44.521178 44.521178 0 0 1 28.493554 51.644567A442.540507 442.540507 0 0 1 512.658997 1023.987089z m222.605889-667.817667a44.521178 44.521178 0 0 0-44.521178-44.521178h-356.169422a44.521178 44.521178 0 1 0 0 89.042356h356.169422a44.521178 44.521178 0 0 0 44.521178-44.521178z m-222.605889-356.169422a89.042356 89.042356 0 1 0 89.042355 89.042356 89.042356 89.042356 0 0 0-89.042355-89.042356z" fill="#8C33E2" p-id="3180"></path></svg>