<svg xmlns="http://www.w3.org/2000/svg" viewBox="0 0 1024 1024" version="1.1"><path d="M580.141543 993.279172L201.688525 539.306217a42.666631 42.666631 0 0 1 0-54.613288L580.141543 30.719974A85.333262 85.333262 0 0 1 645.848155 0H789.208036a42.666631 42.666631 0 0 1 36.693302 63.999947l-255.999786 436.906302a21.333316 21.333316 0 0 0 0 21.333316l255.999786 436.906302A42.666631 42.666631 0 0 1 789.208036 1023.999147h-143.359881a85.333262 85.333262 0 0 1-65.706612-30.719975z" fill="#43EDCC" p-id="3226"></path><path d="M569.474885 522.666231a21.333316 21.333316 0 0 1-2.986664-10.666658H191.8752a42.666631 42.666631 0 0 0 9.813325 27.306644L580.141543 993.279172a85.333262 85.333262 0 0 0 65.706612 30.719975H789.208036a42.666631 42.666631 0 0 0 36.693302-63.999947z" fill="#3FBCAA" p-id="3227"></path></svg>