<svg xmlns="http://www.w3.org/2000/svg" viewBox="0 0 1024 1024" version="1.1"><path d="M223.49913 916.702609L111.304348 356.173913h801.391304l-112.194782 560.528696A133.565217 133.565217 0 0 1 669.606957 1024H354.393043a133.565217 133.565217 0 0 1-130.893913-107.297391zM729.711304 59.65913A133.565217 133.565217 0 0 0 618.406957 0H405.593043a133.565217 133.565217 0 0 0-111.304347 59.65913L244.869565 133.565217h534.26087z" fill="#2B3038" p-id="3511"></path><path d="M120.208696 400.695652h725.704347a110.85913 110.85913 0 0 0 61.44-18.69913L912.695652 356.173913H111.304348z" fill="#191A1C" p-id="3512"></path><path d="M22.26087 133.565217m111.304347 0l756.869566 0q111.304348 0 111.304347 111.304348l0 0q0 111.304348-111.304347 111.304348l-756.869566 0q-111.304348 0-111.304347-111.304348l0 0q0-111.304348 111.304347-111.304348Z" fill="#767C87" p-id="3513"></path></svg>