<svg xmlns="http://www.w3.org/2000/svg" viewBox="0 0 1043 1024" version="1.1"><path d="M655.744223 890.434783a133.565217 133.565217 0 1 1-133.565218-133.565218 133.565217 133.565217 0 0 1 133.565218 133.565218z m222.608695-534.26087a356.173913 356.173913 0 0 0-356.173913-356.173913 356.173913 356.173913 0 0 0-356.173913 356.173913v356.173913h712.347826z" fill="#FFCE00" p-id="3803"></path><path d="M522.179005 756.869565a133.565217 133.565217 0 0 0-131.33913 155.826087h262.678261A133.565217 133.565217 0 0 0 522.179005 756.869565z" fill="#E0B70B" p-id="3804"></path><path d="M878.352918 890.434783h-712.347826a89.043478 89.043478 0 0 1-89.043478-89.043479 89.043478 89.043478 0 0 1 89.043478-89.043478h712.347826a89.043478 89.043478 0 0 1 89.043479 89.043478 89.043478 89.043478 0 0 1-89.043479 89.043479zM197.17031 19.589565A44.521739 44.521739 0 0 0 134.839875 20.034783a511.554783 511.554783 0 0 0-133.565218 236.410434 44.521739 44.521739 0 0 0 89.043479 21.370435 422.511304 422.511304 0 0 1 107.742608-195.450435A44.521739 44.521739 0 0 0 197.17031 19.589565z m845.913043 230.177392a511.554783 511.554783 0 0 0-133.565217-236.410435A44.521739 44.521739 0 0 0 847.187701 75.686957a422.511304 422.511304 0 0 1 108.633043 195.450434 44.521739 44.521739 0 0 0 86.372174-20.925217z" fill="#FFEC00" p-id="3805"></path></svg>