<svg xmlns="http://www.w3.org/2000/svg" viewBox="0 0 1024 1024" version="1.1"><path d="M645.565217 890.434783a133.565217 133.565217 0 1 1-133.565217-133.565218 133.565217 133.565217 0 0 1 133.565217 133.565218z m222.608696-534.26087a356.173913 356.173913 0 0 0-356.173913-356.173913 356.173913 356.173913 0 0 0-356.173913 356.173913v356.173913h712.347826z" fill="#FFCE00" p-id="3321"></path><path d="M512 756.869565a133.565217 133.565217 0 0 0-131.33913 155.826087h262.67826A133.565217 133.565217 0 0 0 512 756.869565z" fill="#E0B70B" p-id="3322"></path><path d="M66.782609 712.347826m89.043478 0l712.347826 0q89.043478 0 89.043478 89.043478l0 0q0 89.043478-89.043478 89.043479l-712.347826 0q-89.043478 0-89.043478-89.043479l0 0q0-89.043478 89.043478-89.043478Z" fill="#FFEC00" p-id="3323"></path></svg>