<svg xmlns="http://www.w3.org/2000/svg" viewBox="0 0 1024 1024" version="1.1"><path d="M639.104657 858.677295a127.141319 127.141319 0 1 1-127.141319-127.141319 127.141319 127.141319 0 0 1 127.141319 127.141319z m211.902199-508.565277a339.043518 339.043518 0 0 0-339.043518-339.043519 339.043518 339.043518 0 0 0-339.043518 339.043519v339.043518h678.087036z" fill="#FFCE00" p-id="3129"></path><path d="M511.963338 731.535976a127.141319 127.141319 0 0 0-125.022297 148.331539h250.044594a127.141319 127.141319 0 0 0-125.022297-148.331539z" fill="#E0B70B" p-id="3130"></path><path d="M88.15894 689.155536m84.76088 0l678.087036 0q84.76088 0 84.76088 84.760879l0 0q0 84.76088-84.76088 84.76088l-678.087036 0q-84.76088 0-84.76088-84.76088l0 0q0-84.76088 84.76088-84.760879Z" fill="#FFEC00" p-id="3131"></path><path d="M728.527385 3.016216a42.38044 42.38044 0 0 0-55.094571 23.733046L300.061139 965.899808a42.38044 42.38044 0 1 0 78.827618 31.361525l373.371675-939.150545a42.38044 42.38044 0 0 0-23.733047-55.094572z" fill="#F24D20" p-id="3132"></path></svg>