<svg xmlns="http://www.w3.org/2000/svg" viewBox="0 0 1024 1024" version="1.1"><path d="M544.526539 529.877997a21.539756 21.539756 0 0 1 0-35.755994l309.741692-204.627682a43.079512 43.079512 0 0 0 0-71.942785L538.064613 9.477493A56.003366 56.003366 0 0 0 451.905589 56.003366v362.298695L221.430199 220.997897a43.079512 43.079512 0 1 0-56.003365 65.480858l263.215818 225.736643-263.215818 225.736642a43.079512 43.079512 0 1 0 56.003365 65.480859L451.905589 605.697939v362.298695a56.003366 56.003366 0 0 0 86.159024 46.525873l315.772822-208.074043a43.079512 43.079512 0 0 0 0-71.942785z" fill="#961B3B" p-id="3273"></path><path d="M510.493725 568.218763a21.539756 21.539756 0 0 1 0-35.755995l24.986117-15.508624a21.108961 21.108961 0 0 1 8.615902-21.539756L837.467221 301.556584a43.079512 43.079512 0 0 0-17.231805-43.079512L504.462593 47.387463A54.71098 54.71098 0 0 0 451.905589 43.079512a56.434161 56.434161 0 0 0 0 12.923854v362.298695L417.872774 387.715608v113.299116l10.769878 9.477493-10.769878 9.477493v113.299116l34.032815-27.570887v362.298695a56.003366 56.003366 0 0 0 86.159024 46.525873L837.467221 818.510728a43.079512 43.079512 0 0 0-17.231805-43.079512z" fill="#771835" p-id="3274"></path><path d="M544.526539 529.877997a21.539756 21.539756 0 0 1 0-35.755994l309.741692-204.627682a43.079512 43.079512 0 0 0 0-71.942785L538.064613 9.477493A56.003366 56.003366 0 0 0 451.905589 56.003366V967.996634a56.003366 56.003366 0 0 0 86.159024 46.525873l315.772822-208.074043a43.079512 43.079512 0 0 0 0-71.942785z" fill="#FC284F" p-id="3275"></path></svg>