<svg xmlns="http://www.w3.org/2000/svg" viewBox="0 0 1024 1024" version="1.1"><path d="M127.358932 981.431068V128.012748a128.012748 128.012748 0 0 1 128.012747-128.012748h512.050992a128.012748 128.012748 0 0 1 128.012748 128.012748v853.41832a42.670916 42.670916 0 0 1-68.700175 33.710023L563.882402 810.747404a85.341832 85.341832 0 0 0-104.970453 0l-262.852843 202.260141A42.670916 42.670916 0 0 1 127.358932 981.431068z" fill="#771BBF" p-id="3416"></path><path d="M767.422671 0H511.397175v790.692073a85.341832 85.341832 0 0 1 52.485227 17.921785l262.852842 204.393687A42.670916 42.670916 0 0 0 895.435419 981.431068V128.012748a128.012748 128.012748 0 0 0-128.012748-128.012748z" fill="#A63DF9" p-id="3417"></path></svg>