<svg xmlns="http://www.w3.org/2000/svg" viewBox="0 0 1170 1024" version="1.1"><path d="M850.408594 243.809524a48.761905 48.761905 0 0 1-46.323809-33.158095l-26.331429-79.481905A48.761905 48.761905 0 0 0 731.429547 97.52381H460.313356a48.761905 48.761905 0 0 0-46.323809 33.158095l-26.331429 79.969524a48.761905 48.761905 0 1 1-92.647619-30.72l26.819048-79.969524A146.285714 146.285714 0 0 1 460.313356 0H731.429547a146.285714 146.285714 0 0 1 138.971428 99.961905l26.331429 79.481905a48.761905 48.761905 0 0 1-30.72 61.927619 48.761905 48.761905 0 0 1-15.60381 2.438095zM1121.524785 877.714286V292.571429H48.76288v585.142857a146.285714 146.285714 0 0 0 146.285714 146.285714h780.190476a146.285714 146.285714 0 0 0 146.285715-146.285714z" fill="#32353F" p-id="3755"></path><path d="M48.76288 456.899048l490.057143 243.809523a48.761905 48.761905 0 0 0 43.398095 0l536.380952-268.190476h2.438096V292.571429H48.76288z" fill="#18191C" p-id="3756"></path><path d="M26.820023 403.748571l536.380952 268.190477a48.761905 48.761905 0 0 0 43.398095 0l536.380953-268.190477a48.761905 48.761905 0 0 0 27.306667-43.885714V243.809524a48.761905 48.761905 0 0 0-48.761905-48.761905H48.76288a48.761905 48.761905 0 0 0-48.761905 48.761905v116.053333a48.761905 48.761905 0 0 0 26.819048 43.885714z" fill="#676B77" p-id="3757"></path></svg>