<svg xmlns="http://www.w3.org/2000/svg" viewBox="0 0 1024 1024" version="1.1"><path d="M896 0H128a128 128 0 0 0-128 128v768a128 128 0 0 0 128 128h768a128 128 0 0 0 128-128V128a128 128 0 0 0-128-128z" fill="#F2EFDC" p-id="3463"></path><path d="M448 320a42.666667 42.666667 0 0 1-42.666667 42.666667h-85.333333v85.333333a42.666667 42.666667 0 0 1-85.333333 0v-85.333333h-85.333334a42.666667 42.666667 0 0 1 0-85.333334h85.333334v-85.333333a42.666667 42.666667 0 0 1 85.333333 0v85.333333h85.333333a42.666667 42.666667 0 0 1 42.666667 42.666667z m128 42.666667h256a42.666667 42.666667 0 0 0 0-85.333334h-256a42.666667 42.666667 0 0 0 0 85.333334z m256 341.333333h-256a42.666667 42.666667 0 0 0 0 85.333333h256a42.666667 42.666667 0 0 0 0-85.333333zM403.2 631.04a42.666667 42.666667 0 0 0-60.16 0l-60.586667 60.586667-60.16-60.586667A42.666667 42.666667 0 0 0 162.133333 691.2l60.16 60.16L161.706667 810.666667a42.666667 42.666667 0 1 0 60.16 60.16L282.453333 810.666667 341.333333 872.533333A42.666667 42.666667 0 0 0 403.2 810.666667L341.333333 751.786667l60.16-60.16a42.666667 42.666667 0 0 0 1.706667-60.586667z m300.8-55.04a42.666667 42.666667 0 1 0 42.666667 42.666667 42.666667 42.666667 0 0 0-42.666667-42.666667z m0 256a42.666667 42.666667 0 1 0 42.666667 42.666667 42.666667 42.666667 0 0 0-42.666667-42.666667z" fill="#CCC9B8" p-id="3464"></path><path d="M469.333333 298.666667a42.666667 42.666667 0 0 1-42.666666 42.666666H341.333333v85.333334a42.666667 42.666667 0 0 1-85.333333 0V341.333333H170.666667a42.666667 42.666667 0 0 1 0-85.333333h85.333333V170.666667a42.666667 42.666667 0 0 1 85.333333 0v85.333333h85.333334a42.666667 42.666667 0 0 1 42.666666 42.666667z m128 42.666666h256a42.666667 42.666667 0 0 0 0-85.333333h-256a42.666667 42.666667 0 0 0 0 85.333333z m256 341.333334h-256a42.666667 42.666667 0 0 0 0 85.333333h256a42.666667 42.666667 0 0 0 0-85.333333zM424.533333 609.706667a42.666667 42.666667 0 0 0-60.16 0l-60.586666 60.586666-60.16-60.586666A42.666667 42.666667 0 0 0 183.466667 669.866667l60.16 60.16-60.586667 61.013333a42.666667 42.666667 0 1 0 60.16 60.16l60.16-60.16 60.16 60.16a42.666667 42.666667 0 0 0 60.16-60.16l-59.306667-60.586667 60.16-60.16a42.666667 42.666667 0 0 0 0-60.586666zM725.333333 554.666667a42.666667 42.666667 0 1 0 42.666667 42.666666 42.666667 42.666667 0 0 0-42.666667-42.666666z m0 256a42.666667 42.666667 0 1 0 42.666667 42.666666 42.666667 42.666667 0 0 0-42.666667-42.666666z" fill="#E85A2E" p-id="3465"></path></svg>