<svg xmlns="http://www.w3.org/2000/svg" viewBox="0 0 1024 1024" version="1.1"><path d="M213.333333 213.333333a42.666667 42.666667 0 0 1-42.666666-42.666666V42.666667a42.666667 42.666667 0 0 1 85.333333 0v128a42.666667 42.666667 0 0 1-42.666667 42.666666z m640-42.666666V42.666667a42.666667 42.666667 0 0 0-85.333333 0v128a42.666667 42.666667 0 0 0 85.333333 0z" fill="#727087" p-id="3658"></path><path d="M0 128m128 0l768 0q128 0 128 128l0 640q0 128-128 128l-768 0q-128 0-128-128l0-640q0-128 128-128Z" fill="#DDDCE2" p-id="3659"></path><path d="M277.333333 448a42.666667 42.666667 0 1 1-42.666666-42.666667 42.666667 42.666667 0 0 1 42.666666 42.666667z m128-42.666667a42.666667 42.666667 0 1 0 42.666667 42.666667 42.666667 42.666667 0 0 0-42.666667-42.666667z m170.666667 0a42.666667 42.666667 0 1 0 42.666667 42.666667 42.666667 42.666667 0 0 0-42.666667-42.666667z m170.666667 0a42.666667 42.666667 0 1 0 42.666666 42.666667 42.666667 42.666667 0 0 0-42.666666-42.666667z m-512 170.666667a42.666667 42.666667 0 1 0 42.666666 42.666667 42.666667 42.666667 0 0 0-42.666666-42.666667z m170.666666 0a42.666667 42.666667 0 1 0 42.666667 42.666667 42.666667 42.666667 0 0 0-42.666667-42.666667z m170.666667 0a42.666667 42.666667 0 1 0 42.666667 42.666667 42.666667 42.666667 0 0 0-42.666667-42.666667z m170.666667 0a42.666667 42.666667 0 1 0 42.666666 42.666667 42.666667 42.666667 0 0 0-42.666666-42.666667z m-512 170.666667a42.666667 42.666667 0 1 0 42.666666 42.666666 42.666667 42.666667 0 0 0-42.666666-42.666666z m170.666666 0a42.666667 42.666667 0 1 0 42.666667 42.666666 42.666667 42.666667 0 0 0-42.666667-42.666666z m170.666667 0a42.666667 42.666667 0 1 0 42.666667 42.666666 42.666667 42.666667 0 0 0-42.666667-42.666666z" fill="#B5B4BF" p-id="3660"></path><path d="M298.666667 426.666667a42.666667 42.666667 0 1 1-42.666667-42.666667 42.666667 42.666667 0 0 1 42.666667 42.666667z m128-42.666667a42.666667 42.666667 0 1 0 42.666666 42.666667 42.666667 42.666667 0 0 0-42.666666-42.666667z m170.666666 0a42.666667 42.666667 0 1 0 42.666667 42.666667 42.666667 42.666667 0 0 0-42.666667-42.666667z m170.666667 0a42.666667 42.666667 0 1 0 42.666667 42.666667 42.666667 42.666667 0 0 0-42.666667-42.666667zM256 554.666667a42.666667 42.666667 0 1 0 42.666667 42.666666 42.666667 42.666667 0 0 0-42.666667-42.666666z m170.666667 0a42.666667 42.666667 0 1 0 42.666666 42.666666 42.666667 42.666667 0 0 0-42.666666-42.666666z m170.666666 0a42.666667 42.666667 0 1 0 42.666667 42.666666 42.666667 42.666667 0 0 0-42.666667-42.666666z m170.666667 0a42.666667 42.666667 0 1 0 42.666667 42.666666 42.666667 42.666667 0 0 0-42.666667-42.666666zM256 725.333333a42.666667 42.666667 0 1 0 42.666667 42.666667 42.666667 42.666667 0 0 0-42.666667-42.666667z m170.666667 0a42.666667 42.666667 0 1 0 42.666666 42.666667 42.666667 42.666667 0 0 0-42.666666-42.666667z m170.666666 0a42.666667 42.666667 0 1 0 42.666667 42.666667 42.666667 42.666667 0 0 0-42.666667-42.666667z" fill="#5E44BC" p-id="3661"></path></svg>