<svg xmlns="http://www.w3.org/2000/svg" viewBox="0 0 1365 1024" version="1.1"><path d="M0 157.190144m157.190144 0l943.140866 0q157.190144 0 157.190144 157.190145l0 471.570433q0 157.190144-157.190144 157.190144l-943.140866 0q-157.190144 0-157.190144-157.190144l0-471.570433q0-157.190144 157.190144-157.190145Z" fill="#771BBF" p-id="3608"></path><path d="M943.140866 157.190144H314.380289l28.294226-85.406645A104.79343 104.79343 0 0 1 442.228273 0h373.064609a104.79343 104.79343 0 0 1 99.553758 71.783499z m-340.578646 130.991787a261.983574 261.983574 0 1 0 261.983574 261.983574 261.983574 261.983574 0 0 0-261.983574-261.983574z" fill="#4E1387" p-id="3609"></path><path d="M628.760577 523.967148m-261.983574 0a261.983574 261.983574 0 1 0 523.967148 0 261.983574 261.983574 0 1 0-523.967148 0Z" fill="#A63DF9" p-id="3610"></path><path d="M628.760577 523.967148m-209.586859 0a209.586859 209.586859 0 1 0 419.173718 0 209.586859 209.586859 0 1 0-419.173718 0Z" fill="#5824AA" p-id="3611"></path><path d="M602.56222 340.578646a209.586859 209.586859 0 0 0-133.611623 49.776879 209.586859 209.586859 0 0 0 293.94557 293.94557A209.586859 209.586859 0 0 0 602.56222 340.578646z" fill="#340F60" p-id="3612"></path></svg>