<svg xmlns="http://www.w3.org/2000/svg" viewBox="0 0 1320 1024" version="1.1"><path d="M337.85243 798.560288a61.427714 61.427714 0 0 0 61.427714-61.427715V531.964007a409.108578 409.108578 0 0 1 760.475105-210.69706l47.29934 78.627474a61.427714 61.427714 0 0 0 105.041392-61.427714l-47.29934-78.627475A531.964007 531.964007 0 0 0 276.424715 531.964007V737.132573a61.427714 61.427714 0 0 0 61.427715 61.427715z" fill="#F24922" p-id="4045"></path><path d="M644.991002 552.84943H30.713857a30.713857 30.713857 0 0 0-24.571086 49.142172l307.138573 409.722855a30.713857 30.713857 0 0 0 49.142171 0l307.138573-409.722855a30.713857 30.713857 0 0 0-24.571086-49.142172z" fill="#FFA42C" p-id="4046"></path></svg>