<svg xmlns="http://www.w3.org/2000/svg" viewBox="0 0 1536 1024" version="1.1"><path d="M0 192v640a192 192 0 0 0 192 192h1152a192 192 0 0 0 192-192V192a192 192 0 0 0-192-192H192a192 192 0 0 0-192 192z" fill="#604D45" p-id="3851"></path><path d="M1312 480h-1152a64 64 0 0 1 0-128h1152a64 64 0 0 1 0 128z m64 192a64 64 0 0 0-64-64h-384a64 64 0 0 0 0 128h384a64 64 0 0 0 64-64z" fill="#473A35" p-id="3852"></path><path d="M1344 448H192a64 64 0 0 1 0-128h1152a64 64 0 0 1 0 128z m64 192a64 64 0 0 0-64-64h-384a64 64 0 0 0 0 128h384a64 64 0 0 0 64-64z" fill="#FFED08" p-id="3853"></path></svg>