<svg xmlns="http://www.w3.org/2000/svg" viewBox="0 0 1228 1024" version="1.1"><path d="M1075.2 870.4a153.6 153.6 0 1 1-153.6-153.6 153.6 153.6 0 0 1 153.6 153.6zM481.28 665.6H921.6a153.6 153.6 0 0 0 150.016-119.296l111.616-483.328a51.2 51.2 0 0 0-51.2-62.464H204.8l127.488 544.768A153.6 153.6 0 0 0 481.28 665.6z m30.72 51.2a153.6 153.6 0 1 0 153.6 153.6 153.6 153.6 0 0 0-153.6-153.6z" fill="#911A88" p-id="3899"></path><path d="M947.2 896a51.2 51.2 0 1 1-51.2-51.2 51.2 51.2 0 0 1 51.2 51.2z m-460.8-51.2a51.2 51.2 0 1 0 51.2 51.2 51.2 51.2 0 0 0-51.2-51.2zM210.944 25.6l24.064 102.4H1152a51.2 51.2 0 0 0 16.896-3.584l14.336-61.952a51.2 51.2 0 0 0 0-26.112A51.2 51.2 0 0 0 1152 25.6z" fill="#6D1670" p-id="3900"></path><path d="M972.8 870.4a51.2 51.2 0 1 1-51.2-51.2 51.2 51.2 0 0 1 51.2 51.2z m-460.8-51.2a51.2 51.2 0 1 0 51.2 51.2 51.2 51.2 0 0 0-51.2-51.2zM1228.8 51.2a51.2 51.2 0 0 0-51.2-51.2H51.2a51.2 51.2 0 0 0 0 102.4h1126.4a51.2 51.2 0 0 0 51.2-51.2z" fill="#C127AF" p-id="3901"></path></svg>