<svg xmlns="http://www.w3.org/2000/svg" viewBox="0 0 1024 1024" version="1.1"><path d="M511.877439 646.260378a427.39353 427.39353 0 0 1-185.261308-43.084025 21.542013 21.542013 0 0 0-30.158818 19.818652v377.41606a21.542013 21.542013 0 0 0 29.727977 19.818652l153.80997-59.455955a86.16805 86.16805 0 0 1 64.195198 0l153.80997 61.610156a21.542013 21.542013 0 0 0 29.727977-19.818651V624.718366a21.542013 21.542013 0 0 0-30.158817-19.818652A427.39353 427.39353 0 0 1 511.877439 646.260378z" fill="#AA2B52" p-id="3995"></path><path d="M697.138747 603.176353a427.82437 427.82437 0 0 1-370.522616 0 21.542013 21.542013 0 0 0-30.158818 19.818652v119.77359a387.756227 387.756227 0 0 0 430.840252-28.866297V624.718366a21.542013 21.542013 0 0 0-30.158818-21.542013z" fill="#892147" p-id="3996"></path><path d="M511.877439 387.756227m-387.756227 0a387.756227 387.756227 0 1 0 775.512454 0 387.756227 387.756227 0 1 0-775.512454 0Z" fill="#C74066" p-id="3997"></path><path d="M447.251401 538.550315a43.084025 43.084025 0 0 1-30.589658-12.494367l-86.16805-86.168051a43.084025 43.084025 0 0 1 61.179316-61.179315l55.578392 56.009232 141.746443-141.746443a43.084025 43.084025 0 0 1 60.748476 60.748476l-172.336101 172.336101a43.084025 43.084025 0 0 1-30.158818 12.494367z" fill="#AA2B52" p-id="3998"></path><path d="M468.793414 517.008303a43.084025 43.084025 0 0 1-30.589658-12.494368l-86.168051-86.16805a43.084025 43.084025 0 0 1 61.179316-61.179316L468.793414 413.175802l141.746443-141.746443a43.084025 43.084025 0 0 1 60.748475 60.748475l-172.336101 172.336101A43.084025 43.084025 0 0 1 468.793414 517.008303z" fill="#FF9D33" p-id="3999"></path></svg>