<svg xmlns="http://www.w3.org/2000/svg" viewBox="0 0 1682 1024" version="1.1"><path d="M1243.428571 0H219.428571a219.428571 219.428571 0 0 0-219.428571 219.428571v585.142858a219.428571 219.428571 0 0 0 219.428571 219.428571h1024a219.428571 219.428571 0 0 0 219.428572-219.428571V219.428571a219.428571 219.428571 0 0 0-219.428572-219.428571z" fill="#F24922" p-id="4188"></path><path d="M1462.857143 219.428571l62.171428 62.171429a36.571429 36.571429 0 0 0 25.6 10.971429h58.514286a73.142857 73.142857 0 0 1 73.142857 73.142857v292.571428a73.142857 73.142857 0 0 1-73.142857 73.142857h-57.782857a36.571429 36.571429 0 0 0-25.6 10.971429L1462.857143 804.571429zM712.411429 692.662857l292.571428-73.142857a73.142857 73.142857 0 1 0-35.84-141.897143l-201.874286 50.468572V475.428571a73.142857 73.142857 0 0 0-90.697142-73.142857l-292.571429 73.142857a73.142857 73.142857 0 1 0 35.84 141.897143l201.874286-48.274285v52.662857a73.142857 73.142857 0 0 0 73.142857 73.142857 73.142857 73.142857 0 0 0 17.554286-2.194286z" fill="#C4321A" p-id="4189"></path><path d="M731.428571 658.285714a73.142857 73.142857 0 0 1-73.142857-73.142857v-52.662857L456.411429 585.142857a73.142857 73.142857 0 1 1-35.108572-146.285714l292.571429-73.142857A73.142857 73.142857 0 0 1 804.571429 438.857143v52.662857L1006.445714 438.857143a73.142857 73.142857 0 1 1 35.108572 146.285714l-292.571429 73.142857A73.142857 73.142857 0 0 1 731.428571 658.285714z" fill="#FF7E27" p-id="4190"></path></svg>