<svg xmlns="http://www.w3.org/2000/svg" viewBox="0 0 1682 1024" version="1.1"><path d="M1243.428571 0H219.428571a219.428571 219.428571 0 0 0-219.428571 219.428571v585.142858a219.428571 219.428571 0 0 0 219.428571 219.428571h1024a219.428571 219.428571 0 0 0 219.428572-219.428571V219.428571a219.428571 219.428571 0 0 0-219.428572-219.428571z" fill="#77EF37" p-id="3947"></path><path d="M1462.857143 219.428571l62.171428 62.171429a36.571429 36.571429 0 0 0 25.6 10.971429h58.514286a73.142857 73.142857 0 0 1 73.142857 73.142857v292.571428a73.142857 73.142857 0 0 1-73.142857 73.142857h-57.782857a36.571429 36.571429 0 0 0-25.6 10.971429L1462.857143 804.571429z m-365.714286 438.857143V365.714286a73.142857 73.142857 0 0 0-146.285714 0v292.571428a73.142857 73.142857 0 0 0 146.285714 0z m-292.571428 0V365.714286a73.142857 73.142857 0 0 0-146.285715 0v292.571428a73.142857 73.142857 0 0 0 146.285715 0zM512 658.285714V365.714286a73.142857 73.142857 0 0 0-146.285714 0v292.571428a73.142857 73.142857 0 0 0 146.285714 0z" fill="#29B733" p-id="3948"></path><path d="M1097.142857 365.714286v292.571428a73.142857 73.142857 0 0 1-43.154286 66.56 73.142857 73.142857 0 0 0 6.582858-29.988571v-292.571429a73.142857 73.142857 0 0 0-73.142858-73.142857 73.142857 73.142857 0 0 0-29.988571 6.582857A73.142857 73.142857 0 0 1 1097.142857 365.714286z m-365.714286-73.142857a73.142857 73.142857 0 0 0-66.56 43.154285 73.142857 73.142857 0 0 1 29.988572-6.582857 73.142857 73.142857 0 0 1 73.142857 73.142857v292.571429a73.142857 73.142857 0 0 1-6.582857 29.988571A73.142857 73.142857 0 0 0 804.571429 658.285714V365.714286a73.142857 73.142857 0 0 0-73.142858-73.142857zM438.857143 292.571429a73.142857 73.142857 0 0 0-66.56 43.154285 73.142857 73.142857 0 0 1 29.988571-6.582857 73.142857 73.142857 0 0 1 73.142857 73.142857v292.571429a73.142857 73.142857 0 0 1-6.582857 29.988571A73.142857 73.142857 0 0 0 512 658.285714V365.714286a73.142857 73.142857 0 0 0-73.142857-73.142857z" fill="#2FD333" p-id="3949"></path></svg>