<svg xmlns="http://www.w3.org/2000/svg" viewBox="0 0 1024 1024" version="1.1"><path d="M862.208 97.393778a332.231111 332.231111 0 0 0-469.674667 0L103.082667 386.844444a59.164444 59.164444 0 0 0 83.740444 83.740445L473.998222 182.044444a213.902222 213.902222 0 1 1 302.648889 302.648889l-384.113778 385.024a123.790222 123.790222 0 0 1-117.418666 32.312889A122.88 122.88 0 0 1 219.136 696.32l385.934222-386.844444a32.768 32.768 0 0 1 45.511111 0 31.857778 31.857778 0 0 1 0 45.511111l-161.564444 160.654222a59.164444 59.164444 0 1 0 83.740444 83.740444l160.654223-161.109333a150.186667 150.186667 0 0 0 0-210.716444A153.827556 153.827556 0 0 0 519.509333 227.555556l-384.568889 384.568888A241.208889 241.208889 0 0 0 246.442667 1016.263111a242.119111 242.119111 0 0 0 227.555555-62.805333l386.389334-386.389334a332.231111 332.231111 0 0 0 0-469.674666z" fill="#63BA3A" p-id="4141"></path><path d="M862.208 97.393778a332.231111 332.231111 0 0 0-469.674667 0L125.838222 364.088889a59.164444 59.164444 0 0 0 83.285334 83.740444L473.998222 182.044444l22.755556-22.755555a213.902222 213.902222 0 1 1 302.648889 302.648889l-22.755556 22.755555-364.088889 364.088889-22.755555 22.755556a123.790222 123.790222 0 0 1-117.418667 32.312889 122.88 122.88 0 0 1-55.978667-205.710223l22.755556-22.755555 364.088889-364.088889 22.755555-22.755556a32.768 32.768 0 0 1 45.511111 0 31.857778 31.857778 0 0 1 0 45.511112l-159.744 158.833777a59.164444 59.164444 0 1 0 83.740445 83.740445l136.533333-136.533334A150.186667 150.186667 0 0 0 733.411556 227.555556 153.827556 153.827556 0 0 0 519.509333 227.555556l-364.088889 364.088888a241.208889 241.208889 0 0 0 110.136889 404.138667 242.119111 242.119111 0 0 0 230.741334-63.260444l364.088889-364.088889a332.231111 332.231111 0 0 0 0-469.674667z" fill="#79E247" p-id="4142"></path></svg>