<svg xmlns="http://www.w3.org/2000/svg" viewBox="0 0 1024 1024" version="1.1"><path d="M512 512m-469.333333 0a469.333333 469.333333 0 1 0 938.666666 0 469.333333 469.333333 0 1 0-938.666666 0Z" fill="#FFCB09" p-id="4332"></path><path d="M512 42.666667a469.333333 469.333333 0 1 0 469.333333 469.333333A469.333333 469.333333 0 0 0 512 42.666667z m-21.333333 917.333333a426.666667 426.666667 0 1 1 426.666666-426.666667 426.666667 426.666667 0 0 1-426.666666 426.666667z m128-256a42.666667 42.666667 0 0 1-30.293334-12.373333l-128-128a42.666667 42.666667 0 0 1-12.373333-30.293334v-256a42.666667 42.666667 0 0 1 85.333333 0v238.506667l115.626667 115.626667a42.666667 42.666667 0 0 1-30.293333 72.96z" fill="#CCA812" p-id="4333"></path><path d="M512 1024a512 512 0 1 1 512-512 512 512 0 0 1-512 512z m0-938.666667a426.666667 426.666667 0 1 0 426.666667 426.666667A426.666667 426.666667 0 0 0 512 85.333333z m158.293333 584.96a42.666667 42.666667 0 0 0 0-60.16L554.666667 494.506667V256a42.666667 42.666667 0 0 0-85.333334 0v256a42.666667 42.666667 0 0 0 12.373334 30.293333l128 128a42.666667 42.666667 0 0 0 60.16 0z" fill="#F16A54" p-id="4334"></path></svg>