<svg xmlns="http://www.w3.org/2000/svg" viewBox="0 0 1361 1024" version="1.1"><path d="M0 853.806094V128.212742a28.365651 28.365651 0 0 1 48.221607-19.855955L680.775623 740.34349 1313.32964 108.356787a28.365651 28.365651 0 0 1 48.221607 19.855955v725.593352a170.193906 170.193906 0 0 1-170.193906 170.193906H170.193906a170.193906 170.193906 0 0 1-170.193906-170.193906z" fill="#F16A54" p-id="4380"></path><path d="M247.915789 1024h752.257064l-162.251523-440.802216L680.775623 740.34349 440.802216 500.370083l-192.886427 523.629917z" fill="#C65246" p-id="4381"></path><path d="M654.111911 18.72133L283.65651 1024h794.238227L707.439335 18.72133a28.365651 28.365651 0 0 0-53.327424 0z" fill="#F4B147" p-id="4382"></path></svg>