<svg xmlns="http://www.w3.org/2000/svg" viewBox="0 0 1024 1024" version="1.1"><path d="M810.666667 554.666667a42.666667 42.666667 0 0 1-13.653334-83.2l69.546667-23.04a42.666667 42.666667 0 0 0 29.44-40.533334V344.32a42.666667 42.666667 0 0 0-19.2-35.413333l-89.6-60.16a42.666667 42.666667 0 0 1 47.36-70.826667l90.026667 60.16A128 128 0 0 1 981.333333 344.32v63.573333a128 128 0 0 1-87.466666 121.6l-69.546667 23.04A42.666667 42.666667 0 0 1 810.666667 554.666667z m-556.8-29.013334a42.666667 42.666667 0 0 0-26.88-53.76l-69.546667-23.04A42.666667 42.666667 0 0 1 128 407.893333V344.32a42.666667 42.666667 0 0 1 19.2-35.413333l89.6-60.16a42.666667 42.666667 0 0 0-46.933333-70.826667l-90.026667 59.733333A128 128 0 0 0 42.666667 344.32v63.573333a128 128 0 0 0 87.466666 121.173334l69.546667 23.04a42.666667 42.666667 0 0 0 53.76-26.88zM554.666667 981.333333v-256a42.666667 42.666667 0 0 0-85.333334 0v256a42.666667 42.666667 0 0 0 85.333334 0z" fill="#FFD400" p-id="4428"></path><path d="M149.333333 204.8l40.533334-26.88a42.666667 42.666667 0 0 1 46.933333 70.826667L149.333333 307.2z m77.653334 266.666667l-69.546667-23.04a42.666667 42.666667 0 0 1-7.68-4.266667v46.506667a341.333333 341.333333 0 0 0 3.413333 46.08l46.933334 15.786666a42.666667 42.666667 0 1 0 26.88-81.066666z m263.68 360.533333a341.333333 341.333333 0 0 0 64-6.4V725.333333a42.666667 42.666667 0 0 0-85.333334 0v105.386667z" fill="#DDB300" p-id="4429"></path><path d="M640 1024H384a42.666667 42.666667 0 0 1 0-85.333333h256a42.666667 42.666667 0 0 1 0 85.333333z m213.333333-554.666667V128a128 128 0 0 0-128-128H298.666667a128 128 0 0 0-128 128v341.333333a341.333333 341.333333 0 0 0 341.333333 341.333334 341.333333 341.333333 0 0 0 341.333333-341.333334z" fill="#FFEC00" p-id="4430"></path></svg>