<svg xmlns="http://www.w3.org/2000/svg" viewBox="0 0 1024 1024" version="1.1"><path d="M767.422671 0H255.371679a128.012748 128.012748 0 0 0-128.012747 128.012748v853.41832a42.670916 42.670916 0 0 0 68.700174 33.710023L458.911949 810.747404a85.341832 85.341832 0 0 1 104.970453 0l262.852842 204.393687A42.670916 42.670916 0 0 0 895.435419 981.431068V128.012748a128.012748 128.012748 0 0 0-128.012748-128.012748z" fill="#A63DF9" p-id="4476"></path><path d="M618.074465 446.337781h-256.025496a42.670916 42.670916 0 0 1 0-85.341832h256.025496a42.670916 42.670916 0 0 1 0 85.341832z" fill="#7328BC" p-id="4477"></path><path d="M634.289413 426.70916h-256.025495a42.670916 42.670916 0 0 1 0-85.341832h256.025495a42.670916 42.670916 0 0 1 0 85.341832z" fill="#FF80F3" p-id="4478"></path></svg>