<svg xmlns="http://www.w3.org/2000/svg" viewBox="0 0 1024 1024" version="1.1"><path d="M512 0a512 512 0 1 0 512 512A512 512 0 0 0 512 0z" fill="#DDDCE2" p-id="4524"></path><path d="M545.706667 538.453333l60.16-60.16a42.666667 42.666667 0 0 0-60.16-60.16l-60.16 60.16L426.666667 417.706667a42.666667 42.666667 0 0 0-60.16 60.16L426.666667 538.453333 364.8 597.333333A42.666667 42.666667 0 1 0 426.666667 659.2L485.546667 597.333333l60.16 60.16A42.666667 42.666667 0 0 0 606.293333 597.333333z" fill="#B5B4BF" p-id="4525"></path><path d="M567.04 517.12l60.16-60.16a42.666667 42.666667 0 0 0-60.16-60.16l-60.16 60.16-60.586667-60.586667a42.666667 42.666667 0 0 0-60.16 60.16l60.16 60.16-60.16 61.013334a42.666667 42.666667 0 1 0 60.16 60.16l60.16-60.16 60.16 60.16a42.666667 42.666667 0 0 0 60.16-60.16z" fill="#5E44BC" p-id="4526"></path></svg>