<svg xmlns="http://www.w3.org/2000/svg" viewBox="0 0 1293 1024" version="1.1"><path d="M1067.843625 152.549089h-466.291716a101.699393 101.699393 0 0 1-71.698072-30.001321L436.798892 30.001321A101.699393 101.699393 0 0 0 364.592323 0H101.699393a101.699393 101.699393 0 0 0-101.699393 101.699393v711.89575a152.549089 152.549089 0 0 0 152.549089 152.549089h915.294536a152.549089 152.549089 0 0 0 152.54909-152.549089V305.098179a152.549089 152.549089 0 0 0-152.54909-152.54909z" fill="#F24922" p-id="4667"></path><path d="M0 152.549089m152.549089 0l915.294536 0q152.549089 0 152.54909 152.54909l0 508.496964q0 152.549089-152.54909 152.549089l-915.294536 0q-152.549089 0-152.549089-152.549089l0-508.496964q0-152.549089 152.549089-152.54909Z" fill="#EF6825" p-id="4668"></path><path d="M728.67615 513.073437l-72.206569 71.698072 71.698072 71.698072a50.849696 50.849696 0 0 1-71.698072 71.698072l-71.698072-71.698072-71.698072 71.698072a50.849696 50.849696 0 0 1-71.698072-71.698072l71.698072-71.698072-72.206569-71.698072a50.849696 50.849696 0 0 1 71.698072-71.698072l71.698072 71.698072 71.698072-71.698072a50.849696 50.849696 0 0 1 71.698072 71.698072" fill="#C95420" p-id="4669"></path><path d="M754.100998 487.648589L681.894429 559.346661l71.698072 71.698072a50.849696 50.849696 0 0 1-71.698072 71.698072L610.196357 631.044733l-71.698072 71.698072a50.849696 50.849696 0 0 1-71.698072-71.698072L538.498285 559.346661 466.291716 487.648589a50.849696 50.849696 0 0 1 71.698072-71.698072L610.196357 487.648589l71.698072-71.698072a50.849696 50.849696 0 0 1 71.698072 71.698072" fill="#FFA42C" p-id="4670"></path></svg>