<svg xmlns="http://www.w3.org/2000/svg" viewBox="0 0 1117 1024" version="1.1"><path d="M465.454545 930.909091a46.545455 46.545455 0 0 1-43.287272-29.789091L107.985455 93.090909H46.545455a46.545455 46.545455 0 0 1 0-93.090909h61.44a93.090909 93.090909 0 0 1 86.574545 59.578182l297.425455 764.741818 561.803636-215.970909a46.545455 46.545455 0 1 1 33.512727 87.04l-605.090909 232.727273A46.545455 46.545455 0 0 1 465.454545 930.909091z m10.24-341.178182a139.636364 139.636364 0 0 0 179.665455 82.385455L960.232727 558.545455a139.636364 139.636364 0 0 0 82.385455-179.665455l-93.090909-248.087273a139.636364 139.636364 0 0 0-179.665455-82.385454L465.454545 162.443636a139.636364 139.636364 0 0 0-81.92 179.2z" fill="#F18052" p-id="4572"></path><path d="M465.454545 884.363636m-139.636363 0a139.636364 139.636364 0 1 0 279.272727 0 139.636364 139.636364 0 1 0-279.272727 0Z" fill="#FFA446" p-id="4573"></path></svg>