<svg xmlns="http://www.w3.org/2000/svg" viewBox="0 0 1056 1024" version="1.1"><path d="M16.736968 1006.011346a59.774887 59.774887 0 0 1 0-84.282591L748.979332 215.189593A59.774887 59.774887 0 0 1 832.066425 298.874434L101.019559 1007.206843a59.774887 59.774887 0 0 1-84.282591-1.195497z" fill="#4E1387" p-id="4716"></path><path d="M748.979332 215.189593L555.906448 402.284988l83.087092 86.075838L832.066425 298.874434a59.774887 59.774887 0 1 0-83.087093-83.684841z" fill="#2F0D56" p-id="4717"></path><path d="M1006.011346 750.17483L306.64517 50.808654A29.887443 29.887443 0 0 1 327.56638 0h699.366176a29.887443 29.887443 0 0 1 29.887443 29.887443v698.768428a29.887443 29.887443 0 0 1-50.808653 21.518959z" fill="#8C33E2" p-id="4718"></path></svg>