<svg xmlns="http://www.w3.org/2000/svg" viewBox="0 0 1682 1024" version="1.1"><path d="M1243.428571 0H219.428571a219.428571 219.428571 0 0 0-219.428571 219.428571v585.142858a219.428571 219.428571 0 0 0 219.428571 219.428571h1024a219.428571 219.428571 0 0 0 219.428572-219.428571V219.428571a219.428571 219.428571 0 0 0-219.428572-219.428571z" fill="#FC284F" p-id="5002"></path><path d="M1462.857143 219.428571l62.171428 62.171429a36.571429 36.571429 0 0 0 25.6 10.971429h58.514286a73.142857 73.142857 0 0 1 73.142857 73.142857v292.571428a73.142857 73.142857 0 0 1-73.142857 73.142857h-57.782857a36.571429 36.571429 0 0 0-25.6 10.971429L1462.857143 804.571429zM512 658.285714V365.714286a73.142857 73.142857 0 0 0-146.285714 0v292.571428a73.142857 73.142857 0 0 0 146.285714 0z" fill="#961B3B" p-id="5003"></path><path d="M438.857143 292.571429a73.142857 73.142857 0 0 0-66.56 43.154285 73.142857 73.142857 0 0 1 29.988571-6.582857 73.142857 73.142857 0 0 1 73.142857 73.142857v292.571429a73.142857 73.142857 0 0 1-6.582857 29.988571A73.142857 73.142857 0 0 0 512 658.285714V365.714286a73.142857 73.142857 0 0 0-73.142857-73.142857z" fill="#B2284C" p-id="5004"></path></svg>