<svg xmlns="http://www.w3.org/2000/svg" viewBox="0 0 1096 1024" version="1.1"><path d="M852.909105 146.285714l-62.902857-31.207619A1087.878095 1087.878095 0 0 0 303.362438 0H199.011962a97.52381 97.52381 0 0 0-95.085714 75.580952l-101.424762 438.857143A97.52381 97.52381 0 0 0 97.5872 633.904762h341.333333a48.761905 48.761905 0 0 1 48.761905 65.828571L409.175771 906.971429a86.79619 86.79619 0 0 0 80.944762 117.028571 130.681905 130.681905 0 0 0 108.739048-58.026667L852.909105 585.142857z" fill="#028F76" p-id="5050"></path><path d="M829.015771 146.285714v475.428572l24.380953-36.571429V146.285714l-24.380953-11.702857A72.655238 72.655238 0 0 0 829.015771 146.285714z" fill="#037A63" p-id="5051"></path><path d="M852.909105 48.761905m73.142857 0l97.523809 0q73.142857 0 73.142858 73.142857l0 487.619048q0 73.142857-73.142858 73.142857l-97.523809 0q-73.142857 0-73.142857-73.142857l0-487.619048q0-73.142857 73.142857-73.142857Z" fill="#0CC19E" p-id="5052"></path></svg>