<svg xmlns="http://www.w3.org/2000/svg" viewBox="0 0 1024 1024" version="1.1"><path d="M858.453333 218.453333L677.546667 37.546667A128 128 0 0 0 587.093333 0H256a128 128 0 0 0-128 128v768a128 128 0 0 0 128 128h512a128 128 0 0 0 128-128V308.906667a128 128 0 0 0-37.546667-90.453334z" fill="#DCDAC8" p-id="5146"></path><path d="M858.453333 218.453333L677.546667 37.546667A128 128 0 0 0 618.666667 4.693333V277.333333h272.64a128 128 0 0 0-32.853334-58.88z" fill="#C1BFB0" p-id="5147"></path><path d="M858.453333 218.453333L677.546667 37.546667a128 128 0 0 0-37.546667-25.6V256h244.053333a128 128 0 0 0-25.6-37.546667z" fill="#F2EFDC" p-id="5148"></path></svg>