<svg xmlns="http://www.w3.org/2000/svg" viewBox="0 0 1024 1024" version="1.1"><path d="M858.453333 218.453333L677.546667 37.546667A128 128 0 0 0 587.093333 0H256a128 128 0 0 0-128 128v768a128 128 0 0 0 128 128h512a128 128 0 0 0 128-128V308.906667a128 128 0 0 0-37.546667-90.453334z" fill="#0B70DD" p-id="5098"></path><path d="M891.306667 277.333333H618.666667V4.693333a128 128 0 0 1 58.88 32.853334l180.906666 180.906666a128 128 0 0 1 32.853334 58.88z m-256 359.253334H543.146667a21.333333 21.333333 0 0 1-21.333334-21.333334V362.666667a42.666667 42.666667 0 0 0-85.333333 0v252.586666a21.333333 21.333333 0 0 1-21.333333 21.333334H323.84a21.333333 21.333333 0 0 0-13.653333 37.546666l154.88 131.413334a21.333333 21.333333 0 0 0 27.733333 0l155.306667-131.413334a21.333333 21.333333 0 0 0-14.08-37.546666z" fill="#0C68BA" p-id="5099"></path><path d="M884.053333 256H640V11.946667a128 128 0 0 1 37.546667 25.6l180.906666 180.906666a128 128 0 0 1 25.6 37.546667z m-222.72 359.253333h-91.306666a21.333333 21.333333 0 0 1-21.333334-21.333333V341.333333a42.666667 42.666667 0 1 0-85.333333 0v252.586667a21.333333 21.333333 0 0 1-21.333333 21.333333H351.146667a21.333333 21.333333 0 0 0-13.653334 37.546667l155.306667 131.413333a21.333333 21.333333 0 0 0 27.733333 0l155.306667-131.413333a21.333333 21.333333 0 0 0-14.506667-37.546667z" fill="#3395FF" p-id="5100"></path></svg>