<svg xmlns="http://www.w3.org/2000/svg" viewBox="0 0 1170 1024" version="1.1"><path d="M877.714286 512a73.142857 73.142857 0 0 1-73.142857 73.142857h-438.857143A73.142857 73.142857 0 0 1 292.571429 512 73.142857 73.142857 0 0 0 219.428571 438.857143h-146.285714A73.142857 73.142857 0 0 0 0 512V877.714286a146.285714 146.285714 0 0 0 146.285714 146.285714h877.714286a146.285714 146.285714 0 0 0 146.285714-146.285714v-365.714286A73.142857 73.142857 0 0 0 1097.142857 438.857143h-146.285714a73.142857 73.142857 0 0 0-73.142857 73.142857z" fill="#89105D" p-id="5338"></path><path d="M544.182857 944.030476a24.380952 24.380952 0 0 0 33.645714 0l182.857143-174.08a24.380952 24.380952 0 0 0-16.579047-41.935238H633.904762a24.380952 24.380952 0 0 1-24.380952-24.380952V585.142857h-97.52381v118.491429a24.380952 24.380952 0 0 1-24.380952 24.380952H377.904762a24.380952 24.380952 0 0 0-16.579048 41.935238z" fill="#680E4C" p-id="5339"></path><path d="M768 703.634286H658.285714a24.380952 24.380952 0 0 1-24.380952-24.380953V48.761905a48.761905 48.761905 0 0 0-97.52381 0v630.491428a24.380952 24.380952 0 0 1-24.380952 24.380953H402.285714a24.380952 24.380952 0 0 0-16.579047 41.935238l182.857143 174.08a24.380952 24.380952 0 0 0 33.645714 0l182.857143-174.08a24.380952 24.380952 0 0 0-17.066667-41.935238z" fill="#FF4D84" p-id="5340"></path></svg>