<svg xmlns="http://www.w3.org/2000/svg" viewBox="0 0 1293 1024" version="1.1"><path d="M1067.843625 152.549089h-466.291716a101.699393 101.699393 0 0 1-71.698072-30.001321L436.798892 30.001321A101.699393 101.699393 0 0 0 364.592323 0H101.699393a101.699393 101.699393 0 0 0-101.699393 101.699393v711.89575a152.549089 152.549089 0 0 0 152.549089 152.549089h915.294536a152.549089 152.549089 0 0 0 152.54909-152.549089V305.098179a152.549089 152.549089 0 0 0-152.54909-152.54909z" fill="#176299" p-id="5289"></path><path d="M0 152.549089m152.549089 0l915.294536 0q152.549089 0 152.54909 152.54909l0 508.496964q0 152.549089-152.54909 152.549089l-915.294536 0q-152.549089 0-152.549089-152.549089l0-508.496964q0-152.549089 152.549089-152.54909Z" fill="#0B70DD" p-id="5290"></path><path d="M770.881398 678.843447l-141.870653 141.870654a25.424848 25.424848 0 0 1-36.103284 0l-141.870654-141.870654a25.424848 25.424848 0 0 1 17.797394-43.222241H559.346661v-254.248483a50.849696 50.849696 0 0 1 101.699393 0v254.248483h91.020956a25.424848 25.424848 0 0 1 18.814388 43.222241z" fill="#176299" p-id="5291"></path><path d="M796.306246 653.418599l-141.870653 141.870653a25.424848 25.424848 0 0 1-36.103284 0l-141.870653-141.870653a25.424848 25.424848 0 0 1 17.797393-43.222242h91.020957V355.947875a50.849696 50.849696 0 0 1 101.699393 0v254.248482h91.020957a25.424848 25.424848 0 0 1 18.30589 43.222242z" fill="#3395FF" p-id="5292"></path></svg>