<svg xmlns="http://www.w3.org/2000/svg" viewBox="0 0 1024 1024" version="1.1"><path d="M73.722586 1001.552312a54.750458 54.750458 0 0 1-38.872825-93.623282l273.752289-273.752289A54.750458 54.750458 0 0 1 386.3477 711.922391l-273.752289 273.752289a54.750458 54.750458 0 0 1-38.872825 15.877632zM714.850446 383.419645l273.752288-273.752288A54.750458 54.750458 0 0 0 911.404589 32.469211l-273.752289 273.752289A54.750458 54.750458 0 1 0 714.850446 383.419645z" fill="#6DD143" p-id="5436"></path><path d="M222.096327 876.173764l164.251373-164.251373a54.750458 54.750458 0 0 0-77.198146-77.198145l-164.251373 164.251373z" fill="#5CA838" p-id="5437"></path><path d="M613.562099 8.37901l399.130836 399.130837a27.375229 27.375229 0 0 1-19.16266 46.537889h-399.678341a27.375229 27.375229 0 0 1-27.375229-27.375229V27.54167a27.375229 27.375229 0 0 1 47.085394-19.16266zM456.97579 996.624771v-399.130836a27.375229 27.375229 0 0 0-27.375229-27.375229H30.469725a27.375229 27.375229 0 0 0-19.16266 46.537889l399.130836 399.130836a27.375229 27.375229 0 0 0 46.537889-19.16266z" fill="#C3FF08" p-id="5438"></path></svg>