<svg xmlns="http://www.w3.org/2000/svg" viewBox="0 0 1024 1024" version="1.1"><path d="M634.007017 232.152472H389.993437a42.659717 42.659717 0 0 1-32.847982-69.961936L479.152245 15.441111a42.659717 42.659717 0 0 1 65.695964 0l122.006789 146.749425a42.659717 42.659717 0 0 1-32.847981 69.961936z m0 559.695483H389.993437a42.659717 42.659717 0 0 0-32.847982 69.961935l122.00679 146.749426a42.659717 42.659717 0 0 0 65.695964 0l122.006789-146.749426a42.659717 42.659717 0 0 0-32.847981-69.961935zM162.19055 357.145442L15.441125 479.152231a42.659717 42.659717 0 0 0 0 65.695964l146.749425 122.00679a42.659717 42.659717 0 0 0 69.961935-32.847982V389.993424a42.659717 42.659717 0 0 0-69.961935-32.847982zM512.000227 469.340497a42.659717 42.659717 0 1 0 42.659717 42.659716 42.659717 42.659717 0 0 0-42.659717-42.659716z" fill="#821064" p-id="5484"></path><path d="M861.809904 357.145442l146.749425 122.006789a42.659717 42.659717 0 0 1 0 65.695964l-146.749425 122.00679a42.659717 42.659717 0 0 1-69.961936-32.847982V389.993424a42.659717 42.659717 0 0 1 69.961936-32.847982zM512.000227 469.340497v85.319433a42.659717 42.659717 0 0 0 0-85.319433z m122.00679 322.507458H512.000227V1023.916814a42.659717 42.659717 0 0 0 32.847982-15.357498l122.006789-146.749426a42.659717 42.659717 0 0 0-32.847981-69.961935z m32.847981-629.657419L544.848209 15.441111A42.659717 42.659717 0 0 0 512.000227 0.083613v232.068859h122.00679a42.659717 42.659717 0 0 0 32.847981-69.961936z" fill="#BC1992" p-id="5485"></path></svg>