<svg xmlns="http://www.w3.org/2000/svg" viewBox="0 0 1024 1024" version="1.1"><path d="M175.613551 0m133.565218 0l534.260869 0q133.565217 0 133.565218 133.565217l0 756.869566q0 133.565217-133.565218 133.565217l-534.260869 0q-133.565217 0-133.565218-133.565217l0-756.869566q0-133.565217 133.565218-133.565217Z" fill="#0E4DDB" p-id="5673"></path><path d="M383.97529 325.89913a22.26087 22.26087 0 0 0-37.843478 16.027827v125.551304H175.613551v89.043478h170.518261v122.88a22.26087 22.26087 0 0 0 38.288696 15.582609l168.737391-173.189565a22.26087 22.26087 0 0 0 0-31.610435z" fill="#0E44A5" p-id="5674"></path><path d="M368.392682 657.14087a22.26087 22.26087 0 0 0 38.288695 15.582608L576.309203 499.533913a22.26087 22.26087 0 0 0 0-31.610435L406.23616 303.638261a22.26087 22.26087 0 0 0-37.843478 16.027826V445.217391H86.570073a44.521739 44.521739 0 0 0 0 89.043479h281.822609z" fill="#3395FF" p-id="5675"></path></svg>