<svg xmlns="http://www.w3.org/2000/svg" viewBox="0 0 1024 1024" version="1.1"><path d="M26.451803 0m137.757847 0l551.03139 0q137.757848 0 137.757848 137.757848l0 748.484304q0 137.757848-137.757848 137.757848l-551.03139 0q-137.757848 0-137.757847-137.757848l0-748.484304q0-137.757848 137.757847-137.757848Z" fill="#0E4DDB" p-id="5625"></path><path d="M966.878709 520.724664l-174.034081-169.901346a22.959641 22.959641 0 0 0-39.03139 16.530942v129.492377H462.684987a45.919283 45.919283 0 0 0 0 91.838565h290.669058v126.73722a22.959641 22.959641 0 0 0 39.490583 16.071748L966.878709 551.03139a22.959641 22.959641 0 0 0 0-30.306726z" fill="#0E44A5" p-id="5626"></path><path d="M990.756735 497.765022l-174.03408-169.901345a22.959641 22.959641 0 0 0-39.03139 16.530942v129.492377H485.644628a45.919283 45.919283 0 0 0 0 91.838565h290.669058v126.737219a22.959641 22.959641 0 0 0 39.490583 16.071749L990.756735 530.367713a22.959641 22.959641 0 0 0 0-32.602691z" fill="#3395FF" p-id="5627"></path></svg>