<svg xmlns="http://www.w3.org/2000/svg" viewBox="0 0 1024 1024" version="1.1"><path d="M213.333298 0h597.333084a85.333298 85.333298 0 0 1 85.333298 85.333298v37.119984a127.999947 127.999947 0 0 1-31.57332 85.333298l-245.759898 281.173216a85.333298 85.333298 0 0 0-21.333324 55.039977v373.333178a42.666649 42.666649 0 0 1-17.06666 34.133319l-85.333298 63.999974A42.666649 42.666649 0 0 1 426.666542 981.332924V543.999773a85.333298 85.333298 0 0 0-20.906658-56.319976L159.57332 206.933247a127.999947 127.999947 0 0 1-31.57332-85.333298V85.333298a85.333298 85.333298 0 0 1 85.333298-85.333298z" fill="#771BBF" p-id="6057"></path><path d="M810.666382 0H511.99984v1002.666249l68.266638-51.199979a42.666649 42.666649 0 0 0 17.06666-34.133319v-373.333178a85.333298 85.333298 0 0 1 20.906658-56.319976l245.759897-281.173216a127.999947 127.999947 0 0 0 31.573321-85.333298V85.333298A85.333298 85.333298 0 0 0 810.666382 0z" fill="#A63DF9" p-id="6058"></path></svg>