<svg xmlns="http://www.w3.org/2000/svg" viewBox="0 0 1024 1024" version="1.1"><path d="M768 0H341.333333a128 128 0 0 0-128 128v92.586667a42.666667 42.666667 0 0 1-12.373333 30.293333L146.773333 305.066667A64 64 0 0 0 128 350.293333v140.373334A64 64 0 0 0 192 554.666667a21.333333 21.333333 0 0 1 21.333333 21.333333v37.546667a21.333333 21.333333 0 0 1-6.4 14.933333L146.773333 689.066667A64 64 0 0 0 128 734.293333V896a128 128 0 0 0 128 128h512a128 128 0 0 0 128-128V128a128 128 0 0 0-128-128z" fill="#F16A54" p-id="5961"></path><path d="M405.333333 448a42.666667 42.666667 0 0 1-42.666666-42.666667v-170.666666a42.666667 42.666667 0 0 1 85.333333 0v170.666666a42.666667 42.666667 0 0 1-42.666667 42.666667z m170.666667-42.666667v-170.666666a42.666667 42.666667 0 0 0-85.333333 0v170.666666a42.666667 42.666667 0 0 0 85.333333 0z m128 0v-170.666666a42.666667 42.666667 0 0 0-85.333333 0v170.666666a42.666667 42.666667 0 0 0 85.333333 0z" fill="#BC451B" p-id="5962"></path><path d="M426.666667 426.666667a42.666667 42.666667 0 0 1-42.666667-42.666667V213.333333a42.666667 42.666667 0 0 1 85.333333 0v170.666667a42.666667 42.666667 0 0 1-42.666666 42.666667z m170.666666-42.666667V213.333333a42.666667 42.666667 0 0 0-85.333333 0v170.666667a42.666667 42.666667 0 0 0 85.333333 0z m128 0V213.333333a42.666667 42.666667 0 0 0-85.333333 0v170.666667a42.666667 42.666667 0 0 0 85.333333 0z" fill="#F4B147" p-id="5963"></path></svg>