<svg xmlns="http://www.w3.org/2000/svg" viewBox="0 0 1024 1024" version="1.1"><path d="M981.352441 106.848186L915.31751 40.35468a137.572772 137.572772 0 0 0-194.436184 0l-125.649799 125.191222 260.929691 260.929691 125.649799-125.649798a137.572772 137.572772 0 0 0-0.458576-193.977609z" fill="#4629C1" p-id="6009"></path><path d="M800.660102 222.376889m-32.426213 32.426213a45.857591 45.857591 0 1 0 64.852426-64.852427 45.857591 45.857591 0 1 0-64.852426 64.852427Z" fill="#30208E" p-id="6010"></path><path d="M302.201523 983.64532L42.647559 724.091357a137.572772 137.572772 0 0 1 0-194.436185l360.899239-360.899238a137.572772 137.572772 0 0 1 194.436185 0l259.553963 259.553963a137.572772 137.572772 0 0 1 0 194.436185l-360.899239 360.899238a137.572772 137.572772 0 0 1-194.436184 0z m553.959695-816.265114a45.857591 45.857591 0 1 0 0 64.659203 45.857591 45.857591 0 0 0 0-64.659203z" fill="#744BF7" p-id="6011"></path></svg>