<svg xmlns="http://www.w3.org/2000/svg" viewBox="0 0 1293 1024" version="1.1"><path d="M1067.843625 152.549089h-466.291716a101.699393 101.699393 0 0 1-71.698072-30.001321L436.798892 30.001321A101.699393 101.699393 0 0 0 364.592323 0H101.699393a101.699393 101.699393 0 0 0-101.699393 101.699393v711.89575a152.549089 152.549089 0 0 0 152.549089 152.549089h915.294536a152.549089 152.549089 0 0 0 152.54909-152.549089V305.098179a152.549089 152.549089 0 0 0-152.54909-152.54909z" fill="#FFCE00" p-id="5820"></path><path d="M0 152.549089m152.549089 0l915.294536 0q152.549089 0 152.54909 152.54909l0 508.496964q0 152.549089-152.54909 152.549089l-915.294536 0q-152.549089 0-152.549089-152.549089l0-508.496964q0-152.549089 152.549089-152.54909Z" fill="#FFFF00" p-id="5821"></path></svg>