<svg xmlns="http://www.w3.org/2000/svg" viewBox="0 0 1642 1024" version="1.1"><path d="M49.152 400.042667l726.357333 605.525333a68.266667 68.266667 0 0 0 87.381334 0l726.357333-605.525333A136.533333 136.533333 0 0 0 1638.4 294.912V68.266667a68.266667 68.266667 0 0 0-102.4-58.709334l-699.050667 409.6a34.133333 34.133333 0 0 1-34.133333 0L102.4 9.557333A68.266667 68.266667 0 0 0 0 68.266667v226.645333a136.533333 136.533333 0 0 0 49.152 105.130667z" fill="#43EDCC" p-id="5867"></path><path d="M802.133333 417.109333L102.4 9.557333A68.266667 68.266667 0 0 0 0 68.266667v226.645333a136.533333 136.533333 0 0 0 49.152 105.130667l726.357333 605.525333A68.266667 68.266667 0 0 0 819.2 1024V421.888a34.133333 34.133333 0 0 1-17.066667-4.778667z" fill="#3FBCAA" p-id="5868"></path></svg>