<svg xmlns="http://www.w3.org/2000/svg" viewBox="0 0 1024 1024" version="1.1"><path d="M442.026562 993.279586l378.453176-453.973144a42.666649 42.666649 0 0 0 0-54.613311L442.026562 30.719987A85.333298 85.333298 0 0 0 376.319923 0H234.666649a42.666649 42.666649 0 0 0-36.693318 63.999973l255.999893 436.906485a21.333324 21.333324 0 0 1 0 21.333324l-255.999893 437.759818A42.666649 42.666649 0 0 0 234.666649 1023.999573h141.653274a85.333298 85.333298 0 0 0 65.706639-30.719987z" fill="#43EDCC" p-id="5914"></path><path d="M452.693225 522.666449L197.973331 959.9996A42.666649 42.666649 0 0 0 234.666649 1023.999573h141.653274a85.333298 85.333298 0 0 0 65.706639-30.719987l378.453176-453.973144A42.666649 42.666649 0 0 0 831.999733 511.999787H455.67989a21.333324 21.333324 0 0 1-2.986665 10.666662z" fill="#3FBCAA" p-id="5915"></path></svg>