<svg xmlns="http://www.w3.org/2000/svg" viewBox="0 0 1150 1024" version="1.1"><path d="M0.000939 912.461327v-212.767048a118.568421 118.568421 0 0 1 68.891533-101.697025 789.675057 789.675057 0 0 1 588.624256 0 118.568421 118.568421 0 0 1 68.891534 101.697025v213.235698a109.664073 109.664073 0 0 1-109.664074 109.664073H109.665012A109.664073 109.664073 0 0 1 0.000939 912.461327zM374.920847 0a215.110297 215.110297 0 1 0 215.110298 215.110297A215.110297 215.110297 0 0 0 374.920847 0z" fill="#9B1967" p-id="6348"></path><path d="M552.070504 675.793135a103.571625 103.571625 0 0 0-59.987185 88.574828v187.459955a93.729977 93.729977 0 0 0 33.274142 72.172082h91.386727a109.664073 109.664073 0 0 0 109.664074-109.664073v-214.641648a112.475973 112.475973 0 0 0-23.432495-64.673684 686.103432 686.103432 0 0 0-151.373913 40.77254z" fill="#7F1459" p-id="6349"></path><path d="M515.515813 926.989474v-187.459955a103.571625 103.571625 0 0 1 59.987186-88.574828 687.509382 687.509382 0 0 1 512.702974 0 103.571625 103.571625 0 0 1 59.987186 88.574828v187.459955a93.729977 93.729977 0 0 1-93.729977 93.729977H609.24579a93.729977 93.729977 0 0 1-93.729977-93.729977z m328.05492-796.704806a187.459954 187.459954 0 1 0 187.459954 187.459954 187.459954 187.459954 0 0 0-187.459954-186.054004z" fill="#D1026C" p-id="6350"></path></svg>