<svg xmlns="http://www.w3.org/2000/svg" viewBox="0 0 1228 1024" version="1.1"><path d="M1075.2 768a51.2 51.2 0 0 1-51.2-51.2v-204.8a409.6 409.6 0 1 0-819.2 0v153.6a51.2 51.2 0 0 1-102.4 0v-153.6a512 512 0 1 1 1024 0v204.8a51.2 51.2 0 0 1-51.2 51.2z" fill="#9B1967" p-id="6156"></path><path d="M153.6 1024a153.6 153.6 0 0 1-153.6-153.6v-204.8a102.4 102.4 0 0 1 102.4-102.4h102.4a102.4 102.4 0 0 1 102.4 102.4v204.8a153.6 153.6 0 0 1-153.6 153.6z m1075.2-153.6v-204.8a102.4 102.4 0 0 0-102.4-102.4h-102.4a102.4 102.4 0 0 0-102.4 102.4v204.8a153.6 153.6 0 0 0 153.6 153.6 153.6 153.6 0 0 0 153.6-153.6z" fill="#D1026C" p-id="6157"></path></svg>