<svg xmlns="http://www.w3.org/2000/svg" viewBox="0 0 1365 1024" version="1.1"><path d="M0 0m157.190144 0l943.140866 0q157.190144 0 157.190144 157.190144l0 628.760578q0 157.190144-157.190144 157.190144l-943.140866 0q-157.190144 0-157.190144-157.190144l0-628.760578q0-157.190144 157.190144-157.190144Z" fill="#89105D" p-id="6300"></path><path d="M360.489398 561.692782l134.659557-107.937232a127.324017 127.324017 0 0 1 169.241388 9.431409l15.719015 15.719014a22.530587 22.530587 0 0 0 30.390094 0l209.586859-179.196765a52.396715 52.396715 0 1 1 68.11573 79.643007l-209.58686 179.196764a127.847984 127.847984 0 0 1-172.909158-6.811573l-15.719015-15.719014a22.530587 22.530587 0 0 0-29.866127 0l-134.13559 107.413265a52.396715 52.396715 0 0 1-65.495893-81.738875zM1126.529367 812.149079a52.396715 52.396715 0 0 0-52.396714-52.396715h-890.744151v-576.363862a52.396715 52.396715 0 0 0-104.79343 0v628.760577a52.396715 52.396715 0 0 0 52.396715 52.396715h943.140866a52.396715 52.396715 0 0 0 52.396714-52.396715z" fill="#660C4A" p-id="6301"></path><path d="M386.687755 535.494425l134.659557-107.937233a127.324017 127.324017 0 0 1 169.241389 9.431409l15.719014 15.719015a22.530587 22.530587 0 0 0 30.390095 0l209.586859-179.196765a52.396715 52.396715 0 1 1 68.115729 79.643007l-209.586859 179.196764a127.847984 127.847984 0 0 1-172.909159-6.811573l-15.719014-15.719014a22.530587 22.530587 0 0 0-29.866128 0l-134.13559 107.413265a52.396715 52.396715 0 0 1-65.495893-81.738875zM1152.727725 785.950722a52.396715 52.396715 0 0 0-52.396715-52.396715H209.586859V157.190144a52.396715 52.396715 0 0 0-104.793429 0v628.760578a52.396715 52.396715 0 0 0 52.396714 52.396714h943.140866a52.396715 52.396715 0 0 0 52.396715-52.396714z" fill="#FF4D84" p-id="6302"></path></svg>