<svg xmlns="http://www.w3.org/2000/svg" viewBox="0 0 1308 1024" version="1.1"><path d="M1166.222222 1024a142.222222 142.222222 0 0 1-142.222222-142.222222v-739.555556A142.222222 142.222222 0 0 1 1166.222222 0 142.222222 142.222222 0 0 1 1308.444444 142.222222v739.555556a142.222222 142.222222 0 0 1-142.222222 142.222222zM796.444444 881.777778v-398.222222A142.222222 142.222222 0 0 0 654.222222 341.333333 142.222222 142.222222 0 0 0 512 483.555556v398.222222a142.222222 142.222222 0 0 0 142.222222 142.222222 142.222222 142.222222 0 0 0 142.222222-142.222222z" fill="#DAD6CA" p-id="6396"></path><path d="M142.222222 1024A142.222222 142.222222 0 0 1 0 881.777778v-227.555556A142.222222 142.222222 0 0 1 142.222222 512 142.222222 142.222222 0 0 1 284.444444 654.222222v227.555556A142.222222 142.222222 0 0 1 142.222222 1024z m505.173334-682.666667A141.653333 141.653333 0 0 0 512 483.555556v398.222222a141.653333 141.653333 0 0 0 135.395556 142.222222z" fill="#BAB5AA" p-id="6397"></path></svg>