<svg xmlns="http://www.w3.org/2000/svg" viewBox="0 0 1025 1024" version="1.1"><path d="M992.234825 474.253563a495.858964 495.858964 0 0 0-991.717929 44.214091 481.396411 481.396411 0 0 0 59.503076 244.21054 80.163866 80.163866 0 0 1 4.95859 64.048449L13.739802 981.269354a20.247574 20.247574 0 0 0 26.859027 25.61938l138.014079-53.718055a82.643161 82.643161 0 0 1 72.312765 4.132158A495.858964 495.858964 0 0 0 992.234825 474.253563z" fill="#E8591C" p-id="7253"></path><path d="M480.67366 755.240309a41.32158 41.32158 0 0 1-41.32158-41.32158v-206.607902a41.32158 41.32158 0 1 1 82.643161 0v206.607902a41.32158 41.32158 0 0 1-41.321581 41.32158z m0-413.215803a41.32158 41.32158 0 1 0 41.321581 41.32158 41.32158 41.32158 0 0 0-41.321581-41.32158z" fill="#C44114" p-id="7254"></path><path d="M501.33445 734.579519a41.32158 41.32158 0 0 1-41.32158-41.32158v-206.607902a41.32158 41.32158 0 1 1 82.643161 0v206.607902a41.32158 41.32158 0 0 1-41.321581 41.32158z m0-413.215804a41.32158 41.32158 0 1 0 41.321581 41.321581 41.32158 41.32158 0 0 0-41.321581-41.321581z" fill="#FFB600" p-id="7255"></path></svg>