<svg xmlns="http://www.w3.org/2000/svg" viewBox="0 0 1228 1024" version="1.1"><path d="M1228.8 702.464v163.84A157.696 157.696 0 0 1 1071.616 1024H566.784A157.696 157.696 0 0 1 409.6 866.816v-163.84a164.864 164.864 0 0 1 98.816-145.92 829.952 829.952 0 0 1 622.08 0A164.864 164.864 0 0 1 1228.8 702.464zM819.2 409.6a204.8 204.8 0 1 0-204.8-204.8 204.8 204.8 0 0 0 204.8 204.8z m-307.2 0a51.2 51.2 0 0 0-51.2-51.2H51.2a51.2 51.2 0 0 0 0 102.4h409.6a51.2 51.2 0 0 0 51.2-51.2z" fill="#CCC7BA" p-id="6443"></path><path d="M179.2 358.4h102.4v102.4h-102.4z" fill="#BCB8AF" p-id="6444"></path><path d="M1228.8 702.464v163.84A157.696 157.696 0 0 1 1071.616 1024H819.2V496.128a833.024 833.024 0 0 1 310.784 60.416A164.864 164.864 0 0 1 1228.8 702.464zM819.2 0v409.6a204.8 204.8 0 0 0 0-409.6zM307.2 614.4V204.8a51.2 51.2 0 0 0-102.4 0v409.6a51.2 51.2 0 0 0 102.4 0z" fill="#DAD6CA" p-id="6445"></path></svg>