<svg xmlns="http://www.w3.org/2000/svg" viewBox="0 0 1390 1024" version="1.1"><path d="M1382.344524 793.193163l-85.360021-511.554736A337.202352 337.202352 0 0 0 891.978446 8.002048l-66.592924 14.529365a605.39022 605.39022 0 0 1-262.739355 0L496.053242 8.002048a337.202352 337.202352 0 0 0-405.611447 273.636379L2.660214 793.193163a195.541041 195.541041 0 0 0 193.11948 227.626722h12.713194a195.541041 195.541041 0 0 0 185.249407-132.580458 251.236941 251.236941 0 0 1 237.918357-170.114652h110.78641a285.744184 285.744184 0 0 1 265.766306 181.617066 195.541041 195.541041 0 0 0 374.736546-104.732508z" fill="#E8591C" p-id="6637"></path><path d="M827.201693 395.451788a60.539022 60.539022 0 1 1-85.360021 0 60.539022 60.539022 0 0 1 85.360021 0z m42.982705-113.813361a60.539022 60.539022 0 1 0 85.360021 0 60.539022 60.539022 0 0 0-85.360021 0z m113.813361 113.813361a60.539022 60.539022 0 1 0 85.360021 0 60.539022 60.539022 0 0 0-85.360021 0z m-113.813361 128.342727a60.539022 60.539022 0 1 0 85.360021 0 60.539022 60.539022 0 0 0-85.360021 0z" fill="#BC451B" p-id="6638"></path><path d="M857.471203 363.366107a60.539022 60.539022 0 1 1-85.36002 0 60.539022 60.539022 0 0 1 85.36002 0z m42.982706-113.813361a60.539022 60.539022 0 1 0 85.360021 0 60.539022 60.539022 0 0 0-85.360021 1.81617zM1014.26727 363.366107a60.539022 60.539022 0 1 0 85.360021 0 60.539022 60.539022 0 0 0-85.360021 0z m-113.813361 130.158897a60.539022 60.539022 0 1 0 85.360021 0 60.539022 60.539022 0 0 0-85.360021 0z" fill="#FFB600" p-id="6639"></path></svg>