<svg xmlns="http://www.w3.org/2000/svg" viewBox="0 0 1817 1024" version="1.1"><path d="M1211.747382 454.405268v493.787058a75.734211 75.734211 0 0 0 103.75587 70.432817l237.805423-95.425106a75.734211 75.734211 0 0 1 70.432817 7.573421l75.734211 50.741921a75.734211 75.734211 0 0 0 118.14537-62.859395V454.405268z" fill="#4C2091" p-id="6540"></path><path d="M1211.747382 568.006585h492.272374a75.734211 75.734211 0 0 0 75.734211-75.734211 75.734211 75.734211 0 0 0-11.360131-37.867106H1211.747382z" fill="#321866" p-id="6541"></path><path d="M1741.886862 530.13948H757.342114a75.734211 75.734211 0 0 1 0-151.468423h984.544748a75.734211 75.734211 0 0 1 0 151.468423z" fill="#6D32BA" p-id="6542"></path><path d="M454.405268 0a454.405268 454.405268 0 1 0 454.405269 454.405268 454.405268 454.405268 0 0 0-454.405269-454.405268z m0 605.873691a151.468423 151.468423 0 1 1 151.468423-151.468423 151.468423 151.468423 0 0 1-151.468423 151.468423z" fill="#9D60F4" p-id="6543"></path></svg>