<svg xmlns="http://www.w3.org/2000/svg" viewBox="0 0 1365 1024" version="1.1"><path d="M1194.666667 0H170.666667a170.666667 170.666667 0 0 0-170.666667 170.666667v682.666666a170.666667 170.666667 0 0 0 170.666667 170.666667h1024a170.666667 170.666667 0 0 0 170.666666-170.666667V170.666667a170.666667 170.666667 0 0 0-170.666666-170.666667z" fill="#BAB5AA" p-id="6685"></path><path d="M938.666667 824.888889h-568.888889a56.888889 56.888889 0 0 1 0-113.777778h568.888889a56.888889 56.888889 0 0 1 0 113.777778z m-625.777778-568.888889a56.888889 56.888889 0 1 0 56.888889 56.888889 56.888889 56.888889 0 0 0-56.888889-56.888889z m227.555555 0a56.888889 56.888889 0 1 0 56.888889 56.888889 56.888889 56.888889 0 0 0-56.888889-56.888889z m227.555556 0a56.888889 56.888889 0 1 0 56.888889 56.888889 56.888889 56.888889 0 0 0-56.888889-56.888889z m227.555556 0a56.888889 56.888889 0 1 0 56.888888 56.888889 56.888889 56.888889 0 0 0-56.888888-56.888889z m-682.666667 227.555556a56.888889 56.888889 0 1 0 56.888889 56.888888 56.888889 56.888889 0 0 0-56.888889-56.888888z m227.555555 0a56.888889 56.888889 0 1 0 56.888889 56.888888 56.888889 56.888889 0 0 0-56.888889-56.888888z m227.555556 0a56.888889 56.888889 0 1 0 56.888889 56.888888 56.888889 56.888889 0 0 0-56.888889-56.888888z m227.555556 0a56.888889 56.888889 0 1 0 56.888888 56.888888 56.888889 56.888889 0 0 0-56.888888-56.888888z" fill="#918D84" p-id="6686"></path><path d="M967.111111 796.444444H398.222222a56.888889 56.888889 0 0 1 0-113.777777h568.888889a56.888889 56.888889 0 0 1 0 113.777777zM341.333333 227.555556a56.888889 56.888889 0 1 0 56.888889 56.888888 56.888889 56.888889 0 0 0-56.888889-56.888888z m227.555556 0a56.888889 56.888889 0 1 0 56.888889 56.888888 56.888889 56.888889 0 0 0-56.888889-56.888888z m227.555555 0a56.888889 56.888889 0 1 0 56.888889 56.888888 56.888889 56.888889 0 0 0-56.888889-56.888888z m227.555556 0a56.888889 56.888889 0 1 0 56.888889 56.888888 56.888889 56.888889 0 0 0-56.888889-56.888888zM341.333333 455.111111a56.888889 56.888889 0 1 0 56.888889 56.888889 56.888889 56.888889 0 0 0-56.888889-56.888889z m227.555556 0a56.888889 56.888889 0 1 0 56.888889 56.888889 56.888889 56.888889 0 0 0-56.888889-56.888889z m227.555555 0a56.888889 56.888889 0 1 0 56.888889 56.888889 56.888889 56.888889 0 0 0-56.888889-56.888889z m227.555556 0a56.888889 56.888889 0 1 0 56.888889 56.888889 56.888889 56.888889 0 0 0-56.888889-56.888889z" fill="#DAD6CA" p-id="6687"></path></svg>