<svg xmlns="http://www.w3.org/2000/svg" viewBox="0 0 1024 1024" version="1.1"><path d="M820.174933 308.053333a308.906667 308.906667 0 0 1-68.266666 193.706667 224.426667 224.426667 0 0 0-45.226667 140.8v6.826667A118.613333 118.613333 0 0 1 587.6416 768H436.174933a118.613333 118.613333 0 0 1-118.613333-118.613333v-6.826667a240.213333 240.213333 0 0 0-49.92-146.346667 308.053333 308.053333 0 1 1 552.533333-188.16zM597.028267 810.666667h-170.666667a42.666667 42.666667 0 0 0 0 85.333333h170.666667a42.666667 42.666667 0 1 0 0-85.333333z m-42.666667 128h-85.333333a42.666667 42.666667 0 0 0 0 85.333333h85.333333a42.666667 42.666667 0 0 0 0-85.333333z" fill="#BA5A56" p-id="6922"></path><path d="M597.028267 981.333333a42.666667 42.666667 0 0 1-42.666667 42.666667h-32.853333v-85.333333h33.28a42.666667 42.666667 0 0 1 42.24 42.666666z m0-170.666666H521.508267v85.333333h75.52a42.666667 42.666667 0 1 0 0-85.333333z m110.933333-740.266667A307.626667 307.626667 0 0 0 521.508267 0v768H587.6416a118.613333 118.613333 0 0 0 118.613333-118.613333v-6.826667a224.426667 224.426667 0 0 1 45.226667-140.8 308.053333 308.053333 0 0 0-42.666667-431.36z" fill="#E47267" p-id="6923"></path></svg>