<svg xmlns="http://www.w3.org/2000/svg" viewBox="0 0 1024 1024" version="1.1"><path d="M823.576173 796.138784a41.974434 41.974434 0 0 0-36.439345-46.125752H632.154301v92.251505h154.982527a41.974434 41.974434 0 0 0 36.439345-46.125753z" fill="#DBB100" p-id="6780"></path><path d="M78.645276 796.138784a41.974434 41.974434 0 0 1 36.439344-46.125752h619.007593a41.974434 41.974434 0 0 1 36.439345 46.125752 41.974434 41.974434 0 0 1-36.439345 46.125753H115.08462a41.974434 41.974434 0 0 1-36.439344-46.125753zM908.908814 181.743766H288.05619a41.974434 41.974434 0 0 0-36.439344 46.125752 41.974434 41.974434 0 0 0 36.439344 46.125752H908.908814a41.974434 41.974434 0 0 0 36.439344-46.125752 41.974434 41.974434 0 0 0-36.439344-46.125752z" fill="#FFCE00" p-id="6781"></path><path d="M678.280053 1010.623532v-428.508237a13.376468 13.376468 0 0 1 22.601619-10.147666l238.008881 212.17846a13.376468 13.376468 0 0 1 0 20.295331l-238.008881 214.484747a13.376468 13.376468 0 0 1-22.601619-8.302635zM321.266732 3.698363L83.257851 217.721853a13.376468 13.376468 0 0 0 0 20.295331l238.008881 214.484747a13.376468 13.376468 0 0 0 22.601618-10.147665V13.846028a13.376468 13.376468 0 0 0-22.601618-10.147665z" fill="#FFFF00" p-id="6782"></path></svg>