<svg xmlns="http://www.w3.org/2000/svg" viewBox="0 0 1097 1024" version="1.1"><path d="M243.809408 877.713868l62.902827 31.207604a1087.877577 1087.877577 0 0 0 487.618815 115.07804h104.350427a97.523763 97.523763 0 0 0 95.085669-75.580916l101.424713-438.856934A97.523763 97.523763 0 0 0 999.130953 390.095052h-341.333171a48.761882 48.761882 0 0 1-45.836169-65.82854L687.54253 117.028516A86.796149 86.796149 0 0 0 606.110188 0a130.681843 130.681843 0 0 0-108.738996 58.026639L243.809408 438.856934z" fill="#028F76" p-id="6969"></path><path d="M0 341.333171m73.142822 0l97.523763 0q73.142822 0 73.142823 73.142822l0 487.618816q0 73.142822-73.142823 73.142822l-97.523763 0q-73.142822 0-73.142822-73.142822l0-487.618816q0-73.142822 73.142822-73.142822Z" fill="#0CC19E" p-id="6970"></path></svg>