<svg xmlns="http://www.w3.org/2000/svg" viewBox="0 0 1024 1024" version="1.1"><path d="M267.48183 1024a197.653349 197.653349 0 0 1-139.839744-57.813605l-69.672806-69.672805a197.653349 197.653349 0 0 1 0-279.679489l104.756275-104.756275a197.653349 197.653349 0 0 1 279.679489 0l69.672806 69.672806a197.653349 197.653349 0 0 1 0 279.679488l-104.756275 104.756275a197.653349 197.653349 0 0 1-139.839745 57.813605z m35.08347-470.909104a98.826675 98.826675 0 0 0-69.672806 28.659736L127.642086 687.00104a98.826675 98.826675 0 0 0 0 139.839744L197.809025 896.51359a98.826675 98.826675 0 0 0 139.839744 0L442.405044 790.769048a98.826675 98.826675 0 0 0 0-139.839744l-70.166939-68.684539a98.826675 98.826675 0 0 0-69.672805-29.153869z m419.519233 16.800535a197.653349 197.653349 0 0 1-139.839744-57.813605l-70.166939-69.672806a197.653349 197.653349 0 0 1 0-279.679488l104.756275-104.756275a197.653349 197.653349 0 0 1 279.679489 0l69.672805 69.672805a197.653349 197.653349 0 0 1 0 279.679489l-104.756275 104.756275a197.653349 197.653349 0 0 1-139.839744 57.813605z m34.589336-470.909104a98.826675 98.826675 0 0 0-69.672805 28.659735l-104.756275 105.250408a98.826675 98.826675 0 0 0 0 139.839745l69.672805 69.672805a98.826675 98.826675 0 0 0 139.839745 0l104.756275-104.756275a98.826675 98.826675 0 0 0 0-139.839744l-69.672806-70.166939A98.826675 98.826675 0 0 0 756.673869 98.982327z" fill="#0B70DD" p-id="6875"></path><path d="M302.5653 771.003713a49.413337 49.413337 0 0 1-35.08347-84.496806l419.519234-419.0251a49.413337 49.413337 0 0 1 69.672805 69.672805l-419.0251 419.519233a49.413337 49.413337 0 0 1-35.083469 14.329868z" fill="#3395FF" p-id="6876"></path></svg>