<svg xmlns="http://www.w3.org/2000/svg" viewBox="0 0 1024 1024" version="1.1"><path d="M697.41568 585.142857a48.761905 48.761905 0 0 1-48.761905-48.761905V243.809524a146.285714 146.285714 0 0 0-292.571428 0v243.809524a48.761905 48.761905 0 0 1-97.52381 0V243.809524a243.809524 243.809524 0 0 1 487.619048 0v292.571428a48.761905 48.761905 0 0 1-48.761905 48.761905z" fill="#A81B39" p-id="7206"></path><path d="M63.510918 390.095238m146.285714 0l585.142858 0q146.285714 0 146.285714 146.285714l0 341.333334q0 146.285714-146.285714 146.285714l-585.142858 0q-146.285714 0-146.285714-146.285714l0-341.333334q0-146.285714 146.285714-146.285714Z" fill="#FC284F" p-id="7207"></path></svg>