<svg xmlns="http://www.w3.org/2000/svg" viewBox="0 0 1228 1024" version="1.1"><path d="M870.36388 660.473582a51.197875 51.197875 0 0 1-25.598938-97.275963 125.946773 125.946773 0 0 0 0-218.614927 51.197875 51.197875 0 1 1 51.197876-88.572324 228.342524 228.342524 0 0 1 0 395.759576 51.197875 51.197875 0 0 1-25.598938 8.703638z m185.848287 158.713414a464.876708 464.876708 0 0 0 0-722.913999 51.197875 51.197875 0 0 0-64.509323 79.356706 362.480957 362.480957 0 0 1 0 563.176629A51.197875 51.197875 0 0 0 1056.212167 819.186996zM0 460.801869v102.39575a153.593626 153.593626 0 0 0 153.593626 153.593626h51.197875V307.208243H153.593626a153.593626 153.593626 0 0 0-153.593626 153.593626z" fill="#FFCE00" p-id="7301"></path><path d="M179.192564 307.208243H204.791501v409.583002h-25.598937z" fill="#DDB300" p-id="7302"></path><path d="M204.791501 307.208243L520.170413 36.883461a153.593626 153.593626 0 0 1 102.395751-36.86247A96.763984 96.763984 0 0 1 716.770254 96.784975v830.429538A96.763984 96.763984 0 0 1 620.00627 1023.978497a153.593626 153.593626 0 0 1-102.395751-36.86247L204.791501 716.791245z" fill="#FFEC00" p-id="7303"></path></svg>