<svg xmlns="http://www.w3.org/2000/svg" viewBox="0 0 1024 1024" version="1.1"><path d="M348.696097 91.7974l194.610488 194.610489-227.198565 227.198566a137.6961 137.6961 0 0 0 0 194.610488 137.6961 137.6961 0 0 0 194.610488 0l227.198566-227.198566 194.610489 194.610489-227.198566 227.198566a413.088301 413.088301 0 0 1-584.290453 0 413.088301 413.088301 0 0 1 0-584.290453z" fill="#F24922" p-id="7111"></path><path d="M520.357235 309.357239L325.746747 114.74675 390.463914 50.029583a91.7974 91.7974 0 0 1 129.893321 0l64.717168 64.717167a91.7974 91.7974 0 0 1 0 129.893322z m454.397132 324.50381a91.7974 91.7974 0 0 0 0-129.893322l-65.176155-64.717167a91.7974 91.7974 0 0 0-129.893321 0L714.967724 504.885701l194.610488 194.610489z" fill="#CC3921" p-id="7112"></path><path d="M543.306585 286.407889L348.696097 91.7974 413.413264 27.080233a91.7974 91.7974 0 0 1 129.893321 0L608.023753 91.7974a91.7974 91.7974 0 0 1 0 129.893322z m454.397132 324.50381a91.7974 91.7974 0 0 0 0-129.893322l-65.176154-64.717167a91.7974 91.7974 0 0 0-129.893322 0l-64.717167 64.717167 194.610489 194.610489z" fill="#FFA42C" p-id="7113"></path></svg>