<svg xmlns="http://www.w3.org/2000/svg" viewBox="0 0 1365 1024" version="1.1"><path d="M1194.666667 0H170.666667a170.666667 170.666667 0 0 0-170.666667 170.666667v682.666666a170.666667 170.666667 0 0 0 170.666667 170.666667h1024a170.666667 170.666667 0 0 0 170.666666-170.666667V170.666667a170.666667 170.666667 0 0 0-170.666666-170.666667z" fill="#FFCE00" p-id="7541"></path><path d="M654.222222 654.222222L1314.133333 48.924444a170.666667 170.666667 0 0 0-25.6-20.48H76.8a170.666667 170.666667 0 0 0-49.493333 50.631112z" fill="#EDBF00" p-id="7542"></path><path d="M682.666667 398.222222L52.337778 976.213333A170.666667 170.666667 0 0 0 170.666667 1024h1024a170.666667 170.666667 0 0 0 118.328889-47.786667z" fill="#FFEC00" p-id="7543"></path><path d="M529.066667 539.306667l87.04 79.644444a56.888889 56.888889 0 0 0 76.8 0L807.822222 512 682.666667 398.222222z" fill="#F7D900" p-id="7544"></path><path d="M721.351111 590.506667L1312.995556 47.786667A170.666667 170.666667 0 0 0 1194.666667 0H170.666667A170.666667 170.666667 0 0 0 52.337778 47.786667l591.644444 542.72a56.888889 56.888889 0 0 0 77.368889 0z" fill="#FFFF00" p-id="7545"></path></svg>