<svg xmlns="http://www.w3.org/2000/svg" viewBox="0 0 1169 1024" version="1.1"><path d="M1021.252345 0H145.893192a145.893192 145.893192 0 0 0-145.893192 145.893192v534.941705a145.893192 145.893192 0 0 0 145.893192 145.893192h12.644077a24.315532 24.315532 0 0 1 24.315532 24.315532v136.65329A34.041745 34.041745 0 0 0 243.15532 1011.526132l156.592026-156.592026A97.262128 97.262128 0 0 1 466.371904 826.728089H1021.252345a145.893192 145.893192 0 0 0 145.893192-145.893192V145.893192a145.893192 145.893192 0 0 0-145.893192-145.893192z" fill="#FC284F" p-id="7397"></path><path d="M875.359153 389.048512H194.524256a48.631064 48.631064 0 0 1 0-97.262128h680.834897a48.631064 48.631064 0 0 1 0 97.262128z m-243.15532 145.893192a48.631064 48.631064 0 0 0-48.631064-48.631064H194.524256a48.631064 48.631064 0 0 0 0 97.262129h389.048513a48.631064 48.631064 0 0 0 48.631064-48.631065z" fill="#BC1B45" p-id="7398"></path><path d="M923.990217 340.417448H243.15532a48.631064 48.631064 0 0 1 0-97.262128h680.834897a48.631064 48.631064 0 0 1 0 97.262128z m-243.15532 145.893192a48.631064 48.631064 0 0 0-48.631064-48.631064H243.15532a48.631064 48.631064 0 0 0 0 97.262128h389.048513a48.631064 48.631064 0 0 0 48.631064-48.631064z" fill="#FEA887" p-id="7399"></path></svg>