<svg xmlns="http://www.w3.org/2000/svg" viewBox="0 0 1024 1024" version="1.1"><path d="M512 1024a42.666667 42.666667 0 0 1-42.666667-42.666667v-213.333333a42.666667 42.666667 0 0 1 85.333334 0v213.333333a42.666667 42.666667 0 0 1-42.666667 42.666667z" fill="#4E1387" p-id="7445"></path><path d="M490.666667 832a384 384 0 0 0 64-5.973333V768a42.666667 42.666667 0 0 0-9.813334-26.453333 298.666667 298.666667 0 0 1-54.186666 5.12h-14.506667A42.666667 42.666667 0 0 0 469.333333 768v62.72z" fill="#381066" p-id="7446"></path><path d="M341.333333 469.333333V170.666667a170.666667 170.666667 0 0 1 341.333334 0v298.666666a170.666667 170.666667 0 0 1-341.333334 0z m341.333334 512a42.666667 42.666667 0 0 0-42.666667-42.666666H384a42.666667 42.666667 0 0 0 0 85.333333h256a42.666667 42.666667 0 0 0 42.666667-42.666667z m213.333333-554.666666a42.666667 42.666667 0 0 0-85.333333 0 298.666667 298.666667 0 0 1-597.333334 0 42.666667 42.666667 0 0 0-85.333333 0 384 384 0 0 0 768 0z" fill="#771BBF" p-id="7447"></path></svg>