<svg xmlns="http://www.w3.org/2000/svg" viewBox="0 0 1365 1024" version="1.1"><path d="M682.666667 1024a56.888889 56.888889 0 0 1-56.888889-56.888889v-341.333333a56.888889 56.888889 0 0 1 113.777778 0v341.333333a56.888889 56.888889 0 0 1-56.888889 56.888889z" fill="#6DD143" p-id="7687"></path><path d="M682.666667 568.888889a56.888889 56.888889 0 0 0-56.888889 56.888889v199.111111h113.777778V625.777778a56.888889 56.888889 0 0 0-56.888889-56.888889z" fill="#5AA537" p-id="7688"></path><path d="M853.333333 1024H512a56.888889 56.888889 0 0 1 0-113.777778h341.333333a56.888889 56.888889 0 0 1 0 113.777778z m512-398.222222V170.666667a170.666667 170.666667 0 0 0-170.666666-170.666667H170.666667a170.666667 170.666667 0 0 0-170.666667 170.666667v455.111111a170.666667 170.666667 0 0 0 170.666667 170.666666h1024a170.666667 170.666667 0 0 0 170.666666-170.666666z" fill="#77EF37" p-id="7689"></path><path d="M113.777778 113.777778h1137.777778v568.888889H113.777778z" fill="#6DD143" p-id="7690"></path></svg>