<svg xmlns="http://www.w3.org/2000/svg" viewBox="0 0 1024 1024" version="1.1"><path d="M512 0a384 384 0 0 0-384 384v256a384 384 0 0 0 768 0V384a384 384 0 0 0-384-384z" fill="#0B70DD" p-id="7639"></path><path d="M490.666667 448a42.666667 42.666667 0 0 1-42.666667-42.666667v-213.333333a42.666667 42.666667 0 0 1 85.333333 0v213.333333a42.666667 42.666667 0 0 1-42.666666 42.666667z" fill="#0B61AF" p-id="7640"></path><path d="M512 426.666667a42.666667 42.666667 0 0 1-42.666667-42.666667V170.666667a42.666667 42.666667 0 0 1 85.333334 0v213.333333a42.666667 42.666667 0 0 1-42.666667 42.666667z" fill="#3395FF" p-id="7641"></path></svg>