<svg xmlns="http://www.w3.org/2000/svg" viewBox="0 0 1389 1024" version="1.1"><path d="M694.213363 127.850961A850.41137 850.41137 0 0 0 0 517.767467a850.41137 850.41137 0 0 0 694.213363 389.916505 850.41137 850.41137 0 0 0 694.213364-389.916505 850.41137 850.41137 0 0 0-694.213364-389.916506z" fill="#DAD6CA" p-id="7736"></path><path d="M665.287806 358.098393a173.553341 173.553341 0 0 0-74.627936 17.355334A57.851114 57.851114 0 0 1 509.0898 457.023797a173.553341 173.553341 0 1 0 156.198006-98.925404z" fill="#C1BCB2" p-id="7737"></path><path d="M694.213363 329.172836a173.553341 173.553341 0 0 0-74.627936 17.355334A57.851114 57.851114 0 0 1 538.015357 428.098241 173.553341 173.553341 0 1 0 694.213363 329.172836z" fill="#4B5160" p-id="7738"></path><path d="M1197.518052 16.776823a57.851114 57.851114 0 0 0-81.570071 0L223.305299 925.617818a57.851114 57.851114 0 0 0 82.727092 80.991559L1198.096563 98.346893A57.851114 57.851114 0 0 0 1197.518052 16.776823z" fill="#F24D20" p-id="7739"></path></svg>