<svg xmlns="http://www.w3.org/2000/svg" viewBox="0 0 1024 1024" version="1.1"><path d="M128 896V128a128 128 0 0 1 128-128h512a128 128 0 0 1 128 128v69.973333a21.333333 21.333333 0 0 1-14.506667 20.053334l-98.986666 32.853333a21.333333 21.333333 0 0 0-14.506667 20.053333v467.626667a21.333333 21.333333 0 0 0 28.16 20.053333l71.68-23.893333a21.333333 21.333333 0 0 1 28.16 20.053333V896a128 128 0 0 1-128 128H256a128 128 0 0 1-128-128z" fill="#F24922" p-id="7976"></path><path d="M896 242.773333v83.2a21.333333 21.333333 0 0 1-14.506667 20.053334L768 384V271.36a21.333333 21.333333 0 0 1 14.506667-20.053333l85.333333-28.586667a21.333333 21.333333 0 0 1 28.16 20.053333z" fill="#C6361E" p-id="7977"></path><path d="M896 370.773333v83.2a21.333333 21.333333 0 0 1-14.506667 20.053334L768 512V384l99.84-33.28a21.333333 21.333333 0 0 1 28.16 20.053333z" fill="#932415" p-id="7978"></path><path d="M896 498.773333v83.2a21.333333 21.333333 0 0 1-14.506667 20.053334L768 640v-128l99.84-33.28a21.333333 21.333333 0 0 1 28.16 20.053333z" fill="#6B160D" p-id="7979"></path><path d="M896 626.773333v83.2a21.333333 21.333333 0 0 1-14.506667 20.053334l-85.333333 28.586666a21.333333 21.333333 0 0 1-28.16-20.053333V640l99.84-33.28a21.333333 21.333333 0 0 1 28.16 20.053333z" fill="#470C07" p-id="7980"></path><path d="M789.333333 292.693333a21.333333 21.333333 0 0 1 14.506667-20.053333L896 241.92a21.333333 21.333333 0 0 0-27.733333-19.2l-85.333334 28.586667a21.333333 21.333333 0 0 0-14.506666 20.053333V384l21.333333-7.253333z" fill="#BA301E" p-id="7981"></path><path d="M789.333333 376.746667L768 384v128l21.333333-7.253333v-128z" fill="#841F14" p-id="7982"></path><path d="M789.333333 504.746667L768 512v128l21.333333-7.253333v-128z" fill="#5B120C" p-id="7983"></path><path d="M789.333333 632.746667L768 640v98.56a20.906667 20.906667 0 0 0 21.333333 20.906667z" fill="#380906" p-id="7984"></path></svg>