<svg xmlns="http://www.w3.org/2000/svg" viewBox="0 0 1024 1024" version="1.1"><path d="M494.471786 895.744772a42.751743 42.751743 0 0 1-42.751743-42.751743V124.075818A123.980054 123.980054 0 0 1 653.508268 27.456879l167.586831 134.240472a188.962702 188.962702 0 0 1 15.390628 281.306467l-55.149748 55.149748a42.751743 42.751743 0 0 1-60.279958-60.279958l55.149748-55.149748a103.459217 103.459217 0 0 0-8.550348-154.33379L600.06859 94.149598a38.476568 38.476568 0 0 0-62.417544 29.92622v726.779624a42.751743 42.751743 0 0 1-43.17926 44.88933z" fill="#4E1387" p-id="7881"></path><path d="M414.953544 1000.486542a221.454027 221.454027 0 0 1-92.771281 23.513458c-94.908869 0-213.758713-53.867196-185.970081-197.940568 42.751743-203.498295 401.011346-144.073373 401.011346 42.751742 0 69.68534-89.351142 114.57467-122.269984 131.675368z" fill="#771BBF" p-id="7882"></path></svg>