<svg xmlns="http://www.w3.org/2000/svg" viewBox="0 0 1323 1024" version="1.1"><path d="M1322.439559 307.683348v13.224308a140.508266 140.508266 0 0 1-47.938114 105.243446 127.834972 127.834972 0 0 1-83.202934 31.40773h-16.530384l-165.303843-26.448614A165.303843 165.303843 0 0 1 881.629312 327.51981l-27.55064-69.978627a55.101281 55.101281 0 0 0-44.081025-36.917858h-47.387101a1142.800566 1142.800566 0 0 0-201.670688 0h-46.285076a55.101281 55.101281 0 0 0-46.836089 34.713807L440.819065 330.825886a165.303843 165.303843 0 0 1-131.692061 101.93737l-161.446753 23.693551a127.834972 127.834972 0 0 1-101.386357-31.40773A140.508266 140.508266 0 0 1 0.008818 319.254617v-20.387474c0-89.815088 77.141793-169.711945 214.343983-224.813226a1215.534256 1215.534256 0 0 1 440.810247-73.835716h10.469243a1225.452487 1225.452487 0 0 1 447.422401 79.896857c136.100164 56.754319 209.384867 137.753202 209.384867 227.56829z m-45.734063 515.196977l-36.917858-165.303843a165.303843 165.303843 0 0 0-161.446753-129.48801H243.005467a165.303843 165.303843 0 0 0-161.446753 129.48801l-36.917858 165.303843a165.303843 165.303843 0 0 0 161.446753 201.119675h910.27316a165.303843 165.303843 0 0 0 161.446753-201.119675z" fill="#83B71D" p-id="7928"></path><path d="M525.124025 720.942955a55.101281 55.101281 0 1 1-55.101281-55.101281 55.101281 55.101281 0 0 1 55.101281 55.101281z m110.202562-55.101281a55.101281 55.101281 0 1 0 55.101281 55.101281 55.101281 55.101281 0 0 0-55.101281-55.101281z m165.303842 0a55.101281 55.101281 0 1 0 55.101281 55.101281 55.101281 55.101281 0 0 0-55.101281-55.101281z" fill="#6C8E19" p-id="7929"></path><path d="M551.021627 693.392315a55.101281 55.101281 0 1 1-55.101281-55.101281 55.101281 55.101281 0 0 1 55.101281 55.101281z m110.202562-55.101281a55.101281 55.101281 0 1 0 55.101281 55.101281 55.101281 55.101281 0 0 0-55.101281-55.101281z m165.303842 0a55.101281 55.101281 0 1 0 55.101281 55.101281 55.101281 55.101281 0 0 0-55.101281-55.101281z" fill="#FFFF00" p-id="7930"></path></svg>