<svg xmlns="http://www.w3.org/2000/svg" viewBox="0 0 1308 1024" version="1.1"><path d="M1137.717296 161.684125h-500.142895a107.789417 107.789417 0 0 1-75.991539-31.797878L462.955546 31.797878A107.789417 107.789417 0 0 0 386.42506 0H107.789417a107.789417 107.789417 0 0 0-107.789417 107.789417v808.420627a107.789417 107.789417 0 0 0 107.789417 107.789417h787.401691a107.789417 107.789417 0 0 0 100.783105-70.063121L1239.578295 307.199838A107.789417 107.789417 0 0 0 1137.717296 161.684125z" fill="#D68650" p-id="7785"></path><path d="M996.51316 953.93634l228.513564-609.010206a107.789417 107.789417 0 0 0-63.595756-21.557883H337.919822a107.789417 107.789417 0 0 0-100.244158 67.368385L9.1621 959.325811A107.789417 107.789417 0 0 0 107.789417 1023.999461h787.401691a107.789417 107.789417 0 0 0 101.322052-70.063121z" fill="#B77446" p-id="7786"></path><path d="M44.732608 912.976362l231.747246-576.134434A107.789417 107.789417 0 0 1 377.262959 269.473542h822.972199a107.789417 107.789417 0 0 1 97.010475 155.216761l-263.006177 538.947085a107.789417 107.789417 0 0 1-97.010476 60.362073H119.646253a80.842063 80.842063 0 0 1-74.913645-111.023099z" fill="#FFAD08" p-id="7787"></path></svg>