<svg xmlns="http://www.w3.org/2000/svg" viewBox="0 0 1024 1024" version="1.1"><path d="M126.219353 875.740324l59.213759-534.259476a133.564869 133.564869 0 0 1 133.564869-118.872733H705.000452a133.564869 133.564869 0 0 1 133.564869 118.872733l59.213758 534.259476a133.564869 133.564869 0 0 1-133.564869 148.257005H259.784222a133.564869 133.564869 0 0 1-133.564869-148.257005z" fill="#BC3744" p-id="8126"></path><path d="M578.113826 333.912172V222.608115h89.043246v111.304057a44.521623 44.521623 0 0 1-89.043246 0z m-222.608115 44.521623a44.521623 44.521623 0 0 0 44.521623-44.521623V222.608115h-89.043246v111.304057a44.521623 44.521623 0 0 0 44.521623 44.521623z" fill="#A02A3B" p-id="8127"></path><path d="M644.896261 356.172984a44.521623 44.521623 0 0 1-44.521623-44.521623V178.086492a89.043246 89.043246 0 0 0-178.086492 0v133.564869a44.521623 44.521623 0 0 1-89.043246 0V178.086492a178.086492 178.086492 0 0 1 356.172984 0v133.564869a44.521623 44.521623 0 0 1-44.521623 44.521623z" fill="#ED4C57" p-id="8128"></path></svg>