<svg xmlns="http://www.w3.org/2000/svg" viewBox="0 0 1024 1024" version="1.1"><path d="M128 896V128a128 128 0 0 1 128-128h42.666667a128 128 0 0 1 128 128v768a128 128 0 0 1-128 128H256a128 128 0 0 1-128-128z m597.333333 128h42.666667a128 128 0 0 0 128-128V128a128 128 0 0 0-128-128h-42.666667a128 128 0 0 0-128 128v768a128 128 0 0 0 128 128z" fill="#3395FF" p-id="8222"></path><path d="M896 512v384a128 128 0 0 1-128 128h-42.666667a128 128 0 0 1-128-128v-384zM128 512v384a128 128 0 0 0 128 128h42.666667a128 128 0 0 0 128-128v-384z" fill="#0B70DD" p-id="8223"></path></svg>