<svg xmlns="http://www.w3.org/2000/svg" viewBox="0 0 1024 1024" version="1.1"><path d="M86.413545 985.957199a48.155444 48.155444 0 0 1-34.190365-82.34581l204.179084-204.179083a48.155444 48.155444 0 0 1 67.899176 67.899176L120.603911 971.99212a48.155444 48.155444 0 0 1-34.190366 13.965079z m783.489079-490.703977L529.925187 154.794231 154.794276 529.925142l340.458991 340.458991z" fill="#9B1967" p-id="8078"></path><path d="M529.925187 154.794231l340.458991 340.458991-91.976899 91.976898-341.422099-340.458991zM256.883818 699.432306l-92.458453 92.458453 67.899176 67.899176 91.976899-91.976899a48.155444 48.155444 0 0 0-67.899176-67.899176z" fill="#7F165A" p-id="8079"></path><path d="M818.857853 578.080586L444.208496 205.839002a120.388611 120.388611 0 0 1 0-170.470273 120.388611 120.388611 0 0 1 170.470273 0l374.649356 374.649357a120.388611 120.388611 0 0 1 0 170.470272A120.388611 120.388611 0 0 1 818.857853 578.080586z m-240.777222 410.76594A120.388611 120.388611 0 0 0 578.080631 818.857807L205.839047 444.208451a120.388611 120.388611 0 0 0-170.470273 0 120.388611 120.388611 0 0 0 0 170.470273l374.649357 374.649356a120.388611 120.388611 0 0 0 168.0625-0.481554z" fill="#D1026C" p-id="8080"></path></svg>