<svg xmlns="http://www.w3.org/2000/svg" viewBox="0 0 1511 1024" version="1.1"><path d="M0 960.906962V63.093038A63.093038 63.093038 0 0 1 97.163278 10.094886l706.01109 452.377079a63.093038 63.093038 0 0 1 0 106.627234l-706.64202 444.805915A63.093038 63.093038 0 0 1 0 960.906962z" fill="#6DD143" p-id="8030"></path><path d="M803.174368 462.471965L630.930376 352.05915v324.929143L802.543438 567.837338a63.093038 63.093038 0 0 0 0.63093-105.365373z" fill="#61B23B" p-id="8031"></path><path d="M679.512015 960.906962V63.093038a63.093038 63.093038 0 0 1 97.163278-52.998152l705.38016 452.377079a63.093038 63.093038 0 0 1 0 106.627234L776.044362 1013.905114a63.093038 63.093038 0 0 1-96.532347-52.998152z" fill="#C3FF08" p-id="8032"></path></svg>