<svg xmlns="http://www.w3.org/2000/svg" viewBox="0 0 1514 1024" version="1.1"><path d="M832.527142 63.093038v897.813924a63.093038 63.093038 0 0 1-97.163278 52.998152L29.352774 561.528035a63.093038 63.093038 0 0 1 0-106.627234L735.363864 10.094886a63.093038 63.093038 0 0 1 97.163278 52.998152z" fill="#6DD143" p-id="8174"></path><path d="M832.527142 401.902649l-152.05422 95.901418a63.093038 63.093038 0 0 0 0 106.627233l152.685151 97.794208z" fill="#61B23B" p-id="8175"></path><path d="M1514.562879 63.093038v897.813924a63.093038 63.093038 0 0 1-97.163278 52.998152L711.38851 561.528035a63.093038 63.093038 0 0 1 0-106.627234L1418.030531 10.094886A63.093038 63.093038 0 0 1 1514.562879 63.093038z" fill="#C3FF08" p-id="8176"></path></svg>