<svg xmlns="http://www.w3.org/2000/svg" viewBox="0 0 1024 1024" version="1.1"><path d="M512 0a512 512 0 1 0 512 512A512 512 0 0 0 512 0z" fill="#DDDCE2" p-id="8366"></path><path d="M618.666667 480h-85.333334v-85.333333a42.666667 42.666667 0 0 0-85.333333 0v85.333333h-85.333333a42.666667 42.666667 0 0 0 0 85.333333h85.333333v85.333334a42.666667 42.666667 0 0 0 85.333333 0v-85.333334h85.333334a42.666667 42.666667 0 0 0 0-85.333333z" fill="#B5B4BF" p-id="8367"></path><path d="M640 458.666667h-85.333333v-85.333334a42.666667 42.666667 0 0 0-85.333334 0v85.333334H384a42.666667 42.666667 0 0 0 0 85.333333h85.333333v85.333333a42.666667 42.666667 0 0 0 85.333334 0v-85.333333h85.333333a42.666667 42.666667 0 0 0 0-85.333333z" fill="#5E44BC" p-id="8368"></path></svg>