<svg xmlns="http://www.w3.org/2000/svg" viewBox="0 0 1024 1024" version="1.1"><path d="M858.453333 218.453333L677.546667 37.546667A128 128 0 0 0 587.093333 0H256a128 128 0 0 0-128 128v768a128 128 0 0 0 128 128h512a128 128 0 0 0 128-128V308.906667a128 128 0 0 0-37.546667-90.453334z" fill="#A31176" p-id="8463"></path><path d="M891.306667 277.333333H618.666667V4.693333a128 128 0 0 1 58.88 32.853334l180.906666 180.906666a128 128 0 0 1 32.853334 58.88z m-332.8 243.626667a42.666667 42.666667 0 0 1 10.666666-35.84 85.333333 85.333333 0 1 0-124.16 0 42.666667 42.666667 0 0 1 10.666667 35.413333L426.666667 700.586667a21.333333 21.333333 0 0 0 20.906666 24.746666h120.32a21.333333 21.333333 0 0 0 20.906667-24.746666z" fill="#8C106C" p-id="8464"></path><path d="M548.266667 506.453333A85.333333 85.333333 0 0 0 469.333333 364.8a82.773333 82.773333 0 0 0-30.293333 14.08 80.213333 80.213333 0 0 0-12.373333 24.32 85.333333 85.333333 0 0 0 20.053333 81.92 42.666667 42.666667 0 0 1 10.666667 35.413333L426.666667 700.586667a21.333333 21.333333 0 0 0 20.906666 24.746666h119.893334a20.053333 20.053333 0 0 0 0-3.413333l-29.866667-179.626667a42.666667 42.666667 0 0 1 10.666667-35.84z" fill="#5B0E4B" p-id="8465"></path><path d="M858.453333 218.453333L677.546667 37.546667a128 128 0 0 0-37.546667-25.6V256h244.053333a128 128 0 0 0-25.6-37.546667z" fill="#BC1992" p-id="8466"></path></svg>