<svg xmlns="http://www.w3.org/2000/svg" viewBox="0 0 1293 1024" version="1.1"><path d="M1067.843625 152.549089h-466.291716a101.699393 101.699393 0 0 1-71.698072-30.001321L436.798892 30.001321A101.699393 101.699393 0 0 0 364.592323 0H101.699393a101.699393 101.699393 0 0 0-101.699393 101.699393v711.89575a152.549089 152.549089 0 0 0 152.549089 152.549089h915.294536a152.549089 152.549089 0 0 0 152.54909-152.549089V305.098179a152.549089 152.549089 0 0 0-152.54909-152.54909z" fill="#841066" p-id="8414"></path><path d="M0 152.549089m152.549089 0l915.294536 0q152.549089 0 152.54909 152.54909l0 508.496964q0 152.549089-152.54909 152.549089l-915.294536 0q-152.549089 0-152.549089-152.549089l0-508.496964q0-152.549089 152.549089-152.54909Z" fill="#A31176" p-id="8415"></path><path d="M706.810781 758.677471a25.424848 25.424848 0 0 1-24.916352 29.492824h-143.396144a25.424848 25.424848 0 0 1-24.916351-29.492824l35.594788-214.077222a50.849696 50.849696 0 0 0-12.712425-42.205248A101.699393 101.699393 0 0 1 512.056443 406.797572a101.699393 101.699393 0 1 1 171.871974 97.631417 50.849696 50.849696 0 0 0-12.712424 42.713745z" fill="#7C0F60" p-id="8416"></path><path d="M661.046054 527.311352A101.699393 101.699393 0 0 0 562.397643 355.947875a98.648411 98.648411 0 0 0-36.103285 16.7804 95.597429 95.597429 0 0 0-14.237915 28.984327 101.699393 101.699393 0 0 0 23.899357 97.631417 50.849696 50.849696 0 0 1 12.712425 42.205248l-35.594788 214.077222a25.424848 25.424848 0 0 0 24.916351 29.492824h143.396144a23.899357 23.899357 0 0 0 0-4.067976l-35.594787-214.077222a50.849696 50.849696 0 0 1 15.254909-39.662763z" fill="#5B0E4B" p-id="8417"></path></svg>