<svg xmlns="http://www.w3.org/2000/svg" viewBox="0 0 1365 1024" version="1.1"><path d="M0 0m163.84 0l873.813333 0q163.84 0 163.84 163.84l0 655.36q0 163.84-163.84 163.84l-873.813333 0q-163.84 0-163.84-163.84l0-655.36q0-163.84 163.84-163.84Z" fill="#F24922" p-id="9087"></path><path d="M1201.493333 678.843733V358.8096a109.226667 109.226667 0 0 0-27.306666-3.822933h-273.066667a109.226667 109.226667 0 0 0-109.226667 109.226666v109.226667a109.226667 109.226667 0 0 0 109.226667 109.226667h273.066667a109.226667 109.226667 0 0 0 27.306666-3.822934z" fill="#C4321A" p-id="9088"></path><path d="M1201.493333 327.68h-273.066666a109.226667 109.226667 0 0 0-109.226667 109.226667v109.226666a109.226667 109.226667 0 0 0 109.226667 109.226667h273.066666a109.226667 109.226667 0 0 0 109.226667-109.226667V436.906667a109.226667 109.226667 0 0 0-109.226667-109.226667z" fill="#EA7B28" p-id="9089"></path><path d="M1174.186667 518.826667m-54.613334 0a54.613333 54.613333 0 1 0 109.226667 0 54.613333 54.613333 0 1 0-109.226667 0Z" fill="#CC6A29" p-id="9090"></path><path d="M1201.493333 491.52m-54.613333 0a54.613333 54.613333 0 1 0 109.226667 0 54.613333 54.613333 0 1 0-109.226667 0Z" fill="#592D26" p-id="9091"></path></svg>