<svg xmlns="http://www.w3.org/2000/svg" viewBox="0 0 1024 1024" version="1.1"><path d="M411.977785 900.004054a44.126671 44.126671 0 0 1-44.126671-44.126671V217.364452A132.380013 132.380013 0 0 1 465.371058 88.955839l308.886697-84.281942A132.380013 132.380013 0 0 1 941.497839 133.08251v590.41486a44.126671 44.126671 0 0 1-88.253342 0V133.08251a44.126671 44.126671 0 0 0-55.599606-44.126671l-308.886698 84.281942a44.126671 44.126671 0 0 0-32.653736 44.126671v638.512931a44.126671 44.126671 0 0 1-44.126672 44.126671z" fill="#E07E61" p-id="8655"></path><path d="M343.140179 1002.377931a204.306487 204.306487 0 0 1-84.723209 21.622069c-88.253342 0-198.57002-49.421872-171.652751-182.684418 37.948937-187.979619 370.222771-132.380013 370.222771 38.390203-0.882533 65.307473-83.399408 108.551611-113.846811 122.672146z m598.35766-255.052159c0-171.211484-332.273834-226.369823-370.222771-38.390204-26.917269 132.380013 84.281942 182.684418 171.652751 182.684419a204.306487 204.306487 0 0 0 85.605742-21.622069c30.447403-14.120535 112.964278-57.364672 112.964278-122.672146z" fill="#FEA887" p-id="8656"></path></svg>