<svg xmlns="http://www.w3.org/2000/svg" viewBox="0 0 1061 1024" version="1.1"><path d="M153.593626 307.208243h51.197875v409.583002H153.593626a153.593626 153.593626 0 0 1-153.593626-153.593626V460.801869a153.593626 153.593626 0 0 1 153.593626-153.593626z m793.567067 402.4153a228.342524 228.342524 0 0 0 0-395.759576 51.197875 51.197875 0 1 0-51.197875 88.572324 125.946773 125.946773 0 0 1 0 218.614927A51.197875 51.197875 0 0 0 921.561755 716.791245a51.197875 51.197875 0 0 0 25.598938-7.167702z" fill="#FFCE00" p-id="8560"></path><path d="M179.192564 307.208243H204.791501v409.583002h-25.598937z" fill="#DDB300" p-id="8561"></path><path d="M204.791501 307.208243L520.170413 36.883461a153.593626 153.593626 0 0 1 102.395751-36.86247A96.763984 96.763984 0 0 1 716.770254 96.784975v830.429538A96.763984 96.763984 0 0 1 620.00627 1023.978497a153.593626 153.593626 0 0 1-102.395751-36.86247L204.791501 716.791245z" fill="#FFEC00" p-id="8562"></path></svg>