<svg xmlns="http://www.w3.org/2000/svg" viewBox="0 0 1293 1024" version="1.1"><path d="M1067.843625 152.549089h-466.291716a101.699393 101.699393 0 0 1-71.698072-30.001321L436.798892 30.001321A101.699393 101.699393 0 0 0 364.592323 0H101.699393a101.699393 101.699393 0 0 0-101.699393 101.699393v711.89575a152.549089 152.549089 0 0 0 152.549089 152.549089h915.294536a152.549089 152.549089 0 0 0 152.54909-152.549089V305.098179a152.549089 152.549089 0 0 0-152.54909-152.54909z" fill="#4E1387" p-id="9038"></path><path d="M0 152.549089m152.549089 0l915.294536 0q152.549089 0 152.54909 152.54909l0 508.496964q0 152.549089-152.54909 152.549089l-915.294536 0q-152.549089 0-152.549089-152.549089l0-508.496964q0-152.549089 152.549089-152.54909Z" fill="#672DBA" p-id="9039"></path><path d="M776.983362 464.257729l-203.398786 254.248482a50.849696 50.849696 0 0 1-37.120279 18.814387h-2.542484a50.849696 50.849696 0 0 1-36.103285-14.746412l-101.699393-101.699392A50.849696 50.849696 0 0 1 467.817207 549.176722l62.03663 61.019635 167.803998-210.009246a50.849696 50.849696 0 1 1 79.325527 63.562121z" fill="#56289E" p-id="9040"></path><path d="M802.40821 438.83288l-203.398786 254.248482a50.849696 50.849696 0 0 1-37.120278 18.814388H559.346661a50.849696 50.849696 0 0 1-36.103285-14.746412l-101.699393-101.699393A50.849696 50.849696 0 0 1 493.242055 523.751873l61.528133 61.528133 167.803998-210.009246a50.849696 50.849696 0 1 1 79.325527 63.56212z" fill="#AA34E0" p-id="9041"></path></svg>