<svg xmlns="http://www.w3.org/2000/svg" viewBox="0 0 1024 1024" version="1.1"><path d="M858.453333 218.453333L677.546667 37.546667A128 128 0 0 0 587.093333 0H256a128 128 0 0 0-128 128v768a128 128 0 0 0 128 128h512a128 128 0 0 0 128-128V308.906667a128 128 0 0 0-37.546667-90.453334z" fill="#4E1387" p-id="8848"></path><path d="M891.306667 277.333333H618.666667V4.693333a128 128 0 0 1 58.88 32.853334l180.906666 180.906666a128 128 0 0 1 32.853334 58.88zM640 414.72a42.666667 42.666667 0 0 0-60.16 6.826667L439.893333 597.333333 388.266667 545.706667a42.666667 42.666667 0 0 0-60.16 60.16l85.333333 85.333333a42.666667 42.666667 0 0 0 30.293333 12.373333h2.56a42.666667 42.666667 0 0 0 31.146667-15.786666l170.666667-213.333334a42.666667 42.666667 0 0 0-8.106667-59.733333z" fill="#391068" p-id="8849"></path><path d="M884.053333 256H640V11.946667a128 128 0 0 1 37.546667 25.6l180.906666 180.906666a128 128 0 0 1 25.6 37.546667z m-221.866666 137.386667a42.666667 42.666667 0 0 0-60.16 6.826666l-140.8 175.786667-51.626667-51.626667a42.666667 42.666667 0 0 0-60.16 60.16l85.333333 85.333334a42.666667 42.666667 0 0 0 30.293334 12.8H469.333333a42.666667 42.666667 0 0 0 31.146667-15.786667l170.666667-213.333333a42.666667 42.666667 0 0 0-8.96-60.16z" fill="#8C33E2" p-id="8850"></path></svg>