<svg xmlns="http://www.w3.org/2000/svg" viewBox="0 0 1320 1024" version="1.1"><path d="M982.720223 798.588549a61.420014 61.420014 0 0 1-61.420014-61.420014V532.025688A409.057293 409.057293 0 0 0 161.534637 321.355041l-47.293411 78.617617a61.420014 61.420014 0 0 1-105.028224-61.420013l46.679211-79.846019A531.897321 531.897321 0 0 1 1044.140237 532.025688V737.168535a61.420014 61.420014 0 0 1-61.420014 61.420014z" fill="#F24922" p-id="8991"></path><path d="M675.620153 552.908493h614.200139a30.710007 30.710007 0 0 1 24.568006 49.136011l-307.10007 409.671493a30.710007 30.710007 0 0 1-49.136011 0l-307.100069-409.671493A30.710007 30.710007 0 0 1 675.620153 552.908493z" fill="#FFA42C" p-id="8992"></path></svg>