<svg xmlns="http://www.w3.org/2000/svg" viewBox="0 0 1176 1024" version="1.1"><path d="M973.150158 1023.495133a50.38589 50.38589 0 0 1-35.773982-14.611908l-142.592069-142.592068a50.38589 50.38589 0 0 1 71.044105-71.044105l142.592069 142.592068a50.38589 50.38589 0 0 1-35.773982 86.159872z" fill="#5DAD38" p-id="9185"></path><path d="M510.225471 510.05427m-356.282045 356.282044a503.8589 503.8589 0 1 0 712.56409-712.564089 503.8589 503.8589 0 1 0-712.56409 712.564089Z" fill="#6DD143" p-id="9186"></path><path d="M804.861285 477.312086l-50.38589 50.38589-70.036387-138.057339a50.38589 50.38589 0 0 0-90.190743 0l-100.77178 199.024266L384.139104 293.907446a50.38589 50.38589 0 0 0-92.206179-5.038589l-100.77178 201.54356a50.38589 50.38589 0 0 0 90.190743 44.843442l50.38589-98.252485 110.3451 294.757456a50.38589 50.38589 0 0 0 44.339583 32.750829h2.519294a50.38589 50.38589 0 0 0 44.843442-27.71224l106.314228-212.124596 55.928338 111.352816a50.38589 50.38589 0 0 0 80.617424 13.100332l86.159872-85.656013h151.15767a506.378194 506.378194 0 0 0 0-100.77178h-173.327462a50.38589 50.38589 0 0 0-35.773982 14.611908z" fill="#5DAD38" p-id="9187"></path><path d="M513.126982 739.822573H510.103829a50.38589 50.38589 0 0 1-44.339583-32.750829L355.419147 412.314288 308.560269 510.062914a50.38589 50.38589 0 0 1-90.190743-44.843442l100.77178-201.54356a50.38589 50.38589 0 0 1 90.190743 5.038589l110.345099 294.757457 100.77178-199.024266a50.38589 50.38589 0 0 1 90.190743 0l69.532528 139.065057 50.38589-50.38589a50.38589 50.38589 0 0 1 35.773982-14.611908h251.92945a50.38589 50.38589 0 1 1 0 100.77178h-231.775094l-86.159872 86.159872a50.38589 50.38589 0 0 1-80.617424-13.100332l-55.424479-112.360535L560.489719 711.606474a50.38589 50.38589 0 0 1-47.362737 28.216099z" fill="#C3FF08" p-id="9188"></path></svg>