<svg xmlns="http://www.w3.org/2000/svg" viewBox="0 0 1024 1024" version="1.1"><path d="M951.155865 642.40785l-33.876843-34.723765a84.692108 84.692108 0 0 1-25.407633-65.636384 384.502171 384.502171 0 0 0 0-70.294449 82.151345 82.151345 0 0 1 24.560712-64.789463l34.300303-35.147225a84.692108 84.692108 0 0 0 12.703817-101.63053l-20.749567-35.570685a84.692108 84.692108 0 0 0-93.584779-39.805291l-51.238726 12.703816a84.692108 84.692108 0 0 1-69.024068-13.127277q-13.127277-9.316132-27.524935-17.361882c-8.892671-5.081526-18.208803-9.739592-27.524935-13.974198a84.692108 84.692108 0 0 1-47.427581-55.04987l-12.703816-45.733739A84.692108 84.692108 0 0 0 530.236087 0.018209h-42.346054a84.692108 84.692108 0 0 0-78.763661 61.401778l-15.66804 52.509107a84.692108 84.692108 0 0 1-42.346054 51.662186 384.925632 384.925632 0 0 0-59.707936 35.147225 84.692108 84.692108 0 0 1-68.177147 13.127277L174.529233 202.432347a84.692108 84.692108 0 0 0-93.58478 42.346055l-21.173027 37.687988A84.692108 84.692108 0 0 0 71.628321 381.132696l33.876843 34.723764A84.692108 84.692108 0 0 1 132.183179 481.916305 384.078711 384.078711 0 0 0 132.183179 550.516912a82.151345 82.151345 0 0 1-24.560712 64.789463l-34.300304 35.147225a84.692108 84.692108 0 0 0-12.703816 101.63053l20.749567 35.994146a84.692108 84.692108 0 0 0 93.161319 41.075672l51.238725-12.703816a84.692108 84.692108 0 0 1 69.024068 13.127277q13.127277 9.316132 27.524935 17.361882t27.524936 13.974198a84.692108 84.692108 0 0 1 47.42758 55.04987l12.703816 45.733739a84.692108 84.692108 0 0 0 84.692109 62.248699h42.346054a84.692108 84.692108 0 0 0 79.610581-60.554857l15.66804-52.509107a84.692108 84.692108 0 0 1 42.346055-51.662186 384.925632 384.925632 0 0 0 59.707936-35.147225 84.692108 84.692108 0 0 1 68.177147-13.127277l49.121423 11.856895a84.692108 84.692108 0 0 0 93.584779-42.346054l21.173027-37.687988a84.692108 84.692108 0 0 0-15.244579-100.360148z" fill="#5E5C58" p-id="9137"></path><path d="M688.186869 677.555074l-92.314398-96.125542a169.384216 169.384216 0 0 0-25.407633-205.801823 173.195361 173.195361 0 0 0-239.678666 0 169.384216 169.384216 0 0 0 204.531442 265.509759l91.467476 95.278622A42.346054 42.346054 0 0 0 688.186869 677.555074z m-237.561364-98.242845a84.692108 84.692108 0 1 1 84.692109-84.692108 84.692108 84.692108 0 0 1-84.692109 84.692108z" fill="#3D3C39" p-id="9138"></path><path d="M709.359896 655.958587l-92.314398-96.125543a169.384216 169.384216 0 0 0-25.407632-205.801823 173.195361 173.195361 0 0 0-239.678667 0A169.384216 169.384216 0 0 0 555.64372 619.11752l91.467476 95.278622a42.346054 42.346054 0 0 0 60.978318-58.861016zM470.951611 558.139202a84.692108 84.692108 0 1 1 84.692109-84.692108 84.692108 84.692108 0 0 1-84.692109 84.692108z" fill="#B79E72" p-id="9139"></path></svg>