<svg xmlns="http://www.w3.org/2000/svg" viewBox="0 0 1024 1024" version="1.1"><path d="M253.606244 793.028275v209.455021a21.329432 21.329432 0 0 0 35.406857 16.210368L552.21829 793.028275z" fill="#BF7949" p-id="9330"></path><path d="M680.194881 383.929773a42.658864 42.658864 0 0 1-42.658864-42.658864V213.294318a127.976591 127.976591 0 0 0-255.953182 0v127.976591a42.658864 42.658864 0 0 1-85.317727 0V213.294318a213.294318 213.294318 0 0 1 426.588636 0v127.976591a42.658864 42.658864 0 0 1-42.658863 42.658864z" fill="#C94F36" p-id="9331"></path><path d="M253.606244 895.836137h178.31405L552.21829 793.028275H253.606244V895.836137z" fill="#AA6B3F" p-id="9332"></path><path d="M125.629653 255.953182m127.976591 0l511.906364 0q127.976591 0 127.976591 127.976591l0 341.270909q0 127.976591-127.976591 127.976591l-511.906364 0q-127.976591 0-127.976591-127.976591l0-341.270909q0-127.976591 127.976591-127.976591Z" fill="#D68650" p-id="9333"></path></svg>