<svg xmlns="http://www.w3.org/2000/svg" viewBox="0 0 1024 1024" version="1.1"><path d="M788.919803 276.925542l-167.846884-167.846883a118.872992 118.872992 0 0 0-84.14605-34.726942H230.17222A118.872992 118.872992 0 0 0 111.299228 192.779492v712.347516A118.872992 118.872992 0 0 0 230.17222 1024h474.601532A118.872992 118.872992 0 0 0 823.646744 905.127008V360.626375a118.872992 118.872992 0 0 0-34.726941-83.700833z" fill="#BA5A56" p-id="9523"></path><path d="M680.732024 168.737763L516.001661 333.913344a44.52172 44.52172 0 1 0 62.775624 62.775624l165.175581-165.17558z" fill="#964747" p-id="9524"></path><path d="M892.65541 0.000445h-213.704255a20.034774 20.034774 0 0 0-14.24695 34.281724l75.241706 75.241707L538.26252 311.652484A44.52172 44.52172 0 1 0 601.038145 374.428109l201.683391-201.683391 75.241706 75.241706a20.034774 20.034774 0 0 0 34.726942-14.24695V20.035219a20.034774 20.034774 0 0 0-20.034774-20.034774z" fill="#E47267" p-id="9525"></path></svg>