<svg xmlns="http://www.w3.org/2000/svg" viewBox="0 0 1293 1024" version="1.1"><path d="M1067.843625 152.549089h-466.291716a101.699393 101.699393 0 0 1-71.698072-30.001321L436.798892 30.001321A101.699393 101.699393 0 0 0 364.592323 0H101.699393a101.699393 101.699393 0 0 0-101.699393 101.699393v711.89575a152.549089 152.549089 0 0 0 152.549089 152.549089h915.294536a152.549089 152.549089 0 0 0 152.54909-152.549089V305.098179a152.549089 152.549089 0 0 0-152.54909-152.54909z" fill="#BA5A56" p-id="9281"></path><path d="M0 152.549089m152.549089 0l915.294536 0q152.549089 0 152.54909 152.54909l0 508.496964q0 152.549089-152.54909 152.549089l-915.294536 0q-152.549089 0-152.549089-152.549089l0-508.496964q0-152.549089 152.549089-152.54909Z" fill="#CE6363" p-id="9282"></path><path d="M1060.724668 538.498285a25.424848 25.424848 0 0 1-43.222242 17.797394L971.229202 508.496964a25.424848 25.424848 0 0 0-36.103284 0l-161.702035 161.702035a50.849696 50.849696 0 0 1-71.698072-71.698072L864.44484 437.815886a25.424848 25.424848 0 0 0 0-36.103284l-47.798715-45.764727a25.424848 25.424848 0 0 1 17.797394-43.222242h200.856301a25.424848 25.424848 0 0 1 25.424848 25.424848z" fill="#AF5454" p-id="9283"></path><path d="M1086.149516 513.073437a25.424848 25.424848 0 0 1-43.222242 17.797394l-46.273224-46.273224a25.424848 25.424848 0 0 0-36.103284 0l-161.702035 161.702035a50.849696 50.849696 0 0 1-71.698072-71.698072l161.702035-161.702035a25.424848 25.424848 0 0 0 0-36.103284l-46.273224-46.273224a25.424848 25.424848 0 0 1 17.797394-43.222242h200.856301a25.424848 25.424848 0 0 1 25.424848 25.424848z" fill="#E2A269" p-id="9284"></path></svg>