<svg xmlns="http://www.w3.org/2000/svg" viewBox="0 0 1024 1024" version="1.1"><path d="M698.881457 173.058273L555.255298 29.432115A100.797876 100.797876 0 0 0 484.740046 0.014709h-259.565346A100.797876 100.797876 0 0 0 122.646388 100.812585v605.652475a100.797876 100.797876 0 0 0 100.797876 100.797876h403.624114A100.797876 100.797876 0 0 0 728.298863 706.46506V243.573525A100.797876 100.797876 0 0 0 698.881457 173.058273z" fill="#5E5C58" p-id="9910"></path><path d="M871.925021 389.362728L728.298863 245.73657A100.797876 100.797876 0 0 0 657.78361 216.319164h-259.565346A100.797876 100.797876 0 0 0 295.689952 317.11704v605.652475a100.797876 100.797876 0 0 0 100.797876 100.797876h403.624114A100.797876 100.797876 0 0 0 901.342427 922.769515v-462.891534A100.797876 100.797876 0 0 0 871.925021 389.362728z" fill="#B79E72" p-id="9911"></path></svg>