<svg xmlns="http://www.w3.org/2000/svg" viewBox="0 0 1239 1024" version="1.1"><path d="M1024 916.210526a53.894737 53.894737 0 0 1-15.090526 0l-754.526316-215.578947a53.894737 53.894737 0 0 1 29.642105-107.789474l754.526316 215.578948a53.894737 53.894737 0 0 1-14.551579 107.789473zM354.088421 583.141053l538.947368-377.263158a53.894737 53.894737 0 1 0-61.978947-88.387369l-538.947368 377.263158a53.894737 53.894737 0 1 0 61.978947 88.387369z" fill="#3FBCAA" p-id="9619"></path><path d="M906.509474 130.964211a53.894737 53.894737 0 0 1-13.473685 74.913684l-156.833684 107.789473a161.684211 161.684211 0 0 1-58.206316-90.543157l153.061053-107.789474a53.894737 53.894737 0 0 1 75.452632 15.629474zM1038.551579 808.421053l-102.938947-29.642106a161.684211 161.684211 0 0 0-66.829474 93.237895l140.665263 40.421053A53.894737 53.894737 0 0 0 1024 916.210526a53.894737 53.894737 0 0 0 14.551579-107.789473z" fill="#369988" p-id="9620"></path><path d="M1024 161.684211a161.684211 161.684211 0 1 1-161.684211-161.684211 161.684211 161.684211 0 0 1 161.684211 161.684211zM215.578947 377.263158a215.578947 215.578947 0 1 0 215.578948 215.578947 215.578947 215.578947 0 0 0-215.578948-215.578947z m862.31579 323.368421a161.684211 161.684211 0 1 0 161.68421 161.68421 161.684211 161.684211 0 0 0-161.68421-161.68421z" fill="#43EDCC" p-id="9621"></path></svg>