<svg xmlns="http://www.w3.org/2000/svg" viewBox="0 0 1024 1024" version="1.1"><path d="M485.296181 1014.11937l-53.67085-43.282944A801.600116 801.600116 0 0 1 122.152284 339.771108V225.504136a86.565887 86.565887 0 0 1 51.506703-79.207786L493.95277 3.895465a43.282944 43.282944 0 0 1 35.059185 0l320.726612 142.400885A86.565887 86.565887 0 0 1 901.24527 225.504136v114.266972a801.600116 801.600116 0 0 1-309.473047 632.796636l-53.67085 43.282943a43.282944 43.282944 0 0 1-52.805192-1.731317z" fill="#3FBCAA" p-id="9766"></path><path d="M849.738567 146.29635L529.444784 3.895465A43.282944 43.282944 0 0 0 511.698777 0v1023.208788a43.282944 43.282944 0 0 0 26.402596-9.089418l53.67085-43.282944A801.600116 801.600116 0 0 0 901.24527 339.771108V225.504136a86.565887 86.565887 0 0 0-51.506703-79.207786z" fill="#43EDCC" p-id="9767"></path></svg>