<svg xmlns="http://www.w3.org/2000/svg" viewBox="0 0 1131 1024" version="1.1"><path d="M1.307794 458.527311l58.49657 438.724272a146.241424 146.241424 0 0 0 146.241424 126.742567h719.020335a146.241424 146.241424 0 0 0 146.241424-126.742567l58.496569-438.724272a146.241424 146.241424 0 0 0-146.241424-165.740281H147.549218a146.241424 146.241424 0 0 0-146.241424 165.740281z" fill="#3FBCAA" p-id="9475"></path><path d="M904.104852 506.786981a48.747141 48.747141 0 0 1-65.321169-21.936214L742.751814 292.78703h109.193597L927.50348 441.465811a48.747141 48.747141 0 0 1-23.398628 65.32117zM245.043501 485.338239L339.612955 292.78703H230.90683L156.323704 441.465811a48.747141 48.747141 0 0 0 88.719797 43.872428z" fill="#2F9181" p-id="9476"></path><path d="M906.542209 487.775596a48.747141 48.747141 0 0 1-43.872427-26.810928l-194.988566-389.977131a48.747141 48.747141 0 1 1 87.744855-43.872427l194.988565 389.977131a48.747141 48.747141 0 0 1-43.872427 70.683355z m-638.587552-26.810928l194.988566-389.977131a48.747141 48.747141 0 1 0-87.257383-43.872427l-194.988566 389.977131a48.747141 48.747141 0 0 0 87.257383 43.384955z" fill="#43EDCC" p-id="9477"></path></svg>