<svg xmlns="http://www.w3.org/2000/svg" viewBox="0 0 1024 1024" version="1.1"><path d="M300.08128 0m85.333333 0l170.666667 0q85.333333 0 85.333333 85.333333l0 853.333334q0 85.333333-85.333333 85.333333l-170.666667 0q-85.333333 0-85.333333-85.333333l0-853.333334q0-85.333333 85.333333-85.333333Z" fill="#E07E61" p-id="9716"></path><path d="M300.08128 874.666667h320a128 128 0 0 0 21.333333-2.133334V194.133333a128 128 0 0 0-21.333333-2.133333H300.08128z" fill="#B7624F" p-id="9717"></path><path d="M641.414613 170.666667H300.08128a128 128 0 0 0-128 128v426.666666a128 128 0 0 0 128 128h341.333333a128 128 0 0 0 128-128V298.666667a128 128 0 0 0-128-128z" fill="#FEA887" p-id="9718"></path><path d="M534.747947 704a42.666667 42.666667 0 0 1-35.413334-19.2L406.747947 546.133333V405.333333a42.666667 42.666667 0 0 1 85.333333 0v115.2l78.08 117.333334a42.666667 42.666667 0 0 1-35.413333 66.133333z" fill="#D38B75" p-id="9719"></path><path d="M556.08128 682.666667a42.666667 42.666667 0 0 1-35.413333-19.2L428.08128 524.8V384a42.666667 42.666667 0 0 1 85.333333 0v115.2l78.08 117.333333A42.666667 42.666667 0 0 1 556.08128 682.666667z" fill="#FCD888" p-id="9720"></path></svg>