<svg xmlns="http://www.w3.org/2000/svg" viewBox="0 0 1024 1024" version="1.1"><path d="M682.666667 0H341.333333a128 128 0 0 0-128 128v768a128 128 0 0 0 128 128h341.333334a128 128 0 0 0 128-128V128a128 128 0 0 0-128-128z" fill="#8A8780" p-id="9571"></path><path d="M768 853.333333H256V128h512z m-277.333333 64a42.666667 42.666667 0 1 0 42.666666 42.666667 42.666667 42.666667 0 0 0-42.666666-42.666667z" fill="#5E5C58" p-id="9572"></path><path d="M512 938.666667m-42.666667 0a42.666667 42.666667 0 1 0 85.333334 0 42.666667 42.666667 0 1 0-85.333334 0Z" fill="#CCC2B0" p-id="9573"></path></svg>