<svg xmlns="http://www.w3.org/2000/svg" viewBox="0 0 1024 1024" version="1.1"><path d="M1024 512a512 512 0 1 0-512 512 512 512 0 0 0 512-512z" fill="#DDDCE2" p-id="10775"></path><path d="M550.4 746.666667h-128a42.666667 42.666667 0 0 1 0-85.333334h128a42.666667 42.666667 0 1 1 0 85.333334z m106.666667-213.333334a42.666667 42.666667 0 0 0-42.666667-42.666666h-256a42.666667 42.666667 0 0 0 0 85.333333h256a42.666667 42.666667 0 0 0 42.666667-42.666667z m85.333333-170.666666a42.666667 42.666667 0 0 0-42.666667-42.666667h-426.666666a42.666667 42.666667 0 0 0 0 85.333333h426.666666a42.666667 42.666667 0 0 0 42.666667-42.666666z" fill="#B8B8BF" p-id="10776"></path><path d="M576 725.333333h-128a42.666667 42.666667 0 0 1 0-85.333333h128a42.666667 42.666667 0 0 1 0 85.333333z m106.666667-213.333333a42.666667 42.666667 0 0 0-42.666667-42.666667H384a42.666667 42.666667 0 0 0 0 85.333334h256a42.666667 42.666667 0 0 0 42.666667-42.666667z m85.333333-170.666667a42.666667 42.666667 0 0 0-42.666667-42.666666H298.666667a42.666667 42.666667 0 0 0 0 85.333333h426.666666a42.666667 42.666667 0 0 0 42.666667-42.666667z" fill="#5E44BC" p-id="10777"></path></svg>