<svg xmlns="http://www.w3.org/2000/svg" viewBox="0 0 1024 1024" version="1.1"><path d="M512 0a512 512 0 1 0 512 512A512 512 0 0 0 512 0z" fill="#DDDCE2" p-id="9813"></path><path d="M554.666667 405.333333h-128a42.666667 42.666667 0 0 1 0-85.333333h128a42.666667 42.666667 0 0 1 0 85.333333z m106.666666 128a42.666667 42.666667 0 0 0-42.666666-42.666666h-256a42.666667 42.666667 0 0 0 0 85.333333h256a42.666667 42.666667 0 0 0 42.666666-42.666667z m85.333334 170.666667a42.666667 42.666667 0 0 0-42.666667-42.666667h-426.666667a42.666667 42.666667 0 0 0 0 85.333334h426.666667a42.666667 42.666667 0 0 0 42.666667-42.666667z" fill="#B8B8BF" p-id="9814"></path><path d="M576 384h-128a42.666667 42.666667 0 0 1 0-85.333333h128a42.666667 42.666667 0 0 1 0 85.333333z m106.666667 128a42.666667 42.666667 0 0 0-42.666667-42.666667H384a42.666667 42.666667 0 0 0 0 85.333334h256a42.666667 42.666667 0 0 0 42.666667-42.666667z m85.333333 170.666667a42.666667 42.666667 0 0 0-42.666667-42.666667H298.666667a42.666667 42.666667 0 0 0 0 85.333333h426.666666a42.666667 42.666667 0 0 0 42.666667-42.666666z" fill="#5E44BC" p-id="9815"></path></svg>