<svg xmlns="http://www.w3.org/2000/svg" viewBox="0 0 1024 1024" version="1.1"><path d="M788.470947 356.396292a43.462962 43.462962 0 0 1-30.858703-74.321666l83.448888-83.448888A43.462962 43.462962 0 0 1 903.213168 260.777775l-83.883517 82.579628a43.462962 43.462962 0 0 1-30.858704 13.038889zM555.509468 217.314812V43.462962a43.462962 43.462962 0 0 0-86.925925 0v173.85185a43.462962 43.462962 0 0 0 86.925925 0z" fill="#382451" p-id="9957"></path><path d="M598.972431 86.925925H425.120581a43.462962 43.462962 0 0 1 0-86.925925h173.85185a43.462962 43.462962 0 0 1 0 86.925925z m220.35722 195.148701a434.629625 434.629625 0 1 0 0 614.56629 434.629625 434.629625 0 0 0 0-614.56629z" fill="#6D32BA" p-id="9958"></path><path d="M492.922802 630.212956a43.462962 43.462962 0 0 1-34.77037-17.385185l-130.388887-173.85185a43.462962 43.462962 0 1 1 69.54074-52.155555l130.388887 173.85185a43.462962 43.462962 0 0 1-34.77037 69.54074z" fill="#412466" p-id="9959"></path><path d="M514.654284 608.481475a43.462962 43.462962 0 0 1-34.77037-17.385185l-130.388888-173.85185a43.462962 43.462962 0 1 1 69.54074-52.155555l130.388888 173.85185a43.462962 43.462962 0 0 1-34.77037 69.54074z" fill="#9D60F4" p-id="9960"></path></svg>