<svg xmlns="http://www.w3.org/2000/svg" viewBox="0 0 1024 1024" version="1.1"><path d="M113.778347 967.111111a56.888889 56.888889 0 0 1-40.391111-97.28l796.444444-796.444444A56.888889 56.888889 0 0 1 950.045013 153.6l-796.444444 796.444444a56.888889 56.888889 0 0 1-39.822222 17.066667z" fill="#6DD143" p-id="10006"></path><path d="M779.947236 324.835556l170.666666-170.666667A56.888889 56.888889 0 0 0 870.400569 73.955556l-170.666667 170.666666z" fill="#00A51F" p-id="10007"></path><path d="M48.356124 560.355556l414.72 414.72a28.444444 28.444444 0 0 1-19.911111 48.355555H28.445013a28.444444 28.444444 0 0 1-28.444444-28.444444v-414.151111a28.444444 28.444444 0 0 1 48.355555-20.48zM1024.000569 443.164444V28.444444a28.444444 28.444444 0 0 0-28.444445-28.444444h-414.72a28.444444 28.444444 0 0 0-19.911111 48.355556l414.72 414.72a28.444444 28.444444 0 0 0 48.355556-19.911112z" fill="#C3FF08" p-id="10008"></path></svg>