<svg xmlns="http://www.w3.org/2000/svg" viewBox="0 0 1026 1024" version="1.1"><path d="M28.255796 399.061821L924.517774 6.888427a70.534783 70.534783 0 0 1 94.046377 94.046377l-393.58409 894.851283a47.023189 47.023189 0 0 1-87.933363-7.52371l-104.861711-363.959482a47.023189 47.023189 0 0 0-32.446-32.446L34.36881 487.465416A47.023189 47.023189 0 0 1 28.255796 399.061821z" fill="#A63DF9" p-id="10101"></path><path d="M624.980061 995.786087l392.173394-895.791746a69.594319 69.594319 0 0 0-14.577188-78.528726L420.42919 603.612692a47.023189 47.023189 0 0 1 11.755797 20.219972L537.046698 988.262377a47.023189 47.023189 0 0 0 87.933363 7.52371z" fill="#771BBF" p-id="10102"></path></svg>