<svg xmlns="http://www.w3.org/2000/svg" viewBox="0 0 1024 1024" version="1.1"><path d="M95.078187 0m128 0l512 0q128 0 128 128l0 768q0 128-128 128l-512 0q-128 0-128-128l0-768q0-128 128-128Z" fill="#4E1387" p-id="9861"></path><path d="M543.078187 277.333333a85.333333 85.333333 0 1 1-85.333334-85.333333 85.333333 85.333333 0 0 1 85.333334 85.333333z m-85.333334 170.666667a213.333333 213.333333 0 1 0 213.333334 213.333333 213.333333 213.333333 0 0 0-213.333334-213.333333z" fill="#330E5E" p-id="9862"></path><path d="M564.41152 256a85.333333 85.333333 0 1 1-85.333333-85.333333 85.333333 85.333333 0 0 1 85.333333 85.333333z m-85.333333 170.666667a213.333333 213.333333 0 1 0 213.333333 213.333333 213.333333 213.333333 0 0 0-213.333333-213.333333z" fill="#8C33E2" p-id="9863"></path><path d="M479.078187 640m-170.666667 0a170.666667 170.666667 0 1 0 341.333333 0 170.666667 170.666667 0 1 0-341.333333 0Z" fill="#3F157A" p-id="9864"></path></svg>