<svg xmlns="http://www.w3.org/2000/svg" viewBox="0 0 1024 1024" version="1.1"><path d="M768 0H256a128 128 0 0 0-128 128v768a128 128 0 0 0 128 128h512a128 128 0 0 0 128-128V128a128 128 0 0 0-128-128z" fill="#E47267" p-id="10196"></path><path d="M533.333333 960a42.666667 42.666667 0 1 1-42.666666-42.666667 42.666667 42.666667 0 0 1 42.666666 42.666667zM853.333333 85.333333H170.666667v768h682.666666z" fill="#BA5A56" p-id="10197"></path><path d="M512 938.666667m-42.666667 0a42.666667 42.666667 0 1 0 85.333334 0 42.666667 42.666667 0 1 0-85.333334 0Z" fill="#FFA76C" p-id="10198"></path></svg>