<svg xmlns="http://www.w3.org/2000/svg" viewBox="0 0 1593 1024" version="1.1"><path d="M1393.05481 0H453.219194a200.391389 200.391389 0 0 0-162.984997 84.164384L14.362051 467.579909a72.808871 72.808871 0 0 0 0 86.836268l275.204175 385.419439a200.391389 200.391389 0 0 0 162.984996 84.164384h940.503588a200.391389 200.391389 0 0 0 200.39139-200.391389V200.391389a200.391389 200.391389 0 0 0-200.39139-200.391389z" fill="#4BB216" p-id="10871"></path><path d="M719.07177 545.064579L802.568183 458.896282a66.79713 66.79713 0 0 0-94.183953-94.183953L624.887817 450.880626 535.379663 364.712329a66.79713 66.79713 0 1 0-91.512067 94.183953l86.168297 86.168297-86.168297 86.836269A66.79713 66.79713 0 1 0 535.379663 726.084801l89.508154-86.168297 86.168298 86.168297A66.79713 66.79713 0 0 0 802.568183 631.900848z" fill="#3C8910" p-id="10872"></path><path d="M752.470335 511.666014l86.168298-86.168297A66.79713 66.79713 0 0 0 744.45468 333.985649L658.286382 417.482061 571.450114 333.985649a66.79713 66.79713 0 1 0-94.183954 91.512068l86.168298 86.168297L477.26616 601.174168a66.79713 66.79713 0 1 0 94.183954 94.183953l86.836268-88.840182 86.168298 86.168297A66.79713 66.79713 0 0 0 838.638633 601.174168z" fill="#32FF00" p-id="10873"></path></svg>