<svg xmlns="http://www.w3.org/2000/svg" viewBox="0 0 1024 1024" version="1.1"><path d="M512 512m-512 0a512 512 0 1 0 1024 0 512 512 0 1 0-1024 0Z" fill="#F24922" p-id="10244"></path><path d="M840.96 430.08a42.666667 42.666667 0 0 1-17.066667 3.413333 42.666667 42.666667 0 0 1-39.253333-25.6 312.32 312.32 0 0 0-161.706667-161.28 42.666667 42.666667 0 1 1 34.133334-78.08 397.653333 397.653333 0 0 1 205.653333 205.653334 42.666667 42.666667 0 0 1-22.186667 56.32M106.666667 576h177.92a42.666667 42.666667 0 0 0 0-85.333333H106.666667a42.666667 42.666667 0 0 0 0 85.333333z m265.813333 244.053333a312.746667 312.746667 0 0 1-161.706667-161.706666 42.666667 42.666667 0 0 0-78.08 34.133333 397.653333 397.653333 0 0 0 205.653334 205.653333 42.666667 42.666667 0 0 0 17.066666 3.413334 42.666667 42.666667 0 0 0 17.066667-81.92z m0-573.866666a42.666667 42.666667 0 1 0-34.133333-78.08 397.653333 397.653333 0 0 0-205.653334 206.08 42.666667 42.666667 0 0 0 22.186667 56.32 42.666667 42.666667 0 0 0 17.066667 3.413333 42.666667 42.666667 0 0 0 39.253333-25.6 312.746667 312.746667 0 0 1 161.28-161.706667m168.106667 500.053334a42.666667 42.666667 0 0 0-85.333334 0v177.92a42.666667 42.666667 0 0 0 85.333334 0z m0-604.586667a42.666667 42.666667 0 0 0-85.333334 0V320a42.666667 42.666667 0 0 0 85.333334 0z m244.053333 516.266667a312.746667 312.746667 0 0 1-161.706667 161.706666 42.666667 42.666667 0 0 0 17.066667 81.92 42.666667 42.666667 0 0 0 17.066667-3.413333 397.653333 397.653333 0 0 0 205.653333-205.653333 42.666667 42.666667 0 0 0-78.08-34.133334m146.773333-125.013333a42.666667 42.666667 0 0 0-42.666666-42.666667h-177.493334a42.666667 42.666667 0 0 0 0 85.333334h177.92a42.666667 42.666667 0 0 0 42.24-43.093334z" fill="#C6361E" p-id="10245"></path><path d="M862.293333 408.746667a42.666667 42.666667 0 0 1-17.066666 3.413333 42.666667 42.666667 0 0 1-39.253334-25.6 312.32 312.32 0 0 0-161.706666-161.28 42.666667 42.666667 0 1 1 34.133333-78.08 397.653333 397.653333 0 0 1 205.653333 205.653333 42.666667 42.666667 0 0 1-22.186666 56.32M128 554.666667h177.92a42.666667 42.666667 0 1 0 0-85.333334H128a42.666667 42.666667 0 0 0 0 85.333334z m265.813333 244.053333a312.746667 312.746667 0 0 1-161.706666-161.706667 42.666667 42.666667 0 0 0-78.08 34.133334 397.653333 397.653333 0 0 0 205.653333 205.653333 42.666667 42.666667 0 0 0 17.066667 3.413333 42.666667 42.666667 0 0 0 17.066666-81.92z m0-573.866667a42.666667 42.666667 0 1 0-34.133333-78.08 397.653333 397.653333 0 0 0-205.653333 206.08 42.666667 42.666667 0 0 0 22.186666 56.32 42.666667 42.666667 0 0 0 17.066667 3.413334 42.666667 42.666667 0 0 0 39.253333-25.6 312.746667 312.746667 0 0 1 161.28-161.706667M561.92 725.333333a42.666667 42.666667 0 0 0-85.333333 0v177.92a42.666667 42.666667 0 0 0 85.333333 0z m0-604.586666a42.666667 42.666667 0 0 0-85.333333 0V298.666667a42.666667 42.666667 0 0 0 85.333333 0z m244.053333 516.266666a312.746667 312.746667 0 0 1-161.706666 161.706667 42.666667 42.666667 0 0 0 17.066666 81.92 42.666667 42.666667 0 0 0 17.066667-3.413333 397.653333 397.653333 0 0 0 205.653333-205.653334 42.666667 42.666667 0 0 0-78.08-34.133333M952.746667 512a42.666667 42.666667 0 0 0-42.666667-42.666667h-177.493333a42.666667 42.666667 0 0 0 0 85.333334h177.92a42.666667 42.666667 0 0 0 42.24-42.666667z" fill="#FFA42C" p-id="10246"></path></svg>