<svg xmlns="http://www.w3.org/2000/svg" viewBox="0 0 1024 1024" version="1.1"><path d="M117.894126 983.618619L53.365195 918.632035a137.295598 137.295598 0 0 1 0-194.044446l161.551154-161.551154 259.031029 260.861637-161.551154 159.720547a137.295598 137.295598 0 0 1-194.502098 0z" fill="#0B70DD" p-id="10388"></path><path d="M92.723267 685.229518l1.372956 13.72956 251.250945 251.250945 128.60021-128.600211-259.031029-258.573377-122.193082 122.193083z" fill="#0C68BA" p-id="10389"></path><path d="M376.009851 920.004991l-259.031029-259.031029-26.543815-291.981973a137.295598 137.295598 0 0 1 39.815723-109.378826L349.466036 40.397857a137.295598 137.295598 0 0 1 140.499162-33.408596l237.521386 79.173795A45.765199 45.765199 0 0 1 745.335011 162.133288l-141.872118 141.872118a45.765199 45.765199 0 0 0 0 64.528931l64.528931 64.528932a45.765199 45.765199 0 0 0 64.528932 0l137.295598-137.295599a45.765199 45.765199 0 0 1 75.970231 24.713208l61.325368 265.895809a137.295598 137.295598 0 0 1-36.61216 128.142559l-192.213838 192.213837a137.295598 137.295598 0 0 1-108.921175 39.815724z" fill="#3395FF" p-id="10390"></path></svg>