<svg xmlns="http://www.w3.org/2000/svg" viewBox="0 0 1141 1024" version="1.1"><path d="M153.593626 307.208243h51.197875v409.583002H153.593626a153.593626 153.593626 0 0 1-153.593626-153.593626V460.801869a153.593626 153.593626 0 0 1 153.593626-153.593626z m970.199737 276.980505L1051.604358 511.999744l72.189005-72.189004a51.197875 51.197875 0 1 0-72.189005-72.189004l-72.700982 72.189004-72.189005-72.700983a51.197875 51.197875 0 1 0-72.189004 72.189004L906.714371 511.999744l-72.189004 72.189004a51.197875 51.197875 0 0 0 72.189004 72.189004l72.189005-72.189004 72.189004 72.189004a51.197875 51.197875 0 0 0 72.189004-72.189004z" fill="#FFCE00" p-id="10340"></path><path d="M179.192564 307.208243H204.791501v409.583002h-25.598937z" fill="#DDB300" p-id="10341"></path><path d="M204.791501 307.208243L520.170413 36.883461a153.593626 153.593626 0 0 1 102.395751-36.86247A96.763984 96.763984 0 0 1 716.770254 96.784975v830.429538A96.763984 96.763984 0 0 1 620.00627 1023.978497a153.593626 153.593626 0 0 1-102.395751-36.86247L204.791501 716.791245z" fill="#FFEC00" p-id="10342"></path></svg>