<svg xmlns="http://www.w3.org/2000/svg" viewBox="0 0 1365 1024" version="1.1"><path d="M227.555556 1024a56.888889 56.888889 0 0 1-50.631112-82.488889l113.777778-227.555555a56.888889 56.888889 0 1 1 101.831111 50.631111l-113.777777 227.555555A56.888889 56.888889 0 0 1 227.555556 1024z m935.822222-6.257778a56.888889 56.888889 0 0 0 25.6-76.231111l-113.777778-227.555555a56.888889 56.888889 0 1 0-101.831111 50.631111l113.777778 227.555555a56.888889 56.888889 0 0 0 76.231111 25.6z" fill="#FFCE00" p-id="10484"></path><path d="M391.964444 765.155556l-56.888888 116.622222H206.506667l83.626666-167.822222a56.888889 56.888889 0 1 1 101.831111 50.631111z m682.666667-50.631112a56.888889 56.888889 0 1 0-101.831111 50.631112l56.888889 116.622222h127.431111z" fill="#E0B605" p-id="10485"></path><path d="M0 0m170.666667 0l1024 0q170.666667 0 170.666666 170.666667l0 512q0 170.666667-170.666666 170.666666l-1024 0q-170.666667 0-170.666667-170.666666l0-512q0-170.666667 170.666667-170.666667Z" fill="#FFEC00" p-id="10486"></path><path d="M113.777778 113.777778h1137.777778v625.777778H113.777778z" fill="#F2C300" p-id="10487"></path></svg>