<svg xmlns="http://www.w3.org/2000/svg" viewBox="0 0 1024 1024" version="1.1"><path d="M512 1024a42.666667 42.666667 0 0 1-42.666667-42.666667V256a42.666667 42.666667 0 0 1 85.333334 0v725.333333a42.666667 42.666667 0 0 1-42.666667 42.666667z" fill="#0B70DD" p-id="10292"></path><path d="M512 213.333333a42.666667 42.666667 0 0 0-42.666667 42.666667v181.333333h85.333334V256a42.666667 42.666667 0 0 0-42.666667-42.666667z" fill="#0B66B7" p-id="10293"></path><path d="M848.213333 416H175.786667a21.333333 21.333333 0 0 1-15.786667-35.413333L495.786667 7.253333a21.333333 21.333333 0 0 1 31.573333 0l336.213333 373.333334a21.333333 21.333333 0 0 1-15.36 35.413333z" fill="#3395FF" p-id="10294"></path></svg>