<svg xmlns="http://www.w3.org/2000/svg" viewBox="0 0 1211 1024" version="1.1"><path d="M942.072234 1023.676337a49.668412 49.668412 0 0 1-54.580673-43.118731V248.084984a49.668412 49.668412 0 0 1 54.580673-43.118731 49.668412 49.668412 0 0 1 54.580672 43.118731V982.740832a49.668412 49.668412 0 0 1-54.580672 40.935505zM215.057679 43.407463v732.472622a49.668412 49.668412 0 0 0 54.580672 43.118731 49.668412 49.668412 0 0 0 54.580673-43.118731V43.407463a49.668412 49.668412 0 0 0-54.580673-43.118731 49.668412 49.668412 0 0 0-54.580672 43.118731z" fill="#FFCE00" p-id="10436"></path><path d="M942.072234 142.744286a49.668412 49.668412 0 0 0-54.580673 43.118731v182.845253h109.161345V185.863017a49.668412 49.668412 0 0 0-54.580672-43.118731z" fill="#DBB100" p-id="10437"></path><path d="M1195.87236 314.127597h-507.054446a15.828395 15.828395 0 0 1-12.007748-26.744529L927.881259 5.746799a15.828395 15.828395 0 0 1 24.015496 0l253.800126 281.636269a15.828395 15.828395 0 0 1-9.824521 26.744529zM4.376284 736.582001l253.800126 281.636268a15.828395 15.828395 0 0 0 24.015496 0l253.800126-281.636268a15.828395 15.828395 0 0 0-12.553555-26.74453H16.384032a15.828395 15.828395 0 0 0-12.007748 26.74453z" fill="#FFFF00" p-id="10438"></path></svg>