<svg xmlns="http://www.w3.org/2000/svg" viewBox="0 0 1823 1024" version="1.1"><path d="M911.5727 0A1116.676558 1116.676558 0 0 0 0 512a1116.676558 1116.676558 0 0 0 911.5727 512 1116.676558 1116.676558 0 0 0 911.572701-512A1116.676558 1116.676558 0 0 0 911.5727 0z" fill="#DAD6CA" p-id="10727"></path><path d="M873.590504 303.857567a227.893175 227.893175 0 0 0-97.994065 22.789317A75.964392 75.964392 0 0 1 668.486647 432.997033 227.893175 227.893175 0 1 0 873.590504 303.857567z" fill="#C1BCB2" p-id="10728"></path><path d="M911.5727 264.356083a227.893175 227.893175 0 0 0-97.994065 22.789318A75.964392 75.964392 0 0 1 706.468843 395.014837 227.893175 227.893175 0 1 0 911.5727 264.356083z" fill="#4B5160" p-id="10729"></path></svg>