<svg xmlns="http://www.w3.org/2000/svg" viewBox="0 0 1335 1024" version="1.1"><path d="M561.518545 1024a192 192 0 0 1-192-192v-407.272727a42.472727 42.472727 0 0 0-41.30909-42.472728 32.581818 32.581818 0 0 0-29.09091 9.89091 34.327273 34.327273 0 0 0-8.145454 25.018181 204.218182 204.218182 0 0 1-67.490909 148.363637 203.054545 203.054545 0 0 1-153.018182 54.109091 75.636364 75.636364 0 0 1 10.472727-150.690909 54.109091 54.109091 0 0 0 39.563637-13.963637 51.781818 51.781818 0 0 0 16.872727-38.4 184.436364 184.436364 0 0 1 58.181818-133.236363A181.527273 181.527273 0 0 1 328.209455 232.727273a193.745455 193.745455 0 0 1 192.581818 192v407.272727a40.727273 40.727273 0 0 0 81.454545 0v-640a192 192 0 1 1 384 0v465.454545a40.727273 40.727273 0 0 0 81.454546 0 192 192 0 0 1 192-192 75.636364 75.636364 0 1 1 0 151.272728 40.727273 40.727273 0 0 0-40.727273 40.727272 192 192 0 1 1-384 0v-465.454545a40.727273 40.727273 0 0 0-81.454546 0v640a192.581818 192.581818 0 0 1-192 192z" fill="#C74066" p-id="10533"></path><path d="M245.009455 541.090909a201.309091 201.309091 0 0 1-21.527273 24.436364 203.054545 203.054545 0 0 1-153.018182 54.109091A75.636364 75.636364 0 0 1 0.064 541.090909z m822.690909 116.363636a40.727273 40.727273 0 0 1-81.454546 0v-116.363636h-151.272727v116.363636a192 192 0 1 0 384 0 40.727273 40.727273 0 0 1 40.727273-40.727272 75.636364 75.636364 0 0 0 75.636363-75.636364H1105.518545a190.254545 190.254545 0 0 0-37.818181 116.363636z m-465.454546-116.363636v290.909091a40.727273 40.727273 0 0 1-81.454545 0v-290.909091h-151.272728v290.909091a192 192 0 0 0 384 0v-290.909091z" fill="#AA2B52" p-id="10534"></path></svg>