<svg xmlns="http://www.w3.org/2000/svg" viewBox="0 0 1638 1024" version="1.1"><path d="M887.463117 614.397542V68.266394h-136.532787v546.131148H136.532787v136.532788h1433.594266V614.397542H887.463117z" fill="#501589" p-id="11116"></path><path d="M189.780574 750.93033h1153.702052l15.701271-136.532788H887.463117V341.331968h-136.532787v273.065574H174.761968l15.018606 136.532788z" fill="#3A1268" p-id="11117"></path><path d="M1365.327872 341.331968a204.799181 204.799181 0 0 1 51.199795 159.060697l-38.22918 341.331968a204.799181 204.799181 0 0 1-204.799181 182.271271H1023.995904a178.175287 178.175287 0 0 1-116.052869-56.661107 68.266394 68.266394 0 0 0-47.103812-19.11459h-83.967664a68.266394 68.266394 0 0 0-47.103811 19.11459A178.175287 178.175287 0 0 1 614.397542 1023.995904H463.528813a204.799181 204.799181 0 0 1-204.799181-182.271271l-38.229181-341.331968a204.799181 204.799181 0 0 1 204.799181-227.327091h787.794182A204.799181 204.799181 0 0 1 1365.327872 341.331968zM682.663936 136.532787h273.065574a68.266394 68.266394 0 0 0 0-136.532787h-273.065574a68.266394 68.266394 0 0 0 0 136.532787z m887.463117 341.331968a68.266394 68.266394 0 0 0-68.266394 68.266394v273.065574a68.266394 68.266394 0 0 0 136.532787 0V546.131149a68.266394 68.266394 0 0 0-68.266393-68.266394zM68.266394 477.864755a68.266394 68.266394 0 0 0-68.266394 68.266394v273.065574a68.266394 68.266394 0 0 0 136.532787 0V546.131149a68.266394 68.266394 0 0 0-68.266393-68.266394z" fill="#771BBF" p-id="11118"></path></svg>