<svg xmlns="http://www.w3.org/2000/svg" viewBox="0 0 1024 1024" version="1.1"><path d="M147.260952 1024h731.428572a48.761905 48.761905 0 0 0 44.860952-67.779048L804.571429 682.666667H219.428571L102.4 956.220952A48.761905 48.761905 0 0 0 147.260952 1024z" fill="#353330" p-id="10966"></path><path d="M804.571429 682.666667H219.428571l-39.984761 93.135238a438.857143 438.857143 0 0 0 649.020952-36.571429z" fill="#1E1D1C" p-id="10967"></path><path d="M512 438.857143m-438.857143 0a438.857143 438.857143 0 1 0 877.714286 0 438.857143 438.857143 0 1 0-877.714286 0Z" fill="#5E5C58" p-id="10968"></path><path d="M512 438.857143m-146.285714 0a146.285714 146.285714 0 1 0 292.571428 0 146.285714 146.285714 0 1 0-292.571428 0Z" fill="#232120" p-id="10969"></path><path d="M469.577143 299.398095a146.285714 146.285714 0 0 0-97.52381 97.52381 73.142857 73.142857 0 1 0 97.52381-97.52381z" fill="#8C8983" p-id="10970"></path></svg>