<svg xmlns="http://www.w3.org/2000/svg" viewBox="0 0 1274 1024" version="1.1"><path d="M746.193341 915.156761a108.843239 108.843239 0 1 1-108.843239-108.843239 108.843239 108.843239 0 0 1 108.843239 108.843239z m512.236482-598.076768a72.936191 72.936191 0 0 0-11.220953-102.671716 974.539725 974.539725 0 0 0-1219.717536 0 72.936191 72.936191 0 0 0 91.450762 112.209525 828.667342 828.667342 0 0 1 1037.377059 0 72.936191 72.936191 0 0 0 102.671715-11.220952zM292.305813 545.426376a551.509815 551.509815 0 0 1 690.088578 0 72.936191 72.936191 0 1 0 91.450763-112.209525 697.382198 697.382198 0 0 0-872.429057 0 72.936191 72.936191 0 0 0 90.889716 112.209525z m617.152387 207.026574a72.936191 72.936191 0 0 0-11.220952-102.671716 413.4921 413.4921 0 0 0-523.457435 0 72.936191 72.936191 0 0 0 91.450763 112.209525 271.54705 271.54705 0 0 1 341.116956 0 72.936191 72.936191 0 0 0 102.671716-11.220952z" fill="#BAB5AA" p-id="10919"></path><path d="M910.580295 752.45295a72.936191 72.936191 0 0 1-102.671715 11.220952 271.54705 271.54705 0 0 0-173.924764-60.032096V556.647328h3.366286A415.175242 415.175242 0 0 1 897.6762 649.781234a72.936191 72.936191 0 0 1 12.904095 102.671716z m163.264859-320.358194A691.210674 691.210674 0 0 0 637.350102 280.611897h-3.366286v145.872382h3.366286a546.460387 546.460387 0 0 1 345.044289 121.186287 72.936191 72.936191 0 1 0 91.450763-112.209525z m173.924764-217.125431A966.12401 966.12401 0 0 0 637.350102 0.088084h-3.366286v145.872383h3.366286a821.373723 821.373723 0 0 1 518.408005 182.340478 72.936191 72.936191 0 0 0 91.450763-112.209525zM637.350102 806.313522h-3.366286v217.12543h3.366286a108.843239 108.843239 0 0 0 0-217.686478z" fill="#DAD6CA" p-id="10920"></path></svg>