<svg xmlns="http://www.w3.org/2000/svg" viewBox="0 0 1365 1024" version="1.1"><path d="M1194.666667 0H170.666667a170.666667 170.666667 0 0 0-170.666667 170.666667v682.666666a170.666667 170.666667 0 0 0 170.666667 170.666667h1024a170.666667 170.666667 0 0 0 170.666666-170.666667V170.666667a170.666667 170.666667 0 0 0-170.666666-170.666667zM170.666667 227.555556a56.888889 56.888889 0 1 1 56.888889-56.888889 56.888889 56.888889 0 0 1-56.888889 56.888889z m170.666666 0a56.888889 56.888889 0 1 1 56.888889-56.888889 56.888889 56.888889 0 0 1-56.888889 56.888889z m170.666667 0a56.888889 56.888889 0 1 1 56.888889-56.888889 56.888889 56.888889 0 0 1-56.888889 56.888889z" fill="#F2EFDC" p-id="11016"></path><path d="M199.111111 199.111111a56.888889 56.888889 0 1 1-56.888889-56.888889 56.888889 56.888889 0 0 1 56.888889 56.888889z m113.777778-56.888889a56.888889 56.888889 0 1 0 56.888889 56.888889 56.888889 56.888889 0 0 0-56.888889-56.888889z m170.666667 0a56.888889 56.888889 0 1 0 56.888888 56.888889 56.888889 56.888889 0 0 0-56.888888-56.888889z" fill="#CECBBA" p-id="11017"></path><path d="M170.666667 170.666667m-56.888889 0a56.888889 56.888889 0 1 0 113.777778 0 56.888889 56.888889 0 1 0-113.777778 0Z" fill="#ED5B43" p-id="11018"></path><path d="M341.333333 170.666667m-56.888889 0a56.888889 56.888889 0 1 0 113.777778 0 56.888889 56.888889 0 1 0-113.777778 0Z" fill="#E8B513" p-id="11019"></path><path d="M512 170.666667m-56.888889 0a56.888889 56.888889 0 1 0 113.777778 0 56.888889 56.888889 0 1 0-113.777778 0Z" fill="#36BC15" p-id="11020"></path></svg>