<svg xmlns="http://www.w3.org/2000/svg" viewBox="0 0 1024 1024" version="1.1"><path d="M874.153147 1024a95.99322 95.99322 0 0 1-76.31461-37.917322l-174.707661-228.943831A95.99322 95.99322 0 0 1 773.840232 640.98705l174.707661 228.943831a95.99322 95.99322 0 0 1-76.31461 154.069119z" fill="#D34233" p-id="11164"></path><path d="M773.840232 640.98705a95.99322 95.99322 0 0 0-100.792882-34.557559A239.983051 239.983051 0 0 1 616.891316 672.184847c-3.359763 2.399831-7.199492 4.319695-11.03922 6.719525a95.99322 95.99322 0 0 0 16.798814 79.674373l70.555017 92.633458a431.969492 431.969492 0 0 0 39.837186-26.878102 429.089696 429.089696 0 0 0 99.352983-107.512407z" fill="#C1211A" p-id="11165"></path><path d="M829.036334 169.660338a431.969492 431.969492 0 1 0-81.114272 605.717221 431.969492 431.969492 0 0 0 81.114272-605.717221z" fill="#F16A54" p-id="11166"></path><path d="M605.852096 480.198406h-287.979661a47.99661 47.99661 0 1 1 0-95.99322h287.979661a47.99661 47.99661 0 1 1 0 95.99322z" fill="#C1211A" p-id="11167"></path><path d="M629.850401 458.599931H341.87074a47.99661 47.99661 0 0 1 0-95.99322h287.979661a47.99661 47.99661 0 0 1 0 95.99322z" fill="#F4B147" p-id="11168"></path></svg>