<svg xmlns="http://www.w3.org/2000/svg" viewBox="0 0 1024 1024" version="1.1"><path d="M874.153147 1024a95.99322 95.99322 0 0 1-76.31461-37.917322l-174.707661-228.943831A95.99322 95.99322 0 0 1 773.840232 640.98705l174.707661 228.943831a95.99322 95.99322 0 0 1-76.31461 154.069119z" fill="#D34233" p-id="11066"></path><path d="M773.840232 640.98705a95.99322 95.99322 0 0 0-100.792882-34.557559A239.983051 239.983051 0 0 1 616.891316 672.184847c-3.359763 2.399831-7.199492 4.319695-11.03922 6.719525a95.99322 95.99322 0 0 0 16.798814 79.674373l70.555017 92.633458a431.969492 431.969492 0 0 0 39.837186-26.878102 429.089696 429.089696 0 0 0 99.352983-107.512407z" fill="#C1211A" p-id="11067"></path><path d="M829.036334 169.660338a431.969492 431.969492 0 1 0-81.114272 605.717221 431.969492 431.969492 0 0 0 81.114272-605.717221z" fill="#F16A54" p-id="11068"></path><path d="M605.852096 384.205186h-95.993221V288.211965a47.99661 47.99661 0 0 0-95.99322 0v95.993221h-95.99322a47.99661 47.99661 0 1 0 0 95.99322h95.99322v95.99322a47.99661 47.99661 0 0 0 95.99322 0v-95.99322h95.993221a47.99661 47.99661 0 1 0 0-95.99322z" fill="#C1211A" p-id="11069"></path><path d="M629.850401 362.606711h-95.99322v-95.993221a47.99661 47.99661 0 0 0-95.993221 0v95.993221H341.87074a47.99661 47.99661 0 0 0 0 95.99322h95.99322v95.993221a47.99661 47.99661 0 1 0 95.993221 0v-95.993221h95.99322a47.99661 47.99661 0 0 0 0-95.99322z" fill="#F4B147" p-id="11070"></path></svg>