<svg xmlns="http://www.w3.org/2000/svg" viewBox="0 0 1024 1024" version="1.1"><path d="M511.999735 512.000265m-511.999735 0a511.999735 511.999735 0 1 0 1023.99947 0 511.999735 511.999735 0 1 0-1023.99947 0Z" fill="#7FABDA" p-id="4910"></path><path d="M774.832151 79.201592c2.136275-0.741517 3.866481-1.977378 5.649652-3.160274A509.492702 509.492702 0 0 0 511.999735 0.00053a509.422081 509.422081 0 0 0-291.380815 91.082987c0.441379 2.047999 1.006344 4.078343 1.906758 6.020411 34.921913 75.246306 79.854304 202.963757 156.583643 232.394914 37.30536 14.300682 71.785894 8.915857 107.149186 26.235573 3.778205 1.836137 9.304271 6.143997 11.670063 9.622064 17.972956 26.288538 7.627031 64.812104 25.458745 74.239961 14.106475 7.450479 22.12192 22.686885 16.101509 37.464257-24.593642 60.345348-3.319171 129.359381 53.883559 176.728184 40.253772 33.332948 6.744272 110.591943-27.118331 171.255084-12.111442 21.698196 9.480823 46.750872 32.873914 38.43529 37.005222-13.170752 67.636931-32.255983 103.106154-62.764105 51.429491-44.226184 62.552244-92.42478 113.522699-129.977312a3.21324 3.21324 0 0 0 1.218207-1.588965c13.029511-38.205773 53.5128-121.59111 12.658752-142.830271-38.135153-19.809093-52.400525-77.170719-89.617609-116.25925-4.27255-4.484411-10.345926-6.708962-16.489923-7.503444-45.620942-5.879169-66.136242-40.571565-96.83857-17.496267-22.987023 17.284405-48.834182 6.761928-56.849626-20.868403-2.612964-9.004133-7.220962-17.037233-23.76385-22.139575-12.570476-3.866481-18.679163-18.114198-14.159441-30.455157l0.194207-0.54731c6.055721-16.489923-28.054054-13.982889-45.391425-11.087442-4.85517 0.812138 11.634753-18.802749 6.214618-15.62482-21.327437 12.588131-47.792527-9.145375-46.662597-33.880258 1.165241-25.087987 5.843859-23.887436 48.851837-28.830882 46.291838-21.556954 68.69624-5.843859 67.213207 47.103976 28.61902 4.237239 38.611842-8.403858 29.996122-37.940946a28.901502 28.901502 0 0 1 4.978756-25.37047c52.753628-68.607965 96.80326-98.515811 177.522667-126.216762z" fill="#1A9172" p-id="4911"></path></svg>