<svg xmlns="http://www.w3.org/2000/svg" viewBox="0 0 1024 1024" version="1.1"><path d="M1005.704775 388.466526a18.593429 18.593429 0 0 1-13.18511-5.464268C864.473041 254.936986 693.943137 184.423691 512.354152 184.423691S160.235262 254.936986 32.188638 383.002258a18.630728 18.630728 0 1 1-26.370219-26.370219C140.914507 221.535951 320.806399 147.143586 512.354152 147.143586s371.458294 74.392365 506.535732 209.488453a18.630728 18.630728 0 0 1-13.185109 31.834487z" fill="#424A60" p-id="4957"></path><path d="M128.624568 498.087565a18.630728 18.630728 0 0 1-13.18511-31.834487c218.86909-218.86909 574.978947-218.831791 793.810738 0a18.630728 18.630728 0 1 1-26.370219 26.370219c-204.322576-204.322576-536.766373-204.322576-741.0703 0a18.593429 18.593429 0 0 1-13.185109 5.464268z" fill="#9777A8" p-id="4958"></path><path d="M786.444047 607.708603a18.593429 18.593429 0 0 1-13.185109-5.464267c-69.562177-69.562177-162.230932-107.886647-260.904786-107.886647s-191.32396 38.32447-260.904787 107.886647a18.630728 18.630728 0 1 1-26.370219-26.370219c76.611641-76.611641 178.642384-118.815182 287.275006-118.815182 108.632622 0 210.644715 42.20354 287.275005 118.815182a18.630728 18.630728 0 0 1-13.18511 31.834486zM512.354152 632.512275c-67.36155 0-122.17207 54.810519-122.17207 122.190719s54.810519 122.190719 122.17207 122.190719c67.3802 0 122.190719-54.810519 122.190719-122.190719s-54.810519-122.190719-122.190719-122.190719z" fill="#7FABDA" p-id="4959"></path></svg>