<svg xmlns="http://www.w3.org/2000/svg" viewBox="0 0 1024 1024" version="1.1"><path d="M733.325241 1024H290.674759A43.502345 43.502345 0 0 1 247.172414 980.497655V114.123034A43.502345 43.502345 0 0 1 290.674759 70.62069h442.650482A43.502345 43.502345 0 0 1 776.827586 114.123034v866.374621A43.502345 43.502345 0 0 1 733.325241 1024z" fill="#424A60" p-id="1760"></path><path d="M423.724138 0h176.551724v70.62069H423.724138z" fill="#D8A852" p-id="1761"></path><path d="M635.586207 512h-70.62069V283.68331c0.211862-1.024-1.129931-1.624276-1.765517-0.812138L388.413793 564.965517h88.275862l0.035311 245.918897c-0.282483 1.041655 1.05931 1.712552 1.730206 0.882758L635.586207 512z" fill="#EFCE4A" p-id="1762"></path><path d="M733.325241 70.62069H290.674759A43.502345 43.502345 0 0 0 247.172414 114.123034V229.517241h529.655172V114.123034A43.502345 43.502345 0 0 0 733.325241 70.62069z" fill="#EA6248" p-id="1763"></path></svg>