<svg xmlns="http://www.w3.org/2000/svg" viewBox="0 0 1024 1024" version="1.1"><path d="M659.525424 754.983051L86.779661 574.481356v-124.962712l572.745763-180.501695z" fill="#556080" p-id="3526"></path><path d="M43.389831 633.491525A43.511322 43.511322 0 0 1 0 590.101695v-156.20339c0-23.864407 19.525424-43.389831 43.389831-43.38983S86.779661 410.033898 86.779661 433.898305v156.20339c0 23.864407-19.525424 43.389831-43.38983 43.38983zM711.59322 841.762712c-28.637288 0-52.067797-23.430508-52.067796-52.067797v-555.38983c0-28.637288 23.430508-52.067797 52.067796-52.067797s52.067797 23.430508 52.067797 52.067797v555.38983c0 28.637288-23.430508 52.067797-52.067797 52.067797z" fill="#424A60" p-id="3527"></path><path d="M1006.644068 529.355932h-17.355932a17.355932 17.355932 0 1 1 0-34.711864h17.355932a17.355932 17.355932 0 1 1 0 34.711864z m-69.423729 0h-17.355932a17.355932 17.355932 0 1 1 0-34.711864h17.355932a17.355932 17.355932 0 1 1 0 34.711864z m-69.423729 0h-17.355932a17.355932 17.355932 0 1 1 0-34.711864h17.355932a17.355932 17.355932 0 1 1 0 34.711864zM850.440678 327.402305a17.338576 17.338576 0 0 1-12.270644-29.626576L850.440678 285.505085a17.338576 17.338576 0 1 1 24.541288 24.541288l-12.270644 12.270644a17.234441 17.234441 0 0 1-12.270644 5.085288z m49.082576-49.082576a17.338576 17.338576 0 0 1-12.270644-29.626576l12.270644-12.270645a17.338576 17.338576 0 1 1 24.541288 24.541289l-12.270644 12.270644a17.303864 17.303864 0 0 1-12.270644 5.085288z m49.099932-49.099932a17.338576 17.338576 0 0 1-12.270644-29.626577l12.270644-12.270644a17.338576 17.338576 0 1 1 24.541289 24.541288l-12.270644 12.270644a17.303864 17.303864 0 0 1-12.270645 5.085289zM850.440678 431.537898a17.338576 17.338576 0 0 1-5.484475-33.826712l16.453424-5.484474a17.355932 17.355932 0 1 1 10.986305 32.924203l-16.453424 5.484475a17.008814 17.008814 0 0 1-5.50183 0.902508z m65.865763-21.937898a17.338576 17.338576 0 0 1-5.484475-33.826712l16.453424-5.484474a17.338576 17.338576 0 1 1 10.986305 32.924203l-16.453424 5.484475a17.477424 17.477424 0 0 1-5.50183 0.902508z m65.865762-21.97261a17.355932 17.355932 0 0 1-5.467118-33.844068l16.453423-5.467119a17.373288 17.373288 0 0 1 10.951594 32.958916l-16.453424 5.467118a17.841898 17.841898 0 0 1-5.484475 0.885153zM960.893831 841.762712a17.303864 17.303864 0 0 1-12.270645-5.085288l-12.270644-12.270644a17.338576 17.338576 0 1 1 24.541289-24.541288l12.270644 12.270644a17.338576 17.338576 0 0 1-12.270644 29.626576z m-49.099933-49.099932a17.303864 17.303864 0 0 1-12.270644-5.085288l-12.270644-12.270645a17.338576 17.338576 0 1 1 24.541288-24.541288l12.270644 12.270644a17.338576 17.338576 0 0 1-12.270644 29.626577z m-49.082576-49.082577A17.303864 17.303864 0 0 1 850.440678 738.494915l-12.270644-12.270644a17.338576 17.338576 0 1 1 24.541288-24.541288l12.270644 12.270644a17.338576 17.338576 0 0 1-12.270644 29.626576zM998.625627 676.551593c-1.805017 0-3.662102-0.295051-5.467119-0.885152l-16.453423-5.467119a17.390644 17.390644 0 0 1 10.951593-32.958915l16.453424 5.467118a17.390644 17.390644 0 0 1-5.484475 33.844068z m-65.865763-21.937898a17.286508 17.286508 0 0 1-5.484474-0.902509l-16.453424-5.484474a17.355932 17.355932 0 1 1 10.986305-32.924204l16.453424 5.484475a17.355932 17.355932 0 0 1-5.501831 33.826712z m-65.865762-21.955254a17.286508 17.286508 0 0 1-5.484475-0.902509l-16.453424-5.484474a17.355932 17.355932 0 1 1 10.986305-32.924204l16.453424 5.484475a17.355932 17.355932 0 0 1-5.50183 33.826712z" fill="#C7CAC7" p-id="3528"></path></svg>