<svg xmlns="http://www.w3.org/2000/svg" viewBox="0 0 1024 1024" version="1.1"><path d="M512 512m-512 0a512 512 0 1 0 1024 0 512 512 0 1 0-1024 0Z" fill="#4B6DAA" p-id="4023"></path><path d="M582.603034 776.827586a17.619862 17.619862 0 0 1-10.416551-3.407448l-264.827586-194.206897a17.655172 17.655172 0 0 1 20.886069-28.477793l264.827586 194.206897A17.655172 17.655172 0 0 1 582.603034 776.827586zM317.810759 441.37931a17.672828 17.672828 0 0 1-10.469518-31.885241l264.827587-194.206897a17.672828 17.672828 0 0 1 20.886069 28.477794l-264.827587 194.206896a17.496276 17.496276 0 0 1-10.416551 3.407448z" fill="#424A60" p-id="4024"></path><path d="M264.827586 494.344828m-88.275862 0a88.275862 88.275862 0 1 0 176.551724 0 88.275862 88.275862 0 1 0-176.551724 0Z" fill="#A4E869" p-id="4025"></path><path d="M670.896552 229.517241m-88.275862 0a88.275862 88.275862 0 1 0 176.551724 0 88.275862 88.275862 0 1 0-176.551724 0Z" fill="#FFFFFF" p-id="4026"></path><path d="M670.896552 759.172414m-88.275862 0a88.275862 88.275862 0 1 0 176.551724 0 88.275862 88.275862 0 1 0-176.551724 0Z" fill="#FFFFFF" p-id="4027"></path></svg>