<svg xmlns="http://www.w3.org/2000/svg" viewBox="0 0 1024 1024" version="1.1"><path d="M197.614035 511.209544m-161.68421 0a161.684211 161.684211 0 1 0 323.368421 0 161.684211 161.684211 0 1 0-323.368421 0Z" fill="#7383BF" p-id="4176"></path><path d="M826.385965 862.315789m-161.684211 0a161.684211 161.684211 0 1 0 323.368421 0 161.684211 161.684211 0 1 0-323.368421 0Z" fill="#7383BF" p-id="4177"></path><path d="M826.385965 161.684211m-161.684211 0a161.684211 161.684211 0 1 0 323.368421 0 161.684211 161.684211 0 1 0-323.368421 0Z" fill="#7383BF" p-id="4178"></path><path d="M341.638737 455.590175a17.731368 17.731368 0 0 0 9.25193-2.586947L690.571228 248.418807a17.964912 17.964912 0 1 0-18.557754-30.773895L332.350877 422.247298a17.964912 17.964912 0 0 0 9.28786 33.342877zM690.607158 775.563228L350.944561 569.37993a17.946947 17.946947 0 1 0-18.647579 30.702035L671.959579 806.265263a17.964912 17.964912 0 0 0 18.647579-30.702035z" fill="#424A60" p-id="4179"></path></svg>