<svg xmlns="http://www.w3.org/2000/svg" viewBox="0 0 1024 1024" version="1.1"><path d="M168.424227 722.035071a17.300255 17.300255 0 0 1-12.268084-5.084227C-40.029094 520.748255-40.029094 201.500423 156.156143 5.297834a17.334959 17.334959 0 1 1 24.536169 24.536169C-1.975474 212.501789-1.975474 509.729537 180.692312 692.414675a17.334959 17.334959 0 0 1-12.268085 29.620396zM855.541068 722.035071a17.334959 17.334959 0 0 1-12.268084-29.620396c88.357971-88.340619 137.013854-205.989293 137.013853-331.290336S931.630955 118.174622 843.272984 29.834003A17.334959 17.334959 0 1 1 867.809152 5.297834c94.917145 94.899793 147.164956 221.259327 147.164956 355.826505s-52.265163 260.926712-147.164956 355.826505a17.300255 17.300255 0 0 1-12.268084 5.084227z" fill="#ED8A19" p-id="5100"></path><path d="M242.067438 648.409212a17.300255 17.300255 0 0 1-12.268084-5.084227c-155.615532-155.615532-155.615532-408.820465 0-564.418644a17.334959 17.334959 0 1 1 24.536169 24.536169c-142.080729 142.080729-142.080729 373.265578 0 515.346306a17.334959 17.334959 0 0 1-12.268085 29.620396zM781.932562 648.409212a17.334959 17.334959 0 0 1-12.268085-29.620396c142.080729-142.080729 142.080729-373.265578 0-515.346306a17.334959 17.334959 0 1 1 24.536169-24.536169c155.615532 155.615532 155.615532 408.820465 0 564.418644a17.230846 17.230846 0 0 1-12.268084 5.084227z" fill="#EBBA16" p-id="5101"></path><path d="M315.675945 574.783354a17.300255 17.300255 0 0 1-12.268085-5.084228c-55.631511-55.631511-86.275694-129.70853-86.275694-208.592139s30.644183-152.943276 86.275694-208.59214a17.334959 17.334959 0 1 1 24.536169 24.536169c-101.493671 101.493671-101.493671 266.600918 0 368.094589a17.334959 17.334959 0 0 1-12.268084 29.637749zM708.324055 574.783354a17.334959 17.334959 0 0 1-12.268084-29.620397c101.493671-101.493671 101.493671-266.600918 0-368.094589a17.334959 17.334959 0 1 1 24.536169-24.536169c55.631511 55.631511 86.275694 129.70853 86.275694 208.59214s-30.644183 152.943276-86.275694 208.592139a17.317607 17.317607 0 0 1-12.268085 5.066876z" fill="#EFCE4A" p-id="5102"></path><path d="M616.11387 364.612154a104.11387 104.11387 0 1 0-208.22774 0 104.061814 104.061814 0 0 0 87.056548 102.604219c-0.052057 0.520569-0.312342 0.971729-0.312342 1.509651v537.921664a17.352312 17.352312 0 1 0 34.704623 0V468.726024c0-0.537922-0.260285-0.989082-0.312341-1.509651A104.061814 104.061814 0 0 0 616.11387 364.612154z" fill="#DC691D" p-id="5103"></path></svg>