<svg xmlns="http://www.w3.org/2000/svg" viewBox="0 0 1024 1024" version="1.1"><path d="M834.178169 279.499932l-653.103728-91.795525 8.313491-59.183729A44.379119 44.379119 0 0 1 239.511864 90.754169l565.213289 79.438102a44.379119 44.379119 0 0 1 37.766508 50.123932l-8.313492 59.183729z" fill="#556080" p-id="2883"></path><path d="M418.989559 115.989695l9.667255-68.746848a34.816 34.816 0 0 1 39.20705-29.539796l137.493695 19.317152a34.816 34.816 0 0 1 29.539797 39.207051l-9.667254 68.746848-206.240543-28.984407z" fill="#FFFFFF" p-id="2884"></path><path d="M218.632678 347.118644h184.441491l5.953085-5.953085L310.844746 242.983051l-93.73939 93.73939a6.282847 6.282847 0 0 0 0 8.868881l1.527322 1.527322z" fill="#EBBA16" p-id="2885"></path><path d="M426.383186 295.050847h138.847458v52.067797h-138.847458z" fill="#DD352E" p-id="2886"></path><path d="M617.298441 295.050847h86.779661v52.067797h-86.779661z" fill="#694F87" p-id="2887"></path><path d="M743.493424 1024H248.137763a47.381695 47.381695 0 0 1-47.364339-47.364339V347.118644h590.101695v629.517017A47.381695 47.381695 0 0 1 743.493424 1024z" fill="#556080" p-id="2888"></path><path d="M287.535729 485.966102m-17.355932 0a17.355932 17.355932 0 1 0 34.711864 0 17.355932 17.355932 0 1 0-34.711864 0Z" fill="#7383BF" p-id="2889"></path><path d="M287.535729 590.101695m-17.355932 0a17.355932 17.355932 0 1 0 34.711864 0 17.355932 17.355932 0 1 0-34.711864 0Z" fill="#7383BF" p-id="2890"></path><path d="M339.603525 433.898305m-17.355932 0a17.355932 17.355932 0 1 0 34.711865 0 17.355932 17.355932 0 1 0-34.711865 0Z" fill="#7383BF" p-id="2891"></path><path d="M443.739119 433.898305m-17.355933 0a17.355932 17.355932 0 1 0 34.711865 0 17.355932 17.355932 0 1 0-34.711865 0Z" fill="#7383BF" p-id="2892"></path><path d="M339.603525 538.033898m-17.355932 0a17.355932 17.355932 0 1 0 34.711865 0 17.355932 17.355932 0 1 0-34.711865 0Z" fill="#7383BF" p-id="2893"></path><path d="M443.739119 538.033898m-17.355933 0a17.355932 17.355932 0 1 0 34.711865 0 17.355932 17.355932 0 1 0-34.711865 0Z" fill="#7383BF" p-id="2894"></path><path d="M391.671322 485.966102m-17.355932 0a17.355932 17.355932 0 1 0 34.711864 0 17.355932 17.355932 0 1 0-34.711864 0Z" fill="#7383BF" p-id="2895"></path><path d="M495.806915 485.966102m-17.355932 0a17.355932 17.355932 0 1 0 34.711864 0 17.355932 17.355932 0 1 0-34.711864 0Z" fill="#7383BF" p-id="2896"></path><path d="M391.671322 590.101695m-17.355932 0a17.355932 17.355932 0 1 0 34.711864 0 17.355932 17.355932 0 1 0-34.711864 0Z" fill="#7383BF" p-id="2897"></path><path d="M495.806915 590.101695m-17.355932 0a17.355932 17.355932 0 1 0 34.711864 0 17.355932 17.355932 0 1 0-34.711864 0Z" fill="#7383BF" p-id="2898"></path><path d="M547.874712 433.898305m-17.355932 0a17.355932 17.355932 0 1 0 34.711864 0 17.355932 17.355932 0 1 0-34.711864 0Z" fill="#7383BF" p-id="2899"></path><path d="M652.010305 433.898305m-17.355932 0a17.355932 17.355932 0 1 0 34.711864 0 17.355932 17.355932 0 1 0-34.711864 0Z" fill="#7383BF" p-id="2900"></path><path d="M547.874712 538.033898m-17.355932 0a17.355932 17.355932 0 1 0 34.711864 0 17.355932 17.355932 0 1 0-34.711864 0Z" fill="#7383BF" p-id="2901"></path><path d="M652.010305 538.033898m-17.355932 0a17.355932 17.355932 0 1 0 34.711864 0 17.355932 17.355932 0 1 0-34.711864 0Z" fill="#7383BF" p-id="2902"></path><path d="M599.942508 485.966102m-17.355932 0a17.355932 17.355932 0 1 0 34.711865 0 17.355932 17.355932 0 1 0-34.711865 0Z" fill="#7383BF" p-id="2903"></path><path d="M704.078102 485.966102m-17.355933 0a17.355932 17.355932 0 1 0 34.711865 0 17.355932 17.355932 0 1 0-34.711865 0Z" fill="#7383BF" p-id="2904"></path><path d="M599.942508 590.101695m-17.355932 0a17.355932 17.355932 0 1 0 34.711865 0 17.355932 17.355932 0 1 0-34.711865 0Z" fill="#7383BF" p-id="2905"></path><path d="M704.078102 590.101695m-17.355933 0a17.355932 17.355932 0 1 0 34.711865 0 17.355932 17.355932 0 1 0-34.711865 0Z" fill="#7383BF" p-id="2906"></path><path d="M287.535729 694.237288m-17.355932 0a17.355932 17.355932 0 1 0 34.711864 0 17.355932 17.355932 0 1 0-34.711864 0Z" fill="#7383BF" p-id="2907"></path><path d="M287.535729 798.372881m-17.355932 0a17.355932 17.355932 0 1 0 34.711864 0 17.355932 17.355932 0 1 0-34.711864 0Z" fill="#7383BF" p-id="2908"></path><path d="M339.603525 642.169492m-17.355932 0a17.355932 17.355932 0 1 0 34.711865 0 17.355932 17.355932 0 1 0-34.711865 0Z" fill="#7383BF" p-id="2909"></path><path d="M443.739119 642.169492m-17.355933 0a17.355932 17.355932 0 1 0 34.711865 0 17.355932 17.355932 0 1 0-34.711865 0Z" fill="#7383BF" p-id="2910"></path><path d="M339.603525 746.305085m-17.355932 0a17.355932 17.355932 0 1 0 34.711865 0 17.355932 17.355932 0 1 0-34.711865 0Z" fill="#7383BF" p-id="2911"></path><path d="M443.739119 746.305085m-17.355933 0a17.355932 17.355932 0 1 0 34.711865 0 17.355932 17.355932 0 1 0-34.711865 0Z" fill="#7383BF" p-id="2912"></path><path d="M391.671322 694.237288m-17.355932 0a17.355932 17.355932 0 1 0 34.711864 0 17.355932 17.355932 0 1 0-34.711864 0Z" fill="#7383BF" p-id="2913"></path><path d="M495.806915 694.237288m-17.355932 0a17.355932 17.355932 0 1 0 34.711864 0 17.355932 17.355932 0 1 0-34.711864 0Z" fill="#7383BF" p-id="2914"></path><path d="M391.671322 798.372881m-17.355932 0a17.355932 17.355932 0 1 0 34.711864 0 17.355932 17.355932 0 1 0-34.711864 0Z" fill="#7383BF" p-id="2915"></path><path d="M495.806915 798.372881m-17.355932 0a17.355932 17.355932 0 1 0 34.711864 0 17.355932 17.355932 0 1 0-34.711864 0Z" fill="#7383BF" p-id="2916"></path><path d="M547.874712 642.169492m-17.355932 0a17.355932 17.355932 0 1 0 34.711864 0 17.355932 17.355932 0 1 0-34.711864 0Z" fill="#7383BF" p-id="2917"></path><path d="M652.010305 642.169492m-17.355932 0a17.355932 17.355932 0 1 0 34.711864 0 17.355932 17.355932 0 1 0-34.711864 0Z" fill="#7383BF" p-id="2918"></path><path d="M547.874712 746.305085m-17.355932 0a17.355932 17.355932 0 1 0 34.711864 0 17.355932 17.355932 0 1 0-34.711864 0Z" fill="#7383BF" p-id="2919"></path><path d="M652.010305 746.305085m-17.355932 0a17.355932 17.355932 0 1 0 34.711864 0 17.355932 17.355932 0 1 0-34.711864 0Z" fill="#7383BF" p-id="2920"></path><path d="M599.942508 694.237288m-17.355932 0a17.355932 17.355932 0 1 0 34.711865 0 17.355932 17.355932 0 1 0-34.711865 0Z" fill="#7383BF" p-id="2921"></path><path d="M704.078102 694.237288m-17.355933 0a17.355932 17.355932 0 1 0 34.711865 0 17.355932 17.355932 0 1 0-34.711865 0Z" fill="#7383BF" p-id="2922"></path><path d="M599.942508 798.372881m-17.355932 0a17.355932 17.355932 0 1 0 34.711865 0 17.355932 17.355932 0 1 0-34.711865 0Z" fill="#7383BF" p-id="2923"></path><path d="M704.078102 798.372881m-17.355933 0a17.355932 17.355932 0 1 0 34.711865 0 17.355932 17.355932 0 1 0-34.711865 0Z" fill="#7383BF" p-id="2924"></path><path d="M287.535729 902.508475m-17.355932 0a17.355932 17.355932 0 1 0 34.711864 0 17.355932 17.355932 0 1 0-34.711864 0Z" fill="#7383BF" p-id="2925"></path><path d="M339.603525 850.440678m-17.355932 0a17.355932 17.355932 0 1 0 34.711865 0 17.355932 17.355932 0 1 0-34.711865 0Z" fill="#7383BF" p-id="2926"></path><path d="M443.739119 850.440678m-17.355933 0a17.355932 17.355932 0 1 0 34.711865 0 17.355932 17.355932 0 1 0-34.711865 0Z" fill="#7383BF" p-id="2927"></path><path d="M339.603525 954.576271m-17.355932 0a17.355932 17.355932 0 1 0 34.711865 0 17.355932 17.355932 0 1 0-34.711865 0Z" fill="#7383BF" p-id="2928"></path><path d="M443.739119 954.576271m-17.355933 0a17.355932 17.355932 0 1 0 34.711865 0 17.355932 17.355932 0 1 0-34.711865 0Z" fill="#7383BF" p-id="2929"></path><path d="M391.671322 902.508475m-17.355932 0a17.355932 17.355932 0 1 0 34.711864 0 17.355932 17.355932 0 1 0-34.711864 0Z" fill="#7383BF" p-id="2930"></path><path d="M495.806915 902.508475m-17.355932 0a17.355932 17.355932 0 1 0 34.711864 0 17.355932 17.355932 0 1 0-34.711864 0Z" fill="#7383BF" p-id="2931"></path><path d="M547.874712 850.440678m-17.355932 0a17.355932 17.355932 0 1 0 34.711864 0 17.355932 17.355932 0 1 0-34.711864 0Z" fill="#7383BF" p-id="2932"></path><path d="M652.010305 850.440678m-17.355932 0a17.355932 17.355932 0 1 0 34.711864 0 17.355932 17.355932 0 1 0-34.711864 0Z" fill="#7383BF" p-id="2933"></path><path d="M547.874712 954.576271m-17.355932 0a17.355932 17.355932 0 1 0 34.711864 0 17.355932 17.355932 0 1 0-34.711864 0Z" fill="#7383BF" p-id="2934"></path><path d="M652.010305 954.576271m-17.355932 0a17.355932 17.355932 0 1 0 34.711864 0 17.355932 17.355932 0 1 0-34.711864 0Z" fill="#7383BF" p-id="2935"></path><path d="M599.942508 902.508475m-17.355932 0a17.355932 17.355932 0 1 0 34.711865 0 17.355932 17.355932 0 1 0-34.711865 0Z" fill="#7383BF" p-id="2936"></path><path d="M704.078102 902.508475m-17.355933 0a17.355932 17.355932 0 1 0 34.711865 0 17.355932 17.355932 0 1 0-34.711865 0Z" fill="#7383BF" p-id="2937"></path><path d="M834.178169 279.499932l-653.103728-91.795525 8.313491-59.183729A44.379119 44.379119 0 0 1 239.511864 90.754169l565.213289 79.438102a44.379119 44.379119 0 0 1 37.766508 50.123932l-8.313492 59.183729z" fill="#556080" p-id="2938"></path><path d="M418.989559 115.989695l9.667255-68.746848a34.816 34.816 0 0 1 39.20705-29.539796l137.493695 19.317152a34.816 34.816 0 0 1 29.539797 39.207051l-9.667254 68.746848-206.240543-28.984407z" fill="#FFFFFF" p-id="2939"></path><path d="M218.632678 347.118644h184.441491l5.953085-5.953085L310.844746 242.983051l-93.73939 93.73939a6.282847 6.282847 0 0 0 0 8.868881l1.527322 1.527322z" fill="#EBBA16" p-id="2940"></path><path d="M426.383186 295.050847h138.847458v52.067797h-138.847458z" fill="#DD352E" p-id="2941"></path><path d="M617.298441 295.050847h86.779661v52.067797h-86.779661z" fill="#694F87" p-id="2942"></path><path d="M743.493424 1024H248.137763a47.381695 47.381695 0 0 1-47.364339-47.364339V347.118644h590.101695v629.517017A47.381695 47.381695 0 0 1 743.493424 1024z" fill="#556080" p-id="2943"></path><path d="M287.535729 485.966102m-17.355932 0a17.355932 17.355932 0 1 0 34.711864 0 17.355932 17.355932 0 1 0-34.711864 0Z" fill="#7383BF" p-id="2944"></path><path d="M287.535729 590.101695m-17.355932 0a17.355932 17.355932 0 1 0 34.711864 0 17.355932 17.355932 0 1 0-34.711864 0Z" fill="#7383BF" p-id="2945"></path><path d="M339.603525 433.898305m-17.355932 0a17.355932 17.355932 0 1 0 34.711865 0 17.355932 17.355932 0 1 0-34.711865 0Z" fill="#7383BF" p-id="2946"></path><path d="M443.739119 433.898305m-17.355933 0a17.355932 17.355932 0 1 0 34.711865 0 17.355932 17.355932 0 1 0-34.711865 0Z" fill="#7383BF" p-id="2947"></path><path d="M339.603525 538.033898m-17.355932 0a17.355932 17.355932 0 1 0 34.711865 0 17.355932 17.355932 0 1 0-34.711865 0Z" fill="#7383BF" p-id="2948"></path><path d="M443.739119 538.033898m-17.355933 0a17.355932 17.355932 0 1 0 34.711865 0 17.355932 17.355932 0 1 0-34.711865 0Z" fill="#7383BF" p-id="2949"></path><path d="M391.671322 485.966102m-17.355932 0a17.355932 17.355932 0 1 0 34.711864 0 17.355932 17.355932 0 1 0-34.711864 0Z" fill="#7383BF" p-id="2950"></path><path d="M495.806915 485.966102m-17.355932 0a17.355932 17.355932 0 1 0 34.711864 0 17.355932 17.355932 0 1 0-34.711864 0Z" fill="#7383BF" p-id="2951"></path><path d="M391.671322 590.101695m-17.355932 0a17.355932 17.355932 0 1 0 34.711864 0 17.355932 17.355932 0 1 0-34.711864 0Z" fill="#7383BF" p-id="2952"></path><path d="M495.806915 590.101695m-17.355932 0a17.355932 17.355932 0 1 0 34.711864 0 17.355932 17.355932 0 1 0-34.711864 0Z" fill="#7383BF" p-id="2953"></path><path d="M547.874712 433.898305m-17.355932 0a17.355932 17.355932 0 1 0 34.711864 0 17.355932 17.355932 0 1 0-34.711864 0Z" fill="#7383BF" p-id="2954"></path><path d="M652.010305 433.898305m-17.355932 0a17.355932 17.355932 0 1 0 34.711864 0 17.355932 17.355932 0 1 0-34.711864 0Z" fill="#7383BF" p-id="2955"></path><path d="M547.874712 538.033898m-17.355932 0a17.355932 17.355932 0 1 0 34.711864 0 17.355932 17.355932 0 1 0-34.711864 0Z" fill="#7383BF" p-id="2956"></path><path d="M652.010305 538.033898m-17.355932 0a17.355932 17.355932 0 1 0 34.711864 0 17.355932 17.355932 0 1 0-34.711864 0Z" fill="#7383BF" p-id="2957"></path><path d="M599.942508 485.966102m-17.355932 0a17.355932 17.355932 0 1 0 34.711865 0 17.355932 17.355932 0 1 0-34.711865 0Z" fill="#7383BF" p-id="2958"></path><path d="M704.078102 485.966102m-17.355933 0a17.355932 17.355932 0 1 0 34.711865 0 17.355932 17.355932 0 1 0-34.711865 0Z" fill="#7383BF" p-id="2959"></path><path d="M599.942508 590.101695m-17.355932 0a17.355932 17.355932 0 1 0 34.711865 0 17.355932 17.355932 0 1 0-34.711865 0Z" fill="#7383BF" p-id="2960"></path><path d="M704.078102 590.101695m-17.355933 0a17.355932 17.355932 0 1 0 34.711865 0 17.355932 17.355932 0 1 0-34.711865 0Z" fill="#7383BF" p-id="2961"></path><path d="M287.535729 694.237288m-17.355932 0a17.355932 17.355932 0 1 0 34.711864 0 17.355932 17.355932 0 1 0-34.711864 0Z" fill="#7383BF" p-id="2962"></path><path d="M287.535729 798.372881m-17.355932 0a17.355932 17.355932 0 1 0 34.711864 0 17.355932 17.355932 0 1 0-34.711864 0Z" fill="#7383BF" p-id="2963"></path><path d="M339.603525 642.169492m-17.355932 0a17.355932 17.355932 0 1 0 34.711865 0 17.355932 17.355932 0 1 0-34.711865 0Z" fill="#7383BF" p-id="2964"></path><path d="M443.739119 642.169492m-17.355933 0a17.355932 17.355932 0 1 0 34.711865 0 17.355932 17.355932 0 1 0-34.711865 0Z" fill="#7383BF" p-id="2965"></path><path d="M339.603525 746.305085m-17.355932 0a17.355932 17.355932 0 1 0 34.711865 0 17.355932 17.355932 0 1 0-34.711865 0Z" fill="#7383BF" p-id="2966"></path><path d="M443.739119 746.305085m-17.355933 0a17.355932 17.355932 0 1 0 34.711865 0 17.355932 17.355932 0 1 0-34.711865 0Z" fill="#7383BF" p-id="2967"></path><path d="M391.671322 694.237288m-17.355932 0a17.355932 17.355932 0 1 0 34.711864 0 17.355932 17.355932 0 1 0-34.711864 0Z" fill="#7383BF" p-id="2968"></path><path d="M495.806915 694.237288m-17.355932 0a17.355932 17.355932 0 1 0 34.711864 0 17.355932 17.355932 0 1 0-34.711864 0Z" fill="#7383BF" p-id="2969"></path><path d="M391.671322 798.372881m-17.355932 0a17.355932 17.355932 0 1 0 34.711864 0 17.355932 17.355932 0 1 0-34.711864 0Z" fill="#7383BF" p-id="2970"></path><path d="M495.806915 798.372881m-17.355932 0a17.355932 17.355932 0 1 0 34.711864 0 17.355932 17.355932 0 1 0-34.711864 0Z" fill="#7383BF" p-id="2971"></path><path d="M547.874712 642.169492m-17.355932 0a17.355932 17.355932 0 1 0 34.711864 0 17.355932 17.355932 0 1 0-34.711864 0Z" fill="#7383BF" p-id="2972"></path><path d="M652.010305 642.169492m-17.355932 0a17.355932 17.355932 0 1 0 34.711864 0 17.355932 17.355932 0 1 0-34.711864 0Z" fill="#7383BF" p-id="2973"></path><path d="M547.874712 746.305085m-17.355932 0a17.355932 17.355932 0 1 0 34.711864 0 17.355932 17.355932 0 1 0-34.711864 0Z" fill="#7383BF" p-id="2974"></path><path d="M652.010305 746.305085m-17.355932 0a17.355932 17.355932 0 1 0 34.711864 0 17.355932 17.355932 0 1 0-34.711864 0Z" fill="#7383BF" p-id="2975"></path><path d="M599.942508 694.237288m-17.355932 0a17.355932 17.355932 0 1 0 34.711865 0 17.355932 17.355932 0 1 0-34.711865 0Z" fill="#7383BF" p-id="2976"></path><path d="M704.078102 694.237288m-17.355933 0a17.355932 17.355932 0 1 0 34.711865 0 17.355932 17.355932 0 1 0-34.711865 0Z" fill="#7383BF" p-id="2977"></path><path d="M599.942508 798.372881m-17.355932 0a17.355932 17.355932 0 1 0 34.711865 0 17.355932 17.355932 0 1 0-34.711865 0Z" fill="#7383BF" p-id="2978"></path><path d="M704.078102 798.372881m-17.355933 0a17.355932 17.355932 0 1 0 34.711865 0 17.355932 17.355932 0 1 0-34.711865 0Z" fill="#7383BF" p-id="2979"></path><path d="M287.535729 902.508475m-17.355932 0a17.355932 17.355932 0 1 0 34.711864 0 17.355932 17.355932 0 1 0-34.711864 0Z" fill="#7383BF" p-id="2980"></path><path d="M339.603525 850.440678m-17.355932 0a17.355932 17.355932 0 1 0 34.711865 0 17.355932 17.355932 0 1 0-34.711865 0Z" fill="#7383BF" p-id="2981"></path><path d="M443.739119 850.440678m-17.355933 0a17.355932 17.355932 0 1 0 34.711865 0 17.355932 17.355932 0 1 0-34.711865 0Z" fill="#7383BF" p-id="2982"></path><path d="M339.603525 954.576271m-17.355932 0a17.355932 17.355932 0 1 0 34.711865 0 17.355932 17.355932 0 1 0-34.711865 0Z" fill="#7383BF" p-id="2983"></path><path d="M443.739119 954.576271m-17.355933 0a17.355932 17.355932 0 1 0 34.711865 0 17.355932 17.355932 0 1 0-34.711865 0Z" fill="#7383BF" p-id="2984"></path><path d="M391.671322 902.508475m-17.355932 0a17.355932 17.355932 0 1 0 34.711864 0 17.355932 17.355932 0 1 0-34.711864 0Z" fill="#7383BF" p-id="2985"></path><path d="M495.806915 902.508475m-17.355932 0a17.355932 17.355932 0 1 0 34.711864 0 17.355932 17.355932 0 1 0-34.711864 0Z" fill="#7383BF" p-id="2986"></path><path d="M547.874712 850.440678m-17.355932 0a17.355932 17.355932 0 1 0 34.711864 0 17.355932 17.355932 0 1 0-34.711864 0Z" fill="#7383BF" p-id="2987"></path><path d="M652.010305 850.440678m-17.355932 0a17.355932 17.355932 0 1 0 34.711864 0 17.355932 17.355932 0 1 0-34.711864 0Z" fill="#7383BF" p-id="2988"></path><path d="M547.874712 954.576271m-17.355932 0a17.355932 17.355932 0 1 0 34.711864 0 17.355932 17.355932 0 1 0-34.711864 0Z" fill="#7383BF" p-id="2989"></path><path d="M652.010305 954.576271m-17.355932 0a17.355932 17.355932 0 1 0 34.711864 0 17.355932 17.355932 0 1 0-34.711864 0Z" fill="#7383BF" p-id="2990"></path><path d="M599.942508 902.508475m-17.355932 0a17.355932 17.355932 0 1 0 34.711865 0 17.355932 17.355932 0 1 0-34.711865 0Z" fill="#7383BF" p-id="2991"></path><path d="M704.078102 902.508475m-17.355933 0a17.355932 17.355932 0 1 0 34.711865 0 17.355932 17.355932 0 1 0-34.711865 0Z" fill="#7383BF" p-id="2992"></path></svg>