<svg xmlns="http://www.w3.org/2000/svg" viewBox="0 0 1024 1024" version="1.1"><path d="M0 708.266667h1024v307.2H0z" fill="#424A60" p-id="3679"></path><path d="M955.733333 878.933333h-68.266666v-34.133333h68.266666v34.133333z m-136.533333 0h-68.266667v-34.133333h68.266667v34.133333z m-136.533333 0h-68.266667v-34.133333h68.266667v34.133333z m-136.533334 0h-68.266666v-34.133333h68.266666v34.133333z m-136.533333 0h-68.266667v-34.133333h68.266667v34.133333z m-136.533333 0h-68.266667v-34.133333h68.266667v34.133333z m-136.533334 0H68.266667v-34.133333h68.266666v34.133333z" fill="#FFFFFF" p-id="3680"></path><path d="M751.445333 99.396267c-121.1392-121.1392-317.559467-121.1392-438.715733 0-109.1584 109.1584-121.4464 314.709333-28.808533 438.203733l248.1664 358.4 248.1664-358.4c92.637867-123.511467 80.349867-329.045333-28.808534-438.203733zM535.108267 418.133333a102.4 102.4 0 1 1 0-204.8 102.4 102.4 0 0 1 0 204.8z" fill="#23A24D" p-id="3681"></path></svg>