<svg xmlns="http://www.w3.org/2000/svg" viewBox="0 0 1024 1024" version="1.1"><path d="M876.214237 0z" fill="#ED8A19" p-id="3415"></path><path d="M841.762712 121.491525h69.423729v69.423729h-69.423729z" fill="#E0E1E2" p-id="3416"></path><path d="M856.949153 5.883661l0 0zM911.186441 0h-34.972204a34.538305 34.538305 0 0 0-19.265084 5.883661 34.434169 34.434169 0 0 0-15.186441 28.567864V121.491525h69.423729V0z" fill="#D75A4A" p-id="3417"></path><path d="M911.186441 190.915254h69.423728v659.525424h-69.423728z" fill="#DB7B1B" p-id="3418"></path><path d="M911.186441 121.491525h69.423728v69.423729h-69.423728z" fill="#C4C4C4" p-id="3419"></path><path d="M980.610169 121.491525V34.451525A34.434169 34.434169 0 0 0 946.158644 0H911.186441v121.491525h69.423728z" fill="#B74C44" p-id="3420"></path><path d="M373.152542 0h156.20339v86.779661h-156.20339z" fill="#303644" p-id="3421"></path><path d="M841.762712 850.440678V34.711864h-312.40678v52.067797h-156.20339V34.711864h-329.762711v971.932204h815.728813v-125.830509z" fill="#424A60" p-id="3422"></path><path d="M529.355932 34.711864v52.067797h-156.20339V34.711864h-121.491525v104.135594h399.186441V34.711864z" fill="#7383BF" p-id="3423"></path><path d="M650.847458 121.491525v17.355933h-399.186441V121.491525h-121.491525v798.372882h642.169491V121.491525z" fill="#EDEADA" p-id="3424"></path><path d="M251.661017 312.40678h156.20339a17.355932 17.355932 0 1 0 0-34.711865h-156.20339a17.355932 17.355932 0 1 0 0 34.711865zM251.661017 433.898305h86.779661a17.355932 17.355932 0 1 0 0-34.711864h-86.779661a17.355932 17.355932 0 1 0 0 34.711864zM598.779661 399.186441h-121.491525a17.355932 17.355932 0 1 0 0 34.711864h121.491525a17.355932 17.355932 0 1 0 0-34.711864zM395.541695 404.219661c-3.141424 3.280271-5.03322 7.792814-5.03322 12.322712 0 4.512542 1.891797 9.025085 5.03322 12.322712a17.182373 17.182373 0 0 0 12.322712 5.03322c4.512542 0 9.025085-1.909153 12.322712-5.03322 3.124068-3.297627 5.03322-7.810169 5.03322-12.322712 0-4.529898-1.909153-9.042441-5.03322-12.322712-6.595254-6.421695-18.050169-6.421695-24.645424 0zM680.526102 404.219661c-6.595254-6.421695-18.050169-6.421695-24.645424 0-3.141424 3.280271-5.03322 7.792814-5.03322 12.322712 0 4.512542 1.891797 9.025085 5.03322 12.322712a17.182373 17.182373 0 0 0 12.322712 5.03322c4.686102 0 9.025085-1.909153 12.322712-5.03322 3.124068-3.297627 5.03322-7.810169 5.03322-12.322712 0-4.529898-1.909153-9.042441-5.03322-12.322712zM442.576271 520.677966h-121.491525a17.355932 17.355932 0 1 0 0 34.711865h121.491525a17.355932 17.355932 0 1 0 0-34.711865zM239.338305 525.711186a17.112949 17.112949 0 0 0-5.03322 12.322712c0 4.512542 1.891797 9.025085 5.03322 12.322712 3.280271 3.124068 7.810169 5.03322 12.322712 5.033221s9.025085-1.909153 12.322712-5.033221a17.546847 17.546847 0 0 0 0-24.645424c-6.595254-6.421695-18.050169-6.421695-24.645424 0z" fill="#CEC9AE" p-id="3425"></path><path d="M347.552542 627.191322c-38.026847 19.785763-50.818169 57.621695-55.469559 96.880814l-21.538712-18.05017c-17.026169-14.266576-41.723661 10.15322-24.541288 24.558644l48.700746 40.803797c11.489627 9.632542 29.088542 3.662102 29.626576-12.270644 1.266983-37.610305 3.072-82.319186 40.751729-101.93139 19.855186-10.361492 2.290983-40.317831-17.529492-29.991051zM509.639593 715.411525c-9.025085-16.141017-28.498441-24.142102-46.652746-19.004745-23.690847 6.69939-51.738034 35.440814-68.312949 1.839728-9.910237-20.080814-39.831864-2.481898-29.973695 17.512136 8.920949 18.084881 26.033898 31.205966 46.322983 33.531661 10.535051 1.197559 19.386576-0.225627 29.296814-3.922441 7.046508-2.638102 33.375458-23.118102 39.345898-12.444203 10.916881 19.54278 40.890576 2.048 29.973695-17.512136z" fill="#7383BF" p-id="3426"></path><path d="M980.610169 850.440678h-138.847457l69.423729 121.491525z" fill="#EBD6BD" p-id="3427"></path><path d="M893.830508 1006.644068a17.355932 17.355932 0 1 0 34.711865 0v-69.423729h-34.711865v69.423729z" fill="#4C4C4C" p-id="3428"></path><path d="M841.762712 190.915254h69.423729v659.525424h-69.423729z" fill="#ED8A19" p-id="3429"></path></svg>