<svg xmlns="http://www.w3.org/2000/svg" viewBox="0 0 1024 1024" version="1.1"><path d="M966.424151 607.212679L724.74083 376.252377a34.255698 34.255698 0 0 1 0.734189-48.842868L967.15834 104.332075C988.68166 83.890717 1024 99.289358 1024 129.120604v454.037736c0 30.314264-36.323019 45.481057-57.575849 24.054339z" fill="#EFCE4A" p-id="4709"></path><path d="M672.883925 647.245283H73.244981A73.22566 73.22566 0 0 1 0 574.000302V124.502943A76.432906 76.432906 0 0 1 76.201057 48.301887h601.10732A76.201057 76.201057 0 0 1 753.509434 124.502943v442.116831a80.857358 80.857358 0 0 1-80.625509 80.625509z" fill="#363E4B" p-id="4710"></path><path d="M222.188679 270.490566m-106.264151 0a106.264151 106.264151 0 1 0 212.528302 0 106.264151 106.264151 0 1 0-212.528302 0Z" fill="#EFCE4A" p-id="4711"></path></svg>