<svg xmlns="http://www.w3.org/2000/svg" viewBox="0 0 1024 1024" version="1.1"><path d="M726.961832 1006.949832h-429.923664a58.113937 58.113937 0 0 1-58.113937-58.113937V75.164105A58.113937 58.113937 0 0 1 297.038168 17.050168h429.906597a58.113937 58.113937 0 0 1 58.113937 58.113937v873.654722a58.09687 58.09687 0 0 1-58.09687 58.131005z" fill="#E7ECED" p-id="4275"></path><path d="M512 921.613654m-51.201707 0a51.201707 51.201707 0 1 0 102.403414 0 51.201707 51.201707 0 1 0-102.403414 0Z" fill="#FFFFFF" p-id="4276"></path><path d="M512 85.319111h-68.268942a17.067236 17.067236 0 1 1 0-34.134472h68.268942a17.067236 17.067236 0 1 1 0 34.134472zM580.268942 85.319111h-17.067235a17.067236 17.067236 0 1 1 0-34.134472h17.067235a17.067236 17.067236 0 1 1 0 34.134472z" fill="#424A60" p-id="4277"></path><path d="M954.126738 362.525151a17.050168 17.050168 0 0 1-12.066536-29.133771c63.763192-63.763192 63.763192-167.514917 0-231.295177a17.050168 17.050168 0 1 1 24.133071-24.133071c77.075636 77.075636 77.075636 202.485683 0 279.561319a16.947765 16.947765 0 0 1-12.066535 5.0007z" fill="#7383BF" p-id="4278"></path><path d="M882.256609 328.39068a17.050168 17.050168 0 0 1-12.066536-29.133771c21.11217-21.095103 32.734958-49.221907 32.734958-79.157839s-11.622787-58.045668-32.734958-79.174906A17.050168 17.050168 0 1 1 894.323144 116.791093c27.563585 27.546518 42.736358 64.258142 42.736358 103.307977s-15.172772 75.744391-42.736358 103.29091a16.947765 16.947765 0 0 1-12.066535 5.0007zM69.873262 362.525151a17.016034 17.016034 0 0 1-12.066535-5.0007c-77.075636-77.075636-77.075636-202.485683 0-279.561319a17.050168 17.050168 0 1 1 24.133071 24.133071c-63.763192 63.763192-63.763192 167.514917 0 231.295177a17.050168 17.050168 0 0 1-12.066536 29.133771z" fill="#7383BF" p-id="4279"></path><path d="M141.743391 323.69719a17.016034 17.016034 0 0 1-12.066535-5.0007c-27.563585-27.546518-42.736358-64.258142-42.736358-103.307977s15.172772-75.744391 42.736358-103.29091a17.050168 17.050168 0 1 1 24.133071 24.133071c-21.11217 21.095103-32.734958 49.221907-32.734958 79.157839s11.622787 58.045668 32.734958 79.174906a17.050168 17.050168 0 0 1-12.066536 29.133771z" fill="#7383BF" p-id="4280"></path><path d="M238.924231 119.453582h546.151538v716.823894h-546.151538z" fill="#424A60" p-id="4281"></path></svg>