<svg xmlns="http://www.w3.org/2000/svg" viewBox="0 0 1024 1024" version="1.1"><path d="M865.103448 617.931034v300.137932h52.965518v-52.965518h105.931034V300.137931H0v564.965517h105.931034v52.965518h52.965518V617.931034z" fill="#C7CAC7" p-id="3727"></path><path d="M1024 617.931034V300.137931H0v317.793103h865.103448z" fill="#556080" p-id="3728"></path><path d="M105.931034 617.931034h812.137932v300.137932H105.931034z" fill="#7383BF" p-id="3729"></path><path d="M865.103448 0v300.137931H158.896552V0zM865.103448 617.931034v406.068966H158.896552V617.931034" fill="#EDEADA" p-id="3730"></path><path d="M723.862069 776.827586H300.137931a17.655172 17.655172 0 1 1 0-35.310345h423.724138a17.655172 17.655172 0 1 1 0 35.310345zM723.862069 865.103448H300.137931a17.655172 17.655172 0 1 1 0-35.310345h423.724138a17.655172 17.655172 0 1 1 0 35.310345z" fill="#CEC9AE" p-id="3731"></path><path d="M865.103448 459.034483m-70.620689 0a70.62069 70.62069 0 1 0 141.241379 0 70.62069 70.62069 0 1 0-141.241379 0Z" fill="#A4E869" p-id="3732"></path></svg>