<svg xmlns="http://www.w3.org/2000/svg" viewBox="0 0 1024 1024" version="1.1"><path d="M512 512m-512 0a512 512 0 1 0 1024 0 512 512 0 1 0-1024 0Z" fill="#3083C9" p-id="4225"></path><path d="M635.586207 512L247.172414 776.827586V247.172414z" fill="#FFFFFF" p-id="4226"></path><path d="M247.172414 794.482759a17.637517 17.637517 0 0 1-17.655173-17.655173V247.172414a17.637517 17.637517 0 0 1 27.61269-14.583173l388.413793 264.827587a17.672828 17.672828 0 0 1-0.017655 29.166344l-388.413793 264.827587A17.690483 17.690483 0 0 1 247.172414 794.482759z m17.655172-513.889104v462.830345L604.248276 512 264.827586 280.593655z" fill="#FFFFFF" p-id="4227"></path><path d="M706.206897 247.172414h88.275862v529.655172h-88.275862z" fill="#FFFFFF" p-id="4228"></path><path d="M812.137931 794.482759h-123.586207V229.517241h123.586207v564.965518z m-88.275862-35.310345h52.965517V264.827586h-52.965517v494.344828z" fill="#FFFFFF" p-id="4229"></path></svg>