<svg xmlns="http://www.w3.org/2000/svg" viewBox="0 0 1024 1024" version="1.1"><path d="M453.333673 829.799097h423.711061v194.200903h-423.711061z" fill="#C8D2D6" p-id="4119"></path><path d="M735.807714 1024h-282.474041V829.799097h166.412519a116.061522 116.061522 0 0 1 116.061522 116.061521V1024z" fill="#E7ECED" p-id="4120"></path><path d="M621.052634 926.899548m-44.136568 0a44.136569 44.136569 0 1 0 88.273137 0 44.136569 44.136569 0 1 0-88.273137 0Z" fill="#7383BF" p-id="4121"></path><path d="M592.875849 188.971426a61.755887 61.755887 0 1 0-81.317215-81.317215l81.317215 81.317215z" fill="#FBCE9D" p-id="4122"></path><path d="M681.148987 277.244564a61.755887 61.755887 0 1 0-81.317215-81.317215l81.317215 81.317215z" fill="#FBCE9D" p-id="4123"></path><path d="M769.422124 365.517701a61.755887 61.755887 0 1 0-81.317214-81.317214l81.317214 81.317214z" fill="#FBCE9D" p-id="4124"></path><path d="M857.695262 453.790839a61.755887 61.755887 0 1 0-81.317214-81.317214l81.317214 81.317214zM497.470242 582.634311h-176.546276a61.967743 61.967743 0 0 1-61.791196-61.791196 61.967743 61.967743 0 0 1 61.791196-61.791197h176.546276a61.967743 61.967743 0 0 1 61.791196 61.791197 61.967743 61.967743 0 0 1-61.791196 61.791196z" fill="#FBCE9D" p-id="4125"></path><path d="M861.791136 557.264611l-196.319459 196.319459a40.499716 40.499716 0 0 1-57.271611 0L437.267962 582.634311h-116.326341c-10.204375 4.99626-38.045722-13.029115-27.364673-3.866363l190.881833 190.140338c1.306442 1.306442 2.82474 2.242138 4.201801 3.424998V829.799097h353.092551v-79.62237a132.056614 132.056614 0 0 0 52.963883-105.751219 131.880068 131.880068 0 0 0-32.92588-87.160897z" fill="#F7B563" p-id="4126"></path><path d="M454.957898 51.035821L180.304857 325.688862l134.033933 134.033932c2.206828-0.22951 4.343038-0.670876 6.585176-0.670876h176.546276c33.985158 0 61.791196 27.806038 61.791196 61.791197s-27.806038 61.791196-61.791196 61.791196h-60.219935l112.195158 112.195158 274.635386-274.653041L454.957898 51.035821z" fill="#424A60" p-id="4127"></path><path d="M454.957898 51.035821L415.817589 11.895512a40.499716 40.499716 0 0 0-57.271612 0L141.164548 229.259286a40.51737 40.51737 0 0 0 0 57.289266l39.140309 39.14031L454.957898 51.035821zM882.835452 478.931029l-58.754601-58.754601-274.635386 274.653041 58.736946 58.736946a40.499716 40.499716 0 0 0 57.271612 0L882.817797 536.202641a40.482061 40.482061 0 0 0 0.017655-57.271612z" fill="#E7ECED" p-id="4128"></path><path d="M726.9804 591.461625m-35.309255 0a35.309255 35.309255 0 1 0 70.61851 0 35.309255 35.309255 0 1 0-70.61851 0Z" fill="#FFFFFF" p-id="4129"></path><path d="M276.787397 194.232505a17.636973 17.636973 0 0 1-12.481822-30.136449l35.309256-35.309255a17.636973 17.636973 0 1 1 24.963643 24.963643l-35.309255 35.309255a17.601664 17.601664 0 0 1-12.481822 5.172806z" fill="#424A60" p-id="4130"></path></svg>