<svg xmlns="http://www.w3.org/2000/svg" viewBox="0 0 1024 1024" version="1.1"><path d="M425.000793 405.9963m-386.663142 0a386.663142 386.663142 0 1 0 773.326284 0 386.663142 386.663142 0 1 0-773.326284 0Z" fill="#7383BF" p-id="5005"></path><path d="M560.332893 425.329457h-270.6642a19.333157 19.333157 0 0 1 0-38.666315h270.6642a19.333157 19.333157 0 0 1 0 38.666315z" fill="#FFFFFF" p-id="5006"></path><path d="M425.000793 560.661556a19.333157 19.333157 0 0 1-19.333157-19.333157V270.6642a19.333157 19.333157 0 0 1 38.666314 0v270.664199a19.333157 19.333157 0 0 1-19.333157 19.333157z" fill="#FFFFFF" p-id="5007"></path></svg>