<svg xmlns="http://www.w3.org/2000/svg" viewBox="0 0 1024 1024" version="1.1"><path d="M8.677966 208.271186h1006.644068v815.728814H8.677966z" fill="#E7ECED" p-id="1855"></path><path d="M572.97139 26.172746l-18.501424 29.383593c101.028881 63.592136 294.547525 166.981424 296.49139 168.02278l16.331932-30.615865c-1.943864-1.024-194.369085-103.840542-294.321898-166.790508zM156.706712 192.963254l16.331932 30.615865c1.943864-1.041356 195.462508-104.430644 296.49139-168.02278l-18.501424-29.383593c-99.952814 62.93261-292.378034 165.766508-294.321898 166.790508z" fill="#7383BF" p-id="1856"></path><path d="M390.508475 485.966102m-17.355933 0a17.355932 17.355932 0 1 0 34.711865 0 17.355932 17.355932 0 1 0-34.711865 0Z" fill="#424A60" p-id="1857"></path><path d="M512 485.966102m-17.355932 0a17.355932 17.355932 0 1 0 34.711864 0 17.355932 17.355932 0 1 0-34.711864 0Z" fill="#424A60" p-id="1858"></path><path d="M633.491525 485.966102m-17.355932 0a17.355932 17.355932 0 1 0 34.711865 0 17.355932 17.355932 0 1 0-34.711865 0Z" fill="#424A60" p-id="1859"></path><path d="M754.983051 485.966102m-17.355932 0a17.355932 17.355932 0 1 0 34.711864 0 17.355932 17.355932 0 1 0-34.711864 0Z" fill="#424A60" p-id="1860"></path><path d="M876.474576 485.966102m-17.355932 0a17.355932 17.355932 0 1 0 34.711864 0 17.355932 17.355932 0 1 0-34.711864 0Z" fill="#424A60" p-id="1861"></path><path d="M147.525424 624.813559m-17.355932 0a17.355932 17.355932 0 1 0 34.711864 0 17.355932 17.355932 0 1 0-34.711864 0Z" fill="#EFCE4A" p-id="1862"></path><path d="M269.016949 624.813559m-17.355932 0a17.355932 17.355932 0 1 0 34.711864 0 17.355932 17.355932 0 1 0-34.711864 0Z" fill="#ED7161" p-id="1863"></path><path d="M147.525424 485.966102m-17.355932 0a17.355932 17.355932 0 1 0 34.711864 0 17.355932 17.355932 0 1 0-34.711864 0Z" fill="#949493" p-id="1864"></path><path d="M269.016949 485.966102m-17.355932 0a17.355932 17.355932 0 1 0 34.711864 0 17.355932 17.355932 0 1 0-34.711864 0Z" fill="#949493" p-id="1865"></path><path d="M390.508475 624.813559m-17.355933 0a17.355932 17.355932 0 1 0 34.711865 0 17.355932 17.355932 0 1 0-34.711865 0Z" fill="#424A60" p-id="1866"></path><path d="M512 624.813559m-17.355932 0a17.355932 17.355932 0 1 0 34.711864 0 17.355932 17.355932 0 1 0-34.711864 0Z" fill="#424A60" p-id="1867"></path><path d="M633.491525 624.813559m-17.355932 0a17.355932 17.355932 0 1 0 34.711865 0 17.355932 17.355932 0 1 0-34.711865 0Z" fill="#424A60" p-id="1868"></path><path d="M754.983051 624.813559m-17.355932 0a17.355932 17.355932 0 1 0 34.711864 0 17.355932 17.355932 0 1 0-34.711864 0Z" fill="#424A60" p-id="1869"></path><path d="M876.474576 624.813559m-17.355932 0a17.355932 17.355932 0 1 0 34.711864 0 17.355932 17.355932 0 1 0-34.711864 0Z" fill="#424A60" p-id="1870"></path><path d="M147.525424 746.305085m-17.355932 0a17.355932 17.355932 0 1 0 34.711864 0 17.355932 17.355932 0 1 0-34.711864 0Z" fill="#EFCE4A" p-id="1871"></path><path d="M269.016949 746.305085m-17.355932 0a17.355932 17.355932 0 1 0 34.711864 0 17.355932 17.355932 0 1 0-34.711864 0Z" fill="#ED7161" p-id="1872"></path><path d="M390.508475 746.305085m-17.355933 0a17.355932 17.355932 0 1 0 34.711865 0 17.355932 17.355932 0 1 0-34.711865 0Z" fill="#424A60" p-id="1873"></path><path d="M512 746.305085m-17.355932 0a17.355932 17.355932 0 1 0 34.711864 0 17.355932 17.355932 0 1 0-34.711864 0Z" fill="#424A60" p-id="1874"></path><path d="M633.491525 746.305085m-17.355932 0a17.355932 17.355932 0 1 0 34.711865 0 17.355932 17.355932 0 1 0-34.711865 0Z" fill="#424A60" p-id="1875"></path><path d="M754.983051 746.305085m-17.355932 0a17.355932 17.355932 0 1 0 34.711864 0 17.355932 17.355932 0 1 0-34.711864 0Z" fill="#424A60" p-id="1876"></path><path d="M876.474576 746.305085m-17.355932 0a17.355932 17.355932 0 1 0 34.711864 0 17.355932 17.355932 0 1 0-34.711864 0Z" fill="#424A60" p-id="1877"></path><path d="M754.983051 885.152542m-17.355932 0a17.355932 17.355932 0 1 0 34.711864 0 17.355932 17.355932 0 1 0-34.711864 0Z" fill="#949493" p-id="1878"></path><path d="M876.474576 885.152542m-17.355932 0a17.355932 17.355932 0 1 0 34.711864 0 17.355932 17.355932 0 1 0-34.711864 0Z" fill="#949493" p-id="1879"></path><path d="M147.525424 885.152542m-17.355932 0a17.355932 17.355932 0 1 0 34.711864 0 17.355932 17.355932 0 1 0-34.711864 0Z" fill="#EFCE4A" p-id="1880"></path><path d="M269.016949 885.152542m-17.355932 0a17.355932 17.355932 0 1 0 34.711864 0 17.355932 17.355932 0 1 0-34.711864 0Z" fill="#ED7161" p-id="1881"></path><path d="M390.508475 885.152542m-17.355933 0a17.355932 17.355932 0 1 0 34.711865 0 17.355932 17.355932 0 1 0-34.711865 0Z" fill="#424A60" p-id="1882"></path><path d="M512 885.152542m-17.355932 0a17.355932 17.355932 0 1 0 34.711864 0 17.355932 17.355932 0 1 0-34.711864 0Z" fill="#424A60" p-id="1883"></path><path d="M633.491525 885.152542m-17.355932 0a17.355932 17.355932 0 1 0 34.711865 0 17.355932 17.355932 0 1 0-34.711865 0Z" fill="#424A60" p-id="1884"></path><path d="M512 86.779661m-69.423729 0a69.423729 69.423729 0 1 0 138.847458 0 69.423729 69.423729 0 1 0-138.847458 0Z" fill="#F7E6A1" p-id="1885"></path><path d="M8.677966 208.271186h1006.644068v121.491526H8.677966z" fill="#424A60" p-id="1886"></path></svg>