<svg xmlns="http://www.w3.org/2000/svg" viewBox="0 0 1024 1024" version="1.1"><path d="M17.964912 233.579789h988.070176v215.578948H17.964912z" fill="#CB465F" p-id="3092"></path><path d="M107.789474 449.158737h826.385965v538.947368H107.789474z" fill="#EF4D4D" p-id="3093"></path><path d="M1006.035088 215.614877H749.873404A124.981895 124.981895 0 0 0 772.491228 143.629474a124.874105 124.874105 0 0 0-36.702316-88.926316 125.898105 125.898105 0 0 0-177.834666 0l-50.822737 50.822737-50.804772-50.822737a125.898105 125.898105 0 0 0-177.834667 0 124.874105 124.874105 0 0 0-36.702316 88.926316c0 26.192842 7.976421 51.056281 22.617825 71.985403H17.964912a17.964912 17.964912 0 1 0 0 35.929825h485.052632v431.157894H107.789474a17.964912 17.964912 0 1 0 0 35.929825h395.22807v269.473684a17.964912 17.964912 0 1 0 35.929824 0v-269.473684h395.228071a17.964912 17.964912 0 1 0 0-35.929825H538.947368v-431.157894h467.08772a17.964912 17.964912 0 1 0 0-35.929825zM583.356632 80.105544a89.932351 89.932351 0 0 1 127.029894 0A89.231719 89.231719 0 0 1 736.561404 143.629474c0 24.072982-9.305825 46.636912-26.174878 63.505965l-8.479438 8.479438H447.847298l71.967439-71.967438 0.017965-0.017965 0.017965-0.017965 63.505965-63.505965zM303.894456 207.135439a89.177825 89.177825 0 0 1-26.174877-63.505965c0-24.090947 9.305825-46.636912 26.174877-63.52393a89.932351 89.932351 0 0 1 127.029895 0l50.804772 50.822737-63.52393 63.52393c-5.946386 5.946386-11.174175 13.204211-16.132491 21.180631h-89.716772l-8.461474-8.497403z" fill="#EBBA16" p-id="3094"></path></svg>