<svg xmlns="http://www.w3.org/2000/svg" viewBox="0 0 1024 1024" version="1.1"><path d="M724.279261 0c-165.499586 0-300.137931 134.638345-300.137931 300.137931 0 56.408276 15.924966 109.02069 43.096276 154.14731L10.763123 910.759724a35.310345 35.310345 0 1 0 49.928827 49.928828L124.003399 897.377103l116.276965 116.276966c6.903172 6.903172 15.924966 10.345931 24.964414 10.345931s18.061241-3.442759 24.964414-10.345931a35.310345 35.310345 0 0 0 0-49.928828L173.932226 847.448276 212.279261 809.101241l80.96662 80.966621c6.903172 6.903172 15.924966 10.345931 24.964414 10.345931s18.061241-3.442759 24.964414-10.345931a35.310345 35.310345 0 0 0 0-49.928828L262.208088 759.172414 300.555123 720.825379l116.276965 116.276966c6.903172 6.903172 15.924966 10.345931 24.964414 10.345931s18.061241-3.442759 24.964414-10.345931a35.310345 35.310345 0 0 0 0-49.928828L350.48395 670.896552l160.22069-160.22069C565.170847 565.918897 640.75264 600.275862 724.279261 600.275862c165.499586 0 300.137931-134.638345 300.137931-300.137931S889.778847 0 724.279261 0z m0 529.655172c-126.552276 0-229.517241-102.964966-229.517242-229.517241S597.726985 70.62069 724.279261 70.62069s229.517241 102.964966 229.517241 229.517241-102.964966 229.517241-229.517241 229.517241z" fill="#D8A852" p-id="2640"></path></svg>