<svg xmlns="http://www.w3.org/2000/svg" viewBox="0 0 1024 1024" version="1.1"><path d="M706.206897 494.344828a35.310345 35.310345 0 0 1-35.310345-35.310345V240.128C670.896552 156.389517 595.650207 88.275862 503.172414 88.275862S335.448276 156.389517 335.448276 240.128v56.849655a35.310345 35.310345 0 0 1-70.62069 0v-56.849655C264.827586 117.442207 371.74731 17.655172 503.172414 17.655172S741.517241 117.442207 741.517241 240.128V459.034483a35.310345 35.310345 0 0 1-35.310344 35.310345z" fill="#C7CAC7" p-id="3038"></path><path d="M141.241379 459.034483h741.517242v564.965517H141.241379z" fill="#7383BF" p-id="3039"></path><path d="M512 459.034483h370.758621v564.965517H512z" fill="#6879AF" p-id="3040"></path><path d="M751.863172 1006.344828L865.103448 893.104552V829.793103h-98.621793l-176.551724 176.551725z" fill="#EBBA16" p-id="3041"></path><path d="M158.896552 829.793103v133.932138L292.82869 829.793103z" fill="#4F5970" p-id="3042"></path><path d="M540.001103 1006.344828l176.551725-176.551725h-161.933242l-176.551724 176.551725z" fill="#424A60" p-id="3043"></path><path d="M504.690759 829.793103h-161.933242l-171.378758 171.378759A17.602207 17.602207 0 0 1 158.896552 1006.344828h169.242482l176.551725-176.551725z" fill="#EACC18" p-id="3044"></path><path d="M865.103448 1006.344828v-63.311449L801.792 1006.344828z" fill="#424A60" p-id="3045"></path><path d="M512 872.41269L378.067862 1006.344828H512z" fill="#4F5970" p-id="3046"></path></svg>