<svg xmlns="http://www.w3.org/2000/svg" viewBox="0 0 1024 1024" version="1.1"><path d="M512 512m-512 0a512 512 0 1 0 1024 0 512 512 0 1 0-1024 0Z" fill="#424A60" p-id="3925"></path><path d="M938.337103 380.098207a17.619862 17.619862 0 0 0-21.627586-12.482207l-40.059586 10.734345a380.592552 380.592552 0 0 0-24.717241-59.904l35.84-20.691862a17.655172 17.655172 0 1 0-17.655173-30.578759l-36.104827 20.850759a382.057931 382.057931 0 0 0-39.176828-51.570759l29.254621-29.254621a17.637517 17.637517 0 1 0-24.964414-24.964413l-29.184 29.184a378.491586 378.491586 0 0 0-51.570759-39.247449l20.762483-35.945931a17.655172 17.655172 0 1 0-30.578759-17.655172l-20.815448 36.051862a384.441379 384.441379 0 0 0-59.868689-24.593655l10.82262-40.395035a17.655172 17.655172 0 0 0-34.109793-9.145379l-10.822621 40.395035A382.834759 382.834759 0 0 0 529.655172 112.251586V70.62069a17.655172 17.655172 0 1 0-35.310344 0v41.524965a379.021241 379.021241 0 0 0-64.282483 8.209655l-10.681379-39.865379a17.655172 17.655172 0 0 0-34.109794 9.145379l10.699035 39.953656a383.682207 383.682207 0 0 0-59.727448 25.070344l-20.833104-36.087172a17.655172 17.655172 0 1 0-30.561103 17.655172l20.691862 35.822345a379.268414 379.268414 0 0 0-51.376552 39.494621l-29.307586-29.307586a17.637517 17.637517 0 1 0-24.964414 24.964413l29.378207 29.378207a384.617931 384.617931 0 0 0-39.335724 51.429518l-36.069517-20.815449a17.655172 17.655172 0 0 0-17.655173 30.578759l36.104828 20.850759a386.683586 386.683586 0 0 0-24.770207 59.798069l-40.271448-10.804966a17.655172 17.655172 0 1 0-9.14538 34.109793l40.271449 10.804966a381.810759 381.810759 0 0 0-9.110069 83.350069 17.655172 17.655172 0 0 0 17.655172 17.602206h0.052966a17.655172 17.655172 0 0 0 17.602206-17.708137 349.254621 349.254621 0 0 1 89.617656-234.231173l133.649655 133.649655a158.402207 158.402207 0 0 0-29.360552 58.032552 157.801931 157.801931 0 0 0 15.854345 120.549517A159.585103 159.585103 0 0 0 512.123586 653.241379a158.931862 158.931862 0 0 0 79.307035-21.309793 157.73131 157.73131 0 0 0 74.010482-96.467862 157.801931 157.801931 0 0 0-15.854344-120.549517 158.825931 158.825931 0 0 0-13.594483-19.614897l133.896827-133.896827a347.10069 347.10069 0 0 1 43.149242 59.144827 347.10069 347.10069 0 0 1 46.256552 175.209931 17.655172 17.655172 0 0 0 17.566896 17.743449h0.088276a17.655172 17.655172 0 0 0 17.655172-17.566897 384.54731 384.54731 0 0 0-8.898207-83.42069l40.130207-10.769655a17.655172 17.655172 0 0 0 12.499862-21.645241zM511.876414 335.448276a158.931862 158.931862 0 0 0-79.307035 21.309793c-6.973793 4.025379-13.417931 8.651034-19.614896 13.559172l-133.808552-133.808551a343.852138 343.852138 0 0 1 59.056552-43.219862c133.702621-77.206069 297.807448-55.048828 406.722207 43.166896l-133.914483 133.914483A159.426207 159.426207 0 0 0 511.876414 335.448276z m119.472552 190.887724a122.738759 122.738759 0 0 1-57.573518 75.016828 123.480276 123.480276 0 0 1-61.651862 16.578206 124.009931 124.009931 0 0 1-107.131586-61.810758c-16.507586-28.583724-20.886069-61.881379-12.340966-93.766621s28.989793-58.509241 57.573518-75.016827A123.480276 123.480276 0 0 1 511.876414 370.758621a124.009931 124.009931 0 0 1 107.131586 61.810758 122.721103 122.721103 0 0 1 12.340966 93.766621z" fill="#FFFFFF" p-id="3926"></path><path d="M459.034483 820.965517h-38.964966c-0.282483 0-0.512 0.141241-0.776827 0.158897a241.11669 241.11669 0 0 0-23.675587-88.681931c0.211862-0.123586 0.459034-0.158897 0.670897-0.282483l33.739034-19.49131a17.655172 17.655172 0 1 0-17.655172-30.578759l-33.739034 19.49131c-0.264828 0.158897-0.423724 0.423724-0.670897 0.600276a241.452138 241.452138 0 0 0-64.882759-64.918069c0.158897-0.247172 0.388414-0.441379 0.529656-0.688551l19.49131-33.739035a17.655172 17.655172 0 0 0-30.578759-17.655172l-19.49131 33.739034c-0.105931 0.194207-0.105931 0.423724-0.211862 0.617931a244.912552 244.912552 0 0 0-88.734897-23.781517c0-0.229517 0.123586-0.406069 0.123587-0.635586V556.137931a17.655172 17.655172 0 1 0-35.310345 0v38.964966c0 0.300138 0.158897 0.54731 0.176551 0.865103a242.052414 242.052414 0 0 0-104.271448 31.761655c-12.676414 7.326897-24.258207 15.766069-35.080827 24.858483a510.075586 510.075586 0 0 0 68.184275 145.95531 96.891586 96.891586 0 0 1 39.971311-44.296827 97.403586 97.403586 0 0 1 97.421241 168.730482 96.344276 96.344276 0 0 1-11.034483 5.384828 509.810759 509.810759 0 0 0 144.101518 72.139035 244.329931 244.329931 0 0 0 60.892689-144.401656c0.300138 0.017655 0.54731 0.176552 0.847449 0.176552H459.034483a17.655172 17.655172 0 1 0 0-35.310345z" fill="#C7CAC7" p-id="3927"></path><path d="M864.926897 587.158069c0.017655-0.300138 0.176552-0.564966 0.176551-0.882759V547.310345a17.655172 17.655172 0 1 0-35.310345 0v38.964965c0 0.282483 0.141241 0.494345 0.158897 0.776828-30.102069 2.118621-60.204138 9.833931-88.734897 23.693241-0.105931-0.211862-0.105931-0.459034-0.229517-0.670896l-19.49131-33.739035a17.655172 17.655172 0 1 0-30.578759 17.637518l19.491311 33.739034c0.158897 0.264828 0.388414 0.459034 0.54731 0.706207a241.452138 241.452138 0 0 0-64.900414 64.900414c-0.247172-0.158897-0.388414-0.423724-0.653241-0.582621l-33.739035-19.49131a17.655172 17.655172 0 0 0-17.655172 30.578758l33.739034 19.491311c0.194207 0.105931 0.406069 0.141241 0.600276 0.247172a244.983172 244.983172 0 0 0-23.763862 88.699586c-0.247172 0-0.423724-0.123586-0.653241-0.123586H564.965517a17.655172 17.655172 0 1 0 0 35.310345h38.964966c0.300138 0 0.564966-0.158897 0.865103-0.176552a242.052414 242.052414 0 0 0 31.761655 104.271448c10.063448 17.425655 22.121931 32.909241 35.469242 46.803862a510.340414 510.340414 0 0 0 145.690483-75.952551 96.909241 96.909241 0 0 1-54.607449-43.908414 97.421241 97.421241 0 0 1 168.712828-97.403586c2.630621 4.555034 4.731586 9.268966 6.550069 14.035862a508.804414 508.804414 0 0 0 67.954758-149.645242 244.594759 244.594759 0 0 0-141.400275-58.315034z" fill="#ED7161" p-id="3928"></path></svg>