<svg xmlns="http://www.w3.org/2000/svg" viewBox="0 0 1024 1024" version="1.1"><path d="M967.20331 882.758621H56.79669A56.79669 56.79669 0 0 1 0 825.961931V198.038069A56.79669 56.79669 0 0 1 56.79669 141.241379h910.40662A56.79669 56.79669 0 0 1 1024 198.038069v627.923862A56.79669 56.79669 0 0 1 967.20331 882.758621z" fill="#E7ECED" p-id="2784"></path><path d="M582.62069 441.37931h353.103448v353.103449H582.62069z" fill="#424A60" p-id="2785"></path><path d="M843.758345 743.141517l-44.332138-22.651586a9.021793 9.021793 0 0 1-4.943448-8.050759v-13.576827c22.757517-9.798621 35.84-28.848552 42.195862-52.665379 9.586759-2.966069 16.648828-11.846621 16.648827-22.386759v-11.776c0-9.021793-5.190621-16.790069-12.676414-20.744828-5.190621-44.261517-34.445241-62.163862-81.47862-62.163862-2.224552 0-4.413793 0.088276-6.550069 0.264828-15.977931 1.271172-32.150069-1.730207-45.444414-10.699035-5.526069-3.725241-10.187034-7.68-13.453241-11.828965-1.483034-1.889103-4.484414-0.688552-4.201931 1.712552 0.47669 4.113655 1.165241 8.915862 2.206896 14.177103 3.884138 19.544276 1.57131 16.684138-5.985103 35.133793a121.520552 121.520552 0 0 0-8.12138 33.491862 23.51669 23.51669 0 0 0-12.605793 20.709517v11.776c0 10.540138 7.062069 19.403034 16.648828 22.386759 6.355862 23.816828 19.438345 42.866759 42.195862 52.665379v13.470897a9.057103 9.057103 0 0 1-5.049379 8.121379l-45.444414 22.386759a38.611862 38.611862 0 0 0-20.126897 33.897931v15.607172c0 0.741517 0.194207 1.447724 0.494345 2.136276h210.891035a6.17931 6.17931 0 0 0 0.476689-2.189241V777.69269c0-14.636138-8.262621-28.001103-21.345103-34.551173z" fill="#FFFFFF" p-id="2786"></path><path d="M0 229.517241h1024v141.24138H0z" fill="#38454F" p-id="2787"></path><path d="M247.172414 459.034483H88.275862a17.655172 17.655172 0 1 0 0 35.310345h158.896552a17.655172 17.655172 0 1 0 0-35.310345zM494.344828 476.689655a17.655172 17.655172 0 0 0-17.655173-17.655172h-158.896552a17.655172 17.655172 0 1 0 0 35.310345h158.896552a17.655172 17.655172 0 0 0 17.655173-17.655173zM105.931034 547.310345H88.275862a17.655172 17.655172 0 1 0 0 35.310345h17.655172a17.655172 17.655172 0 1 0 0-35.310345zM211.862069 547.310345h-35.310345a17.655172 17.655172 0 1 0 0 35.310345h35.310345a17.655172 17.655172 0 1 0 0-35.310345zM300.137931 547.310345h-17.655172a17.655172 17.655172 0 1 0 0 35.310345h17.655172a17.655172 17.655172 0 1 0 0-35.310345zM406.068966 547.310345h-35.310345a17.655172 17.655172 0 1 0 0 35.310345h35.310345a17.655172 17.655172 0 1 0 0-35.310345zM464.154483 552.430345c-3.195586 3.336828-5.12 7.750621-5.12 12.535172 0 4.766897 1.924414 9.18069 5.12 12.535173 3.336828 3.177931 7.944828 5.12 12.535172 5.12s9.18069-1.942069 12.535173-5.12c3.177931-3.354483 5.12-7.944828 5.12-12.535173s-1.942069-9.198345-5.12-12.535172c-6.532414-6.532414-18.537931-6.532414-25.070345 0z" fill="#AFB6BB" p-id="2788"></path><path d="M188.045241 642.648276c-38.682483 20.126897-51.694345 58.615172-56.425931 98.551172l-21.910069-18.361379c-17.319724-14.512552-42.443034 10.328276-24.964413 24.964414l49.540413 41.50731c11.670069 9.798621 29.590069 3.725241 30.13738-12.482207 1.288828-38.258759 3.124966-83.738483 41.454345-103.688827 20.197517-10.504828 2.348138-40.977655-17.831725-30.490483z" fill="#7383BF" p-id="2789"></path><path d="M455.750621 715.264c-7.468138-10.222345-15.165793-18.767448-28.813242-19.791448-25.723586-1.942069-69.879172 34.868966-88.13462 2.330482-4.625655-8.262621-16.066207-11.29931-24.152276-6.338206-24.999724 15.342345-57.679448 37.41131-83.968 8.827586-15.448276-16.790069-40.359724 8.244966-24.964414 24.964414 33.032828 35.892966 75.634759 24.893793 113.11669 4.572689 7.909517 8.492138 17.37269 14.30069 29.960827 18.838069 16.048552 5.790897 72.15669-21.53931 76.499862-15.589517 13.241379 18.202483 43.908414 0.617931 30.455173-17.814069z" fill="#7383BF" p-id="2790"></path></svg>