<svg xmlns="http://www.w3.org/2000/svg" viewBox="0 0 1024 1024" version="1.1"><path d="M740.571429 0h256v658.285714h-256z" fill="#4B6DAA" p-id="2082"></path><path d="M868.571429 164.571429m-73.142858 0a73.142857 73.142857 0 1 0 146.285715 0 73.142857 73.142857 0 1 0-146.285715 0Z" fill="#D8A852" p-id="2083"></path><path d="M45.714286 548.571429a73.142857 73.142857 0 0 0 73.142857 73.142857h285.293714l-18.066286 84.461714c-13.787429 64.438857-10.093714 142.976-1.901714 198.144 8.192 55.168 57.6 119.68 109.293714 119.68h4.370286c44.068571 0 59.867429-48.621714 59.867429-109.714286 0-297.142857 146.285714-292.571429 146.285714-292.571428h36.571429V36.571429h-530.285715a73.142857 73.142857 0 0 0 0 146.285714h-54.857143a73.142857 73.142857 0 0 0 0 146.285714h-54.857142a73.142857 73.142857 0 0 0-73.142858 73.142857c0 45.586286 29.494857 62.939429 73.142858 69.412572 21.266286 3.163429 59.904 3.730286 73.142857 3.730285h-54.857143a73.142857 73.142857 0 0 0-73.142857 73.142858z" fill="#FBCE9D" p-id="2084"></path><path d="M356.571429 182.857143a18.285714 18.285714 0 0 0-18.285715-18.285714H162.377143c12.854857 11.245714 29.494857 18.285714 47.908571 18.285714h-54.857143a72.466286 72.466286 0 0 0-47.908571 18.285714H338.285714a18.285714 18.285714 0 0 0 18.285715-18.285714zM301.714286 310.857143H107.52c12.854857 11.245714 29.494857 18.285714 47.908571 18.285714h-54.857142a72.466286 72.466286 0 0 0-47.908572 18.285714H301.714286a18.285714 18.285714 0 1 0 0-36.571428zM301.714286 457.142857H55.661714c12.013714 7.369143 27.209143 11.940571 44.909715 14.555429 21.266286 3.163429 59.904 3.730286 73.142857 3.730285h-54.857143a72.466286 72.466286 0 0 0-47.908572 18.285715H301.714286a18.285714 18.285714 0 1 0 0-36.571429z" fill="#F7B563" p-id="2085"></path></svg>