<svg xmlns="http://www.w3.org/2000/svg" viewBox="0 0 1024 1024" version="1.1"><path d="M511.991044 522.264171m-465.714597 0a465.714597 465.714597 0 1 0 931.429194 0 465.714597 465.714597 0 1 0-931.429194 0Z" fill="#E0E1E2" p-id="1932"></path><path d="M511.991044 522.264171m-268.681498 0a268.681498 268.681498 0 1 0 537.362996 0 268.681498 268.681498 0 1 0-537.362996 0Z" fill="#FFFFFF" p-id="1933"></path><path d="M225.397446 1023.802967a17.894188 17.894188 0 0 1-12.663855-30.575955l70.448289-70.448288a17.894188 17.894188 0 1 1 25.327709 25.327709l-70.448288 70.448289a17.858364 17.858364 0 0 1-12.663855 5.248245zM798.584642 1023.802967a17.858364 17.858364 0 0 1-12.663855-5.248245l-70.985652-70.985652a17.894188 17.894188 0 1 1 25.32771-25.327709l70.985651 70.985651a17.894188 17.894188 0 0 1-12.663854 30.575955z" fill="#424A60" p-id="1934"></path><path d="M836.092579 203.679562a17.894188 17.894188 0 0 1-12.663855-30.575954l53.7363-53.7363a17.894188 17.894188 0 1 1 25.327709 25.327709l-53.736299 53.7363a17.840451 17.840451 0 0 1-12.663855 5.248245zM187.907421 203.679562a17.858364 17.858364 0 0 1-12.663855-5.248245l-53.736299-53.7363a17.894188 17.894188 0 1 1 25.327709-25.327709l53.7363 53.7363a17.894188 17.894188 0 0 1-12.663855 30.575954z" fill="#C7CAC7" p-id="1935"></path><path d="M511.991044 1023.802967c-276.54491 0-501.538796-224.993886-501.538796-501.538796s224.993886-501.538796 501.538796-501.538797 501.538796 224.993886 501.538796 501.538797-224.975974 501.538796-501.538796 501.538796z m0-931.429193c-237.04873 0-429.890397 192.859579-429.890397 429.890397s192.841667 429.890397 429.890397 429.890396 429.890397-192.859579 429.890397-429.890396-192.841667-429.890397-429.890397-429.890397z" fill="#26B99A" p-id="1936"></path><path d="M511.991044 108.11851a17.9121 17.9121 0 0 0-17.9121 17.912099v17.9121a17.9121 17.9121 0 1 0 35.8242 0v-17.9121a17.9121 17.9121 0 0 0-17.9121-17.912099zM511.991044 878.338804a17.9121 17.9121 0 0 0-17.9121 17.9121v17.9121a17.9121 17.9121 0 1 0 35.8242 0v-17.9121a17.9121 17.9121 0 0 0-17.9121-17.9121zM906.057241 502.184707h-17.9121a17.9121 17.9121 0 1 0 0 35.824199h17.9121a17.9121 17.9121 0 1 0 0-35.824199zM135.836947 502.184707h-17.9121a17.9121 17.9121 0 1 0 0 35.824199h17.9121a17.9121 17.9121 0 1 0 0-35.824199zM777.967815 228.774414l-12.663855 12.663855a17.894188 17.894188 0 1 0 25.32771 25.327709l12.663854-12.663855a17.894188 17.894188 0 1 0-25.327709-25.327709zM233.350418 773.409723l-12.663854 12.663854a17.894188 17.894188 0 1 0 25.327709 25.32771l12.663855-12.663855a17.894188 17.894188 0 1 0-25.32771-25.327709zM790.63167 773.409723a17.894188 17.894188 0 1 0-25.32771 25.327709l12.663855 12.663855a17.858364 17.858364 0 0 0 25.327709 0 17.894188 17.894188 0 0 0 0-25.32771l-12.663854-12.663854zM246.014273 228.774414a17.894188 17.894188 0 1 0-25.327709 25.327709l12.663854 12.663855a17.858364 17.858364 0 0 0 25.32771 0 17.894188 17.894188 0 0 0 0-25.327709l-12.663855-12.663855z" fill="#26B99A" p-id="1937"></path><path d="M709.024143 540.17627h-143.296799a17.9121 17.9121 0 1 1 0-35.824199h143.296799a17.9121 17.9121 0 1 1 0 35.824199zM511.991044 486.439971a17.9121 17.9121 0 0 1-17.9121-17.9121v-197.033099a17.9121 17.9121 0 1 1 35.8242 0v197.033099a17.9121 17.9121 0 0 1-17.9121 17.9121z" fill="#424A60" p-id="1938"></path><path d="M511.991044 593.91257c-39.514092 0-71.648399-32.134307-71.6484-71.648399s32.134307-71.648399 71.6484-71.6484 71.648399 32.134307 71.648399 71.6484-32.134307 71.648399-71.648399 71.648399z m0-107.472599c-19.757046 0-35.8242 16.067154-35.8242 35.8242s16.067154 35.8242 35.8242 35.824199 35.8242-16.067154 35.8242-35.824199-16.067154-35.8242-35.8242-35.8242z" fill="#424A60" p-id="1939"></path><path d="M976.183112 37.365715a127.552063 127.552063 0 0 1 0 180.392758L795.772442 37.365715a127.587887 127.587887 0 0 1 180.41067 0zM47.816888 37.365715a127.552063 127.552063 0 0 0 0 180.392758L228.209646 37.365715a127.552063 127.552063 0 0 0-180.392758 0z" fill="#E7ECED" p-id="1940"></path></svg>