<svg xmlns="http://www.w3.org/2000/svg" viewBox="0 0 1024 1024" version="1.1"><path d="M512 512m-512 0a512 512 0 1 0 1024 0 512 512 0 1 0-1024 0Z" fill="#38454F" p-id="4568"></path><path d="M395.952552 353.103448h-146.944A37.146483 37.146483 0 0 0 211.862069 390.249931v225.862621c0 20.497655 16.631172 37.128828 37.146483 37.128827h146.944c6.62069 0 13.117793 1.765517 18.838069 5.12L650.24 877.568c24.752552 14.565517 55.966897-3.283862 55.966897-32.008828V160.785655c0-28.724966-31.214345-46.574345-55.966897-32.008827L414.790621 347.983448c-5.720276 3.354483-12.217379 5.12-18.838069 5.12z" fill="#7383BF" p-id="4569"></path></svg>