<svg xmlns="http://www.w3.org/2000/svg" viewBox="0 0 1024 1024" version="1.1"><path d="M1005.037037 189.62963H322.37037a18.962963 18.962963 0 1 1 0-37.925926h682.666667a18.962963 18.962963 0 1 1 0 37.925926zM94.814815 189.62963H18.962963a18.962963 18.962963 0 1 1 0-37.925926h75.851852a18.962963 18.962963 0 1 1 0 37.925926zM1005.037037 549.925926H625.777778a18.962963 18.962963 0 1 1 0-37.925926h379.259259a18.962963 18.962963 0 1 1 0 37.925926zM398.222222 549.925926H18.962963a18.962963 18.962963 0 1 1 0-37.925926h379.259259a18.962963 18.962963 0 1 1 0 37.925926zM701.62963 910.222222H18.962963a18.962963 18.962963 0 1 1 0-37.925926h682.666667a18.962963 18.962963 0 1 1 0 37.925926zM1005.037037 910.222222h-75.851852a18.962963 18.962963 0 1 1 0-37.925926h75.851852a18.962963 18.962963 0 1 1 0 37.925926z" fill="#7383BF" p-id="2034"></path><path d="M94.814815 75.851852h227.555555v189.629629H94.814815zM398.222222 436.148148h227.555556v189.62963H398.222222zM701.62963 796.444444h227.555555v189.62963H701.62963z" fill="#424A60" p-id="2035"></path><path d="M94.814815 37.925926h227.555555v189.62963H94.814815zM398.222222 398.222222h227.555556v189.62963H398.222222zM701.62963 758.518519h227.555555v189.629629H701.62963z" fill="#556080" p-id="2036"></path></svg>