<svg xmlns="http://www.w3.org/2000/svg" viewBox="0 0 1024 1024" version="1.1"><path d="M88.275862 35.310345a17.655172 17.655172 0 0 0-17.655172 17.655172v635.586207a17.655172 17.655172 0 1 0 35.310344 0V52.965517a17.655172 17.655172 0 0 0-17.655172-17.655172zM88.275862 882.758621a17.655172 17.655172 0 0 0-17.655172 17.655172v70.62069a17.655172 17.655172 0 1 0 35.310344 0v-70.62069a17.655172 17.655172 0 0 0-17.655172-17.655172zM370.758621 35.310345a17.655172 17.655172 0 0 0-17.655173 17.655172v459.034483a17.655172 17.655172 0 1 0 35.310345 0V52.965517a17.655172 17.655172 0 0 0-17.655172-17.655172zM370.758621 706.206897a17.655172 17.655172 0 0 0-17.655173 17.655172v247.172414a17.655172 17.655172 0 1 0 35.310345 0V723.862069a17.655172 17.655172 0 0 0-17.655172-17.655172zM653.241379 35.310345a17.655172 17.655172 0 0 0-17.655172 17.655172v282.482759a17.655172 17.655172 0 1 0 35.310345 0V52.965517a17.655172 17.655172 0 0 0-17.655173-17.655172zM653.241379 529.655172a17.655172 17.655172 0 0 0-17.655172 17.655173v423.724138a17.655172 17.655172 0 1 0 35.310345 0V547.310345a17.655172 17.655172 0 0 0-17.655173-17.655173zM935.724138 317.793103a17.655172 17.655172 0 0 0-17.655172 17.655173v635.586207a17.655172 17.655172 0 1 0 35.310344 0V335.448276a17.655172 17.655172 0 0 0-17.655172-17.655173zM935.724138 35.310345a17.655172 17.655172 0 0 0-17.655172 17.655172v70.62069a17.655172 17.655172 0 1 0 35.310344 0V52.965517a17.655172 17.655172 0 0 0-17.655172-17.655172z" fill="#556080" p-id="2195"></path><path d="M0 723.862069h176.551724v211.862069H0zM282.482759 547.310345h176.551724v211.862069H282.482759zM564.965517 370.758621h176.551724v211.862069H564.965517zM847.448276 158.896552h176.551724v211.862069H847.448276z" fill="#C7CAC7" p-id="2196"></path><path d="M0 688.551724h176.551724v211.862069H0zM282.482759 512h176.551724v211.862069H282.482759zM564.965517 335.448276h176.551724v211.862069H564.965517zM847.448276 123.586207h176.551724v211.862069H847.448276z" fill="#E7ECED" p-id="2197"></path><path d="M388.413793 564.965517h-35.310345a17.655172 17.655172 0 1 0 0 35.310345h35.310345a17.655172 17.655172 0 1 0 0-35.310345zM670.896552 459.034483h-35.310345a17.655172 17.655172 0 1 0 0 35.310345h35.310345a17.655172 17.655172 0 1 0 0-35.310345zM670.896552 388.413793h-35.310345a17.655172 17.655172 0 1 0 0 35.310345h35.310345a17.655172 17.655172 0 1 0 0-35.310345zM953.37931 247.172414h-35.310344a17.655172 17.655172 0 1 0 0 35.310345h35.310344a17.655172 17.655172 0 1 0 0-35.310345zM918.068966 211.862069h35.310344a17.655172 17.655172 0 1 0 0-35.310345h-35.310344a17.655172 17.655172 0 1 0 0 35.310345zM388.413793 635.586207h-35.310345a17.655172 17.655172 0 1 0 0 35.310345h35.310345a17.655172 17.655172 0 1 0 0-35.310345zM105.931034 741.517241H70.62069a17.655172 17.655172 0 1 0 0 35.310345h35.310344a17.655172 17.655172 0 1 0 0-35.310345zM105.931034 812.137931H70.62069a17.655172 17.655172 0 1 0 0 35.310345h35.310344a17.655172 17.655172 0 1 0 0-35.310345z" fill="#FFFFFF" p-id="2198"></path></svg>