<svg xmlns="http://www.w3.org/2000/svg" viewBox="0 0 1024 1024" version="1.1"><path d="M512 512m-512 0a512 512 0 1 0 1024 0 512 512 0 1 0-1024 0Z" fill="#F76363" p-id="3974"></path><path d="M211.862069 759.172414a35.310345 35.310345 0 0 1 0-70.62069c97.350621 0 176.551724-79.201103 176.551724-176.551724a35.310345 35.310345 0 0 1 70.62069 0c0 136.297931-110.874483 247.172414-247.172414 247.172414z" fill="#FFFFFF" p-id="3975"></path><path d="M423.724138 547.310345a35.310345 35.310345 0 0 1-35.310345-35.310345c0-136.297931 110.874483-247.172414 247.172414-247.172414h176.551724a35.310345 35.310345 0 0 1 0 70.62069H635.586207c-97.350621 0-176.551724 79.201103-176.551724 176.551724a35.310345 35.310345 0 0 1-35.310345 35.310345zM812.137931 759.172414H635.586207a246.995862 246.995862 0 0 1-163.539862-61.757793 35.328 35.328 0 0 1 46.715586-52.965518A176.463448 176.463448 0 0 0 635.586207 688.551724h176.551724a35.310345 35.310345 0 0 1 0 70.62069zM353.138759 389.367172a35.133793 35.133793 0 0 1-23.534345-9.004138A176.251586 176.251586 0 0 0 211.862069 335.448276h-35.310345a35.310345 35.310345 0 0 1 0-70.62069h35.310345c60.945655 0 119.507862 22.351448 164.846345 62.90538a35.310345 35.310345 0 0 1-23.569655 61.634206zM211.862069 759.172414h-35.310345a35.310345 35.310345 0 0 1 0-70.62069h35.310345a35.310345 35.310345 0 0 1 0 70.62069z" fill="#FFFFFF" p-id="3976"></path><path d="M635.621517 476.689655a35.310345 35.310345 0 0 1-20.815448-63.858758L769.765517 300.137931l-154.941793-112.692965a35.29269 35.29269 0 0 1-7.768276-49.328552 35.29269 35.29269 0 0 1 49.328552-7.768276L889.82069 300.137931l-233.472 169.789793a35.063172 35.063172 0 0 1-20.727173 6.761931zM635.621517 900.413793a35.310345 35.310345 0 0 1-20.815448-63.858759L769.765517 723.862069l-154.941793-112.692966a35.29269 35.29269 0 1 1 41.560276-57.096827L889.82069 723.862069l-233.472 169.789793a35.063172 35.063172 0 0 1-20.727173 6.761931z" fill="#FFFFFF" p-id="3977"></path></svg>